  0
SECTION
  2
HEADER
  9
$ACADVER
  1
AC1024
  9
$ACADMAINTVER
 70
   155
  9
$DWGCODEPAGE
  3
ANSI_1252
  9
$INSBASE
 10
0.0
 20
0.0
 30
0.0
  9
$EXTMIN
 10
1.000000000000000E+20
 20
1.000000000000000E+20
 30
1.000000000000000E+20
  9
$EXTMAX
 10
-1.000000000000000E+20
 20
-1.000000000000000E+20
 30
-1.000000000000000E+20
  9
$LIMMIN
 10
0.0
 20
0.0
  9
$LIMMAX
 10
12.0
 20
9.0
  9
$ORTHOMODE
 70
     0
  9
$REGENMODE
 70
     1
  9
$FILLMODE
 70
     1
  9
$QTEXTMODE
 70
     0
  9
$MIRRTEXT
 70
     1
  9
$LTSCALE
 40
1.0
  9
$ATTMODE
 70
     1
  9
$TEXTSIZE
 40
0.2
  9
$TRACEWID
 40
0.05
  9
$TEXTSTYLE
  7
Standard
  9
$CLAYER
  8
0
  9
$CELTYPE
  6
ByLayer
  9
$CECOLOR
 62
   256
  9
$CELTSCALE
 40
1.0
  9
$DISPSILH
 70
     0
  9
$DIMSCALE
 40
1.0
  9
$DIMASZ
 40
0.18
  9
$DIMEXO
 40
0.0625
  9
$DIMDLI
 40
0.38
  9
$DIMRND
 40
0.0
  9
$DIMDLE
 40
0.0
  9
$DIMEXE
 40
0.18
  9
$DIMTP
 40
0.0
  9
$DIMTM
 40
0.0
  9
$DIMTXT
 40
0.18
  9
$DIMCEN
 40
0.09
  9
$DIMTSZ
 40
0.0
  9
$DIMTOL
 70
     0
  9
$DIMLIM
 70
     0
  9
$DIMTIH
 70
     1
  9
$DIMTOH
 70
     1
  9
$DIMSE1
 70
     0
  9
$DIMSE2
 70
     0
  9
$DIMTAD
 70
     0
  9
$DIMZIN
 70
     0
  9
$DIMBLK
  1

  9
$DIMASO
 70
     1
  9
$DIMSHO
 70
     1
  9
$DIMPOST
  1

  9
$DIMAPOST
  1

  9
$DIMALT
 70
     0
  9
$DIMALTD
 70
     2
  9
$DIMALTF
 40
25.4
  9
$DIMLFAC
 40
1.0
  9
$DIMTOFL
 70
     0
  9
$DIMTVP
 40
0.0
  9
$DIMTIX
 70
     0
  9
$DIMSOXD
 70
     0
  9
$DIMSAH
 70
     0
  9
$DIMBLK1
  1

  9
$DIMBLK2
  1

  9
$DIMSTYLE
  2
Standard
  9
$DIMCLRD
 70
     0
  9
$DIMCLRE
 70
     0
  9
$DIMCLRT
 70
     0
  9
$DIMTFAC
 40
1.0
  9
$DIMGAP
 40
0.09
  9
$DIMJUST
 70
     0
  9
$DIMSD1
 70
     0
  9
$DIMSD2
 70
     0
  9
$DIMTOLJ
 70
     1
  9
$DIMTZIN
 70
     0
  9
$DIMALTZ
 70
     0
  9
$DIMALTTZ
 70
     0
  9
$DIMUPT
 70
     0
  9
$DIMDEC
 70
     4
  9
$DIMTDEC
 70
     4
  9
$DIMALTU
 70
     2
  9
$DIMALTTD
 70
     2
  9
$DIMTXSTY
  7
Standard
  9
$DIMAUNIT
 70
     0
  9
$DIMADEC
 70
     0
  9
$DIMALTRND
 40
0.0
  9
$DIMAZIN
 70
     0
  9
$DIMDSEP
 70
    46
  9
$DIMATFIT
 70
     3
  9
$DIMFRAC
 70
     0
  9
$DIMLDRBLK
  1

  9
$DIMLUNIT
 70
     2
  9
$DIMLWD
 70
    -2
  9
$DIMLWE
 70
    -2
  9
$DIMTMOVE
 70
     0
  9
$DIMFXL
 40
1.0
  9
$DIMFXLON
 70
     0
  9
$DIMJOGANG
 40
0.7853981633974483
  9
$DIMTFILL
 70
     0
  9
$DIMTFILLCLR
 70
     0
  9
$DIMARCSYM
 70
     0
  9
$DIMLTYPE
  6

  9
$DIMLTEX1
  6

  9
$DIMLTEX2
  6

  9
$DIMTXTDIRECTION
 70
     0
  9
$LUNITS
 70
     2
  9
$LUPREC
 70
     4
  9
$SKETCHINC
 40
0.1
  9
$FILLETRAD
 40
0.5
  9
$AUNITS
 70
     0
  9
$AUPREC
 70
     0
  9
$MENU
  1
.
  9
$ELEVATION
 40
0.0
  9
$PELEVATION
 40
0.0
  9
$THICKNESS
 40
0.0
  9
$LIMCHECK
 70
     0
  9
$CHAMFERA
 40
0.5
  9
$CHAMFERB
 40
0.5
  9
$CHAMFERC
 40
1.0
  9
$CHAMFERD
 40
0.0
  9
$SKPOLY
 70
     0
  9
$TDCREATE
 40
2451380.888765729
  9
$TDUCREATE
 40
2451380.805432396
  9
$TDUPDATE
 40
2451380.924513889
  9
$TDUUPDATE
 40
2451380.841180556
  9
$TDINDWG
 40
0.0075615856
  9
$TDUSRTIMER
 40
0.0075525463
  9
$USRTIMER
 70
     1
  9
$ANGBASE
 50
0.0
  9
$ANGDIR
 70
     0
  9
$PDMODE
 70
     0
  9
$PDSIZE
 40
0.0
  9
$PLINEWID
 40
0.0
  9
$SPLFRAME
 70
     0
  9
$SPLINETYPE
 70
     6
  9
$SPLINESEGS
 70
     8
  9
$HANDSEED
  5
28B
  9
$SURFTAB1
 70
     6
  9
$SURFTAB2
 70
     6
  9
$SURFTYPE
 70
     6
  9
$SURFU
 70
     6
  9
$SURFV
 70
     6
  9
$UCSBASE
  2

  9
$UCSNAME
  2

  9
$UCSORG
 10
0.0
 20
0.0
 30
0.0
  9
$UCSXDIR
 10
1.0
 20
0.0
 30
0.0
  9
$UCSYDIR
 10
0.0
 20
1.0
 30
0.0
  9
$UCSORTHOREF
  2

  9
$UCSORTHOVIEW
 70
     0
  9
$UCSORGTOP
 10
0.0
 20
0.0
 30
0.0
  9
$UCSORGBOTTOM
 10
0.0
 20
0.0
 30
0.0
  9
$UCSORGLEFT
 10
0.0
 20
0.0
 30
0.0
  9
$UCSORGRIGHT
 10
0.0
 20
0.0
 30
0.0
  9
$UCSORGFRONT
 10
0.0
 20
0.0
 30
0.0
  9
$UCSORGBACK
 10
0.0
 20
0.0
 30
0.0
  9
$PUCSBASE
  2

  9
$PUCSNAME
  2

  9
$PUCSORG
 10
0.0
 20
0.0
 30
0.0
  9
$PUCSXDIR
 10
1.0
 20
0.0
 30
0.0
  9
$PUCSYDIR
 10
0.0
 20
1.0
 30
0.0
  9
$PUCSORTHOREF
  2

  9
$PUCSORTHOVIEW
 70
     0
  9
$PUCSORGTOP
 10
0.0
 20
0.0
 30
0.0
  9
$PUCSORGBOTTOM
 10
0.0
 20
0.0
 30
0.0
  9
$PUCSORGLEFT
 10
0.0
 20
0.0
 30
0.0
  9
$PUCSORGRIGHT
 10
0.0
 20
0.0
 30
0.0
  9
$PUCSORGFRONT
 10
0.0
 20
0.0
 30
0.0
  9
$PUCSORGBACK
 10
0.0
 20
0.0
 30
0.0
  9
$USERI1
 70
     0
  9
$USERI2
 70
     0
  9
$USERI3
 70
     0
  9
$USERI4
 70
     0
  9
$USERI5
 70
     0
  9
$USERR1
 40
0.0
  9
$USERR2
 40
0.0
  9
$USERR3
 40
0.0
  9
$USERR4
 40
0.0
  9
$USERR5
 40
0.0
  9
$WORLDVIEW
 70
     1
  9
$SHADEDGE
 70
     3
  9
$SHADEDIF
 70
    70
  9
$TILEMODE
 70
     1
  9
$MAXACTVP
 70
    64
  9
$PINSBASE
 10
0.0
 20
0.0
 30
0.0
  9
$PLIMCHECK
 70
     0
  9
$PEXTMIN
 10
1.000000000000000E+20
 20
1.000000000000000E+20
 30
1.000000000000000E+20
  9
$PEXTMAX
 10
-1.000000000000000E+20
 20
-1.000000000000000E+20
 30
-1.000000000000000E+20
  9
$PLIMMIN
 10
0.0
 20
0.0
  9
$PLIMMAX
 10
12.0
 20
9.0
  9
$UNITMODE
 70
     0
  9
$VISRETAIN
 70
     1
  9
$PLINEGEN
 70
     0
  9
$PSLTSCALE
 70
     1
  9
$TREEDEPTH
 70
  3020
  9
$CMLSTYLE
  2
Standard
  9
$CMLJUST
 70
     0
  9
$CMLSCALE
 40
1.0
  9
$PROXYGRAPHICS
 70
     1
  9
$MEASUREMENT
 70
     1
  9
$CELWEIGHT
370
    -1
  9
$ENDCAPS
280
     0
  9
$JOINSTYLE
280
     0
  9
$LWDISPLAY
290
     0
  9
$INSUNITS
 70
     4
  9
$HYPERLINKBASE
  1

  9
$STYLESHEET
  1

  9
$XEDIT
290
     1
  9
$CEPSNTYPE
380
     0
  9
$PSTYLEMODE
290
     1
  9
$FINGERPRINTGUID
  2
{12F50282-3ED8-11D3-A8B7-0060B0F84BC6}
  9
$VERSIONGUID
  2
{12F50293-3ED8-11D3-A8B7-0060B0F84BC6}
  9
$EXTNAMES
290
     1
  9
$PSVPSCALE
 40
0.0
  9
$OLESTARTUP
290
     0
  9
$SORTENTS
280
   127
  9
$INDEXCTL
280
     0
  9
$HIDETEXT
280
     0
  9
$XCLIPFRAME
280
     2
  9
$HALOGAP
280
     0
  9
$OBSCOLOR
 70
   257
  9
$OBSLTYPE
280
     0
  9
$INTERSECTIONDISPLAY
280
     0
  9
$INTERSECTIONCOLOR
 70
   257
  9
$DIMASSOC
280
     1
  9
$PROJECTNAME
  1

  9
$CAMERADISPLAY
290
     0
  9
$LENSLENGTH
 40
50.0
  9
$CAMERAHEIGHT
 40
0.0
  9
$STEPSPERSEC
 40
2.0
  9
$STEPSIZE
 40
6.0
  9
$3DDWFPREC
 40
2.0
  9
$PSOLWIDTH
 40
0.25
  9
$PSOLHEIGHT
 40
4.0
  9
$LOFTANG1
 40
1.570796326794896
  9
$LOFTANG2
 40
1.570796326794896
  9
$LOFTMAG1
 40
0.0
  9
$LOFTMAG2
 40
0.0
  9
$LOFTPARAM
 70
     7
  9
$LOFTNORMALS
280
     1
  9
$LATITUDE
 40
37.795
  9
$LONGITUDE
 40
-122.394
  9
$NORTHDIRECTION
 40
0.0
  9
$TIMEZONE
 70
 -8000
  9
$LIGHTGLYPHDISPLAY
280
     1
  9
$TILEMODELIGHTSYNCH
280
     1
  9
$CMATERIAL
347
AB
  9
$SOLIDHIST
280
     0
  9
$SHOWHIST
280
     1
  9
$DWFFRAME
280
     2
  9
$DGNFRAME
280
     0
  9
$REALWORLDSCALE
290
     1
  9
$INTERFERECOLOR
 62
     1
  9
$INTERFEREOBJVS
345
CD
  9
$INTERFEREVPVS
346
CA
  9
$CSHADOW
280
     0
  9
$SHADOWPLANELOCATION
 40
0.0
  0
ENDSEC
  0
SECTION
  2
CLASSES
  0
CLASS
  1
ACDBDICTIONARYWDFLT
  2
AcDbDictionaryWithDefault
  3
ObjectDBX Classes
 90
        0
 91
        1
280
     0
281
     0
  0
CLASS
  1
ACDBPLACEHOLDER
  2
AcDbPlaceHolder
  3
ObjectDBX Classes
 90
        0
 91
        2
280
     0
281
     0
  0
CLASS
  1
LAYOUT
  2
AcDbLayout
  3
ObjectDBX Classes
 90
        0
 91
        3
280
     0
281
     0
  0
CLASS
  1
MATERIAL
  2
AcDbMaterial
  3
ObjectDBX Classes
 90
     1153
 91
        3
280
     0
281
     0
  0
CLASS
  1
VISUALSTYLE
  2
AcDbVisualStyle
  3
ObjectDBX Classes
 90
     4095
 91
       24
280
     0
281
     0
  0
CLASS
  1
TABLESTYLE
  2
AcDbTableStyle
  3
ObjectDBX Classes
 90
     4095
 91
        1
280
     0
281
     0
  0
CLASS
  1
SCALE
  2
AcDbScale
  3
ObjectDBX Classes
 90
     1153
 91
       17
280
     0
281
     0
  0
CLASS
  1
MLEADERSTYLE
  2
AcDbMLeaderStyle
  3
ACDB_MLEADERSTYLE_CLASS
 90
     4095
 91
        1
280
     0
281
     0
  0
CLASS
  1
ACDBSECTIONVIEWSTYLE
  2
AcDbSectionViewStyle
  3
ObjectDBX Classes
 90
     1025
 91
        1
280
     0
281
     0
  0
CLASS
  1
ACDBDETAILVIEWSTYLE
  2
AcDbDetailViewStyle
  3
ObjectDBX Classes
 90
     1025
 91
        1
280
     0
281
     0
  0
CLASS
  1
DICTIONARYVAR
  2
AcDbDictionaryVar
  3
ObjectDBX Classes
 90
        0
 91
        9
280
     0
281
     0
  0
CLASS
  1
CELLSTYLEMAP
  2
AcDbCellStyleMap
  3
ObjectDBX Classes
 90
     1152
 91
        1
280
     0
281
     0
  0
ENDSEC
  0
SECTION
  2
TABLES
  0
TABLE
  2
VPORT
  5
8
330
0
100
AcDbSymbolTable
 70
     1
  0
VPORT
  5
A8
330
8
100
AcDbSymbolTableRecord
100
AcDbViewportTableRecord
  2
*Active
 70
     0
 10
0.0
 20
0.0
 11
1.0
 21
1.0
 12
31.99910736083984
 22
-52.5826301574707
 13
0.0
 23
0.0
 14
0.5
 24
0.5
 15
0.5
 25
0.5
 16
-1.0
 26
-1.0
 36
1.0
 17
0.0
 27
0.0
 37
0.0
 40
45.46845992437609
 41
1.085199663335605
 42
50.0
 43
0.0
 44
0.0
 50
0.0
 51
0.0
 71
     0
 72
   100
 73
     1
 74
     3
 75
     0
 76
     0
 77
     0
 78
     0
281
     0
 65
     1
110
0.0
120
0.0
130
0.0
111
1.0
121
0.0
131
0.0
112
0.0
122
1.0
132
0.0
 79
     0
146
0.0
348
C9
 60
     3
 61
     5
292
     1
282
     1
141
0.0
142
0.0
 63
   250
421
  3355443
  0
ENDTAB
  0
TABLE
  2
LTYPE
  5
5
330
0
100
AcDbSymbolTable
 70
     1
  0
LTYPE
  5
14
330
5
100
AcDbSymbolTableRecord
100
AcDbLinetypeTableRecord
  2
ByBlock
 70
     0
  3

 72
    65
 73
     0
 40
0.0
  0
LTYPE
  5
15
330
5
100
AcDbSymbolTableRecord
100
AcDbLinetypeTableRecord
  2
ByLayer
 70
     0
  3

 72
    65
 73
     0
 40
0.0
  0
LTYPE
  5
16
330
5
100
AcDbSymbolTableRecord
100
AcDbLinetypeTableRecord
  2
Continuous
 70
     0
  3
Solid line
 72
    65
 73
     0
 40
0.0
  0
ENDTAB
  0
TABLE
  2
LAYER
  5
2
330
0
100
AcDbSymbolTable
 70
     2
  0
LAYER
  5
10
330
2
100
AcDbSymbolTableRecord
100
AcDbLayerTableRecord
  2
0
 70
     0
 62
   173
420
  5789921
  6
Continuous
370
    -3
390
F
347
BB
  0
LAYER
  5
2B
330
2
100
AcDbSymbolTableRecord
100
AcDbLayerTableRecord
  2
ASHADE
 70
     4
 62
     7
  6
Continuous
370
    -3
390
2D
347
BB
  0
ENDTAB
  0
TABLE
  2
STYLE
  5
3
330
0
100
AcDbSymbolTable
 70
     2
  0
STYLE
  5
11
330
3
100
AcDbSymbolTableRecord
100
AcDbTextStyleTableRecord
  2
Standard
 70
     0
 40
0.0
 41
1.0
 50
0.0
 71
     0
 42
0.2
  3
txt
  4

  0
STYLE
  5
2C
330
3
100
AcDbSymbolTableRecord
100
AcDbTextStyleTableRecord
  2
ASHADE
 70
     0
 40
0.2
 41
1.0
 50
0.0
 71
     0
 42
0.2
  3
simplex
  4

  0
ENDTAB
  0
TABLE
  2
VIEW
  5
6
330
0
100
AcDbSymbolTable
 70
     0
  0
ENDTAB
  0
TABLE
  2
UCS
  5
7
330
0
100
AcDbSymbolTable
 70
     0
  0
ENDTAB
  0
TABLE
  2
APPID
  5
9
330
0
100
AcDbSymbolTable
 70
     6
  0
APPID
  5
12
330
9
100
AcDbSymbolTableRecord
100
AcDbRegAppTableRecord
  2
ACAD
 70
     0
  0
APPID
  5
8F
330
9
100
AcDbSymbolTableRecord
100
AcDbRegAppTableRecord
  2
AVE_RENDER
 70
     0
  0
APPID
  5
90
330
9
100
AcDbSymbolTableRecord
100
AcDbRegAppTableRecord
  2
AVE_ENTITY_MATERIAL
 70
     0
  0
APPID
  5
9C
330
9
100
AcDbSymbolTableRecord
100
AcDbRegAppTableRecord
  2
AVE_FINISH
 70
     0
  0
APPID
  5
9D
330
9
100
AcDbSymbolTableRecord
100
AcDbRegAppTableRecord
  2
AVE_MATERIAL
 70
     0
  0
APPID
  5
9E
330
9
100
AcDbSymbolTableRecord
100
AcDbRegAppTableRecord
  2
AVE_GLOBAL
 70
     0
  0
ENDTAB
  0
TABLE
  2
DIMSTYLE
  5
A
330
0
100
AcDbSymbolTable
 70
     1
100
AcDbDimStyleTable
 71
     0
  0
DIMSTYLE
105
27
330
A
100
AcDbSymbolTableRecord
100
AcDbDimStyleTableRecord
  2
Standard
 70
     0
340
11
  0
ENDTAB
  0
TABLE
  2
BLOCK_RECORD
  5
1
330
0
100
AcDbSymbolTable
 70
     6
  0
BLOCK_RECORD
  5
1F
330
1
100
AcDbSymbolTableRecord
100
AcDbBlockTableRecord
  2
*Model_Space
340
22
 70
     0
280
     1
281
     0
  0
BLOCK_RECORD
  5
1B
330
1
100
AcDbSymbolTableRecord
100
AcDbBlockTableRecord
  2
*Paper_Space
340
1E
 70
     0
280
     1
281
     0
  0
BLOCK_RECORD
  5
23
330
1
100
AcDbSymbolTableRecord
100
AcDbBlockTableRecord
  2
*Paper_Space0
340
26
 70
     0
280
     1
281
     0
  0
BLOCK_RECORD
  5
2E
330
1
100
AcDbSymbolTableRecord
100
AcDbBlockTableRecord
  2
direct
340
0
 70
     0
280
     1
281
     0
  0
BLOCK_RECORD
  5
42
330
1
100
AcDbSymbolTableRecord
100
AcDbBlockTableRecord
  2
overhead
340
0
 70
     0
280
     1
281
     0
  0
BLOCK_RECORD
  5
5F
330
1
100
AcDbSymbolTableRecord
100
AcDbBlockTableRecord
  2
sh_spot
340
0
 70
     0
280
     1
281
     0
  0
BLOCK_RECORD
  5
91
330
1
100
AcDbSymbolTableRecord
100
AcDbBlockTableRecord
  2
AVE_RENDER
340
0
102
{BLKREFS
331
94
331
95
331
96
331
97
331
98
331
99
331
9A
331
9B
102
}
 70
     0
280
     1
281
     0
  0
BLOCK_RECORD
  5
9F
330
1
100
AcDbSymbolTableRecord
100
AcDbBlockTableRecord
  2
AVE_GLOBAL
340
0
102
{BLKREFS
331
A2
102
}
 70
     0
280
     1
281
     0
  0
ENDTAB
  0
ENDSEC
  0
SECTION
  2
BLOCKS
  0
BLOCK
  5
20
330
1F
100
AcDbEntity
  8
0
100
AcDbBlockBegin
  2
*Model_Space
 70
     0
 10
0.0
 20
0.0
 30
0.0
  3
*Model_Space
  1

  0
ENDBLK
  5
21
330
1F
100
AcDbEntity
  8
0
100
AcDbBlockEnd
  0
BLOCK
  5
1C
330
1B
100
AcDbEntity
 67
     1
  8
0
100
AcDbBlockBegin
  2
*Paper_Space
 70
     0
 10
0.0
 20
0.0
 30
0.0
  3
*Paper_Space
  1

  0
ENDBLK
  5
1D
330
1B
100
AcDbEntity
 67
     1
  8
0
100
AcDbBlockEnd
  0
BLOCK
  5
24
330
23
100
AcDbEntity
 67
     1
  8
0
100
AcDbBlockBegin
  2
*Paper_Space0
 70
     0
 10
0.0
 20
0.0
 30
0.0
  3
*Paper_Space0
  1

  0
ENDBLK
  5
25
330
23
100
AcDbEntity
 67
     1
  8
0
100
AcDbBlockEnd
  0
BLOCK
  5
40
330
2E
100
AcDbEntity
  8
0
100
AcDbBlockBegin
  2
direct
 70
     2
 10
0.0
 20
0.0
 30
0.0
  3
direct
  1

  0
ATTDEF
  5
2F
330
2E
100
AcDbEntity
  8
ASHADE
  6
Continuous
 62
     1
100
AcDbText
 10
0.0
 20
-0.1
 30
0.0
 40
0.2
  1

  7
ASHADE
 72
     1
 11
0.0
 21
-0.1
 31
0.0
100
AcDbAttributeDefinition
280
     0
  3
Light Name
  2
SNAME
 70
     0
280
     0
  0
ARC
  5
30
330
2E
100
AcDbEntity
  8
ASHADE
  6
Continuous
 62
     7
100
AcDbCircle
 10
0.0
 20
0.0
 30
0.0
 40
0.3
100
AcDbArc
 50
205.6792886194569
 51
334.3207113805431
  0
ARC
  5
31
330
2E
100
AcDbEntity
  8
ASHADE
  6
Continuous
 62
     7
100
AcDbCircle
 10
0.0
 20
0.0
 30
0.0
 40
0.3
100
AcDbArc
 50
25.67928861945685
 51
154.3207113805431
  0
LINE
  5
32
330
2E
100
AcDbEntity
  8
ASHADE
  6
Continuous
 62
     7
100
AcDbLine
 10
-0.21
 20
0.2142428528562855
 30
0.0
 11
-0.21
 21
0.5
 31
0.0
  0
LINE
  5
33
330
2E
100
AcDbEntity
  8
ASHADE
  6
Continuous
 62
     7
100
AcDbLine
 10
-0.11
 20
0.2791057147390572
 30
0.0
 11
-0.11
 21
0.5
 31
0.0
  0
LINE
  5
34
330
2E
100
AcDbEntity
  8
ASHADE
  6
Continuous
 62
     7
100
AcDbLine
 10
0.21
 20
0.2142428528562855
 30
0.0
 11
0.21
 21
0.5
 31
0.0
  0
ATTDEF
  5
35
330
2E
100
AcDbEntity
  8
ASHADE
  6
Continuous
 62
     7
100
AcDbText
 10
0.0
 20
0.25
 30
0.0
 40
0.01
  1

100
AcDbAttributeDefinition
280
     0
  3
Look-at Y
  2
LAY
 70
     1
280
     0
  0
ATTDEF
  5
36
330
2E
100
AcDbEntity
  8
ASHADE
  6
Continuous
 62
     7
100
AcDbText
 10
0.0
 20
0.22
 30
0.0
 40
0.01
  1
1
100
AcDbAttributeDefinition
280
     0
  3
Light Intensity
  2
INTENSITY
 70
     1
280
     0
  0
ATTDEF
  5
37
330
2E
100
AcDbEntity
  8
ASHADE
  6
Continuous
 62
     7
100
AcDbText
 10
0.0
 20
0.16
 30
0.0
 40
0.01
  1
-1
100
AcDbAttributeDefinition
280
     0
  3
*not used*
  2
BEAMD
 70
     1
280
     0
  0
ATTDEF
  5
38
330
2E
100
AcDbEntity
  8
ASHADE
  6
Continuous
 62
     7
100
AcDbText
 10
0.0
 20
0.175
 30
0.0
 40
0.01
  1
-1
100
AcDbAttributeDefinition
280
     0
  3
*not used*
  2
CONED
 70
     1
280
     0
  0
ATTDEF
  5
39
330
2E
100
AcDbEntity
  8
ASHADE
  6
Continuous
 62
     7
100
AcDbText
 10
0.0
 20
0.19
 30
0.0
 40
0.01
  1
0
100
AcDbAttributeDefinition
280
     0
  3
Depth Map Size
  2
CONEA
 70
     1
280
     0
  0
ATTDEF
  5
3A
330
2E
100
AcDbEntity
  8
ASHADE
  6
Continuous
 62
     7
100
AcDbText
 10
0.0
 20
0.2050000000000001
 30
0.0
 40
0.01
  1
1,1,1
100
AcDbAttributeDefinition
280
     0
  3
Light Color (RGB)
  2
COLOR
 70
     1
280
     0
  0
ATTDEF
  5
3B
330
2E
100
AcDbEntity
  8
ASHADE
  6
Continuous
 62
     7
100
AcDbText
 10
0.0
 20
0.235
 30
0.0
 40
0.01
  1

100
AcDbAttributeDefinition
280
     0
  3
Look-at Z
  2
LAZ
 70
     1
280
     0
  0
LINE
  5
3C
330
2E
100
AcDbEntity
  8
ASHADE
  6
Continuous
 62
     7
100
AcDbLine
 10
0.0
 20
0.3
 30
0.0
 11
0.0
 21
0.5
 31
0.0
  0
LINE
  5
3D
330
2E
100
AcDbEntity
  8
ASHADE
  6
Continuous
 62
     7
100
AcDbLine
 10
0.11
 20
0.2791057147390572
 30
0.0
 11
0.11
 21
0.5
 31
0.0
  0
ATTDEF
  5
3E
330
2E
100
AcDbEntity
  8
ASHADE
  6
Continuous
 62
     7
100
AcDbText
 10
0.0
 20
0.265
 30
0.0
 40
0.01
  1

100
AcDbAttributeDefinition
280
     0
  3
Look-at X
  2
LAX
 70
     1
280
     0
  0
ATTDEF
  5
3F
330
2E
100
AcDbEntity
  8
ASHADE
  6
Continuous
 62
     7
100
AcDbText
 10
0.0
 20
0.28
 30
0.0
 40
0.01
  1

100
AcDbAttributeDefinition
280
     0
  3

  2
GNAME
 70
     1
280
     0
  0
ENDBLK
  5
41
330
2E
100
AcDbEntity
  8
0
100
AcDbBlockEnd
  0
BLOCK
  5
5D
330
42
100
AcDbEntity
  8
0
100
AcDbBlockBegin
  2
overhead
 70
     2
 10
0.0
 20
0.0
 30
0.0
  3
overhead
  1

  0
ATTDEF
  5
43
330
42
100
AcDbEntity
  8
ASHADE
  6
Continuous
 62
     1
100
AcDbText
 10
0.0
 20
-0.1
 30
0.0
 40
0.2
  1

  7
ASHADE
 72
     1
 11
0.0
 21
-0.1
 31
0.0
100
AcDbAttributeDefinition
280
     0
  3
Light Name
  2
SNAME
 70
     0
280
     0
  0
ARC
  5
44
330
42
100
AcDbEntity
  8
ASHADE
  6
Continuous
 62
     7
100
AcDbCircle
 10
0.0
 20
0.0
 30
0.0
 40
0.3
100
AcDbArc
 50
205.6792886194569
 51
334.3207113805431
  0
LINE
  5
45
330
42
100
AcDbEntity
  8
ASHADE
  6
Continuous
 62
     7
100
AcDbLine
 10
-0.2041413561583015
 20
-0.2198324514393848
 30
0.0
 11
-0.2721884748777353
 21
-0.2931099352525131
 31
0.0
  0
LINE
  5
46
330
42
100
AcDbEntity
  8
ASHADE
  6
Continuous
 62
     7
100
AcDbLine
 10
-0.1096591641591904
 20
-0.2792398032442862
 30
0.0
 11
-0.1279356915190555
 21
-0.3257797704516673
 31
0.0
  0
LINE
  5
47
330
42
100
AcDbEntity
  8
ASHADE
  6
Continuous
 62
     7
100
AcDbLine
 10
0.0
 20
-0.2999999999999999
 30
0.0
 11
0.0
 21
-0.4
 31
0.0
  0
LINE
  5
48
330
42
100
AcDbEntity
  8
ASHADE
  6
Continuous
 62
     7
100
AcDbLine
 10
0.1096591641591904
 20
-0.2792398032442862
 30
0.0
 11
0.1279356915190555
 21
-0.3257797704516673
 31
0.0
  0
LINE
  5
49
330
42
100
AcDbEntity
  8
ASHADE
  6
Continuous
 62
     7
100
AcDbLine
 10
0.2041413561583015
 20
-0.2198324514393848
 30
0.0
 11
0.2721884748777353
 21
-0.2931099352525131
 31
0.0
  0
ARC
  5
4A
330
42
100
AcDbEntity
  8
ASHADE
  6
Continuous
 62
     7
100
AcDbCircle
 10
0.0
 20
0.0
 30
0.0
 40
0.3
100
AcDbArc
 50
25.67928861945685
 51
154.3207113805431
  0
LINE
  5
4B
330
42
100
AcDbEntity
  8
ASHADE
  6
Continuous
 62
     7
100
AcDbLine
 10
-0.2703701166919155
 20
0.13
 30
0.0
 11
-0.3154318028072347
 21
0.1516666666666666
 31
0.0
  0
LINE
  5
4C
330
42
100
AcDbEntity
  8
ASHADE
  6
Continuous
 62
     7
100
AcDbLine
 10
-0.2703701166919155
 20
-0.13
 30
0.0
 11
-0.3154318028072347
 21
-0.1516666666666666
 31
0.0
  0
LINE
  5
4D
330
42
100
AcDbEntity
  8
ASHADE
  6
Continuous
 62
     7
100
AcDbLine
 10
-0.2041413561583015
 20
0.2198324514393849
 30
0.0
 11
-0.2721884748777353
 21
0.2931099352525131
 31
0.0
  0
LINE
  5
4E
330
42
100
AcDbEntity
  8
ASHADE
  6
Continuous
 62
     7
100
AcDbLine
 10
-0.1096591641591904
 20
0.2792398032442862
 30
0.0
 11
-0.1279356915190555
 21
0.3257797704516674
 31
0.0
  0
LINE
  5
4F
330
42
100
AcDbEntity
  8
ASHADE
  6
Continuous
 62
     7
100
AcDbLine
 10
0.2703701166919155
 20
-0.13
 30
0.0
 11
0.3154318028072347
 21
-0.1516666666666666
 31
0.0
  0
LINE
  5
50
330
42
100
AcDbEntity
  8
ASHADE
  6
Continuous
 62
     7
100
AcDbLine
 10
0.2703701166919155
 20
0.13
 30
0.0
 11
0.3154318028072347
 21
0.1516666666666666
 31
0.0
  0
LINE
  5
51
330
42
100
AcDbEntity
  8
ASHADE
  6
Continuous
 62
     7
100
AcDbLine
 10
0.0
 20
0.3
 30
0.0
 11
0.0
 21
0.4
 31
0.0
  0
ATTDEF
  5
52
330
42
100
AcDbEntity
  8
ASHADE
  6
Continuous
 62
     7
100
AcDbText
 10
0.0
 20
0.22
 30
0.0
 40
0.01
  1
1
100
AcDbAttributeDefinition
280
     0
  3
Light Intensity
  2
INTENSITY
 70
     1
280
     0
  0
ATTDEF
  5
53
330
42
100
AcDbEntity
  8
ASHADE
  6
Continuous
 62
     7
100
AcDbText
 10
0.0
 20
0.16
 30
0.0
 40
0.01
  1
-1
100
AcDbAttributeDefinition
280
     0
  3
*not used*
  2
BEAMD
 70
     1
280
     0
  0
ATTDEF
  5
54
330
42
100
AcDbEntity
  8
ASHADE
  6
Continuous
 62
     7
100
AcDbText
 10
0.0
 20
0.175
 30
0.0
 40
0.01
  1
-1
100
AcDbAttributeDefinition
280
     0
  3
*not used*
  2
CONED
 70
     1
280
     0
  0
ATTDEF
  5
55
330
42
100
AcDbEntity
  8
ASHADE
  6
Continuous
 62
     7
100
AcDbText
 10
0.0
 20
0.19
 30
0.0
 40
0.01
  1
0
100
AcDbAttributeDefinition
280
     0
  3
Depth Map Size
  2
CONEA
 70
     1
280
     0
  0
ATTDEF
  5
56
330
42
100
AcDbEntity
  8
ASHADE
  6
Continuous
 62
     7
100
AcDbText
 10
0.0
 20
0.2050000000000001
 30
0.0
 40
0.01
  1
1,1,1
100
AcDbAttributeDefinition
280
     0
  3
Light Color (RGB)
  2
COLOR
 70
     1
280
     0
  0
ATTDEF
  5
57
330
42
100
AcDbEntity
  8
ASHADE
  6
Continuous
 62
     7
100
AcDbText
 10
0.0
 20
0.235
 30
0.0
 40
0.01
  1

100
AcDbAttributeDefinition
280
     0
  3
Look-at Z
  2
LAZ
 70
     1
280
     0
  0
ATTDEF
  5
58
330
42
100
AcDbEntity
  8
ASHADE
  6
Continuous
 62
     7
100
AcDbText
 10
0.0
 20
0.25
 30
0.0
 40
0.01
  1

100
AcDbAttributeDefinition
280
     0
  3
Look-at Y
  2
LAY
 70
     1
280
     0
  0
ATTDEF
  5
59
330
42
100
AcDbEntity
  8
ASHADE
  6
Continuous
 62
     7
100
AcDbText
 10
0.0
 20
0.265
 30
0.0
 40
0.01
  1

100
AcDbAttributeDefinition
280
     0
  3
Look-at X
  2
LAX
 70
     1
280
     0
  0
ATTDEF
  5
5A
330
42
100
AcDbEntity
  8
ASHADE
  6
Continuous
 62
     7
100
AcDbText
 10
0.0
 20
0.28
 30
0.0
 40
0.01
  1

100
AcDbAttributeDefinition
280
     0
  3

  2
GNAME
 70
     1
280
     0
  0
LINE
  5
5B
330
42
100
AcDbEntity
  8
ASHADE
  6
Continuous
 62
     7
100
AcDbLine
 10
0.1096591641591904
 20
0.2792398032442862
 30
0.0
 11
0.1279356915190555
 21
0.3257797704516674
 31
0.0
  0
LINE
  5
5C
330
42
100
AcDbEntity
  8
ASHADE
  6
Continuous
 62
     7
100
AcDbLine
 10
0.2041413561583015
 20
0.2198324514393849
 30
0.0
 11
0.2721884748777353
 21
0.2931099352525131
 31
0.0
  0
ENDBLK
  5
5E
330
42
100
AcDbEntity
  8
0
100
AcDbBlockEnd
  0
BLOCK
  5
85
330
5F
100
AcDbEntity
  8
0
100
AcDbBlockBegin
  2
sh_spot
 70
     2
 10
0.0
 20
0.0
 30
0.0
  3
sh_spot
  1

  0
LINE
  5
60
330
5F
100
AcDbEntity
  8
ASHADE
  6
Continuous
 62
     7
100
AcDbLine
 10
0.25
 20
0.26
 30
0.0
 11
-0.25
 21
0.26
 31
0.0
  0
LINE
  5
61
330
5F
100
AcDbEntity
  8
ASHADE
  6
Continuous
 62
     7
100
AcDbLine
 10
-0.25
 20
-0.3399999999999999
 30
0.0
 11
0.25
 21
-0.3399999999999999
 31
0.0
  0
ATTDEF
  5
62
330
5F
100
AcDbEntity
  8
ASHADE
  6
Continuous
 62
     1
100
AcDbText
 10
0.0
 20
-0.1
 30
0.0
 40
0.2
  1

  7
ASHADE
 72
     1
 11
0.0
 21
-0.1
 31
0.0
100
AcDbAttributeDefinition
280
     0
  3
Light Name
  2
SNAME
 70
     0
280
     0
  0
LINE
  5
63
330
5F
100
AcDbEntity
  8
ASHADE
  6
Continuous
 62
     7
100
AcDbLine
 10
-0.25
 20
-0.13
 30
0.0
 11
-0.25
 21
-0.3399999999999999
 31
0.0
  0
LINE
  5
64
330
5F
100
AcDbEntity
  8
ASHADE
  6
Continuous
 62
     7
100
AcDbLine
 10
-0.25
 20
-0.18
 30
0.0
 11
-0.29
 21
-0.18
 31
0.0
  0
LINE
  5
65
330
5F
100
AcDbEntity
  8
ASHADE
  6
Continuous
 62
     7
100
AcDbLine
 10
-0.29
 20
-0.22
 30
0.0
 11
-0.25
 21
-0.22
 31
0.0
  0
LINE
  5
66
330
5F
100
AcDbEntity
  8
ASHADE
  6
Continuous
 62
     7
100
AcDbLine
 10
-0.29
 20
-0.18
 30
0.0
 11
-0.29
 21
-0.22
 31
0.0
  0
LINE
  5
67
330
5F
100
AcDbEntity
  8
ASHADE
  6
Continuous
 62
     7
100
AcDbLine
 10
-0.1045454545454545
 20
0.26
 30
0.0
 11
-0.15
 21
0.46
 31
0.0
  0
LINE
  5
68
330
5F
100
AcDbEntity
  8
ASHADE
  6
Continuous
 62
     7
100
AcDbLine
 10
-0.21
 20
0.26
 30
0.0
 11
-0.301304347826087
 21
0.46
 31
0.0
  0
LINE
  5
69
330
5F
100
AcDbEntity
  8
ASHADE
  6
Continuous
 62
     7
100
AcDbLine
 10
-0.25
 20
0.26
 30
0.0
 11
-0.25
 21
0.13
 31
0.0
  0
LINE
  5
6A
330
5F
100
AcDbEntity
  8
ASHADE
  6
Continuous
 62
     7
100
AcDbLine
 10
-0.25
 20
0.22
 30
0.0
 11
-0.29
 21
0.22
 31
0.0
  0
LINE
  5
6B
330
5F
100
AcDbEntity
  8
ASHADE
  6
Continuous
 62
     7
100
AcDbLine
 10
-0.29
 20
0.1799999999999999
 30
0.0
 11
-0.25
 21
0.1799999999999999
 31
0.0
  0
LINE
  5
6C
330
5F
100
AcDbEntity
  8
ASHADE
  6
Continuous
 62
     7
100
AcDbLine
 10
-0.29
 20
0.22
 30
0.0
 11
-0.29
 21
0.1799999999999999
 31
0.0
  0
ATTDEF
  5
6D
330
5F
100
AcDbEntity
  8
ASHADE
  6
Continuous
 62
     7
100
AcDbText
 10
0.0
 20
-0.24
 30
0.0
 40
0.01
  1
0
100
AcDbAttributeDefinition
280
     0
  3
Depth Map Size
  2
ZSIZE
 70
     1
280
     0
  0
ATTDEF
  5
6E
330
5F
100
AcDbEntity
  8
ASHADE
  6
Continuous
 62
     7
100
AcDbText
 10
0.0
 20
-0.3300000000000001
 30
0.0
 40
0.01
  1
0,0,0
100
AcDbAttributeDefinition
280
     0
  3
Look-from XYZ
  2
LFXYZ
 70
     1
280
     0
  0
ATTDEF
  5
6F
330
5F
100
AcDbEntity
  8
ASHADE
  6
Continuous
 62
     7
100
AcDbText
 10
0.0
 20
-0.315
 30
0.0
 40
0.01
  1
0.0
100
AcDbAttributeDefinition
280
     0
  3
Beam Distribution
  2
BEAMDI
 70
     1
280
     0
  0
ATTDEF
  5
70
330
5F
100
AcDbEntity
  8
ASHADE
  6
Continuous
 62
     7
100
AcDbText
 10
0.0
 20
-0.3
 30
0.0
 40
0.01
  1
0.0
100
AcDbAttributeDefinition
280
     0
  3
Cone Delta
  2
CONEDE
 70
     1
280
     0
  0
ATTDEF
  5
71
330
5F
100
AcDbEntity
  8
ASHADE
  6
Continuous
 62
     7
100
AcDbText
 10
0.0
 20
-0.2850000000000001
 30
0.0
 40
0.01
  1
10.0
100
AcDbAttributeDefinition
280
     0
  3
Cone Angle
  2
CONEAN
 70
     1
280
     0
  0
ATTDEF
  5
72
330
5F
100
AcDbEntity
  8
ASHADE
  6
Continuous
 62
     7
100
AcDbText
 10
0.0
 20
-0.27
 30
0.0
 40
0.01
  1
-1
100
AcDbAttributeDefinition
280
     0
  3
*not used*
  2
BIASMAX
 70
     1
280
     0
  0
ATTDEF
  5
73
330
5F
100
AcDbEntity
  8
ASHADE
  6
Continuous
 62
     7
100
AcDbText
 10
0.0
 20
-0.255
 30
0.0
 40
0.01
  1
-1
100
AcDbAttributeDefinition
280
     0
  3
*not used*
  2
BIASMIN
 70
     1
280
     0
  0
ATTDEF
  5
74
330
5F
100
AcDbEntity
  8
ASHADE
  6
Continuous
 62
     7
100
AcDbText
 10
0.0
 20
-0.225
 30
0.0
 40
0.01
  1
1,1,1
100
AcDbAttributeDefinition
280
     0
  3
Light Color (RGB)
  2
COLOR
 70
     1
280
     0
  0
ATTDEF
  5
75
330
5F
100
AcDbEntity
  8
ASHADE
  6
Continuous
 62
     7
100
AcDbText
 10
0.0
 20
-0.21
 30
0.0
 40
0.01
  1
1
100
AcDbAttributeDefinition
280
     0
  3
Light Intensity
  2
INTENSITY
 70
     1
280
     0
  0
ATTDEF
  5
76
330
5F
100
AcDbEntity
  8
ASHADE
  6
Continuous
 62
     7
100
AcDbText
 10
0.0
 20
-0.15
 30
0.0
 40
0.01
  1

100
AcDbAttributeDefinition
280
     0
  3

  2
GNAME
 70
     1
280
     0
  0
ATTDEF
  5
77
330
5F
100
AcDbEntity
  8
ASHADE
  6
Continuous
 62
     7
100
AcDbText
 10
0.0
 20
-0.195
 30
0.0
 40
0.01
  1

100
AcDbAttributeDefinition
280
     0
  3
Look-at Z
  2
LAZ
 70
     1
280
     0
  0
ATTDEF
  5
78
330
5F
100
AcDbEntity
  8
ASHADE
  6
Continuous
 62
     7
100
AcDbText
 10
0.0
 20
-0.18
 30
0.0
 40
0.01
  1

100
AcDbAttributeDefinition
280
     0
  3
Look-at Y
  2
LAY
 70
     1
280
     0
  0
ATTDEF
  5
79
330
5F
100
AcDbEntity
  8
ASHADE
  6
Continuous
 62
     7
100
AcDbText
 10
0.0
 20
-0.165
 30
0.0
 40
0.01
  1

100
AcDbAttributeDefinition
280
     0
  3
Look-at X
  2
LAX
 70
     1
280
     0
  0
LINE
  5
7A
330
5F
100
AcDbEntity
  8
ASHADE
  6
Continuous
 62
     7
100
AcDbLine
 10
0.25
 20
-0.3399999999999999
 30
0.0
 11
0.25
 21
-0.13
 31
0.0
  0
LINE
  5
7B
330
5F
100
AcDbEntity
  8
ASHADE
  6
Continuous
 62
     7
100
AcDbLine
 10
0.25
 20
-0.18
 30
0.0
 11
0.29
 21
-0.18
 31
0.0
  0
LINE
  5
7C
330
5F
100
AcDbEntity
  8
ASHADE
  6
Continuous
 62
     7
100
AcDbLine
 10
0.29
 20
-0.22
 30
0.0
 11
0.25
 21
-0.22
 31
0.0
  0
LINE
  5
7D
330
5F
100
AcDbEntity
  8
ASHADE
  6
Continuous
 62
     7
100
AcDbLine
 10
0.29
 20
-0.18
 30
0.0
 11
0.29
 21
-0.22
 31
0.0
  0
LINE
  5
7E
330
5F
100
AcDbEntity
  8
ASHADE
  6
Continuous
 62
     7
100
AcDbLine
 10
0.21
 20
0.26
 30
0.0
 11
0.301304347826087
 21
0.46
 31
0.0
  0
LINE
  5
7F
330
5F
100
AcDbEntity
  8
ASHADE
  6
Continuous
 62
     7
100
AcDbLine
 10
0.1045454545454545
 20
0.26
 30
0.0
 11
0.15
 21
0.46
 31
0.0
  0
LINE
  5
80
330
5F
100
AcDbEntity
  8
ASHADE
  6
Continuous
 62
     7
100
AcDbLine
 10
0.0
 20
0.26
 30
0.0
 11
0.0
 21
0.46
 31
0.0
  0
LINE
  5
81
330
5F
100
AcDbEntity
  8
ASHADE
  6
Continuous
 62
     7
100
AcDbLine
 10
0.25
 20
0.13
 30
0.0
 11
0.25
 21
0.26
 31
0.0
  0
LINE
  5
82
330
5F
100
AcDbEntity
  8
ASHADE
  6
Continuous
 62
     7
100
AcDbLine
 10
0.25
 20
0.22
 30
0.0
 11
0.29
 21
0.22
 31
0.0
  0
LINE
  5
83
330
5F
100
AcDbEntity
  8
ASHADE
  6
Continuous
 62
     7
100
AcDbLine
 10
0.29
 20
0.1799999999999999
 30
0.0
 11
0.25
 21
0.1799999999999999
 31
0.0
  0
LINE
  5
84
330
5F
100
AcDbEntity
  8
ASHADE
  6
Continuous
 62
     7
100
AcDbLine
 10
0.29
 20
0.22
 30
0.0
 11
0.29
 21
0.1799999999999999
 31
0.0
  0
ENDBLK
  5
86
330
5F
100
AcDbEntity
  8
0
100
AcDbBlockEnd
  0
BLOCK
  5
92
330
91
100
AcDbEntity
  8
ASHADE
100
AcDbBlockBegin
  2
AVE_RENDER
 70
     0
 10
0.0
 20
0.0
 30
0.0
  3
AVE_RENDER
  1
AVE_RENDER
  0
ENDBLK
  5
93
330
91
100
AcDbEntity
  8
0
100
AcDbBlockEnd
  0
BLOCK
  5
A0
330
9F
100
AcDbEntity
  8
ASHADE
100
AcDbBlockBegin
  2
AVE_GLOBAL
 70
     0
 10
0.0
 20
0.0
 30
0.0
  3
AVE_GLOBAL
  1
AVE_GLOBAL
  0
ENDBLK
  5
A1
330
9F
100
AcDbEntity
  8
0
100
AcDbBlockEnd
  0
ENDSEC
  0
SECTION
  2
ENTITIES
  0
INSERT
  5
94
330
1F
100
AcDbEntity
  8
ASHADE
 62
     1
100
AcDbBlockReference
  2
AVE_RENDER
 10
0.0
 20
0.0
 30
0.0
1001
AVE_RENDER
1002
{
1070
     7
1000
Pref
1070
    30
1070
    20
1070
     1
1070
     0
1000

1070
    10
1070
     1
1070
    10
1040
1.0
1070
     1
1040
0.3
1040
0.7
1040
0.0
1040
10.0
1010
-1.0
1020
-1.0
1030
-1.0
1040
0.3
1070
    49
1070
     0
1070
     0
1010
1.0
1020
1.0
1030
1.0
1040
45.0
1070
     1
1070
     0
1000
WCS
1040
0.0
1070
     0
1040
10.0
1002
}
  0
INSERT
  5
95
330
1F
100
AcDbEntity
  8
ASHADE
 62
     3
100
AcDbBlockReference
  2
AVE_RENDER
 10
0.0
 20
0.0
 30
0.0
1001
AVE_RENDER
1002
{
1070
     0
1000
Full Opt
1070
     0
1070
     1
1070
     1
1070
     1
1070
     0
1070
     0
1070
     0
1070
     1
1070
     1
1040
0.0001
1040
0.0001
1002
}
  0
INSERT
  5
96
330
1F
100
AcDbEntity
  8
ASHADE
 62
     4
100
AcDbBlockReference
  2
AVE_RENDER
 10
0.0
 20
0.0
 30
0.0
1001
AVE_RENDER
1002
{
1070
     0
1000
Quick Opt
1070
     0
1070
     1
1070
     1
1070
     1
1070
     0
1070
     0
1070
     1
1002
}
  0
INSERT
  5
97
330
1F
100
AcDbEntity
  8
ASHADE
 62
     5
100
AcDbBlockReference
  2
AVE_RENDER
 10
0.0
 20
0.0
 30
0.0
1001
AVE_RENDER
1002
{
1070
     1
1000
Scanl Opt
1070
     2
1070
     0
1070
     2
1040
2.0
1040
4.0
1070
     0
1070
     1
1070
     0
1040
0.03
1002
}
  0
INSERT
  5
98
330
1F
100
AcDbEntity
  8
ASHADE
 62
     6
100
AcDbBlockReference
  2
AVE_RENDER
 10
0.0
 20
0.0
 30
0.0
1001
AVE_RENDER
1002
{
1070
     2
1000
Raytr Opt
1070
     2
1070
     0
1070
     2
1040
2.0
1040
4.0
1070
     0
1070
     1
1070
     1
1040
0.03
1070
     3
1040
0.03
1002
}
  0
INSERT
  5
99
330
1F
100
AcDbEntity
  8
ASHADE
 62
     7
100
AcDbBlockReference
  2
AVE_RENDER
 10
0.0
 20
0.0
 30
0.0
1001
AVE_RENDER
1002
{
1070
     0
1000
RFile Opt
1070
     1
1070
   640
1070
   480
1070
 10000
1070
     1
1070
     8
1070
     8
1070
     0
1070
     0
1070
     0
1070
     0
1070
     0
1070
     0
1070
     0
1002
}
  0
INSERT
  5
9A
330
1F
100
AcDbEntity
  8
ASHADE
 62
     8
100
AcDbBlockReference
  2
AVE_RENDER
 10
0.0
 20
0.0
 30
0.0
1001
AVE_RENDER
1002
{
1070
     0
1000
Fog Opt
1070
     0
1070
     0
1040
0.0
1040
1.0
1040
0.0
1040
1.0
1010
0.5
1020
0.5
1030
0.5
1002
}
  0
INSERT
  5
9B
330
1F
100
AcDbEntity
  8
ASHADE
 62
     9
100
AcDbBlockReference
  2
AVE_RENDER
 10
0.0
 20
0.0
 30
0.0
1001
AVE_RENDER
1002
{
1070
     0
1000
BG Opt
1070
     0
1070
     1
1010
0.0
1020
0.0
1030
0.0
1010
1.0
1020
0.0
1030
0.0
1010
0.0
1020
1.0
1030
0.0
1010
0.0
1020
0.0
1030
1.0
1040
0.5
1040
0.33
1040
0.0
1000

1070
     1
1000

1070
     1
1070
     1
1040
1.0
1040
1.0
1040
0.0
1040
0.0
1070
     0
1002
}
  0
INSERT
  5
A2
330
1F
100
AcDbEntity
  8
ASHADE
 62
     1
100
AcDbBlockReference
  2
AVE_GLOBAL
 10
0.0
 20
0.0
 30
0.0
1001
AVE_MATERIAL
1002
{
1000
*GLOBAL*
1000
2
1000
Global finish.
1002
{
1002
}
1002
{
1070
    63
1002
{
1002
{
1010
-1.0
1020
-1.0
1030
-1.0
1002
}
1040
0.1000000014901161
1000

1040
0.0
1002
{
1002
}
1040
0.0
1002
{
1002
}
1040
0.0
1002
}
1002
{
1002
{
1010
-1.0
1020
-1.0
1030
-1.0
1002
}
1040
0.6999999880790711
1000

1040
0.0
1002
{
1002
}
1040
0.0
1002
{
1002
}
1040
0.0
1002
}
1002
{
1002
{
1010
-1.0
1020
-1.0
1030
-1.0
1002
}
1040
0.2000000029802322
1000

1040
0.0
1002
{
1002
}
1040
0.0
1002
{
1002
}
1040
0.0
1002
}
1002
{
1070
     0
1002
{
1070
     1
1002
{
1040
1.0
1040
1.0
1000

1040
0.0
1002
{
1002
}
1040
0.0
1002
{
1002
}
1040
0.0
1002
}
1002
}
1040
1.0
1040
0.0
1040
0.0
1002
}
1002
{
1040
1.0
1040
1.0
1000

1040
0.0
1002
{
1002
}
1040
0.0
1002
{
1002
}
1040
0.0
1002
}
1002
{
1040
0.5
1040
1.0
1000

1040
0.0
1002
{
1002
}
1040
0.0
1002
{
1002
}
1040
0.0
1002
}
1002
{
1070
     0
1040
0.0
1002
{
1002
}
1040
1.0
1002
{
1002
}
1040
0.0
1002
}
1002
{
1040
0.0
1002
{
1002
{
1010
0.0
1020
0.0
1030
0.0
1002
}
1040
1.0
1000

1040
0.0
1002
{
1002
}
1040
0.0
1002
{
1002
}
1040
0.0
1002
}
1002
}
1002
{
1002
{
1070
     1
1002
{
1040
0.0
1040
1.0
1000

1040
0.0
1002
{
1002
}
1040
0.0
1002
{
1002
}
1040
0.0
1002
}
1002
}
1040
0.0
1002
{
1002
}
1010
1.0
1020
0.0
1030
0.0
1010
0.0
1020
1.0
1030
0.0
1010
0.0
1020
0.0
1030
1.0
1070
     0
1002
}
1002
{
1002
{
1040
1.0
1040
1.0
1002
{
1070
     1
1002
{
1040
1.0
1040
1.0
1000

1040
0.0
1002
{
1002
}
1040
0.0
1002
{
1002
}
1040
0.0
1002
}
1002
}
1002
}
1070
     0
1040
0.0
1002
{
1002
}
1002
}
1002
{
1002
}
1002
}
1002
{
1071
        3
1070
     3
1070
     0
1002
{
1070
     2
1070
     0
1070
     0
1040
0.0
1002
}
1070
     0
1070
     2
1002
{
1002
}
1002
}
1002
{
1040
8030.0
1040
190.3000030517578
1040
0.3050000071525574
1040
228.0
1040
545.0
1040
14.0
1040
17.39999961853027
1040
0.4560000002384186
1002
}
1002
}
  0
POLYLINE
  5
F7
330
1F
100
AcDbEntity
  8
0
 62
    56
420
  7440134
100
AcDb3dPolyline
 66
     1
 10
0.0
 20
0.0
 30
0.0
 70
     9
  0
VERTEX
  5
F8
330
F7
100
AcDbEntity
  8
0
 62
    56
420
  7440134
100
AcDbVertex
100
AcDb3dPolylineVertex
 10
42.74787521362305
 20
0.0000041616553972
 30
-82.86196899414063
 70
    32
  0
VERTEX
  5
F9
330
F7
100
AcDbEntity
  8
0
 62
    56
420
  7440134
100
AcDbVertex
100
AcDb3dPolylineVertex
 10
39.42275619506836
 20
0.0000025392355383
 30
-81.04258728027344
 70
    32
  0
VERTEX
  5
FA
330
F7
100
AcDbEntity
  8
0
 62
    56
420
  7440134
100
AcDbVertex
100
AcDb3dPolylineVertex
 10
39.050048828125
 20
0.0000025017266125
 30
-80.84898376464844
 70
    32
  0
VERTEX
  5
FB
330
F7
100
AcDbEntity
  8
0
 62
    56
420
  7440134
100
AcDbVertex
100
AcDb3dPolylineVertex
 10
38.66988754272461
 20
0.000002457098617
 30
-80.67160797119141
 70
    32
  0
VERTEX
  5
FC
330
F7
100
AcDbEntity
  8
0
 62
    56
420
  7440134
100
AcDbVertex
100
AcDb3dPolylineVertex
 10
38.28290557861328
 20
0.0000024085777568
 30
-80.51028442382813
 70
    32
  0
VERTEX
  5
FD
330
F7
100
AcDbEntity
  8
0
 62
    56
420
  7440134
100
AcDbVertex
100
AcDb3dPolylineVertex
 10
37.88971710205078
 20
0.0000023593891001
 30
-80.36483764648437
 70
    32
  0
VERTEX
  5
FE
330
F7
100
AcDbEntity
  8
0
 62
    56
420
  7440134
100
AcDbVertex
100
AcDb3dPolylineVertex
 10
37.49095153808594
 20
0.000002312758852
 30
-80.23509979248046
 70
    32
  0
VERTEX
  5
FF
330
F7
100
AcDbEntity
  8
0
 62
    56
420
  7440134
100
AcDbVertex
100
AcDb3dPolylineVertex
 10
37.08722686767578
 20
0.0000022719125354
 30
-80.12088775634765
 70
    32
  0
VERTEX
  5
100
330
F7
100
AcDbEntity
  8
0
 62
    56
420
  7440134
100
AcDbVertex
100
AcDb3dPolylineVertex
 10
36.67917251586914
 20
0.0000022400759008
 30
-80.02201843261719
 70
    32
  0
VERTEX
  5
101
330
F7
100
AcDbEntity
  8
0
 62
    56
420
  7440134
100
AcDbVertex
100
AcDb3dPolylineVertex
 10
36.26740646362305
 20
0.0000022204746983
 30
-79.93833160400391
 70
    32
  0
VERTEX
  5
102
330
F7
100
AcDbEntity
  8
0
 62
    56
420
  7440134
100
AcDbVertex
100
AcDb3dPolylineVertex
 10
35.8529052734375
 20
0.0000022093793177
 30
-79.87023162841797
 70
    32
  0
VERTEX
  5
103
330
F7
100
AcDbEntity
  8
0
 62
    56
420
  7440134
100
AcDbVertex
100
AcDb3dPolylineVertex
 10
35.43654632568359
 20
0.0000022009103304
 30
-79.81824493408203
 70
    32
  0
VERTEX
  5
104
330
F7
100
AcDbEntity
  8
0
 62
    56
420
  7440134
100
AcDbVertex
100
AcDb3dPolylineVertex
 10
35.018798828125
 20
0.0000021950704649
 30
-79.78240203857422
 70
    32
  0
VERTEX
  5
105
330
F7
100
AcDbEntity
  8
0
 62
    56
420
  7440134
100
AcDbVertex
100
AcDb3dPolylineVertex
 10
34.60013580322266
 20
0.0000021918613129
 30
-79.76270294189453
 70
    32
  0
VERTEX
  5
106
330
F7
100
AcDbEntity
  8
0
 62
    56
420
  7440134
100
AcDbVertex
100
AcDb3dPolylineVertex
 10
34.18102264404297
 20
0.0000021912856027
 30
-79.75917053222656
 70
    32
  0
VERTEX
  5
107
330
F7
100
AcDbEntity
  8
0
 62
    56
420
  7440134
100
AcDbVertex
100
AcDb3dPolylineVertex
 10
33.76193237304688
 20
0.0000021933449261
 30
-79.77181243896485
 70
    32
  0
VERTEX
  5
108
330
F7
100
AcDbEntity
  8
0
 62
    56
420
  7440134
100
AcDbVertex
100
AcDb3dPolylineVertex
 10
33.34333419799805
 20
0.0000021980417841
 30
-79.80064392089843
 70
    32
  0
VERTEX
  5
109
330
F7
100
AcDbEntity
  8
0
 62
    56
420
  7440134
100
AcDbVertex
100
AcDb3dPolylineVertex
 10
32.92569732666016
 20
0.0000022053779958
 30
-79.84567260742188
 70
    32
  0
VERTEX
  5
10A
330
F7
100
AcDbEntity
  8
0
 62
    56
420
  7440134
100
AcDbVertex
100
AcDb3dPolylineVertex
 10
32.1976547241211
 20
0.0000022415269996
 30
-79.96367645263672
 70
    32
  0
VERTEX
  5
10B
330
F7
100
AcDbEntity
  8
0
 62
    56
420
  7440134
100
AcDbVertex
100
AcDb3dPolylineVertex
 10
31.48032760620117
 20
0.0000023078710001
 30
-80.13052368164062
 70
    32
  0
VERTEX
  5
10C
330
F7
100
AcDbEntity
  8
0
 62
    56
420
  7440134
100
AcDbVertex
100
AcDb3dPolylineVertex
 10
30.77617073059082
 20
0.0000023868788048
 30
-80.34551239013671
 70
    32
  0
VERTEX
  5
10D
330
F7
100
AcDbEntity
  8
0
 62
    56
420
  7440134
100
AcDbVertex
100
AcDb3dPolylineVertex
 10
30.0876350402832
 20
0.0000024610199034
 30
-80.60792541503905
 70
    32
  0
VERTEX
  5
10E
330
F7
100
AcDbEntity
  8
0
 62
    56
420
  7440134
100
AcDbVertex
100
AcDb3dPolylineVertex
 10
30.07085037231445
 20
0.0000024625355763
 30
-80.61437225341796
 70
    32
  0
VERTEX
  5
10F
330
F7
100
AcDbEntity
  8
0
 62
    56
420
  7440134
100
AcDbVertex
100
AcDb3dPolylineVertex
 10
30.05400848388672
 20
0.0000024638418381
 30
-80.61963653564452
 70
    32
  0
VERTEX
  5
110
330
F7
100
AcDbEntity
  8
0
 62
    56
420
  7440134
100
AcDbVertex
100
AcDb3dPolylineVertex
 10
30.03714942932129
 20
0.0000024649452826
 30
-80.62376403808594
 70
    32
  0
VERTEX
  5
111
330
F7
100
AcDbEntity
  8
0
 62
    56
420
  7440134
100
AcDbVertex
100
AcDb3dPolylineVertex
 10
30.02030754089356
 20
0.0000024658511393
 30
-80.62676239013672
 70
    32
  0
VERTEX
  5
112
330
F7
100
AcDbEntity
  8
0
 62
    56
420
  7440134
100
AcDbVertex
100
AcDb3dPolylineVertex
 10
30.00352478027344
 20
0.0000024665650926
 30
-80.62866973876953
 70
    32
  0
VERTEX
  5
113
330
F7
100
AcDbEntity
  8
0
 62
    56
420
  7440134
100
AcDbVertex
100
AcDb3dPolylineVertex
 10
29.98683738708496
 20
0.000002467093509
 30
-80.62950897216797
 70
    32
  0
VERTEX
  5
114
330
F7
100
AcDbEntity
  8
0
 62
    56
420
  7440134
100
AcDbVertex
100
AcDb3dPolylineVertex
 10
29.97028923034668
 20
0.0000024674423003
 30
-80.62931060791015
 70
    32
  0
VERTEX
  5
115
330
F7
100
AcDbEntity
  8
0
 62
    56
420
  7440134
100
AcDbVertex
100
AcDb3dPolylineVertex
 10
29.95391464233398
 20
0.0000024676162411
 30
-80.62809753417969
 70
    32
  0
VERTEX
  5
116
330
F7
100
AcDbEntity
  8
0
 62
    56
420
  7440134
100
AcDbVertex
100
AcDb3dPolylineVertex
 10
29.93775367736816
 20
0.0000024676219255
 30
-80.62590026855469
 70
    32
  0
VERTEX
  5
117
330
F7
100
AcDbEntity
  8
0
 62
    56
420
  7440134
100
AcDbVertex
100
AcDb3dPolylineVertex
 10
29.92184448242188
 20
0.0000024674650376
 30
-80.62274169921876
 70
    32
  0
VERTEX
  5
118
330
F7
100
AcDbEntity
  8
0
 62
    56
420
  7440134
100
AcDbVertex
100
AcDb3dPolylineVertex
 10
29.90622329711914
 20
0.0000024671514893
 30
-80.61865234375
 70
    32
  0
VERTEX
  5
119
330
F7
100
AcDbEntity
  8
0
 62
    56
420
  7440134
100
AcDbVertex
100
AcDb3dPolylineVertex
 10
29.89093399047852
 20
0.0000024666867375
 30
-80.61365509033203
 70
    32
  0
VERTEX
  5
11A
330
F7
100
AcDbEntity
  8
0
 62
    56
420
  7440134
100
AcDbVertex
100
AcDb3dPolylineVertex
 10
29.87601470947266
 20
0.000002466076694
 30
-80.60778808593751
 70
    32
  0
VERTEX
  5
11B
330
F7
100
AcDbEntity
  8
0
 62
    56
420
  7440134
100
AcDbVertex
100
AcDb3dPolylineVertex
 10
29.86150169372559
 20
0.0000024653272703
 30
-80.60105895996093
 70
    32
  0
VERTEX
  5
11C
330
F7
100
AcDbEntity
  8
0
 62
    56
420
  7440134
100
AcDbVertex
100
AcDb3dPolylineVertex
 10
29.84743309020996
 20
0.000002464444151
 30
-80.59351348876953
 70
    32
  0
VERTEX
  5
11D
330
F7
100
AcDbEntity
  8
0
 62
    56
420
  7440134
100
AcDbVertex
100
AcDb3dPolylineVertex
 10
29.8338508605957
 20
0.0000024634332476
 30
-80.58516693115235
 70
    32
  0
VERTEX
  5
11E
330
F7
100
AcDbEntity
  8
0
 62
    56
420
  7440134
100
AcDbVertex
100
AcDb3dPolylineVertex
 10
29.82078742980957
 20
0.000002462300472
 30
-80.57605743408203
 70
    32
  0
VERTEX
  5
11F
330
F7
100
AcDbEntity
  8
0
 62
    56
420
  7440134
100
AcDbVertex
100
AcDb3dPolylineVertex
 10
29.80829238891601
 20
0.0000024610510536
 30
-80.56620025634765
 70
    32
  0
VERTEX
  5
120
330
F7
100
AcDbEntity
  8
0
 62
    56
420
  7440134
100
AcDbVertex
100
AcDb3dPolylineVertex
 10
29.79639434814453
 20
0.0000024596915864
 30
-80.55562591552734
 70
    32
  0
VERTEX
  5
121
330
F7
100
AcDbEntity
  8
0
 62
    56
420
  7440134
100
AcDbVertex
100
AcDb3dPolylineVertex
 10
29.78513526916504
 20
0.0000024582270726
 30
-80.54435729980468
 70
    32
  0
VERTEX
  5
122
330
F7
100
AcDbEntity
  8
0
 62
    56
420
  7440134
100
AcDbVertex
100
AcDb3dPolylineVertex
 10
29.77455520629883
 20
0.0000024566638785
 30
-80.53243255615234
 70
    32
  0
VERTEX
  5
123
330
F7
100
AcDbEntity
  8
0
 62
    56
420
  7440134
100
AcDbVertex
100
AcDb3dPolylineVertex
 10
29.76469230651856
 20
0.0000024550074613
 30
-80.51987457275391
 70
    32
  0
VERTEX
  5
124
330
F7
100
AcDbEntity
  8
0
 62
    56
420
  7440134
100
AcDbVertex
100
AcDb3dPolylineVertex
 10
29.75558471679688
 20
0.0000024532637326
 30
-80.50670623779296
 70
    32
  0
VERTEX
  5
125
330
F7
100
AcDbEntity
  8
0
 62
    56
420
  7440134
100
AcDbVertex
100
AcDb3dPolylineVertex
 10
29.74726867675781
 20
0.0000024514388315
 30
-80.49295806884765
 70
    32
  0
VERTEX
  5
126
330
F7
100
AcDbEntity
  8
0
 62
    56
420
  7440134
100
AcDbVertex
100
AcDb3dPolylineVertex
 10
29.73978996276855
 20
0.0000024495379876
 30
-80.47865295410156
 70
    32
  0
VERTEX
  5
127
330
F7
100
AcDbEntity
  8
0
 62
    56
420
  7440134
100
AcDbVertex
100
AcDb3dPolylineVertex
 10
29.73318099975586
 20
0.0000024475671125
 30
-80.46382141113282
 70
    32
  0
VERTEX
  5
128
330
F7
100
AcDbEntity
  8
0
 62
    56
420
  7440134
100
AcDbVertex
100
AcDb3dPolylineVertex
 10
29.72748184204102
 20
0.0000024455323455
 30
-80.44848632812501
 70
    32
  0
VERTEX
  5
129
330
F7
100
AcDbEntity
  8
0
 62
    56
420
  7440134
100
AcDbVertex
100
AcDb3dPolylineVertex
 10
29.72273445129395
 20
0.0000024434393708
 30
-80.43267822265624
 70
    32
  0
VERTEX
  5
12A
330
F7
100
AcDbEntity
  8
0
 62
    56
420
  7440134
100
AcDbVertex
100
AcDb3dPolylineVertex
 10
29.71897315979004
 20
0.0000024412936455
 30
-80.41642761230468
 70
    32
  0
VERTEX
  5
12B
330
F7
100
AcDbEntity
  8
0
 62
    56
420
  7440134
100
AcDbVertex
100
AcDb3dPolylineVertex
 10
29.71623992919922
 20
0.0000024391013085
 30
-80.3997573852539
 70
    32
  0
VERTEX
  5
12C
330
F7
100
AcDbEntity
  8
0
 62
    56
420
  7440134
100
AcDbVertex
100
AcDb3dPolylineVertex
 10
29.71456909179688
 20
0.0000024368682716
 30
-80.3826904296875
 70
    32
  0
VERTEX
  5
12D
330
F7
100
AcDbEntity
  8
0
 62
    56
420
  7440134
100
AcDbVertex
100
AcDb3dPolylineVertex
 10
29.71400451660156
 20
0.0000024345997645
 30
-80.36525726318359
 70
    32
  0
VERTEX
  5
12E
330
F7
100
AcDbEntity
  8
0
 62
    56
420
  7440134
100
AcDbVertex
100
AcDb3dPolylineVertex
 10
29.71400451660156
 20
0.0000022913895918
 30
-78.81503295898437
 70
    32
  0
VERTEX
  5
12F
330
F7
100
AcDbEntity
  8
0
 62
    56
420
  7440134
100
AcDbVertex
100
AcDb3dPolylineVertex
 10
29.71364021301269
 20
0.0000022903921035
 30
-78.80072021484375
 70
    32
  0
VERTEX
  5
130
330
F7
100
AcDbEntity
  8
0
 62
    56
420
  7440134
100
AcDbVertex
100
AcDb3dPolylineVertex
 10
29.71256637573242
 20
0.0000022894089398
 30
-78.78660583496094
 70
    32
  0
VERTEX
  5
131
330
F7
100
AcDbEntity
  8
0
 62
    56
420
  7440134
100
AcDbVertex
100
AcDb3dPolylineVertex
 10
29.71079254150391
 20
0.0000022884405553
 30
-78.77268981933593
 70
    32
  0
VERTEX
  5
132
330
F7
100
AcDbEntity
  8
0
 62
    56
420
  7440134
100
AcDbVertex
100
AcDb3dPolylineVertex
 10
29.70834541320801
 20
0.0000022874883143
 30
-78.75898742675781
 70
    32
  0
VERTEX
  5
133
330
F7
100
AcDbEntity
  8
0
 62
    56
420
  7440134
100
AcDbVertex
100
AcDb3dPolylineVertex
 10
29.70523452758789
 20
0.0000022865533538
 30
-78.74553680419921
 70
    32
  0
VERTEX
  5
134
330
F7
100
AcDbEntity
  8
0
 62
    56
420
  7440134
100
AcDbVertex
100
AcDb3dPolylineVertex
 10
29.70148277282715
 20
0.0000022856370379
 30
-78.73233795166015
 70
    32
  0
VERTEX
  5
135
330
F7
100
AcDbEntity
  8
0
 62
    56
420
  7440134
100
AcDbVertex
100
AcDb3dPolylineVertex
 10
29.69710350036621
 20
0.0000022847402761
 30
-78.71941375732422
 70
    32
  0
VERTEX
  5
136
330
F7
100
AcDbEntity
  8
0
 62
    56
420
  7440134
100
AcDbVertex
100
AcDb3dPolylineVertex
 10
29.69211769104004
 20
0.0000022838639779
 30
-78.70677947998046
 70
    32
  0
VERTEX
  5
137
330
F7
100
AcDbEntity
  8
0
 62
    56
420
  7440134
100
AcDbVertex
100
AcDb3dPolylineVertex
 10
29.68653869628906
 20
0.0000022830099624
 30
-78.6944580078125
 70
    32
  0
VERTEX
  5
138
330
F7
100
AcDbEntity
  8
0
 62
    56
420
  7440134
100
AcDbVertex
100
AcDb3dPolylineVertex
 10
29.68039131164551
 20
0.0000022821786843
 30
-78.68245697021484
 70
    32
  0
VERTEX
  5
139
330
F7
100
AcDbEntity
  8
0
 62
    56
420
  7440134
100
AcDbVertex
100
AcDb3dPolylineVertex
 10
29.67368888854981
 20
0.0000022813715077
 30
-78.67080688476562
 70
    32
  0
VERTEX
  5
13A
330
F7
100
AcDbEntity
  8
0
 62
    56
420
  7440134
100
AcDbVertex
100
AcDb3dPolylineVertex
 10
29.66644668579102
 20
0.000002280589797
 30
-78.65951538085937
 70
    32
  0
VERTEX
  5
13B
330
F7
100
AcDbEntity
  8
0
 62
    56
420
  7440134
100
AcDbVertex
100
AcDb3dPolylineVertex
 10
29.65868186950684
 20
0.0000022798344617
 30
-78.64860534667968
 70
    32
  0
VERTEX
  5
13C
330
F7
100
AcDbEntity
  8
0
 62
    56
420
  7440134
100
AcDbVertex
100
AcDb3dPolylineVertex
 10
29.65042114257812
 20
0.0000022791068659
 30
-78.63809204101563
 70
    32
  0
VERTEX
  5
13D
330
F7
100
AcDbEntity
  8
0
 62
    56
420
  7440134
100
AcDbVertex
100
AcDb3dPolylineVertex
 10
29.64166831970215
 20
0.0000022784079192
 30
-78.62799072265625
 70
    32
  0
VERTEX
  5
13E
330
F7
100
AcDbEntity
  8
0
 62
    56
420
  7440134
100
AcDbVertex
100
AcDb3dPolylineVertex
 10
29.63245391845703
 20
0.0000022777387585
 30
-78.61832427978516
 70
    32
  0
VERTEX
  5
13F
330
F7
100
AcDbEntity
  8
0
 62
    56
420
  7440134
100
AcDbVertex
100
AcDb3dPolylineVertex
 10
29.62278556823731
 20
0.0000022771005206
 30
-78.6091079711914
 70
    32
  0
VERTEX
  5
140
330
F7
100
AcDbEntity
  8
0
 62
    56
420
  7440134
100
AcDbVertex
100
AcDb3dPolylineVertex
 10
29.6126880645752
 20
0.0000022764943424
 30
-78.60035705566406
 70
    32
  0
VERTEX
  5
141
330
F7
100
AcDbEntity
  8
0
 62
    56
420
  7440134
100
AcDbVertex
100
AcDb3dPolylineVertex
 10
29.60217475891113
 20
0.0000022759220428
 30
-78.59209442138672
 70
    32
  0
VERTEX
  5
142
330
F7
100
AcDbEntity
  8
0
 62
    56
420
  7440134
100
AcDbVertex
100
AcDb3dPolylineVertex
 10
29.59126091003418
 20
0.000002275383622
 30
-78.58433532714844
 70
    32
  0
VERTEX
  5
143
330
F7
100
AcDbEntity
  8
0
 62
    56
420
  7440134
100
AcDbVertex
100
AcDb3dPolylineVertex
 10
29.57997131347656
 20
0.0000022748808988
 30
-78.57708740234375
 70
    32
  0
VERTEX
  5
144
330
F7
100
AcDbEntity
  8
0
 62
    56
420
  7440134
100
AcDbVertex
100
AcDb3dPolylineVertex
 10
29.56831932067871
 20
0.0000022744152375
 30
-78.57038879394531
 70
    32
  0
VERTEX
  5
145
330
F7
100
AcDbEntity
  8
0
 62
    56
420
  7440134
100
AcDbVertex
100
AcDb3dPolylineVertex
 10
29.55632209777832
 20
0.0000022739868655
 30
-78.56423950195313
 70
    32
  0
VERTEX
  5
146
330
F7
100
AcDbEntity
  8
0
 62
    56
420
  7440134
100
AcDbVertex
100
AcDb3dPolylineVertex
 10
29.54399871826172
 20
0.0000022735976017
 30
-78.55866241455078
 70
    32
  0
VERTEX
  5
147
330
F7
100
AcDbEntity
  8
0
 62
    56
420
  7440134
100
AcDbVertex
100
AcDb3dPolylineVertex
 10
29.5313663482666
 20
0.0000022732488105
 30
-78.55367279052734
 70
    32
  0
VERTEX
  5
148
330
F7
100
AcDbEntity
  8
0
 62
    56
420
  7440134
100
AcDbVertex
100
AcDb3dPolylineVertex
 10
29.51844024658203
 20
0.0000022729414013
 30
-78.5492935180664
 70
    32
  0
VERTEX
  5
149
330
F7
100
AcDbEntity
  8
0
 62
    56
420
  7440134
100
AcDbVertex
100
AcDb3dPolylineVertex
 10
29.50524139404297
 20
0.0000022726760562
 30
-78.54553985595703
 70
    32
  0
VERTEX
  5
14A
330
F7
100
AcDbEntity
  8
0
 62
    56
420
  7440134
100
AcDbVertex
100
AcDb3dPolylineVertex
 10
29.49178695678711
 20
0.0000022724543669
 30
-78.54243469238281
 70
    32
  0
VERTEX
  5
14B
330
F7
100
AcDbEntity
  8
0
 62
    56
420
  7440134
100
AcDbVertex
100
AcDb3dPolylineVertex
 10
29.47809219360351
 20
0.0000022722774702
 30
-78.53998565673828
 70
    32
  0
VERTEX
  5
14C
330
F7
100
AcDbEntity
  8
0
 62
    56
420
  7440134
100
AcDbVertex
100
AcDb3dPolylineVertex
 10
29.46417427062988
 20
0.0000022721462756
 30
-78.5382080078125
 70
    32
  0
VERTEX
  5
14D
330
F7
100
AcDbEntity
  8
0
 62
    56
420
  7440134
100
AcDbVertex
100
AcDb3dPolylineVertex
 10
29.45005416870117
 20
0.0000022720623747
 30
-78.53713989257812
 70
    32
  0
VERTEX
  5
14E
330
F7
100
AcDbEntity
  8
0
 62
    56
420
  7440134
100
AcDbVertex
100
AcDb3dPolylineVertex
 10
29.43574714660645
 20
0.0000022720262223
 30
-78.53677368164063
 70
    32
  0
VERTEX
  5
14F
330
F7
100
AcDbEntity
  8
0
 62
    56
420
  7440134
100
AcDbVertex
100
AcDb3dPolylineVertex
 10
17.04400253295898
 20
0.0000022621202334
 30
-78.53677368164063
 70
    32
  0
VERTEX
  5
150
330
F7
100
AcDbEntity
  8
0
 62
    56
420
  7440134
100
AcDbVertex
100
AcDb3dPolylineVertex
 10
17.02969741821289
 20
0.0000022621682092
 30
-78.53713989257812
 70
    32
  0
VERTEX
  5
151
330
F7
100
AcDbEntity
  8
0
 62
    56
420
  7440134
100
AcDbVertex
100
AcDb3dPolylineVertex
 10
17.01557922363281
 20
0.0000022623326004
 30
-78.5382080078125
 70
    32
  0
VERTEX
  5
152
330
F7
100
AcDbEntity
  8
0
 62
    56
420
  7440134
100
AcDbVertex
100
AcDb3dPolylineVertex
 10
17.00165939331055
 20
0.0000022626113605
 30
-78.53998565673828
 70
    32
  0
VERTEX
  5
153
330
F7
100
AcDbEntity
  8
0
 62
    56
420
  7440134
100
AcDbVertex
100
AcDb3dPolylineVertex
 10
16.98796463012695
 20
0.0000022630015337
 30
-78.54243469238281
 70
    32
  0
VERTEX
  5
154
330
F7
100
AcDbEntity
  8
0
 62
    56
420
  7440134
100
AcDbVertex
100
AcDb3dPolylineVertex
 10
16.97451019287109
 20
0.0000022634994821
 30
-78.54553985595703
 70
    32
  0
VERTEX
  5
155
330
F7
100
AcDbEntity
  8
0
 62
    56
420
  7440134
100
AcDbVertex
100
AcDb3dPolylineVertex
 10
16.96130752563476
 20
0.0000022641029318
 30
-78.5492935180664
 70
    32
  0
VERTEX
  5
156
330
F7
100
AcDbEntity
  8
0
 62
    56
420
  7440134
100
AcDbVertex
100
AcDb3dPolylineVertex
 10
16.94838714599609
 20
0.0000022648091544
 30
-78.55367279052734
 70
    32
  0
VERTEX
  5
157
330
F7
100
AcDbEntity
  8
0
 62
    56
420
  7440134
100
AcDbVertex
100
AcDb3dPolylineVertex
 10
16.93575286865234
 20
0.0000022656147394
 30
-78.55866241455078
 70
    32
  0
VERTEX
  5
158
330
F7
100
AcDbEntity
  8
0
 62
    56
420
  7440134
100
AcDbVertex
100
AcDb3dPolylineVertex
 10
16.92343139648437
 20
0.0000022665176402
 30
-78.56423950195313
 70
    32
  0
VERTEX
  5
159
330
F7
100
AcDbEntity
  8
0
 62
    56
420
  7440134
100
AcDbVertex
100
AcDb3dPolylineVertex
 10
16.91143417358398
 20
0.0000022675139917
 30
-78.57038879394531
 70
    32
  0
VERTEX
  5
15A
330
F7
100
AcDbEntity
  8
0
 62
    56
420
  7440134
100
AcDbVertex
100
AcDb3dPolylineVertex
 10
16.89978408813476
 20
0.0000022686017473
 30
-78.57708740234375
 70
    32
  0
VERTEX
  5
15B
330
F7
100
AcDbEntity
  8
0
 62
    56
420
  7440134
100
AcDbVertex
100
AcDb3dPolylineVertex
 10
16.88848876953125
 20
0.0000022697774966
 30
-78.58433532714844
 70
    32
  0
VERTEX
  5
15C
330
F7
100
AcDbEntity
  8
0
 62
    56
420
  7440134
100
AcDbVertex
100
AcDb3dPolylineVertex
 10
16.87758255004883
 20
0.0000022710387384
 30
-78.59209442138672
 70
    32
  0
VERTEX
  5
15D
330
F7
100
AcDbEntity
  8
0
 62
    56
420
  7440134
100
AcDbVertex
100
AcDb3dPolylineVertex
 10
16.86706924438476
 20
0.0000022723827442
 30
-78.60035705566406
 70
    32
  0
VERTEX
  5
15E
330
F7
100
AcDbEntity
  8
0
 62
    56
420
  7440134
100
AcDbVertex
100
AcDb3dPolylineVertex
 10
16.85696792602539
 20
0.0000022738065582
 30
-78.6091079711914
 70
    32
  0
VERTEX
  5
15F
330
F7
100
AcDbEntity
  8
0
 62
    56
420
  7440134
100
AcDbVertex
100
AcDb3dPolylineVertex
 10
16.8473014831543
 20
0.0000022753065423
 30
-78.61832427978516
 70
    32
  0
VERTEX
  5
160
330
F7
100
AcDbEntity
  8
0
 62
    56
420
  7440134
100
AcDbVertex
100
AcDb3dPolylineVertex
 10
16.83808517456055
 20
0.0000022768808776
 30
-78.62799072265625
 70
    32
  0
VERTEX
  5
161
330
F7
100
AcDbEntity
  8
0
 62
    56
420
  7440134
100
AcDbVertex
100
AcDb3dPolylineVertex
 10
16.8293342590332
 20
0.0000022785263809
 30
-78.63809204101563
 70
    32
  0
VERTEX
  5
162
330
F7
100
AcDbEntity
  8
0
 62
    56
420
  7440134
100
AcDbVertex
100
AcDb3dPolylineVertex
 10
16.82107162475586
 20
0.0000022802400963
 30
-78.64860534667968
 70
    32
  0
VERTEX
  5
163
330
F7
100
AcDbEntity
  8
0
 62
    56
420
  7440134
100
AcDbVertex
100
AcDb3dPolylineVertex
 10
16.81330871582031
 20
0.0000022820190679
 30
-78.65951538085937
 70
    32
  0
VERTEX
  5
164
330
F7
100
AcDbEntity
  8
0
 62
    56
420
  7440134
100
AcDbVertex
100
AcDb3dPolylineVertex
 10
16.80606460571289
 20
0.0000022838607947
 30
-78.67080688476562
 70
    32
  0
VERTEX
  5
165
330
F7
100
AcDbEntity
  8
0
 62
    56
420
  7440134
100
AcDbVertex
100
AcDb3dPolylineVertex
 10
16.79936218261719
 20
0.000002285761866
 30
-78.68245697021484
 70
    32
  0
VERTEX
  5
166
330
F7
100
AcDbEntity
  8
0
 62
    56
420
  7440134
100
AcDbVertex
100
AcDb3dPolylineVertex
 10
16.793212890625
 20
0.0000022877197807
 30
-78.69445037841797
 70
    32
  0
VERTEX
  5
167
330
F7
100
AcDbEntity
  8
0
 62
    56
420
  7440134
100
AcDbVertex
100
AcDb3dPolylineVertex
 10
16.78763580322265
 20
0.0000022897320378
 30
-78.70677947998046
 70
    32
  0
VERTEX
  5
168
330
F7
100
AcDbEntity
  8
0
 62
    56
420
  7440134
100
AcDbVertex
100
AcDb3dPolylineVertex
 10
16.78264999389648
 20
0.0000022917947717
 30
-78.71940612792968
 70
    32
  0
VERTEX
  5
169
330
F7
100
AcDbEntity
  8
0
 62
    56
420
  7440134
100
AcDbVertex
100
AcDb3dPolylineVertex
 10
16.77827072143555
 20
0.0000022939061637
 30
-78.73233795166015
 70
    32
  0
VERTEX
  5
16A
330
F7
100
AcDbEntity
  8
0
 62
    56
420
  7440134
100
AcDbVertex
100
AcDb3dPolylineVertex
 10
16.77451705932617
 20
0.0000022960630304
 30
-78.74553680419921
 70
    32
  0
VERTEX
  5
16B
330
F7
100
AcDbEntity
  8
0
 62
    56
420
  7440134
100
AcDbVertex
100
AcDb3dPolylineVertex
 10
16.77141189575195
 20
0.0000022982621886
 30
-78.75898742675781
 70
    32
  0
VERTEX
  5
16C
330
F7
100
AcDbEntity
  8
0
 62
    56
420
  7440134
100
AcDbVertex
100
AcDb3dPolylineVertex
 10
16.76895904541015
 20
0.0000023005009098
 30
-78.7726821899414
 70
    32
  0
VERTEX
  5
16D
330
F7
100
AcDbEntity
  8
0
 62
    56
420
  7440134
100
AcDbVertex
100
AcDb3dPolylineVertex
 10
16.7671890258789
 20
0.0000023027764655
 30
-78.78659820556641
 70
    32
  0
VERTEX
  5
16E
330
F7
100
AcDbEntity
  8
0
 62
    56
420
  7440134
100
AcDbVertex
100
AcDb3dPolylineVertex
 10
16.76611328125
 20
0.0000023050861273
 30
-78.80072021484375
 70
    32
  0
VERTEX
  5
16F
330
F7
100
AcDbEntity
  8
0
 62
    56
420
  7440134
100
AcDbVertex
100
AcDb3dPolylineVertex
 10
16.76575088500976
 20
0.0000023074267119
 30
-78.81502532958984
 70
    32
  0
VERTEX
  5
170
330
F7
100
AcDbEntity
  8
0
 62
    56
420
  7440134
100
AcDbVertex
100
AcDb3dPolylineVertex
 10
16.76575088500976
 20
0.0000050403214118
 30
-95.51741027832031
 70
    32
  0
VERTEX
  5
171
330
F7
100
AcDbEntity
  8
0
 62
    56
420
  7440134
100
AcDbVertex
100
AcDb3dPolylineVertex
 10
30.90311431884766
 20
0.0000050403214118
 30
-95.51741027832031
 70
    32
  0
VERTEX
  5
172
330
F7
100
AcDbEntity
  8
0
 62
    56
420
  7440134
100
AcDbVertex
100
AcDb3dPolylineVertex
 10
32.50603485107422
 20
0.0000049710356507
 30
-93.93234252929687
 70
    32
  0
VERTEX
  5
173
330
F7
100
AcDbEntity
  8
0
 62
    56
420
  7440134
100
AcDbVertex
100
AcDb3dPolylineVertex
 10
57.82212829589844
 20
0.0000049710356507
 30
-93.93234252929687
 70
    32
  0
VERTEX
  5
174
330
F7
100
AcDbEntity
  8
0
 62
    56
420
  7440134
100
AcDbVertex
100
AcDb3dPolylineVertex
 10
59.3953514099121
 20
0.0000050403214118
 30
-95.51741027832031
 70
    32
  0
VERTEX
  5
175
330
F7
100
AcDbEntity
  8
0
 62
    56
420
  7440134
100
AcDbVertex
100
AcDb3dPolylineVertex
 10
73.74139404296875
 20
0.0000050403214118
 30
-95.51741027832031
 70
    32
  0
VERTEX
  5
176
330
F7
100
AcDbEntity
  8
0
 62
    56
420
  7440134
100
AcDbVertex
100
AcDb3dPolylineVertex
 10
73.74139404296875
 20
0.000004543160685
 30
-91.13082122802735
 70
    32
  0
VERTEX
  5
177
330
F7
100
AcDbEntity
  8
0
 62
    56
420
  7440134
100
AcDbVertex
100
AcDb3dPolylineVertex
 10
73.74113464355469
 20
0.0000045415426939
 30
-91.12036895751954
 70
    32
  0
VERTEX
  5
178
330
F7
100
AcDbEntity
  8
0
 62
    56
420
  7440134
100
AcDbVertex
100
AcDb3dPolylineVertex
 10
73.74034881591796
 20
0.0000045399397095
 30
-91.11004638671875
 70
    32
  0
VERTEX
  5
179
330
F7
100
AcDbEntity
  8
0
 62
    56
420
  7440134
100
AcDbVertex
100
AcDb3dPolylineVertex
 10
73.73906707763672
 20
0.0000045383562792
 30
-91.09986877441405
 70
    32
  0
VERTEX
  5
17A
330
F7
100
AcDbEntity
  8
0
 62
    56
420
  7440134
100
AcDbVertex
100
AcDb3dPolylineVertex
 10
73.73728942871093
 20
0.0000045367960411
 30
-91.08984375
 70
    32
  0
VERTEX
  5
17B
330
F7
100
AcDbEntity
  8
0
 62
    56
420
  7440134
100
AcDbVertex
100
AcDb3dPolylineVertex
 10
73.73503875732422
 20
0.0000045352639972
 30
-91.07998657226563
 70
    32
  0
VERTEX
  5
17C
330
F7
100
AcDbEntity
  8
0
 62
    56
420
  7440134
100
AcDbVertex
100
AcDb3dPolylineVertex
 10
73.73230743408203
 20
0.0000045337637857
 30
-91.07030487060546
 70
    32
  0
VERTEX
  5
17D
330
F7
100
AcDbEntity
  8
0
 62
    56
420
  7440134
100
AcDbVertex
100
AcDb3dPolylineVertex
 10
73.72913360595703
 20
0.0000045322994993
 30
-91.06082153320313
 70
    32
  0
VERTEX
  5
17E
330
F7
100
AcDbEntity
  8
0
 62
    56
420
  7440134
100
AcDbVertex
100
AcDb3dPolylineVertex
 10
73.72550964355468
 20
0.0000045308756853
 30
-91.05152893066406
 70
    32
  0
VERTEX
  5
17F
330
F7
100
AcDbEntity
  8
0
 62
    56
420
  7440134
100
AcDbVertex
100
AcDb3dPolylineVertex
 10
73.72145080566406
 20
0.0000045294959818
 30
-91.04246520996094
 70
    32
  0
VERTEX
  5
180
330
F7
100
AcDbEntity
  8
0
 62
    56
420
  7440134
100
AcDbVertex
100
AcDb3dPolylineVertex
 10
73.71697998046875
 20
0.0000045281653911
 30
-91.03362274169922
 70
    32
  0
VERTEX
  5
181
330
F7
100
AcDbEntity
  8
0
 62
    56
420
  7440134
100
AcDbVertex
100
AcDb3dPolylineVertex
 10
73.71209716796875
 20
0.0000045268880058
 30
-91.02501678466797
 70
    32
  0
VERTEX
  5
182
330
F7
100
AcDbEntity
  8
0
 62
    56
420
  7440134
100
AcDbVertex
100
AcDb3dPolylineVertex
 10
73.70682525634766
 20
0.0000045256670091
 30
-91.01667022705077
 70
    32
  0
VERTEX
  5
183
330
F7
100
AcDbEntity
  8
0
 62
    56
420
  7440134
100
AcDbVertex
100
AcDb3dPolylineVertex
 10
73.70116424560547
 20
0.0000045245078582
 30
-91.00859069824219
 70
    32
  0
VERTEX
  5
184
330
F7
100
AcDbEntity
  8
0
 62
    56
420
  7440134
100
AcDbVertex
100
AcDb3dPolylineVertex
 10
73.69513702392578
 20
0.000004523413736
 30
-91.00078582763671
 70
    32
  0
VERTEX
  5
185
330
F7
100
AcDbEntity
  8
0
 62
    56
420
  7440134
100
AcDbVertex
100
AcDb3dPolylineVertex
 10
73.68875122070313
 20
0.000004522389645
 30
-90.99327087402343
 70
    32
  0
VERTEX
  5
186
330
F7
100
AcDbEntity
  8
0
 62
    56
420
  7440134
100
AcDbVertex
100
AcDb3dPolylineVertex
 10
73.68201446533203
 20
0.000004521439223
 30
-90.9860610961914
 70
    32
  0
VERTEX
  5
187
330
F7
100
AcDbEntity
  8
0
 62
    56
420
  7440134
100
AcDbVertex
100
AcDb3dPolylineVertex
 10
73.67494964599609
 20
0.0000045205670176
 30
-90.97916412353516
 70
    32
  0
VERTEX
  5
188
330
F7
100
AcDbEntity
  8
0
 62
    56
420
  7440134
100
AcDbVertex
100
AcDb3dPolylineVertex
 10
73.66756439208984
 20
0.0000045197771215
 30
-90.97259521484375
 70
    32
  0
VERTEX
  5
189
330
F7
100
AcDbEntity
  8
0
 62
    56
420
  7440134
100
AcDbVertex
100
AcDb3dPolylineVertex
 10
73.65986633300781
 20
0.0000045190736273
 30
-90.96636962890626
 70
    32
  0
VERTEX
  5
18A
330
F7
100
AcDbEntity
  8
0
 62
    56
420
  7440134
100
AcDbVertex
100
AcDb3dPolylineVertex
 10
73.65187072753906
 20
0.0000045184606279
 30
-90.96049499511719
 70
    32
  0
VERTEX
  5
18B
330
F7
100
AcDbEntity
  8
0
 62
    56
420
  7440134
100
AcDbVertex
100
AcDb3dPolylineVertex
 10
73.64359283447265
 20
0.0000045179422159
 30
-90.9549789428711
 70
    32
  0
VERTEX
  5
18C
330
F7
100
AcDbEntity
  8
0
 62
    56
420
  7440134
100
AcDbVertex
100
AcDb3dPolylineVertex
 10
73.63504028320313
 20
0.0000045175233936
 30
-90.94984436035156
 70
    32
  0
VERTEX
  5
18D
330
F7
100
AcDbEntity
  8
0
 62
    56
420
  7440134
100
AcDbVertex
100
AcDb3dPolylineVertex
 10
73.62623596191406
 20
0.0000045172073442
 30
-90.94509887695313
 70
    32
  0
VERTEX
  5
18E
330
F7
100
AcDbEntity
  8
0
 62
    56
420
  7440134
100
AcDbVertex
100
AcDb3dPolylineVertex
 10
73.61717224121093
 20
0.0000045169990699
 30
-90.94075775146484
 70
    32
  0
VERTEX
  5
18F
330
F7
100
AcDbEntity
  8
0
 62
    56
420
  7440134
100
AcDbVertex
100
AcDb3dPolylineVertex
 10
73.60787963867188
 20
0.0000045169022087
 30
-90.93682861328124
 70
    32
  0
VERTEX
  5
190
330
F7
100
AcDbEntity
  8
0
 62
    56
420
  7440134
100
AcDbVertex
100
AcDb3dPolylineVertex
 10
73.59835815429687
 20
0.0000045169213081
 30
-90.9333267211914
 70
    32
  0
VERTEX
  5
191
330
F7
100
AcDbEntity
  8
0
 62
    56
420
  7440134
100
AcDbVertex
100
AcDb3dPolylineVertex
 10
73.588623046875
 20
0.000004517060006
 30
-90.93026733398437
 70
    32
  0
VERTEX
  5
192
330
F7
100
AcDbEntity
  8
0
 62
    56
420
  7440134
100
AcDbVertex
100
AcDb3dPolylineVertex
 10
73.57869720458984
 20
0.0000045173233048
 30
-90.92765808105468
 70
    32
  0
VERTEX
  5
193
330
F7
100
AcDbEntity
  8
0
 62
    56
420
  7440134
100
AcDbVertex
100
AcDb3dPolylineVertex
 10
73.56858062744141
 20
0.0000045177148422
 30
-90.92550659179687
 70
    32
  0
VERTEX
  5
194
330
F7
100
AcDbEntity
  8
0
 62
    56
420
  7440134
100
AcDbVertex
100
AcDb3dPolylineVertex
 10
73.55828857421875
 20
0.0000045182387112
 30
-90.92384338378906
 70
    32
  0
VERTEX
  5
195
330
F7
100
AcDbEntity
  8
0
 62
    56
420
  7440134
100
AcDbVertex
100
AcDb3dPolylineVertex
 10
73.54783630371094
 20
0.0000045188999138
 30
-90.92266082763671
 70
    32
  0
VERTEX
  5
196
330
F7
100
AcDbEntity
  8
0
 62
    56
420
  7440134
100
AcDbVertex
100
AcDb3dPolylineVertex
 10
73.5372314453125
 20
0.0000045197016334
 30
-90.92198181152344
 70
    32
  0
VERTEX
  5
197
330
F7
100
AcDbEntity
  8
0
 62
    56
420
  7440134
100
AcDbVertex
100
AcDb3dPolylineVertex
 10
73.193603515625
 20
0.0000045639289965
 30
-90.8987808227539
 70
    32
  0
VERTEX
  5
198
330
F7
100
AcDbEntity
  8
0
 62
    56
420
  7440134
100
AcDbVertex
100
AcDb3dPolylineVertex
 10
72.85195922851563
 20
0.0000046231466513
 30
-90.85667419433594
 70
    32
  0
VERTEX
  5
199
330
F7
100
AcDbEntity
  8
0
 62
    56
420
  7440134
100
AcDbVertex
100
AcDb3dPolylineVertex
 10
72.51308441162109
 20
0.0000046716986617
 30
-90.79578399658203
 70
    32
  0
VERTEX
  5
19A
330
F7
100
AcDbEntity
  8
0
 62
    56
420
  7440134
100
AcDbVertex
100
AcDb3dPolylineVertex
 10
72.17775726318359
 20
0.000004683928637
 30
-90.71620178222657
 70
    32
  0
VERTEX
  5
19B
330
F7
100
AcDbEntity
  8
0
 62
    56
420
  7440134
100
AcDbVertex
100
AcDb3dPolylineVertex
 10
71.79891967773437
 20
0.0000046653517529
 30
-90.6021728515625
 70
    32
  0
VERTEX
  5
19C
330
F7
100
AcDbEntity
  8
0
 62
    56
420
  7440134
100
AcDbVertex
100
AcDb3dPolylineVertex
 10
71.42842864990234
 20
0.0000046429245231
 30
-90.46451568603515
 70
    32
  0
VERTEX
  5
19D
330
F7
100
AcDbEntity
  8
0
 62
    56
420
  7440134
100
AcDbVertex
100
AcDb3dPolylineVertex
 10
71.06740570068359
 20
0.0000046167201617
 30
-90.30367279052734
 70
    32
  0
VERTEX
  5
19E
330
F7
100
AcDbEntity
  8
0
 62
    56
420
  7440134
100
AcDbVertex
100
AcDb3dPolylineVertex
 10
70.7169418334961
 20
0.0000045868127927
 30
-90.12010192871093
 70
    32
  0
VERTEX
  5
19F
330
F7
100
AcDbEntity
  8
0
 62
    56
420
  7440134
100
AcDbVertex
100
AcDb3dPolylineVertex
 10
70.37882232666015
 20
0.0000044748803703
 30
-89.91468811035156
 70
    32
  0
VERTEX
  5
1A0
330
F7
100
AcDbEntity
  8
0
 62
    56
420
  7440134
100
AcDbVertex
100
AcDb3dPolylineVertex
 10
70.05471801757813
 20
0.0000042654028221
 30
-89.68849182128906
 70
    32
  0
VERTEX
  5
1A1
330
F7
100
AcDbEntity
  8
0
 62
    56
420
  7440134
100
AcDbVertex
100
AcDb3dPolylineVertex
 10
69.74559020996093
 20
0.0000040526560952
 30
-89.44222259521485
 70
    32
  0
VERTEX
  5
1A2
330
F7
100
AcDbEntity
  8
0
 62
    56
420
  7440134
100
AcDbVertex
100
AcDb3dPolylineVertex
 10
69.45238494873047
 20
0.0000039309147724
 30
-89.17660522460938
 70
    32
  0
VERTEX
  5
1A3
330
F7
100
AcDbEntity
  8
0
 62
    56
420
  7440134
100
AcDbVertex
100
AcDb3dPolylineVertex
 10
69.31802368164063
 20
0.0000038895987018
 30
-89.05545043945313
 70
    32
  0
VERTEX
  5
1A4
330
F7
100
AcDbEntity
  8
0
 62
    56
420
  7440134
100
AcDbVertex
100
AcDb3dPolylineVertex
 10
69.17640686035156
 20
0.0000038144369228
 30
-88.94329071044921
 70
    32
  0
VERTEX
  5
1A5
330
F7
100
AcDbEntity
  8
0
 62
    56
420
  7440134
100
AcDbVertex
100
AcDb3dPolylineVertex
 10
69.02847290039062
 20
0.0000037170693759
 30
-88.83930969238281
 70
    32
  0
VERTEX
  5
1A6
330
F7
100
AcDbEntity
  8
0
 62
    56
420
  7440134
100
AcDbVertex
100
AcDb3dPolylineVertex
 10
68.87517547607422
 20
0.0000036091353195
 30
-88.74272155761719
 70
    32
  0
VERTEX
  5
1A7
330
F7
100
AcDbEntity
  8
0
 62
    56
420
  7440134
100
AcDbVertex
100
AcDb3dPolylineVertex
 10
68.71745300292968
 20
0.0000035022749216
 30
-88.65271759033204
 70
    32
  0
VERTEX
  5
1A8
330
F7
100
AcDbEntity
  8
0
 62
    56
420
  7440134
100
AcDbVertex
100
AcDb3dPolylineVertex
 10
68.55623626708984
 20
0.0000034081276681
 30
-88.56851196289062
 70
    32
  0
VERTEX
  5
1A9
330
F7
100
AcDbEntity
  8
0
 62
    56
420
  7440134
100
AcDbVertex
100
AcDb3dPolylineVertex
 10
68.22711944580078
 20
0.0000033045321288
 30
-88.41426086425782
 70
    32
  0
VERTEX
  5
1AA
330
F7
100
AcDbEntity
  8
0
 62
    56
420
  7440134
100
AcDbVertex
100
AcDb3dPolylineVertex
 10
68.06010437011718
 20
0.0000032930925045
 30
-88.34404754638672
 70
    32
  0
VERTEX
  5
1AB
330
F7
100
AcDbEntity
  8
0
 62
    56
420
  7440134
100
AcDbVertex
100
AcDb3dPolylineVertex
 10
67.89088439941406
 20
0.0000032826287679
 30
-88.27982330322265
 70
    32
  0
VERTEX
  5
1AC
330
F7
100
AcDbEntity
  8
0
 62
    56
420
  7440134
100
AcDbVertex
100
AcDb3dPolylineVertex
 10
67.71961212158203
 20
0.0000032731486499
 30
-88.22163391113281
 70
    32
  0
VERTEX
  5
1AD
330
F7
100
AcDbEntity
  8
0
 62
    56
420
  7440134
100
AcDbVertex
100
AcDb3dPolylineVertex
 10
67.54644775390625
 20
0.0000032646594263
 30
-88.16952514648438
 70
    32
  0
VERTEX
  5
1AE
330
F7
100
AcDbEntity
  8
0
 62
    56
420
  7440134
100
AcDbVertex
100
AcDb3dPolylineVertex
 10
67.3715591430664
 20
0.0000032571683732
 30
-88.12355041503906
 70
    32
  0
VERTEX
  5
1AF
330
F7
100
AcDbEntity
  8
0
 62
    56
420
  7440134
100
AcDbVertex
100
AcDb3dPolylineVertex
 10
67.19510650634766
 20
0.0000032506832213
 30
-88.08374023437499
 70
    32
  0
VERTEX
  5
1B0
330
F7
100
AcDbEntity
  8
0
 62
    56
420
  7440134
100
AcDbVertex
100
AcDb3dPolylineVertex
 10
67.01725006103515
 20
0.0000032452112464
 30
-88.05015563964843
 70
    32
  0
VERTEX
  5
1B1
330
F7
100
AcDbEntity
  8
0
 62
    56
420
  7440134
100
AcDbVertex
100
AcDb3dPolylineVertex
 10
66.83815002441406
 20
0.0000032407597246
 30
-88.02283477783204
 70
    32
  0
VERTEX
  5
1B2
330
F7
100
AcDbEntity
  8
0
 62
    56
420
  7440134
100
AcDbVertex
100
AcDb3dPolylineVertex
 10
66.61651611328125
 20
0.0000032548975923
 30
-87.99789428710937
 70
    32
  0
VERTEX
  5
1B3
330
F7
100
AcDbEntity
  8
0
 62
    56
420
  7440134
100
AcDbVertex
100
AcDb3dPolylineVertex
 10
66.39424133300781
 20
0.0000032986856695
 30
-87.98262023925781
 70
    32
  0
VERTEX
  5
1B4
330
F7
100
AcDbEntity
  8
0
 62
    56
420
  7440134
100
AcDbVertex
100
AcDb3dPolylineVertex
 10
66.17164611816406
 20
0.0000033596375033
 30
-87.97699737548828
 70
    32
  0
VERTEX
  5
1B5
330
F7
100
AcDbEntity
  8
0
 62
    56
420
  7440134
100
AcDbVertex
100
AcDb3dPolylineVertex
 10
65.94904327392578
 20
0.0000034252673231
 30
-87.98102569580079
 70
    32
  0
VERTEX
  5
1B6
330
F7
100
AcDbEntity
  8
0
 62
    56
420
  7440134
100
AcDbVertex
100
AcDb3dPolylineVertex
 10
65.92082977294921
 20
0.0000034330817016
 30
-87.98144531250001
 70
    32
  0
VERTEX
  5
1B7
330
F7
100
AcDbEntity
  8
0
 62
    56
420
  7440134
100
AcDbVertex
100
AcDb3dPolylineVertex
 10
65.89295196533203
 20
0.0000034402705751
 30
-87.9804916381836
 70
    32
  0
VERTEX
  5
1B8
330
F7
100
AcDbEntity
  8
0
 62
    56
420
  7440134
100
AcDbVertex
100
AcDb3dPolylineVertex
 10
65.86544799804688
 20
0.0000034468596368
 30
-87.97817993164063
 70
    32
  0
VERTEX
  5
1B9
330
F7
100
AcDbEntity
  8
0
 62
    56
420
  7440134
100
AcDbVertex
100
AcDb3dPolylineVertex
 10
65.8383560180664
 20
0.00000345287458
 30
-87.97455596923828
 70
    32
  0
VERTEX
  5
1BA
330
F7
100
AcDbEntity
  8
0
 62
    56
420
  7440134
100
AcDbVertex
100
AcDb3dPolylineVertex
 10
65.81171417236328
 20
0.0000034583408706
 30
-87.96965026855469
 70
    32
  0
VERTEX
  5
1BB
330
F7
100
AcDbEntity
  8
0
 62
    56
420
  7440134
100
AcDbVertex
100
AcDb3dPolylineVertex
 10
65.78555297851562
 20
0.0000034632842016
 30
-87.96349334716797
 70
    32
  0
VERTEX
  5
1BC
330
F7
100
AcDbEntity
  8
0
 62
    56
420
  7440134
100
AcDbVertex
100
AcDb3dPolylineVertex
 10
65.75991058349609
 20
0.0000034677304939
 30
-87.95611572265626
 70
    32
  0
VERTEX
  5
1BD
330
F7
100
AcDbEntity
  8
0
 62
    56
420
  7440134
100
AcDbVertex
100
AcDb3dPolylineVertex
 10
65.73482513427734
 20
0.0000034717052131
 30
-87.94757080078126
 70
    32
  0
VERTEX
  5
1BE
330
F7
100
AcDbEntity
  8
0
 62
    56
420
  7440134
100
AcDbVertex
100
AcDb3dPolylineVertex
 10
65.71033477783203
 20
0.0000034752338252
 30
-87.93787384033203
 70
    32
  0
VERTEX
  5
1BF
330
F7
100
AcDbEntity
  8
0
 62
    56
420
  7440134
100
AcDbVertex
100
AcDb3dPolylineVertex
 10
65.68647766113281
 20
0.0000034783422507
 30
-87.92706298828125
 70
    32
  0
VERTEX
  5
1C0
330
F7
100
AcDbEntity
  8
0
 62
    56
420
  7440134
100
AcDbVertex
100
AcDb3dPolylineVertex
 10
65.66328430175781
 20
0.0000034810559555
 30
-87.91517639160156
 70
    32
  0
VERTEX
  5
1C1
330
F7
100
AcDbEntity
  8
0
 62
    56
420
  7440134
100
AcDbVertex
100
AcDb3dPolylineVertex
 10
65.64079284667968
 20
0.0000034834008602
 30
-87.90224456787109
 70
    32
  0
VERTEX
  5
1C2
330
F7
100
AcDbEntity
  8
0
 62
    56
420
  7440134
100
AcDbVertex
100
AcDb3dPolylineVertex
 10
65.61904144287109
 20
0.0000034854022033
 30
-87.88829803466796
 70
    32
  0
VERTEX
  5
1C3
330
F7
100
AcDbEntity
  8
0
 62
    56
420
  7440134
100
AcDbVertex
100
AcDb3dPolylineVertex
 10
65.59806823730468
 20
0.0000034870859054
 30
-87.87338256835937
 70
    32
  0
VERTEX
  5
1C4
330
F7
100
AcDbEntity
  8
0
 62
    56
420
  7440134
100
AcDbVertex
100
AcDb3dPolylineVertex
 10
65.57791137695312
 20
0.0000034884776596
 30
-87.85752105712891
 70
    32
  0
VERTEX
  5
1C5
330
F7
100
AcDbEntity
  8
0
 62
    56
420
  7440134
100
AcDbVertex
100
AcDb3dPolylineVertex
 10
65.55860137939453
 20
0.0000034896029319
 30
-87.84075164794922
 70
    32
  0
VERTEX
  5
1C6
330
F7
100
AcDbEntity
  8
0
 62
    56
420
  7440134
100
AcDbVertex
100
AcDb3dPolylineVertex
 10
65.54017639160156
 20
0.0000034904874155
 30
-87.82311248779297
 70
    32
  0
VERTEX
  5
1C7
330
F7
100
AcDbEntity
  8
0
 62
    56
420
  7440134
100
AcDbVertex
100
AcDb3dPolylineVertex
 10
65.5226821899414
 20
0.0000034911568036
 30
-87.80462646484375
 70
    32
  0
VERTEX
  5
1C8
330
F7
100
AcDbEntity
  8
0
 62
    56
420
  7440134
100
AcDbVertex
100
AcDb3dPolylineVertex
 10
65.50614166259766
 20
0.0000034916370169
 30
-87.78533935546875
 70
    32
  0
VERTEX
  5
1C9
330
F7
100
AcDbEntity
  8
0
 62
    56
420
  7440134
100
AcDbVertex
100
AcDb3dPolylineVertex
 10
65.4906005859375
 20
0.0000034919532936
 30
-87.7652816772461
 70
    32
  0
VERTEX
  5
1CA
330
F7
100
AcDbEntity
  8
0
 62
    56
420
  7440134
100
AcDbVertex
100
AcDb3dPolylineVertex
 10
65.47608947753906
 20
0.0000034921313272
 30
-87.74447631835938
 70
    32
  0
VERTEX
  5
1CB
330
F7
100
AcDbEntity
  8
0
 62
    56
420
  7440134
100
AcDbVertex
100
AcDb3dPolylineVertex
 10
65.462646484375
 20
0.0000034921968108
 30
-87.72297668457031
 70
    32
  0
VERTEX
  5
1CC
330
F7
100
AcDbEntity
  8
0
 62
    56
420
  7440134
100
AcDbVertex
100
AcDb3dPolylineVertex
 10
65.45030975341797
 20
0.0000034921756651
 30
-87.7008056640625
 70
    32
  0
VERTEX
  5
1CD
330
F7
100
AcDbEntity
  8
0
 62
    56
420
  7440134
100
AcDbVertex
100
AcDb3dPolylineVertex
 10
65.43911743164063
 20
0.0000034920931284
 30
-87.67799377441406
 70
    32
  0
VERTEX
  5
1CE
330
F7
100
AcDbEntity
  8
0
 62
    56
420
  7440134
100
AcDbVertex
100
AcDb3dPolylineVertex
 10
65.42910766601562
 20
0.0000034919751215
 30
-87.65457916259766
 70
    32
  0
VERTEX
  5
1CF
330
F7
100
AcDbEntity
  8
0
 62
    56
420
  7440134
100
AcDbVertex
100
AcDb3dPolylineVertex
 10
65.4203109741211
 20
0.0000034918473375
 30
-87.63059997558594
 70
    32
  0
VERTEX
  5
1D0
330
F7
100
AcDbEntity
  8
0
 62
    56
420
  7440134
100
AcDbVertex
100
AcDb3dPolylineVertex
 10
65.41276550292969
 20
0.0000034917352423
 30
-87.60608673095703
 70
    32
  0
VERTEX
  5
1D1
330
F7
100
AcDbEntity
  8
0
 62
    56
420
  7440134
100
AcDbVertex
100
AcDb3dPolylineVertex
 10
65.40651702880859
 20
0.0000034916645291
 30
-87.58107757568359
 70
    32
  0
VERTEX
  5
1D2
330
F7
100
AcDbEntity
  8
0
 62
    56
420
  7440134
100
AcDbVertex
100
AcDb3dPolylineVertex
 10
65.40158843994141
 20
0.0000034916608911
 30
-87.55559539794921
 70
    32
  0
VERTEX
  5
1D3
330
F7
100
AcDbEntity
  8
0
 62
    56
420
  7440134
100
AcDbVertex
100
AcDb3dPolylineVertex
 10
65.39802551269531
 20
0.0000034917497942
 30
-87.5296859741211
 70
    32
  0
VERTEX
  5
1D4
330
F7
100
AcDbEntity
  8
0
 62
    56
420
  7440134
100
AcDbVertex
100
AcDb3dPolylineVertex
 10
65.39585876464844
 20
0.000003491957159
 30
-87.50337982177734
 70
    32
  0
VERTEX
  5
1D5
330
F7
100
AcDbEntity
  8
0
 62
    56
420
  7440134
100
AcDbVertex
100
AcDb3dPolylineVertex
 10
65.39512634277343
 20
0.0000034923086787
 30
-87.47670745849609
 70
    32
  0
VERTEX
  5
1D6
330
F7
100
AcDbEntity
  8
0
 62
    56
420
  7440134
100
AcDbVertex
100
AcDb3dPolylineVertex
 10
65.39512634277343
 20
0.0000035592170207
 30
-86.68457794189453
 70
    32
  0
VERTEX
  5
1D7
330
F7
100
AcDbEntity
  8
0
 62
    56
420
  7440134
100
AcDbVertex
100
AcDb3dPolylineVertex
 10
65.39492797851562
 20
0.0000035601804029
 30
-86.67694854736328
 70
    32
  0
VERTEX
  5
1D8
330
F7
100
AcDbEntity
  8
0
 62
    56
420
  7440134
100
AcDbVertex
100
AcDb3dPolylineVertex
 10
65.39436340332031
 20
0.0000035611328713
 30
-86.66941833496094
 70
    32
  0
VERTEX
  5
1D9
330
F7
100
AcDbEntity
  8
0
 62
    56
420
  7440134
100
AcDbVertex
100
AcDb3dPolylineVertex
 10
65.39341735839844
 20
0.000003562072834
 30
-86.66199493408203
 70
    32
  0
VERTEX
  5
1DA
330
F7
100
AcDbEntity
  8
0
 62
    56
420
  7440134
100
AcDbVertex
100
AcDb3dPolylineVertex
 10
65.39210510253906
 20
0.0000035629993818
 30
-86.65469360351563
 70
    32
  0
VERTEX
  5
1DB
330
F7
100
AcDbEntity
  8
0
 62
    56
420
  7440134
100
AcDbVertex
100
AcDb3dPolylineVertex
 10
65.39044952392578
 20
0.0000035639109228
 30
-86.64751434326172
 70
    32
  0
VERTEX
  5
1DC
330
F7
100
AcDbEntity
  8
0
 62
    56
420
  7440134
100
AcDbVertex
100
AcDb3dPolylineVertex
 10
65.38845062255859
 20
0.0000035648065477
 30
-86.64048004150391
 70
    32
  0
VERTEX
  5
1DD
330
F7
100
AcDbEntity
  8
0
 62
    56
420
  7440134
100
AcDbVertex
100
AcDb3dPolylineVertex
 10
65.3861083984375
 20
0.0000035656844375
 30
-86.63358306884765
 70
    32
  0
VERTEX
  5
1DE
330
F7
100
AcDbEntity
  8
0
 62
    56
420
  7440134
100
AcDbVertex
100
AcDb3dPolylineVertex
 10
65.38345336914062
 20
0.00000356654391
 30
-86.62684631347657
 70
    32
  0
VERTEX
  5
1DF
330
F7
100
AcDbEntity
  8
0
 62
    56
420
  7440134
100
AcDbVertex
100
AcDb3dPolylineVertex
 10
65.38047790527343
 20
0.0000035673831462
 30
-86.62027740478515
 70
    32
  0
VERTEX
  5
1E0
330
F7
100
AcDbEntity
  8
0
 62
    56
420
  7440134
100
AcDbVertex
100
AcDb3dPolylineVertex
 10
65.377197265625
 20
0.0000035682012367
 30
-86.61387634277344
 70
    32
  0
VERTEX
  5
1E1
330
F7
100
AcDbEntity
  8
0
 62
    56
420
  7440134
100
AcDbVertex
100
AcDb3dPolylineVertex
 10
65.37362670898438
 20
0.0000035689968172
 30
-86.607666015625
 70
    32
  0
VERTEX
  5
1E2
330
F7
100
AcDbEntity
  8
0
 62
    56
420
  7440134
100
AcDbVertex
100
AcDb3dPolylineVertex
 10
65.36976623535156
 20
0.0000035697682961
 30
-86.60163879394531
 70
    32
  0
VERTEX
  5
1E3
330
F7
100
AcDbEntity
  8
0
 62
    56
420
  7440134
100
AcDbVertex
100
AcDb3dPolylineVertex
 10
65.36562347412109
 20
0.0000035705149912
 30
-86.5958251953125
 70
    32
  0
VERTEX
  5
1E4
330
F7
100
AcDbEntity
  8
0
 62
    56
420
  7440134
100
AcDbVertex
100
AcDb3dPolylineVertex
 10
65.36121368408203
 20
0.0000035712350837
 30
-86.59021759033203
 70
    32
  0
VERTEX
  5
1E5
330
F7
100
AcDbEntity
  8
0
 62
    56
420
  7440134
100
AcDbVertex
100
AcDb3dPolylineVertex
 10
65.35655212402343
 20
0.0000035719274365
 30
-86.58483123779296
 70
    32
  0
VERTEX
  5
1E6
330
F7
100
AcDbEntity
  8
0
 62
    56
420
  7440134
100
AcDbVertex
100
AcDb3dPolylineVertex
 10
65.35163116455078
 20
0.0000035725906855
 30
-86.57967376708985
 70
    32
  0
VERTEX
  5
1E7
330
F7
100
AcDbEntity
  8
0
 62
    56
420
  7440134
100
AcDbVertex
100
AcDb3dPolylineVertex
 10
65.34648132324218
 20
0.0000035732239212
 30
-86.57476043701171
 70
    32
  0
VERTEX
  5
1E8
330
F7
100
AcDbEntity
  8
0
 62
    56
420
  7440134
100
AcDbVertex
100
AcDb3dPolylineVertex
 10
65.34109497070312
 20
0.0000035738255519
 30
-86.57009124755859
 70
    32
  0
VERTEX
  5
1E9
330
F7
100
AcDbEntity
  8
0
 62
    56
420
  7440134
100
AcDbVertex
100
AcDb3dPolylineVertex
 10
65.33547973632813
 20
0.0000035743944409
 30
-86.56568145751952
 70
    32
  0
VERTEX
  5
1EA
330
F7
100
AcDbEntity
  8
0
 62
    56
420
  7440134
100
AcDbVertex
100
AcDb3dPolylineVertex
 10
65.32966613769531
 20
0.0000035749289964
 30
-86.56154632568359
 70
    32
  0
VERTEX
  5
1EB
330
F7
100
AcDbEntity
  8
0
 62
    56
420
  7440134
100
AcDbVertex
100
AcDb3dPolylineVertex
 10
65.32363891601562
 20
0.000003575428309
 30
-86.55767822265625
 70
    32
  0
VERTEX
  5
1EC
330
F7
100
AcDbEntity
  8
0
 62
    56
420
  7440134
100
AcDbVertex
100
AcDb3dPolylineVertex
 10
65.31742858886719
 20
0.000003575890787
 30
-86.55410766601562
 70
    32
  0
VERTEX
  5
1ED
330
F7
100
AcDbEntity
  8
0
 62
    56
420
  7440134
100
AcDbVertex
100
AcDb3dPolylineVertex
 10
65.31103515625
 20
0.0000035763155211
 30
-86.55082702636718
 70
    32
  0
VERTEX
  5
1EE
330
F7
100
AcDbEntity
  8
0
 62
    56
420
  7440134
100
AcDbVertex
100
AcDb3dPolylineVertex
 10
65.30445861816406
 20
0.0000035767006921
 30
-86.5478515625
 70
    32
  0
VERTEX
  5
1EF
330
F7
100
AcDbEntity
  8
0
 62
    56
420
  7440134
100
AcDbVertex
100
AcDb3dPolylineVertex
 10
65.29772186279297
 20
0.0000035770456179
 30
-86.5451889038086
 70
    32
  0
VERTEX
  5
1F0
330
F7
100
AcDbEntity
  8
0
 62
    56
420
  7440134
100
AcDbVertex
100
AcDb3dPolylineVertex
 10
65.29083251953125
 20
0.000003577348707
 30
-86.54285430908203
 70
    32
  0
VERTEX
  5
1F1
330
F7
100
AcDbEntity
  8
0
 62
    56
420
  7440134
100
AcDbVertex
100
AcDb3dPolylineVertex
 10
65.28379058837891
 20
0.0000035776085952
 30
-86.54085540771484
 70
    32
  0
VERTEX
  5
1F2
330
F7
100
AcDbEntity
  8
0
 62
    56
420
  7440134
100
AcDbVertex
100
AcDb3dPolylineVertex
 10
65.276611328125
 20
0.0000035778241454
 30
-86.53919982910156
 70
    32
  0
VERTEX
  5
1F3
330
F7
100
AcDbEntity
  8
0
 62
    56
420
  7440134
100
AcDbVertex
100
AcDb3dPolylineVertex
 10
65.26930999755859
 20
0.0000035779939935
 30
-86.53788757324219
 70
    32
  0
VERTEX
  5
1F4
330
F7
100
AcDbEntity
  8
0
 62
    56
420
  7440134
100
AcDbVertex
100
AcDb3dPolylineVertex
 10
65.26188659667969
 20
0.0000035781170027
 30
-86.53694915771485
 70
    32
  0
VERTEX
  5
1F5
330
F7
100
AcDbEntity
  8
0
 62
    56
420
  7440134
100
AcDbVertex
100
AcDb3dPolylineVertex
 10
65.25435638427734
 20
0.0000035781915813
 30
-86.53636932373046
 70
    32
  0
VERTEX
  5
1F6
330
F7
100
AcDbEntity
  8
0
 62
    56
420
  7440134
100
AcDbVertex
100
AcDb3dPolylineVertex
 10
65.24672698974609
 20
0.0000035782168197
 30
-86.53617858886718
 70
    32
  0
VERTEX
  5
1F7
330
F7
100
AcDbEntity
  8
0
 62
    56
420
  7440134
100
AcDbVertex
100
AcDb3dPolylineVertex
 10
54.84605407714844
 20
0.0000035782168197
 30
-86.53617858886718
 70
    32
  0
VERTEX
  5
1F8
330
F7
100
AcDbEntity
  8
0
 62
    56
420
  7440134
100
AcDbVertex
100
AcDb3dPolylineVertex
 10
54.81744003295898
 20
0.000003578098358
 30
-86.53545379638671
 70
    32
  0
VERTEX
  5
1F9
330
F7
100
AcDbEntity
  8
0
 62
    56
420
  7440134
100
AcDbVertex
100
AcDb3dPolylineVertex
 10
54.78919982910156
 20
0.0000035777470657
 30
-86.5333023071289
 70
    32
  0
VERTEX
  5
1FA
330
F7
100
AcDbEntity
  8
0
 62
    56
420
  7440134
100
AcDbVertex
100
AcDb3dPolylineVertex
 10
54.76136779785156
 20
0.0000035771686271
 30
-86.52976226806641
 70
    32
  0
VERTEX
  5
1FB
330
F7
100
AcDbEntity
  8
0
 62
    56
420
  7440134
100
AcDbVertex
100
AcDb3dPolylineVertex
 10
54.73397827148438
 20
0.0000035763687265
 30
-86.52486419677734
 70
    32
  0
VERTEX
  5
1FC
330
F7
100
AcDbEntity
  8
0
 62
    56
420
  7440134
100
AcDbVertex
100
AcDb3dPolylineVertex
 10
54.70706558227539
 20
0.0000035753530483
 30
-86.51863861083985
 70
    32
  0
VERTEX
  5
1FD
330
F7
100
AcDbEntity
  8
0
 62
    56
420
  7440134
100
AcDbVertex
100
AcDb3dPolylineVertex
 10
54.68066787719727
 20
0.0000035741275042
 30
-86.51113891601562
 70
    32
  0
VERTEX
  5
1FE
330
F7
100
AcDbEntity
  8
0
 62
    56
420
  7440134
100
AcDbVertex
100
AcDb3dPolylineVertex
 10
54.65481948852539
 20
0.0000035726975511
 30
-86.50238037109375
 70
    32
  0
VERTEX
  5
1FF
330
F7
100
AcDbEntity
  8
0
 62
    56
420
  7440134
100
AcDbVertex
100
AcDb3dPolylineVertex
 10
54.62955093383789
 20
0.0000035710691009
 30
-86.4924087524414
 70
    32
  0
VERTEX
  5
200
330
F7
100
AcDbEntity
  8
0
 62
    56
420
  7440134
100
AcDbVertex
100
AcDb3dPolylineVertex
 10
54.60490417480468
 20
0.0000035692480651
 30
-86.48125457763672
 70
    32
  0
VERTEX
  5
201
330
F7
100
AcDbEntity
  8
0
 62
    56
420
  7440134
100
AcDbVertex
100
AcDb3dPolylineVertex
 10
54.5809097290039
 20
0.0000035672399008
 30
-86.46895599365235
 70
    32
  0
VERTEX
  5
202
330
F7
100
AcDbEntity
  8
0
 62
    56
420
  7440134
100
AcDbVertex
100
AcDb3dPolylineVertex
 10
54.5576057434082
 20
0.0000035650502923
 30
-86.45554351806641
 70
    32
  0
VERTEX
  5
203
330
F7
100
AcDbEntity
  8
0
 62
    56
420
  7440134
100
AcDbVertex
100
AcDb3dPolylineVertex
 10
54.53502655029296
 20
0.0000035626851513
 30
-86.44106292724609
 70
    32
  0
VERTEX
  5
204
330
F7
100
AcDbEntity
  8
0
 62
    56
420
  7440134
100
AcDbVertex
100
AcDb3dPolylineVertex
 10
54.51320648193359
 20
0.0000035601503896
 30
-86.425537109375
 70
    32
  0
VERTEX
  5
205
330
F7
100
AcDbEntity
  8
0
 62
    56
420
  7440134
100
AcDbVertex
100
AcDb3dPolylineVertex
 10
54.49217605590821
 20
0.0000035574512367
 30
-86.4090118408203
 70
    32
  0
VERTEX
  5
206
330
F7
100
AcDbEntity
  8
0
 62
    56
420
  7440134
100
AcDbVertex
100
AcDb3dPolylineVertex
 10
54.47198104858398
 20
0.0000035545938317
 30
-86.39151000976562
 70
    32
  0
VERTEX
  5
207
330
F7
100
AcDbEntity
  8
0
 62
    56
420
  7440134
100
AcDbVertex
100
AcDb3dPolylineVertex
 10
54.45264434814453
 20
0.000003551583859
 30
-86.37307739257812
 70
    32
  0
VERTEX
  5
208
330
F7
100
AcDbEntity
  8
0
 62
    56
420
  7440134
100
AcDbVertex
100
AcDb3dPolylineVertex
 10
54.43421173095703
 20
0.0000035484267755
 30
-86.35374450683594
 70
    32
  0
VERTEX
  5
209
330
F7
100
AcDbEntity
  8
0
 62
    56
420
  7440134
100
AcDbVertex
100
AcDb3dPolylineVertex
 10
54.4167137145996
 20
0.0000035451287204
 30
-86.33354187011718
 70
    32
  0
VERTEX
  5
20A
330
F7
100
AcDbEntity
  8
0
 62
    56
420
  7440134
100
AcDbVertex
100
AcDb3dPolylineVertex
 10
54.40018463134766
 20
0.0000035416951505
 30
-86.31251525878907
 70
    32
  0
VERTEX
  5
20B
330
F7
100
AcDbEntity
  8
0
 62
    56
420
  7440134
100
AcDbVertex
100
AcDb3dPolylineVertex
 10
54.38465881347656
 20
0.0000035381319776
 30
-86.29069519042969
 70
    32
  0
VERTEX
  5
20C
330
F7
100
AcDbEntity
  8
0
 62
    56
420
  7440134
100
AcDbVertex
100
AcDb3dPolylineVertex
 10
54.37017440795898
 20
0.0000035344448861
 30
-86.26811218261719
 70
    32
  0
VERTEX
  5
20D
330
F7
100
AcDbEntity
  8
0
 62
    56
420
  7440134
100
AcDbVertex
100
AcDb3dPolylineVertex
 10
54.35676574707031
 20
0.0000035306393329
 30
-86.24481201171875
 70
    32
  0
VERTEX
  5
20E
330
F7
100
AcDbEntity
  8
0
 62
    56
420
  7440134
100
AcDbVertex
100
AcDb3dPolylineVertex
 10
54.34446716308594
 20
0.0000035267214571
 30
-86.22081756591796
 70
    32
  0
VERTEX
  5
20F
330
F7
100
AcDbEntity
  8
0
 62
    56
420
  7440134
100
AcDbVertex
100
AcDb3dPolylineVertex
 10
54.33331680297851
 20
0.0000035226967157
 30
-86.19616699218751
 70
    32
  0
VERTEX
  5
210
330
F7
100
AcDbEntity
  8
0
 62
    56
420
  7440134
100
AcDbVertex
100
AcDb3dPolylineVertex
 10
54.3233413696289
 20
0.0000035185710203
 30
-86.17089843749999
 70
    32
  0
VERTEX
  5
211
330
F7
100
AcDbEntity
  8
0
 62
    56
420
  7440134
100
AcDbVertex
100
AcDb3dPolylineVertex
 10
54.31458663940429
 20
0.0000035143500554
 30
-86.14505004882813
 70
    32
  0
VERTEX
  5
212
330
F7
100
AcDbEntity
  8
0
 62
    56
420
  7440134
100
AcDbVertex
100
AcDb3dPolylineVertex
 10
54.30707931518554
 20
0.0000035100395053
 30
-86.11865234375001
 70
    32
  0
VERTEX
  5
213
330
F7
100
AcDbEntity
  8
0
 62
    56
420
  7440134
100
AcDbVertex
100
AcDb3dPolylineVertex
 10
54.30086135864257
 20
0.0000035056452816
 30
-86.09174346923827
 70
    32
  0
VERTEX
  5
214
330
F7
100
AcDbEntity
  8
0
 62
    56
420
  7440134
100
AcDbVertex
100
AcDb3dPolylineVertex
 10
54.29596328735351
 20
0.0000035011728414
 30
-86.06435394287109
 70
    32
  0
VERTEX
  5
215
330
F7
100
AcDbEntity
  8
0
 62
    56
420
  7440134
100
AcDbVertex
100
AcDb3dPolylineVertex
 10
54.29241943359375
 20
0.000003496627869
 30
-86.0365219116211
 70
    32
  0
VERTEX
  5
216
330
F7
100
AcDbEntity
  8
0
 62
    56
420
  7440134
100
AcDbVertex
100
AcDb3dPolylineVertex
 10
54.29026794433593
 20
0.0000034920165035
 30
-86.0082778930664
 70
    32
  0
VERTEX
  5
217
330
F7
100
AcDbEntity
  8
0
 62
    56
420
  7440134
100
AcDbVertex
100
AcDb3dPolylineVertex
 10
54.28954315185547
 20
0.0000034873442019
 30
-85.97966766357421
 70
    32
  0
VERTEX
  5
218
330
F7
100
AcDbEntity
  8
0
 62
    56
420
  7440134
100
AcDbVertex
100
AcDb3dPolylineVertex
 10
54.28954315185547
 20
0.0000033856326809
 30
-85.3567657470703
 70
    32
  0
VERTEX
  5
219
330
F7
100
AcDbEntity
  8
0
 62
    56
420
  7440134
100
AcDbVertex
100
AcDb3dPolylineVertex
 10
54.28934860229492
 20
0.0000033845078633
 30
-85.34913635253905
 70
    32
  0
VERTEX
  5
21A
330
F7
100
AcDbEntity
  8
0
 62
    56
420
  7440134
100
AcDbVertex
100
AcDb3dPolylineVertex
 10
54.28877639770508
 20
0.0000033836374769
 30
-85.34160614013671
 70
    32
  0
VERTEX
  5
21B
330
F7
100
AcDbEntity
  8
0
 62
    56
420
  7440134
100
AcDbVertex
100
AcDb3dPolylineVertex
 10
54.2878303527832
 20
0.0000033830174289
 30
-85.3341827392578
 70
    32
  0
VERTEX
  5
21C
330
F7
100
AcDbEntity
  8
0
 62
    56
420
  7440134
100
AcDbVertex
100
AcDb3dPolylineVertex
 10
54.28652572631836
 20
0.0000033826429444
 30
-85.3268814086914
 70
    32
  0
VERTEX
  5
21D
330
F7
100
AcDbEntity
  8
0
 62
    56
420
  7440134
100
AcDbVertex
100
AcDb3dPolylineVertex
 10
54.28486633300781
 20
0.0000033825099308
 30
-85.31970977783203
 70
    32
  0
VERTEX
  5
21E
330
F7
100
AcDbEntity
  8
0
 62
    56
420
  7440134
100
AcDbVertex
100
AcDb3dPolylineVertex
 10
54.28286361694336
 20
0.0000033826138406
 30
-85.31266784667968
 70
    32
  0
VERTEX
  5
21F
330
F7
100
AcDbEntity
  8
0
 62
    56
420
  7440134
100
AcDbVertex
100
AcDb3dPolylineVertex
 10
54.28052902221679
 20
0.000003382950581
 30
-85.30577087402344
 70
    32
  0
VERTEX
  5
220
330
F7
100
AcDbEntity
  8
0
 62
    56
420
  7440134
100
AcDbVertex
100
AcDb3dPolylineVertex
 10
54.27787017822265
 20
0.0000033835153772
 30
-85.29903411865234
 70
    32
  0
VERTEX
  5
221
330
F7
100
AcDbEntity
  8
0
 62
    56
420
  7440134
100
AcDbVertex
100
AcDb3dPolylineVertex
 10
54.27489471435547
 20
0.0000033843039091
 30
-85.29246520996094
 70
    32
  0
VERTEX
  5
222
330
F7
100
AcDbEntity
  8
0
 62
    56
420
  7440134
100
AcDbVertex
100
AcDb3dPolylineVertex
 10
54.2716178894043
 20
0.0000033853123114
 30
-85.28606414794921
 70
    32
  0
VERTEX
  5
223
330
F7
100
AcDbEntity
  8
0
 62
    56
420
  7440134
100
AcDbVertex
100
AcDb3dPolylineVertex
 10
54.26803970336914
 20
0.0000033865355817
 30
-85.27985382080078
 70
    32
  0
VERTEX
  5
224
330
F7
100
AcDbEntity
  8
0
 62
    56
420
  7440134
100
AcDbVertex
100
AcDb3dPolylineVertex
 10
54.26417922973633
 20
0.0000033879696275
 30
-85.2738265991211
 70
    32
  0
VERTEX
  5
225
330
F7
100
AcDbEntity
  8
0
 62
    56
420
  7440134
100
AcDbVertex
100
AcDb3dPolylineVertex
 10
54.26004028320313
 20
0.0000033896101286
 30
-85.26801300048829
 70
    32
  0
VERTEX
  5
226
330
F7
100
AcDbEntity
  8
0
 62
    56
420
  7440134
100
AcDbVertex
100
AcDb3dPolylineVertex
 10
54.25563049316406
 20
0.0000033914525375
 30
-85.26240539550782
 70
    32
  0
VERTEX
  5
227
330
F7
100
AcDbEntity
  8
0
 62
    56
420
  7440134
100
AcDbVertex
100
AcDb3dPolylineVertex
 10
54.2509651184082
 20
0.0000033934925341
 30
-85.25701904296875
 70
    32
  0
VERTEX
  5
228
330
F7
100
AcDbEntity
  8
0
 62
    56
420
  7440134
100
AcDbVertex
100
AcDb3dPolylineVertex
 10
54.24604797363281
 20
0.0000033957260257
 30
-85.25186157226562
 70
    32
  0
VERTEX
  5
229
330
F7
100
AcDbEntity
  8
0
 62
    56
420
  7440134
100
AcDbVertex
100
AcDb3dPolylineVertex
 10
54.24089431762695
 20
0.0000033981482375
 30
-85.2469482421875
 70
    32
  0
VERTEX
  5
22A
330
F7
100
AcDbEntity
  8
0
 62
    56
420
  7440134
100
AcDbVertex
100
AcDb3dPolylineVertex
 10
54.23550796508789
 20
0.0000034007548493
 30
-85.24227905273438
 70
    32
  0
VERTEX
  5
22B
330
F7
100
AcDbEntity
  8
0
 62
    56
420
  7440134
100
AcDbVertex
100
AcDb3dPolylineVertex
 10
54.22990036010742
 20
0.000003403541541
 30
-85.23786926269531
 70
    32
  0
VERTEX
  5
22C
330
F7
100
AcDbEntity
  8
0
 62
    56
420
  7440134
100
AcDbVertex
100
AcDb3dPolylineVertex
 10
54.22408294677734
 20
0.00000340650422
 30
-85.23373413085938
 70
    32
  0
VERTEX
  5
22D
330
F7
100
AcDbEntity
  8
0
 62
    56
420
  7440134
100
AcDbVertex
100
AcDb3dPolylineVertex
 10
54.21805953979492
 20
0.000003409637884
 30
-85.22986602783204
 70
    32
  0
VERTEX
  5
22E
330
F7
100
AcDbEntity
  8
0
 62
    56
420
  7440134
100
AcDbVertex
100
AcDb3dPolylineVertex
 10
54.21184539794921
 20
0.0000034129388951
 30
-85.22629547119141
 70
    32
  0
VERTEX
  5
22F
330
F7
100
AcDbEntity
  8
0
 62
    56
420
  7440134
100
AcDbVertex
100
AcDb3dPolylineVertex
 10
54.20544815063476
 20
0.0000034164022509
 30
-85.22301483154297
 70
    32
  0
VERTEX
  5
230
330
F7
100
AcDbEntity
  8
0
 62
    56
420
  7440134
100
AcDbVertex
100
AcDb3dPolylineVertex
 10
54.19887542724609
 20
0.0000034200238588
 30
-85.22003936767578
 70
    32
  0
VERTEX
  5
231
330
F7
100
AcDbEntity
  8
0
 62
    56
420
  7440134
100
AcDbVertex
100
AcDb3dPolylineVertex
 10
54.192138671875
 20
0.000003423799626
 30
-85.21737670898437
 70
    32
  0
VERTEX
  5
232
330
F7
100
AcDbEntity
  8
0
 62
    56
420
  7440134
100
AcDbVertex
100
AcDb3dPolylineVertex
 10
54.18524169921875
 20
0.0000034277245504
 30
-85.21504211425781
 70
    32
  0
VERTEX
  5
233
330
F7
100
AcDbEntity
  8
0
 62
    56
420
  7440134
100
AcDbVertex
100
AcDb3dPolylineVertex
 10
54.17820358276367
 20
0.0000034317947666
 30
-85.21304321289063
 70
    32
  0
VERTEX
  5
234
330
F7
100
AcDbEntity
  8
0
 62
    56
420
  7440134
100
AcDbVertex
100
AcDb3dPolylineVertex
 10
54.17102813720703
 20
0.0000034360054997
 30
-85.21138763427734
 70
    32
  0
VERTEX
  5
235
330
F7
100
AcDbEntity
  8
0
 62
    56
420
  7440134
100
AcDbVertex
100
AcDb3dPolylineVertex
 10
54.16372299194335
 20
0.0000034403528844
 30
-85.21007537841796
 70
    32
  0
VERTEX
  5
236
330
F7
100
AcDbEntity
  8
0
 62
    56
420
  7440134
100
AcDbVertex
100
AcDb3dPolylineVertex
 10
54.15630340576171
 20
0.0000034448319184
 30
-85.20913696289062
 70
    32
  0
VERTEX
  5
237
330
F7
100
AcDbEntity
  8
0
 62
    56
420
  7440134
100
AcDbVertex
100
AcDb3dPolylineVertex
 10
54.1487693786621
 20
0.0000034494387364
 30
-85.20855712890625
 70
    32
  0
VERTEX
  5
238
330
F7
100
AcDbEntity
  8
0
 62
    56
420
  7440134
100
AcDbVertex
100
AcDb3dPolylineVertex
 10
54.14113998413085
 20
0.000003454168791
 30
-85.20836639404297
 70
    32
  0
VERTEX
  5
239
330
F7
100
AcDbEntity
  8
0
 62
    56
420
  7440134
100
AcDbVertex
100
AcDb3dPolylineVertex
 10
51.44901275634765
 20
0.000004546242053
 30
-85.20836639404297
 70
    32
  0
VERTEX
  5
23A
330
F7
100
AcDbEntity
  8
0
 62
    56
420
  7440134
100
AcDbVertex
100
AcDb3dPolylineVertex
 10
50.6886863708496
 20
0.0000047289868235
 30
-85.19371795654297
 70
    32
  0
VERTEX
  5
23B
330
F7
100
AcDbEntity
  8
0
 62
    56
420
  7440134
100
AcDbVertex
100
AcDb3dPolylineVertex
 10
49.9300537109375
 20
0.0000051288911891
 30
-85.14839172363281
 70
    32
  0
VERTEX
  5
23C
330
F7
100
AcDbEntity
  8
0
 62
    56
420
  7440134
100
AcDbVertex
100
AcDb3dPolylineVertex
 10
49.17426300048828
 20
0.0000055234595493
 30
-85.0703125
 70
    32
  0
VERTEX
  5
23D
330
F7
100
AcDbEntity
  8
0
 62
    56
420
  7440134
100
AcDbVertex
100
AcDb3dPolylineVertex
 10
48.42245864868164
 20
0.0000056901963035
 30
-84.95740509033202
 70
    32
  0
VERTEX
  5
23E
330
F7
100
AcDbEntity
  8
0
 62
    56
420
  7440134
100
AcDbVertex
100
AcDb3dPolylineVertex
 10
47.67656707763672
 20
0.0000056661119743
 30
-84.80957794189453
 70
    32
  0
VERTEX
  5
23F
330
F7
100
AcDbEntity
  8
0
 62
    56
420
  7440134
100
AcDbVertex
100
AcDb3dPolylineVertex
 10
46.93849563598632
 20
0.0000056365806813
 30
-84.62831115722655
 70
    32
  0
VERTEX
  5
240
330
F7
100
AcDbEntity
  8
0
 62
    56
420
  7440134
100
AcDbVertex
100
AcDb3dPolylineVertex
 10
46.20935440063476
 20
0.0000056016515373
 30
-84.41391754150391
 70
    32
  0
VERTEX
  5
241
330
F7
100
AcDbEntity
  8
0
 62
    56
420
  7440134
100
AcDbVertex
100
AcDb3dPolylineVertex
 10
45.49026870727539
 20
0.0000055613732002
 30
-84.16669464111327
 70
    32
  0
VERTEX
  5
242
330
F7
100
AcDbEntity
  8
0
 62
    56
420
  7440134
100
AcDbVertex
100
AcDb3dPolylineVertex
 10
44.7830810546875
 20
0.000005330352451
 30
-83.88724517822266
 70
    32
  0
VERTEX
  5
243
330
F7
100
AcDbEntity
  8
0
 62
    56
420
  7440134
100
AcDbVertex
100
AcDb3dPolylineVertex
 10
44.08958435058593
 20
0.0000048716110541
 30
-83.57630157470703
 70
    32
  0
VERTEX
  5
244
330
F7
100
AcDbEntity
  8
0
 62
    56
420
  7440134
100
AcDbVertex
100
AcDb3dPolylineVertex
 10
43.41083526611328
 20
0.0000044078215069
 30
-83.23438262939452
 70
    32
  0
SEQEND
  5
245
330
F7
100
AcDbEntity
  8
0
 62
    56
420
  7440134
  0
ENDSEC
  0
SECTION
  2
OBJECTS
  0
DICTIONARY
  5
C
330
0
100
AcDbDictionary
281
     1
  3
ACAD_COLOR
350
DC
  3
ACAD_DETAILVIEWSTYLE
350
F5
  3
ACAD_GROUP
350
D
  3
ACAD_LAYOUT
350
1A
  3
ACAD_MATERIAL
350
AA
  3
ACAD_MLEADERSTYLE
350
F1
  3
ACAD_MLINESTYLE
350
17
  3
ACAD_PLOTSETTINGS
350
19
  3
ACAD_PLOTSTYLENAME
350
E
  3
ACAD_SCALELIST
350
DF
  3
ACAD_SECTIONVIEWSTYLE
350
F3
  3
ACAD_TABLESTYLE
350
DD
  3
ACAD_VISUALSTYLE
350
C3
  3
ACDB_RECOMPOSE_DATA
350
252
  3
AcDbVariableDictionary
350
246
  0
DICTIONARY
  5
DC
102
{ACAD_REACTORS
330
C
102
}
330
C
100
AcDbDictionary
281
     1
  0
DICTIONARY
  5
F5
102
{ACAD_REACTORS
330
C
102
}
330
C
100
AcDbDictionary
281
     1
  3
Imperial24
350
F6
  0
DICTIONARY
  5
D
102
{ACAD_REACTORS
330
C
102
}
330
C
100
AcDbDictionary
281
     1
  0
DICTIONARY
  5
1A
102
{ACAD_REACTORS
330
C
102
}
330
C
100
AcDbDictionary
281
     1
  3
Layout1
350
1E
  3
Layout2
350
26
  3
Model
350
22
  0
DICTIONARY
  5
AA
102
{ACAD_REACTORS
330
C
102
}
330
C
100
AcDbDictionary
281
     1
  3
ByBlock
350
B3
  3
ByLayer
350
AB
  3
Global
350
BB
  0
DICTIONARY
  5
F1
102
{ACAD_REACTORS
330
C
102
}
330
C
100
AcDbDictionary
281
     1
  3
Standard
350
F2
  0
DICTIONARY
  5
17
102
{ACAD_REACTORS
330
C
102
}
330
C
100
AcDbDictionary
281
     1
  3
Standard
350
18
  0
DICTIONARY
  5
19
102
{ACAD_REACTORS
330
C
102
}
330
C
100
AcDbDictionary
281
     1
  0
ACDBDICTIONARYWDFLT
  5
E
102
{ACAD_REACTORS
330
C
102
}
330
C
100
AcDbDictionary
281
     1
  3
ByLayer
350
2D
  3
Normal
350
F
100
AcDbDictionaryWithDefault
340
F
  0
DICTIONARY
  5
DF
102
{ACAD_REACTORS
330
C
102
}
330
C
100
AcDbDictionary
281
     1
  3
A0
350
E0
  3
A1
350
E1
  3
A2
350
E2
  3
A3
350
E3
  3
A4
350
E4
  3
A5
350
E5
  3
A6
350
E6
  3
A7
350
E7
  3
A8
350
E8
  3
A9
350
E9
  3
B0
350
EA
  3
B1
350
EB
  3
B2
350
EC
  3
B3
350
ED
  3
B4
350
EE
  3
B5
350
EF
  3
B6
350
F0
  0
DICTIONARY
  5
F3
102
{ACAD_REACTORS
330
C
102
}
330
C
100
AcDbDictionary
281
     1
  3
Imperial24
350
F4
  0
DICTIONARY
  5
DD
102
{ACAD_REACTORS
330
C
102
}
330
C
100
AcDbDictionary
281
     1
  3
Standard
350
DE
  0
DICTIONARY
  5
C3
102
{ACAD_REACTORS
330
C
102
}
330
C
100
AcDbDictionary
281
     1
  3
2dWireframe
350
C9
  3
Basic
350
C8
  3
Brighten
350
CF
  3
ColorChange
350
D3
  3
Conceptual
350
CC
  3
Dim
350
CE
  3
EdgeColorOff
350
DB
  3
Facepattern
350
D2
  3
Flat
350
C4
  3
FlatWithEdges
350
C5
  3
Gouraud
350
C6
  3
GouraudWithEdges
350
C7
  3
Hidden
350
CB
  3
JitterOff
350
D9
  3
Linepattern
350
D1
  3
OverhangOff
350
DA
  3
Realistic
350
CD
  3
Shaded
350
D8
  3
Shaded with edges
350
D7
  3
Shades of Gray
350
D4
  3
Sketchy
350
D5
  3
Thicken
350
D0
  3
Wireframe
350
CA
  3
X-Ray
350
D6
  0
XRECORD
  5
252
102
{ACAD_REACTORS
330
C
102
}
330
C
100
AcDbXrecord
280
     1
 90
        1
330
DE
  0
DICTIONARY
  5
246
102
{ACAD_REACTORS
330
C
102
}
330
C
100
AcDbDictionary
281
     1
  3
CANNOSCALE
350
24C
  3
CMLEADERSTYLE
350
248
  3
CTABLESTYLE
350
247
  3
CVIEWDETAILSTYLE
350
249
  3
CVIEWSECTIONSTYLE
350
24A
  3
LAYEREVAL
350
24E
  3
LAYERNOTIFY
350
24F
  3
LIGHTINGUNITS
350
24D
  3
MSLTSCALE
350
24B
  0
ACDBDETAILVIEWSTYLE
  5
F6
102
{ACAD_XDICTIONARY
360
289
102
}
102
{ACAD_REACTORS
330
F5
102
}
330
F5
100
AcDbModelDocViewStyle
 70
     0
  3
Imperial24
290
     0
100
AcDbDetailViewStyle
 70
     0
 71
     0
 90
        3
 71
     1
340
11
 62
   256
 40
0.24
340
0
 62
   256
 40
0.24
300

 40
0.36
280
     3
 71
     2
340
16
 90
       25
 62
   256
 71
     3
340
11
 62
   256
 40
0.24
 90
        1
 40
0.75
 90
        1
300
%<\AcVar ViewType \f "%tc1">% %<\AcVar ViewDetailId>%\PSCALE %<\AcVar ViewScale \f "%sn">%
 71
     4
340
16
 90
       25
 62
   256
340
16
 90
       25
 62
   256
280
     0
  0
LAYOUT
  5
1E
102
{ACAD_REACTORS
330
1A
102
}
330
1A
100
AcDbPlotSettings
  1

  2
\\KTXNTBDC\CASF2PN1
  4

  6

 40
0.0
 41
0.0
 42
0.0
 43
0.0
 44
0.0
 45
0.0
 46
0.0
 47
0.0
 48
0.0
 49
0.0
140
0.0
141
0.0
142
1.0
143
1.0
 70
   688
 72
     0
 73
     0
 74
     5
  7

 75
    16
147
1.0
 76
     0
 77
     2
 78
   300
148
0.0
149
0.0
100
AcDbLayout
  1
Layout1
 70
     1
 71
     1
 10
0.0
 20
0.0
 11
12.0
 21
9.0
 12
0.0
 22
0.0
 32
0.0
 14
1.000000000000000E+20
 24
1.000000000000000E+20
 34
1.000000000000000E+20
 15
-1.000000000000000E+20
 25
-1.000000000000000E+20
 35
-1.000000000000000E+20
146
0.0
 13
0.0
 23
0.0
 33
0.0
 16
1.0
 26
0.0
 36
0.0
 17
0.0
 27
1.0
 37
0.0
 76
     0
330
1B
  0
LAYOUT
  5
26
102
{ACAD_REACTORS
330
1A
102
}
330
1A
100
AcDbPlotSettings
  1

  2
\\KTXNTBDC\CASF2PN1
  4

  6

 40
0.0
 41
0.0
 42
0.0
 43
0.0
 44
0.0
 45
0.0
 46
0.0
 47
0.0
 48
0.0
 49
0.0
140
0.0
141
0.0
142
1.0
143
1.0
 70
   688
 72
     0
 73
     0
 74
     5
  7

 75
    16
147
1.0
 76
     0
 77
     2
 78
   300
148
0.0
149
0.0
100
AcDbLayout
  1
Layout2
 70
     1
 71
     2
 10
0.0
 20
0.0
 11
12.0
 21
9.0
 12
0.0
 22
0.0
 32
0.0
 14
0.0
 24
0.0
 34
0.0
 15
0.0
 25
0.0
 35
0.0
146
0.0
 13
0.0
 23
0.0
 33
0.0
 16
1.0
 26
0.0
 36
0.0
 17
0.0
 27
1.0
 37
0.0
 76
     0
330
23
  0
LAYOUT
  5
22
102
{ACAD_REACTORS
330
1A
102
}
330
1A
100
AcDbPlotSettings
  1

  2
\\KTXNTBDC\CASF2PN1
  4

  6

 40
0.0
 41
0.0
 42
0.0
 43
0.0
 44
0.0
 45
0.0
 46
0.0
 47
0.0
 48
0.0
 49
0.0
140
0.0
141
0.0
142
1.0
143
1.0
 70
  1712
 72
     0
 73
     0
 74
     0
  7

 75
     0
147
1.0
 76
     0
 77
     2
 78
   300
148
0.0
149
0.0
100
AcDbLayout
  1
Model
 70
     1
 71
     0
 10
0.0
 20
0.0
 11
12.0
 21
9.0
 12
0.0
 22
0.0
 32
0.0
 14
0.0
 24
0.0
 34
0.0
 15
0.0
 25
0.0
 35
0.0
146
0.0
 13
0.0
 23
0.0
 33
0.0
 16
1.0
 26
0.0
 36
0.0
 17
0.0
 27
1.0
 37
0.0
 76
     0
330
1F
  0
MATERIAL
  5
B3
102
{ACAD_XDICTIONARY
360
B4
102
}
102
{ACAD_REACTORS
330
AA
102
}
330
AA
100
AcDbMaterial
  1
ByBlock
 72
     0
 43
0.0208333333333333
 43
0.0
 43
0.0
 43
0.0
 43
0.0
 43
0.0208333333333333
 43
0.0
 43
0.0
 43
0.0
 43
0.0
 43
1.0
 43
0.0
 43
0.0
 43
0.0
 43
0.0
 43
1.0
 77
     0
 47
0.0208333333333333
 47
0.0
 47
0.0
 47
0.0
 47
0.0
 47
0.0208333333333333
 47
0.0
 47
0.0
 47
0.0
 47
0.0
 47
1.0
 47
0.0
 47
0.0
 47
0.0
 47
0.0
 47
1.0
171
     0
 49
0.0208333333333333
 49
0.0
 49
0.0
 49
0.0
 49
0.0
 49
0.0208333333333333
 49
0.0
 49
0.0
 49
0.0
 49
0.0
 49
1.0
 49
0.0
 49
0.0
 49
0.0
 49
0.0
 49
1.0
175
     0
142
0.0208333333333333
142
0.0
142
0.0
142
0.0
142
0.0
142
0.0208333333333333
142
0.0
142
0.0
142
0.0
142
0.0
142
1.0
142
0.0
142
0.0
142
0.0
142
0.0
142
1.0
179
     0
144
0.0208333333333333
144
0.0
144
0.0
144
0.0
144
0.0
144
0.0208333333333333
144
0.0
144
0.0
144
0.0
144
0.0
144
1.0
144
0.0
144
0.0
144
0.0
144
0.0
144
1.0
147
0.0208333333333333
147
0.0
147
0.0
147
0.0
147
0.0
147
0.0208333333333333
147
0.0
147
0.0
147
0.0
147
0.0
147
1.0
147
0.0
147
0.0
147
0.0
147
0.0
147
1.0
  0
MATERIAL
  5
AB
102
{ACAD_XDICTIONARY
360
AC
102
}
102
{ACAD_REACTORS
330
AA
102
}
330
AA
100
AcDbMaterial
  1
ByLayer
 72
     0
 43
0.0208333333333333
 43
0.0
 43
0.0
 43
0.0
 43
0.0
 43
0.0208333333333333
 43
0.0
 43
0.0
 43
0.0
 43
0.0
 43
1.0
 43
0.0
 43
0.0
 43
0.0
 43
0.0
 43
1.0
 77
     0
 47
0.0208333333333333
 47
0.0
 47
0.0
 47
0.0
 47
0.0
 47
0.0208333333333333
 47
0.0
 47
0.0
 47
0.0
 47
0.0
 47
1.0
 47
0.0
 47
0.0
 47
0.0
 47
0.0
 47
1.0
171
     0
 49
0.0208333333333333
 49
0.0
 49
0.0
 49
0.0
 49
0.0
 49
0.0208333333333333
 49
0.0
 49
0.0
 49
0.0
 49
0.0
 49
1.0
 49
0.0
 49
0.0
 49
0.0
 49
0.0
 49
1.0
175
     0
142
0.0208333333333333
142
0.0
142
0.0
142
0.0
142
0.0
142
0.0208333333333333
142
0.0
142
0.0
142
0.0
142
0.0
142
1.0
142
0.0
142
0.0
142
0.0
142
0.0
142
1.0
179
     0
144
0.0208333333333333
144
0.0
144
0.0
144
0.0
144
0.0
144
0.0208333333333333
144
0.0
144
0.0
144
0.0
144
0.0
144
1.0
144
0.0
144
0.0
144
0.0
144
0.0
144
1.0
147
0.0208333333333333
147
0.0
147
0.0
147
0.0
147
0.0
147
0.0208333333333333
147
0.0
147
0.0
147
0.0
147
0.0
147
1.0
147
0.0
147
0.0
147
0.0
147
0.0
147
1.0
  0
MATERIAL
  5
BB
102
{ACAD_XDICTIONARY
360
BC
102
}
102
{ACAD_REACTORS
330
AA
102
}
330
AA
100
AcDbMaterial
  1
Global
 72
     0
 43
0.0208333333333333
 43
0.0
 43
0.0
 43
0.0
 43
0.0
 43
0.0208333333333333
 43
0.0
 43
0.0
 43
0.0
 43
0.0
 43
1.0
 43
0.0
 43
0.0
 43
0.0
 43
0.0
 43
1.0
 77
     0
 47
0.0208333333333333
 47
0.0
 47
0.0
 47
0.0
 47
0.0
 47
0.0208333333333333
 47
0.0
 47
0.0
 47
0.0
 47
0.0
 47
1.0
 47
0.0
 47
0.0
 47
0.0
 47
0.0
 47
1.0
171
     0
 49
0.0208333333333333
 49
0.0
 49
0.0
 49
0.0
 49
0.0
 49
0.0208333333333333
 49
0.0
 49
0.0
 49
0.0
 49
0.0
 49
1.0
 49
0.0
 49
0.0
 49
0.0
 49
0.0
 49
1.0
175
     0
142
0.0208333333333333
142
0.0
142
0.0
142
0.0
142
0.0
142
0.0208333333333333
142
0.0
142
0.0
142
0.0
142
0.0
142
1.0
142
0.0
142
0.0
142
0.0
142
0.0
142
1.0
179
     0
144
0.0208333333333333
144
0.0
144
0.0
144
0.0
144
0.0
144
0.0208333333333333
144
0.0
144
0.0
144
0.0
144
0.0
144
1.0
144
0.0
144
0.0
144
0.0
144
0.0
144
1.0
147
0.0208333333333333
147
0.0
147
0.0
147
0.0
147
0.0
147
0.0208333333333333
147
0.0
147
0.0
147
0.0
147
0.0
147
1.0
147
0.0
147
0.0
147
0.0
147
0.0
147
1.0
  0
MLEADERSTYLE
  5
F2
102
{ACAD_XDICTIONARY
360
285
102
}
102
{ACAD_REACTORS
330
F1
102
}
330
F1
100
AcDbMLeaderStyle
179
     2
170
     2
171
     1
172
     0
 90
        2
 40
0.0
 41
0.0
173
     1
 91
-1056964608
340
14
 92
       -2
290
     1
 42
0.09
291
     1
 43
0.36
  3
Standard
 44
0.18
300

342
11
174
     1
178
     6
175
     1
176
     0
 93
-1056964608
 45
0.18
292
     0
297
     0
 46
0.18
 94
-1056964608
 47
1.0
 49
1.0
140
1.0
293
     1
141
0.0
294
     1
177
     0
142
1.0
295
     0
296
     0
143
0.125
271
     0
272
     9
273
     9
  0
MLINESTYLE
  5
18
102
{ACAD_REACTORS
330
17
102
}
330
17
100
AcDbMlineStyle
  2
STANDARD
 70
     0
  3

 62
   256
 51
90.0
 52
90.0
 71
     2
 49
0.5
 62
   256
  6
BYLAYER
 49
-0.5
 62
   256
  6
BYLAYER
  0
ACDBPLACEHOLDER
  5
2D
102
{ACAD_REACTORS
330
E
102
}
330
E
  0
ACDBPLACEHOLDER
  5
F
102
{ACAD_REACTORS
330
E
102
}
330
E
  0
SCALE
  5
E0
102
{ACAD_REACTORS
330
DF
102
}
330
DF
100
AcDbScale
 70
     0
300
1:1
140
1.0
141
1.0
290
     1
  0
SCALE
  5
E1
102
{ACAD_REACTORS
330
DF
102
}
330
DF
100
AcDbScale
 70
     0
300
1/128" = 1'-0"
140
0.0078125
141
12.0
290
     0
  0
SCALE
  5
E2
102
{ACAD_REACTORS
330
DF
102
}
330
DF
100
AcDbScale
 70
     0
300
1/64" = 1'-0"
140
0.015625
141
12.0
290
     0
  0
SCALE
  5
E3
102
{ACAD_REACTORS
330
DF
102
}
330
DF
100
AcDbScale
 70
     0
300
1/32" = 1'-0"
140
0.03125
141
12.0
290
     0
  0
SCALE
  5
E4
102
{ACAD_REACTORS
330
DF
102
}
330
DF
100
AcDbScale
 70
     0
300
1/16" = 1'-0"
140
0.0625
141
12.0
290
     0
  0
SCALE
  5
E5
102
{ACAD_REACTORS
330
DF
102
}
330
DF
100
AcDbScale
 70
     0
300
3/32" = 1'-0"
140
0.09375
141
12.0
290
     0
  0
SCALE
  5
E6
102
{ACAD_REACTORS
330
DF
102
}
330
DF
100
AcDbScale
 70
     0
300
1/8" = 1'-0"
140
0.125
141
12.0
290
     0
  0
SCALE
  5
E7
102
{ACAD_REACTORS
330
DF
102
}
330
DF
100
AcDbScale
 70
     0
300
3/16" = 1'-0"
140
0.1875
141
12.0
290
     0
  0
SCALE
  5
E8
102
{ACAD_REACTORS
330
DF
102
}
330
DF
100
AcDbScale
 70
     0
300
1/4" = 1'-0"
140
0.25
141
12.0
290
     0
  0
SCALE
  5
E9
102
{ACAD_REACTORS
330
DF
102
}
330
DF
100
AcDbScale
 70
     0
300
3/8" = 1'-0"
140
0.375
141
12.0
290
     0
  0
SCALE
  5
EA
102
{ACAD_REACTORS
330
DF
102
}
330
DF
100
AcDbScale
 70
     0
300
1/2" = 1'-0"
140
0.5
141
12.0
290
     0
  0
SCALE
  5
EB
102
{ACAD_REACTORS
330
DF
102
}
330
DF
100
AcDbScale
 70
     0
300
3/4" = 1'-0"
140
0.75
141
12.0
290
     0
  0
SCALE
  5
EC
102
{ACAD_REACTORS
330
DF
102
}
330
DF
100
AcDbScale
 70
     0
300
1" = 1'-0"
140
1.0
141
12.0
290
     0
  0
SCALE
  5
ED
102
{ACAD_REACTORS
330
DF
102
}
330
DF
100
AcDbScale
 70
     0
300
1-1/2" = 1'-0"
140
1.5
141
12.0
290
     0
  0
SCALE
  5
EE
102
{ACAD_REACTORS
330
DF
102
}
330
DF
100
AcDbScale
 70
     0
300
3" = 1'-0"
140
3.0
141
12.0
290
     0
  0
SCALE
  5
EF
102
{ACAD_REACTORS
330
DF
102
}
330
DF
100
AcDbScale
 70
     0
300
6" = 1'-0"
140
6.0
141
12.0
290
     0
  0
SCALE
  5
F0
102
{ACAD_REACTORS
330
DF
102
}
330
DF
100
AcDbScale
 70
     0
300
1'-0" = 1'-0"
140
12.0
141
12.0
290
     0
  0
ACDBSECTIONVIEWSTYLE
  5
F4
102
{ACAD_XDICTIONARY
360
287
102
}
102
{ACAD_REACTORS
330
F3
102
}
330
F3
100
AcDbModelDocViewStyle
 70
     0
  3
Imperial24
290
     0
100
AcDbSectionViewStyle
 70
     0
 71
     0
 90
       78
 71
     1
340
11
 62
   256
 40
0.24
340
0
340
0
 62
   256
 40
0.24
300
I, O, Q, S, X, Z
 40
0.48
 90
        3
 40
0.18
 90
        1
 71
     2
340
16
 90
       25
 62
   256
340
16
 90
       50
 62
   256
 40
0.24
 40
0.0
 40
0.24
 71
     3
340
11
 62
   256
 40
0.24
 90
        1
 40
0.75
 90
        1
300
%<\AcVar ViewType \f "%tc1">% %<\AcVar ViewSectionStartId>%-%<\AcVar ViewSectionEndId>%\PSCALE %<\AcVar ViewScale \f "%sn">%
 71
     4
 62
   256
 62
   257
300
ANSI31
 40
1.0
 90
        0
290
     0
290
     0
 90
        6
 40
0.0
 40
1.570796326794896
 40
0.2617993877991494
 40
1.308996938995747
 40
-0.2617993877991494
 40
1.832595714594046
  0
TABLESTYLE
  5
DE
102
{ACAD_XDICTIONARY
360
250
102
}
102
{ACAD_REACTORS
330
DD
102
}
330
DD
100
AcDbTableStyle
280
     0
  3
Standard
 70
     0
 71
     0
 40
0.06
 41
0.06
280
     0
281
     0
  7
Standard
140
0.18
170
     2
 62
     0
 63
     7
283
     0
 90
      512
 91
        0
  1

274
    -2
284
     1
 64
     0
275
    -2
285
     1
 65
     0
276
    -2
286
     1
 66
     0
277
    -2
287
     1
 67
     0
278
    -2
288
     1
 68
     0
279
    -2
289
     1
 69
     0
  7
Standard
140
0.25
170
     5
 62
     0
 63
     7
283
     0
 90
      512
 91
        0
  1

274
    -2
284
     1
 64
     0
275
    -2
285
     1
 65
     0
276
    -2
286
     1
 66
     0
277
    -2
287
     1
 67
     0
278
    -2
288
     1
 68
     0
279
    -2
289
     1
 69
     0
  7
Standard
140
0.18
170
     5
 62
     0
 63
     7
283
     0
 90
      512
 91
        0
  1

274
    -2
284
     1
 64
     0
275
    -2
285
     1
 65
     0
276
    -2
286
     1
 66
     0
277
    -2
287
     1
 67
     0
278
    -2
288
     1
 68
     0
279
    -2
289
     1
 69
     0
  0
VISUALSTYLE
  5
C9
102
{ACAD_XDICTIONARY
360
25F
102
}
102
{ACAD_REACTORS
330
C3
102
}
330
C3
100
AcDbVisualStyle
  2
2dWireframe
 70
     4
177
     2
291
     0
 71
     0
176
     1
 72
     2
176
     1
 73
     0
176
     1
 90
        0
176
     1
 40
0.6
176
     1
 41
30.0
176
     1
 63
     7
421
 16777215
176
     1
 74
     1
176
     1
 91
        4
176
     1
 64
     7
176
     1
 65
   257
176
     1
 75
     1
176
     1
175
     1
176
     1
 42
1.0
176
     1
 92
        0
176
     1
 66
   257
176
     1
 43
1.0
176
     1
 76
     1
176
     1
 77
     6
176
     1
 78
     2
176
     1
 67
     7
176
     1
 79
     5
176
     1
170
     0
176
     1
171
     0
176
     1
290
     0
176
     1
 93
        1
176
     1
 44
0.0
176
     1
173
     0
176
     1
1001
ACAD
1000
AcDbSavedByObjectVersion
1070
     0
  0
VISUALSTYLE
  5
C8
102
{ACAD_XDICTIONARY
360
25D
102
}
102
{ACAD_REACTORS
330
C3
102
}
330
C3
100
AcDbVisualStyle
  2
Basic
 70
     7
177
     2
291
     1
 71
     1
176
     1
 72
     0
176
     1
 73
     1
176
     1
 90
        0
176
     1
 40
0.6
176
     1
 41
30.0
176
     1
 63
     7
421
 16777215
176
     1
 74
     0
176
     1
 91
        4
176
     1
 64
     7
176
     1
 65
   257
176
     1
 75
     1
176
     1
175
     1
176
     1
 42
1.0
176
     1
 92
        8
176
     1
 66
     7
176
     1
 43
1.0
176
     1
 76
     1
176
     1
 77
     6
176
     1
 78
     2
176
     1
 67
     7
176
     1
 79
     5
176
     1
170
     0
176
     1
171
     0
176
     1
290
     0
176
     1
 93
        1
176
     1
 44
0.0
176
     1
173
     0
176
     1
1001
ACAD
1000
AcDbSavedByObjectVersion
1070
     0
  0
VISUALSTYLE
  5
CF
102
{ACAD_XDICTIONARY
360
26B
102
}
102
{ACAD_REACTORS
330
C3
102
}
330
C3
100
AcDbVisualStyle
  2
Brighten
 70
    12
177
     2
291
     1
 71
     2
176
     1
 72
     2
176
     1
 73
     0
176
     1
 90
        0
176
     1
 40
0.6
176
     1
 41
30.0
176
     1
 63
     7
421
 16777215
176
     1
 74
     1
176
     1
 91
        4
176
     1
 64
     7
176
     1
 65
   257
176
     1
 75
     1
176
     1
175
     1
176
     1
 42
1.0
176
     1
 92
        8
176
     1
 66
     7
176
     1
 43
1.0
176
     1
 76
     1
176
     1
 77
     6
176
     1
 78
     2
176
     1
 67
     7
176
     1
 79
     5
176
     1
170
     0
176
     1
171
     0
176
     1
290
     0
176
     1
 93
        1
176
     1
 44
50.0
176
     1
173
     0
176
     1
1001
ACAD
1000
AcDbSavedByObjectVersion
1070
     0
  0
VISUALSTYLE
  5
D3
102
{ACAD_XDICTIONARY
360
273
102
}
102
{ACAD_REACTORS
330
C3
102
}
330
C3
100
AcDbVisualStyle
  2
ColorChange
 70
    16
177
     2
291
     1
 71
     2
176
     1
 72
     2
176
     1
 73
     3
176
     1
 90
        0
176
     1
 40
0.6
176
     1
 41
30.0
176
     1
 63
     8
421
  8421504
176
     1
 74
     1
176
     1
 91
        4
176
     1
 64
     7
176
     1
 65
   257
176
     1
 75
     1
176
     1
175
     1
176
     1
 42
1.0
176
     1
 92
        8
176
     1
 66
     8
424
  8421504
176
     1
 43
1.0
176
     1
 76
     1
176
     1
 77
     6
176
     1
 78
     2
176
     1
 67
     7
176
     1
 79
     5
176
     1
170
     0
176
     1
171
     0
176
     1
290
     0
176
     1
 93
        1
176
     1
 44
0.0
176
     1
173
     0
176
     1
1001
ACAD
1000
AcDbSavedByObjectVersion
1070
     0
  0
VISUALSTYLE
  5
CC
102
{ACAD_XDICTIONARY
360
265
102
}
102
{ACAD_REACTORS
330
C3
102
}
330
C3
100
AcDbVisualStyle
  2
Conceptual
 70
     9
177
     2
291
     0
 71
     3
176
     1
 72
     2
176
     1
 73
     0
176
     1
 90
        0
176
     1
 40
0.6
176
     1
 41
30.0
176
     1
 63
     7
421
 16777215
176
     1
 74
     2
176
     1
 91
        2
176
     1
 64
     7
176
     1
 65
   257
176
     1
 75
     1
176
     1
175
     1
176
     1
 42
179.0
176
     1
 92
        8
176
     1
 66
     7
176
     1
 43
1.0
176
     1
 76
     1
176
     1
 77
     6
176
     1
 78
     2
176
     1
 67
     7
176
     1
 79
     3
176
     1
170
     0
176
     1
171
     0
176
     1
290
     0
176
     1
 93
        1
176
     1
 44
0.0
176
     1
173
     0
176
     1
1001
ACAD
1000
AcDbSavedByObjectVersion
1070
     0
  0
VISUALSTYLE
  5
CE
102
{ACAD_XDICTIONARY
360
269
102
}
102
{ACAD_REACTORS
330
C3
102
}
330
C3
100
AcDbVisualStyle
  2
Dim
 70
    11
177
     2
291
     1
 71
     2
176
     1
 72
     2
176
     1
 73
     0
176
     1
 90
        0
176
     1
 40
0.6
176
     1
 41
30.0
176
     1
 63
     7
421
 16777215
176
     1
 74
     1
176
     1
 91
        4
176
     1
 64
     7
176
     1
 65
   257
176
     1
 75
     1
176
     1
175
     1
176
     1
 42
1.0
176
     1
 92
        8
176
     1
 66
     7
176
     1
 43
1.0
176
     1
 76
     1
176
     1
 77
     6
176
     1
 78
     2
176
     1
 67
     7
176
     1
 79
     5
176
     1
170
     0
176
     1
171
     0
176
     1
290
     0
176
     1
 93
        1
176
     1
 44
-50.0
176
     1
173
     0
176
     1
1001
ACAD
1000
AcDbSavedByObjectVersion
1070
     0
  0
VISUALSTYLE
  5
DB
102
{ACAD_XDICTIONARY
360
283
102
}
102
{ACAD_REACTORS
330
C3
102
}
330
C3
100
AcDbVisualStyle
  2
EdgeColorOff
 70
    22
177
     2
291
     1
 71
     2
176
     0
 72
     2
176
     0
 73
     0
176
     0
 90
        0
176
     0
 40
0.6
176
     0
 41
30.0
176
     0
 63
     7
421
 16777215
176
     0
 74
     1
176
     0
 91
        4
176
     0
 64
     7
176
     0
 65
   257
176
     0
 75
     1
176
     0
175
     1
176
     0
 42
1.0
176
     0
 92
        8
176
     2
 66
     7
176
     0
 43
1.0
176
     0
 76
     1
176
     0
 77
     6
176
     0
 78
     2
176
     0
 67
     7
176
     0
 79
     5
176
     0
170
     0
176
     0
171
     0
176
     0
290
     0
176
     0
 93
        1
176
     0
 44
0.0
176
     0
173
     0
176
     0
1001
ACAD
1000
AcDbSavedByObjectVersion
1070
     0
  0
VISUALSTYLE
  5
D2
102
{ACAD_XDICTIONARY
360
271
102
}
102
{ACAD_REACTORS
330
C3
102
}
330
C3
100
AcDbVisualStyle
  2
Facepattern
 70
    15
177
     2
291
     1
 71
     2
176
     1
 72
     2
176
     1
 73
     0
176
     1
 90
        0
176
     1
 40
0.6
176
     1
 41
30.0
176
     1
 63
     7
421
 16777215
176
     1
 74
     1
176
     1
 91
        4
176
     1
 64
     7
176
     1
 65
   257
176
     1
 75
     1
176
     1
175
     1
176
     1
 42
1.0
176
     1
 92
        8
176
     1
 66
     7
176
     1
 43
1.0
176
     1
 76
     1
176
     1
 77
     6
176
     1
 78
     2
176
     1
 67
     7
176
     1
 79
     5
176
     1
170
     0
176
     1
171
     0
176
     1
290
     0
176
     1
 93
        1
176
     1
 44
0.0
176
     1
173
     0
176
     1
1001
ACAD
1000
AcDbSavedByObjectVersion
1070
     0
  0
VISUALSTYLE
  5
C4
102
{ACAD_XDICTIONARY
360
255
102
}
102
{ACAD_REACTORS
330
C3
102
}
330
C3
100
AcDbVisualStyle
  2
Flat
 70
     0
177
     2
291
     1
 71
     2
176
     1
 72
     1
176
     1
 73
     1
176
     1
 90
        2
176
     1
 40
0.6
176
     1
 41
30.0
176
     1
 63
     7
421
 16777215
176
     1
 74
     0
176
     1
 91
        0
176
     1
 64
     7
176
     1
 65
   257
176
     1
 75
     1
176
     1
175
     1
176
     1
 42
1.0
176
     1
 92
        8
176
     1
 66
     7
176
     1
 43
1.0
176
     1
 76
     1
176
     1
 77
     6
176
     1
 78
     2
176
     1
 67
     7
176
     1
 79
     5
176
     1
170
     0
176
     1
171
     0
176
     1
290
     0
176
     1
 93
       13
176
     1
 44
0.0
176
     1
173
     0
176
     1
1001
ACAD
1000
AcDbSavedByObjectVersion
1070
     0
  0
VISUALSTYLE
  5
C5
102
{ACAD_XDICTIONARY
360
257
102
}
102
{ACAD_REACTORS
330
C3
102
}
330
C3
100
AcDbVisualStyle
  2
FlatWithEdges
 70
     1
177
     2
291
     1
 71
     2
176
     1
 72
     1
176
     1
 73
     1
176
     1
 90
        2
176
     1
 40
0.6
176
     1
 41
30.0
176
     1
 63
     7
421
 16777215
176
     1
 74
     1
176
     1
 91
        0
176
     1
 64
     7
176
     1
 65
   257
176
     1
 75
     1
176
     1
175
     1
176
     1
 42
1.0
176
     1
 92
        0
176
     1
 66
   257
176
     1
 43
1.0
176
     1
 76
     1
176
     1
 77
     6
176
     1
 78
     2
176
     1
 67
     7
176
     1
 79
     5
176
     1
170
     0
176
     1
171
     0
176
     1
290
     0
176
     1
 93
       13
176
     1
 44
0.0
176
     1
173
     0
176
     1
1001
ACAD
1000
AcDbSavedByObjectVersion
1070
     0
  0
VISUALSTYLE
  5
C6
102
{ACAD_XDICTIONARY
360
259
102
}
102
{ACAD_REACTORS
330
C3
102
}
330
C3
100
AcDbVisualStyle
  2
Gouraud
 70
     2
177
     2
291
     1
 71
     2
176
     1
 72
     2
176
     1
 73
     1
176
     1
 90
        2
176
     1
 40
0.6
176
     1
 41
30.0
176
     1
 63
     7
421
 16777215
176
     1
 74
     0
176
     1
 91
        0
176
     1
 64
     7
176
     1
 65
   257
176
     1
 75
     1
176
     1
175
     1
176
     1
 42
1.0
176
     1
 92
        0
176
     1
 66
     7
176
     1
 43
1.0
176
     1
 76
     1
176
     1
 77
     6
176
     1
 78
     2
176
     1
 67
     7
176
     1
 79
     5
176
     1
170
     0
176
     1
171
     0
176
     1
290
     0
176
     1
 93
       13
176
     1
 44
0.0
176
     1
173
     0
176
     1
1001
ACAD
1000
AcDbSavedByObjectVersion
1070
     0
  0
VISUALSTYLE
  5
C7
102
{ACAD_XDICTIONARY
360
25B
102
}
102
{ACAD_REACTORS
330
C3
102
}
330
C3
100
AcDbVisualStyle
  2
GouraudWithEdges
 70
     3
177
     2
291
     1
 71
     2
176
     1
 72
     2
176
     1
 73
     1
176
     1
 90
        2
176
     1
 40
0.6
176
     1
 41
30.0
176
     1
 63
     7
421
 16777215
176
     1
 74
     1
176
     1
 91
        0
176
     1
 64
     7
176
     1
 65
   257
176
     1
 75
     1
176
     1
175
     1
176
     1
 42
1.0
176
     1
 92
        0
176
     1
 66
   257
176
     1
 43
1.0
176
     1
 76
     1
176
     1
 77
     6
176
     1
 78
     2
176
     1
 67
     7
176
     1
 79
     5
176
     1
170
     0
176
     1
171
     0
176
     1
290
     0
176
     1
 93
       13
176
     1
 44
0.0
176
     1
173
     0
176
     1
1001
ACAD
1000
AcDbSavedByObjectVersion
1070
     0
  0
VISUALSTYLE
  5
CB
102
{ACAD_XDICTIONARY
360
263
102
}
102
{ACAD_REACTORS
330
C3
102
}
330
C3
100
AcDbVisualStyle
  2
Hidden
 70
     6
177
     2
291
     0
 71
     1
176
     1
 72
     2
176
     1
 73
     2
176
     1
 90
        0
176
     1
 40
0.6
176
     1
 41
30.0
176
     1
 63
     7
421
 16777215
176
     1
 74
     2
176
     1
 91
        2
176
     1
 64
     7
176
     1
 65
   257
176
     1
 75
     2
176
     1
175
     1
176
     1
 42
40.0
176
     1
 92
        0
176
     1
 66
   257
176
     1
 43
1.0
176
     1
 76
     1
176
     1
 77
     6
176
     1
 78
     2
176
     1
 67
     7
176
     1
 79
     3
176
     1
170
     0
176
     1
171
     0
176
     1
290
     0
176
     1
 93
        1
176
     1
 44
0.0
176
     1
173
     0
176
     1
1001
ACAD
1000
AcDbSavedByObjectVersion
1070
     0
  0
VISUALSTYLE
  5
D9
102
{ACAD_XDICTIONARY
360
27F
102
}
102
{ACAD_REACTORS
330
C3
102
}
330
C3
100
AcDbVisualStyle
  2
JitterOff
 70
    20
177
     2
291
     1
 71
     2
176
     0
 72
     2
176
     0
 73
     0
176
     0
 90
        0
176
     0
 40
0.6
176
     0
 41
30.0
176
     0
 63
     7
421
 16777215
176
     0
 74
     1
176
     0
 91
        4
176
     0
 64
     7
176
     0
 65
   257
176
     0
 75
     1
176
     0
175
     1
176
     0
 42
1.0
176
     0
 92
       10
176
     2
 66
     7
176
     0
 43
1.0
176
     0
 76
     1
176
     0
 77
     6
176
     0
 78
     2
176
     0
 67
     7
176
     0
 79
     5
176
     0
170
     0
176
     0
171
     0
176
     0
290
     0
176
     0
 93
        1
176
     0
 44
0.0
176
     0
173
     0
176
     0
1001
ACAD
1000
AcDbSavedByObjectVersion
1070
     0
  0
VISUALSTYLE
  5
D1
102
{ACAD_XDICTIONARY
360
26F
102
}
102
{ACAD_REACTORS
330
C3
102
}
330
C3
100
AcDbVisualStyle
  2
Linepattern
 70
    14
177
     2
291
     1
 71
     2
176
     1
 72
     2
176
     1
 73
     0
176
     1
 90
        0
176
     1
 40
0.6
176
     1
 41
30.0
176
     1
 63
     7
421
 16777215
176
     1
 74
     1
176
     1
 91
        4
176
     1
 64
     7
176
     1
 65
   257
176
     1
 75
     7
176
     1
175
     7
176
     1
 42
1.0
176
     1
 92
        8
176
     1
 66
     7
176
     1
 43
1.0
176
     1
 76
     1
176
     1
 77
     6
176
     1
 78
     2
176
     1
 67
     7
176
     1
 79
     5
176
     1
170
     0
176
     1
171
     0
176
     1
290
     0
176
     1
 93
        1
176
     1
 44
0.0
176
     1
173
     0
176
     1
1001
ACAD
1000
AcDbSavedByObjectVersion
1070
     0
  0
VISUALSTYLE
  5
DA
102
{ACAD_XDICTIONARY
360
281
102
}
102
{ACAD_REACTORS
330
C3
102
}
330
C3
100
AcDbVisualStyle
  2
OverhangOff
 70
    21
177
     2
291
     1
 71
     2
176
     0
 72
     2
176
     0
 73
     0
176
     0
 90
        0
176
     0
 40
0.6
176
     0
 41
30.0
176
     0
 63
     7
421
 16777215
176
     0
 74
     1
176
     0
 91
        4
176
     0
 64
     7
176
     0
 65
   257
176
     0
 75
     1
176
     0
175
     1
176
     0
 42
1.0
176
     0
 92
        9
176
     2
 66
     7
176
     0
 43
1.0
176
     0
 76
     1
176
     0
 77
     6
176
     0
 78
     2
176
     0
 67
     7
176
     0
 79
     5
176
     0
170
     0
176
     0
171
     0
176
     0
290
     0
176
     0
 93
        1
176
     0
 44
0.0
176
     0
173
     0
176
     0
1001
ACAD
1000
AcDbSavedByObjectVersion
1070
     0
  0
VISUALSTYLE
  5
CD
102
{ACAD_XDICTIONARY
360
267
102
}
102
{ACAD_REACTORS
330
C3
102
}
330
C3
100
AcDbVisualStyle
  2
Realistic
 70
     8
177
     2
291
     0
 71
     2
176
     1
 72
     3
176
     1
 73
     0
176
     1
 90
        2
176
     1
 40
0.6
176
     1
 41
30.0
176
     1
 63
     7
421
 16777215
176
     1
 74
     0
176
     1
 91
        0
176
     1
 64
     7
176
     1
 65
   257
176
     1
 75
     1
176
     1
175
     1
176
     1
 42
1.0
176
     1
 92
        8
176
     1
 66
   257
176
     1
 43
1.0
176
     1
 76
     1
176
     1
 77
     6
176
     1
 78
     2
176
     1
 67
     7
176
     1
 79
     3
176
     1
170
     0
176
     1
171
     0
176
     1
290
     0
176
     1
 93
       13
176
     1
 44
0.0
176
     1
173
     0
176
     1
1001
ACAD
1000
AcDbSavedByObjectVersion
1070
     0
  0
VISUALSTYLE
  5
D8
102
{ACAD_XDICTIONARY
360
27D
102
}
102
{ACAD_REACTORS
330
C3
102
}
330
C3
100
AcDbVisualStyle
  2
Shaded
 70
    27
177
     2
291
     0
 71
     2
176
     1
 72
     2
176
     1
 73
     1
176
     1
 90
        2
176
     1
 40
0.6
176
     1
 41
30.0
176
     1
 63
     7
421
 16777215
176
     1
 74
     0
176
     1
 91
        4
176
     1
 64
     7
176
     1
 65
   257
176
     1
 75
     1
176
     1
175
     1
176
     1
 42
1.0
176
     1
 92
        8
176
     1
 66
   257
176
     1
 43
1.0
176
     1
 76
     1
176
     1
 77
     6
176
     1
 78
     2
176
     1
 67
     8
425
  7895160
176
     1
 79
     3
176
     1
170
     0
176
     1
171
     0
176
     1
290
     0
176
     1
 93
        5
176
     1
 44
0.0
176
     1
173
     0
176
     1
1001
ACAD
1000
AcDbSavedByObjectVersion
1070
     0
  0
VISUALSTYLE
  5
D7
102
{ACAD_XDICTIONARY
360
27B
102
}
102
{ACAD_REACTORS
330
C3
102
}
330
C3
100
AcDbVisualStyle
  2
Shaded with edges
 70
    26
177
     2
291
     0
 71
     2
176
     1
 72
     2
176
     1
 73
     1
176
     1
 90
        2
176
     1
 40
0.6
176
     1
 41
30.0
176
     1
 63
     7
421
 16777215
176
     1
 74
     1
176
     1
 91
       10
176
     1
 64
     7
176
     1
 65
   257
176
     1
 75
     2
176
     1
175
     1
176
     1
 42
1.0
176
     1
 92
        8
176
     1
 66
   257
176
     1
 43
1.0
176
     1
 76
     1
176
     1
 77
     6
176
     1
 78
     2
176
     1
 67
     7
176
     1
 79
     3
176
     1
170
     0
176
     1
171
     0
176
     1
290
     0
176
     1
 93
        5
176
     1
 44
0.0
176
     1
173
     0
176
     1
1001
ACAD
1000
AcDbSavedByObjectVersion
1070
     0
  0
VISUALSTYLE
  5
D4
102
{ACAD_XDICTIONARY
360
275
102
}
102
{ACAD_REACTORS
330
C3
102
}
330
C3
100
AcDbVisualStyle
  2
Shades of Gray
 70
    23
177
     2
291
     0
 71
     2
176
     1
 72
     2
176
     1
 73
     3
176
     1
 90
        0
176
     1
 40
0.6
176
     1
 41
30.0
176
     1
 63
     7
421
 16777215
176
     1
 74
     2
176
     1
 91
        2
176
     1
 64
     7
176
     1
 65
     7
176
     1
 75
     1
176
     1
175
     1
176
     1
 42
40.0
176
     1
 92
        8
176
     1
 66
     7
176
     1
 43
1.0
176
     1
 76
     1
176
     1
 77
     6
176
     1
 78
     2
176
     1
 67
     7
176
     1
 79
     3
176
     1
170
     0
176
     1
171
     0
176
     1
290
     0
176
     1
 93
        1
176
     1
 44
0.0
176
     1
173
     0
176
     1
1001
ACAD
1000
AcDbSavedByObjectVersion
1070
     0
  0
VISUALSTYLE
  5
D5
102
{ACAD_XDICTIONARY
360
277
102
}
102
{ACAD_REACTORS
330
C3
102
}
330
C3
100
AcDbVisualStyle
  2
Sketchy
 70
    24
177
     2
291
     0
 71
     1
176
     1
 72
     2
176
     1
 73
     2
176
     1
 90
        0
176
     1
 40
0.6
176
     1
 41
30.0
176
     1
 63
     7
421
 16777215
176
     1
 74
     2
176
     1
 91
        2
176
     1
 64
     7
176
     1
 65
     7
176
     1
 75
     1
176
     1
175
     1
176
     1
 42
40.0
176
     1
 92
       11
176
     1
 66
     7
176
     1
 43
1.0
176
     1
 76
     1
176
     1
 77
     6
176
     1
 78
     2
176
     1
 67
     7
176
     1
 79
     6
176
     1
170
     0
176
     1
171
     0
176
     1
290
     0
176
     1
 93
        1
176
     1
 44
0.0
176
     1
173
     0
176
     1
1001
ACAD
1000
AcDbSavedByObjectVersion
1070
     0
  0
VISUALSTYLE
  5
D0
102
{ACAD_XDICTIONARY
360
26D
102
}
102
{ACAD_REACTORS
330
C3
102
}
330
C3
100
AcDbVisualStyle
  2
Thicken
 70
    13
177
     2
291
     1
 71
     2
176
     1
 72
     2
176
     1
 73
     0
176
     1
 90
        0
176
     1
 40
0.6
176
     1
 41
30.0
176
     1
 63
     7
421
 16777215
176
     1
 74
     1
176
     1
 91
        4
176
     1
 64
     7
176
     1
 65
   257
176
     1
 75
     1
176
     1
175
     1
176
     1
 42
1.0
176
     1
 92
       12
176
     1
 66
     7
176
     1
 43
1.0
176
     1
 76
     1
176
     1
 77
     6
176
     1
 78
     2
176
     1
 67
     7
176
     1
 79
     5
176
     1
170
     0
176
     1
171
     0
176
     1
290
     0
176
     1
 93
        1
176
     1
 44
0.0
176
     1
173
     0
176
     1
1001
ACAD
1000
AcDbSavedByObjectVersion
1070
     0
  0
VISUALSTYLE
  5
CA
102
{ACAD_XDICTIONARY
360
261
102
}
102
{ACAD_REACTORS
330
C3
102
}
330
C3
100
AcDbVisualStyle
  2
Wireframe
 70
     5
177
     2
291
     0
 71
     0
176
     1
 72
     2
176
     1
 73
     0
176
     1
 90
        0
176
     1
 40
0.6
176
     1
 41
30.0
176
     1
 63
     7
421
 16777215
176
     1
 74
     1
176
     1
 91
        4
176
     1
 64
     7
176
     1
 65
   257
176
     1
 75
     1
176
     1
175
     1
176
     1
 42
1.0
176
     1
 92
        0
176
     1
 66
   257
176
     1
 43
1.0
176
     1
 76
     1
176
     1
 77
     6
176
     1
 78
     2
176
     1
 67
     7
176
     1
 79
     3
176
     1
170
     0
176
     1
171
     0
176
     1
290
     0
176
     1
 93
        1
176
     1
 44
0.0
176
     1
173
     0
176
     1
1001
ACAD
1000
AcDbSavedByObjectVersion
1070
     0
  0
VISUALSTYLE
  5
D6
102
{ACAD_XDICTIONARY
360
279
102
}
102
{ACAD_REACTORS
330
C3
102
}
330
C3
100
AcDbVisualStyle
  2
X-Ray
 70
    25
177
     2
291
     0
 71
     2
176
     1
 72
     2
176
     1
 73
     1
176
     1
 90
        1
176
     1
 40
0.5
176
     1
 41
30.0
176
     1
 63
     7
421
 16777215
176
     1
 74
     1
176
     1
 91
        0
176
     1
 64
     7
176
     1
 65
   257
176
     1
 75
     1
176
     1
175
     1
176
     1
 42
1.0
176
     1
 92
        8
176
     1
 66
     7
176
     1
 43
1.0
176
     1
 76
     1
176
     1
 77
     6
176
     1
 78
     2
176
     1
 67
     7
176
     1
 79
     3
176
     1
170
     0
176
     1
171
     0
176
     1
290
     0
176
     1
 93
       13
176
     1
 44
0.0
176
     1
173
     0
176
     1
1001
ACAD
1000
AcDbSavedByObjectVersion
1070
     0
  0
DICTIONARYVAR
  5
24C
102
{ACAD_REACTORS
330
246
102
}
330
246
100
DictionaryVariables
280
     0
  1
1:1
  0
DICTIONARYVAR
  5
248
102
{ACAD_REACTORS
330
246
102
}
330
246
100
DictionaryVariables
280
     0
  1
STANDARD
  0
DICTIONARYVAR
  5
247
102
{ACAD_REACTORS
330
246
102
}
330
246
100
DictionaryVariables
280
     0
  1
STANDARD
  0
DICTIONARYVAR
  5
249
102
{ACAD_REACTORS
330
246
102
}
330
246
100
DictionaryVariables
280
     0
  1
Imperial24
  0
DICTIONARYVAR
  5
24A
102
{ACAD_REACTORS
330
246
102
}
330
246
100
DictionaryVariables
280
     0
  1
Imperial24
  0
DICTIONARYVAR
  5
24E
102
{ACAD_REACTORS
330
246
102
}
330
246
100
DictionaryVariables
280
     0
  1
1
  0
DICTIONARYVAR
  5
24F
102
{ACAD_REACTORS
330
246
102
}
330
246
100
DictionaryVariables
280
     0
  1
15
  0
DICTIONARYVAR
  5
24D
102
{ACAD_REACTORS
330
246
102
}
330
246
100
DictionaryVariables
280
     0
  1
0
  0
DICTIONARYVAR
  5
24B
102
{ACAD_REACTORS
330
246
102
}
330
246
100
DictionaryVariables
280
     0
  1
0
  0
DICTIONARY
  5
289
330
F6
100
AcDbDictionary
280
     1
281
     1
  3
ACAD_XREC_ROUNDTRIP
360
28A
  0
DICTIONARY
  5
B4
330
B3
100
AcDbDictionary
280
     1
281
     1
  3
BUMPTILE
360
B6
  3
DIFFUSETILE
360
B5
  3
OPACITYTILE
360
B9
  3
REFLECTIONTILE
360
B8
  3
REFRACTIONTILE
360
BA
  3
SPECULARTILE
360
B7
  0
DICTIONARY
  5
AC
330
AB
100
AcDbDictionary
280
     1
281
     1
  3
BUMPTILE
360
AE
  3
DIFFUSETILE
360
AD
  3
OPACITYTILE
360
B1
  3
REFLECTIONTILE
360
B0
  3
REFRACTIONTILE
360
B2
  3
SPECULARTILE
360
AF
  0
DICTIONARY
  5
BC
330
BB
100
AcDbDictionary
280
     1
281
     1
  3
BUMPTILE
360
BE
  3
DIFFUSETILE
360
BD
  3
OPACITYTILE
360
C1
  3
REFLECTIONTILE
360
C0
  3
REFRACTIONTILE
360
C2
  3
SPECULARTILE
360
BF
  0
DICTIONARY
  5
285
330
F2
100
AcDbDictionary
280
     1
281
     1
  3
ACAD_XREC_ROUNDTRIP
360
286
  0
DICTIONARY
  5
287
330
F4
100
AcDbDictionary
280
     1
281
     1
  3
ACAD_XREC_ROUNDTRIP
360
288
  0
DICTIONARY
  5
250
330
DE
100
AcDbDictionary
280
     1
281
     1
  3
ACAD_ROUNDTRIP_2008_TABLESTYLE_CELLSTYLEMAP
360
251
  0
DICTIONARY
  5
25F
330
C9
100
AcDbDictionary
280
     1
281
     1
  3
ACAD_XREC_ROUNDTRIP
360
260
  0
DICTIONARY
  5
25D
330
C8
100
AcDbDictionary
280
     1
281
     1
  3
ACAD_XREC_ROUNDTRIP
360
25E
  0
DICTIONARY
  5
26B
330
CF
100
AcDbDictionary
280
     1
281
     1
  3
ACAD_XREC_ROUNDTRIP
360
26C
  0
DICTIONARY
  5
273
330
D3
100
AcDbDictionary
280
     1
281
     1
  3
ACAD_XREC_ROUNDTRIP
360
274
  0
DICTIONARY
  5
265
330
CC
100
AcDbDictionary
280
     1
281
     1
  3
ACAD_XREC_ROUNDTRIP
360
266
  0
DICTIONARY
  5
269
330
CE
100
AcDbDictionary
280
     1
281
     1
  3
ACAD_XREC_ROUNDTRIP
360
26A
  0
DICTIONARY
  5
283
330
DB
100
AcDbDictionary
280
     1
281
     1
  3
ACAD_XREC_ROUNDTRIP
360
284
  0
DICTIONARY
  5
271
330
D2
100
AcDbDictionary
280
     1
281
     1
  3
ACAD_XREC_ROUNDTRIP
360
272
  0
DICTIONARY
  5
255
330
C4
100
AcDbDictionary
280
     1
281
     1
  3
ACAD_XREC_ROUNDTRIP
360
256
  0
DICTIONARY
  5
257
330
C5
100
AcDbDictionary
280
     1
281
     1
  3
ACAD_XREC_ROUNDTRIP
360
258
  0
DICTIONARY
  5
259
330
C6
100
AcDbDictionary
280
     1
281
     1
  3
ACAD_XREC_ROUNDTRIP
360
25A
  0
DICTIONARY
  5
25B
330
C7
100
AcDbDictionary
280
     1
281
     1
  3
ACAD_XREC_ROUNDTRIP
360
25C
  0
DICTIONARY
  5
263
330
CB
100
AcDbDictionary
280
     1
281
     1
  3
ACAD_XREC_ROUNDTRIP
360
264
  0
DICTIONARY
  5
27F
330
D9
100
AcDbDictionary
280
     1
281
     1
  3
ACAD_XREC_ROUNDTRIP
360
280
  0
DICTIONARY
  5
26F
330
D1
100
AcDbDictionary
280
     1
281
     1
  3
ACAD_XREC_ROUNDTRIP
360
270
  0
DICTIONARY
  5
281
330
DA
100
AcDbDictionary
280
     1
281
     1
  3
ACAD_XREC_ROUNDTRIP
360
282
  0
DICTIONARY
  5
267
330
CD
100
AcDbDictionary
280
     1
281
     1
  3
ACAD_XREC_ROUNDTRIP
360
268
  0
DICTIONARY
  5
27D
330
D8
100
AcDbDictionary
280
     1
281
     1
  3
ACAD_XREC_ROUNDTRIP
360
27E
  0
DICTIONARY
  5
27B
330
D7
100
AcDbDictionary
280
     1
281
     1
  3
ACAD_XREC_ROUNDTRIP
360
27C
  0
DICTIONARY
  5
275
330
D4
100
AcDbDictionary
280
     1
281
     1
  3
ACAD_XREC_ROUNDTRIP
360
276
  0
DICTIONARY
  5
277
330
D5
100
AcDbDictionary
280
     1
281
     1
  3
ACAD_XREC_ROUNDTRIP
360
278
  0
DICTIONARY
  5
26D
330
D0
100
AcDbDictionary
280
     1
281
     1
  3
ACAD_XREC_ROUNDTRIP
360
26E
  0
DICTIONARY
  5
261
330
CA
100
AcDbDictionary
280
     1
281
     1
  3
ACAD_XREC_ROUNDTRIP
360
262
  0
DICTIONARY
  5
279
330
D6
100
AcDbDictionary
280
     1
281
     1
  3
ACAD_XREC_ROUNDTRIP
360
27A
  0
XRECORD
  5
28A
102
{ACAD_REACTORS
330
289
102
}
330
289
100
AcDbXrecord
280
     1
102
DISPLAYNAME
  1
Imperial24
102
FLAGS
 90
        0
  0
XRECORD
  5
B6
102
{ACAD_REACTORS
330
B4
102
}
330
B4
100
AcDbXrecord
280
     1
270
     1
271
     1
  0
XRECORD
  5
B5
102
{ACAD_REACTORS
330
B4
102
}
330
B4
100
AcDbXrecord
280
     1
270
     1
271
     1
  0
XRECORD
  5
B9
102
{ACAD_REACTORS
330
B4
102
}
330
B4
100
AcDbXrecord
280
     1
270
     1
271
     1
  0
XRECORD
  5
B8
102
{ACAD_REACTORS
330
B4
102
}
330
B4
100
AcDbXrecord
280
     1
270
     1
271
     1
  0
XRECORD
  5
BA
102
{ACAD_REACTORS
330
B4
102
}
330
B4
100
AcDbXrecord
280
     1
270
     1
271
     1
  0
XRECORD
  5
B7
102
{ACAD_REACTORS
330
B4
102
}
330
B4
100
AcDbXrecord
280
     1
270
     1
271
     1
  0
XRECORD
  5
AE
102
{ACAD_REACTORS
330
AC
102
}
330
AC
100
AcDbXrecord
280
     1
270
     1
271
     1
  0
XRECORD
  5
AD
102
{ACAD_REACTORS
330
AC
102
}
330
AC
100
AcDbXrecord
280
     1
270
     1
271
     1
  0
XRECORD
  5
B1
102
{ACAD_REACTORS
330
AC
102
}
330
AC
100
AcDbXrecord
280
     1
270
     1
271
     1
  0
XRECORD
  5
B0
102
{ACAD_REACTORS
330
AC
102
}
330
AC
100
AcDbXrecord
280
     1
270
     1
271
     1
  0
XRECORD
  5
B2
102
{ACAD_REACTORS
330
AC
102
}
330
AC
100
AcDbXrecord
280
     1
270
     1
271
     1
  0
XRECORD
  5
AF
102
{ACAD_REACTORS
330
AC
102
}
330
AC
100
AcDbXrecord
280
     1
270
     1
271
     1
  0
XRECORD
  5
BE
102
{ACAD_REACTORS
330
BC
102
}
330
BC
100
AcDbXrecord
280
     1
270
     1
271
     1
  0
XRECORD
  5
BD
102
{ACAD_REACTORS
330
BC
102
}
330
BC
100
AcDbXrecord
280
     1
270
     1
271
     1
  0
XRECORD
  5
C1
102
{ACAD_REACTORS
330
BC
102
}
330
BC
100
AcDbXrecord
280
     1
270
     1
271
     1
  0
XRECORD
  5
C0
102
{ACAD_REACTORS
330
BC
102
}
330
BC
100
AcDbXrecord
280
     1
270
     1
271
     1
  0
XRECORD
  5
C2
102
{ACAD_REACTORS
330
BC
102
}
330
BC
100
AcDbXrecord
280
     1
270
     1
271
     1
  0
XRECORD
  5
BF
102
{ACAD_REACTORS
330
BC
102
}
330
BC
100
AcDbXrecord
280
     1
270
     1
271
     1
  0
XRECORD
  5
286
102
{ACAD_REACTORS
330
285
102
}
330
285
100
AcDbXrecord
280
     1
102
ACAD_ROUNDTRIP_2012_MLEADER_STYLE
298
     1
  0
XRECORD
  5
288
102
{ACAD_REACTORS
330
287
102
}
330
287
100
AcDbXrecord
280
     1
102
DISPLAYNAME
  1
Imperial24
102
FLAGS
 90
        0
  0
CELLSTYLEMAP
  5
251
102
{ACAD_REACTORS
330
250
102
}
330
250
100
AcDbCellStyleMap
 90
        3
300
CELLSTYLE
  1
TABLEFORMAT_BEGIN
 90
        5
170
     1
 91
        0
 92
    32768
 62
   257
 93
        1
300
CONTENTFORMAT
  1
CONTENTFORMAT_BEGIN
 90
        0
 91
        0
 92
      512
 93
        0
300

 40
0.0
140
1.0
 94
        5
 62
     0
340
11
144
0.25
309
CONTENTFORMAT_END
171
     0
 94
        0
309
TABLEFORMAT_END
  1
CELLSTYLE_BEGIN
 90
        1
 91
        1
300
_TITLE
309
CELLSTYLE_END
300
CELLSTYLE
  1
TABLEFORMAT_BEGIN
 90
        5
170
     1
 91
        0
 92
        0
 62
   257
 93
        1
300
CONTENTFORMAT
  1
CONTENTFORMAT_BEGIN
 90
        0
 91
        0
 92
      512
 93
        0
300

 40
0.0
140
1.0
 94
        5
 62
     0
340
11
144
0.18
309
CONTENTFORMAT_END
171
     0
 94
        0
309
TABLEFORMAT_END
  1
CELLSTYLE_BEGIN
 90
        2
 91
        1
300
_HEADER
309
CELLSTYLE_END
300
CELLSTYLE
  1
TABLEFORMAT_BEGIN
 90
        5
170
     1
 91
        0
 92
        0
 62
   257
 93
        1
300
CONTENTFORMAT
  1
CONTENTFORMAT_BEGIN
 90
        0
 91
        0
 92
      512
 93
        0
300

 40
0.0
140
1.0
 94
        2
 62
     0
340
11
144
0.18
309
CONTENTFORMAT_END
171
     0
 94
        0
309
TABLEFORMAT_END
  1
CELLSTYLE_BEGIN
 90
        3
 91
        2
300
_DATA
309
CELLSTYLE_END
  0
XRECORD
  5
260
102
{ACAD_REACTORS
330
25F
102
}
330
25F
100
AcDbXrecord
280
     1
102
RTVSPost2010Prop28
280
     1
102
RTVSPost2010PropOp28
 70
     1
102
RTVSPost2010Prop29
280
     1
102
RTVSPost2010PropOp29
 70
     1
102
RTVSPost2010Prop30
280
     0
102
RTVSPost2010PropOp30
 70
     1
102
RTVSPost2010Prop31
280
     0
102
RTVSPost2010PropOp31
 70
     1
102
RTVSPost2010Prop32
280
     0
102
RTVSPost2010PropOp32
 70
     1
102
RTVSPost2010Prop33
280
     0
102
RTVSPost2010PropOp33
 70
     1
102
RTVSPost2010Prop34
280
     0
102
RTVSPost2010PropOp34
 70
     1
102
RTVSPost2010Prop35
280
     0
102
RTVSPost2010PropOp35
 70
     1
102
RTVSPost2010Prop36
280
     0
102
RTVSPost2010PropOp36
 70
     1
102
RTVSPost2010Prop37
 90
       50
102
RTVSPost2010PropOp37
 70
     1
102
RTVSPost2010Prop38
140
0.0
102
RTVSPost2010PropOp38
 70
     1
102
RTVSPost2010Prop39
140
1.0
102
RTVSPost2010PropOp39
 70
     1
102
RTVSPost2010Prop40
 90
        0
102
RTVSPost2010PropOp40
 70
     1
102
RTVSPost2010Prop41ColorIndex
 90
       18
102
RTVSPost2010Prop41ColorRGB
 90
        0
102
RTVSPost2010PropOp41
 70
     1
102
RTVSPost2010Prop42
 90
       50
102
RTVSPost2010PropOp42
 70
     1
102
RTVSPost2010Prop43
 90
        3
102
RTVSPost2010PropOp43
 70
     1
102
RTVSPost2010Prop44ColorIndex
 90
        5
102
RTVSPost2010Prop44ColorRGB
 90
      255
102
RTVSPost2010PropOp44
 70
     1
102
RTVSPost2010Prop45
280
     0
102
RTVSPost2010PropOp45
 70
     1
102
RTVSPost2010Prop46
 90
       50
102
RTVSPost2010PropOp46
 70
     1
102
RTVSPost2010Prop47
 90
       50
102
RTVSPost2010PropOp47
 70
     1
102
RTVSPost2010Prop48
 90
       50
102
RTVSPost2010PropOp48
 70
     1
102
RTVSPost2010Prop49
280
     0
102
RTVSPost2010PropOp49
 70
     1
102
RTVSPost2010Prop50
 90
       50
102
RTVSPost2010PropOp50
 70
     1
102
RTVSPost2010Prop51ColorIndex
 90
      256
102
RTVSPost2010Prop51ColorRGB
 90
-16777216
102
RTVSPost2010PropOp51
 70
     0
102
RTVSPost2010Prop52
140
1.0
102
RTVSPost2010PropOp52
 70
     0
102
RTVSPost2010Prop53
 90
        2
102
RTVSPost2010PropOp53
 70
     1
102
RTVSPost2010Prop54
  1
strokes_ogs.tif
102
RTVSPost2010PropOp54
 70
     1
102
RTVSPost2010Prop55
280
     0
102
RTVSPost2010PropOp55
 70
     1
102
RTVSPost2010Prop56
140
1.0
102
RTVSPost2010PropOp56
 70
     1
102
RTVSPost2010Prop57
140
1.0
102
RTVSPost2010PropOp57
 70
     1
  0
XRECORD
  5
25E
102
{ACAD_REACTORS
330
25D
102
}
330
25D
100
AcDbXrecord
280
     1
102
RTVSPost2010Prop28
280
     0
102
RTVSPost2010PropOp28
 70
     1
102
RTVSPost2010Prop29
280
     1
102
RTVSPost2010PropOp29
 70
     1
102
RTVSPost2010Prop30
280
     1
102
RTVSPost2010PropOp30
 70
     1
102
RTVSPost2010Prop31
280
     0
102
RTVSPost2010PropOp31
 70
     1
102
RTVSPost2010Prop32
280
     0
102
RTVSPost2010PropOp32
 70
     1
102
RTVSPost2010Prop33
280
     0
102
RTVSPost2010PropOp33
 70
     1
102
RTVSPost2010Prop34
280
     0
102
RTVSPost2010PropOp34
 70
     1
102
RTVSPost2010Prop35
280
     0
102
RTVSPost2010PropOp35
 70
     1
102
RTVSPost2010Prop36
280
     0
102
RTVSPost2010PropOp36
 70
     1
102
RTVSPost2010Prop37
 90
       50
102
RTVSPost2010PropOp37
 70
     1
102
RTVSPost2010Prop38
140
0.0
102
RTVSPost2010PropOp38
 70
     1
102
RTVSPost2010Prop39
140
1.0
102
RTVSPost2010PropOp39
 70
     1
102
RTVSPost2010Prop40
 90
        0
102
RTVSPost2010PropOp40
 70
     1
102
RTVSPost2010Prop41ColorIndex
 90
       18
102
RTVSPost2010Prop41ColorRGB
 90
        0
102
RTVSPost2010PropOp41
 70
     1
102
RTVSPost2010Prop42
 90
       50
102
RTVSPost2010PropOp42
 70
     1
102
RTVSPost2010Prop43
 90
        3
102
RTVSPost2010PropOp43
 70
     1
102
RTVSPost2010Prop44ColorIndex
 90
        5
102
RTVSPost2010Prop44ColorRGB
 90
      255
102
RTVSPost2010PropOp44
 70
     1
102
RTVSPost2010Prop45
280
     0
102
RTVSPost2010PropOp45
 70
     1
102
RTVSPost2010Prop46
 90
       50
102
RTVSPost2010PropOp46
 70
     1
102
RTVSPost2010Prop47
 90
       50
102
RTVSPost2010PropOp47
 70
     1
102
RTVSPost2010Prop48
 90
       50
102
RTVSPost2010PropOp48
 70
     1
102
RTVSPost2010Prop49
280
     0
102
RTVSPost2010PropOp49
 70
     1
102
RTVSPost2010Prop50
 90
       50
102
RTVSPost2010PropOp50
 70
     1
102
RTVSPost2010Prop51ColorIndex
 90
      256
102
RTVSPost2010Prop51ColorRGB
 90
-16777216
102
RTVSPost2010PropOp51
 70
     0
102
RTVSPost2010Prop52
140
1.0
102
RTVSPost2010PropOp52
 70
     0
102
RTVSPost2010Prop53
 90
        2
102
RTVSPost2010PropOp53
 70
     1
102
RTVSPost2010Prop54
  1
strokes_ogs.tif
102
RTVSPost2010PropOp54
 70
     1
102
RTVSPost2010Prop55
280
     0
102
RTVSPost2010PropOp55
 70
     1
102
RTVSPost2010Prop56
140
1.0
102
RTVSPost2010PropOp56
 70
     1
102
RTVSPost2010Prop57
140
1.0
102
RTVSPost2010PropOp57
 70
     1
  0
XRECORD
  5
26C
102
{ACAD_REACTORS
330
26B
102
}
330
26B
100
AcDbXrecord
280
     1
102
RTVSPost2010Prop28
280
     0
102
RTVSPost2010PropOp28
 70
     1
102
RTVSPost2010Prop29
280
     1
102
RTVSPost2010PropOp29
 70
     1
102
RTVSPost2010Prop30
280
     1
102
RTVSPost2010PropOp30
 70
     1
102
RTVSPost2010Prop31
280
     0
102
RTVSPost2010PropOp31
 70
     1
102
RTVSPost2010Prop32
280
     0
102
RTVSPost2010PropOp32
 70
     1
102
RTVSPost2010Prop33
280
     0
102
RTVSPost2010PropOp33
 70
     1
102
RTVSPost2010Prop34
280
     0
102
RTVSPost2010PropOp34
 70
     1
102
RTVSPost2010Prop35
280
     0
102
RTVSPost2010PropOp35
 70
     1
102
RTVSPost2010Prop36
280
     0
102
RTVSPost2010PropOp36
 70
     1
102
RTVSPost2010Prop37
 90
       50
102
RTVSPost2010PropOp37
 70
     1
102
RTVSPost2010Prop38
140
0.0
102
RTVSPost2010PropOp38
 70
     1
102
RTVSPost2010Prop39
140
1.0
102
RTVSPost2010PropOp39
 70
     1
102
RTVSPost2010Prop40
 90
        0
102
RTVSPost2010PropOp40
 70
     1
102
RTVSPost2010Prop41ColorIndex
 90
       18
102
RTVSPost2010Prop41ColorRGB
 90
        0
102
RTVSPost2010PropOp41
 70
     1
102
RTVSPost2010Prop42
 90
       50
102
RTVSPost2010PropOp42
 70
     1
102
RTVSPost2010Prop43
 90
        3
102
RTVSPost2010PropOp43
 70
     1
102
RTVSPost2010Prop44ColorIndex
 90
        5
102
RTVSPost2010Prop44ColorRGB
 90
      255
102
RTVSPost2010PropOp44
 70
     1
102
RTVSPost2010Prop45
280
     0
102
RTVSPost2010PropOp45
 70
     1
102
RTVSPost2010Prop46
 90
       50
102
RTVSPost2010PropOp46
 70
     1
102
RTVSPost2010Prop47
 90
       50
102
RTVSPost2010PropOp47
 70
     1
102
RTVSPost2010Prop48
 90
       50
102
RTVSPost2010PropOp48
 70
     1
102
RTVSPost2010Prop49
280
     0
102
RTVSPost2010PropOp49
 70
     1
102
RTVSPost2010Prop50
 90
       50
102
RTVSPost2010PropOp50
 70
     1
102
RTVSPost2010Prop51ColorIndex
 90
      256
102
RTVSPost2010Prop51ColorRGB
 90
-16777216
102
RTVSPost2010PropOp51
 70
     0
102
RTVSPost2010Prop52
140
1.0
102
RTVSPost2010PropOp52
 70
     0
102
RTVSPost2010Prop53
 90
        2
102
RTVSPost2010PropOp53
 70
     1
102
RTVSPost2010Prop54
  1
strokes_ogs.tif
102
RTVSPost2010PropOp54
 70
     1
102
RTVSPost2010Prop55
280
     0
102
RTVSPost2010PropOp55
 70
     1
102
RTVSPost2010Prop56
140
1.0
102
RTVSPost2010PropOp56
 70
     1
102
RTVSPost2010Prop57
140
1.0
102
RTVSPost2010PropOp57
 70
     1
  0
XRECORD
  5
274
102
{ACAD_REACTORS
330
273
102
}
330
273
100
AcDbXrecord
280
     1
102
RTVSPost2010Prop28
280
     0
102
RTVSPost2010PropOp28
 70
     1
102
RTVSPost2010Prop29
280
     1
102
RTVSPost2010PropOp29
 70
     1
102
RTVSPost2010Prop30
280
     1
102
RTVSPost2010PropOp30
 70
     1
102
RTVSPost2010Prop31
280
     0
102
RTVSPost2010PropOp31
 70
     1
102
RTVSPost2010Prop32
280
     0
102
RTVSPost2010PropOp32
 70
     1
102
RTVSPost2010Prop33
280
     0
102
RTVSPost2010PropOp33
 70
     1
102
RTVSPost2010Prop34
280
     0
102
RTVSPost2010PropOp34
 70
     1
102
RTVSPost2010Prop35
280
     0
102
RTVSPost2010PropOp35
 70
     1
102
RTVSPost2010Prop36
280
     0
102
RTVSPost2010PropOp36
 70
     1
102
RTVSPost2010Prop37
 90
       50
102
RTVSPost2010PropOp37
 70
     1
102
RTVSPost2010Prop38
140
0.0
102
RTVSPost2010PropOp38
 70
     1
102
RTVSPost2010Prop39
140
1.0
102
RTVSPost2010PropOp39
 70
     1
102
RTVSPost2010Prop40
 90
        0
102
RTVSPost2010PropOp40
 70
     1
102
RTVSPost2010Prop41ColorIndex
 90
       18
102
RTVSPost2010Prop41ColorRGB
 90
        0
102
RTVSPost2010PropOp41
 70
     1
102
RTVSPost2010Prop42
 90
       50
102
RTVSPost2010PropOp42
 70
     1
102
RTVSPost2010Prop43
 90
        3
102
RTVSPost2010PropOp43
 70
     1
102
RTVSPost2010Prop44ColorIndex
 90
        5
102
RTVSPost2010Prop44ColorRGB
 90
      255
102
RTVSPost2010PropOp44
 70
     1
102
RTVSPost2010Prop45
280
     0
102
RTVSPost2010PropOp45
 70
     1
102
RTVSPost2010Prop46
 90
       50
102
RTVSPost2010PropOp46
 70
     1
102
RTVSPost2010Prop47
 90
       50
102
RTVSPost2010PropOp47
 70
     1
102
RTVSPost2010Prop48
 90
       50
102
RTVSPost2010PropOp48
 70
     1
102
RTVSPost2010Prop49
280
     0
102
RTVSPost2010PropOp49
 70
     1
102
RTVSPost2010Prop50
 90
       50
102
RTVSPost2010PropOp50
 70
     1
102
RTVSPost2010Prop51ColorIndex
 90
      256
102
RTVSPost2010Prop51ColorRGB
 90
-16777216
102
RTVSPost2010PropOp51
 70
     0
102
RTVSPost2010Prop52
140
1.0
102
RTVSPost2010PropOp52
 70
     0
102
RTVSPost2010Prop53
 90
        2
102
RTVSPost2010PropOp53
 70
     1
102
RTVSPost2010Prop54
  1
strokes_ogs.tif
102
RTVSPost2010PropOp54
 70
     1
102
RTVSPost2010Prop55
280
     0
102
RTVSPost2010PropOp55
 70
     1
102
RTVSPost2010Prop56
140
1.0
102
RTVSPost2010PropOp56
 70
     1
102
RTVSPost2010Prop57
140
1.0
102
RTVSPost2010PropOp57
 70
     1
  0
XRECORD
  5
266
102
{ACAD_REACTORS
330
265
102
}
330
265
100
AcDbXrecord
280
     1
102
RTVSPost2010Prop28
280
     0
102
RTVSPost2010PropOp28
 70
     1
102
RTVSPost2010Prop29
280
     1
102
RTVSPost2010PropOp29
 70
     1
102
RTVSPost2010Prop30
280
     1
102
RTVSPost2010PropOp30
 70
     1
102
RTVSPost2010Prop31
280
     0
102
RTVSPost2010PropOp31
 70
     1
102
RTVSPost2010Prop32
280
     0
102
RTVSPost2010PropOp32
 70
     1
102
RTVSPost2010Prop33
280
     0
102
RTVSPost2010PropOp33
 70
     1
102
RTVSPost2010Prop34
280
     0
102
RTVSPost2010PropOp34
 70
     1
102
RTVSPost2010Prop35
280
     0
102
RTVSPost2010PropOp35
 70
     1
102
RTVSPost2010Prop36
280
     0
102
RTVSPost2010PropOp36
 70
     1
102
RTVSPost2010Prop37
 90
       50
102
RTVSPost2010PropOp37
 70
     1
102
RTVSPost2010Prop38
140
0.0
102
RTVSPost2010PropOp38
 70
     1
102
RTVSPost2010Prop39
140
1.0
102
RTVSPost2010PropOp39
 70
     1
102
RTVSPost2010Prop40
 90
        0
102
RTVSPost2010PropOp40
 70
     1
102
RTVSPost2010Prop41ColorIndex
 90
       18
102
RTVSPost2010Prop41ColorRGB
 90
        0
102
RTVSPost2010PropOp41
 70
     1
102
RTVSPost2010Prop42
 90
       50
102
RTVSPost2010PropOp42
 70
     1
102
RTVSPost2010Prop43
 90
        3
102
RTVSPost2010PropOp43
 70
     1
102
RTVSPost2010Prop44ColorIndex
 90
        5
102
RTVSPost2010Prop44ColorRGB
 90
      255
102
RTVSPost2010PropOp44
 70
     1
102
RTVSPost2010Prop45
280
     0
102
RTVSPost2010PropOp45
 70
     1
102
RTVSPost2010Prop46
 90
       50
102
RTVSPost2010PropOp46
 70
     1
102
RTVSPost2010Prop47
 90
       50
102
RTVSPost2010PropOp47
 70
     1
102
RTVSPost2010Prop48
 90
       50
102
RTVSPost2010PropOp48
 70
     1
102
RTVSPost2010Prop49
280
     0
102
RTVSPost2010PropOp49
 70
     1
102
RTVSPost2010Prop50
 90
       50
102
RTVSPost2010PropOp50
 70
     1
102
RTVSPost2010Prop51ColorIndex
 90
      256
102
RTVSPost2010Prop51ColorRGB
 90
-16777216
102
RTVSPost2010PropOp51
 70
     0
102
RTVSPost2010Prop52
140
1.0
102
RTVSPost2010PropOp52
 70
     0
102
RTVSPost2010Prop53
 90
        2
102
RTVSPost2010PropOp53
 70
     1
102
RTVSPost2010Prop54
  1
strokes_ogs.tif
102
RTVSPost2010PropOp54
 70
     1
102
RTVSPost2010Prop55
280
     0
102
RTVSPost2010PropOp55
 70
     1
102
RTVSPost2010Prop56
140
1.0
102
RTVSPost2010PropOp56
 70
     1
102
RTVSPost2010Prop57
140
1.0
102
RTVSPost2010PropOp57
 70
     1
  0
XRECORD
  5
26A
102
{ACAD_REACTORS
330
269
102
}
330
269
100
AcDbXrecord
280
     1
102
RTVSPost2010Prop28
280
     0
102
RTVSPost2010PropOp28
 70
     1
102
RTVSPost2010Prop29
280
     1
102
RTVSPost2010PropOp29
 70
     1
102
RTVSPost2010Prop30
280
     1
102
RTVSPost2010PropOp30
 70
     1
102
RTVSPost2010Prop31
280
     0
102
RTVSPost2010PropOp31
 70
     1
102
RTVSPost2010Prop32
280
     0
102
RTVSPost2010PropOp32
 70
     1
102
RTVSPost2010Prop33
280
     0
102
RTVSPost2010PropOp33
 70
     1
102
RTVSPost2010Prop34
280
     0
102
RTVSPost2010PropOp34
 70
     1
102
RTVSPost2010Prop35
280
     0
102
RTVSPost2010PropOp35
 70
     1
102
RTVSPost2010Prop36
280
     0
102
RTVSPost2010PropOp36
 70
     1
102
RTVSPost2010Prop37
 90
       50
102
RTVSPost2010PropOp37
 70
     1
102
RTVSPost2010Prop38
140
0.0
102
RTVSPost2010PropOp38
 70
     1
102
RTVSPost2010Prop39
140
1.0
102
RTVSPost2010PropOp39
 70
     1
102
RTVSPost2010Prop40
 90
        0
102
RTVSPost2010PropOp40
 70
     1
102
RTVSPost2010Prop41ColorIndex
 90
       18
102
RTVSPost2010Prop41ColorRGB
 90
        0
102
RTVSPost2010PropOp41
 70
     1
102
RTVSPost2010Prop42
 90
       50
102
RTVSPost2010PropOp42
 70
     1
102
RTVSPost2010Prop43
 90
        3
102
RTVSPost2010PropOp43
 70
     1
102
RTVSPost2010Prop44ColorIndex
 90
        5
102
RTVSPost2010Prop44ColorRGB
 90
      255
102
RTVSPost2010PropOp44
 70
     1
102
RTVSPost2010Prop45
280
     0
102
RTVSPost2010PropOp45
 70
     1
102
RTVSPost2010Prop46
 90
       50
102
RTVSPost2010PropOp46
 70
     1
102
RTVSPost2010Prop47
 90
       50
102
RTVSPost2010PropOp47
 70
     1
102
RTVSPost2010Prop48
 90
       50
102
RTVSPost2010PropOp48
 70
     1
102
RTVSPost2010Prop49
280
     0
102
RTVSPost2010PropOp49
 70
     1
102
RTVSPost2010Prop50
 90
       50
102
RTVSPost2010PropOp50
 70
     1
102
RTVSPost2010Prop51ColorIndex
 90
      256
102
RTVSPost2010Prop51ColorRGB
 90
-16777216
102
RTVSPost2010PropOp51
 70
     0
102
RTVSPost2010Prop52
140
1.0
102
RTVSPost2010PropOp52
 70
     0
102
RTVSPost2010Prop53
 90
        2
102
RTVSPost2010PropOp53
 70
     1
102
RTVSPost2010Prop54
  1
strokes_ogs.tif
102
RTVSPost2010PropOp54
 70
     1
102
RTVSPost2010Prop55
280
     0
102
RTVSPost2010PropOp55
 70
     1
102
RTVSPost2010Prop56
140
1.0
102
RTVSPost2010PropOp56
 70
     1
102
RTVSPost2010Prop57
140
1.0
102
RTVSPost2010PropOp57
 70
     1
  0
XRECORD
  5
284
102
{ACAD_REACTORS
330
283
102
}
330
283
100
AcDbXrecord
280
     1
102
RTVSPost2010Prop28
280
     0
102
RTVSPost2010PropOp28
 70
     0
102
RTVSPost2010Prop29
280
     1
102
RTVSPost2010PropOp29
 70
     0
102
RTVSPost2010Prop30
280
     1
102
RTVSPost2010PropOp30
 70
     0
102
RTVSPost2010Prop31
280
     0
102
RTVSPost2010PropOp31
 70
     0
102
RTVSPost2010Prop32
280
     0
102
RTVSPost2010PropOp32
 70
     0
102
RTVSPost2010Prop33
280
     0
102
RTVSPost2010PropOp33
 70
     0
102
RTVSPost2010Prop34
280
     0
102
RTVSPost2010PropOp34
 70
     0
102
RTVSPost2010Prop35
280
     0
102
RTVSPost2010PropOp35
 70
     0
102
RTVSPost2010Prop36
280
     0
102
RTVSPost2010PropOp36
 70
     0
102
RTVSPost2010Prop37
 90
       50
102
RTVSPost2010PropOp37
 70
     0
102
RTVSPost2010Prop38
140
0.0
102
RTVSPost2010PropOp38
 70
     0
102
RTVSPost2010Prop39
140
1.0
102
RTVSPost2010PropOp39
 70
     0
102
RTVSPost2010Prop40
 90
        0
102
RTVSPost2010PropOp40
 70
     0
102
RTVSPost2010Prop41ColorIndex
 90
       18
102
RTVSPost2010Prop41ColorRGB
 90
        0
102
RTVSPost2010PropOp41
 70
     0
102
RTVSPost2010Prop42
 90
       50
102
RTVSPost2010PropOp42
 70
     0
102
RTVSPost2010Prop43
 90
        3
102
RTVSPost2010PropOp43
 70
     0
102
RTVSPost2010Prop44ColorIndex
 90
        5
102
RTVSPost2010Prop44ColorRGB
 90
      255
102
RTVSPost2010PropOp44
 70
     0
102
RTVSPost2010Prop45
280
     0
102
RTVSPost2010PropOp45
 70
     0
102
RTVSPost2010Prop46
 90
       50
102
RTVSPost2010PropOp46
 70
     0
102
RTVSPost2010Prop47
 90
       50
102
RTVSPost2010PropOp47
 70
     0
102
RTVSPost2010Prop48
 90
       50
102
RTVSPost2010PropOp48
 70
     0
102
RTVSPost2010Prop49
280
     0
102
RTVSPost2010PropOp49
 70
     0
102
RTVSPost2010Prop50
 90
       50
102
RTVSPost2010PropOp50
 70
     0
102
RTVSPost2010Prop51ColorIndex
 90
      256
102
RTVSPost2010Prop51ColorRGB
 90
-16777216
102
RTVSPost2010PropOp51
 70
     0
102
RTVSPost2010Prop52
140
1.0
102
RTVSPost2010PropOp52
 70
     0
102
RTVSPost2010Prop53
 90
        2
102
RTVSPost2010PropOp53
 70
     0
102
RTVSPost2010Prop54
  1
strokes_ogs.tif
102
RTVSPost2010PropOp54
 70
     0
102
RTVSPost2010Prop55
280
     0
102
RTVSPost2010PropOp55
 70
     0
102
RTVSPost2010Prop56
140
1.0
102
RTVSPost2010PropOp56
 70
     0
102
RTVSPost2010Prop57
140
1.0
102
RTVSPost2010PropOp57
 70
     0
  0
XRECORD
  5
272
102
{ACAD_REACTORS
330
271
102
}
330
271
100
AcDbXrecord
280
     1
102
RTVSPost2010Prop28
280
     0
102
RTVSPost2010PropOp28
 70
     1
102
RTVSPost2010Prop29
280
     1
102
RTVSPost2010PropOp29
 70
     1
102
RTVSPost2010Prop30
280
     1
102
RTVSPost2010PropOp30
 70
     1
102
RTVSPost2010Prop31
280
     0
102
RTVSPost2010PropOp31
 70
     1
102
RTVSPost2010Prop32
280
     0
102
RTVSPost2010PropOp32
 70
     1
102
RTVSPost2010Prop33
280
     0
102
RTVSPost2010PropOp33
 70
     1
102
RTVSPost2010Prop34
280
     0
102
RTVSPost2010PropOp34
 70
     1
102
RTVSPost2010Prop35
280
     0
102
RTVSPost2010PropOp35
 70
     1
102
RTVSPost2010Prop36
280
     0
102
RTVSPost2010PropOp36
 70
     1
102
RTVSPost2010Prop37
 90
       50
102
RTVSPost2010PropOp37
 70
     1
102
RTVSPost2010Prop38
140
0.0
102
RTVSPost2010PropOp38
 70
     1
102
RTVSPost2010Prop39
140
1.0
102
RTVSPost2010PropOp39
 70
     1
102
RTVSPost2010Prop40
 90
        0
102
RTVSPost2010PropOp40
 70
     1
102
RTVSPost2010Prop41ColorIndex
 90
       18
102
RTVSPost2010Prop41ColorRGB
 90
        0
102
RTVSPost2010PropOp41
 70
     1
102
RTVSPost2010Prop42
 90
       50
102
RTVSPost2010PropOp42
 70
     1
102
RTVSPost2010Prop43
 90
        3
102
RTVSPost2010PropOp43
 70
     1
102
RTVSPost2010Prop44ColorIndex
 90
        5
102
RTVSPost2010Prop44ColorRGB
 90
      255
102
RTVSPost2010PropOp44
 70
     1
102
RTVSPost2010Prop45
280
     0
102
RTVSPost2010PropOp45
 70
     1
102
RTVSPost2010Prop46
 90
       50
102
RTVSPost2010PropOp46
 70
     1
102
RTVSPost2010Prop47
 90
       50
102
RTVSPost2010PropOp47
 70
     1
102
RTVSPost2010Prop48
 90
       50
102
RTVSPost2010PropOp48
 70
     1
102
RTVSPost2010Prop49
280
     0
102
RTVSPost2010PropOp49
 70
     1
102
RTVSPost2010Prop50
 90
       50
102
RTVSPost2010PropOp50
 70
     1
102
RTVSPost2010Prop51ColorIndex
 90
      256
102
RTVSPost2010Prop51ColorRGB
 90
-16777216
102
RTVSPost2010PropOp51
 70
     0
102
RTVSPost2010Prop52
140
1.0
102
RTVSPost2010PropOp52
 70
     0
102
RTVSPost2010Prop53
 90
        2
102
RTVSPost2010PropOp53
 70
     1
102
RTVSPost2010Prop54
  1
strokes_ogs.tif
102
RTVSPost2010PropOp54
 70
     1
102
RTVSPost2010Prop55
280
     0
102
RTVSPost2010PropOp55
 70
     1
102
RTVSPost2010Prop56
140
1.0
102
RTVSPost2010PropOp56
 70
     1
102
RTVSPost2010Prop57
140
1.0
102
RTVSPost2010PropOp57
 70
     1
  0
XRECORD
  5
256
102
{ACAD_REACTORS
330
255
102
}
330
255
100
AcDbXrecord
280
     1
102
RTVSPost2010Prop28
280
     0
102
RTVSPost2010PropOp28
 70
     1
102
RTVSPost2010Prop29
280
     1
102
RTVSPost2010PropOp29
 70
     1
102
RTVSPost2010Prop30
280
     1
102
RTVSPost2010PropOp30
 70
     1
102
RTVSPost2010Prop31
280
     0
102
RTVSPost2010PropOp31
 70
     1
102
RTVSPost2010Prop32
280
     0
102
RTVSPost2010PropOp32
 70
     1
102
RTVSPost2010Prop33
280
     0
102
RTVSPost2010PropOp33
 70
     1
102
RTVSPost2010Prop34
280
     0
102
RTVSPost2010PropOp34
 70
     1
102
RTVSPost2010Prop35
280
     0
102
RTVSPost2010PropOp35
 70
     1
102
RTVSPost2010Prop36
280
     0
102
RTVSPost2010PropOp36
 70
     1
102
RTVSPost2010Prop37
 90
       50
102
RTVSPost2010PropOp37
 70
     1
102
RTVSPost2010Prop38
140
0.0
102
RTVSPost2010PropOp38
 70
     1
102
RTVSPost2010Prop39
140
1.0
102
RTVSPost2010PropOp39
 70
     1
102
RTVSPost2010Prop40
 90
        0
102
RTVSPost2010PropOp40
 70
     1
102
RTVSPost2010Prop41ColorIndex
 90
       18
102
RTVSPost2010Prop41ColorRGB
 90
        0
102
RTVSPost2010PropOp41
 70
     1
102
RTVSPost2010Prop42
 90
       50
102
RTVSPost2010PropOp42
 70
     1
102
RTVSPost2010Prop43
 90
        3
102
RTVSPost2010PropOp43
 70
     1
102
RTVSPost2010Prop44ColorIndex
 90
        5
102
RTVSPost2010Prop44ColorRGB
 90
      255
102
RTVSPost2010PropOp44
 70
     1
102
RTVSPost2010Prop45
280
     0
102
RTVSPost2010PropOp45
 70
     1
102
RTVSPost2010Prop46
 90
       50
102
RTVSPost2010PropOp46
 70
     1
102
RTVSPost2010Prop47
 90
       50
102
RTVSPost2010PropOp47
 70
     1
102
RTVSPost2010Prop48
 90
       50
102
RTVSPost2010PropOp48
 70
     1
102
RTVSPost2010Prop49
280
     0
102
RTVSPost2010PropOp49
 70
     1
102
RTVSPost2010Prop50
 90
       50
102
RTVSPost2010PropOp50
 70
     1
102
RTVSPost2010Prop51ColorIndex
 90
      256
102
RTVSPost2010Prop51ColorRGB
 90
-16777216
102
RTVSPost2010PropOp51
 70
     0
102
RTVSPost2010Prop52
140
1.0
102
RTVSPost2010PropOp52
 70
     0
102
RTVSPost2010Prop53
 90
        2
102
RTVSPost2010PropOp53
 70
     1
102
RTVSPost2010Prop54
  1
strokes_ogs.tif
102
RTVSPost2010PropOp54
 70
     1
102
RTVSPost2010Prop55
280
     0
102
RTVSPost2010PropOp55
 70
     1
102
RTVSPost2010Prop56
140
1.0
102
RTVSPost2010PropOp56
 70
     1
102
RTVSPost2010Prop57
140
1.0
102
RTVSPost2010PropOp57
 70
     1
  0
XRECORD
  5
258
102
{ACAD_REACTORS
330
257
102
}
330
257
100
AcDbXrecord
280
     1
102
RTVSPost2010Prop28
280
     0
102
RTVSPost2010PropOp28
 70
     1
102
RTVSPost2010Prop29
280
     1
102
RTVSPost2010PropOp29
 70
     1
102
RTVSPost2010Prop30
280
     1
102
RTVSPost2010PropOp30
 70
     1
102
RTVSPost2010Prop31
280
     0
102
RTVSPost2010PropOp31
 70
     1
102
RTVSPost2010Prop32
280
     0
102
RTVSPost2010PropOp32
 70
     1
102
RTVSPost2010Prop33
280
     0
102
RTVSPost2010PropOp33
 70
     1
102
RTVSPost2010Prop34
280
     0
102
RTVSPost2010PropOp34
 70
     1
102
RTVSPost2010Prop35
280
     0
102
RTVSPost2010PropOp35
 70
     1
102
RTVSPost2010Prop36
280
     0
102
RTVSPost2010PropOp36
 70
     1
102
RTVSPost2010Prop37
 90
       50
102
RTVSPost2010PropOp37
 70
     1
102
RTVSPost2010Prop38
140
0.0
102
RTVSPost2010PropOp38
 70
     1
102
RTVSPost2010Prop39
140
1.0
102
RTVSPost2010PropOp39
 70
     1
102
RTVSPost2010Prop40
 90
        0
102
RTVSPost2010PropOp40
 70
     1
102
RTVSPost2010Prop41ColorIndex
 90
       18
102
RTVSPost2010Prop41ColorRGB
 90
        0
102
RTVSPost2010PropOp41
 70
     1
102
RTVSPost2010Prop42
 90
       50
102
RTVSPost2010PropOp42
 70
     1
102
RTVSPost2010Prop43
 90
        3
102
RTVSPost2010PropOp43
 70
     1
102
RTVSPost2010Prop44ColorIndex
 90
        5
102
RTVSPost2010Prop44ColorRGB
 90
      255
102
RTVSPost2010PropOp44
 70
     1
102
RTVSPost2010Prop45
280
     0
102
RTVSPost2010PropOp45
 70
     1
102
RTVSPost2010Prop46
 90
       50
102
RTVSPost2010PropOp46
 70
     1
102
RTVSPost2010Prop47
 90
       50
102
RTVSPost2010PropOp47
 70
     1
102
RTVSPost2010Prop48
 90
       50
102
RTVSPost2010PropOp48
 70
     1
102
RTVSPost2010Prop49
280
     0
102
RTVSPost2010PropOp49
 70
     1
102
RTVSPost2010Prop50
 90
       50
102
RTVSPost2010PropOp50
 70
     1
102
RTVSPost2010Prop51ColorIndex
 90
      256
102
RTVSPost2010Prop51ColorRGB
 90
-16777216
102
RTVSPost2010PropOp51
 70
     0
102
RTVSPost2010Prop52
140
1.0
102
RTVSPost2010PropOp52
 70
     0
102
RTVSPost2010Prop53
 90
        2
102
RTVSPost2010PropOp53
 70
     1
102
RTVSPost2010Prop54
  1
strokes_ogs.tif
102
RTVSPost2010PropOp54
 70
     1
102
RTVSPost2010Prop55
280
     0
102
RTVSPost2010PropOp55
 70
     1
102
RTVSPost2010Prop56
140
1.0
102
RTVSPost2010PropOp56
 70
     1
102
RTVSPost2010Prop57
140
1.0
102
RTVSPost2010PropOp57
 70
     1
  0
XRECORD
  5
25A
102
{ACAD_REACTORS
330
259
102
}
330
259
100
AcDbXrecord
280
     1
102
RTVSPost2010Prop28
280
     0
102
RTVSPost2010PropOp28
 70
     1
102
RTVSPost2010Prop29
280
     1
102
RTVSPost2010PropOp29
 70
     1
102
RTVSPost2010Prop30
280
     1
102
RTVSPost2010PropOp30
 70
     1
102
RTVSPost2010Prop31
280
     0
102
RTVSPost2010PropOp31
 70
     1
102
RTVSPost2010Prop32
280
     0
102
RTVSPost2010PropOp32
 70
     1
102
RTVSPost2010Prop33
280
     0
102
RTVSPost2010PropOp33
 70
     1
102
RTVSPost2010Prop34
280
     0
102
RTVSPost2010PropOp34
 70
     1
102
RTVSPost2010Prop35
280
     0
102
RTVSPost2010PropOp35
 70
     1
102
RTVSPost2010Prop36
280
     0
102
RTVSPost2010PropOp36
 70
     1
102
RTVSPost2010Prop37
 90
       50
102
RTVSPost2010PropOp37
 70
     1
102
RTVSPost2010Prop38
140
0.0
102
RTVSPost2010PropOp38
 70
     1
102
RTVSPost2010Prop39
140
1.0
102
RTVSPost2010PropOp39
 70
     1
102
RTVSPost2010Prop40
 90
        0
102
RTVSPost2010PropOp40
 70
     1
102
RTVSPost2010Prop41ColorIndex
 90
       18
102
RTVSPost2010Prop41ColorRGB
 90
        0
102
RTVSPost2010PropOp41
 70
     1
102
RTVSPost2010Prop42
 90
       50
102
RTVSPost2010PropOp42
 70
     1
102
RTVSPost2010Prop43
 90
        3
102
RTVSPost2010PropOp43
 70
     1
102
RTVSPost2010Prop44ColorIndex
 90
        5
102
RTVSPost2010Prop44ColorRGB
 90
      255
102
RTVSPost2010PropOp44
 70
     1
102
RTVSPost2010Prop45
280
     0
102
RTVSPost2010PropOp45
 70
     1
102
RTVSPost2010Prop46
 90
       50
102
RTVSPost2010PropOp46
 70
     1
102
RTVSPost2010Prop47
 90
       50
102
RTVSPost2010PropOp47
 70
     1
102
RTVSPost2010Prop48
 90
       50
102
RTVSPost2010PropOp48
 70
     1
102
RTVSPost2010Prop49
280
     0
102
RTVSPost2010PropOp49
 70
     1
102
RTVSPost2010Prop50
 90
       50
102
RTVSPost2010PropOp50
 70
     1
102
RTVSPost2010Prop51ColorIndex
 90
      256
102
RTVSPost2010Prop51ColorRGB
 90
-16777216
102
RTVSPost2010PropOp51
 70
     0
102
RTVSPost2010Prop52
140
1.0
102
RTVSPost2010PropOp52
 70
     0
102
RTVSPost2010Prop53
 90
        2
102
RTVSPost2010PropOp53
 70
     1
102
RTVSPost2010Prop54
  1
strokes_ogs.tif
102
RTVSPost2010PropOp54
 70
     1
102
RTVSPost2010Prop55
280
     0
102
RTVSPost2010PropOp55
 70
     1
102
RTVSPost2010Prop56
140
1.0
102
RTVSPost2010PropOp56
 70
     1
102
RTVSPost2010Prop57
140
1.0
102
RTVSPost2010PropOp57
 70
     1
  0
XRECORD
  5
25C
102
{ACAD_REACTORS
330
25B
102
}
330
25B
100
AcDbXrecord
280
     1
102
RTVSPost2010Prop28
280
     0
102
RTVSPost2010PropOp28
 70
     1
102
RTVSPost2010Prop29
280
     1
102
RTVSPost2010PropOp29
 70
     1
102
RTVSPost2010Prop30
280
     1
102
RTVSPost2010PropOp30
 70
     1
102
RTVSPost2010Prop31
280
     0
102
RTVSPost2010PropOp31
 70
     1
102
RTVSPost2010Prop32
280
     0
102
RTVSPost2010PropOp32
 70
     1
102
RTVSPost2010Prop33
280
     0
102
RTVSPost2010PropOp33
 70
     1
102
RTVSPost2010Prop34
280
     0
102
RTVSPost2010PropOp34
 70
     1
102
RTVSPost2010Prop35
280
     0
102
RTVSPost2010PropOp35
 70
     1
102
RTVSPost2010Prop36
280
     0
102
RTVSPost2010PropOp36
 70
     1
102
RTVSPost2010Prop37
 90
       50
102
RTVSPost2010PropOp37
 70
     1
102
RTVSPost2010Prop38
140
0.0
102
RTVSPost2010PropOp38
 70
     1
102
RTVSPost2010Prop39
140
1.0
102
RTVSPost2010PropOp39
 70
     1
102
RTVSPost2010Prop40
 90
        0
102
RTVSPost2010PropOp40
 70
     1
102
RTVSPost2010Prop41ColorIndex
 90
       18
102
RTVSPost2010Prop41ColorRGB
 90
        0
102
RTVSPost2010PropOp41
 70
     1
102
RTVSPost2010Prop42
 90
       50
102
RTVSPost2010PropOp42
 70
     1
102
RTVSPost2010Prop43
 90
        3
102
RTVSPost2010PropOp43
 70
     1
102
RTVSPost2010Prop44ColorIndex
 90
        5
102
RTVSPost2010Prop44ColorRGB
 90
      255
102
RTVSPost2010PropOp44
 70
     1
102
RTVSPost2010Prop45
280
     0
102
RTVSPost2010PropOp45
 70
     1
102
RTVSPost2010Prop46
 90
       50
102
RTVSPost2010PropOp46
 70
     1
102
RTVSPost2010Prop47
 90
       50
102
RTVSPost2010PropOp47
 70
     1
102
RTVSPost2010Prop48
 90
       50
102
RTVSPost2010PropOp48
 70
     1
102
RTVSPost2010Prop49
280
     0
102
RTVSPost2010PropOp49
 70
     1
102
RTVSPost2010Prop50
 90
       50
102
RTVSPost2010PropOp50
 70
     1
102
RTVSPost2010Prop51ColorIndex
 90
      256
102
RTVSPost2010Prop51ColorRGB
 90
-16777216
102
RTVSPost2010PropOp51
 70
     0
102
RTVSPost2010Prop52
140
1.0
102
RTVSPost2010PropOp52
 70
     0
102
RTVSPost2010Prop53
 90
        2
102
RTVSPost2010PropOp53
 70
     1
102
RTVSPost2010Prop54
  1
strokes_ogs.tif
102
RTVSPost2010PropOp54
 70
     1
102
RTVSPost2010Prop55
280
     0
102
RTVSPost2010PropOp55
 70
     1
102
RTVSPost2010Prop56
140
1.0
102
RTVSPost2010PropOp56
 70
     1
102
RTVSPost2010Prop57
140
1.0
102
RTVSPost2010PropOp57
 70
     1
  0
XRECORD
  5
264
102
{ACAD_REACTORS
330
263
102
}
330
263
100
AcDbXrecord
280
     1
102
RTVSPost2010Prop28
280
     0
102
RTVSPost2010PropOp28
 70
     1
102
RTVSPost2010Prop29
280
     1
102
RTVSPost2010PropOp29
 70
     1
102
RTVSPost2010Prop30
280
     1
102
RTVSPost2010PropOp30
 70
     1
102
RTVSPost2010Prop31
280
     0
102
RTVSPost2010PropOp31
 70
     1
102
RTVSPost2010Prop32
280
     0
102
RTVSPost2010PropOp32
 70
     1
102
RTVSPost2010Prop33
280
     0
102
RTVSPost2010PropOp33
 70
     1
102
RTVSPost2010Prop34
280
     0
102
RTVSPost2010PropOp34
 70
     1
102
RTVSPost2010Prop35
280
     0
102
RTVSPost2010PropOp35
 70
     1
102
RTVSPost2010Prop36
280
     0
102
RTVSPost2010PropOp36
 70
     1
102
RTVSPost2010Prop37
 90
       50
102
RTVSPost2010PropOp37
 70
     1
102
RTVSPost2010Prop38
140
0.0
102
RTVSPost2010PropOp38
 70
     1
102
RTVSPost2010Prop39
140
1.0
102
RTVSPost2010PropOp39
 70
     1
102
RTVSPost2010Prop40
 90
        0
102
RTVSPost2010PropOp40
 70
     1
102
RTVSPost2010Prop41ColorIndex
 90
       18
102
RTVSPost2010Prop41ColorRGB
 90
        0
102
RTVSPost2010PropOp41
 70
     1
102
RTVSPost2010Prop42
 90
       50
102
RTVSPost2010PropOp42
 70
     1
102
RTVSPost2010Prop43
 90
        3
102
RTVSPost2010PropOp43
 70
     1
102
RTVSPost2010Prop44ColorIndex
 90
        5
102
RTVSPost2010Prop44ColorRGB
 90
      255
102
RTVSPost2010PropOp44
 70
     1
102
RTVSPost2010Prop45
280
     0
102
RTVSPost2010PropOp45
 70
     1
102
RTVSPost2010Prop46
 90
       50
102
RTVSPost2010PropOp46
 70
     1
102
RTVSPost2010Prop47
 90
       50
102
RTVSPost2010PropOp47
 70
     1
102
RTVSPost2010Prop48
 90
       50
102
RTVSPost2010PropOp48
 70
     1
102
RTVSPost2010Prop49
280
     0
102
RTVSPost2010PropOp49
 70
     1
102
RTVSPost2010Prop50
 90
       50
102
RTVSPost2010PropOp50
 70
     1
102
RTVSPost2010Prop51ColorIndex
 90
      256
102
RTVSPost2010Prop51ColorRGB
 90
-16777216
102
RTVSPost2010PropOp51
 70
     0
102
RTVSPost2010Prop52
140
1.0
102
RTVSPost2010PropOp52
 70
     0
102
RTVSPost2010Prop53
 90
        2
102
RTVSPost2010PropOp53
 70
     1
102
RTVSPost2010Prop54
  1
strokes_ogs.tif
102
RTVSPost2010PropOp54
 70
     1
102
RTVSPost2010Prop55
280
     0
102
RTVSPost2010PropOp55
 70
     1
102
RTVSPost2010Prop56
140
1.0
102
RTVSPost2010PropOp56
 70
     1
102
RTVSPost2010Prop57
140
1.0
102
RTVSPost2010PropOp57
 70
     1
  0
XRECORD
  5
280
102
{ACAD_REACTORS
330
27F
102
}
330
27F
100
AcDbXrecord
280
     1
102
RTVSPost2010Prop28
280
     0
102
RTVSPost2010PropOp28
 70
     0
102
RTVSPost2010Prop29
280
     1
102
RTVSPost2010PropOp29
 70
     0
102
RTVSPost2010Prop30
280
     1
102
RTVSPost2010PropOp30
 70
     0
102
RTVSPost2010Prop31
280
     0
102
RTVSPost2010PropOp31
 70
     0
102
RTVSPost2010Prop32
280
     0
102
RTVSPost2010PropOp32
 70
     0
102
RTVSPost2010Prop33
280
     0
102
RTVSPost2010PropOp33
 70
     0
102
RTVSPost2010Prop34
280
     0
102
RTVSPost2010PropOp34
 70
     0
102
RTVSPost2010Prop35
280
     0
102
RTVSPost2010PropOp35
 70
     0
102
RTVSPost2010Prop36
280
     0
102
RTVSPost2010PropOp36
 70
     0
102
RTVSPost2010Prop37
 90
       50
102
RTVSPost2010PropOp37
 70
     0
102
RTVSPost2010Prop38
140
0.0
102
RTVSPost2010PropOp38
 70
     0
102
RTVSPost2010Prop39
140
1.0
102
RTVSPost2010PropOp39
 70
     0
102
RTVSPost2010Prop40
 90
        0
102
RTVSPost2010PropOp40
 70
     0
102
RTVSPost2010Prop41ColorIndex
 90
       18
102
RTVSPost2010Prop41ColorRGB
 90
        0
102
RTVSPost2010PropOp41
 70
     0
102
RTVSPost2010Prop42
 90
       50
102
RTVSPost2010PropOp42
 70
     0
102
RTVSPost2010Prop43
 90
        3
102
RTVSPost2010PropOp43
 70
     0
102
RTVSPost2010Prop44ColorIndex
 90
        5
102
RTVSPost2010Prop44ColorRGB
 90
      255
102
RTVSPost2010PropOp44
 70
     0
102
RTVSPost2010Prop45
280
     0
102
RTVSPost2010PropOp45
 70
     0
102
RTVSPost2010Prop46
 90
       50
102
RTVSPost2010PropOp46
 70
     0
102
RTVSPost2010Prop47
 90
       50
102
RTVSPost2010PropOp47
 70
     0
102
RTVSPost2010Prop48
 90
       50
102
RTVSPost2010PropOp48
 70
     0
102
RTVSPost2010Prop49
280
     0
102
RTVSPost2010PropOp49
 70
     0
102
RTVSPost2010Prop50
 90
       50
102
RTVSPost2010PropOp50
 70
     0
102
RTVSPost2010Prop51ColorIndex
 90
      256
102
RTVSPost2010Prop51ColorRGB
 90
-16777216
102
RTVSPost2010PropOp51
 70
     0
102
RTVSPost2010Prop52
140
1.0
102
RTVSPost2010PropOp52
 70
     0
102
RTVSPost2010Prop53
 90
        2
102
RTVSPost2010PropOp53
 70
     0
102
RTVSPost2010Prop54
  1
strokes_ogs.tif
102
RTVSPost2010PropOp54
 70
     0
102
RTVSPost2010Prop55
280
     0
102
RTVSPost2010PropOp55
 70
     0
102
RTVSPost2010Prop56
140
1.0
102
RTVSPost2010PropOp56
 70
     0
102
RTVSPost2010Prop57
140
1.0
102
RTVSPost2010PropOp57
 70
     0
  0
XRECORD
  5
270
102
{ACAD_REACTORS
330
26F
102
}
330
26F
100
AcDbXrecord
280
     1
102
RTVSPost2010Prop28
280
     0
102
RTVSPost2010PropOp28
 70
     1
102
RTVSPost2010Prop29
280
     1
102
RTVSPost2010PropOp29
 70
     1
102
RTVSPost2010Prop30
280
     1
102
RTVSPost2010PropOp30
 70
     1
102
RTVSPost2010Prop31
280
     0
102
RTVSPost2010PropOp31
 70
     1
102
RTVSPost2010Prop32
280
     0
102
RTVSPost2010PropOp32
 70
     1
102
RTVSPost2010Prop33
280
     0
102
RTVSPost2010PropOp33
 70
     1
102
RTVSPost2010Prop34
280
     0
102
RTVSPost2010PropOp34
 70
     1
102
RTVSPost2010Prop35
280
     0
102
RTVSPost2010PropOp35
 70
     1
102
RTVSPost2010Prop36
280
     0
102
RTVSPost2010PropOp36
 70
     1
102
RTVSPost2010Prop37
 90
       50
102
RTVSPost2010PropOp37
 70
     1
102
RTVSPost2010Prop38
140
0.0
102
RTVSPost2010PropOp38
 70
     1
102
RTVSPost2010Prop39
140
1.0
102
RTVSPost2010PropOp39
 70
     1
102
RTVSPost2010Prop40
 90
        0
102
RTVSPost2010PropOp40
 70
     1
102
RTVSPost2010Prop41ColorIndex
 90
       18
102
RTVSPost2010Prop41ColorRGB
 90
        0
102
RTVSPost2010PropOp41
 70
     1
102
RTVSPost2010Prop42
 90
       50
102
RTVSPost2010PropOp42
 70
     1
102
RTVSPost2010Prop43
 90
        3
102
RTVSPost2010PropOp43
 70
     1
102
RTVSPost2010Prop44ColorIndex
 90
        5
102
RTVSPost2010Prop44ColorRGB
 90
      255
102
RTVSPost2010PropOp44
 70
     1
102
RTVSPost2010Prop45
280
     0
102
RTVSPost2010PropOp45
 70
     1
102
RTVSPost2010Prop46
 90
       50
102
RTVSPost2010PropOp46
 70
     1
102
RTVSPost2010Prop47
 90
       50
102
RTVSPost2010PropOp47
 70
     1
102
RTVSPost2010Prop48
 90
       50
102
RTVSPost2010PropOp48
 70
     1
102
RTVSPost2010Prop49
280
     0
102
RTVSPost2010PropOp49
 70
     1
102
RTVSPost2010Prop50
 90
       50
102
RTVSPost2010PropOp50
 70
     1
102
RTVSPost2010Prop51ColorIndex
 90
      256
102
RTVSPost2010Prop51ColorRGB
 90
-16777216
102
RTVSPost2010PropOp51
 70
     0
102
RTVSPost2010Prop52
140
1.0
102
RTVSPost2010PropOp52
 70
     0
102
RTVSPost2010Prop53
 90
        2
102
RTVSPost2010PropOp53
 70
     1
102
RTVSPost2010Prop54
  1
strokes_ogs.tif
102
RTVSPost2010PropOp54
 70
     1
102
RTVSPost2010Prop55
280
     0
102
RTVSPost2010PropOp55
 70
     1
102
RTVSPost2010Prop56
140
1.0
102
RTVSPost2010PropOp56
 70
     1
102
RTVSPost2010Prop57
140
1.0
102
RTVSPost2010PropOp57
 70
     1
  0
XRECORD
  5
282
102
{ACAD_REACTORS
330
281
102
}
330
281
100
AcDbXrecord
280
     1
102
RTVSPost2010Prop28
280
     0
102
RTVSPost2010PropOp28
 70
     0
102
RTVSPost2010Prop29
280
     1
102
RTVSPost2010PropOp29
 70
     0
102
RTVSPost2010Prop30
280
     1
102
RTVSPost2010PropOp30
 70
     0
102
RTVSPost2010Prop31
280
     0
102
RTVSPost2010PropOp31
 70
     0
102
RTVSPost2010Prop32
280
     0
102
RTVSPost2010PropOp32
 70
     0
102
RTVSPost2010Prop33
280
     0
102
RTVSPost2010PropOp33
 70
     0
102
RTVSPost2010Prop34
280
     0
102
RTVSPost2010PropOp34
 70
     0
102
RTVSPost2010Prop35
280
     0
102
RTVSPost2010PropOp35
 70
     0
102
RTVSPost2010Prop36
280
     0
102
RTVSPost2010PropOp36
 70
     0
102
RTVSPost2010Prop37
 90
       50
102
RTVSPost2010PropOp37
 70
     0
102
RTVSPost2010Prop38
140
0.0
102
RTVSPost2010PropOp38
 70
     0
102
RTVSPost2010Prop39
140
1.0
102
RTVSPost2010PropOp39
 70
     0
102
RTVSPost2010Prop40
 90
        0
102
RTVSPost2010PropOp40
 70
     0
102
RTVSPost2010Prop41ColorIndex
 90
       18
102
RTVSPost2010Prop41ColorRGB
 90
        0
102
RTVSPost2010PropOp41
 70
     0
102
RTVSPost2010Prop42
 90
       50
102
RTVSPost2010PropOp42
 70
     0
102
RTVSPost2010Prop43
 90
        3
102
RTVSPost2010PropOp43
 70
     0
102
RTVSPost2010Prop44ColorIndex
 90
        5
102
RTVSPost2010Prop44ColorRGB
 90
      255
102
RTVSPost2010PropOp44
 70
     0
102
RTVSPost2010Prop45
280
     0
102
RTVSPost2010PropOp45
 70
     0
102
RTVSPost2010Prop46
 90
       50
102
RTVSPost2010PropOp46
 70
     0
102
RTVSPost2010Prop47
 90
       50
102
RTVSPost2010PropOp47
 70
     0
102
RTVSPost2010Prop48
 90
       50
102
RTVSPost2010PropOp48
 70
     0
102
RTVSPost2010Prop49
280
     0
102
RTVSPost2010PropOp49
 70
     0
102
RTVSPost2010Prop50
 90
       50
102
RTVSPost2010PropOp50
 70
     0
102
RTVSPost2010Prop51ColorIndex
 90
      256
102
RTVSPost2010Prop51ColorRGB
 90
-16777216
102
RTVSPost2010PropOp51
 70
     0
102
RTVSPost2010Prop52
140
1.0
102
RTVSPost2010PropOp52
 70
     0
102
RTVSPost2010Prop53
 90
        2
102
RTVSPost2010PropOp53
 70
     0
102
RTVSPost2010Prop54
  1
strokes_ogs.tif
102
RTVSPost2010PropOp54
 70
     0
102
RTVSPost2010Prop55
280
     0
102
RTVSPost2010PropOp55
 70
     0
102
RTVSPost2010Prop56
140
1.0
102
RTVSPost2010PropOp56
 70
     0
102
RTVSPost2010Prop57
140
1.0
102
RTVSPost2010PropOp57
 70
     0
  0
XRECORD
  5
268
102
{ACAD_REACTORS
330
267
102
}
330
267
100
AcDbXrecord
280
     1
102
RTVSPost2010Prop28
280
     0
102
RTVSPost2010PropOp28
 70
     1
102
RTVSPost2010Prop29
280
     1
102
RTVSPost2010PropOp29
 70
     1
102
RTVSPost2010Prop30
280
     1
102
RTVSPost2010PropOp30
 70
     1
102
RTVSPost2010Prop31
280
     0
102
RTVSPost2010PropOp31
 70
     1
102
RTVSPost2010Prop32
280
     0
102
RTVSPost2010PropOp32
 70
     1
102
RTVSPost2010Prop33
280
     0
102
RTVSPost2010PropOp33
 70
     1
102
RTVSPost2010Prop34
280
     0
102
RTVSPost2010PropOp34
 70
     1
102
RTVSPost2010Prop35
280
     0
102
RTVSPost2010PropOp35
 70
     1
102
RTVSPost2010Prop36
280
     0
102
RTVSPost2010PropOp36
 70
     1
102
RTVSPost2010Prop37
 90
       50
102
RTVSPost2010PropOp37
 70
     1
102
RTVSPost2010Prop38
140
0.0
102
RTVSPost2010PropOp38
 70
     1
102
RTVSPost2010Prop39
140
1.0
102
RTVSPost2010PropOp39
 70
     1
102
RTVSPost2010Prop40
 90
        0
102
RTVSPost2010PropOp40
 70
     1
102
RTVSPost2010Prop41ColorIndex
 90
       18
102
RTVSPost2010Prop41ColorRGB
 90
        0
102
RTVSPost2010PropOp41
 70
     1
102
RTVSPost2010Prop42
 90
       50
102
RTVSPost2010PropOp42
 70
     1
102
RTVSPost2010Prop43
 90
        3
102
RTVSPost2010PropOp43
 70
     1
102
RTVSPost2010Prop44ColorIndex
 90
        5
102
RTVSPost2010Prop44ColorRGB
 90
      255
102
RTVSPost2010PropOp44
 70
     1
102
RTVSPost2010Prop45
280
     0
102
RTVSPost2010PropOp45
 70
     1
102
RTVSPost2010Prop46
 90
       50
102
RTVSPost2010PropOp46
 70
     1
102
RTVSPost2010Prop47
 90
       50
102
RTVSPost2010PropOp47
 70
     1
102
RTVSPost2010Prop48
 90
       50
102
RTVSPost2010PropOp48
 70
     1
102
RTVSPost2010Prop49
280
     0
102
RTVSPost2010PropOp49
 70
     1
102
RTVSPost2010Prop50
 90
       50
102
RTVSPost2010PropOp50
 70
     1
102
RTVSPost2010Prop51ColorIndex
 90
      256
102
RTVSPost2010Prop51ColorRGB
 90
-16777216
102
RTVSPost2010PropOp51
 70
     0
102
RTVSPost2010Prop52
140
1.0
102
RTVSPost2010PropOp52
 70
     0
102
RTVSPost2010Prop53
 90
        2
102
RTVSPost2010PropOp53
 70
     1
102
RTVSPost2010Prop54
  1
strokes_ogs.tif
102
RTVSPost2010PropOp54
 70
     1
102
RTVSPost2010Prop55
280
     0
102
RTVSPost2010PropOp55
 70
     1
102
RTVSPost2010Prop56
140
1.0
102
RTVSPost2010PropOp56
 70
     1
102
RTVSPost2010Prop57
140
1.0
102
RTVSPost2010PropOp57
 70
     1
  0
XRECORD
  5
27E
102
{ACAD_REACTORS
330
27D
102
}
330
27D
100
AcDbXrecord
280
     1
102
RTVSPost2010Prop28
280
     0
102
RTVSPost2010PropOp28
 70
     1
102
RTVSPost2010Prop29
280
     1
102
RTVSPost2010PropOp29
 70
     1
102
RTVSPost2010Prop30
280
     1
102
RTVSPost2010PropOp30
 70
     1
102
RTVSPost2010Prop31
280
     0
102
RTVSPost2010PropOp31
 70
     1
102
RTVSPost2010Prop32
280
     0
102
RTVSPost2010PropOp32
 70
     1
102
RTVSPost2010Prop33
280
     0
102
RTVSPost2010PropOp33
 70
     1
102
RTVSPost2010Prop34
280
     0
102
RTVSPost2010PropOp34
 70
     1
102
RTVSPost2010Prop35
280
     0
102
RTVSPost2010PropOp35
 70
     1
102
RTVSPost2010Prop36
280
     0
102
RTVSPost2010PropOp36
 70
     1
102
RTVSPost2010Prop37
 90
       50
102
RTVSPost2010PropOp37
 70
     1
102
RTVSPost2010Prop38
140
0.0
102
RTVSPost2010PropOp38
 70
     1
102
RTVSPost2010Prop39
140
1.0
102
RTVSPost2010PropOp39
 70
     1
102
RTVSPost2010Prop40
 90
        0
102
RTVSPost2010PropOp40
 70
     1
102
RTVSPost2010Prop41ColorIndex
 90
       18
102
RTVSPost2010Prop41ColorRGB
 90
        0
102
RTVSPost2010PropOp41
 70
     1
102
RTVSPost2010Prop42
 90
       50
102
RTVSPost2010PropOp42
 70
     1
102
RTVSPost2010Prop43
 90
        3
102
RTVSPost2010PropOp43
 70
     1
102
RTVSPost2010Prop44ColorIndex
 90
        5
102
RTVSPost2010Prop44ColorRGB
 90
      255
102
RTVSPost2010PropOp44
 70
     1
102
RTVSPost2010Prop45
280
     0
102
RTVSPost2010PropOp45
 70
     1
102
RTVSPost2010Prop46
 90
       50
102
RTVSPost2010PropOp46
 70
     1
102
RTVSPost2010Prop47
 90
       50
102
RTVSPost2010PropOp47
 70
     1
102
RTVSPost2010Prop48
 90
       50
102
RTVSPost2010PropOp48
 70
     1
102
RTVSPost2010Prop49
280
     0
102
RTVSPost2010PropOp49
 70
     1
102
RTVSPost2010Prop50
 90
       50
102
RTVSPost2010PropOp50
 70
     1
102
RTVSPost2010Prop51ColorIndex
 90
      256
102
RTVSPost2010Prop51ColorRGB
 90
-16777216
102
RTVSPost2010PropOp51
 70
     0
102
RTVSPost2010Prop52
140
1.0
102
RTVSPost2010PropOp52
 70
     0
102
RTVSPost2010Prop53
 90
        2
102
RTVSPost2010PropOp53
 70
     1
102
RTVSPost2010Prop54
  1
strokes_ogs.tif
102
RTVSPost2010PropOp54
 70
     1
102
RTVSPost2010Prop55
280
     0
102
RTVSPost2010PropOp55
 70
     1
102
RTVSPost2010Prop56
140
1.0
102
RTVSPost2010PropOp56
 70
     1
102
RTVSPost2010Prop57
140
1.0
102
RTVSPost2010PropOp57
 70
     1
  0
XRECORD
  5
27C
102
{ACAD_REACTORS
330
27B
102
}
330
27B
100
AcDbXrecord
280
     1
102
RTVSPost2010Prop28
280
     0
102
RTVSPost2010PropOp28
 70
     1
102
RTVSPost2010Prop29
280
     1
102
RTVSPost2010PropOp29
 70
     1
102
RTVSPost2010Prop30
280
     1
102
RTVSPost2010PropOp30
 70
     1
102
RTVSPost2010Prop31
280
     0
102
RTVSPost2010PropOp31
 70
     1
102
RTVSPost2010Prop32
280
     0
102
RTVSPost2010PropOp32
 70
     1
102
RTVSPost2010Prop33
280
     0
102
RTVSPost2010PropOp33
 70
     1
102
RTVSPost2010Prop34
280
     0
102
RTVSPost2010PropOp34
 70
     1
102
RTVSPost2010Prop35
280
     0
102
RTVSPost2010PropOp35
 70
     1
102
RTVSPost2010Prop36
280
     0
102
RTVSPost2010PropOp36
 70
     1
102
RTVSPost2010Prop37
 90
       50
102
RTVSPost2010PropOp37
 70
     1
102
RTVSPost2010Prop38
140
0.0
102
RTVSPost2010PropOp38
 70
     1
102
RTVSPost2010Prop39
140
1.0
102
RTVSPost2010PropOp39
 70
     1
102
RTVSPost2010Prop40
 90
        0
102
RTVSPost2010PropOp40
 70
     1
102
RTVSPost2010Prop41ColorIndex
 90
       18
102
RTVSPost2010Prop41ColorRGB
 90
        0
102
RTVSPost2010PropOp41
 70
     1
102
RTVSPost2010Prop42
 90
       50
102
RTVSPost2010PropOp42
 70
     1
102
RTVSPost2010Prop43
 90
        3
102
RTVSPost2010PropOp43
 70
     1
102
RTVSPost2010Prop44ColorIndex
 90
        5
102
RTVSPost2010Prop44ColorRGB
 90
      255
102
RTVSPost2010PropOp44
 70
     1
102
RTVSPost2010Prop45
280
     0
102
RTVSPost2010PropOp45
 70
     1
102
RTVSPost2010Prop46
 90
       50
102
RTVSPost2010PropOp46
 70
     1
102
RTVSPost2010Prop47
 90
       50
102
RTVSPost2010PropOp47
 70
     1
102
RTVSPost2010Prop48
 90
       50
102
RTVSPost2010PropOp48
 70
     1
102
RTVSPost2010Prop49
280
     0
102
RTVSPost2010PropOp49
 70
     1
102
RTVSPost2010Prop50
 90
       50
102
RTVSPost2010PropOp50
 70
     1
102
RTVSPost2010Prop51ColorIndex
 90
      256
102
RTVSPost2010Prop51ColorRGB
 90
-16777216
102
RTVSPost2010PropOp51
 70
     0
102
RTVSPost2010Prop52
140
1.0
102
RTVSPost2010PropOp52
 70
     0
102
RTVSPost2010Prop53
 90
        2
102
RTVSPost2010PropOp53
 70
     1
102
RTVSPost2010Prop54
  1
strokes_ogs.tif
102
RTVSPost2010PropOp54
 70
     1
102
RTVSPost2010Prop55
280
     0
102
RTVSPost2010PropOp55
 70
     1
102
RTVSPost2010Prop56
140
1.0
102
RTVSPost2010PropOp56
 70
     1
102
RTVSPost2010Prop57
140
1.0
102
RTVSPost2010PropOp57
 70
     1
  0
XRECORD
  5
276
102
{ACAD_REACTORS
330
275
102
}
330
275
100
AcDbXrecord
280
     1
102
RTVSPost2010Prop28
280
     0
102
RTVSPost2010PropOp28
 70
     1
102
RTVSPost2010Prop29
280
     1
102
RTVSPost2010PropOp29
 70
     1
102
RTVSPost2010Prop30
280
     1
102
RTVSPost2010PropOp30
 70
     1
102
RTVSPost2010Prop31
280
     0
102
RTVSPost2010PropOp31
 70
     1
102
RTVSPost2010Prop32
280
     0
102
RTVSPost2010PropOp32
 70
     1
102
RTVSPost2010Prop33
280
     0
102
RTVSPost2010PropOp33
 70
     1
102
RTVSPost2010Prop34
280
     0
102
RTVSPost2010PropOp34
 70
     1
102
RTVSPost2010Prop35
280
     0
102
RTVSPost2010PropOp35
 70
     1
102
RTVSPost2010Prop36
280
     0
102
RTVSPost2010PropOp36
 70
     1
102
RTVSPost2010Prop37
 90
       50
102
RTVSPost2010PropOp37
 70
     1
102
RTVSPost2010Prop38
140
0.0
102
RTVSPost2010PropOp38
 70
     1
102
RTVSPost2010Prop39
140
1.0
102
RTVSPost2010PropOp39
 70
     1
102
RTVSPost2010Prop40
 90
        0
102
RTVSPost2010PropOp40
 70
     1
102
RTVSPost2010Prop41ColorIndex
 90
       18
102
RTVSPost2010Prop41ColorRGB
 90
        0
102
RTVSPost2010PropOp41
 70
     1
102
RTVSPost2010Prop42
 90
       50
102
RTVSPost2010PropOp42
 70
     1
102
RTVSPost2010Prop43
 90
        3
102
RTVSPost2010PropOp43
 70
     1
102
RTVSPost2010Prop44ColorIndex
 90
        5
102
RTVSPost2010Prop44ColorRGB
 90
      255
102
RTVSPost2010PropOp44
 70
     1
102
RTVSPost2010Prop45
280
     0
102
RTVSPost2010PropOp45
 70
     1
102
RTVSPost2010Prop46
 90
       50
102
RTVSPost2010PropOp46
 70
     1
102
RTVSPost2010Prop47
 90
       50
102
RTVSPost2010PropOp47
 70
     1
102
RTVSPost2010Prop48
 90
       50
102
RTVSPost2010PropOp48
 70
     1
102
RTVSPost2010Prop49
280
     0
102
RTVSPost2010PropOp49
 70
     1
102
RTVSPost2010Prop50
 90
       50
102
RTVSPost2010PropOp50
 70
     1
102
RTVSPost2010Prop51ColorIndex
 90
      256
102
RTVSPost2010Prop51ColorRGB
 90
-16777216
102
RTVSPost2010PropOp51
 70
     0
102
RTVSPost2010Prop52
140
1.0
102
RTVSPost2010PropOp52
 70
     0
102
RTVSPost2010Prop53
 90
        2
102
RTVSPost2010PropOp53
 70
     1
102
RTVSPost2010Prop54
  1
strokes_ogs.tif
102
RTVSPost2010PropOp54
 70
     1
102
RTVSPost2010Prop55
280
     0
102
RTVSPost2010PropOp55
 70
     1
102
RTVSPost2010Prop56
140
1.0
102
RTVSPost2010PropOp56
 70
     1
102
RTVSPost2010Prop57
140
1.0
102
RTVSPost2010PropOp57
 70
     1
  0
XRECORD
  5
278
102
{ACAD_REACTORS
330
277
102
}
330
277
100
AcDbXrecord
280
     1
102
RTVSPost2010Prop28
280
     0
102
RTVSPost2010PropOp28
 70
     1
102
RTVSPost2010Prop29
280
     1
102
RTVSPost2010PropOp29
 70
     1
102
RTVSPost2010Prop30
280
     1
102
RTVSPost2010PropOp30
 70
     1
102
RTVSPost2010Prop31
280
     0
102
RTVSPost2010PropOp31
 70
     1
102
RTVSPost2010Prop32
280
     0
102
RTVSPost2010PropOp32
 70
     1
102
RTVSPost2010Prop33
280
     0
102
RTVSPost2010PropOp33
 70
     1
102
RTVSPost2010Prop34
280
     0
102
RTVSPost2010PropOp34
 70
     1
102
RTVSPost2010Prop35
280
     0
102
RTVSPost2010PropOp35
 70
     1
102
RTVSPost2010Prop36
280
     0
102
RTVSPost2010PropOp36
 70
     1
102
RTVSPost2010Prop37
 90
       50
102
RTVSPost2010PropOp37
 70
     1
102
RTVSPost2010Prop38
140
0.0
102
RTVSPost2010PropOp38
 70
     1
102
RTVSPost2010Prop39
140
1.0
102
RTVSPost2010PropOp39
 70
     1
102
RTVSPost2010Prop40
 90
        0
102
RTVSPost2010PropOp40
 70
     1
102
RTVSPost2010Prop41ColorIndex
 90
       18
102
RTVSPost2010Prop41ColorRGB
 90
        0
102
RTVSPost2010PropOp41
 70
     1
102
RTVSPost2010Prop42
 90
       50
102
RTVSPost2010PropOp42
 70
     1
102
RTVSPost2010Prop43
 90
        3
102
RTVSPost2010PropOp43
 70
     1
102
RTVSPost2010Prop44ColorIndex
 90
        5
102
RTVSPost2010Prop44ColorRGB
 90
      255
102
RTVSPost2010PropOp44
 70
     1
102
RTVSPost2010Prop45
280
     0
102
RTVSPost2010PropOp45
 70
     1
102
RTVSPost2010Prop46
 90
       50
102
RTVSPost2010PropOp46
 70
     1
102
RTVSPost2010Prop47
 90
       50
102
RTVSPost2010PropOp47
 70
     1
102
RTVSPost2010Prop48
 90
       50
102
RTVSPost2010PropOp48
 70
     1
102
RTVSPost2010Prop49
280
     0
102
RTVSPost2010PropOp49
 70
     1
102
RTVSPost2010Prop50
 90
       50
102
RTVSPost2010PropOp50
 70
     1
102
RTVSPost2010Prop51ColorIndex
 90
      256
102
RTVSPost2010Prop51ColorRGB
 90
-16777216
102
RTVSPost2010PropOp51
 70
     0
102
RTVSPost2010Prop52
140
1.0
102
RTVSPost2010PropOp52
 70
     0
102
RTVSPost2010Prop53
 90
        2
102
RTVSPost2010PropOp53
 70
     1
102
RTVSPost2010Prop54
  1
strokes_ogs.tif
102
RTVSPost2010PropOp54
 70
     1
102
RTVSPost2010Prop55
280
     0
102
RTVSPost2010PropOp55
 70
     1
102
RTVSPost2010Prop56
140
1.0
102
RTVSPost2010PropOp56
 70
     1
102
RTVSPost2010Prop57
140
1.0
102
RTVSPost2010PropOp57
 70
     1
  0
XRECORD
  5
26E
102
{ACAD_REACTORS
330
26D
102
}
330
26D
100
AcDbXrecord
280
     1
102
RTVSPost2010Prop28
280
     0
102
RTVSPost2010PropOp28
 70
     1
102
RTVSPost2010Prop29
280
     1
102
RTVSPost2010PropOp29
 70
     1
102
RTVSPost2010Prop30
280
     1
102
RTVSPost2010PropOp30
 70
     1
102
RTVSPost2010Prop31
280
     0
102
RTVSPost2010PropOp31
 70
     1
102
RTVSPost2010Prop32
280
     0
102
RTVSPost2010PropOp32
 70
     1
102
RTVSPost2010Prop33
280
     0
102
RTVSPost2010PropOp33
 70
     1
102
RTVSPost2010Prop34
280
     0
102
RTVSPost2010PropOp34
 70
     1
102
RTVSPost2010Prop35
280
     0
102
RTVSPost2010PropOp35
 70
     1
102
RTVSPost2010Prop36
280
     0
102
RTVSPost2010PropOp36
 70
     1
102
RTVSPost2010Prop37
 90
       50
102
RTVSPost2010PropOp37
 70
     1
102
RTVSPost2010Prop38
140
0.0
102
RTVSPost2010PropOp38
 70
     1
102
RTVSPost2010Prop39
140
1.0
102
RTVSPost2010PropOp39
 70
     1
102
RTVSPost2010Prop40
 90
        0
102
RTVSPost2010PropOp40
 70
     1
102
RTVSPost2010Prop41ColorIndex
 90
       18
102
RTVSPost2010Prop41ColorRGB
 90
        0
102
RTVSPost2010PropOp41
 70
     1
102
RTVSPost2010Prop42
 90
       50
102
RTVSPost2010PropOp42
 70
     1
102
RTVSPost2010Prop43
 90
        3
102
RTVSPost2010PropOp43
 70
     1
102
RTVSPost2010Prop44ColorIndex
 90
        5
102
RTVSPost2010Prop44ColorRGB
 90
      255
102
RTVSPost2010PropOp44
 70
     1
102
RTVSPost2010Prop45
280
     0
102
RTVSPost2010PropOp45
 70
     1
102
RTVSPost2010Prop46
 90
       50
102
RTVSPost2010PropOp46
 70
     1
102
RTVSPost2010Prop47
 90
       50
102
RTVSPost2010PropOp47
 70
     1
102
RTVSPost2010Prop48
 90
       50
102
RTVSPost2010PropOp48
 70
     1
102
RTVSPost2010Prop49
280
     0
102
RTVSPost2010PropOp49
 70
     1
102
RTVSPost2010Prop50
 90
       50
102
RTVSPost2010PropOp50
 70
     1
102
RTVSPost2010Prop51ColorIndex
 90
      256
102
RTVSPost2010Prop51ColorRGB
 90
-16777216
102
RTVSPost2010PropOp51
 70
     0
102
RTVSPost2010Prop52
140
1.0
102
RTVSPost2010PropOp52
 70
     0
102
RTVSPost2010Prop53
 90
        2
102
RTVSPost2010PropOp53
 70
     1
102
RTVSPost2010Prop54
  1
strokes_ogs.tif
102
RTVSPost2010PropOp54
 70
     1
102
RTVSPost2010Prop55
280
     0
102
RTVSPost2010PropOp55
 70
     1
102
RTVSPost2010Prop56
140
1.0
102
RTVSPost2010PropOp56
 70
     1
102
RTVSPost2010Prop57
140
1.0
102
RTVSPost2010PropOp57
 70
     1
  0
XRECORD
  5
262
102
{ACAD_REACTORS
330
261
102
}
330
261
100
AcDbXrecord
280
     1
102
RTVSPost2010Prop28
280
     0
102
RTVSPost2010PropOp28
 70
     1
102
RTVSPost2010Prop29
280
     1
102
RTVSPost2010PropOp29
 70
     1
102
RTVSPost2010Prop30
280
     1
102
RTVSPost2010PropOp30
 70
     1
102
RTVSPost2010Prop31
280
     0
102
RTVSPost2010PropOp31
 70
     1
102
RTVSPost2010Prop32
280
     0
102
RTVSPost2010PropOp32
 70
     1
102
RTVSPost2010Prop33
280
     0
102
RTVSPost2010PropOp33
 70
     1
102
RTVSPost2010Prop34
280
     0
102
RTVSPost2010PropOp34
 70
     1
102
RTVSPost2010Prop35
280
     0
102
RTVSPost2010PropOp35
 70
     1
102
RTVSPost2010Prop36
280
     0
102
RTVSPost2010PropOp36
 70
     1
102
RTVSPost2010Prop37
 90
       50
102
RTVSPost2010PropOp37
 70
     1
102
RTVSPost2010Prop38
140
0.0
102
RTVSPost2010PropOp38
 70
     1
102
RTVSPost2010Prop39
140
1.0
102
RTVSPost2010PropOp39
 70
     1
102
RTVSPost2010Prop40
 90
        0
102
RTVSPost2010PropOp40
 70
     1
102
RTVSPost2010Prop41ColorIndex
 90
       18
102
RTVSPost2010Prop41ColorRGB
 90
        0
102
RTVSPost2010PropOp41
 70
     1
102
RTVSPost2010Prop42
 90
       50
102
RTVSPost2010PropOp42
 70
     1
102
RTVSPost2010Prop43
 90
        3
102
RTVSPost2010PropOp43
 70
     1
102
RTVSPost2010Prop44ColorIndex
 90
        5
102
RTVSPost2010Prop44ColorRGB
 90
      255
102
RTVSPost2010PropOp44
 70
     1
102
RTVSPost2010Prop45
280
     0
102
RTVSPost2010PropOp45
 70
     1
102
RTVSPost2010Prop46
 90
       50
102
RTVSPost2010PropOp46
 70
     1
102
RTVSPost2010Prop47
 90
       50
102
RTVSPost2010PropOp47
 70
     1
102
RTVSPost2010Prop48
 90
       50
102
RTVSPost2010PropOp48
 70
     1
102
RTVSPost2010Prop49
280
     0
102
RTVSPost2010PropOp49
 70
     1
102
RTVSPost2010Prop50
 90
       50
102
RTVSPost2010PropOp50
 70
     1
102
RTVSPost2010Prop51ColorIndex
 90
      256
102
RTVSPost2010Prop51ColorRGB
 90
-16777216
102
RTVSPost2010PropOp51
 70
     0
102
RTVSPost2010Prop52
140
1.0
102
RTVSPost2010PropOp52
 70
     0
102
RTVSPost2010Prop53
 90
        2
102
RTVSPost2010PropOp53
 70
     1
102
RTVSPost2010Prop54
  1
strokes_ogs.tif
102
RTVSPost2010PropOp54
 70
     1
102
RTVSPost2010Prop55
280
     0
102
RTVSPost2010PropOp55
 70
     1
102
RTVSPost2010Prop56
140
1.0
102
RTVSPost2010PropOp56
 70
     1
102
RTVSPost2010Prop57
140
1.0
102
RTVSPost2010PropOp57
 70
     1
  0
XRECORD
  5
27A
102
{ACAD_REACTORS
330
279
102
}
330
279
100
AcDbXrecord
280
     1
102
RTVSPost2010Prop28
280
     0
102
RTVSPost2010PropOp28
 70
     1
102
RTVSPost2010Prop29
280
     1
102
RTVSPost2010PropOp29
 70
     1
102
RTVSPost2010Prop30
280
     1
102
RTVSPost2010PropOp30
 70
     1
102
RTVSPost2010Prop31
280
     0
102
RTVSPost2010PropOp31
 70
     1
102
RTVSPost2010Prop32
280
     0
102
RTVSPost2010PropOp32
 70
     1
102
RTVSPost2010Prop33
280
     0
102
RTVSPost2010PropOp33
 70
     1
102
RTVSPost2010Prop34
280
     0
102
RTVSPost2010PropOp34
 70
     1
102
RTVSPost2010Prop35
280
     0
102
RTVSPost2010PropOp35
 70
     1
102
RTVSPost2010Prop36
280
     0
102
RTVSPost2010PropOp36
 70
     1
102
RTVSPost2010Prop37
 90
       50
102
RTVSPost2010PropOp37
 70
     1
102
RTVSPost2010Prop38
140
0.0
102
RTVSPost2010PropOp38
 70
     1
102
RTVSPost2010Prop39
140
1.0
102
RTVSPost2010PropOp39
 70
     1
102
RTVSPost2010Prop40
 90
        0
102
RTVSPost2010PropOp40
 70
     1
102
RTVSPost2010Prop41ColorIndex
 90
       18
102
RTVSPost2010Prop41ColorRGB
 90
        0
102
RTVSPost2010PropOp41
 70
     1
102
RTVSPost2010Prop42
 90
       50
102
RTVSPost2010PropOp42
 70
     1
102
RTVSPost2010Prop43
 90
        3
102
RTVSPost2010PropOp43
 70
     1
102
RTVSPost2010Prop44ColorIndex
 90
        5
102
RTVSPost2010Prop44ColorRGB
 90
      255
102
RTVSPost2010PropOp44
 70
     1
102
RTVSPost2010Prop45
280
     0
102
RTVSPost2010PropOp45
 70
     1
102
RTVSPost2010Prop46
 90
       50
102
RTVSPost2010PropOp46
 70
     1
102
RTVSPost2010Prop47
 90
       50
102
RTVSPost2010PropOp47
 70
     1
102
RTVSPost2010Prop48
 90
       50
102
RTVSPost2010PropOp48
 70
     1
102
RTVSPost2010Prop49
280
     0
102
RTVSPost2010PropOp49
 70
     1
102
RTVSPost2010Prop50
 90
       50
102
RTVSPost2010PropOp50
 70
     1
102
RTVSPost2010Prop51ColorIndex
 90
      256
102
RTVSPost2010Prop51ColorRGB
 90
-16777216
102
RTVSPost2010PropOp51
 70
     0
102
RTVSPost2010Prop52
140
1.0
102
RTVSPost2010PropOp52
 70
     0
102
RTVSPost2010Prop53
 90
        2
102
RTVSPost2010PropOp53
 70
     1
102
RTVSPost2010Prop54
  1
strokes_ogs.tif
102
RTVSPost2010PropOp54
 70
     1
102
RTVSPost2010Prop55
280
     0
102
RTVSPost2010PropOp55
 70
     1
102
RTVSPost2010Prop56
140
1.0
102
RTVSPost2010PropOp56
 70
     1
102
RTVSPost2010Prop57
140
1.0
102
RTVSPost2010PropOp57
 70
     1
  0
ENDSEC
  0
EOF
