  0
SECTION
  2
HEADER
  9
$ACADVER
  1
AC1024
  9
$ACADMAINTVER
 70
   155
  9
$DWGCODEPAGE
  3
ANSI_1252
  9
$INSBASE
 10
0.0
 20
0.0
 30
0.0
  9
$EXTMIN
 10
1.000000000000000E+20
 20
1.000000000000000E+20
 30
1.000000000000000E+20
  9
$EXTMAX
 10
-1.000000000000000E+20
 20
-1.000000000000000E+20
 30
-1.000000000000000E+20
  9
$LIMMIN
 10
0.0
 20
0.0
  9
$LIMMAX
 10
12.0
 20
9.0
  9
$ORTHOMODE
 70
     0
  9
$REGENMODE
 70
     1
  9
$FILLMODE
 70
     1
  9
$QTEXTMODE
 70
     0
  9
$MIRRTEXT
 70
     1
  9
$LTSCALE
 40
1.0
  9
$ATTMODE
 70
     1
  9
$TEXTSIZE
 40
0.2
  9
$TRACEWID
 40
0.05
  9
$TEXTSTYLE
  7
Standard
  9
$CLAYER
  8
0
  9
$CELTYPE
  6
ByLayer
  9
$CECOLOR
 62
   256
  9
$CELTSCALE
 40
1.0
  9
$DISPSILH
 70
     0
  9
$DIMSCALE
 40
1.0
  9
$DIMASZ
 40
0.18
  9
$DIMEXO
 40
0.0625
  9
$DIMDLI
 40
0.38
  9
$DIMRND
 40
0.0
  9
$DIMDLE
 40
0.0
  9
$DIMEXE
 40
0.18
  9
$DIMTP
 40
0.0
  9
$DIMTM
 40
0.0
  9
$DIMTXT
 40
0.18
  9
$DIMCEN
 40
0.09
  9
$DIMTSZ
 40
0.0
  9
$DIMTOL
 70
     0
  9
$DIMLIM
 70
     0
  9
$DIMTIH
 70
     1
  9
$DIMTOH
 70
     1
  9
$DIMSE1
 70
     0
  9
$DIMSE2
 70
     0
  9
$DIMTAD
 70
     0
  9
$DIMZIN
 70
     0
  9
$DIMBLK
  1

  9
$DIMASO
 70
     1
  9
$DIMSHO
 70
     1
  9
$DIMPOST
  1

  9
$DIMAPOST
  1

  9
$DIMALT
 70
     0
  9
$DIMALTD
 70
     2
  9
$DIMALTF
 40
25.4
  9
$DIMLFAC
 40
1.0
  9
$DIMTOFL
 70
     0
  9
$DIMTVP
 40
0.0
  9
$DIMTIX
 70
     0
  9
$DIMSOXD
 70
     0
  9
$DIMSAH
 70
     0
  9
$DIMBLK1
  1

  9
$DIMBLK2
  1

  9
$DIMSTYLE
  2
Standard
  9
$DIMCLRD
 70
     0
  9
$DIMCLRE
 70
     0
  9
$DIMCLRT
 70
     0
  9
$DIMTFAC
 40
1.0
  9
$DIMGAP
 40
0.09
  9
$DIMJUST
 70
     0
  9
$DIMSD1
 70
     0
  9
$DIMSD2
 70
     0
  9
$DIMTOLJ
 70
     1
  9
$DIMTZIN
 70
     0
  9
$DIMALTZ
 70
     0
  9
$DIMALTTZ
 70
     0
  9
$DIMUPT
 70
     0
  9
$DIMDEC
 70
     4
  9
$DIMTDEC
 70
     4
  9
$DIMALTU
 70
     2
  9
$DIMALTTD
 70
     2
  9
$DIMTXSTY
  7
Standard
  9
$DIMAUNIT
 70
     0
  9
$DIMADEC
 70
     0
  9
$DIMALTRND
 40
0.0
  9
$DIMAZIN
 70
     0
  9
$DIMDSEP
 70
    46
  9
$DIMATFIT
 70
     3
  9
$DIMFRAC
 70
     0
  9
$DIMLDRBLK
  1

  9
$DIMLUNIT
 70
     2
  9
$DIMLWD
 70
    -2
  9
$DIMLWE
 70
    -2
  9
$DIMTMOVE
 70
     0
  9
$DIMFXL
 40
1.0
  9
$DIMFXLON
 70
     0
  9
$DIMJOGANG
 40
0.7853981633974483
  9
$DIMTFILL
 70
     0
  9
$DIMTFILLCLR
 70
     0
  9
$DIMARCSYM
 70
     0
  9
$DIMLTYPE
  6

  9
$DIMLTEX1
  6

  9
$DIMLTEX2
  6

  9
$DIMTXTDIRECTION
 70
     0
  9
$LUNITS
 70
     2
  9
$LUPREC
 70
     4
  9
$SKETCHINC
 40
0.1
  9
$FILLETRAD
 40
0.5
  9
$AUNITS
 70
     0
  9
$AUPREC
 70
     0
  9
$MENU
  1
.
  9
$ELEVATION
 40
0.0
  9
$PELEVATION
 40
0.0
  9
$THICKNESS
 40
0.0
  9
$LIMCHECK
 70
     0
  9
$CHAMFERA
 40
0.5
  9
$CHAMFERB
 40
0.5
  9
$CHAMFERC
 40
1.0
  9
$CHAMFERD
 40
0.0
  9
$SKPOLY
 70
     0
  9
$TDCREATE
 40
2451380.888765729
  9
$TDUCREATE
 40
2451380.805432396
  9
$TDUPDATE
 40
2451380.924513889
  9
$TDUUPDATE
 40
2451380.841180556
  9
$TDINDWG
 40
0.0075616435
  9
$TDUSRTIMER
 40
0.0075526042
  9
$USRTIMER
 70
     1
  9
$ANGBASE
 50
0.0
  9
$ANGDIR
 70
     0
  9
$PDMODE
 70
     0
  9
$PDSIZE
 40
0.0
  9
$PLINEWID
 40
0.0
  9
$SPLFRAME
 70
     0
  9
$SPLINETYPE
 70
     6
  9
$SPLINESEGS
 70
     8
  9
$HANDSEED
  5
270
  9
$SURFTAB1
 70
     6
  9
$SURFTAB2
 70
     6
  9
$SURFTYPE
 70
     6
  9
$SURFU
 70
     6
  9
$SURFV
 70
     6
  9
$UCSBASE
  2

  9
$UCSNAME
  2

  9
$UCSORG
 10
0.0
 20
0.0
 30
0.0
  9
$UCSXDIR
 10
1.0
 20
0.0
 30
0.0
  9
$UCSYDIR
 10
0.0
 20
1.0
 30
0.0
  9
$UCSORTHOREF
  2

  9
$UCSORTHOVIEW
 70
     0
  9
$UCSORGTOP
 10
0.0
 20
0.0
 30
0.0
  9
$UCSORGBOTTOM
 10
0.0
 20
0.0
 30
0.0
  9
$UCSORGLEFT
 10
0.0
 20
0.0
 30
0.0
  9
$UCSORGRIGHT
 10
0.0
 20
0.0
 30
0.0
  9
$UCSORGFRONT
 10
0.0
 20
0.0
 30
0.0
  9
$UCSORGBACK
 10
0.0
 20
0.0
 30
0.0
  9
$PUCSBASE
  2

  9
$PUCSNAME
  2

  9
$PUCSORG
 10
0.0
 20
0.0
 30
0.0
  9
$PUCSXDIR
 10
1.0
 20
0.0
 30
0.0
  9
$PUCSYDIR
 10
0.0
 20
1.0
 30
0.0
  9
$PUCSORTHOREF
  2

  9
$PUCSORTHOVIEW
 70
     0
  9
$PUCSORGTOP
 10
0.0
 20
0.0
 30
0.0
  9
$PUCSORGBOTTOM
 10
0.0
 20
0.0
 30
0.0
  9
$PUCSORGLEFT
 10
0.0
 20
0.0
 30
0.0
  9
$PUCSORGRIGHT
 10
0.0
 20
0.0
 30
0.0
  9
$PUCSORGFRONT
 10
0.0
 20
0.0
 30
0.0
  9
$PUCSORGBACK
 10
0.0
 20
0.0
 30
0.0
  9
$USERI1
 70
     0
  9
$USERI2
 70
     0
  9
$USERI3
 70
     0
  9
$USERI4
 70
     0
  9
$USERI5
 70
     0
  9
$USERR1
 40
0.0
  9
$USERR2
 40
0.0
  9
$USERR3
 40
0.0
  9
$USERR4
 40
0.0
  9
$USERR5
 40
0.0
  9
$WORLDVIEW
 70
     1
  9
$SHADEDGE
 70
     3
  9
$SHADEDIF
 70
    70
  9
$TILEMODE
 70
     1
  9
$MAXACTVP
 70
    64
  9
$PINSBASE
 10
0.0
 20
0.0
 30
0.0
  9
$PLIMCHECK
 70
     0
  9
$PEXTMIN
 10
1.000000000000000E+20
 20
1.000000000000000E+20
 30
1.000000000000000E+20
  9
$PEXTMAX
 10
-1.000000000000000E+20
 20
-1.000000000000000E+20
 30
-1.000000000000000E+20
  9
$PLIMMIN
 10
0.0
 20
0.0
  9
$PLIMMAX
 10
12.0
 20
9.0
  9
$UNITMODE
 70
     0
  9
$VISRETAIN
 70
     1
  9
$PLINEGEN
 70
     0
  9
$PSLTSCALE
 70
     1
  9
$TREEDEPTH
 70
  3020
  9
$CMLSTYLE
  2
Standard
  9
$CMLJUST
 70
     0
  9
$CMLSCALE
 40
1.0
  9
$PROXYGRAPHICS
 70
     1
  9
$MEASUREMENT
 70
     1
  9
$CELWEIGHT
370
    -1
  9
$ENDCAPS
280
     0
  9
$JOINSTYLE
280
     0
  9
$LWDISPLAY
290
     0
  9
$INSUNITS
 70
     4
  9
$HYPERLINKBASE
  1

  9
$STYLESHEET
  1

  9
$XEDIT
290
     1
  9
$CEPSNTYPE
380
     0
  9
$PSTYLEMODE
290
     1
  9
$FINGERPRINTGUID
  2
{12F50282-3ED8-11D3-A8B7-0060B0F84BC6}
  9
$VERSIONGUID
  2
{12F50293-3ED8-11D3-A8B7-0060B0F84BC6}
  9
$EXTNAMES
290
     1
  9
$PSVPSCALE
 40
0.0
  9
$OLESTARTUP
290
     0
  9
$SORTENTS
280
   127
  9
$INDEXCTL
280
     0
  9
$HIDETEXT
280
     0
  9
$XCLIPFRAME
280
     2
  9
$HALOGAP
280
     0
  9
$OBSCOLOR
 70
   257
  9
$OBSLTYPE
280
     0
  9
$INTERSECTIONDISPLAY
280
     0
  9
$INTERSECTIONCOLOR
 70
   257
  9
$DIMASSOC
280
     1
  9
$PROJECTNAME
  1

  9
$CAMERADISPLAY
290
     0
  9
$LENSLENGTH
 40
50.0
  9
$CAMERAHEIGHT
 40
0.0
  9
$STEPSPERSEC
 40
2.0
  9
$STEPSIZE
 40
6.0
  9
$3DDWFPREC
 40
2.0
  9
$PSOLWIDTH
 40
0.25
  9
$PSOLHEIGHT
 40
4.0
  9
$LOFTANG1
 40
1.570796326794896
  9
$LOFTANG2
 40
1.570796326794896
  9
$LOFTMAG1
 40
0.0
  9
$LOFTMAG2
 40
0.0
  9
$LOFTPARAM
 70
     7
  9
$LOFTNORMALS
280
     1
  9
$LATITUDE
 40
37.795
  9
$LONGITUDE
 40
-122.394
  9
$NORTHDIRECTION
 40
0.0
  9
$TIMEZONE
 70
 -8000
  9
$LIGHTGLYPHDISPLAY
280
     1
  9
$TILEMODELIGHTSYNCH
280
     1
  9
$CMATERIAL
347
AB
  9
$SOLIDHIST
280
     0
  9
$SHOWHIST
280
     1
  9
$DWFFRAME
280
     2
  9
$DGNFRAME
280
     0
  9
$REALWORLDSCALE
290
     1
  9
$INTERFERECOLOR
 62
     1
  9
$INTERFEREOBJVS
345
CD
  9
$INTERFEREVPVS
346
CA
  9
$CSHADOW
280
     0
  9
$SHADOWPLANELOCATION
 40
0.0
  0
ENDSEC
  0
SECTION
  2
CLASSES
  0
CLASS
  1
ACDBDICTIONARYWDFLT
  2
AcDbDictionaryWithDefault
  3
ObjectDBX Classes
 90
        0
 91
        1
280
     0
281
     0
  0
CLASS
  1
ACDBPLACEHOLDER
  2
AcDbPlaceHolder
  3
ObjectDBX Classes
 90
        0
 91
        2
280
     0
281
     0
  0
CLASS
  1
LAYOUT
  2
AcDbLayout
  3
ObjectDBX Classes
 90
        0
 91
        3
280
     0
281
     0
  0
CLASS
  1
MATERIAL
  2
AcDbMaterial
  3
ObjectDBX Classes
 90
     1153
 91
        3
280
     0
281
     0
  0
CLASS
  1
VISUALSTYLE
  2
AcDbVisualStyle
  3
ObjectDBX Classes
 90
     4095
 91
       24
280
     0
281
     0
  0
CLASS
  1
TABLESTYLE
  2
AcDbTableStyle
  3
ObjectDBX Classes
 90
     4095
 91
        1
280
     0
281
     0
  0
CLASS
  1
SCALE
  2
AcDbScale
  3
ObjectDBX Classes
 90
     1153
 91
       17
280
     0
281
     0
  0
CLASS
  1
MLEADERSTYLE
  2
AcDbMLeaderStyle
  3
ACDB_MLEADERSTYLE_CLASS
 90
     4095
 91
        1
280
     0
281
     0
  0
CLASS
  1
ACDBSECTIONVIEWSTYLE
  2
AcDbSectionViewStyle
  3
ObjectDBX Classes
 90
     1025
 91
        1
280
     0
281
     0
  0
CLASS
  1
ACDBDETAILVIEWSTYLE
  2
AcDbDetailViewStyle
  3
ObjectDBX Classes
 90
     1025
 91
        1
280
     0
281
     0
  0
CLASS
  1
DICTIONARYVAR
  2
AcDbDictionaryVar
  3
ObjectDBX Classes
 90
        0
 91
        9
280
     0
281
     0
  0
CLASS
  1
CELLSTYLEMAP
  2
AcDbCellStyleMap
  3
ObjectDBX Classes
 90
     1152
 91
        1
280
     0
281
     0
  0
ENDSEC
  0
SECTION
  2
TABLES
  0
TABLE
  2
VPORT
  5
8
330
0
100
AcDbSymbolTable
 70
     1
  0
VPORT
  5
A8
330
8
100
AcDbSymbolTableRecord
100
AcDbViewportTableRecord
  2
*Active
 70
     0
 10
0.0
 20
0.0
 11
1.0
 21
1.0
 12
22.90769577026367
 22
-28.74892234802246
 13
0.0
 23
0.0
 14
0.5
 24
0.5
 15
0.5
 25
0.5
 16
-1.0
 26
-1.0
 36
1.0
 17
0.0
 27
0.0
 37
0.0
 40
139.0228530612839
 41
0.1004477971077207
 42
50.0
 43
0.0
 44
0.0
 50
0.0
 51
0.0
 71
     0
 72
   100
 73
     1
 74
     3
 75
     0
 76
     0
 77
     0
 78
     0
281
     0
 65
     1
110
0.0
120
0.0
130
0.0
111
1.0
121
0.0
131
0.0
112
0.0
122
1.0
132
0.0
 79
     0
146
0.0
348
C9
 60
     3
 61
     5
292
     1
282
     1
141
0.0
142
0.0
 63
   250
421
  3355443
  0
ENDTAB
  0
TABLE
  2
LTYPE
  5
5
330
0
100
AcDbSymbolTable
 70
     1
  0
LTYPE
  5
14
330
5
100
AcDbSymbolTableRecord
100
AcDbLinetypeTableRecord
  2
ByBlock
 70
     0
  3

 72
    65
 73
     0
 40
0.0
  0
LTYPE
  5
15
330
5
100
AcDbSymbolTableRecord
100
AcDbLinetypeTableRecord
  2
ByLayer
 70
     0
  3

 72
    65
 73
     0
 40
0.0
  0
LTYPE
  5
16
330
5
100
AcDbSymbolTableRecord
100
AcDbLinetypeTableRecord
  2
Continuous
 70
     0
  3
Solid line
 72
    65
 73
     0
 40
0.0
  0
ENDTAB
  0
TABLE
  2
LAYER
  5
2
330
0
100
AcDbSymbolTable
 70
     2
  0
LAYER
  5
10
330
2
100
AcDbSymbolTableRecord
100
AcDbLayerTableRecord
  2
0
 70
     0
 62
   194
420
  5577905
  6
Continuous
370
    -3
390
F
347
BB
  0
LAYER
  5
2B
330
2
100
AcDbSymbolTableRecord
100
AcDbLayerTableRecord
  2
ASHADE
 70
     4
 62
     7
  6
Continuous
370
    -3
390
2D
347
BB
  0
ENDTAB
  0
TABLE
  2
STYLE
  5
3
330
0
100
AcDbSymbolTable
 70
     2
  0
STYLE
  5
11
330
3
100
AcDbSymbolTableRecord
100
AcDbTextStyleTableRecord
  2
Standard
 70
     0
 40
0.0
 41
1.0
 50
0.0
 71
     0
 42
0.2
  3
txt
  4

  0
STYLE
  5
2C
330
3
100
AcDbSymbolTableRecord
100
AcDbTextStyleTableRecord
  2
ASHADE
 70
     0
 40
0.2
 41
1.0
 50
0.0
 71
     0
 42
0.2
  3
simplex
  4

  0
ENDTAB
  0
TABLE
  2
VIEW
  5
6
330
0
100
AcDbSymbolTable
 70
     0
  0
ENDTAB
  0
TABLE
  2
UCS
  5
7
330
0
100
AcDbSymbolTable
 70
     0
  0
ENDTAB
  0
TABLE
  2
APPID
  5
9
330
0
100
AcDbSymbolTable
 70
     6
  0
APPID
  5
12
330
9
100
AcDbSymbolTableRecord
100
AcDbRegAppTableRecord
  2
ACAD
 70
     0
  0
APPID
  5
8F
330
9
100
AcDbSymbolTableRecord
100
AcDbRegAppTableRecord
  2
AVE_RENDER
 70
     0
  0
APPID
  5
90
330
9
100
AcDbSymbolTableRecord
100
AcDbRegAppTableRecord
  2
AVE_ENTITY_MATERIAL
 70
     0
  0
APPID
  5
9C
330
9
100
AcDbSymbolTableRecord
100
AcDbRegAppTableRecord
  2
AVE_FINISH
 70
     0
  0
APPID
  5
9D
330
9
100
AcDbSymbolTableRecord
100
AcDbRegAppTableRecord
  2
AVE_MATERIAL
 70
     0
  0
APPID
  5
9E
330
9
100
AcDbSymbolTableRecord
100
AcDbRegAppTableRecord
  2
AVE_GLOBAL
 70
     0
  0
ENDTAB
  0
TABLE
  2
DIMSTYLE
  5
A
330
0
100
AcDbSymbolTable
 70
     1
100
AcDbDimStyleTable
 71
     0
  0
DIMSTYLE
105
27
330
A
100
AcDbSymbolTableRecord
100
AcDbDimStyleTableRecord
  2
Standard
 70
     0
340
11
  0
ENDTAB
  0
TABLE
  2
BLOCK_RECORD
  5
1
330
0
100
AcDbSymbolTable
 70
     6
  0
BLOCK_RECORD
  5
1F
330
1
100
AcDbSymbolTableRecord
100
AcDbBlockTableRecord
  2
*Model_Space
340
22
 70
     0
280
     1
281
     0
  0
BLOCK_RECORD
  5
1B
330
1
100
AcDbSymbolTableRecord
100
AcDbBlockTableRecord
  2
*Paper_Space
340
1E
 70
     0
280
     1
281
     0
  0
BLOCK_RECORD
  5
23
330
1
100
AcDbSymbolTableRecord
100
AcDbBlockTableRecord
  2
*Paper_Space0
340
26
 70
     0
280
     1
281
     0
  0
BLOCK_RECORD
  5
2E
330
1
100
AcDbSymbolTableRecord
100
AcDbBlockTableRecord
  2
direct
340
0
 70
     0
280
     1
281
     0
  0
BLOCK_RECORD
  5
42
330
1
100
AcDbSymbolTableRecord
100
AcDbBlockTableRecord
  2
overhead
340
0
 70
     0
280
     1
281
     0
  0
BLOCK_RECORD
  5
5F
330
1
100
AcDbSymbolTableRecord
100
AcDbBlockTableRecord
  2
sh_spot
340
0
 70
     0
280
     1
281
     0
  0
BLOCK_RECORD
  5
91
330
1
100
AcDbSymbolTableRecord
100
AcDbBlockTableRecord
  2
AVE_RENDER
340
0
102
{BLKREFS
331
94
331
95
331
96
331
97
331
98
331
99
331
9A
331
9B
102
}
 70
     0
280
     1
281
     0
  0
BLOCK_RECORD
  5
9F
330
1
100
AcDbSymbolTableRecord
100
AcDbBlockTableRecord
  2
AVE_GLOBAL
340
0
102
{BLKREFS
331
A2
102
}
 70
     0
280
     1
281
     0
  0
ENDTAB
  0
ENDSEC
  0
SECTION
  2
BLOCKS
  0
BLOCK
  5
20
330
1F
100
AcDbEntity
  8
0
100
AcDbBlockBegin
  2
*Model_Space
 70
     0
 10
0.0
 20
0.0
 30
0.0
  3
*Model_Space
  1

  0
ENDBLK
  5
21
330
1F
100
AcDbEntity
  8
0
100
AcDbBlockEnd
  0
BLOCK
  5
1C
330
1B
100
AcDbEntity
 67
     1
  8
0
100
AcDbBlockBegin
  2
*Paper_Space
 70
     0
 10
0.0
 20
0.0
 30
0.0
  3
*Paper_Space
  1

  0
ENDBLK
  5
1D
330
1B
100
AcDbEntity
 67
     1
  8
0
100
AcDbBlockEnd
  0
BLOCK
  5
24
330
23
100
AcDbEntity
 67
     1
  8
0
100
AcDbBlockBegin
  2
*Paper_Space0
 70
     0
 10
0.0
 20
0.0
 30
0.0
  3
*Paper_Space0
  1

  0
ENDBLK
  5
25
330
23
100
AcDbEntity
 67
     1
  8
0
100
AcDbBlockEnd
  0
BLOCK
  5
40
330
2E
100
AcDbEntity
  8
0
100
AcDbBlockBegin
  2
direct
 70
     2
 10
0.0
 20
0.0
 30
0.0
  3
direct
  1

  0
ATTDEF
  5
2F
330
2E
100
AcDbEntity
  8
ASHADE
  6
Continuous
 62
     1
100
AcDbText
 10
0.0
 20
-0.1
 30
0.0
 40
0.2
  1

  7
ASHADE
 72
     1
 11
0.0
 21
-0.1
 31
0.0
100
AcDbAttributeDefinition
280
     0
  3
Light Name
  2
SNAME
 70
     0
280
     0
  0
ARC
  5
30
330
2E
100
AcDbEntity
  8
ASHADE
  6
Continuous
 62
     7
100
AcDbCircle
 10
0.0
 20
0.0
 30
0.0
 40
0.3
100
AcDbArc
 50
205.6792886194569
 51
334.3207113805431
  0
ARC
  5
31
330
2E
100
AcDbEntity
  8
ASHADE
  6
Continuous
 62
     7
100
AcDbCircle
 10
0.0
 20
0.0
 30
0.0
 40
0.3
100
AcDbArc
 50
25.67928861945685
 51
154.3207113805431
  0
LINE
  5
32
330
2E
100
AcDbEntity
  8
ASHADE
  6
Continuous
 62
     7
100
AcDbLine
 10
-0.21
 20
0.2142428528562855
 30
0.0
 11
-0.21
 21
0.5
 31
0.0
  0
LINE
  5
33
330
2E
100
AcDbEntity
  8
ASHADE
  6
Continuous
 62
     7
100
AcDbLine
 10
-0.11
 20
0.2791057147390572
 30
0.0
 11
-0.11
 21
0.5
 31
0.0
  0
LINE
  5
34
330
2E
100
AcDbEntity
  8
ASHADE
  6
Continuous
 62
     7
100
AcDbLine
 10
0.21
 20
0.2142428528562855
 30
0.0
 11
0.21
 21
0.5
 31
0.0
  0
ATTDEF
  5
35
330
2E
100
AcDbEntity
  8
ASHADE
  6
Continuous
 62
     7
100
AcDbText
 10
0.0
 20
0.25
 30
0.0
 40
0.01
  1

100
AcDbAttributeDefinition
280
     0
  3
Look-at Y
  2
LAY
 70
     1
280
     0
  0
ATTDEF
  5
36
330
2E
100
AcDbEntity
  8
ASHADE
  6
Continuous
 62
     7
100
AcDbText
 10
0.0
 20
0.22
 30
0.0
 40
0.01
  1
1
100
AcDbAttributeDefinition
280
     0
  3
Light Intensity
  2
INTENSITY
 70
     1
280
     0
  0
ATTDEF
  5
37
330
2E
100
AcDbEntity
  8
ASHADE
  6
Continuous
 62
     7
100
AcDbText
 10
0.0
 20
0.16
 30
0.0
 40
0.01
  1
-1
100
AcDbAttributeDefinition
280
     0
  3
*not used*
  2
BEAMD
 70
     1
280
     0
  0
ATTDEF
  5
38
330
2E
100
AcDbEntity
  8
ASHADE
  6
Continuous
 62
     7
100
AcDbText
 10
0.0
 20
0.175
 30
0.0
 40
0.01
  1
-1
100
AcDbAttributeDefinition
280
     0
  3
*not used*
  2
CONED
 70
     1
280
     0
  0
ATTDEF
  5
39
330
2E
100
AcDbEntity
  8
ASHADE
  6
Continuous
 62
     7
100
AcDbText
 10
0.0
 20
0.19
 30
0.0
 40
0.01
  1
0
100
AcDbAttributeDefinition
280
     0
  3
Depth Map Size
  2
CONEA
 70
     1
280
     0
  0
ATTDEF
  5
3A
330
2E
100
AcDbEntity
  8
ASHADE
  6
Continuous
 62
     7
100
AcDbText
 10
0.0
 20
0.2050000000000001
 30
0.0
 40
0.01
  1
1,1,1
100
AcDbAttributeDefinition
280
     0
  3
Light Color (RGB)
  2
COLOR
 70
     1
280
     0
  0
ATTDEF
  5
3B
330
2E
100
AcDbEntity
  8
ASHADE
  6
Continuous
 62
     7
100
AcDbText
 10
0.0
 20
0.235
 30
0.0
 40
0.01
  1

100
AcDbAttributeDefinition
280
     0
  3
Look-at Z
  2
LAZ
 70
     1
280
     0
  0
LINE
  5
3C
330
2E
100
AcDbEntity
  8
ASHADE
  6
Continuous
 62
     7
100
AcDbLine
 10
0.0
 20
0.3
 30
0.0
 11
0.0
 21
0.5
 31
0.0
  0
LINE
  5
3D
330
2E
100
AcDbEntity
  8
ASHADE
  6
Continuous
 62
     7
100
AcDbLine
 10
0.11
 20
0.2791057147390572
 30
0.0
 11
0.11
 21
0.5
 31
0.0
  0
ATTDEF
  5
3E
330
2E
100
AcDbEntity
  8
ASHADE
  6
Continuous
 62
     7
100
AcDbText
 10
0.0
 20
0.265
 30
0.0
 40
0.01
  1

100
AcDbAttributeDefinition
280
     0
  3
Look-at X
  2
LAX
 70
     1
280
     0
  0
ATTDEF
  5
3F
330
2E
100
AcDbEntity
  8
ASHADE
  6
Continuous
 62
     7
100
AcDbText
 10
0.0
 20
0.28
 30
0.0
 40
0.01
  1

100
AcDbAttributeDefinition
280
     0
  3

  2
GNAME
 70
     1
280
     0
  0
ENDBLK
  5
41
330
2E
100
AcDbEntity
  8
0
100
AcDbBlockEnd
  0
BLOCK
  5
5D
330
42
100
AcDbEntity
  8
0
100
AcDbBlockBegin
  2
overhead
 70
     2
 10
0.0
 20
0.0
 30
0.0
  3
overhead
  1

  0
ATTDEF
  5
43
330
42
100
AcDbEntity
  8
ASHADE
  6
Continuous
 62
     1
100
AcDbText
 10
0.0
 20
-0.1
 30
0.0
 40
0.2
  1

  7
ASHADE
 72
     1
 11
0.0
 21
-0.1
 31
0.0
100
AcDbAttributeDefinition
280
     0
  3
Light Name
  2
SNAME
 70
     0
280
     0
  0
ARC
  5
44
330
42
100
AcDbEntity
  8
ASHADE
  6
Continuous
 62
     7
100
AcDbCircle
 10
0.0
 20
0.0
 30
0.0
 40
0.3
100
AcDbArc
 50
205.6792886194569
 51
334.3207113805431
  0
LINE
  5
45
330
42
100
AcDbEntity
  8
ASHADE
  6
Continuous
 62
     7
100
AcDbLine
 10
-0.2041413561583015
 20
-0.2198324514393848
 30
0.0
 11
-0.2721884748777353
 21
-0.2931099352525131
 31
0.0
  0
LINE
  5
46
330
42
100
AcDbEntity
  8
ASHADE
  6
Continuous
 62
     7
100
AcDbLine
 10
-0.1096591641591904
 20
-0.2792398032442862
 30
0.0
 11
-0.1279356915190555
 21
-0.3257797704516673
 31
0.0
  0
LINE
  5
47
330
42
100
AcDbEntity
  8
ASHADE
  6
Continuous
 62
     7
100
AcDbLine
 10
0.0
 20
-0.2999999999999999
 30
0.0
 11
0.0
 21
-0.4
 31
0.0
  0
LINE
  5
48
330
42
100
AcDbEntity
  8
ASHADE
  6
Continuous
 62
     7
100
AcDbLine
 10
0.1096591641591904
 20
-0.2792398032442862
 30
0.0
 11
0.1279356915190555
 21
-0.3257797704516673
 31
0.0
  0
LINE
  5
49
330
42
100
AcDbEntity
  8
ASHADE
  6
Continuous
 62
     7
100
AcDbLine
 10
0.2041413561583015
 20
-0.2198324514393848
 30
0.0
 11
0.2721884748777353
 21
-0.2931099352525131
 31
0.0
  0
ARC
  5
4A
330
42
100
AcDbEntity
  8
ASHADE
  6
Continuous
 62
     7
100
AcDbCircle
 10
0.0
 20
0.0
 30
0.0
 40
0.3
100
AcDbArc
 50
25.67928861945685
 51
154.3207113805431
  0
LINE
  5
4B
330
42
100
AcDbEntity
  8
ASHADE
  6
Continuous
 62
     7
100
AcDbLine
 10
-0.2703701166919155
 20
0.13
 30
0.0
 11
-0.3154318028072347
 21
0.1516666666666666
 31
0.0
  0
LINE
  5
4C
330
42
100
AcDbEntity
  8
ASHADE
  6
Continuous
 62
     7
100
AcDbLine
 10
-0.2703701166919155
 20
-0.13
 30
0.0
 11
-0.3154318028072347
 21
-0.1516666666666666
 31
0.0
  0
LINE
  5
4D
330
42
100
AcDbEntity
  8
ASHADE
  6
Continuous
 62
     7
100
AcDbLine
 10
-0.2041413561583015
 20
0.2198324514393849
 30
0.0
 11
-0.2721884748777353
 21
0.2931099352525131
 31
0.0
  0
LINE
  5
4E
330
42
100
AcDbEntity
  8
ASHADE
  6
Continuous
 62
     7
100
AcDbLine
 10
-0.1096591641591904
 20
0.2792398032442862
 30
0.0
 11
-0.1279356915190555
 21
0.3257797704516674
 31
0.0
  0
LINE
  5
4F
330
42
100
AcDbEntity
  8
ASHADE
  6
Continuous
 62
     7
100
AcDbLine
 10
0.2703701166919155
 20
-0.13
 30
0.0
 11
0.3154318028072347
 21
-0.1516666666666666
 31
0.0
  0
LINE
  5
50
330
42
100
AcDbEntity
  8
ASHADE
  6
Continuous
 62
     7
100
AcDbLine
 10
0.2703701166919155
 20
0.13
 30
0.0
 11
0.3154318028072347
 21
0.1516666666666666
 31
0.0
  0
LINE
  5
51
330
42
100
AcDbEntity
  8
ASHADE
  6
Continuous
 62
     7
100
AcDbLine
 10
0.0
 20
0.3
 30
0.0
 11
0.0
 21
0.4
 31
0.0
  0
ATTDEF
  5
52
330
42
100
AcDbEntity
  8
ASHADE
  6
Continuous
 62
     7
100
AcDbText
 10
0.0
 20
0.22
 30
0.0
 40
0.01
  1
1
100
AcDbAttributeDefinition
280
     0
  3
Light Intensity
  2
INTENSITY
 70
     1
280
     0
  0
ATTDEF
  5
53
330
42
100
AcDbEntity
  8
ASHADE
  6
Continuous
 62
     7
100
AcDbText
 10
0.0
 20
0.16
 30
0.0
 40
0.01
  1
-1
100
AcDbAttributeDefinition
280
     0
  3
*not used*
  2
BEAMD
 70
     1
280
     0
  0
ATTDEF
  5
54
330
42
100
AcDbEntity
  8
ASHADE
  6
Continuous
 62
     7
100
AcDbText
 10
0.0
 20
0.175
 30
0.0
 40
0.01
  1
-1
100
AcDbAttributeDefinition
280
     0
  3
*not used*
  2
CONED
 70
     1
280
     0
  0
ATTDEF
  5
55
330
42
100
AcDbEntity
  8
ASHADE
  6
Continuous
 62
     7
100
AcDbText
 10
0.0
 20
0.19
 30
0.0
 40
0.01
  1
0
100
AcDbAttributeDefinition
280
     0
  3
Depth Map Size
  2
CONEA
 70
     1
280
     0
  0
ATTDEF
  5
56
330
42
100
AcDbEntity
  8
ASHADE
  6
Continuous
 62
     7
100
AcDbText
 10
0.0
 20
0.2050000000000001
 30
0.0
 40
0.01
  1
1,1,1
100
AcDbAttributeDefinition
280
     0
  3
Light Color (RGB)
  2
COLOR
 70
     1
280
     0
  0
ATTDEF
  5
57
330
42
100
AcDbEntity
  8
ASHADE
  6
Continuous
 62
     7
100
AcDbText
 10
0.0
 20
0.235
 30
0.0
 40
0.01
  1

100
AcDbAttributeDefinition
280
     0
  3
Look-at Z
  2
LAZ
 70
     1
280
     0
  0
ATTDEF
  5
58
330
42
100
AcDbEntity
  8
ASHADE
  6
Continuous
 62
     7
100
AcDbText
 10
0.0
 20
0.25
 30
0.0
 40
0.01
  1

100
AcDbAttributeDefinition
280
     0
  3
Look-at Y
  2
LAY
 70
     1
280
     0
  0
ATTDEF
  5
59
330
42
100
AcDbEntity
  8
ASHADE
  6
Continuous
 62
     7
100
AcDbText
 10
0.0
 20
0.265
 30
0.0
 40
0.01
  1

100
AcDbAttributeDefinition
280
     0
  3
Look-at X
  2
LAX
 70
     1
280
     0
  0
ATTDEF
  5
5A
330
42
100
AcDbEntity
  8
ASHADE
  6
Continuous
 62
     7
100
AcDbText
 10
0.0
 20
0.28
 30
0.0
 40
0.01
  1

100
AcDbAttributeDefinition
280
     0
  3

  2
GNAME
 70
     1
280
     0
  0
LINE
  5
5B
330
42
100
AcDbEntity
  8
ASHADE
  6
Continuous
 62
     7
100
AcDbLine
 10
0.1096591641591904
 20
0.2792398032442862
 30
0.0
 11
0.1279356915190555
 21
0.3257797704516674
 31
0.0
  0
LINE
  5
5C
330
42
100
AcDbEntity
  8
ASHADE
  6
Continuous
 62
     7
100
AcDbLine
 10
0.2041413561583015
 20
0.2198324514393849
 30
0.0
 11
0.2721884748777353
 21
0.2931099352525131
 31
0.0
  0
ENDBLK
  5
5E
330
42
100
AcDbEntity
  8
0
100
AcDbBlockEnd
  0
BLOCK
  5
85
330
5F
100
AcDbEntity
  8
0
100
AcDbBlockBegin
  2
sh_spot
 70
     2
 10
0.0
 20
0.0
 30
0.0
  3
sh_spot
  1

  0
LINE
  5
60
330
5F
100
AcDbEntity
  8
ASHADE
  6
Continuous
 62
     7
100
AcDbLine
 10
0.25
 20
0.26
 30
0.0
 11
-0.25
 21
0.26
 31
0.0
  0
LINE
  5
61
330
5F
100
AcDbEntity
  8
ASHADE
  6
Continuous
 62
     7
100
AcDbLine
 10
-0.25
 20
-0.3399999999999999
 30
0.0
 11
0.25
 21
-0.3399999999999999
 31
0.0
  0
ATTDEF
  5
62
330
5F
100
AcDbEntity
  8
ASHADE
  6
Continuous
 62
     1
100
AcDbText
 10
0.0
 20
-0.1
 30
0.0
 40
0.2
  1

  7
ASHADE
 72
     1
 11
0.0
 21
-0.1
 31
0.0
100
AcDbAttributeDefinition
280
     0
  3
Light Name
  2
SNAME
 70
     0
280
     0
  0
LINE
  5
63
330
5F
100
AcDbEntity
  8
ASHADE
  6
Continuous
 62
     7
100
AcDbLine
 10
-0.25
 20
-0.13
 30
0.0
 11
-0.25
 21
-0.3399999999999999
 31
0.0
  0
LINE
  5
64
330
5F
100
AcDbEntity
  8
ASHADE
  6
Continuous
 62
     7
100
AcDbLine
 10
-0.25
 20
-0.18
 30
0.0
 11
-0.29
 21
-0.18
 31
0.0
  0
LINE
  5
65
330
5F
100
AcDbEntity
  8
ASHADE
  6
Continuous
 62
     7
100
AcDbLine
 10
-0.29
 20
-0.22
 30
0.0
 11
-0.25
 21
-0.22
 31
0.0
  0
LINE
  5
66
330
5F
100
AcDbEntity
  8
ASHADE
  6
Continuous
 62
     7
100
AcDbLine
 10
-0.29
 20
-0.18
 30
0.0
 11
-0.29
 21
-0.22
 31
0.0
  0
LINE
  5
67
330
5F
100
AcDbEntity
  8
ASHADE
  6
Continuous
 62
     7
100
AcDbLine
 10
-0.1045454545454545
 20
0.26
 30
0.0
 11
-0.15
 21
0.46
 31
0.0
  0
LINE
  5
68
330
5F
100
AcDbEntity
  8
ASHADE
  6
Continuous
 62
     7
100
AcDbLine
 10
-0.21
 20
0.26
 30
0.0
 11
-0.301304347826087
 21
0.46
 31
0.0
  0
LINE
  5
69
330
5F
100
AcDbEntity
  8
ASHADE
  6
Continuous
 62
     7
100
AcDbLine
 10
-0.25
 20
0.26
 30
0.0
 11
-0.25
 21
0.13
 31
0.0
  0
LINE
  5
6A
330
5F
100
AcDbEntity
  8
ASHADE
  6
Continuous
 62
     7
100
AcDbLine
 10
-0.25
 20
0.22
 30
0.0
 11
-0.29
 21
0.22
 31
0.0
  0
LINE
  5
6B
330
5F
100
AcDbEntity
  8
ASHADE
  6
Continuous
 62
     7
100
AcDbLine
 10
-0.29
 20
0.1799999999999999
 30
0.0
 11
-0.25
 21
0.1799999999999999
 31
0.0
  0
LINE
  5
6C
330
5F
100
AcDbEntity
  8
ASHADE
  6
Continuous
 62
     7
100
AcDbLine
 10
-0.29
 20
0.22
 30
0.0
 11
-0.29
 21
0.1799999999999999
 31
0.0
  0
ATTDEF
  5
6D
330
5F
100
AcDbEntity
  8
ASHADE
  6
Continuous
 62
     7
100
AcDbText
 10
0.0
 20
-0.24
 30
0.0
 40
0.01
  1
0
100
AcDbAttributeDefinition
280
     0
  3
Depth Map Size
  2
ZSIZE
 70
     1
280
     0
  0
ATTDEF
  5
6E
330
5F
100
AcDbEntity
  8
ASHADE
  6
Continuous
 62
     7
100
AcDbText
 10
0.0
 20
-0.3300000000000001
 30
0.0
 40
0.01
  1
0,0,0
100
AcDbAttributeDefinition
280
     0
  3
Look-from XYZ
  2
LFXYZ
 70
     1
280
     0
  0
ATTDEF
  5
6F
330
5F
100
AcDbEntity
  8
ASHADE
  6
Continuous
 62
     7
100
AcDbText
 10
0.0
 20
-0.315
 30
0.0
 40
0.01
  1
0.0
100
AcDbAttributeDefinition
280
     0
  3
Beam Distribution
  2
BEAMDI
 70
     1
280
     0
  0
ATTDEF
  5
70
330
5F
100
AcDbEntity
  8
ASHADE
  6
Continuous
 62
     7
100
AcDbText
 10
0.0
 20
-0.3
 30
0.0
 40
0.01
  1
0.0
100
AcDbAttributeDefinition
280
     0
  3
Cone Delta
  2
CONEDE
 70
     1
280
     0
  0
ATTDEF
  5
71
330
5F
100
AcDbEntity
  8
ASHADE
  6
Continuous
 62
     7
100
AcDbText
 10
0.0
 20
-0.2850000000000001
 30
0.0
 40
0.01
  1
10.0
100
AcDbAttributeDefinition
280
     0
  3
Cone Angle
  2
CONEAN
 70
     1
280
     0
  0
ATTDEF
  5
72
330
5F
100
AcDbEntity
  8
ASHADE
  6
Continuous
 62
     7
100
AcDbText
 10
0.0
 20
-0.27
 30
0.0
 40
0.01
  1
-1
100
AcDbAttributeDefinition
280
     0
  3
*not used*
  2
BIASMAX
 70
     1
280
     0
  0
ATTDEF
  5
73
330
5F
100
AcDbEntity
  8
ASHADE
  6
Continuous
 62
     7
100
AcDbText
 10
0.0
 20
-0.255
 30
0.0
 40
0.01
  1
-1
100
AcDbAttributeDefinition
280
     0
  3
*not used*
  2
BIASMIN
 70
     1
280
     0
  0
ATTDEF
  5
74
330
5F
100
AcDbEntity
  8
ASHADE
  6
Continuous
 62
     7
100
AcDbText
 10
0.0
 20
-0.225
 30
0.0
 40
0.01
  1
1,1,1
100
AcDbAttributeDefinition
280
     0
  3
Light Color (RGB)
  2
COLOR
 70
     1
280
     0
  0
ATTDEF
  5
75
330
5F
100
AcDbEntity
  8
ASHADE
  6
Continuous
 62
     7
100
AcDbText
 10
0.0
 20
-0.21
 30
0.0
 40
0.01
  1
1
100
AcDbAttributeDefinition
280
     0
  3
Light Intensity
  2
INTENSITY
 70
     1
280
     0
  0
ATTDEF
  5
76
330
5F
100
AcDbEntity
  8
ASHADE
  6
Continuous
 62
     7
100
AcDbText
 10
0.0
 20
-0.15
 30
0.0
 40
0.01
  1

100
AcDbAttributeDefinition
280
     0
  3

  2
GNAME
 70
     1
280
     0
  0
ATTDEF
  5
77
330
5F
100
AcDbEntity
  8
ASHADE
  6
Continuous
 62
     7
100
AcDbText
 10
0.0
 20
-0.195
 30
0.0
 40
0.01
  1

100
AcDbAttributeDefinition
280
     0
  3
Look-at Z
  2
LAZ
 70
     1
280
     0
  0
ATTDEF
  5
78
330
5F
100
AcDbEntity
  8
ASHADE
  6
Continuous
 62
     7
100
AcDbText
 10
0.0
 20
-0.18
 30
0.0
 40
0.01
  1

100
AcDbAttributeDefinition
280
     0
  3
Look-at Y
  2
LAY
 70
     1
280
     0
  0
ATTDEF
  5
79
330
5F
100
AcDbEntity
  8
ASHADE
  6
Continuous
 62
     7
100
AcDbText
 10
0.0
 20
-0.165
 30
0.0
 40
0.01
  1

100
AcDbAttributeDefinition
280
     0
  3
Look-at X
  2
LAX
 70
     1
280
     0
  0
LINE
  5
7A
330
5F
100
AcDbEntity
  8
ASHADE
  6
Continuous
 62
     7
100
AcDbLine
 10
0.25
 20
-0.3399999999999999
 30
0.0
 11
0.25
 21
-0.13
 31
0.0
  0
LINE
  5
7B
330
5F
100
AcDbEntity
  8
ASHADE
  6
Continuous
 62
     7
100
AcDbLine
 10
0.25
 20
-0.18
 30
0.0
 11
0.29
 21
-0.18
 31
0.0
  0
LINE
  5
7C
330
5F
100
AcDbEntity
  8
ASHADE
  6
Continuous
 62
     7
100
AcDbLine
 10
0.29
 20
-0.22
 30
0.0
 11
0.25
 21
-0.22
 31
0.0
  0
LINE
  5
7D
330
5F
100
AcDbEntity
  8
ASHADE
  6
Continuous
 62
     7
100
AcDbLine
 10
0.29
 20
-0.18
 30
0.0
 11
0.29
 21
-0.22
 31
0.0
  0
LINE
  5
7E
330
5F
100
AcDbEntity
  8
ASHADE
  6
Continuous
 62
     7
100
AcDbLine
 10
0.21
 20
0.26
 30
0.0
 11
0.301304347826087
 21
0.46
 31
0.0
  0
LINE
  5
7F
330
5F
100
AcDbEntity
  8
ASHADE
  6
Continuous
 62
     7
100
AcDbLine
 10
0.1045454545454545
 20
0.26
 30
0.0
 11
0.15
 21
0.46
 31
0.0
  0
LINE
  5
80
330
5F
100
AcDbEntity
  8
ASHADE
  6
Continuous
 62
     7
100
AcDbLine
 10
0.0
 20
0.26
 30
0.0
 11
0.0
 21
0.46
 31
0.0
  0
LINE
  5
81
330
5F
100
AcDbEntity
  8
ASHADE
  6
Continuous
 62
     7
100
AcDbLine
 10
0.25
 20
0.13
 30
0.0
 11
0.25
 21
0.26
 31
0.0
  0
LINE
  5
82
330
5F
100
AcDbEntity
  8
ASHADE
  6
Continuous
 62
     7
100
AcDbLine
 10
0.25
 20
0.22
 30
0.0
 11
0.29
 21
0.22
 31
0.0
  0
LINE
  5
83
330
5F
100
AcDbEntity
  8
ASHADE
  6
Continuous
 62
     7
100
AcDbLine
 10
0.29
 20
0.1799999999999999
 30
0.0
 11
0.25
 21
0.1799999999999999
 31
0.0
  0
LINE
  5
84
330
5F
100
AcDbEntity
  8
ASHADE
  6
Continuous
 62
     7
100
AcDbLine
 10
0.29
 20
0.22
 30
0.0
 11
0.29
 21
0.1799999999999999
 31
0.0
  0
ENDBLK
  5
86
330
5F
100
AcDbEntity
  8
0
100
AcDbBlockEnd
  0
BLOCK
  5
92
330
91
100
AcDbEntity
  8
ASHADE
100
AcDbBlockBegin
  2
AVE_RENDER
 70
     0
 10
0.0
 20
0.0
 30
0.0
  3
AVE_RENDER
  1
AVE_RENDER
  0
ENDBLK
  5
93
330
91
100
AcDbEntity
  8
0
100
AcDbBlockEnd
  0
BLOCK
  5
A0
330
9F
100
AcDbEntity
  8
ASHADE
100
AcDbBlockBegin
  2
AVE_GLOBAL
 70
     0
 10
0.0
 20
0.0
 30
0.0
  3
AVE_GLOBAL
  1
AVE_GLOBAL
  0
ENDBLK
  5
A1
330
9F
100
AcDbEntity
  8
0
100
AcDbBlockEnd
  0
ENDSEC
  0
SECTION
  2
ENTITIES
  0
INSERT
  5
94
330
1F
100
AcDbEntity
  8
ASHADE
 62
     1
100
AcDbBlockReference
  2
AVE_RENDER
 10
0.0
 20
0.0
 30
0.0
1001
AVE_RENDER
1002
{
1070
     7
1000
Pref
1070
    30
1070
    20
1070
     1
1070
     0
1000

1070
    10
1070
     1
1070
    10
1040
1.0
1070
     1
1040
0.3
1040
0.7
1040
0.0
1040
10.0
1010
-1.0
1020
-1.0
1030
-1.0
1040
0.3
1070
    49
1070
     0
1070
     0
1010
1.0
1020
1.0
1030
1.0
1040
45.0
1070
     1
1070
     0
1000
WCS
1040
0.0
1070
     0
1040
10.0
1002
}
  0
INSERT
  5
95
330
1F
100
AcDbEntity
  8
ASHADE
 62
     3
100
AcDbBlockReference
  2
AVE_RENDER
 10
0.0
 20
0.0
 30
0.0
1001
AVE_RENDER
1002
{
1070
     0
1000
Full Opt
1070
     0
1070
     1
1070
     1
1070
     1
1070
     0
1070
     0
1070
     0
1070
     1
1070
     1
1040
0.0001
1040
0.0001
1002
}
  0
INSERT
  5
96
330
1F
100
AcDbEntity
  8
ASHADE
 62
     4
100
AcDbBlockReference
  2
AVE_RENDER
 10
0.0
 20
0.0
 30
0.0
1001
AVE_RENDER
1002
{
1070
     0
1000
Quick Opt
1070
     0
1070
     1
1070
     1
1070
     1
1070
     0
1070
     0
1070
     1
1002
}
  0
INSERT
  5
97
330
1F
100
AcDbEntity
  8
ASHADE
 62
     5
100
AcDbBlockReference
  2
AVE_RENDER
 10
0.0
 20
0.0
 30
0.0
1001
AVE_RENDER
1002
{
1070
     1
1000
Scanl Opt
1070
     2
1070
     0
1070
     2
1040
2.0
1040
4.0
1070
     0
1070
     1
1070
     0
1040
0.03
1002
}
  0
INSERT
  5
98
330
1F
100
AcDbEntity
  8
ASHADE
 62
     6
100
AcDbBlockReference
  2
AVE_RENDER
 10
0.0
 20
0.0
 30
0.0
1001
AVE_RENDER
1002
{
1070
     2
1000
Raytr Opt
1070
     2
1070
     0
1070
     2
1040
2.0
1040
4.0
1070
     0
1070
     1
1070
     1
1040
0.03
1070
     3
1040
0.03
1002
}
  0
INSERT
  5
99
330
1F
100
AcDbEntity
  8
ASHADE
 62
     7
100
AcDbBlockReference
  2
AVE_RENDER
 10
0.0
 20
0.0
 30
0.0
1001
AVE_RENDER
1002
{
1070
     0
1000
RFile Opt
1070
     1
1070
   640
1070
   480
1070
 10000
1070
     1
1070
     8
1070
     8
1070
     0
1070
     0
1070
     0
1070
     0
1070
     0
1070
     0
1070
     0
1002
}
  0
INSERT
  5
9A
330
1F
100
AcDbEntity
  8
ASHADE
 62
     8
100
AcDbBlockReference
  2
AVE_RENDER
 10
0.0
 20
0.0
 30
0.0
1001
AVE_RENDER
1002
{
1070
     0
1000
Fog Opt
1070
     0
1070
     0
1040
0.0
1040
1.0
1040
0.0
1040
1.0
1010
0.5
1020
0.5
1030
0.5
1002
}
  0
INSERT
  5
9B
330
1F
100
AcDbEntity
  8
ASHADE
 62
     9
100
AcDbBlockReference
  2
AVE_RENDER
 10
0.0
 20
0.0
 30
0.0
1001
AVE_RENDER
1002
{
1070
     0
1000
BG Opt
1070
     0
1070
     1
1010
0.0
1020
0.0
1030
0.0
1010
1.0
1020
0.0
1030
0.0
1010
0.0
1020
1.0
1030
0.0
1010
0.0
1020
0.0
1030
1.0
1040
0.5
1040
0.33
1040
0.0
1000

1070
     1
1000

1070
     1
1070
     1
1040
1.0
1040
1.0
1040
0.0
1040
0.0
1070
     0
1002
}
  0
INSERT
  5
A2
330
1F
100
AcDbEntity
  8
ASHADE
 62
     1
100
AcDbBlockReference
  2
AVE_GLOBAL
 10
0.0
 20
0.0
 30
0.0
1001
AVE_MATERIAL
1002
{
1000
*GLOBAL*
1000
2
1000
Global finish.
1002
{
1002
}
1002
{
1070
    63
1002
{
1002
{
1010
-1.0
1020
-1.0
1030
-1.0
1002
}
1040
0.1000000014901161
1000

1040
0.0
1002
{
1002
}
1040
0.0
1002
{
1002
}
1040
0.0
1002
}
1002
{
1002
{
1010
-1.0
1020
-1.0
1030
-1.0
1002
}
1040
0.6999999880790711
1000

1040
0.0
1002
{
1002
}
1040
0.0
1002
{
1002
}
1040
0.0
1002
}
1002
{
1002
{
1010
-1.0
1020
-1.0
1030
-1.0
1002
}
1040
0.2000000029802322
1000

1040
0.0
1002
{
1002
}
1040
0.0
1002
{
1002
}
1040
0.0
1002
}
1002
{
1070
     0
1002
{
1070
     1
1002
{
1040
1.0
1040
1.0
1000

1040
0.0
1002
{
1002
}
1040
0.0
1002
{
1002
}
1040
0.0
1002
}
1002
}
1040
1.0
1040
0.0
1040
0.0
1002
}
1002
{
1040
1.0
1040
1.0
1000

1040
0.0
1002
{
1002
}
1040
0.0
1002
{
1002
}
1040
0.0
1002
}
1002
{
1040
0.5
1040
1.0
1000

1040
0.0
1002
{
1002
}
1040
0.0
1002
{
1002
}
1040
0.0
1002
}
1002
{
1070
     0
1040
0.0
1002
{
1002
}
1040
1.0
1002
{
1002
}
1040
0.0
1002
}
1002
{
1040
0.0
1002
{
1002
{
1010
0.0
1020
0.0
1030
0.0
1002
}
1040
1.0
1000

1040
0.0
1002
{
1002
}
1040
0.0
1002
{
1002
}
1040
0.0
1002
}
1002
}
1002
{
1002
{
1070
     1
1002
{
1040
0.0
1040
1.0
1000

1040
0.0
1002
{
1002
}
1040
0.0
1002
{
1002
}
1040
0.0
1002
}
1002
}
1040
0.0
1002
{
1002
}
1010
1.0
1020
0.0
1030
0.0
1010
0.0
1020
1.0
1030
0.0
1010
0.0
1020
0.0
1030
1.0
1070
     0
1002
}
1002
{
1002
{
1040
1.0
1040
1.0
1002
{
1070
     1
1002
{
1040
1.0
1040
1.0
1000

1040
0.0
1002
{
1002
}
1040
0.0
1002
{
1002
}
1040
0.0
1002
}
1002
}
1002
}
1070
     0
1040
0.0
1002
{
1002
}
1002
}
1002
{
1002
}
1002
}
1002
{
1071
        3
1070
     3
1070
     0
1002
{
1070
     2
1070
     0
1070
     0
1040
0.0
1002
}
1070
     0
1070
     2
1002
{
1002
}
1002
}
1002
{
1040
8030.0
1040
190.3000030517578
1040
0.3050000071525574
1040
228.0
1040
545.0
1040
14.0
1040
17.39999961853027
1040
0.4560000002384186
1002
}
1002
}
  0
POLYLINE
  5
F7
330
1F
100
AcDbEntity
  8
0
 62
   251
420
  5658198
100
AcDb3dPolyline
 66
     1
 10
0.0
 20
0.0
 30
0.0
 70
     9
  0
VERTEX
  5
F8
330
F7
100
AcDbEntity
  8
0
 62
   251
420
  5658198
100
AcDbVertex
100
AcDb3dPolylineVertex
 10
37.51437377929688
 20
0.0000049907976063
 30
-67.65629577636719
 70
    32
  0
VERTEX
  5
F9
330
F7
100
AcDbEntity
  8
0
 62
   251
420
  5658198
100
AcDbVertex
100
AcDb3dPolylineVertex
 10
33.98256301879883
 20
0.0000064206392381
 30
-67.2591323852539
 70
    32
  0
VERTEX
  5
FA
330
F7
100
AcDbEntity
  8
0
 62
   251
420
  5658198
100
AcDbVertex
100
AcDb3dPolylineVertex
 10
33.98256301879883
 20
0.0000050738776736
 30
-66.39698028564453
 70
    32
  0
VERTEX
  5
FB
330
F7
100
AcDbEntity
  8
0
 62
   251
420
  5658198
100
AcDbVertex
100
AcDb3dPolylineVertex
 10
34.30768966674805
 20
0.0000050052663028
 30
-66.28688812255859
 70
    32
  0
VERTEX
  5
FC
330
F7
100
AcDbEntity
  8
0
 62
   251
420
  5658198
100
AcDbVertex
100
AcDb3dPolylineVertex
 10
34.6286735534668
 20
0.0000048516026254
 30
-66.16372680664063
 70
    32
  0
VERTEX
  5
FD
330
F7
100
AcDbEntity
  8
0
 62
   251
420
  5658198
100
AcDbVertex
100
AcDb3dPolylineVertex
 10
34.94490432739258
 20
0.0000046405866669
 30
-66.02786254882812
 70
    32
  0
VERTEX
  5
FE
330
F7
100
AcDbEntity
  8
0
 62
   251
420
  5658198
100
AcDbVertex
100
AcDb3dPolylineVertex
 10
35.25576400756836
 20
0.0000043999193622
 30
-65.87964630126953
 70
    32
  0
VERTEX
  5
FF
330
F7
100
AcDbEntity
  8
0
 62
   251
420
  5658198
100
AcDbVertex
100
AcDb3dPolylineVertex
 10
35.56064224243164
 20
0.0000041572993723
 30
-65.71945190429687
 70
    32
  0
VERTEX
  5
100
330
F7
100
AcDbEntity
  8
0
 62
   251
420
  5658198
100
AcDbVertex
100
AcDb3dPolylineVertex
 10
35.85892486572266
 20
0.0000039404280869
 30
-65.54764556884766
 70
    32
  0
VERTEX
  5
101
330
F7
100
AcDbEntity
  8
0
 62
   251
420
  5658198
100
AcDbVertex
100
AcDb3dPolylineVertex
 10
36.14999389648438
 20
0.0000037770059862
 30
-65.36457824707031
 70
    32
  0
VERTEX
  5
102
330
F7
100
AcDbEntity
  8
0
 62
   251
420
  5658198
100
AcDbVertex
100
AcDb3dPolylineVertex
 10
36.4332389831543
 20
0.000003694732186
 30
-65.1706314086914
 70
    32
  0
VERTEX
  5
103
330
F7
100
AcDbEntity
  8
0
 62
   251
420
  5658198
100
AcDbVertex
100
AcDb3dPolylineVertex
 10
36.71366500854492
 20
0.0000036609799281
 30
-64.96200561523437
 70
    32
  0
VERTEX
  5
104
330
F7
100
AcDbEntity
  8
0
 62
   251
420
  5658198
100
AcDbVertex
100
AcDb3dPolylineVertex
 10
36.98508834838867
 20
0.0000036260835259
 30
-64.74286651611328
 70
    32
  0
VERTEX
  5
105
330
F7
100
AcDbEntity
  8
0
 62
   251
420
  5658198
100
AcDbVertex
100
AcDb3dPolylineVertex
 10
37.24683380126953
 20
0.0000035902357922
 30
-64.51353454589844
 70
    32
  0
VERTEX
  5
106
330
F7
100
AcDbEntity
  8
0
 62
   251
420
  5658198
100
AcDbVertex
100
AcDb3dPolylineVertex
 10
37.49822616577148
 20
0.00000355362954
 30
-64.27433776855469
 70
    32
  0
VERTEX
  5
107
330
F7
100
AcDbEntity
  8
0
 62
   251
420
  5658198
100
AcDbVertex
100
AcDb3dPolylineVertex
 10
37.73859405517578
 20
0.000003516457582
 30
-64.02558898925781
 70
    32
  0
VERTEX
  5
108
330
F7
100
AcDbEntity
  8
0
 62
   251
420
  5658198
100
AcDbVertex
100
AcDb3dPolylineVertex
 10
37.96726608276367
 20
0.0000034789140955
 30
-63.76763534545898
 70
    32
  0
VERTEX
  5
109
330
F7
100
AcDbEntity
  8
0
 62
   251
420
  5658198
100
AcDbVertex
100
AcDb3dPolylineVertex
 10
38.18356323242188
 20
0.000003441190529
 30
-63.50078964233398
 70
    32
  0
VERTEX
  5
10A
330
F7
100
AcDbEntity
  8
0
 62
   251
420
  5658198
100
AcDbVertex
100
AcDb3dPolylineVertex
 10
38.38681411743164
 20
0.0000034034824239
 30
-63.22537994384766
 70
    32
  0
VERTEX
  5
10B
330
F7
100
AcDbEntity
  8
0
 62
   251
420
  5658198
100
AcDbVertex
100
AcDb3dPolylineVertex
 10
38.57634735107422
 20
0.0000033659807741
 30
-62.94173049926758
 70
    32
  0
VERTEX
  5
10C
330
F7
100
AcDbEntity
  8
0
 62
   251
420
  5658198
100
AcDbVertex
100
AcDb3dPolylineVertex
 10
38.75148773193359
 20
0.0000033288802115
 30
-62.65016937255859
 70
    32
  0
VERTEX
  5
10D
330
F7
100
AcDbEntity
  8
0
 62
   251
420
  5658198
100
AcDbVertex
100
AcDb3dPolylineVertex
 10
38.91156387329102
 20
0.0000032923730942
 30
-62.35102081298828
 70
    32
  0
VERTEX
  5
10E
330
F7
100
AcDbEntity
  8
0
 62
   251
420
  5658198
100
AcDbVertex
100
AcDb3dPolylineVertex
 10
39.0558967590332
 20
0.000003256654054
 30
-62.04460906982422
 70
    32
  0
VERTEX
  5
10F
330
F7
100
AcDbEntity
  8
0
 62
   251
420
  5658198
100
AcDbVertex
100
AcDb3dPolylineVertex
 10
39.18381500244141
 20
0.0000032219145396
 30
-61.73126602172851
 70
    32
  0
VERTEX
  5
110
330
F7
100
AcDbEntity
  8
0
 62
   251
420
  5658198
100
AcDbVertex
100
AcDb3dPolylineVertex
 10
39.29464721679688
 20
0.0000031883473639
 30
-61.41130828857422
 70
    32
  0
VERTEX
  5
111
330
F7
100
AcDbEntity
  8
0
 62
   251
420
  5658198
100
AcDbVertex
100
AcDb3dPolylineVertex
 10
39.38772201538086
 20
0.0000031561476135
 30
-61.08506774902344
 70
    32
  0
VERTEX
  5
112
330
F7
100
AcDbEntity
  8
0
 62
   251
420
  5658198
100
AcDbVertex
100
AcDb3dPolylineVertex
 10
39.46235656738281
 20
0.0000031255076465
 30
-60.75286865234375
 70
    32
  0
VERTEX
  5
113
330
F7
100
AcDbEntity
  8
0
 62
   251
420
  5658198
100
AcDbVertex
100
AcDb3dPolylineVertex
 10
39.51943969726563
 20
0.0000030934943425
 30
-60.41304779052734
 70
    32
  0
VERTEX
  5
114
330
F7
100
AcDbEntity
  8
0
 62
   251
420
  5658198
100
AcDbVertex
100
AcDb3dPolylineVertex
 10
39.55908966064453
 20
0.0000030573369258
 30
-60.07090759277343
 70
    32
  0
VERTEX
  5
115
330
F7
100
AcDbEntity
  8
0
 62
   251
420
  5658198
100
AcDbVertex
100
AcDb3dPolylineVertex
 10
39.58142471313477
 20
0.0000030165824683
 30
-59.72725677490235
 70
    32
  0
VERTEX
  5
116
330
F7
100
AcDbEntity
  8
0
 62
   251
420
  5658198
100
AcDbVertex
100
AcDb3dPolylineVertex
 10
39.58658218383789
 20
0.0000029707789508
 30
-59.38290023803711
 70
    32
  0
VERTEX
  5
117
330
F7
100
AcDbEntity
  8
0
 62
   251
420
  5658198
100
AcDbVertex
100
AcDb3dPolylineVertex
 10
39.57468414306641
 20
0.0000029194739
 30
-59.03863906860351
 70
    32
  0
VERTEX
  5
118
330
F7
100
AcDbEntity
  8
0
 62
   251
420
  5658198
100
AcDbVertex
100
AcDb3dPolylineVertex
 10
39.54586410522461
 20
0.0000028622134778
 30
-58.69527053833007
 70
    32
  0
VERTEX
  5
119
330
F7
100
AcDbEntity
  8
0
 62
   251
420
  5658198
100
AcDbVertex
100
AcDb3dPolylineVertex
 10
39.500244140625
 20
0.0000027985474844
 30
-58.35360717773437
 70
    32
  0
VERTEX
  5
11A
330
F7
100
AcDbEntity
  8
0
 62
   251
420
  5658198
100
AcDbVertex
100
AcDb3dPolylineVertex
 10
39.43795394897461
 20
0.0000027280216273
 30
-58.01444244384765
 70
    32
  0
VERTEX
  5
11B
330
F7
100
AcDbEntity
  8
0
 62
   251
420
  5658198
100
AcDbVertex
100
AcDb3dPolylineVertex
 10
39.36532592773438
 20
0.000002657335699
 30
-57.70271301269531
 70
    32
  0
VERTEX
  5
11C
330
F7
100
AcDbEntity
  8
0
 62
   251
420
  5658198
100
AcDbVertex
100
AcDb3dPolylineVertex
 10
39.27875900268555
 20
0.0000025835242923
 30
-57.39530563354492
 70
    32
  0
VERTEX
  5
11D
330
F7
100
AcDbEntity
  8
0
 62
   251
420
  5658198
100
AcDbVertex
100
AcDb3dPolylineVertex
 10
39.17849349975586
 20
0.0000025073854886
 30
-57.09269714355468
 70
    32
  0
VERTEX
  5
11E
330
F7
100
AcDbEntity
  8
0
 62
   251
420
  5658198
100
AcDbVertex
100
AcDb3dPolylineVertex
 10
39.06475830078125
 20
0.0000024297137315
 30
-56.79535675048828
 70
    32
  0
VERTEX
  5
11F
330
F7
100
AcDbEntity
  8
0
 62
   251
420
  5658198
100
AcDbVertex
100
AcDb3dPolylineVertex
 10
38.93778610229492
 20
0.0000023513066481
 30
-56.50374984741211
 70
    32
  0
VERTEX
  5
120
330
F7
100
AcDbEntity
  8
0
 62
   251
420
  5658198
100
AcDbVertex
100
AcDb3dPolylineVertex
 10
38.79781341552734
 20
0.000002272960046
 30
-56.21835327148438
 70
    32
  0
VERTEX
  5
121
330
F7
100
AcDbEntity
  8
0
 62
   251
420
  5658198
100
AcDbVertex
100
AcDb3dPolylineVertex
 10
38.64506530761719
 20
0.0000021954706426
 30
-55.93964385986328
 70
    32
  0
VERTEX
  5
122
330
F7
100
AcDbEntity
  8
0
 62
   251
420
  5658198
100
AcDbVertex
100
AcDb3dPolylineVertex
 10
38.47978210449219
 20
0.0000021196347006
 30
-55.66808319091797
 70
    32
  0
VERTEX
  5
123
330
F7
100
AcDbEntity
  8
0
 62
   251
420
  5658198
100
AcDbVertex
100
AcDb3dPolylineVertex
 10
38.30219650268555
 20
0.0000020462493922
 30
-55.4041519165039
 70
    32
  0
VERTEX
  5
124
330
F7
100
AcDbEntity
  8
0
 62
   251
420
  5658198
100
AcDbVertex
100
AcDb3dPolylineVertex
 10
38.11253356933594
 20
0.0000019761096155
 30
-55.14831161499023
 70
    32
  0
VERTEX
  5
125
330
F7
100
AcDbEntity
  8
0
 62
   251
420
  5658198
100
AcDbVertex
100
AcDb3dPolylineVertex
 10
37.91103363037109
 20
0.0000019100129975
 30
-54.90104293823242
 70
    32
  0
VERTEX
  5
126
330
F7
100
AcDbEntity
  8
0
 62
   251
420
  5658198
100
AcDbVertex
100
AcDb3dPolylineVertex
 10
37.69792938232422
 20
0.0000018487554598
 30
-54.66281127929687
 70
    32
  0
VERTEX
  5
127
330
F7
100
AcDbEntity
  8
0
 62
   251
420
  5658198
100
AcDbVertex
100
AcDb3dPolylineVertex
 10
37.47344970703125
 20
0.0000017931337197
 30
-54.43409729003906
 70
    32
  0
VERTEX
  5
128
330
F7
100
AcDbEntity
  8
0
 62
   251
420
  5658198
100
AcDbVertex
100
AcDb3dPolylineVertex
 10
37.23782730102539
 20
0.0000017439439262
 30
-54.21536254882813
 70
    32
  0
VERTEX
  5
129
330
F7
100
AcDbEntity
  8
0
 62
   251
420
  5658198
100
AcDbVertex
100
AcDb3dPolylineVertex
 10
36.99129867553711
 20
0.0000017019825691
 30
-54.007080078125
 70
    32
  0
VERTEX
  5
12A
330
F7
100
AcDbEntity
  8
0
 62
   251
420
  5658198
100
AcDbVertex
100
AcDb3dPolylineVertex
 10
36.73409271240235
 20
0.0000016680459112
 30
-53.80972671508789
 70
    32
  0
VERTEX
  5
12B
330
F7
100
AcDbEntity
  8
0
 62
   251
420
  5658198
100
AcDbVertex
100
AcDb3dPolylineVertex
 10
36.42321014404297
 20
0.0000016894308601
 30
-53.59560775756836
 70
    32
  0
VERTEX
  5
12C
330
F7
100
AcDbEntity
  8
0
 62
   251
420
  5658198
100
AcDbVertex
100
AcDb3dPolylineVertex
 10
36.100830078125
 20
0.0000018026631778
 30
-53.39874649047851
 70
    32
  0
VERTEX
  5
12D
330
F7
100
AcDbEntity
  8
0
 62
   251
420
  5658198
100
AcDbVertex
100
AcDb3dPolylineVertex
 10
35.76807022094727
 20
0.0000019780509319
 30
-53.21953201293945
 70
    32
  0
VERTEX
  5
12E
330
F7
100
AcDbEntity
  8
0
 62
   251
420
  5658198
100
AcDbVertex
100
AcDb3dPolylineVertex
 10
35.42605972290039
 20
0.0000021859009394
 30
-53.05833435058594
 70
    32
  0
VERTEX
  5
12F
330
F7
100
AcDbEntity
  8
0
 62
   251
420
  5658198
100
AcDbVertex
100
AcDb3dPolylineVertex
 10
35.07592010498047
 20
0.0000023965178571
 30
-52.91552734375
 70
    32
  0
VERTEX
  5
130
330
F7
100
AcDbEntity
  8
0
 62
   251
420
  5658198
100
AcDbVertex
100
AcDb3dPolylineVertex
 10
34.71877288818359
 20
0.000002580208502
 30
-52.7914924621582
 70
    32
  0
VERTEX
  5
131
330
F7
100
AcDbEntity
  8
0
 62
   251
420
  5658198
100
AcDbVertex
100
AcDb3dPolylineVertex
 10
34.35574722290039
 20
0.0000027072796911
 30
-52.68660354614258
 70
    32
  0
VERTEX
  5
132
330
F7
100
AcDbEntity
  8
0
 62
   251
420
  5658198
100
AcDbVertex
100
AcDb3dPolylineVertex
 10
33.98796463012696
 20
0.0000027480368772
 30
-52.60123825073242
 70
    32
  0
VERTEX
  5
133
330
F7
100
AcDbEntity
  8
0
 62
   251
420
  5658198
100
AcDbVertex
100
AcDb3dPolylineVertex
 10
33.98796463012696
 20
0.0000035501479942
 30
-51.73124694824219
 70
    32
  0
VERTEX
  5
134
330
F7
100
AcDbEntity
  8
0
 62
   251
420
  5658198
100
AcDbVertex
100
AcDb3dPolylineVertex
 10
34.24714279174805
 20
0.000003539082627
 30
-51.71971893310547
 70
    32
  0
VERTEX
  5
135
330
F7
100
AcDbEntity
  8
0
 62
   251
420
  5658198
100
AcDbVertex
100
AcDb3dPolylineVertex
 10
34.50736618041992
 20
0.0000035052676139
 30
-51.69705200195313
 70
    32
  0
VERTEX
  5
136
330
F7
100
AcDbEntity
  8
0
 62
   251
420
  5658198
100
AcDbVertex
100
AcDb3dPolylineVertex
 10
35.02924346923828
 20
0.0000033981843899
 30
-51.62735366821289
 70
    32
  0
VERTEX
  5
137
330
F7
100
AcDbEntity
  8
0
 62
   251
420
  5658198
100
AcDbVertex
100
AcDb3dPolylineVertex
 10
36.06666564941406
 20
0.0000032277685023
 30
-51.453857421875
 70
    32
  0
VERTEX
  5
138
330
F7
100
AcDbEntity
  8
0
 62
   251
420
  5658198
100
AcDbVertex
100
AcDb3dPolylineVertex
 10
36.52522277832031
 20
0.0000032146667763
 30
-51.37113189697266
 70
    32
  0
VERTEX
  5
139
330
F7
100
AcDbEntity
  8
0
 62
   251
420
  5658198
100
AcDbVertex
100
AcDb3dPolylineVertex
 10
36.97858428955078
 20
0.0000031973256682
 30
-51.26552963256836
 70
    32
  0
VERTEX
  5
13A
330
F7
100
AcDbEntity
  8
0
 62
   251
420
  5658198
100
AcDbVertex
100
AcDb3dPolylineVertex
 10
37.42368316650391
 20
0.0000031736271922
 30
-51.13570404052734
 70
    32
  0
VERTEX
  5
13B
330
F7
100
AcDbEntity
  8
0
 62
   251
420
  5658198
100
AcDbVertex
100
AcDb3dPolylineVertex
 10
37.85746383666992
 20
0.0000031414538171
 30
-50.98030471801758
 70
    32
  0
VERTEX
  5
13C
330
F7
100
AcDbEntity
  8
0
 62
   251
420
  5658198
100
AcDbVertex
100
AcDb3dPolylineVertex
 10
38.27686309814453
 20
0.0000030986875572
 30
-50.79798889160156
 70
    32
  0
VERTEX
  5
13D
330
F7
100
AcDbEntity
  8
0
 62
   251
420
  5658198
100
AcDbVertex
100
AcDb3dPolylineVertex
 10
38.48021316528321
 20
0.000003072670097
 30
-50.69631195068359
 70
    32
  0
VERTEX
  5
13E
330
F7
100
AcDbEntity
  8
0
 62
   251
420
  5658198
100
AcDbVertex
100
AcDb3dPolylineVertex
 10
38.67882156372071
 20
0.0000030432106541
 30
-50.58740615844726
 70
    32
  0
VERTEX
  5
13F
330
F7
100
AcDbEntity
  8
0
 62
   251
420
  5658198
100
AcDbVertex
100
AcDb3dPolylineVertex
 10
38.87230300903321
 20
0.0000030100441109
 30
-50.47109222412109
 70
    32
  0
VERTEX
  5
140
330
F7
100
AcDbEntity
  8
0
 62
   251
420
  5658198
100
AcDbVertex
100
AcDb3dPolylineVertex
 10
39.06027603149414
 20
0.0000029729058042
 30
-50.34720611572265
 70
    32
  0
VERTEX
  5
141
330
F7
100
AcDbEntity
  8
0
 62
   251
420
  5658198
100
AcDbVertex
100
AcDb3dPolylineVertex
 10
39.24235916137695
 20
0.0000029315308439
 30
-50.21557998657226
 70
    32
  0
VERTEX
  5
142
330
F7
100
AcDbEntity
  8
0
 62
   251
420
  5658198
100
AcDbVertex
100
AcDb3dPolylineVertex
 10
39.41817092895508
 20
0.0000028856550216
 30
-50.07604217529297
 70
    32
  0
VERTEX
  5
143
330
F7
100
AcDbEntity
  8
0
 62
   251
420
  5658198
100
AcDbVertex
100
AcDb3dPolylineVertex
 10
39.61831283569336
 20
0.0000028247077353
 30
-49.90026473999023
 70
    32
  0
VERTEX
  5
144
330
F7
100
AcDbEntity
  8
0
 62
   251
420
  5658198
100
AcDbVertex
100
AcDb3dPolylineVertex
 10
39.7142219543457
 20
0.0000027915798455
 30
-49.80765533447265
 70
    32
  0
VERTEX
  5
145
330
F7
100
AcDbEntity
  8
0
 62
   251
420
  5658198
100
AcDbVertex
100
AcDb3dPolylineVertex
 10
39.80635833740235
 20
0.0000027569192298
 30
-49.7116470336914
 70
    32
  0
VERTEX
  5
146
330
F7
100
AcDbEntity
  8
0
 62
   251
420
  5658198
100
AcDbVertex
100
AcDb3dPolylineVertex
 10
39.89397048950195
 20
0.000002720901648
 30
-49.6120491027832
 70
    32
  0
VERTEX
  5
147
330
F7
100
AcDbEntity
  8
0
 62
   251
420
  5658198
100
AcDbVertex
100
AcDb3dPolylineVertex
 10
39.9763069152832
 20
0.0000026837037694
 30
-49.50867080688476
 70
    32
  0
VERTEX
  5
148
330
F7
100
AcDbEntity
  8
0
 62
   251
420
  5658198
100
AcDbVertex
100
AcDb3dPolylineVertex
 10
40.05261230468749
 20
0.0000026455022635
 30
-49.40131759643555
 70
    32
  0
VERTEX
  5
149
330
F7
100
AcDbEntity
  8
0
 62
   251
420
  5658198
100
AcDbVertex
100
AcDb3dPolylineVertex
 10
40.12213897705078
 20
0.0000026064742542
 30
-49.28980255126953
 70
    32
  0
VERTEX
  5
14A
330
F7
100
AcDbEntity
  8
0
 62
   251
420
  5658198
100
AcDbVertex
100
AcDb3dPolylineVertex
 10
40.185302734375
 20
0.0000025664310215
 30
-49.17325210571289
 70
    32
  0
VERTEX
  5
14B
330
F7
100
AcDbEntity
  8
0
 62
   251
420
  5658198
100
AcDbVertex
100
AcDb3dPolylineVertex
 10
40.24188613891602
 20
0.0000025258734695
 30
-49.05318069458008
 70
    32
  0
VERTEX
  5
14C
330
F7
100
AcDbEntity
  8
0
 62
   251
420
  5658198
100
AcDbVertex
100
AcDb3dPolylineVertex
 10
40.29187393188476
 20
0.000002484999186
 30
-48.93003082275391
 70
    32
  0
VERTEX
  5
14D
330
F7
100
AcDbEntity
  8
0
 62
   251
420
  5658198
100
AcDbVertex
100
AcDb3dPolylineVertex
 10
40.33526229858398
 20
0.0000024440050765
 30
-48.80426025390625
 70
    32
  0
VERTEX
  5
14E
330
F7
100
AcDbEntity
  8
0
 62
   251
420
  5658198
100
AcDbVertex
100
AcDb3dPolylineVertex
 10
40.3720359802246
 20
0.0000024030878194
 30
-48.67631149291992
 70
    32
  0
VERTEX
  5
14F
330
F7
100
AcDbEntity
  8
0
 62
   251
420
  5658198
100
AcDbVertex
100
AcDb3dPolylineVertex
 10
40.40219497680664
 20
0.0000023624456844
 30
-48.5466423034668
 70
    32
  0
VERTEX
  5
150
330
F7
100
AcDbEntity
  8
0
 62
   251
420
  5658198
100
AcDbVertex
100
AcDb3dPolylineVertex
 10
40.42572021484375
 20
0.0000023222753498
 30
-48.41569519042969
 70
    32
  0
VERTEX
  5
151
330
F7
100
AcDbEntity
  8
0
 62
   251
420
  5658198
100
AcDbVertex
100
AcDb3dPolylineVertex
 10
40.44261169433593
 20
0.0000022827739485
 30
-48.28392791748047
 70
    32
  0
VERTEX
  5
152
330
F7
100
AcDbEntity
  8
0
 62
   251
420
  5658198
100
AcDbVertex
100
AcDb3dPolylineVertex
 10
40.45181655883789
 20
0.0000022497376904
 30
-48.17121887207031
 70
    32
  0
VERTEX
  5
153
330
F7
100
AcDbEntity
  8
0
 62
   251
420
  5658198
100
AcDbVertex
100
AcDb3dPolylineVertex
 10
40.45637130737304
 20
0.0000022173021534
 30
-48.05818176269531
 70
    32
  0
VERTEX
  5
154
330
F7
100
AcDbEntity
  8
0
 62
   251
420
  5658198
100
AcDbVertex
100
AcDb3dPolylineVertex
 10
40.45635986328124
 20
0.0000021855232717
 30
-47.9449348449707
 70
    32
  0
VERTEX
  5
155
330
F7
100
AcDbEntity
  8
0
 62
   251
420
  5658198
100
AcDbVertex
100
AcDb3dPolylineVertex
 10
40.45186233520507
 20
0.0000021544592528
 30
-47.83160400390625
 70
    32
  0
VERTEX
  5
156
330
F7
100
AcDbEntity
  8
0
 62
   251
420
  5658198
100
AcDbVertex
100
AcDb3dPolylineVertex
 10
40.44296646118164
 20
0.0000021241676222
 30
-47.71831130981445
 70
    32
  0
VERTEX
  5
157
330
F7
100
AcDbEntity
  8
0
 62
   251
420
  5658198
100
AcDbVertex
100
AcDb3dPolylineVertex
 10
40.42975234985351
 20
0.0000020947049961
 30
-47.60518264770507
 70
    32
  0
VERTEX
  5
158
330
F7
100
AcDbEntity
  8
0
 62
   251
420
  5658198
100
AcDbVertex
100
AcDb3dPolylineVertex
 10
40.41230773925781
 20
0.0000020661295821
 30
-47.49234008789062
 70
    32
  0
VERTEX
  5
159
330
F7
100
AcDbEntity
  8
0
 62
   251
420
  5658198
100
AcDbVertex
100
AcDb3dPolylineVertex
 10
40.39071655273438
 20
0.0000020384975414
 30
-47.37990570068359
 70
    32
  0
VERTEX
  5
15A
330
F7
100
AcDbEntity
  8
0
 62
   251
420
  5658198
100
AcDbVertex
100
AcDb3dPolylineVertex
 10
40.36505889892578
 20
0.0000020118670818
 30
-47.26800537109375
 70
    32
  0
VERTEX
  5
15B
330
F7
100
AcDbEntity
  8
0
 62
   251
420
  5658198
100
AcDbVertex
100
AcDb3dPolylineVertex
 10
40.33542251586914
 20
0.0000019862950467
 30
-47.15676116943359
 70
    32
  0
VERTEX
  5
15C
330
F7
100
AcDbEntity
  8
0
 62
   251
420
  5658198
100
AcDbVertex
100
AcDb3dPolylineVertex
 10
40.26454162597656
 20
0.0000019385563519
 30
-46.9367446899414
 70
    32
  0
VERTEX
  5
15D
330
F7
100
AcDbEntity
  8
0
 62
   251
420
  5658198
100
AcDbVertex
100
AcDb3dPolylineVertex
 10
40.17874526977538
 20
0.0000018957399561
 30
-46.72083663940429
 70
    32
  0
VERTEX
  5
15E
330
F7
100
AcDbEntity
  8
0
 62
   251
420
  5658198
100
AcDbVertex
100
AcDb3dPolylineVertex
 10
40.07870101928711
 20
0.0000018583043584
 30
-46.51002883911132
 70
    32
  0
VERTEX
  5
15F
330
F7
100
AcDbEntity
  8
0
 62
   251
420
  5658198
100
AcDbVertex
100
AcDb3dPolylineVertex
 10
40.02576065063476
 20
0.0000018485928877
 30
-46.41179656982422
 70
    32
  0
VERTEX
  5
160
330
F7
100
AcDbEntity
  8
0
 62
   251
420
  5658198
100
AcDbVertex
100
AcDb3dPolylineVertex
 10
39.96899032592774
 20
0.0000018513001123
 30
-46.31541061401367
 70
    32
  0
VERTEX
  5
161
330
F7
100
AcDbEntity
  8
0
 62
   251
420
  5658198
100
AcDbVertex
100
AcDb3dPolylineVertex
 10
39.90852737426758
 20
0.0000018647182287
 30
-46.22100448608398
 70
    32
  0
VERTEX
  5
162
330
F7
100
AcDbEntity
  8
0
 62
   251
420
  5658198
100
AcDbVertex
100
AcDb3dPolylineVertex
 10
39.84451293945312
 20
0.0000018871397742
 30
-46.12869644165039
 70
    32
  0
VERTEX
  5
163
330
F7
100
AcDbEntity
  8
0
 62
   251
420
  5658198
100
AcDbVertex
100
AcDb3dPolylineVertex
 10
39.77709197998047
 20
0.0000019168569452
 30
-46.03861236572265
 70
    32
  0
VERTEX
  5
164
330
F7
100
AcDbEntity
  8
0
 62
   251
420
  5658198
100
AcDbVertex
100
AcDb3dPolylineVertex
 10
39.70639419555664
 20
0.0000019521621653
 30
-45.95087432861328
 70
    32
  0
VERTEX
  5
165
330
F7
100
AcDbEntity
  8
0
 62
   251
420
  5658198
100
AcDbVertex
100
AcDb3dPolylineVertex
 10
39.632568359375
 20
0.0000019913470624
 30
-45.86561203002929
 70
    32
  0
VERTEX
  5
166
330
F7
100
AcDbEntity
  8
0
 62
   251
420
  5658198
100
AcDbVertex
100
AcDb3dPolylineVertex
 10
39.55574798583985
 20
0.0000020327042876
 30
-45.78294372558594
 70
    32
  0
VERTEX
  5
167
330
F7
100
AcDbEntity
  8
0
 62
   251
420
  5658198
100
AcDbVertex
100
AcDb3dPolylineVertex
 10
39.39369583129883
 20
0.000002115105417
 30
-45.62589263916016
 70
    32
  0
VERTEX
  5
168
330
F7
100
AcDbEntity
  8
0
 62
   251
420
  5658198
100
AcDbVertex
100
AcDb3dPolylineVertex
 10
39.30874252319336
 20
0.0000021527334866
 30
-45.55176162719726
 70
    32
  0
VERTEX
  5
169
330
F7
100
AcDbEntity
  8
0
 62
   251
420
  5658198
100
AcDbVertex
100
AcDb3dPolylineVertex
 10
39.22135543823242
 20
0.0000021857026695
 30
-45.48072052001953
 70
    32
  0
VERTEX
  5
16A
330
F7
100
AcDbEntity
  8
0
 62
   251
420
  5658198
100
AcDbVertex
100
AcDb3dPolylineVertex
 10
39.13167572021484
 20
0.0000022123058443
 30
-45.41289901733398
 70
    32
  0
VERTEX
  5
16B
330
F7
100
AcDbEntity
  8
0
 62
   251
420
  5658198
100
AcDbVertex
100
AcDb3dPolylineVertex
 10
39.03984069824219
 20
0.0000022308349799
 30
-45.34841918945312
 70
    32
  0
VERTEX
  5
16C
330
F7
100
AcDbEntity
  8
0
 62
   251
420
  5658198
100
AcDbVertex
100
AcDb3dPolylineVertex
 10
38.94599533081055
 20
0.0000022395822725
 30
-45.28740692138671
 70
    32
  0
VERTEX
  5
16D
330
F7
100
AcDbEntity
  8
0
 62
   251
420
  5658198
100
AcDbVertex
100
AcDb3dPolylineVertex
 10
38.85027694702149
 20
0.000002236840146
 30
-45.22998428344727
 70
    32
  0
VERTEX
  5
16E
330
F7
100
AcDbEntity
  8
0
 62
   251
420
  5658198
100
AcDbVertex
100
AcDb3dPolylineVertex
 10
38.85027694702149
 20
-0.0000004949064305
 30
-24.92373466491699
 70
    32
  0
VERTEX
  5
16F
330
F7
100
AcDbEntity
  8
0
 62
   251
420
  5658198
100
AcDbVertex
100
AcDb3dPolylineVertex
 10
37.49914169311523
 20
-0.0000007712893648
 30
-23.12192916870117
 70
    32
  0
VERTEX
  5
170
330
F7
100
AcDbEntity
  8
0
 62
   251
420
  5658198
100
AcDbVertex
100
AcDb3dPolylineVertex
 10
37.49914169311523
 20
0.0000003001848654
 30
-22.49523544311523
 70
    32
  0
VERTEX
  5
171
330
F7
100
AcDbEntity
  8
0
 62
   251
420
  5658198
100
AcDbVertex
100
AcDb3dPolylineVertex
 10
37.64990234375
 20
0.0000003039306193
 30
-22.43613433837891
 70
    32
  0
VERTEX
  5
172
330
F7
100
AcDbEntity
  8
0
 62
   251
420
  5658198
100
AcDbVertex
100
AcDb3dPolylineVertex
 10
37.79813385009766
 20
0.0000003312543413
 30
-22.37184715270996
 70
    32
  0
VERTEX
  5
173
330
F7
100
AcDbEntity
  8
0
 62
   251
420
  5658198
100
AcDbVertex
100
AcDb3dPolylineVertex
 10
37.94371032714844
 20
0.0000003786827847
 30
-22.30246925354004
 70
    32
  0
VERTEX
  5
174
330
F7
100
AcDbEntity
  8
0
 62
   251
420
  5658198
100
AcDbVertex
100
AcDb3dPolylineVertex
 10
38.08651733398438
 20
0.0000004427406566
 30
-22.22808647155762
 70
    32
  0
VERTEX
  5
175
330
F7
100
AcDbEntity
  8
0
 62
   251
420
  5658198
100
AcDbVertex
100
AcDb3dPolylineVertex
 10
38.2264289855957
 20
0.0000005199545967
 30
-22.1487922668457
 70
    32
  0
VERTEX
  5
176
330
F7
100
AcDbEntity
  8
0
 62
   251
420
  5658198
100
AcDbVertex
100
AcDb3dPolylineVertex
 10
38.36331939697266
 20
0.0000006068499943
 30
-22.06467628479004
 70
    32
  0
VERTEX
  5
177
330
F7
100
AcDbEntity
  8
0
 62
   251
420
  5658198
100
AcDbVertex
100
AcDb3dPolylineVertex
 10
38.49707412719727
 20
0.000000699952011
 30
-21.97582817077637
 70
    32
  0
VERTEX
  5
178
330
F7
100
AcDbEntity
  8
0
 62
   251
420
  5658198
100
AcDbVertex
100
AcDb3dPolylineVertex
 10
38.62756729125976
 20
0.0000007957876278
 30
-21.8823413848877
 70
    32
  0
VERTEX
  5
179
330
F7
100
AcDbEntity
  8
0
 62
   251
420
  5658198
100
AcDbVertex
100
AcDb3dPolylineVertex
 10
38.75467681884766
 20
0.0000008908816653
 30
-21.78430366516113
 70
    32
  0
VERTEX
  5
17A
330
F7
100
AcDbEntity
  8
0
 62
   251
420
  5658198
100
AcDbVertex
100
AcDb3dPolylineVertex
 10
38.87828063964844
 20
0.0000009817603086
 30
-21.68180656433106
 70
    32
  0
VERTEX
  5
17B
330
F7
100
AcDbEntity
  8
0
 62
   251
420
  5658198
100
AcDbVertex
100
AcDb3dPolylineVertex
 10
38.99826049804687
 20
0.0000010649492879
 30
-21.57494163513184
 70
    32
  0
VERTEX
  5
17C
330
F7
100
AcDbEntity
  8
0
 62
   251
420
  5658198
100
AcDbVertex
100
AcDb3dPolylineVertex
 10
39.11448669433594
 20
0.0000011369742197
 30
-21.46379852294922
 70
    32
  0
VERTEX
  5
17D
330
F7
100
AcDbEntity
  8
0
 62
   251
420
  5658198
100
AcDbVertex
100
AcDb3dPolylineVertex
 10
39.22684860229492
 20
0.0000011943606069
 30
-21.34846496582031
 70
    32
  0
VERTEX
  5
17E
330
F7
100
AcDbEntity
  8
0
 62
   251
420
  5658198
100
AcDbVertex
100
AcDb3dPolylineVertex
 10
39.3352165222168
 20
0.0000012336348618
 30
-21.22903823852539
 70
    32
  0
VERTEX
  5
17F
330
F7
100
AcDbEntity
  8
0
 62
   251
420
  5658198
100
AcDbVertex
100
AcDb3dPolylineVertex
 10
39.43946838378906
 20
0.0000012513220327
 30
-21.1056022644043
 70
    32
  0
VERTEX
  5
180
330
F7
100
AcDbEntity
  8
0
 62
   251
420
  5658198
100
AcDbVertex
100
AcDb3dPolylineVertex
 10
39.53948974609375
 20
0.0000012439485317
 30
-20.97825241088867
 70
    32
  0
VERTEX
  5
181
330
F7
100
AcDbEntity
  8
0
 62
   251
420
  5658198
100
AcDbVertex
100
AcDb3dPolylineVertex
 10
39.63490676879883
 20
0.0000012226331592
 30
-20.84741973876953
 70
    32
  0
VERTEX
  5
182
330
F7
100
AcDbEntity
  8
0
 62
   251
420
  5658198
100
AcDbVertex
100
AcDb3dPolylineVertex
 10
39.72540664672852
 20
0.0000012008271142
 30
-20.71357345581055
 70
    32
  0
VERTEX
  5
183
330
F7
100
AcDbEntity
  8
0
 62
   251
420
  5658198
100
AcDbVertex
100
AcDb3dPolylineVertex
 10
39.8109359741211
 20
0.0000011785526794
 30
-20.57685470581055
 70
    32
  0
VERTEX
  5
184
330
F7
100
AcDbEntity
  8
0
 62
   251
420
  5658198
100
AcDbVertex
100
AcDb3dPolylineVertex
 10
39.89143371582031
 20
0.0000011558335018
 30
-20.43740653991699
 70
    32
  0
VERTEX
  5
185
330
F7
100
AcDbEntity
  8
0
 62
   251
420
  5658198
100
AcDbVertex
100
AcDb3dPolylineVertex
 10
39.96685409545899
 20
0.0000011326932281
 30
-20.29537010192871
 70
    32
  0
VERTEX
  5
186
330
F7
100
AcDbEntity
  8
0
 62
   251
420
  5658198
100
AcDbVertex
100
AcDb3dPolylineVertex
 10
40.03713989257812
 20
0.0000011091539136
 30
-20.1508903503418
 70
    32
  0
VERTEX
  5
187
330
F7
100
AcDbEntity
  8
0
 62
   251
420
  5658198
100
AcDbVertex
100
AcDb3dPolylineVertex
 10
40.10223388671875
 20
0.0000010852394325
 30
-20.00410270690918
 70
    32
  0
VERTEX
  5
188
330
F7
100
AcDbEntity
  8
0
 62
   251
420
  5658198
100
AcDbVertex
100
AcDb3dPolylineVertex
 10
40.1620864868164
 20
0.0000010609727497
 30
-19.85515403747558
 70
    32
  0
VERTEX
  5
189
330
F7
100
AcDbEntity
  8
0
 62
   251
420
  5658198
100
AcDbVertex
100
AcDb3dPolylineVertex
 10
40.21664047241211
 20
0.0000010363761476
 30
-19.70418167114258
 70
    32
  0
VERTEX
  5
18A
330
F7
100
AcDbEntity
  8
0
 62
   251
420
  5658198
100
AcDbVertex
100
AcDb3dPolylineVertex
 10
40.2658462524414
 20
0.0000010114741826
 30
-19.55133438110351
 70
    32
  0
VERTEX
  5
18B
330
F7
100
AcDbEntity
  8
0
 62
   251
420
  5658198
100
AcDbVertex
100
AcDb3dPolylineVertex
 10
40.30964279174805
 20
0.0000009862886827
 30
-19.39674758911133
 70
    32
  0
VERTEX
  5
18C
330
F7
100
AcDbEntity
  8
0
 62
   251
420
  5658198
100
AcDbVertex
100
AcDb3dPolylineVertex
 10
40.34798049926758
 20
0.0000009608435221
 30
-19.24056625366211
 70
    32
  0
VERTEX
  5
18D
330
F7
100
AcDbEntity
  8
0
 62
   251
420
  5658198
100
AcDbVertex
100
AcDb3dPolylineVertex
 10
40.38080596923828
 20
0.0000009351616654
 30
-19.08293151855469
 70
    32
  0
VERTEX
  5
18E
330
F7
100
AcDbEntity
  8
0
 62
   251
420
  5658198
100
AcDbVertex
100
AcDb3dPolylineVertex
 10
40.40806198120117
 20
0.0000009092665323
 30
-18.92398834228515
 70
    32
  0
VERTEX
  5
18F
330
F7
100
AcDbEntity
  8
0
 62
   251
420
  5658198
100
AcDbVertex
100
AcDb3dPolylineVertex
 10
40.42969512939452
 20
0.0000008831799505
 30
-18.76387023925781
 70
    32
  0
VERTEX
  5
190
330
F7
100
AcDbEntity
  8
0
 62
   251
420
  5658198
100
AcDbVertex
100
AcDb3dPolylineVertex
 10
40.44565200805664
 20
0.0000008569264764
 30
-18.60272789001465
 70
    32
  0
VERTEX
  5
191
330
F7
100
AcDbEntity
  8
0
 62
   251
420
  5658198
100
AcDbVertex
100
AcDb3dPolylineVertex
 10
40.45546722412109
 20
0.0000008280072734
 30
-18.44037628173828
 70
    32
  0
VERTEX
  5
192
330
F7
100
AcDbEntity
  8
0
 62
   251
420
  5658198
100
AcDbVertex
100
AcDb3dPolylineVertex
 10
40.45879364013671
 20
0.0000007943759783
 30
-18.27677536010742
 70
    32
  0
VERTEX
  5
193
330
F7
100
AcDbEntity
  8
0
 62
   251
420
  5658198
100
AcDbVertex
100
AcDb3dPolylineVertex
 10
40.45576858520507
 20
0.000000756730401
 30
-18.11226081848144
 70
    32
  0
VERTEX
  5
194
330
F7
100
AcDbEntity
  8
0
 62
   251
420
  5658198
100
AcDbVertex
100
AcDb3dPolylineVertex
 10
40.44652557373047
 20
0.000000715772444
 30
-17.94717407226562
 70
    32
  0
VERTEX
  5
195
330
F7
100
AcDbEntity
  8
0
 62
   251
420
  5658198
100
AcDbVertex
100
AcDb3dPolylineVertex
 10
40.43119049072266
 20
0.0000006722010539
 30
-17.78186225891113
 70
    32
  0
VERTEX
  5
196
330
F7
100
AcDbEntity
  8
0
 62
   251
420
  5658198
100
AcDbVertex
100
AcDb3dPolylineVertex
 10
40.40990447998047
 20
0.0000006267167691
 30
-17.61666870117187
 70
    32
  0
VERTEX
  5
197
330
F7
100
AcDbEntity
  8
0
 62
   251
420
  5658198
100
AcDbVertex
100
AcDb3dPolylineVertex
 10
40.35000610351562
 20
0.0000005328053021
 30
-17.28798675537109
 70
    32
  0
VERTEX
  5
198
330
F7
100
AcDbEntity
  8
0
 62
   251
420
  5658198
100
AcDbVertex
100
AcDb3dPolylineVertex
 10
40.26789474487304
 20
0.0000004396382565
 30
-16.9638729095459
 70
    32
  0
VERTEX
  5
199
330
F7
100
AcDbEntity
  8
0
 62
   251
420
  5658198
100
AcDbVertex
100
AcDb3dPolylineVertex
 10
40.16463088989257
 20
0.00000035281289
 30
-16.64705657958984
 70
    32
  0
VERTEX
  5
19A
330
F7
100
AcDbEntity
  8
0
 62
   251
420
  5658198
100
AcDbVertex
100
AcDb3dPolylineVertex
 10
40.04128646850586
 20
0.0000002779278248
 30
-16.34027862548828
 70
    32
  0
VERTEX
  5
19B
330
F7
100
AcDbEntity
  8
0
 62
   251
420
  5658198
100
AcDbVertex
100
AcDb3dPolylineVertex
 10
39.97241592407227
 20
0.0000002467126023
 30
-16.19150733947754
 70
    32
  0
VERTEX
  5
19C
330
F7
100
AcDbEntity
  8
0
 62
   251
420
  5658198
100
AcDbVertex
100
AcDb3dPolylineVertex
 10
39.89892578125
 20
0.0000002205816827
 30
-16.04627227783203
 70
    32
  0
VERTEX
  5
19D
330
F7
100
AcDbEntity
  8
0
 62
   251
420
  5658198
100
AcDbVertex
100
AcDb3dPolylineVertex
 10
39.6864242553711
 20
0.0000001620006742
 30
-15.6613712310791
 70
    32
  0
VERTEX
  5
19E
330
F7
100
AcDbEntity
  8
0
 62
   251
420
  5658198
100
AcDbVertex
100
AcDb3dPolylineVertex
 10
39.46006774902344
 20
0.000000112818384
 30
-15.28372764587402
 70
    32
  0
VERTEX
  5
19F
330
F7
100
AcDbEntity
  8
0
 62
   251
420
  5658198
100
AcDbVertex
100
AcDb3dPolylineVertex
 10
38.96868896484375
 20
0.0000000423807478
 30
-14.54997825622558
 70
    32
  0
VERTEX
  5
1A0
330
F7
100
AcDbEntity
  8
0
 62
   251
420
  5658198
100
AcDbVertex
100
AcDb3dPolylineVertex
 10
38.43058013916016
 20
0.0000000087376293
 30
-13.8445873260498
 70
    32
  0
VERTEX
  5
1A1
330
F7
100
AcDbEntity
  8
0
 62
   251
420
  5658198
100
AcDbVertex
100
AcDb3dPolylineVertex
 10
37.85155105590821
 20
0.0000000113599299
 30
-13.16713333129883
 70
    32
  0
VERTEX
  5
1A2
330
F7
100
AcDbEntity
  8
0
 62
   251
420
  5658198
100
AcDbVertex
100
AcDb3dPolylineVertex
 10
37.23739624023437
 20
0.0000000497158226
 30
-12.51717758178711
 70
    32
  0
VERTEX
  5
1A3
330
F7
100
AcDbEntity
  8
0
 62
   251
420
  5658198
100
AcDbVertex
100
AcDb3dPolylineVertex
 10
36.59392547607422
 20
0.0000001232748446
 30
-11.89429092407226
 70
    32
  0
VERTEX
  5
1A4
330
F7
100
AcDbEntity
  8
0
 62
   251
420
  5658198
100
AcDbVertex
100
AcDb3dPolylineVertex
 10
35.92693328857422
 20
0.0000002315063057
 30
-11.29803848266601
 70
    32
  0
VERTEX
  5
1A5
330
F7
100
AcDbEntity
  8
0
 62
   251
420
  5658198
100
AcDbVertex
100
AcDb3dPolylineVertex
 10
35.24222564697266
 20
0.0000003738795158
 30
-10.72798919677734
 70
    32
  0
VERTEX
  5
1A6
330
F7
100
AcDbEntity
  8
0
 62
   251
420
  5658198
100
AcDbVertex
100
AcDb3dPolylineVertex
 10
33.29709625244141
 20
0.0000009241542784
 30
-9.161268234252929
 70
    32
  0
VERTEX
  5
1A7
330
F7
100
AcDbEntity
  8
0
 62
   251
420
  5658198
100
AcDbVertex
100
AcDb3dPolylineVertex
 10
32.82852935791016
 20
0.0000010388415603
 30
-8.745025634765625
 70
    32
  0
VERTEX
  5
1A8
330
F7
100
AcDbEntity
  8
0
 62
   251
420
  5658198
100
AcDbVertex
100
AcDb3dPolylineVertex
 10
32.38314819335938
 20
0.0000011162882174
 30
-8.31328010559082
 70
    32
  0
VERTEX
  5
1A9
330
F7
100
AcDbEntity
  8
0
 62
   251
420
  5658198
100
AcDbVertex
100
AcDb3dPolylineVertex
 10
31.9690055847168
 20
0.0000011424521063
 30
-7.863203048706054
 70
    32
  0
VERTEX
  5
1AA
330
F7
100
AcDbEntity
  8
0
 62
   251
420
  5658198
100
AcDbVertex
100
AcDb3dPolylineVertex
 10
31.77616500854492
 20
0.0000011319137911
 30
-7.630401611328125
 70
    32
  0
VERTEX
  5
1AB
330
F7
100
AcDbEntity
  8
0
 62
   251
420
  5658198
100
AcDbVertex
100
AcDb3dPolylineVertex
 10
31.59415435791016
 20
0.0000011032879002
 30
-7.39195442199707
 70
    32
  0
VERTEX
  5
1AC
330
F7
100
AcDbEntity
  8
0
 62
   251
420
  5658198
100
AcDbVertex
100
AcDb3dPolylineVertex
 10
31.38566207885742
 20
0.0000010511861319
 30
-7.089536666870117
 70
    32
  0
VERTEX
  5
1AD
330
F7
100
AcDbEntity
  8
0
 62
   251
420
  5658198
100
AcDbVertex
100
AcDb3dPolylineVertex
 10
31.17824745178223
 20
0.0000009875215028
 30
-6.757482528686523
 70
    32
  0
VERTEX
  5
1AE
330
F7
100
AcDbEntity
  8
0
 62
   251
420
  5658198
100
AcDbVertex
100
AcDb3dPolylineVertex
 10
30.77844429016113
 20
0.0000008395171562
 30
-6.036666870117187
 70
    32
  0
VERTEX
  5
1AF
330
F7
100
AcDbEntity
  8
0
 62
   251
420
  5658198
100
AcDbVertex
100
AcDb3dPolylineVertex
 10
30.41834449768066
 20
0.0000006873045777
 30
-5.293907165527343
 70
    32
  0
VERTEX
  5
1B0
330
F7
100
AcDbEntity
  8
0
 62
   251
420
  5658198
100
AcDbVertex
100
AcDb3dPolylineVertex
 10
30.12154960632325
 20
0.0000005589112106
 30
-4.593593597412109
 70
    32
  0
VERTEX
  5
1B1
330
F7
100
AcDbEntity
  8
0
 62
   251
420
  5658198
100
AcDbVertex
100
AcDb3dPolylineVertex
 10
29.99210357666015
 20
0.0000004760539696
 30
-4.231483459472656
 70
    32
  0
VERTEX
  5
1B2
330
F7
100
AcDbEntity
  8
0
 62
   251
420
  5658198
100
AcDbVertex
100
AcDb3dPolylineVertex
 10
29.88101196289063
 20
0.0000003453600357
 30
-3.857135772705078
 70
    32
  0
VERTEX
  5
1B3
330
F7
100
AcDbEntity
  8
0
 62
   251
420
  5658198
100
AcDbVertex
100
AcDb3dPolylineVertex
 10
29.78689956665039
 20
0.0000001698816732
 30
-3.471992492675781
 70
    32
  0
VERTEX
  5
1B4
330
F7
100
AcDbEntity
  8
0
 62
   251
420
  5658198
100
AcDbVertex
100
AcDb3dPolylineVertex
 10
29.70838356018067
 20
-0.000000047328399
 30
-3.077480316162109
 70
    32
  0
VERTEX
  5
1B5
330
F7
100
AcDbEntity
  8
0
 62
   251
420
  5658198
100
AcDbVertex
100
AcDb3dPolylineVertex
 10
29.5926456451416
 20
-0.0000005947284762
 30
-2.26611328125
 70
    32
  0
VERTEX
  5
1B6
330
F7
100
AcDbEntity
  8
0
 62
   251
420
  5658198
100
AcDbVertex
100
AcDb3dPolylineVertex
 10
29.52277755737305
 20
-0.0000012724138969
 30
-1.434535980224609
 70
    32
  0
VERTEX
  5
1B7
330
F7
100
AcDbEntity
  8
0
 62
   251
420
  5658198
100
AcDbVertex
100
AcDb3dPolylineVertex
 10
29.48162078857422
 20
-0.0000047974895097
 30
1.863990783691406
 70
    32
  0
VERTEX
  5
1B8
330
F7
100
AcDbEntity
  8
0
 62
   251
420
  5658198
100
AcDbVertex
100
AcDb3dPolylineVertex
 10
29.85321807861328
 20
-0.0000039290371205
 30
1.872756958007812
 70
    32
  0
VERTEX
  5
1B9
330
F7
100
AcDbEntity
  8
0
 62
   251
420
  5658198
100
AcDbVertex
100
AcDb3dPolylineVertex
 10
30.22557640075684
 20
-0.0000032652956179
 30
1.901081085205078
 70
    32
  0
VERTEX
  5
1BA
330
F7
100
AcDbEntity
  8
0
 62
   251
420
  5658198
100
AcDbVertex
100
AcDb3dPolylineVertex
 10
30.593656539917
 20
-0.0000027624282666
 30
1.952014923095703
 70
    32
  0
VERTEX
  5
1BB
330
F7
100
AcDbEntity
  8
0
 62
   251
420
  5658198
100
AcDbVertex
100
AcDb3dPolylineVertex
 10
30.77451515197754
 20
-0.0000025576241569
 30
1.986915588378906
 70
    32
  0
VERTEX
  5
1BC
330
F7
100
AcDbEntity
  8
0
 62
   251
420
  5658198
100
AcDbVertex
100
AcDb3dPolylineVertex
 10
30.95241355895996
 20
-0.0000023765996957
 30
2.028614044189453
 70
    32
  0
VERTEX
  5
1BD
330
F7
100
AcDbEntity
  8
0
 62
   251
420
  5658198
100
AcDbVertex
100
AcDb3dPolylineVertex
 10
31.1267204284668
 20
-0.0000022138769964
 30
2.077491760253906
 70
    32
  0
VERTEX
  5
1BE
330
F7
100
AcDbEntity
  8
0
 62
   251
420
  5658198
100
AcDbVertex
100
AcDb3dPolylineVertex
 10
31.29680633544922
 20
-0.0000020639749891
 30
2.133930206298828
 70
    32
  0
VERTEX
  5
1BF
330
F7
100
AcDbEntity
  8
0
 62
   251
420
  5658198
100
AcDbVertex
100
AcDb3dPolylineVertex
 10
31.46203994750977
 20
-0.0000019214139684
 30
2.198310852050781
 70
    32
  0
VERTEX
  5
1C0
330
F7
100
AcDbEntity
  8
0
 62
   251
420
  5658198
100
AcDbVertex
100
AcDb3dPolylineVertex
 10
31.62179183959961
 20
-0.0000017807157064
 30
2.271015167236328
 70
    32
  0
VERTEX
  5
1C1
330
F7
100
AcDbEntity
  8
0
 62
   251
420
  5658198
100
AcDbVertex
100
AcDb3dPolylineVertex
 10
31.77543067932129
 20
-0.0000016364002704
 30
2.352424621582031
 70
    32
  0
VERTEX
  5
1C2
330
F7
100
AcDbEntity
  8
0
 62
   251
420
  5658198
100
AcDbVertex
100
AcDb3dPolylineVertex
 10
31.92232704162598
 20
-0.0000014829867041
 30
2.442916870117187
 70
    32
  0
VERTEX
  5
1C3
330
F7
100
AcDbEntity
  8
0
 62
   251
420
  5658198
100
AcDbVertex
100
AcDb3dPolylineVertex
 10
31.99304962158203
 20
-0.0000014011569647
 30
2.491691589355468
 70
    32
  0
VERTEX
  5
1C4
330
F7
100
AcDbEntity
  8
0
 62
   251
420
  5658198
100
AcDbVertex
100
AcDb3dPolylineVertex
 10
32.06185150146485
 20
-0.0000013149982578
 30
2.542884826660156
 70
    32
  0
VERTEX
  5
1C5
330
F7
100
AcDbEntity
  8
0
 62
   251
420
  5658198
100
AcDbVertex
100
AcDb3dPolylineVertex
 10
32.1286506652832
 20
-0.0000012238248246
 30
2.596534729003906
 70
    32
  0
VERTEX
  5
1C6
330
F7
100
AcDbEntity
  8
0
 62
   251
420
  5658198
100
AcDbVertex
100
AcDb3dPolylineVertex
 10
32.1933708190918
 20
-0.0000011269531797
 30
2.652694702148437
 70
    32
  0
VERTEX
  5
1C7
330
F7
100
AcDbEntity
  8
0
 62
   251
420
  5658198
100
AcDbVertex
100
AcDb3dPolylineVertex
 10
32.33185958862305
 20
-0.0000009187862133
 30
2.78519058227539
 70
    32
  0
VERTEX
  5
1C8
330
F7
100
AcDbEntity
  8
0
 62
   251
420
  5658198
100
AcDbVertex
100
AcDb3dPolylineVertex
 10
32.46268844604492
 20
-0.0000007397935633
 30
2.925582885742187
 70
    32
  0
VERTEX
  5
1C9
330
F7
100
AcDbEntity
  8
0
 62
   251
420
  5658198
100
AcDbVertex
100
AcDb3dPolylineVertex
 10
32.58568954467774
 20
-0.0000005880807521
 30
3.073310852050781
 70
    32
  0
VERTEX
  5
1CA
330
F7
100
AcDbEntity
  8
0
 62
   251
420
  5658198
100
AcDbVertex
100
AcDb3dPolylineVertex
 10
32.70068740844727
 20
-0.0000004617528475
 30
3.227806091308593
 70
    32
  0
VERTEX
  5
1CB
330
F7
100
AcDbEntity
  8
0
 62
   251
420
  5658198
100
AcDbVertex
100
AcDb3dPolylineVertex
 10
32.80752182006836
 20
-0.0000003589144626
 30
3.388507843017578
 70
    32
  0
VERTEX
  5
1CC
330
F7
100
AcDbEntity
  8
0
 62
   251
420
  5658198
100
AcDbVertex
100
AcDb3dPolylineVertex
 10
32.9060173034668
 20
-0.0000002776729389
 30
3.554855346679687
 70
    32
  0
VERTEX
  5
1CD
330
F7
100
AcDbEntity
  8
0
 62
   251
420
  5658198
100
AcDbVertex
100
AcDb3dPolylineVertex
 10
32.99600601196289
 20
-0.0000002161315251
 30
3.726276397705078
 70
    32
  0
VERTEX
  5
1CE
330
F7
100
AcDbEntity
  8
0
 62
   251
420
  5658198
100
AcDbVertex
100
AcDb3dPolylineVertex
 10
33.07732009887696
 20
-0.0000001723993819
 30
3.902225494384765
 70
    32
  0
VERTEX
  5
1CF
330
F7
100
AcDbEntity
  8
0
 62
   251
420
  5658198
100
AcDbVertex
100
AcDb3dPolylineVertex
 10
33.1497917175293
 20
-0.0000001445797579
 30
4.082122802734375
 70
    32
  0
VERTEX
  5
1D0
330
F7
100
AcDbEntity
  8
0
 62
   251
420
  5658198
100
AcDbVertex
100
AcDb3dPolylineVertex
 10
33.21324920654297
 20
-0.0000001307759021
 30
4.265407562255859
 70
    32
  0
VERTEX
  5
1D1
330
F7
100
AcDbEntity
  8
0
 62
   251
420
  5658198
100
AcDbVertex
100
AcDb3dPolylineVertex
 10
33.26752853393555
 20
-0.0000001290978844
 30
4.451522827148437
 70
    32
  0
VERTEX
  5
1D2
330
F7
100
AcDbEntity
  8
0
 62
   251
420
  5658198
100
AcDbVertex
100
AcDb3dPolylineVertex
 10
33.31245422363281
 20
-0.0000001376494083
 30
4.639900207519531
 70
    32
  0
VERTEX
  5
1D3
330
F7
100
AcDbEntity
  8
0
 62
   251
420
  5658198
100
AcDbVertex
100
AcDb3dPolylineVertex
 10
33.34786224365235
 20
-0.0000001545346322
 30
4.829978942871093
 70
    32
  0
VERTEX
  5
1D4
330
F7
100
AcDbEntity
  8
0
 62
   251
420
  5658198
100
AcDbVertex
100
AcDb3dPolylineVertex
 10
33.37358474731445
 20
-0.0000001778608976
 30
5.021190643310546
 70
    32
  0
VERTEX
  5
1D5
330
F7
100
AcDbEntity
  8
0
 62
   251
420
  5658198
100
AcDbVertex
100
AcDb3dPolylineVertex
 10
33.38944625854492
 20
-0.0000002057328174
 30
5.212978363037109
 70
    32
  0
VERTEX
  5
1D6
330
F7
100
AcDbEntity
  8
0
 62
   251
420
  5658198
100
AcDbVertex
100
AcDb3dPolylineVertex
 10
33.39528656005859
 20
-0.0000002362563691
 30
5.404773712158203
 70
    32
  0
VERTEX
  5
1D7
330
F7
100
AcDbEntity
  8
0
 62
   251
420
  5658198
100
AcDbVertex
100
AcDb3dPolylineVertex
 10
33.39101028442383
 20
-0.0000002674020152
 30
5.595924377441406
 70
    32
  0
VERTEX
  5
1D8
330
F7
100
AcDbEntity
  8
0
 62
   251
420
  5658198
100
AcDbVertex
100
AcDb3dPolylineVertex
 10
33.37676239013672
 20
-0.0000002982716296
 30
5.78598403930664
 70
    32
  0
VERTEX
  5
1D9
330
F7
100
AcDbEntity
  8
0
 62
   251
420
  5658198
100
AcDbVertex
100
AcDb3dPolylineVertex
 10
33.35272979736328
 20
-0.0000003286419314
 30
5.974575042724609
 70
    32
  0
VERTEX
  5
1DA
330
F7
100
AcDbEntity
  8
0
 62
   251
420
  5658198
100
AcDbVertex
100
AcDb3dPolylineVertex
 10
33.31908035278321
 20
-0.000000358291004
 30
6.161323547363281
 70
    32
  0
VERTEX
  5
1DB
330
F7
100
AcDbEntity
  8
0
 62
   251
420
  5658198
100
AcDbVertex
100
AcDb3dPolylineVertex
 10
33.2760009765625
 20
-0.00000038699784
 30
6.345851898193359
 70
    32
  0
VERTEX
  5
1DC
330
F7
100
AcDbEntity
  8
0
 62
   251
420
  5658198
100
AcDbVertex
100
AcDb3dPolylineVertex
 10
33.22366333007813
 20
-0.0000004145432513
 30
6.527797698974609
 70
    32
  0
VERTEX
  5
1DD
330
F7
100
AcDbEntity
  8
0
 62
   251
420
  5658198
100
AcDbVertex
100
AcDb3dPolylineVertex
 10
33.1622543334961
 20
-0.0000004407030474
 30
6.706775665283203
 70
    32
  0
VERTEX
  5
1DE
330
F7
100
AcDbEntity
  8
0
 62
   251
420
  5658198
100
AcDbVertex
100
AcDb3dPolylineVertex
 10
33.09194564819336
 20
-0.0000004652557664
 30
6.882404327392578
 70
    32
  0
VERTEX
  5
1DF
330
F7
100
AcDbEntity
  8
0
 62
   251
420
  5658198
100
AcDbVertex
100
AcDb3dPolylineVertex
 10
33.01292037963867
 20
-0.0000004879817652
 30
7.054328918457031
 70
    32
  0
VERTEX
  5
1E0
330
F7
100
AcDbEntity
  8
0
 62
   251
420
  5658198
100
AcDbVertex
100
AcDb3dPolylineVertex
 10
32.92535400390625
 20
-0.0000005086582178
 30
7.222156524658203
 70
    32
  0
VERTEX
  5
1E1
330
F7
100
AcDbEntity
  8
0
 62
   251
420
  5658198
100
AcDbVertex
100
AcDb3dPolylineVertex
 10
32.82942581176758
 20
-0.0000005270641168
 30
7.385520935058593
 70
    32
  0
VERTEX
  5
1E2
330
F7
100
AcDbEntity
  8
0
 62
   251
420
  5658198
100
AcDbVertex
100
AcDb3dPolylineVertex
 10
32.72531509399414
 20
-0.0000005429766361
 30
7.54404067993164
 70
    32
  0
VERTEX
  5
1E3
330
F7
100
AcDbEntity
  8
0
 62
   251
420
  5658198
100
AcDbVertex
100
AcDb3dPolylineVertex
 10
32.61319732666016
 20
-0.0000005561747685
 30
7.697341918945312
 70
    32
  0
VERTEX
  5
1E4
330
F7
100
AcDbEntity
  8
0
 62
   251
420
  5658198
100
AcDbVertex
100
AcDb3dPolylineVertex
 10
32.49325942993164
 20
-0.0000005664393257
 30
7.845062255859375
 70
    32
  0
VERTEX
  5
1E5
330
F7
100
AcDbEntity
  8
0
 62
   251
420
  5658198
100
AcDbVertex
100
AcDb3dPolylineVertex
 10
32.36567306518555
 20
-0.0000005735456625
 30
7.986808776855468
 70
    32
  0
VERTEX
  5
1E6
330
F7
100
AcDbEntity
  8
0
 62
   251
420
  5658198
100
AcDbVertex
100
AcDb3dPolylineVertex
 10
32.23061752319336
 20
-0.000000577274136
 30
8.122219085693359
 70
    32
  0
VERTEX
  5
1E7
330
F7
100
AcDbEntity
  8
0
 62
   251
420
  5658198
100
AcDbVertex
100
AcDb3dPolylineVertex
 10
32.08861160278321
 20
-0.000000578733875
 30
8.25070571899414
 70
    32
  0
VERTEX
  5
1E8
330
F7
100
AcDbEntity
  8
0
 62
   251
420
  5658198
100
AcDbVertex
100
AcDb3dPolylineVertex
 10
31.94015693664551
 20
-0.0000005795719744
 30
8.371852874755859
 70
    32
  0
VERTEX
  5
1E9
330
F7
100
AcDbEntity
  8
0
 62
   251
420
  5658198
100
AcDbVertex
100
AcDb3dPolylineVertex
 10
31.78552627563477
 20
-0.0000005803668728
 30
8.485393524169921
 70
    32
  0
VERTEX
  5
1EA
330
F7
100
AcDbEntity
  8
0
 62
   251
420
  5658198
100
AcDbVertex
100
AcDb3dPolylineVertex
 10
31.625
 20
-0.0000005817024658
 30
8.591068267822265
 70
    32
  0
VERTEX
  5
1EB
330
F7
100
AcDbEntity
  8
0
 62
   251
420
  5658198
100
AcDbVertex
100
AcDb3dPolylineVertex
 10
31.4588565826416
 20
-0.000000584157192
 30
8.688610076904296
 70
    32
  0
VERTEX
  5
1EC
330
F7
100
AcDbEntity
  8
0
 62
   251
420
  5658198
100
AcDbVertex
100
AcDb3dPolylineVertex
 10
31.2873706817627
 20
-0.0000005883117637
 30
8.777759552001953
 70
    32
  0
VERTEX
  5
1ED
330
F7
100
AcDbEntity
  8
0
 62
   251
420
  5658198
100
AcDbVertex
100
AcDb3dPolylineVertex
 10
31.11082267761231
 20
-0.0000005947464388
 30
8.858253479003906
 70
    32
  0
VERTEX
  5
1EE
330
F7
100
AcDbEntity
  8
0
 62
   251
420
  5658198
100
AcDbVertex
100
AcDb3dPolylineVertex
 10
30.92949104309082
 20
-0.0000006040432936
 30
8.929832458496093
 70
    32
  0
VERTEX
  5
1EF
330
F7
100
AcDbEntity
  8
0
 62
   251
420
  5658198
100
AcDbVertex
100
AcDb3dPolylineVertex
 10
30.91646003723145
 20
-0.0000006463266118
 30
9.24383544921875
 70
    32
  0
VERTEX
  5
1F0
330
F7
100
AcDbEntity
  8
0
 62
   251
420
  5658198
100
AcDbVertex
100
AcDb3dPolylineVertex
 10
30.88475036621094
 20
-0.0000006737346894
 30
9.555656433105468
 70
    32
  0
VERTEX
  5
1F1
330
F7
100
AcDbEntity
  8
0
 62
   251
420
  5658198
100
AcDbVertex
100
AcDb3dPolylineVertex
 10
30.83456993103027
 20
-0.0000006909746162
 30
9.864486694335937
 70
    32
  0
VERTEX
  5
1F2
330
F7
100
AcDbEntity
  8
0
 62
   251
420
  5658198
100
AcDbVertex
100
AcDb3dPolylineVertex
 10
30.76612663269043
 20
-0.0000007027521178
 30
10.16950225830078
 70
    32
  0
VERTEX
  5
1F3
330
F7
100
AcDbEntity
  8
0
 62
   251
420
  5658198
100
AcDbVertex
100
AcDb3dPolylineVertex
 10
30.67963027954102
 20
-0.0000007137783768
 30
10.46990585327148
 70
    32
  0
VERTEX
  5
1F4
330
F7
100
AcDbEntity
  8
0
 62
   251
420
  5658198
100
AcDbVertex
100
AcDb3dPolylineVertex
 10
30.57528686523438
 20
-0.0000007287595736
 30
10.7648696899414
 70
    32
  0
VERTEX
  5
1F5
330
F7
100
AcDbEntity
  8
0
 62
   251
420
  5658198
100
AcDbVertex
100
AcDb3dPolylineVertex
 10
30.45330429077149
 20
-0.0000007524027978
 30
11.0535888671875
 70
    32
  0
VERTEX
  5
1F6
330
F7
100
AcDbEntity
  8
0
 62
   251
420
  5658198
100
AcDbVertex
100
AcDb3dPolylineVertex
 10
30.31389236450195
 20
-0.0000007894174132
 30
11.33525085449218
 70
    32
  0
VERTEX
  5
1F7
330
F7
100
AcDbEntity
  8
0
 62
   251
420
  5658198
100
AcDbVertex
100
AcDb3dPolylineVertex
 10
30.15758514404297
 20
-0.0000008338994348
 30
11.60823822021484
 70
    32
  0
VERTEX
  5
1F8
330
F7
100
AcDbEntity
  8
0
 62
   251
420
  5658198
100
AcDbVertex
100
AcDb3dPolylineVertex
 10
29.98525047302246
 20
-0.0000008767279951
 30
11.87100219726562
 70
    32
  0
VERTEX
  5
1F9
330
F7
100
AcDbEntity
  8
0
 62
   251
420
  5658198
100
AcDbVertex
100
AcDb3dPolylineVertex
 10
29.79759597778321
 20
-0.0000009177794027
 30
12.12282180786133
 70
    32
  0
VERTEX
  5
1FA
330
F7
100
AcDbEntity
  8
0
 62
   251
420
  5658198
100
AcDbVertex
100
AcDb3dPolylineVertex
 10
29.59532546997071
 20
-0.0000009569322401
 30
12.36295318603515
 70
    32
  0
VERTEX
  5
1FB
330
F7
100
AcDbEntity
  8
0
 62
   251
420
  5658198
100
AcDbVertex
100
AcDb3dPolylineVertex
 10
29.37915420532227
 20
-0.0000009940632708
 30
12.59067916870117
 70
    32
  0
VERTEX
  5
1FC
330
F7
100
AcDbEntity
  8
0
 62
   251
420
  5658198
100
AcDbVertex
100
AcDb3dPolylineVertex
 10
29.1497859954834
 20
-0.0000010290492582
 30
12.80526733398437
 70
    32
  0
VERTEX
  5
1FD
330
F7
100
AcDbEntity
  8
0
 62
   251
420
  5658198
100
AcDbVertex
100
AcDb3dPolylineVertex
 10
28.90792846679687
 20
-0.0000010617692396
 30
13.00598907470703
 70
    32
  0
VERTEX
  5
1FE
330
F7
100
AcDbEntity
  8
0
 62
   251
420
  5658198
100
AcDbVertex
100
AcDb3dPolylineVertex
 10
28.6542911529541
 20
-0.0000010920999785
 30
13.1921157836914
 70
    32
  0
VERTEX
  5
1FF
330
F7
100
AcDbEntity
  8
0
 62
   251
420
  5658198
100
AcDbVertex
100
AcDb3dPolylineVertex
 10
28.44524192810059
 20
-0.0000011654520904
 30
13.32735824584961
 70
    32
  0
VERTEX
  5
200
330
F7
100
AcDbEntity
  8
0
 62
   251
420
  5658198
100
AcDbVertex
100
AcDb3dPolylineVertex
 10
28.22899627685547
 20
-0.0000013270306454
 30
13.45043563842773
 70
    32
  0
VERTEX
  5
201
330
F7
100
AcDbEntity
  8
0
 62
   251
420
  5658198
100
AcDbVertex
100
AcDb3dPolylineVertex
 10
28.00625801086426
 20
-0.0000015581973685
 30
13.56134414672851
 70
    32
  0
VERTEX
  5
202
330
F7
100
AcDbEntity
  8
0
 62
   251
420
  5658198
100
AcDbVertex
100
AcDb3dPolylineVertex
 10
27.77773666381836
 20
-0.000001840315349
 30
13.66007995605469
 70
    32
  0
VERTEX
  5
203
330
F7
100
AcDbEntity
  8
0
 62
   251
420
  5658198
100
AcDbVertex
100
AcDb3dPolylineVertex
 10
27.54413604736328
 20
-0.0000021547480173
 30
13.74666976928711
 70
    32
  0
VERTEX
  5
204
330
F7
100
AcDbEntity
  8
0
 62
   251
420
  5658198
100
AcDbVertex
100
AcDb3dPolylineVertex
 10
27.3061637878418
 20
-0.0000024828595997
 30
13.82111358642578
 70
    32
  0
VERTEX
  5
205
330
F7
100
AcDbEntity
  8
0
 62
   251
420
  5658198
100
AcDbVertex
100
AcDb3dPolylineVertex
 10
27.06452941894531
 20
-0.0000028060098884
 30
13.88341522216797
 70
    32
  0
VERTEX
  5
206
330
F7
100
AcDbEntity
  8
0
 62
   251
420
  5658198
100
AcDbVertex
100
AcDb3dPolylineVertex
 10
26.8199348449707
 20
-0.0000031055647014
 30
13.93359375
 70
    32
  0
VERTEX
  5
207
330
F7
100
AcDbEntity
  8
0
 62
   251
420
  5658198
100
AcDbVertex
100
AcDb3dPolylineVertex
 10
26.51994323730469
 20
-0.0000034541099012
 30
13.98041152954101
 70
    32
  0
VERTEX
  5
208
330
F7
100
AcDbEntity
  8
0
 62
   251
420
  5658198
100
AcDbVertex
100
AcDb3dPolylineVertex
 10
26.21551513671875
 20
-0.0000038225921344
 30
14.01526260375976
 70
    32
  0
VERTEX
  5
209
330
F7
100
AcDbEntity
  8
0
 62
   251
420
  5658198
100
AcDbVertex
100
AcDb3dPolylineVertex
 10
25.59678268432617
 20
-0.0000046447189561
 30
14.05614471435547
 70
    32
  0
VERTEX
  5
20A
330
F7
100
AcDbEntity
  8
0
 62
   251
420
  5658198
100
AcDbVertex
100
AcDb3dPolylineVertex
 10
24.34398651123047
 20
-0.0000068070698944
 30
14.07193374633789
 70
    32
  0
VERTEX
  5
20B
330
F7
100
AcDbEntity
  8
0
 62
   251
420
  5658198
100
AcDbVertex
100
AcDb3dPolylineVertex
 10
24.33395385742187
 20
0.0000145014628288
 30
-116.8884887695312
 70
    32
  0
VERTEX
  5
20C
330
F7
100
AcDbEntity
  8
0
 62
   251
420
  5658198
100
AcDbVertex
100
AcDb3dPolylineVertex
 10
40.33025360107422
 20
0.0000145014628288
 30
-116.8884887695312
 70
    32
  0
VERTEX
  5
20D
330
F7
100
AcDbEntity
  8
0
 62
   251
420
  5658198
100
AcDbVertex
100
AcDb3dPolylineVertex
 10
40.33026123046875
 20
0.000005067366601
 30
-70.56655883789062
 70
    32
  0
VERTEX
  5
20E
330
F7
100
AcDbEntity
  8
0
 62
   251
420
  5658198
100
AcDbVertex
100
AcDb3dPolylineVertex
 10
40.32961273193359
 20
0.000004701988928
 30
-70.07622528076172
 70
    32
  0
VERTEX
  5
20F
330
F7
100
AcDbEntity
  8
0
 62
   251
420
  5658198
100
AcDbVertex
100
AcDb3dPolylineVertex
 10
40.32228469848632
 20
0.0000043688360165
 30
-69.83261108398437
 70
    32
  0
VERTEX
  5
210
330
F7
100
AcDbEntity
  8
0
 62
   251
420
  5658198
100
AcDbVertex
100
AcDb3dPolylineVertex
 10
40.30449295043945
 20
0.0000039914120862
 30
-69.59294128417969
 70
    32
  0
VERTEX
  5
211
330
F7
100
AcDbEntity
  8
0
 62
   251
420
  5658198
100
AcDbVertex
100
AcDb3dPolylineVertex
 10
40.29031753540039
 20
0.0000037992308535
 30
-69.47526550292969
 70
    32
  0
VERTEX
  5
212
330
F7
100
AcDbEntity
  8
0
 62
   251
420
  5658198
100
AcDbVertex
100
AcDb3dPolylineVertex
 10
40.27189636230469
 20
0.0000036117426134
 30
-69.35939025878906
 70
    32
  0
VERTEX
  5
213
330
F7
100
AcDbEntity
  8
0
 62
   251
420
  5658198
100
AcDbVertex
100
AcDb3dPolylineVertex
 10
40.24868392944336
 20
0.0000034342001527
 30
-69.24559020996094
 70
    32
  0
VERTEX
  5
214
330
F7
100
AcDbEntity
  8
0
 62
   251
420
  5658198
100
AcDbVertex
100
AcDb3dPolylineVertex
 10
40.22014236450195
 20
0.0000032718567127
 30
-69.13414001464843
 70
    32
  0
VERTEX
  5
215
330
F7
100
AcDbEntity
  8
0
 62
   251
420
  5658198
100
AcDbVertex
100
AcDb3dPolylineVertex
 10
40.18572616577148
 20
0.0000031299664442
 30
-69.02531433105469
 70
    32
  0
VERTEX
  5
216
330
F7
100
AcDbEntity
  8
0
 62
   251
420
  5658198
100
AcDbVertex
100
AcDb3dPolylineVertex
 10
40.14489364624023
 20
0.0000030137821341
 30
-68.91938018798828
 70
    32
  0
VERTEX
  5
217
330
F7
100
AcDbEntity
  8
0
 62
   251
420
  5658198
100
AcDbVertex
100
AcDb3dPolylineVertex
 10
40.12190246582031
 20
0.0000029669713513
 30
-68.86758422851563
 70
    32
  0
VERTEX
  5
218
330
F7
100
AcDbEntity
  8
0
 62
   251
420
  5658198
100
AcDbVertex
100
AcDb3dPolylineVertex
 10
40.09709930419922
 20
0.0000029285574783
 30
-68.81661224365235
 70
    32
  0
VERTEX
  5
219
330
F7
100
AcDbEntity
  8
0
 62
   251
420
  5658198
100
AcDbVertex
100
AcDb3dPolylineVertex
 10
40.0704231262207
 20
0.0000028991971703
 30
-68.76650238037109
 70
    32
  0
VERTEX
  5
21A
330
F7
100
AcDbEntity
  8
0
 62
   251
420
  5658198
100
AcDbVertex
100
AcDb3dPolylineVertex
 10
40.04180145263672
 20
0.0000028795461731
 30
-68.71728515625
 70
    32
  0
VERTEX
  5
21B
330
F7
100
AcDbEntity
  8
0
 62
   251
420
  5658198
100
AcDbVertex
100
AcDb3dPolylineVertex
 10
39.97594451904297
 20
0.0000028523654692
 30
-68.61624908447265
 70
    32
  0
VERTEX
  5
21C
330
F7
100
AcDbEntity
  8
0
 62
   251
420
  5658198
100
AcDbVertex
100
AcDb3dPolylineVertex
 10
39.90370559692383
 20
0.0000028315357667
 30
-68.519287109375
 70
    32
  0
VERTEX
  5
21D
330
F7
100
AcDbEntity
  8
0
 62
   251
420
  5658198
100
AcDbVertex
100
AcDb3dPolylineVertex
 10
39.82551193237305
 20
0.0000028157978704
 30
-68.42671203613281
 70
    32
  0
VERTEX
  5
21E
330
F7
100
AcDbEntity
  8
0
 62
   251
420
  5658198
100
AcDbVertex
100
AcDb3dPolylineVertex
 10
39.74179840087891
 20
0.000002803899406
 30
-68.33891296386719
 70
    32
  0
VERTEX
  5
21F
330
F7
100
AcDbEntity
  8
0
 62
   251
420
  5658198
100
AcDbVertex
100
AcDb3dPolylineVertex
 10
39.65299987792969
 20
0.000002794582997
 30
-68.25621032714844
 70
    32
  0
VERTEX
  5
220
330
F7
100
AcDbEntity
  8
0
 62
   251
420
  5658198
100
AcDbVertex
100
AcDb3dPolylineVertex
 10
39.55954742431641
 20
0.000002786594905
 30
-68.17897796630859
 70
    32
  0
VERTEX
  5
221
330
F7
100
AcDbEntity
  8
0
 62
   251
420
  5658198
100
AcDbVertex
100
AcDb3dPolylineVertex
 10
39.46186828613281
 20
0.0000027786782084
 30
-68.10755920410156
 70
    32
  0
VERTEX
  5
222
330
F7
100
AcDbEntity
  8
0
 62
   251
420
  5658198
100
AcDbVertex
100
AcDb3dPolylineVertex
 10
39.36040115356446
 20
0.0000027695787139
 30
-68.04230499267578
 70
    32
  0
VERTEX
  5
223
330
F7
100
AcDbEntity
  8
0
 62
   251
420
  5658198
100
AcDbVertex
100
AcDb3dPolylineVertex
 10
39.26006317138672
 20
0.0000027831811167
 30
-67.98666381835937
 70
    32
  0
VERTEX
  5
224
330
F7
100
AcDbEntity
  8
0
 62
   251
420
  5658198
100
AcDbVertex
100
AcDb3dPolylineVertex
 10
39.15642929077149
 20
0.0000028395743357
 30
-67.93791198730469
 70
    32
  0
VERTEX
  5
225
330
F7
100
AcDbEntity
  8
0
 62
   251
420
  5658198
100
AcDbVertex
100
AcDb3dPolylineVertex
 10
39.04977798461914
 20
0.0000029331686164
 30
-67.89547729492188
 70
    32
  0
VERTEX
  5
226
330
F7
100
AcDbEntity
  8
0
 62
   251
420
  5658198
100
AcDbVertex
100
AcDb3dPolylineVertex
 10
38.94038391113281
 20
0.0000030583696571
 30
-67.85877227783203
 70
    32
  0
VERTEX
  5
227
330
F7
100
AcDbEntity
  8
0
 62
   251
420
  5658198
100
AcDbVertex
100
AcDb3dPolylineVertex
 10
38.82852172851563
 20
0.0000032095872484
 30
-67.82723236083985
 70
    32
  0
VERTEX
  5
228
330
F7
100
AcDbEntity
  8
0
 62
   251
420
  5658198
100
AcDbVertex
100
AcDb3dPolylineVertex
 10
38.71447372436524
 20
0.0000033812293623
 30
-67.80027770996094
 70
    32
  0
VERTEX
  5
229
330
F7
100
AcDbEntity
  8
0
 62
   251
420
  5658198
100
AcDbVertex
100
AcDb3dPolylineVertex
 10
38.48091125488281
 20
0.0000037634190448
 30
-67.75782012939453
 70
    32
  0
SEQEND
  5
22A
330
F7
100
AcDbEntity
  8
0
 62
   251
420
  5658198
  0
ENDSEC
  0
SECTION
  2
OBJECTS
  0
DICTIONARY
  5
C
330
0
100
AcDbDictionary
281
     1
  3
ACAD_COLOR
350
DC
  3
ACAD_DETAILVIEWSTYLE
350
F5
  3
ACAD_GROUP
350
D
  3
ACAD_LAYOUT
350
1A
  3
ACAD_MATERIAL
350
AA
  3
ACAD_MLEADERSTYLE
350
F1
  3
ACAD_MLINESTYLE
350
17
  3
ACAD_PLOTSETTINGS
350
19
  3
ACAD_PLOTSTYLENAME
350
E
  3
ACAD_SCALELIST
350
DF
  3
ACAD_SECTIONVIEWSTYLE
350
F3
  3
ACAD_TABLESTYLE
350
DD
  3
ACAD_VISUALSTYLE
350
C3
  3
ACDB_RECOMPOSE_DATA
350
237
  3
AcDbVariableDictionary
350
22B
  0
DICTIONARY
  5
DC
102
{ACAD_REACTORS
330
C
102
}
330
C
100
AcDbDictionary
281
     1
  0
DICTIONARY
  5
F5
102
{ACAD_REACTORS
330
C
102
}
330
C
100
AcDbDictionary
281
     1
  3
Imperial24
350
F6
  0
DICTIONARY
  5
D
102
{ACAD_REACTORS
330
C
102
}
330
C
100
AcDbDictionary
281
     1
  0
DICTIONARY
  5
1A
102
{ACAD_REACTORS
330
C
102
}
330
C
100
AcDbDictionary
281
     1
  3
Layout1
350
1E
  3
Layout2
350
26
  3
Model
350
22
  0
DICTIONARY
  5
AA
102
{ACAD_REACTORS
330
C
102
}
330
C
100
AcDbDictionary
281
     1
  3
ByBlock
350
B3
  3
ByLayer
350
AB
  3
Global
350
BB
  0
DICTIONARY
  5
F1
102
{ACAD_REACTORS
330
C
102
}
330
C
100
AcDbDictionary
281
     1
  3
Standard
350
F2
  0
DICTIONARY
  5
17
102
{ACAD_REACTORS
330
C
102
}
330
C
100
AcDbDictionary
281
     1
  3
Standard
350
18
  0
DICTIONARY
  5
19
102
{ACAD_REACTORS
330
C
102
}
330
C
100
AcDbDictionary
281
     1
  0
ACDBDICTIONARYWDFLT
  5
E
102
{ACAD_REACTORS
330
C
102
}
330
C
100
AcDbDictionary
281
     1
  3
ByLayer
350
2D
  3
Normal
350
F
100
AcDbDictionaryWithDefault
340
F
  0
DICTIONARY
  5
DF
102
{ACAD_REACTORS
330
C
102
}
330
C
100
AcDbDictionary
281
     1
  3
A0
350
E0
  3
A1
350
E1
  3
A2
350
E2
  3
A3
350
E3
  3
A4
350
E4
  3
A5
350
E5
  3
A6
350
E6
  3
A7
350
E7
  3
A8
350
E8
  3
A9
350
E9
  3
B0
350
EA
  3
B1
350
EB
  3
B2
350
EC
  3
B3
350
ED
  3
B4
350
EE
  3
B5
350
EF
  3
B6
350
F0
  0
DICTIONARY
  5
F3
102
{ACAD_REACTORS
330
C
102
}
330
C
100
AcDbDictionary
281
     1
  3
Imperial24
350
F4
  0
DICTIONARY
  5
DD
102
{ACAD_REACTORS
330
C
102
}
330
C
100
AcDbDictionary
281
     1
  3
Standard
350
DE
  0
DICTIONARY
  5
C3
102
{ACAD_REACTORS
330
C
102
}
330
C
100
AcDbDictionary
281
     1
  3
2dWireframe
350
C9
  3
Basic
350
C8
  3
Brighten
350
CF
  3
ColorChange
350
D3
  3
Conceptual
350
CC
  3
Dim
350
CE
  3
EdgeColorOff
350
DB
  3
Facepattern
350
D2
  3
Flat
350
C4
  3
FlatWithEdges
350
C5
  3
Gouraud
350
C6
  3
GouraudWithEdges
350
C7
  3
Hidden
350
CB
  3
JitterOff
350
D9
  3
Linepattern
350
D1
  3
OverhangOff
350
DA
  3
Realistic
350
CD
  3
Shaded
350
D8
  3
Shaded with edges
350
D7
  3
Shades of Gray
350
D4
  3
Sketchy
350
D5
  3
Thicken
350
D0
  3
Wireframe
350
CA
  3
X-Ray
350
D6
  0
XRECORD
  5
237
102
{ACAD_REACTORS
330
C
102
}
330
C
100
AcDbXrecord
280
     1
 90
        1
330
DE
  0
DICTIONARY
  5
22B
102
{ACAD_REACTORS
330
C
102
}
330
C
100
AcDbDictionary
281
     1
  3
CANNOSCALE
350
231
  3
CMLEADERSTYLE
350
22D
  3
CTABLESTYLE
350
22C
  3
CVIEWDETAILSTYLE
350
22E
  3
CVIEWSECTIONSTYLE
350
22F
  3
LAYEREVAL
350
233
  3
LAYERNOTIFY
350
234
  3
LIGHTINGUNITS
350
232
  3
MSLTSCALE
350
230
  0
ACDBDETAILVIEWSTYLE
  5
F6
102
{ACAD_XDICTIONARY
360
26E
102
}
102
{ACAD_REACTORS
330
F5
102
}
330
F5
100
AcDbModelDocViewStyle
 70
     0
  3
Imperial24
290
     0
100
AcDbDetailViewStyle
 70
     0
 71
     0
 90
        3
 71
     1
340
11
 62
   256
 40
0.24
340
0
 62
   256
 40
0.24
300

 40
0.36
280
     3
 71
     2
340
16
 90
       25
 62
   256
 71
     3
340
11
 62
   256
 40
0.24
 90
        1
 40
0.75
 90
        1
300
%<\AcVar ViewType \f "%tc1">% %<\AcVar ViewDetailId>%\PSCALE %<\AcVar ViewScale \f "%sn">%
 71
     4
340
16
 90
       25
 62
   256
340
16
 90
       25
 62
   256
280
     0
  0
LAYOUT
  5
1E
102
{ACAD_REACTORS
330
1A
102
}
330
1A
100
AcDbPlotSettings
  1

  2
\\KTXNTBDC\CASF2PN1
  4

  6

 40
0.0
 41
0.0
 42
0.0
 43
0.0
 44
0.0
 45
0.0
 46
0.0
 47
0.0
 48
0.0
 49
0.0
140
0.0
141
0.0
142
1.0
143
1.0
 70
   688
 72
     0
 73
     0
 74
     5
  7

 75
    16
147
1.0
 76
     0
 77
     2
 78
   300
148
0.0
149
0.0
100
AcDbLayout
  1
Layout1
 70
     1
 71
     1
 10
0.0
 20
0.0
 11
12.0
 21
9.0
 12
0.0
 22
0.0
 32
0.0
 14
1.000000000000000E+20
 24
1.000000000000000E+20
 34
1.000000000000000E+20
 15
-1.000000000000000E+20
 25
-1.000000000000000E+20
 35
-1.000000000000000E+20
146
0.0
 13
0.0
 23
0.0
 33
0.0
 16
1.0
 26
0.0
 36
0.0
 17
0.0
 27
1.0
 37
0.0
 76
     0
330
1B
  0
LAYOUT
  5
26
102
{ACAD_REACTORS
330
1A
102
}
330
1A
100
AcDbPlotSettings
  1

  2
\\KTXNTBDC\CASF2PN1
  4

  6

 40
0.0
 41
0.0
 42
0.0
 43
0.0
 44
0.0
 45
0.0
 46
0.0
 47
0.0
 48
0.0
 49
0.0
140
0.0
141
0.0
142
1.0
143
1.0
 70
   688
 72
     0
 73
     0
 74
     5
  7

 75
    16
147
1.0
 76
     0
 77
     2
 78
   300
148
0.0
149
0.0
100
AcDbLayout
  1
Layout2
 70
     1
 71
     2
 10
0.0
 20
0.0
 11
12.0
 21
9.0
 12
0.0
 22
0.0
 32
0.0
 14
0.0
 24
0.0
 34
0.0
 15
0.0
 25
0.0
 35
0.0
146
0.0
 13
0.0
 23
0.0
 33
0.0
 16
1.0
 26
0.0
 36
0.0
 17
0.0
 27
1.0
 37
0.0
 76
     0
330
23
  0
LAYOUT
  5
22
102
{ACAD_REACTORS
330
1A
102
}
330
1A
100
AcDbPlotSettings
  1

  2
\\KTXNTBDC\CASF2PN1
  4

  6

 40
0.0
 41
0.0
 42
0.0
 43
0.0
 44
0.0
 45
0.0
 46
0.0
 47
0.0
 48
0.0
 49
0.0
140
0.0
141
0.0
142
1.0
143
1.0
 70
  1712
 72
     0
 73
     0
 74
     0
  7

 75
     0
147
1.0
 76
     0
 77
     2
 78
   300
148
0.0
149
0.0
100
AcDbLayout
  1
Model
 70
     1
 71
     0
 10
0.0
 20
0.0
 11
12.0
 21
9.0
 12
0.0
 22
0.0
 32
0.0
 14
0.0
 24
0.0
 34
0.0
 15
0.0
 25
0.0
 35
0.0
146
0.0
 13
0.0
 23
0.0
 33
0.0
 16
1.0
 26
0.0
 36
0.0
 17
0.0
 27
1.0
 37
0.0
 76
     0
330
1F
  0
MATERIAL
  5
B3
102
{ACAD_XDICTIONARY
360
B4
102
}
102
{ACAD_REACTORS
330
AA
102
}
330
AA
100
AcDbMaterial
  1
ByBlock
 72
     0
 43
0.0208333333333333
 43
0.0
 43
0.0
 43
0.0
 43
0.0
 43
0.0208333333333333
 43
0.0
 43
0.0
 43
0.0
 43
0.0
 43
1.0
 43
0.0
 43
0.0
 43
0.0
 43
0.0
 43
1.0
 77
     0
 47
0.0208333333333333
 47
0.0
 47
0.0
 47
0.0
 47
0.0
 47
0.0208333333333333
 47
0.0
 47
0.0
 47
0.0
 47
0.0
 47
1.0
 47
0.0
 47
0.0
 47
0.0
 47
0.0
 47
1.0
171
     0
 49
0.0208333333333333
 49
0.0
 49
0.0
 49
0.0
 49
0.0
 49
0.0208333333333333
 49
0.0
 49
0.0
 49
0.0
 49
0.0
 49
1.0
 49
0.0
 49
0.0
 49
0.0
 49
0.0
 49
1.0
175
     0
142
0.0208333333333333
142
0.0
142
0.0
142
0.0
142
0.0
142
0.0208333333333333
142
0.0
142
0.0
142
0.0
142
0.0
142
1.0
142
0.0
142
0.0
142
0.0
142
0.0
142
1.0
179
     0
144
0.0208333333333333
144
0.0
144
0.0
144
0.0
144
0.0
144
0.0208333333333333
144
0.0
144
0.0
144
0.0
144
0.0
144
1.0
144
0.0
144
0.0
144
0.0
144
0.0
144
1.0
147
0.0208333333333333
147
0.0
147
0.0
147
0.0
147
0.0
147
0.0208333333333333
147
0.0
147
0.0
147
0.0
147
0.0
147
1.0
147
0.0
147
0.0
147
0.0
147
0.0
147
1.0
  0
MATERIAL
  5
AB
102
{ACAD_XDICTIONARY
360
AC
102
}
102
{ACAD_REACTORS
330
AA
102
}
330
AA
100
AcDbMaterial
  1
ByLayer
 72
     0
 43
0.0208333333333333
 43
0.0
 43
0.0
 43
0.0
 43
0.0
 43
0.0208333333333333
 43
0.0
 43
0.0
 43
0.0
 43
0.0
 43
1.0
 43
0.0
 43
0.0
 43
0.0
 43
0.0
 43
1.0
 77
     0
 47
0.0208333333333333
 47
0.0
 47
0.0
 47
0.0
 47
0.0
 47
0.0208333333333333
 47
0.0
 47
0.0
 47
0.0
 47
0.0
 47
1.0
 47
0.0
 47
0.0
 47
0.0
 47
0.0
 47
1.0
171
     0
 49
0.0208333333333333
 49
0.0
 49
0.0
 49
0.0
 49
0.0
 49
0.0208333333333333
 49
0.0
 49
0.0
 49
0.0
 49
0.0
 49
1.0
 49
0.0
 49
0.0
 49
0.0
 49
0.0
 49
1.0
175
     0
142
0.0208333333333333
142
0.0
142
0.0
142
0.0
142
0.0
142
0.0208333333333333
142
0.0
142
0.0
142
0.0
142
0.0
142
1.0
142
0.0
142
0.0
142
0.0
142
0.0
142
1.0
179
     0
144
0.0208333333333333
144
0.0
144
0.0
144
0.0
144
0.0
144
0.0208333333333333
144
0.0
144
0.0
144
0.0
144
0.0
144
1.0
144
0.0
144
0.0
144
0.0
144
0.0
144
1.0
147
0.0208333333333333
147
0.0
147
0.0
147
0.0
147
0.0
147
0.0208333333333333
147
0.0
147
0.0
147
0.0
147
0.0
147
1.0
147
0.0
147
0.0
147
0.0
147
0.0
147
1.0
  0
MATERIAL
  5
BB
102
{ACAD_XDICTIONARY
360
BC
102
}
102
{ACAD_REACTORS
330
AA
102
}
330
AA
100
AcDbMaterial
  1
Global
 72
     0
 43
0.0208333333333333
 43
0.0
 43
0.0
 43
0.0
 43
0.0
 43
0.0208333333333333
 43
0.0
 43
0.0
 43
0.0
 43
0.0
 43
1.0
 43
0.0
 43
0.0
 43
0.0
 43
0.0
 43
1.0
 77
     0
 47
0.0208333333333333
 47
0.0
 47
0.0
 47
0.0
 47
0.0
 47
0.0208333333333333
 47
0.0
 47
0.0
 47
0.0
 47
0.0
 47
1.0
 47
0.0
 47
0.0
 47
0.0
 47
0.0
 47
1.0
171
     0
 49
0.0208333333333333
 49
0.0
 49
0.0
 49
0.0
 49
0.0
 49
0.0208333333333333
 49
0.0
 49
0.0
 49
0.0
 49
0.0
 49
1.0
 49
0.0
 49
0.0
 49
0.0
 49
0.0
 49
1.0
175
     0
142
0.0208333333333333
142
0.0
142
0.0
142
0.0
142
0.0
142
0.0208333333333333
142
0.0
142
0.0
142
0.0
142
0.0
142
1.0
142
0.0
142
0.0
142
0.0
142
0.0
142
1.0
179
     0
144
0.0208333333333333
144
0.0
144
0.0
144
0.0
144
0.0
144
0.0208333333333333
144
0.0
144
0.0
144
0.0
144
0.0
144
1.0
144
0.0
144
0.0
144
0.0
144
0.0
144
1.0
147
0.0208333333333333
147
0.0
147
0.0
147
0.0
147
0.0
147
0.0208333333333333
147
0.0
147
0.0
147
0.0
147
0.0
147
1.0
147
0.0
147
0.0
147
0.0
147
0.0
147
1.0
  0
MLEADERSTYLE
  5
F2
102
{ACAD_XDICTIONARY
360
26A
102
}
102
{ACAD_REACTORS
330
F1
102
}
330
F1
100
AcDbMLeaderStyle
179
     2
170
     2
171
     1
172
     0
 90
        2
 40
0.0
 41
0.0
173
     1
 91
-1056964608
340
14
 92
       -2
290
     1
 42
0.09
291
     1
 43
0.36
  3
Standard
 44
0.18
300

342
11
174
     1
178
     6
175
     1
176
     0
 93
-1056964608
 45
0.18
292
     0
297
     0
 46
0.18
 94
-1056964608
 47
1.0
 49
1.0
140
1.0
293
     1
141
0.0
294
     1
177
     0
142
1.0
295
     0
296
     0
143
0.125
271
     0
272
     9
273
     9
  0
MLINESTYLE
  5
18
102
{ACAD_REACTORS
330
17
102
}
330
17
100
AcDbMlineStyle
  2
STANDARD
 70
     0
  3

 62
   256
 51
90.0
 52
90.0
 71
     2
 49
0.5
 62
   256
  6
BYLAYER
 49
-0.5
 62
   256
  6
BYLAYER
  0
ACDBPLACEHOLDER
  5
2D
102
{ACAD_REACTORS
330
E
102
}
330
E
  0
ACDBPLACEHOLDER
  5
F
102
{ACAD_REACTORS
330
E
102
}
330
E
  0
SCALE
  5
E0
102
{ACAD_REACTORS
330
DF
102
}
330
DF
100
AcDbScale
 70
     0
300
1:1
140
1.0
141
1.0
290
     1
  0
SCALE
  5
E1
102
{ACAD_REACTORS
330
DF
102
}
330
DF
100
AcDbScale
 70
     0
300
1/128" = 1'-0"
140
0.0078125
141
12.0
290
     0
  0
SCALE
  5
E2
102
{ACAD_REACTORS
330
DF
102
}
330
DF
100
AcDbScale
 70
     0
300
1/64" = 1'-0"
140
0.015625
141
12.0
290
     0
  0
SCALE
  5
E3
102
{ACAD_REACTORS
330
DF
102
}
330
DF
100
AcDbScale
 70
     0
300
1/32" = 1'-0"
140
0.03125
141
12.0
290
     0
  0
SCALE
  5
E4
102
{ACAD_REACTORS
330
DF
102
}
330
DF
100
AcDbScale
 70
     0
300
1/16" = 1'-0"
140
0.0625
141
12.0
290
     0
  0
SCALE
  5
E5
102
{ACAD_REACTORS
330
DF
102
}
330
DF
100
AcDbScale
 70
     0
300
3/32" = 1'-0"
140
0.09375
141
12.0
290
     0
  0
SCALE
  5
E6
102
{ACAD_REACTORS
330
DF
102
}
330
DF
100
AcDbScale
 70
     0
300
1/8" = 1'-0"
140
0.125
141
12.0
290
     0
  0
SCALE
  5
E7
102
{ACAD_REACTORS
330
DF
102
}
330
DF
100
AcDbScale
 70
     0
300
3/16" = 1'-0"
140
0.1875
141
12.0
290
     0
  0
SCALE
  5
E8
102
{ACAD_REACTORS
330
DF
102
}
330
DF
100
AcDbScale
 70
     0
300
1/4" = 1'-0"
140
0.25
141
12.0
290
     0
  0
SCALE
  5
E9
102
{ACAD_REACTORS
330
DF
102
}
330
DF
100
AcDbScale
 70
     0
300
3/8" = 1'-0"
140
0.375
141
12.0
290
     0
  0
SCALE
  5
EA
102
{ACAD_REACTORS
330
DF
102
}
330
DF
100
AcDbScale
 70
     0
300
1/2" = 1'-0"
140
0.5
141
12.0
290
     0
  0
SCALE
  5
EB
102
{ACAD_REACTORS
330
DF
102
}
330
DF
100
AcDbScale
 70
     0
300
3/4" = 1'-0"
140
0.75
141
12.0
290
     0
  0
SCALE
  5
EC
102
{ACAD_REACTORS
330
DF
102
}
330
DF
100
AcDbScale
 70
     0
300
1" = 1'-0"
140
1.0
141
12.0
290
     0
  0
SCALE
  5
ED
102
{ACAD_REACTORS
330
DF
102
}
330
DF
100
AcDbScale
 70
     0
300
1-1/2" = 1'-0"
140
1.5
141
12.0
290
     0
  0
SCALE
  5
EE
102
{ACAD_REACTORS
330
DF
102
}
330
DF
100
AcDbScale
 70
     0
300
3" = 1'-0"
140
3.0
141
12.0
290
     0
  0
SCALE
  5
EF
102
{ACAD_REACTORS
330
DF
102
}
330
DF
100
AcDbScale
 70
     0
300
6" = 1'-0"
140
6.0
141
12.0
290
     0
  0
SCALE
  5
F0
102
{ACAD_REACTORS
330
DF
102
}
330
DF
100
AcDbScale
 70
     0
300
1'-0" = 1'-0"
140
12.0
141
12.0
290
     0
  0
ACDBSECTIONVIEWSTYLE
  5
F4
102
{ACAD_XDICTIONARY
360
26C
102
}
102
{ACAD_REACTORS
330
F3
102
}
330
F3
100
AcDbModelDocViewStyle
 70
     0
  3
Imperial24
290
     0
100
AcDbSectionViewStyle
 70
     0
 71
     0
 90
       78
 71
     1
340
11
 62
   256
 40
0.24
340
0
340
0
 62
   256
 40
0.24
300
I, O, Q, S, X, Z
 40
0.48
 90
        3
 40
0.18
 90
        1
 71
     2
340
16
 90
       25
 62
   256
340
16
 90
       50
 62
   256
 40
0.24
 40
0.0
 40
0.24
 71
     3
340
11
 62
   256
 40
0.24
 90
        1
 40
0.75
 90
        1
300
%<\AcVar ViewType \f "%tc1">% %<\AcVar ViewSectionStartId>%-%<\AcVar ViewSectionEndId>%\PSCALE %<\AcVar ViewScale \f "%sn">%
 71
     4
 62
   256
 62
   257
300
ANSI31
 40
1.0
 90
        0
290
     0
290
     0
 90
        6
 40
0.0
 40
1.570796326794896
 40
0.2617993877991494
 40
1.308996938995747
 40
-0.2617993877991494
 40
1.832595714594046
  0
TABLESTYLE
  5
DE
102
{ACAD_XDICTIONARY
360
235
102
}
102
{ACAD_REACTORS
330
DD
102
}
330
DD
100
AcDbTableStyle
280
     0
  3
Standard
 70
     0
 71
     0
 40
0.06
 41
0.06
280
     0
281
     0
  7
Standard
140
0.18
170
     2
 62
     0
 63
     7
283
     0
 90
      512
 91
        0
  1

274
    -2
284
     1
 64
     0
275
    -2
285
     1
 65
     0
276
    -2
286
     1
 66
     0
277
    -2
287
     1
 67
     0
278
    -2
288
     1
 68
     0
279
    -2
289
     1
 69
     0
  7
Standard
140
0.25
170
     5
 62
     0
 63
     7
283
     0
 90
      512
 91
        0
  1

274
    -2
284
     1
 64
     0
275
    -2
285
     1
 65
     0
276
    -2
286
     1
 66
     0
277
    -2
287
     1
 67
     0
278
    -2
288
     1
 68
     0
279
    -2
289
     1
 69
     0
  7
Standard
140
0.18
170
     5
 62
     0
 63
     7
283
     0
 90
      512
 91
        0
  1

274
    -2
284
     1
 64
     0
275
    -2
285
     1
 65
     0
276
    -2
286
     1
 66
     0
277
    -2
287
     1
 67
     0
278
    -2
288
     1
 68
     0
279
    -2
289
     1
 69
     0
  0
VISUALSTYLE
  5
C9
102
{ACAD_XDICTIONARY
360
244
102
}
102
{ACAD_REACTORS
330
C3
102
}
330
C3
100
AcDbVisualStyle
  2
2dWireframe
 70
     4
177
     2
291
     0
 71
     0
176
     1
 72
     2
176
     1
 73
     0
176
     1
 90
        0
176
     1
 40
0.6
176
     1
 41
30.0
176
     1
 63
     7
421
 16777215
176
     1
 74
     1
176
     1
 91
        4
176
     1
 64
     7
176
     1
 65
   257
176
     1
 75
     1
176
     1
175
     1
176
     1
 42
1.0
176
     1
 92
        0
176
     1
 66
   257
176
     1
 43
1.0
176
     1
 76
     1
176
     1
 77
     6
176
     1
 78
     2
176
     1
 67
     7
176
     1
 79
     5
176
     1
170
     0
176
     1
171
     0
176
     1
290
     0
176
     1
 93
        1
176
     1
 44
0.0
176
     1
173
     0
176
     1
1001
ACAD
1000
AcDbSavedByObjectVersion
1070
     0
  0
VISUALSTYLE
  5
C8
102
{ACAD_XDICTIONARY
360
242
102
}
102
{ACAD_REACTORS
330
C3
102
}
330
C3
100
AcDbVisualStyle
  2
Basic
 70
     7
177
     2
291
     1
 71
     1
176
     1
 72
     0
176
     1
 73
     1
176
     1
 90
        0
176
     1
 40
0.6
176
     1
 41
30.0
176
     1
 63
     7
421
 16777215
176
     1
 74
     0
176
     1
 91
        4
176
     1
 64
     7
176
     1
 65
   257
176
     1
 75
     1
176
     1
175
     1
176
     1
 42
1.0
176
     1
 92
        8
176
     1
 66
     7
176
     1
 43
1.0
176
     1
 76
     1
176
     1
 77
     6
176
     1
 78
     2
176
     1
 67
     7
176
     1
 79
     5
176
     1
170
     0
176
     1
171
     0
176
     1
290
     0
176
     1
 93
        1
176
     1
 44
0.0
176
     1
173
     0
176
     1
1001
ACAD
1000
AcDbSavedByObjectVersion
1070
     0
  0
VISUALSTYLE
  5
CF
102
{ACAD_XDICTIONARY
360
250
102
}
102
{ACAD_REACTORS
330
C3
102
}
330
C3
100
AcDbVisualStyle
  2
Brighten
 70
    12
177
     2
291
     1
 71
     2
176
     1
 72
     2
176
     1
 73
     0
176
     1
 90
        0
176
     1
 40
0.6
176
     1
 41
30.0
176
     1
 63
     7
421
 16777215
176
     1
 74
     1
176
     1
 91
        4
176
     1
 64
     7
176
     1
 65
   257
176
     1
 75
     1
176
     1
175
     1
176
     1
 42
1.0
176
     1
 92
        8
176
     1
 66
     7
176
     1
 43
1.0
176
     1
 76
     1
176
     1
 77
     6
176
     1
 78
     2
176
     1
 67
     7
176
     1
 79
     5
176
     1
170
     0
176
     1
171
     0
176
     1
290
     0
176
     1
 93
        1
176
     1
 44
50.0
176
     1
173
     0
176
     1
1001
ACAD
1000
AcDbSavedByObjectVersion
1070
     0
  0
VISUALSTYLE
  5
D3
102
{ACAD_XDICTIONARY
360
258
102
}
102
{ACAD_REACTORS
330
C3
102
}
330
C3
100
AcDbVisualStyle
  2
ColorChange
 70
    16
177
     2
291
     1
 71
     2
176
     1
 72
     2
176
     1
 73
     3
176
     1
 90
        0
176
     1
 40
0.6
176
     1
 41
30.0
176
     1
 63
     8
421
  8421504
176
     1
 74
     1
176
     1
 91
        4
176
     1
 64
     7
176
     1
 65
   257
176
     1
 75
     1
176
     1
175
     1
176
     1
 42
1.0
176
     1
 92
        8
176
     1
 66
     8
424
  8421504
176
     1
 43
1.0
176
     1
 76
     1
176
     1
 77
     6
176
     1
 78
     2
176
     1
 67
     7
176
     1
 79
     5
176
     1
170
     0
176
     1
171
     0
176
     1
290
     0
176
     1
 93
        1
176
     1
 44
0.0
176
     1
173
     0
176
     1
1001
ACAD
1000
AcDbSavedByObjectVersion
1070
     0
  0
VISUALSTYLE
  5
CC
102
{ACAD_XDICTIONARY
360
24A
102
}
102
{ACAD_REACTORS
330
C3
102
}
330
C3
100
AcDbVisualStyle
  2
Conceptual
 70
     9
177
     2
291
     0
 71
     3
176
     1
 72
     2
176
     1
 73
     0
176
     1
 90
        0
176
     1
 40
0.6
176
     1
 41
30.0
176
     1
 63
     7
421
 16777215
176
     1
 74
     2
176
     1
 91
        2
176
     1
 64
     7
176
     1
 65
   257
176
     1
 75
     1
176
     1
175
     1
176
     1
 42
179.0
176
     1
 92
        8
176
     1
 66
     7
176
     1
 43
1.0
176
     1
 76
     1
176
     1
 77
     6
176
     1
 78
     2
176
     1
 67
     7
176
     1
 79
     3
176
     1
170
     0
176
     1
171
     0
176
     1
290
     0
176
     1
 93
        1
176
     1
 44
0.0
176
     1
173
     0
176
     1
1001
ACAD
1000
AcDbSavedByObjectVersion
1070
     0
  0
VISUALSTYLE
  5
CE
102
{ACAD_XDICTIONARY
360
24E
102
}
102
{ACAD_REACTORS
330
C3
102
}
330
C3
100
AcDbVisualStyle
  2
Dim
 70
    11
177
     2
291
     1
 71
     2
176
     1
 72
     2
176
     1
 73
     0
176
     1
 90
        0
176
     1
 40
0.6
176
     1
 41
30.0
176
     1
 63
     7
421
 16777215
176
     1
 74
     1
176
     1
 91
        4
176
     1
 64
     7
176
     1
 65
   257
176
     1
 75
     1
176
     1
175
     1
176
     1
 42
1.0
176
     1
 92
        8
176
     1
 66
     7
176
     1
 43
1.0
176
     1
 76
     1
176
     1
 77
     6
176
     1
 78
     2
176
     1
 67
     7
176
     1
 79
     5
176
     1
170
     0
176
     1
171
     0
176
     1
290
     0
176
     1
 93
        1
176
     1
 44
-50.0
176
     1
173
     0
176
     1
1001
ACAD
1000
AcDbSavedByObjectVersion
1070
     0
  0
VISUALSTYLE
  5
DB
102
{ACAD_XDICTIONARY
360
268
102
}
102
{ACAD_REACTORS
330
C3
102
}
330
C3
100
AcDbVisualStyle
  2
EdgeColorOff
 70
    22
177
     2
291
     1
 71
     2
176
     0
 72
     2
176
     0
 73
     0
176
     0
 90
        0
176
     0
 40
0.6
176
     0
 41
30.0
176
     0
 63
     7
421
 16777215
176
     0
 74
     1
176
     0
 91
        4
176
     0
 64
     7
176
     0
 65
   257
176
     0
 75
     1
176
     0
175
     1
176
     0
 42
1.0
176
     0
 92
        8
176
     2
 66
     7
176
     0
 43
1.0
176
     0
 76
     1
176
     0
 77
     6
176
     0
 78
     2
176
     0
 67
     7
176
     0
 79
     5
176
     0
170
     0
176
     0
171
     0
176
     0
290
     0
176
     0
 93
        1
176
     0
 44
0.0
176
     0
173
     0
176
     0
1001
ACAD
1000
AcDbSavedByObjectVersion
1070
     0
  0
VISUALSTYLE
  5
D2
102
{ACAD_XDICTIONARY
360
256
102
}
102
{ACAD_REACTORS
330
C3
102
}
330
C3
100
AcDbVisualStyle
  2
Facepattern
 70
    15
177
     2
291
     1
 71
     2
176
     1
 72
     2
176
     1
 73
     0
176
     1
 90
        0
176
     1
 40
0.6
176
     1
 41
30.0
176
     1
 63
     7
421
 16777215
176
     1
 74
     1
176
     1
 91
        4
176
     1
 64
     7
176
     1
 65
   257
176
     1
 75
     1
176
     1
175
     1
176
     1
 42
1.0
176
     1
 92
        8
176
     1
 66
     7
176
     1
 43
1.0
176
     1
 76
     1
176
     1
 77
     6
176
     1
 78
     2
176
     1
 67
     7
176
     1
 79
     5
176
     1
170
     0
176
     1
171
     0
176
     1
290
     0
176
     1
 93
        1
176
     1
 44
0.0
176
     1
173
     0
176
     1
1001
ACAD
1000
AcDbSavedByObjectVersion
1070
     0
  0
VISUALSTYLE
  5
C4
102
{ACAD_XDICTIONARY
360
23A
102
}
102
{ACAD_REACTORS
330
C3
102
}
330
C3
100
AcDbVisualStyle
  2
Flat
 70
     0
177
     2
291
     1
 71
     2
176
     1
 72
     1
176
     1
 73
     1
176
     1
 90
        2
176
     1
 40
0.6
176
     1
 41
30.0
176
     1
 63
     7
421
 16777215
176
     1
 74
     0
176
     1
 91
        0
176
     1
 64
     7
176
     1
 65
   257
176
     1
 75
     1
176
     1
175
     1
176
     1
 42
1.0
176
     1
 92
        8
176
     1
 66
     7
176
     1
 43
1.0
176
     1
 76
     1
176
     1
 77
     6
176
     1
 78
     2
176
     1
 67
     7
176
     1
 79
     5
176
     1
170
     0
176
     1
171
     0
176
     1
290
     0
176
     1
 93
       13
176
     1
 44
0.0
176
     1
173
     0
176
     1
1001
ACAD
1000
AcDbSavedByObjectVersion
1070
     0
  0
VISUALSTYLE
  5
C5
102
{ACAD_XDICTIONARY
360
23C
102
}
102
{ACAD_REACTORS
330
C3
102
}
330
C3
100
AcDbVisualStyle
  2
FlatWithEdges
 70
     1
177
     2
291
     1
 71
     2
176
     1
 72
     1
176
     1
 73
     1
176
     1
 90
        2
176
     1
 40
0.6
176
     1
 41
30.0
176
     1
 63
     7
421
 16777215
176
     1
 74
     1
176
     1
 91
        0
176
     1
 64
     7
176
     1
 65
   257
176
     1
 75
     1
176
     1
175
     1
176
     1
 42
1.0
176
     1
 92
        0
176
     1
 66
   257
176
     1
 43
1.0
176
     1
 76
     1
176
     1
 77
     6
176
     1
 78
     2
176
     1
 67
     7
176
     1
 79
     5
176
     1
170
     0
176
     1
171
     0
176
     1
290
     0
176
     1
 93
       13
176
     1
 44
0.0
176
     1
173
     0
176
     1
1001
ACAD
1000
AcDbSavedByObjectVersion
1070
     0
  0
VISUALSTYLE
  5
C6
102
{ACAD_XDICTIONARY
360
23E
102
}
102
{ACAD_REACTORS
330
C3
102
}
330
C3
100
AcDbVisualStyle
  2
Gouraud
 70
     2
177
     2
291
     1
 71
     2
176
     1
 72
     2
176
     1
 73
     1
176
     1
 90
        2
176
     1
 40
0.6
176
     1
 41
30.0
176
     1
 63
     7
421
 16777215
176
     1
 74
     0
176
     1
 91
        0
176
     1
 64
     7
176
     1
 65
   257
176
     1
 75
     1
176
     1
175
     1
176
     1
 42
1.0
176
     1
 92
        0
176
     1
 66
     7
176
     1
 43
1.0
176
     1
 76
     1
176
     1
 77
     6
176
     1
 78
     2
176
     1
 67
     7
176
     1
 79
     5
176
     1
170
     0
176
     1
171
     0
176
     1
290
     0
176
     1
 93
       13
176
     1
 44
0.0
176
     1
173
     0
176
     1
1001
ACAD
1000
AcDbSavedByObjectVersion
1070
     0
  0
VISUALSTYLE
  5
C7
102
{ACAD_XDICTIONARY
360
240
102
}
102
{ACAD_REACTORS
330
C3
102
}
330
C3
100
AcDbVisualStyle
  2
GouraudWithEdges
 70
     3
177
     2
291
     1
 71
     2
176
     1
 72
     2
176
     1
 73
     1
176
     1
 90
        2
176
     1
 40
0.6
176
     1
 41
30.0
176
     1
 63
     7
421
 16777215
176
     1
 74
     1
176
     1
 91
        0
176
     1
 64
     7
176
     1
 65
   257
176
     1
 75
     1
176
     1
175
     1
176
     1
 42
1.0
176
     1
 92
        0
176
     1
 66
   257
176
     1
 43
1.0
176
     1
 76
     1
176
     1
 77
     6
176
     1
 78
     2
176
     1
 67
     7
176
     1
 79
     5
176
     1
170
     0
176
     1
171
     0
176
     1
290
     0
176
     1
 93
       13
176
     1
 44
0.0
176
     1
173
     0
176
     1
1001
ACAD
1000
AcDbSavedByObjectVersion
1070
     0
  0
VISUALSTYLE
  5
CB
102
{ACAD_XDICTIONARY
360
248
102
}
102
{ACAD_REACTORS
330
C3
102
}
330
C3
100
AcDbVisualStyle
  2
Hidden
 70
     6
177
     2
291
     0
 71
     1
176
     1
 72
     2
176
     1
 73
     2
176
     1
 90
        0
176
     1
 40
0.6
176
     1
 41
30.0
176
     1
 63
     7
421
 16777215
176
     1
 74
     2
176
     1
 91
        2
176
     1
 64
     7
176
     1
 65
   257
176
     1
 75
     2
176
     1
175
     1
176
     1
 42
40.0
176
     1
 92
        0
176
     1
 66
   257
176
     1
 43
1.0
176
     1
 76
     1
176
     1
 77
     6
176
     1
 78
     2
176
     1
 67
     7
176
     1
 79
     3
176
     1
170
     0
176
     1
171
     0
176
     1
290
     0
176
     1
 93
        1
176
     1
 44
0.0
176
     1
173
     0
176
     1
1001
ACAD
1000
AcDbSavedByObjectVersion
1070
     0
  0
VISUALSTYLE
  5
D9
102
{ACAD_XDICTIONARY
360
264
102
}
102
{ACAD_REACTORS
330
C3
102
}
330
C3
100
AcDbVisualStyle
  2
JitterOff
 70
    20
177
     2
291
     1
 71
     2
176
     0
 72
     2
176
     0
 73
     0
176
     0
 90
        0
176
     0
 40
0.6
176
     0
 41
30.0
176
     0
 63
     7
421
 16777215
176
     0
 74
     1
176
     0
 91
        4
176
     0
 64
     7
176
     0
 65
   257
176
     0
 75
     1
176
     0
175
     1
176
     0
 42
1.0
176
     0
 92
       10
176
     2
 66
     7
176
     0
 43
1.0
176
     0
 76
     1
176
     0
 77
     6
176
     0
 78
     2
176
     0
 67
     7
176
     0
 79
     5
176
     0
170
     0
176
     0
171
     0
176
     0
290
     0
176
     0
 93
        1
176
     0
 44
0.0
176
     0
173
     0
176
     0
1001
ACAD
1000
AcDbSavedByObjectVersion
1070
     0
  0
VISUALSTYLE
  5
D1
102
{ACAD_XDICTIONARY
360
254
102
}
102
{ACAD_REACTORS
330
C3
102
}
330
C3
100
AcDbVisualStyle
  2
Linepattern
 70
    14
177
     2
291
     1
 71
     2
176
     1
 72
     2
176
     1
 73
     0
176
     1
 90
        0
176
     1
 40
0.6
176
     1
 41
30.0
176
     1
 63
     7
421
 16777215
176
     1
 74
     1
176
     1
 91
        4
176
     1
 64
     7
176
     1
 65
   257
176
     1
 75
     7
176
     1
175
     7
176
     1
 42
1.0
176
     1
 92
        8
176
     1
 66
     7
176
     1
 43
1.0
176
     1
 76
     1
176
     1
 77
     6
176
     1
 78
     2
176
     1
 67
     7
176
     1
 79
     5
176
     1
170
     0
176
     1
171
     0
176
     1
290
     0
176
     1
 93
        1
176
     1
 44
0.0
176
     1
173
     0
176
     1
1001
ACAD
1000
AcDbSavedByObjectVersion
1070
     0
  0
VISUALSTYLE
  5
DA
102
{ACAD_XDICTIONARY
360
266
102
}
102
{ACAD_REACTORS
330
C3
102
}
330
C3
100
AcDbVisualStyle
  2
OverhangOff
 70
    21
177
     2
291
     1
 71
     2
176
     0
 72
     2
176
     0
 73
     0
176
     0
 90
        0
176
     0
 40
0.6
176
     0
 41
30.0
176
     0
 63
     7
421
 16777215
176
     0
 74
     1
176
     0
 91
        4
176
     0
 64
     7
176
     0
 65
   257
176
     0
 75
     1
176
     0
175
     1
176
     0
 42
1.0
176
     0
 92
        9
176
     2
 66
     7
176
     0
 43
1.0
176
     0
 76
     1
176
     0
 77
     6
176
     0
 78
     2
176
     0
 67
     7
176
     0
 79
     5
176
     0
170
     0
176
     0
171
     0
176
     0
290
     0
176
     0
 93
        1
176
     0
 44
0.0
176
     0
173
     0
176
     0
1001
ACAD
1000
AcDbSavedByObjectVersion
1070
     0
  0
VISUALSTYLE
  5
CD
102
{ACAD_XDICTIONARY
360
24C
102
}
102
{ACAD_REACTORS
330
C3
102
}
330
C3
100
AcDbVisualStyle
  2
Realistic
 70
     8
177
     2
291
     0
 71
     2
176
     1
 72
     3
176
     1
 73
     0
176
     1
 90
        2
176
     1
 40
0.6
176
     1
 41
30.0
176
     1
 63
     7
421
 16777215
176
     1
 74
     0
176
     1
 91
        0
176
     1
 64
     7
176
     1
 65
   257
176
     1
 75
     1
176
     1
175
     1
176
     1
 42
1.0
176
     1
 92
        8
176
     1
 66
   257
176
     1
 43
1.0
176
     1
 76
     1
176
     1
 77
     6
176
     1
 78
     2
176
     1
 67
     7
176
     1
 79
     3
176
     1
170
     0
176
     1
171
     0
176
     1
290
     0
176
     1
 93
       13
176
     1
 44
0.0
176
     1
173
     0
176
     1
1001
ACAD
1000
AcDbSavedByObjectVersion
1070
     0
  0
VISUALSTYLE
  5
D8
102
{ACAD_XDICTIONARY
360
262
102
}
102
{ACAD_REACTORS
330
C3
102
}
330
C3
100
AcDbVisualStyle
  2
Shaded
 70
    27
177
     2
291
     0
 71
     2
176
     1
 72
     2
176
     1
 73
     1
176
     1
 90
        2
176
     1
 40
0.6
176
     1
 41
30.0
176
     1
 63
     7
421
 16777215
176
     1
 74
     0
176
     1
 91
        4
176
     1
 64
     7
176
     1
 65
   257
176
     1
 75
     1
176
     1
175
     1
176
     1
 42
1.0
176
     1
 92
        8
176
     1
 66
   257
176
     1
 43
1.0
176
     1
 76
     1
176
     1
 77
     6
176
     1
 78
     2
176
     1
 67
     8
425
  7895160
176
     1
 79
     3
176
     1
170
     0
176
     1
171
     0
176
     1
290
     0
176
     1
 93
        5
176
     1
 44
0.0
176
     1
173
     0
176
     1
1001
ACAD
1000
AcDbSavedByObjectVersion
1070
     0
  0
VISUALSTYLE
  5
D7
102
{ACAD_XDICTIONARY
360
260
102
}
102
{ACAD_REACTORS
330
C3
102
}
330
C3
100
AcDbVisualStyle
  2
Shaded with edges
 70
    26
177
     2
291
     0
 71
     2
176
     1
 72
     2
176
     1
 73
     1
176
     1
 90
        2
176
     1
 40
0.6
176
     1
 41
30.0
176
     1
 63
     7
421
 16777215
176
     1
 74
     1
176
     1
 91
       10
176
     1
 64
     7
176
     1
 65
   257
176
     1
 75
     2
176
     1
175
     1
176
     1
 42
1.0
176
     1
 92
        8
176
     1
 66
   257
176
     1
 43
1.0
176
     1
 76
     1
176
     1
 77
     6
176
     1
 78
     2
176
     1
 67
     7
176
     1
 79
     3
176
     1
170
     0
176
     1
171
     0
176
     1
290
     0
176
     1
 93
        5
176
     1
 44
0.0
176
     1
173
     0
176
     1
1001
ACAD
1000
AcDbSavedByObjectVersion
1070
     0
  0
VISUALSTYLE
  5
D4
102
{ACAD_XDICTIONARY
360
25A
102
}
102
{ACAD_REACTORS
330
C3
102
}
330
C3
100
AcDbVisualStyle
  2
Shades of Gray
 70
    23
177
     2
291
     0
 71
     2
176
     1
 72
     2
176
     1
 73
     3
176
     1
 90
        0
176
     1
 40
0.6
176
     1
 41
30.0
176
     1
 63
     7
421
 16777215
176
     1
 74
     2
176
     1
 91
        2
176
     1
 64
     7
176
     1
 65
     7
176
     1
 75
     1
176
     1
175
     1
176
     1
 42
40.0
176
     1
 92
        8
176
     1
 66
     7
176
     1
 43
1.0
176
     1
 76
     1
176
     1
 77
     6
176
     1
 78
     2
176
     1
 67
     7
176
     1
 79
     3
176
     1
170
     0
176
     1
171
     0
176
     1
290
     0
176
     1
 93
        1
176
     1
 44
0.0
176
     1
173
     0
176
     1
1001
ACAD
1000
AcDbSavedByObjectVersion
1070
     0
  0
VISUALSTYLE
  5
D5
102
{ACAD_XDICTIONARY
360
25C
102
}
102
{ACAD_REACTORS
330
C3
102
}
330
C3
100
AcDbVisualStyle
  2
Sketchy
 70
    24
177
     2
291
     0
 71
     1
176
     1
 72
     2
176
     1
 73
     2
176
     1
 90
        0
176
     1
 40
0.6
176
     1
 41
30.0
176
     1
 63
     7
421
 16777215
176
     1
 74
     2
176
     1
 91
        2
176
     1
 64
     7
176
     1
 65
     7
176
     1
 75
     1
176
     1
175
     1
176
     1
 42
40.0
176
     1
 92
       11
176
     1
 66
     7
176
     1
 43
1.0
176
     1
 76
     1
176
     1
 77
     6
176
     1
 78
     2
176
     1
 67
     7
176
     1
 79
     6
176
     1
170
     0
176
     1
171
     0
176
     1
290
     0
176
     1
 93
        1
176
     1
 44
0.0
176
     1
173
     0
176
     1
1001
ACAD
1000
AcDbSavedByObjectVersion
1070
     0
  0
VISUALSTYLE
  5
D0
102
{ACAD_XDICTIONARY
360
252
102
}
102
{ACAD_REACTORS
330
C3
102
}
330
C3
100
AcDbVisualStyle
  2
Thicken
 70
    13
177
     2
291
     1
 71
     2
176
     1
 72
     2
176
     1
 73
     0
176
     1
 90
        0
176
     1
 40
0.6
176
     1
 41
30.0
176
     1
 63
     7
421
 16777215
176
     1
 74
     1
176
     1
 91
        4
176
     1
 64
     7
176
     1
 65
   257
176
     1
 75
     1
176
     1
175
     1
176
     1
 42
1.0
176
     1
 92
       12
176
     1
 66
     7
176
     1
 43
1.0
176
     1
 76
     1
176
     1
 77
     6
176
     1
 78
     2
176
     1
 67
     7
176
     1
 79
     5
176
     1
170
     0
176
     1
171
     0
176
     1
290
     0
176
     1
 93
        1
176
     1
 44
0.0
176
     1
173
     0
176
     1
1001
ACAD
1000
AcDbSavedByObjectVersion
1070
     0
  0
VISUALSTYLE
  5
CA
102
{ACAD_XDICTIONARY
360
246
102
}
102
{ACAD_REACTORS
330
C3
102
}
330
C3
100
AcDbVisualStyle
  2
Wireframe
 70
     5
177
     2
291
     0
 71
     0
176
     1
 72
     2
176
     1
 73
     0
176
     1
 90
        0
176
     1
 40
0.6
176
     1
 41
30.0
176
     1
 63
     7
421
 16777215
176
     1
 74
     1
176
     1
 91
        4
176
     1
 64
     7
176
     1
 65
   257
176
     1
 75
     1
176
     1
175
     1
176
     1
 42
1.0
176
     1
 92
        0
176
     1
 66
   257
176
     1
 43
1.0
176
     1
 76
     1
176
     1
 77
     6
176
     1
 78
     2
176
     1
 67
     7
176
     1
 79
     3
176
     1
170
     0
176
     1
171
     0
176
     1
290
     0
176
     1
 93
        1
176
     1
 44
0.0
176
     1
173
     0
176
     1
1001
ACAD
1000
AcDbSavedByObjectVersion
1070
     0
  0
VISUALSTYLE
  5
D6
102
{ACAD_XDICTIONARY
360
25E
102
}
102
{ACAD_REACTORS
330
C3
102
}
330
C3
100
AcDbVisualStyle
  2
X-Ray
 70
    25
177
     2
291
     0
 71
     2
176
     1
 72
     2
176
     1
 73
     1
176
     1
 90
        1
176
     1
 40
0.5
176
     1
 41
30.0
176
     1
 63
     7
421
 16777215
176
     1
 74
     1
176
     1
 91
        0
176
     1
 64
     7
176
     1
 65
   257
176
     1
 75
     1
176
     1
175
     1
176
     1
 42
1.0
176
     1
 92
        8
176
     1
 66
     7
176
     1
 43
1.0
176
     1
 76
     1
176
     1
 77
     6
176
     1
 78
     2
176
     1
 67
     7
176
     1
 79
     3
176
     1
170
     0
176
     1
171
     0
176
     1
290
     0
176
     1
 93
       13
176
     1
 44
0.0
176
     1
173
     0
176
     1
1001
ACAD
1000
AcDbSavedByObjectVersion
1070
     0
  0
DICTIONARYVAR
  5
231
102
{ACAD_REACTORS
330
22B
102
}
330
22B
100
DictionaryVariables
280
     0
  1
1:1
  0
DICTIONARYVAR
  5
22D
102
{ACAD_REACTORS
330
22B
102
}
330
22B
100
DictionaryVariables
280
     0
  1
STANDARD
  0
DICTIONARYVAR
  5
22C
102
{ACAD_REACTORS
330
22B
102
}
330
22B
100
DictionaryVariables
280
     0
  1
STANDARD
  0
DICTIONARYVAR
  5
22E
102
{ACAD_REACTORS
330
22B
102
}
330
22B
100
DictionaryVariables
280
     0
  1
Imperial24
  0
DICTIONARYVAR
  5
22F
102
{ACAD_REACTORS
330
22B
102
}
330
22B
100
DictionaryVariables
280
     0
  1
Imperial24
  0
DICTIONARYVAR
  5
233
102
{ACAD_REACTORS
330
22B
102
}
330
22B
100
DictionaryVariables
280
     0
  1
1
  0
DICTIONARYVAR
  5
234
102
{ACAD_REACTORS
330
22B
102
}
330
22B
100
DictionaryVariables
280
     0
  1
15
  0
DICTIONARYVAR
  5
232
102
{ACAD_REACTORS
330
22B
102
}
330
22B
100
DictionaryVariables
280
     0
  1
0
  0
DICTIONARYVAR
  5
230
102
{ACAD_REACTORS
330
22B
102
}
330
22B
100
DictionaryVariables
280
     0
  1
0
  0
DICTIONARY
  5
26E
330
F6
100
AcDbDictionary
280
     1
281
     1
  3
ACAD_XREC_ROUNDTRIP
360
26F
  0
DICTIONARY
  5
B4
330
B3
100
AcDbDictionary
280
     1
281
     1
  3
BUMPTILE
360
B6
  3
DIFFUSETILE
360
B5
  3
OPACITYTILE
360
B9
  3
REFLECTIONTILE
360
B8
  3
REFRACTIONTILE
360
BA
  3
SPECULARTILE
360
B7
  0
DICTIONARY
  5
AC
330
AB
100
AcDbDictionary
280
     1
281
     1
  3
BUMPTILE
360
AE
  3
DIFFUSETILE
360
AD
  3
OPACITYTILE
360
B1
  3
REFLECTIONTILE
360
B0
  3
REFRACTIONTILE
360
B2
  3
SPECULARTILE
360
AF
  0
DICTIONARY
  5
BC
330
BB
100
AcDbDictionary
280
     1
281
     1
  3
BUMPTILE
360
BE
  3
DIFFUSETILE
360
BD
  3
OPACITYTILE
360
C1
  3
REFLECTIONTILE
360
C0
  3
REFRACTIONTILE
360
C2
  3
SPECULARTILE
360
BF
  0
DICTIONARY
  5
26A
330
F2
100
AcDbDictionary
280
     1
281
     1
  3
ACAD_XREC_ROUNDTRIP
360
26B
  0
DICTIONARY
  5
26C
330
F4
100
AcDbDictionary
280
     1
281
     1
  3
ACAD_XREC_ROUNDTRIP
360
26D
  0
DICTIONARY
  5
235
330
DE
100
AcDbDictionary
280
     1
281
     1
  3
ACAD_ROUNDTRIP_2008_TABLESTYLE_CELLSTYLEMAP
360
236
  0
DICTIONARY
  5
244
330
C9
100
AcDbDictionary
280
     1
281
     1
  3
ACAD_XREC_ROUNDTRIP
360
245
  0
DICTIONARY
  5
242
330
C8
100
AcDbDictionary
280
     1
281
     1
  3
ACAD_XREC_ROUNDTRIP
360
243
  0
DICTIONARY
  5
250
330
CF
100
AcDbDictionary
280
     1
281
     1
  3
ACAD_XREC_ROUNDTRIP
360
251
  0
DICTIONARY
  5
258
330
D3
100
AcDbDictionary
280
     1
281
     1
  3
ACAD_XREC_ROUNDTRIP
360
259
  0
DICTIONARY
  5
24A
330
CC
100
AcDbDictionary
280
     1
281
     1
  3
ACAD_XREC_ROUNDTRIP
360
24B
  0
DICTIONARY
  5
24E
330
CE
100
AcDbDictionary
280
     1
281
     1
  3
ACAD_XREC_ROUNDTRIP
360
24F
  0
DICTIONARY
  5
268
330
DB
100
AcDbDictionary
280
     1
281
     1
  3
ACAD_XREC_ROUNDTRIP
360
269
  0
DICTIONARY
  5
256
330
D2
100
AcDbDictionary
280
     1
281
     1
  3
ACAD_XREC_ROUNDTRIP
360
257
  0
DICTIONARY
  5
23A
330
C4
100
AcDbDictionary
280
     1
281
     1
  3
ACAD_XREC_ROUNDTRIP
360
23B
  0
DICTIONARY
  5
23C
330
C5
100
AcDbDictionary
280
     1
281
     1
  3
ACAD_XREC_ROUNDTRIP
360
23D
  0
DICTIONARY
  5
23E
330
C6
100
AcDbDictionary
280
     1
281
     1
  3
ACAD_XREC_ROUNDTRIP
360
23F
  0
DICTIONARY
  5
240
330
C7
100
AcDbDictionary
280
     1
281
     1
  3
ACAD_XREC_ROUNDTRIP
360
241
  0
DICTIONARY
  5
248
330
CB
100
AcDbDictionary
280
     1
281
     1
  3
ACAD_XREC_ROUNDTRIP
360
249
  0
DICTIONARY
  5
264
330
D9
100
AcDbDictionary
280
     1
281
     1
  3
ACAD_XREC_ROUNDTRIP
360
265
  0
DICTIONARY
  5
254
330
D1
100
AcDbDictionary
280
     1
281
     1
  3
ACAD_XREC_ROUNDTRIP
360
255
  0
DICTIONARY
  5
266
330
DA
100
AcDbDictionary
280
     1
281
     1
  3
ACAD_XREC_ROUNDTRIP
360
267
  0
DICTIONARY
  5
24C
330
CD
100
AcDbDictionary
280
     1
281
     1
  3
ACAD_XREC_ROUNDTRIP
360
24D
  0
DICTIONARY
  5
262
330
D8
100
AcDbDictionary
280
     1
281
     1
  3
ACAD_XREC_ROUNDTRIP
360
263
  0
DICTIONARY
  5
260
330
D7
100
AcDbDictionary
280
     1
281
     1
  3
ACAD_XREC_ROUNDTRIP
360
261
  0
DICTIONARY
  5
25A
330
D4
100
AcDbDictionary
280
     1
281
     1
  3
ACAD_XREC_ROUNDTRIP
360
25B
  0
DICTIONARY
  5
25C
330
D5
100
AcDbDictionary
280
     1
281
     1
  3
ACAD_XREC_ROUNDTRIP
360
25D
  0
DICTIONARY
  5
252
330
D0
100
AcDbDictionary
280
     1
281
     1
  3
ACAD_XREC_ROUNDTRIP
360
253
  0
DICTIONARY
  5
246
330
CA
100
AcDbDictionary
280
     1
281
     1
  3
ACAD_XREC_ROUNDTRIP
360
247
  0
DICTIONARY
  5
25E
330
D6
100
AcDbDictionary
280
     1
281
     1
  3
ACAD_XREC_ROUNDTRIP
360
25F
  0
XRECORD
  5
26F
102
{ACAD_REACTORS
330
26E
102
}
330
26E
100
AcDbXrecord
280
     1
102
DISPLAYNAME
  1
Imperial24
102
FLAGS
 90
        0
  0
XRECORD
  5
B6
102
{ACAD_REACTORS
330
B4
102
}
330
B4
100
AcDbXrecord
280
     1
270
     1
271
     1
  0
XRECORD
  5
B5
102
{ACAD_REACTORS
330
B4
102
}
330
B4
100
AcDbXrecord
280
     1
270
     1
271
     1
  0
XRECORD
  5
B9
102
{ACAD_REACTORS
330
B4
102
}
330
B4
100
AcDbXrecord
280
     1
270
     1
271
     1
  0
XRECORD
  5
B8
102
{ACAD_REACTORS
330
B4
102
}
330
B4
100
AcDbXrecord
280
     1
270
     1
271
     1
  0
XRECORD
  5
BA
102
{ACAD_REACTORS
330
B4
102
}
330
B4
100
AcDbXrecord
280
     1
270
     1
271
     1
  0
XRECORD
  5
B7
102
{ACAD_REACTORS
330
B4
102
}
330
B4
100
AcDbXrecord
280
     1
270
     1
271
     1
  0
XRECORD
  5
AE
102
{ACAD_REACTORS
330
AC
102
}
330
AC
100
AcDbXrecord
280
     1
270
     1
271
     1
  0
XRECORD
  5
AD
102
{ACAD_REACTORS
330
AC
102
}
330
AC
100
AcDbXrecord
280
     1
270
     1
271
     1
  0
XRECORD
  5
B1
102
{ACAD_REACTORS
330
AC
102
}
330
AC
100
AcDbXrecord
280
     1
270
     1
271
     1
  0
XRECORD
  5
B0
102
{ACAD_REACTORS
330
AC
102
}
330
AC
100
AcDbXrecord
280
     1
270
     1
271
     1
  0
XRECORD
  5
B2
102
{ACAD_REACTORS
330
AC
102
}
330
AC
100
AcDbXrecord
280
     1
270
     1
271
     1
  0
XRECORD
  5
AF
102
{ACAD_REACTORS
330
AC
102
}
330
AC
100
AcDbXrecord
280
     1
270
     1
271
     1
  0
XRECORD
  5
BE
102
{ACAD_REACTORS
330
BC
102
}
330
BC
100
AcDbXrecord
280
     1
270
     1
271
     1
  0
XRECORD
  5
BD
102
{ACAD_REACTORS
330
BC
102
}
330
BC
100
AcDbXrecord
280
     1
270
     1
271
     1
  0
XRECORD
  5
C1
102
{ACAD_REACTORS
330
BC
102
}
330
BC
100
AcDbXrecord
280
     1
270
     1
271
     1
  0
XRECORD
  5
C0
102
{ACAD_REACTORS
330
BC
102
}
330
BC
100
AcDbXrecord
280
     1
270
     1
271
     1
  0
XRECORD
  5
C2
102
{ACAD_REACTORS
330
BC
102
}
330
BC
100
AcDbXrecord
280
     1
270
     1
271
     1
  0
XRECORD
  5
BF
102
{ACAD_REACTORS
330
BC
102
}
330
BC
100
AcDbXrecord
280
     1
270
     1
271
     1
  0
XRECORD
  5
26B
102
{ACAD_REACTORS
330
26A
102
}
330
26A
100
AcDbXrecord
280
     1
102
ACAD_ROUNDTRIP_2012_MLEADER_STYLE
298
     1
  0
XRECORD
  5
26D
102
{ACAD_REACTORS
330
26C
102
}
330
26C
100
AcDbXrecord
280
     1
102
DISPLAYNAME
  1
Imperial24
102
FLAGS
 90
        0
  0
CELLSTYLEMAP
  5
236
102
{ACAD_REACTORS
330
235
102
}
330
235
100
AcDbCellStyleMap
 90
        3
300
CELLSTYLE
  1
TABLEFORMAT_BEGIN
 90
        5
170
     1
 91
        0
 92
    32768
 62
   257
 93
        1
300
CONTENTFORMAT
  1
CONTENTFORMAT_BEGIN
 90
        0
 91
        0
 92
      512
 93
        0
300

 40
0.0
140
1.0
 94
        5
 62
     0
340
11
144
0.25
309
CONTENTFORMAT_END
171
     0
 94
        0
309
TABLEFORMAT_END
  1
CELLSTYLE_BEGIN
 90
        1
 91
        1
300
_TITLE
309
CELLSTYLE_END
300
CELLSTYLE
  1
TABLEFORMAT_BEGIN
 90
        5
170
     1
 91
        0
 92
        0
 62
   257
 93
        1
300
CONTENTFORMAT
  1
CONTENTFORMAT_BEGIN
 90
        0
 91
        0
 92
      512
 93
        0
300

 40
0.0
140
1.0
 94
        5
 62
     0
340
11
144
0.18
309
CONTENTFORMAT_END
171
     0
 94
        0
309
TABLEFORMAT_END
  1
CELLSTYLE_BEGIN
 90
        2
 91
        1
300
_HEADER
309
CELLSTYLE_END
300
CELLSTYLE
  1
TABLEFORMAT_BEGIN
 90
        5
170
     1
 91
        0
 92
        0
 62
   257
 93
        1
300
CONTENTFORMAT
  1
CONTENTFORMAT_BEGIN
 90
        0
 91
        0
 92
      512
 93
        0
300

 40
0.0
140
1.0
 94
        2
 62
     0
340
11
144
0.18
309
CONTENTFORMAT_END
171
     0
 94
        0
309
TABLEFORMAT_END
  1
CELLSTYLE_BEGIN
 90
        3
 91
        2
300
_DATA
309
CELLSTYLE_END
  0
XRECORD
  5
245
102
{ACAD_REACTORS
330
244
102
}
330
244
100
AcDbXrecord
280
     1
102
RTVSPost2010Prop28
280
     1
102
RTVSPost2010PropOp28
 70
     1
102
RTVSPost2010Prop29
280
     1
102
RTVSPost2010PropOp29
 70
     1
102
RTVSPost2010Prop30
280
     0
102
RTVSPost2010PropOp30
 70
     1
102
RTVSPost2010Prop31
280
     0
102
RTVSPost2010PropOp31
 70
     1
102
RTVSPost2010Prop32
280
     0
102
RTVSPost2010PropOp32
 70
     1
102
RTVSPost2010Prop33
280
     0
102
RTVSPost2010PropOp33
 70
     1
102
RTVSPost2010Prop34
280
     0
102
RTVSPost2010PropOp34
 70
     1
102
RTVSPost2010Prop35
280
     0
102
RTVSPost2010PropOp35
 70
     1
102
RTVSPost2010Prop36
280
     0
102
RTVSPost2010PropOp36
 70
     1
102
RTVSPost2010Prop37
 90
       50
102
RTVSPost2010PropOp37
 70
     1
102
RTVSPost2010Prop38
140
0.0
102
RTVSPost2010PropOp38
 70
     1
102
RTVSPost2010Prop39
140
1.0
102
RTVSPost2010PropOp39
 70
     1
102
RTVSPost2010Prop40
 90
        0
102
RTVSPost2010PropOp40
 70
     1
102
RTVSPost2010Prop41ColorIndex
 90
       18
102
RTVSPost2010Prop41ColorRGB
 90
        0
102
RTVSPost2010PropOp41
 70
     1
102
RTVSPost2010Prop42
 90
       50
102
RTVSPost2010PropOp42
 70
     1
102
RTVSPost2010Prop43
 90
        3
102
RTVSPost2010PropOp43
 70
     1
102
RTVSPost2010Prop44ColorIndex
 90
        5
102
RTVSPost2010Prop44ColorRGB
 90
      255
102
RTVSPost2010PropOp44
 70
     1
102
RTVSPost2010Prop45
280
     0
102
RTVSPost2010PropOp45
 70
     1
102
RTVSPost2010Prop46
 90
       50
102
RTVSPost2010PropOp46
 70
     1
102
RTVSPost2010Prop47
 90
       50
102
RTVSPost2010PropOp47
 70
     1
102
RTVSPost2010Prop48
 90
       50
102
RTVSPost2010PropOp48
 70
     1
102
RTVSPost2010Prop49
280
     0
102
RTVSPost2010PropOp49
 70
     1
102
RTVSPost2010Prop50
 90
       50
102
RTVSPost2010PropOp50
 70
     1
102
RTVSPost2010Prop51ColorIndex
 90
      256
102
RTVSPost2010Prop51ColorRGB
 90
-16777216
102
RTVSPost2010PropOp51
 70
     0
102
RTVSPost2010Prop52
140
1.0
102
RTVSPost2010PropOp52
 70
     0
102
RTVSPost2010Prop53
 90
        2
102
RTVSPost2010PropOp53
 70
     1
102
RTVSPost2010Prop54
  1
strokes_ogs.tif
102
RTVSPost2010PropOp54
 70
     1
102
RTVSPost2010Prop55
280
     0
102
RTVSPost2010PropOp55
 70
     1
102
RTVSPost2010Prop56
140
1.0
102
RTVSPost2010PropOp56
 70
     1
102
RTVSPost2010Prop57
140
1.0
102
RTVSPost2010PropOp57
 70
     1
  0
XRECORD
  5
243
102
{ACAD_REACTORS
330
242
102
}
330
242
100
AcDbXrecord
280
     1
102
RTVSPost2010Prop28
280
     0
102
RTVSPost2010PropOp28
 70
     1
102
RTVSPost2010Prop29
280
     1
102
RTVSPost2010PropOp29
 70
     1
102
RTVSPost2010Prop30
280
     1
102
RTVSPost2010PropOp30
 70
     1
102
RTVSPost2010Prop31
280
     0
102
RTVSPost2010PropOp31
 70
     1
102
RTVSPost2010Prop32
280
     0
102
RTVSPost2010PropOp32
 70
     1
102
RTVSPost2010Prop33
280
     0
102
RTVSPost2010PropOp33
 70
     1
102
RTVSPost2010Prop34
280
     0
102
RTVSPost2010PropOp34
 70
     1
102
RTVSPost2010Prop35
280
     0
102
RTVSPost2010PropOp35
 70
     1
102
RTVSPost2010Prop36
280
     0
102
RTVSPost2010PropOp36
 70
     1
102
RTVSPost2010Prop37
 90
       50
102
RTVSPost2010PropOp37
 70
     1
102
RTVSPost2010Prop38
140
0.0
102
RTVSPost2010PropOp38
 70
     1
102
RTVSPost2010Prop39
140
1.0
102
RTVSPost2010PropOp39
 70
     1
102
RTVSPost2010Prop40
 90
        0
102
RTVSPost2010PropOp40
 70
     1
102
RTVSPost2010Prop41ColorIndex
 90
       18
102
RTVSPost2010Prop41ColorRGB
 90
        0
102
RTVSPost2010PropOp41
 70
     1
102
RTVSPost2010Prop42
 90
       50
102
RTVSPost2010PropOp42
 70
     1
102
RTVSPost2010Prop43
 90
        3
102
RTVSPost2010PropOp43
 70
     1
102
RTVSPost2010Prop44ColorIndex
 90
        5
102
RTVSPost2010Prop44ColorRGB
 90
      255
102
RTVSPost2010PropOp44
 70
     1
102
RTVSPost2010Prop45
280
     0
102
RTVSPost2010PropOp45
 70
     1
102
RTVSPost2010Prop46
 90
       50
102
RTVSPost2010PropOp46
 70
     1
102
RTVSPost2010Prop47
 90
       50
102
RTVSPost2010PropOp47
 70
     1
102
RTVSPost2010Prop48
 90
       50
102
RTVSPost2010PropOp48
 70
     1
102
RTVSPost2010Prop49
280
     0
102
RTVSPost2010PropOp49
 70
     1
102
RTVSPost2010Prop50
 90
       50
102
RTVSPost2010PropOp50
 70
     1
102
RTVSPost2010Prop51ColorIndex
 90
      256
102
RTVSPost2010Prop51ColorRGB
 90
-16777216
102
RTVSPost2010PropOp51
 70
     0
102
RTVSPost2010Prop52
140
1.0
102
RTVSPost2010PropOp52
 70
     0
102
RTVSPost2010Prop53
 90
        2
102
RTVSPost2010PropOp53
 70
     1
102
RTVSPost2010Prop54
  1
strokes_ogs.tif
102
RTVSPost2010PropOp54
 70
     1
102
RTVSPost2010Prop55
280
     0
102
RTVSPost2010PropOp55
 70
     1
102
RTVSPost2010Prop56
140
1.0
102
RTVSPost2010PropOp56
 70
     1
102
RTVSPost2010Prop57
140
1.0
102
RTVSPost2010PropOp57
 70
     1
  0
XRECORD
  5
251
102
{ACAD_REACTORS
330
250
102
}
330
250
100
AcDbXrecord
280
     1
102
RTVSPost2010Prop28
280
     0
102
RTVSPost2010PropOp28
 70
     1
102
RTVSPost2010Prop29
280
     1
102
RTVSPost2010PropOp29
 70
     1
102
RTVSPost2010Prop30
280
     1
102
RTVSPost2010PropOp30
 70
     1
102
RTVSPost2010Prop31
280
     0
102
RTVSPost2010PropOp31
 70
     1
102
RTVSPost2010Prop32
280
     0
102
RTVSPost2010PropOp32
 70
     1
102
RTVSPost2010Prop33
280
     0
102
RTVSPost2010PropOp33
 70
     1
102
RTVSPost2010Prop34
280
     0
102
RTVSPost2010PropOp34
 70
     1
102
RTVSPost2010Prop35
280
     0
102
RTVSPost2010PropOp35
 70
     1
102
RTVSPost2010Prop36
280
     0
102
RTVSPost2010PropOp36
 70
     1
102
RTVSPost2010Prop37
 90
       50
102
RTVSPost2010PropOp37
 70
     1
102
RTVSPost2010Prop38
140
0.0
102
RTVSPost2010PropOp38
 70
     1
102
RTVSPost2010Prop39
140
1.0
102
RTVSPost2010PropOp39
 70
     1
102
RTVSPost2010Prop40
 90
        0
102
RTVSPost2010PropOp40
 70
     1
102
RTVSPost2010Prop41ColorIndex
 90
       18
102
RTVSPost2010Prop41ColorRGB
 90
        0
102
RTVSPost2010PropOp41
 70
     1
102
RTVSPost2010Prop42
 90
       50
102
RTVSPost2010PropOp42
 70
     1
102
RTVSPost2010Prop43
 90
        3
102
RTVSPost2010PropOp43
 70
     1
102
RTVSPost2010Prop44ColorIndex
 90
        5
102
RTVSPost2010Prop44ColorRGB
 90
      255
102
RTVSPost2010PropOp44
 70
     1
102
RTVSPost2010Prop45
280
     0
102
RTVSPost2010PropOp45
 70
     1
102
RTVSPost2010Prop46
 90
       50
102
RTVSPost2010PropOp46
 70
     1
102
RTVSPost2010Prop47
 90
       50
102
RTVSPost2010PropOp47
 70
     1
102
RTVSPost2010Prop48
 90
       50
102
RTVSPost2010PropOp48
 70
     1
102
RTVSPost2010Prop49
280
     0
102
RTVSPost2010PropOp49
 70
     1
102
RTVSPost2010Prop50
 90
       50
102
RTVSPost2010PropOp50
 70
     1
102
RTVSPost2010Prop51ColorIndex
 90
      256
102
RTVSPost2010Prop51ColorRGB
 90
-16777216
102
RTVSPost2010PropOp51
 70
     0
102
RTVSPost2010Prop52
140
1.0
102
RTVSPost2010PropOp52
 70
     0
102
RTVSPost2010Prop53
 90
        2
102
RTVSPost2010PropOp53
 70
     1
102
RTVSPost2010Prop54
  1
strokes_ogs.tif
102
RTVSPost2010PropOp54
 70
     1
102
RTVSPost2010Prop55
280
     0
102
RTVSPost2010PropOp55
 70
     1
102
RTVSPost2010Prop56
140
1.0
102
RTVSPost2010PropOp56
 70
     1
102
RTVSPost2010Prop57
140
1.0
102
RTVSPost2010PropOp57
 70
     1
  0
XRECORD
  5
259
102
{ACAD_REACTORS
330
258
102
}
330
258
100
AcDbXrecord
280
     1
102
RTVSPost2010Prop28
280
     0
102
RTVSPost2010PropOp28
 70
     1
102
RTVSPost2010Prop29
280
     1
102
RTVSPost2010PropOp29
 70
     1
102
RTVSPost2010Prop30
280
     1
102
RTVSPost2010PropOp30
 70
     1
102
RTVSPost2010Prop31
280
     0
102
RTVSPost2010PropOp31
 70
     1
102
RTVSPost2010Prop32
280
     0
102
RTVSPost2010PropOp32
 70
     1
102
RTVSPost2010Prop33
280
     0
102
RTVSPost2010PropOp33
 70
     1
102
RTVSPost2010Prop34
280
     0
102
RTVSPost2010PropOp34
 70
     1
102
RTVSPost2010Prop35
280
     0
102
RTVSPost2010PropOp35
 70
     1
102
RTVSPost2010Prop36
280
     0
102
RTVSPost2010PropOp36
 70
     1
102
RTVSPost2010Prop37
 90
       50
102
RTVSPost2010PropOp37
 70
     1
102
RTVSPost2010Prop38
140
0.0
102
RTVSPost2010PropOp38
 70
     1
102
RTVSPost2010Prop39
140
1.0
102
RTVSPost2010PropOp39
 70
     1
102
RTVSPost2010Prop40
 90
        0
102
RTVSPost2010PropOp40
 70
     1
102
RTVSPost2010Prop41ColorIndex
 90
       18
102
RTVSPost2010Prop41ColorRGB
 90
        0
102
RTVSPost2010PropOp41
 70
     1
102
RTVSPost2010Prop42
 90
       50
102
RTVSPost2010PropOp42
 70
     1
102
RTVSPost2010Prop43
 90
        3
102
RTVSPost2010PropOp43
 70
     1
102
RTVSPost2010Prop44ColorIndex
 90
        5
102
RTVSPost2010Prop44ColorRGB
 90
      255
102
RTVSPost2010PropOp44
 70
     1
102
RTVSPost2010Prop45
280
     0
102
RTVSPost2010PropOp45
 70
     1
102
RTVSPost2010Prop46
 90
       50
102
RTVSPost2010PropOp46
 70
     1
102
RTVSPost2010Prop47
 90
       50
102
RTVSPost2010PropOp47
 70
     1
102
RTVSPost2010Prop48
 90
       50
102
RTVSPost2010PropOp48
 70
     1
102
RTVSPost2010Prop49
280
     0
102
RTVSPost2010PropOp49
 70
     1
102
RTVSPost2010Prop50
 90
       50
102
RTVSPost2010PropOp50
 70
     1
102
RTVSPost2010Prop51ColorIndex
 90
      256
102
RTVSPost2010Prop51ColorRGB
 90
-16777216
102
RTVSPost2010PropOp51
 70
     0
102
RTVSPost2010Prop52
140
1.0
102
RTVSPost2010PropOp52
 70
     0
102
RTVSPost2010Prop53
 90
        2
102
RTVSPost2010PropOp53
 70
     1
102
RTVSPost2010Prop54
  1
strokes_ogs.tif
102
RTVSPost2010PropOp54
 70
     1
102
RTVSPost2010Prop55
280
     0
102
RTVSPost2010PropOp55
 70
     1
102
RTVSPost2010Prop56
140
1.0
102
RTVSPost2010PropOp56
 70
     1
102
RTVSPost2010Prop57
140
1.0
102
RTVSPost2010PropOp57
 70
     1
  0
XRECORD
  5
24B
102
{ACAD_REACTORS
330
24A
102
}
330
24A
100
AcDbXrecord
280
     1
102
RTVSPost2010Prop28
280
     0
102
RTVSPost2010PropOp28
 70
     1
102
RTVSPost2010Prop29
280
     1
102
RTVSPost2010PropOp29
 70
     1
102
RTVSPost2010Prop30
280
     1
102
RTVSPost2010PropOp30
 70
     1
102
RTVSPost2010Prop31
280
     0
102
RTVSPost2010PropOp31
 70
     1
102
RTVSPost2010Prop32
280
     0
102
RTVSPost2010PropOp32
 70
     1
102
RTVSPost2010Prop33
280
     0
102
RTVSPost2010PropOp33
 70
     1
102
RTVSPost2010Prop34
280
     0
102
RTVSPost2010PropOp34
 70
     1
102
RTVSPost2010Prop35
280
     0
102
RTVSPost2010PropOp35
 70
     1
102
RTVSPost2010Prop36
280
     0
102
RTVSPost2010PropOp36
 70
     1
102
RTVSPost2010Prop37
 90
       50
102
RTVSPost2010PropOp37
 70
     1
102
RTVSPost2010Prop38
140
0.0
102
RTVSPost2010PropOp38
 70
     1
102
RTVSPost2010Prop39
140
1.0
102
RTVSPost2010PropOp39
 70
     1
102
RTVSPost2010Prop40
 90
        0
102
RTVSPost2010PropOp40
 70
     1
102
RTVSPost2010Prop41ColorIndex
 90
       18
102
RTVSPost2010Prop41ColorRGB
 90
        0
102
RTVSPost2010PropOp41
 70
     1
102
RTVSPost2010Prop42
 90
       50
102
RTVSPost2010PropOp42
 70
     1
102
RTVSPost2010Prop43
 90
        3
102
RTVSPost2010PropOp43
 70
     1
102
RTVSPost2010Prop44ColorIndex
 90
        5
102
RTVSPost2010Prop44ColorRGB
 90
      255
102
RTVSPost2010PropOp44
 70
     1
102
RTVSPost2010Prop45
280
     0
102
RTVSPost2010PropOp45
 70
     1
102
RTVSPost2010Prop46
 90
       50
102
RTVSPost2010PropOp46
 70
     1
102
RTVSPost2010Prop47
 90
       50
102
RTVSPost2010PropOp47
 70
     1
102
RTVSPost2010Prop48
 90
       50
102
RTVSPost2010PropOp48
 70
     1
102
RTVSPost2010Prop49
280
     0
102
RTVSPost2010PropOp49
 70
     1
102
RTVSPost2010Prop50
 90
       50
102
RTVSPost2010PropOp50
 70
     1
102
RTVSPost2010Prop51ColorIndex
 90
      256
102
RTVSPost2010Prop51ColorRGB
 90
-16777216
102
RTVSPost2010PropOp51
 70
     0
102
RTVSPost2010Prop52
140
1.0
102
RTVSPost2010PropOp52
 70
     0
102
RTVSPost2010Prop53
 90
        2
102
RTVSPost2010PropOp53
 70
     1
102
RTVSPost2010Prop54
  1
strokes_ogs.tif
102
RTVSPost2010PropOp54
 70
     1
102
RTVSPost2010Prop55
280
     0
102
RTVSPost2010PropOp55
 70
     1
102
RTVSPost2010Prop56
140
1.0
102
RTVSPost2010PropOp56
 70
     1
102
RTVSPost2010Prop57
140
1.0
102
RTVSPost2010PropOp57
 70
     1
  0
XRECORD
  5
24F
102
{ACAD_REACTORS
330
24E
102
}
330
24E
100
AcDbXrecord
280
     1
102
RTVSPost2010Prop28
280
     0
102
RTVSPost2010PropOp28
 70
     1
102
RTVSPost2010Prop29
280
     1
102
RTVSPost2010PropOp29
 70
     1
102
RTVSPost2010Prop30
280
     1
102
RTVSPost2010PropOp30
 70
     1
102
RTVSPost2010Prop31
280
     0
102
RTVSPost2010PropOp31
 70
     1
102
RTVSPost2010Prop32
280
     0
102
RTVSPost2010PropOp32
 70
     1
102
RTVSPost2010Prop33
280
     0
102
RTVSPost2010PropOp33
 70
     1
102
RTVSPost2010Prop34
280
     0
102
RTVSPost2010PropOp34
 70
     1
102
RTVSPost2010Prop35
280
     0
102
RTVSPost2010PropOp35
 70
     1
102
RTVSPost2010Prop36
280
     0
102
RTVSPost2010PropOp36
 70
     1
102
RTVSPost2010Prop37
 90
       50
102
RTVSPost2010PropOp37
 70
     1
102
RTVSPost2010Prop38
140
0.0
102
RTVSPost2010PropOp38
 70
     1
102
RTVSPost2010Prop39
140
1.0
102
RTVSPost2010PropOp39
 70
     1
102
RTVSPost2010Prop40
 90
        0
102
RTVSPost2010PropOp40
 70
     1
102
RTVSPost2010Prop41ColorIndex
 90
       18
102
RTVSPost2010Prop41ColorRGB
 90
        0
102
RTVSPost2010PropOp41
 70
     1
102
RTVSPost2010Prop42
 90
       50
102
RTVSPost2010PropOp42
 70
     1
102
RTVSPost2010Prop43
 90
        3
102
RTVSPost2010PropOp43
 70
     1
102
RTVSPost2010Prop44ColorIndex
 90
        5
102
RTVSPost2010Prop44ColorRGB
 90
      255
102
RTVSPost2010PropOp44
 70
     1
102
RTVSPost2010Prop45
280
     0
102
RTVSPost2010PropOp45
 70
     1
102
RTVSPost2010Prop46
 90
       50
102
RTVSPost2010PropOp46
 70
     1
102
RTVSPost2010Prop47
 90
       50
102
RTVSPost2010PropOp47
 70
     1
102
RTVSPost2010Prop48
 90
       50
102
RTVSPost2010PropOp48
 70
     1
102
RTVSPost2010Prop49
280
     0
102
RTVSPost2010PropOp49
 70
     1
102
RTVSPost2010Prop50
 90
       50
102
RTVSPost2010PropOp50
 70
     1
102
RTVSPost2010Prop51ColorIndex
 90
      256
102
RTVSPost2010Prop51ColorRGB
 90
-16777216
102
RTVSPost2010PropOp51
 70
     0
102
RTVSPost2010Prop52
140
1.0
102
RTVSPost2010PropOp52
 70
     0
102
RTVSPost2010Prop53
 90
        2
102
RTVSPost2010PropOp53
 70
     1
102
RTVSPost2010Prop54
  1
strokes_ogs.tif
102
RTVSPost2010PropOp54
 70
     1
102
RTVSPost2010Prop55
280
     0
102
RTVSPost2010PropOp55
 70
     1
102
RTVSPost2010Prop56
140
1.0
102
RTVSPost2010PropOp56
 70
     1
102
RTVSPost2010Prop57
140
1.0
102
RTVSPost2010PropOp57
 70
     1
  0
XRECORD
  5
269
102
{ACAD_REACTORS
330
268
102
}
330
268
100
AcDbXrecord
280
     1
102
RTVSPost2010Prop28
280
     0
102
RTVSPost2010PropOp28
 70
     0
102
RTVSPost2010Prop29
280
     1
102
RTVSPost2010PropOp29
 70
     0
102
RTVSPost2010Prop30
280
     1
102
RTVSPost2010PropOp30
 70
     0
102
RTVSPost2010Prop31
280
     0
102
RTVSPost2010PropOp31
 70
     0
102
RTVSPost2010Prop32
280
     0
102
RTVSPost2010PropOp32
 70
     0
102
RTVSPost2010Prop33
280
     0
102
RTVSPost2010PropOp33
 70
     0
102
RTVSPost2010Prop34
280
     0
102
RTVSPost2010PropOp34
 70
     0
102
RTVSPost2010Prop35
280
     0
102
RTVSPost2010PropOp35
 70
     0
102
RTVSPost2010Prop36
280
     0
102
RTVSPost2010PropOp36
 70
     0
102
RTVSPost2010Prop37
 90
       50
102
RTVSPost2010PropOp37
 70
     0
102
RTVSPost2010Prop38
140
0.0
102
RTVSPost2010PropOp38
 70
     0
102
RTVSPost2010Prop39
140
1.0
102
RTVSPost2010PropOp39
 70
     0
102
RTVSPost2010Prop40
 90
        0
102
RTVSPost2010PropOp40
 70
     0
102
RTVSPost2010Prop41ColorIndex
 90
       18
102
RTVSPost2010Prop41ColorRGB
 90
        0
102
RTVSPost2010PropOp41
 70
     0
102
RTVSPost2010Prop42
 90
       50
102
RTVSPost2010PropOp42
 70
     0
102
RTVSPost2010Prop43
 90
        3
102
RTVSPost2010PropOp43
 70
     0
102
RTVSPost2010Prop44ColorIndex
 90
        5
102
RTVSPost2010Prop44ColorRGB
 90
      255
102
RTVSPost2010PropOp44
 70
     0
102
RTVSPost2010Prop45
280
     0
102
RTVSPost2010PropOp45
 70
     0
102
RTVSPost2010Prop46
 90
       50
102
RTVSPost2010PropOp46
 70
     0
102
RTVSPost2010Prop47
 90
       50
102
RTVSPost2010PropOp47
 70
     0
102
RTVSPost2010Prop48
 90
       50
102
RTVSPost2010PropOp48
 70
     0
102
RTVSPost2010Prop49
280
     0
102
RTVSPost2010PropOp49
 70
     0
102
RTVSPost2010Prop50
 90
       50
102
RTVSPost2010PropOp50
 70
     0
102
RTVSPost2010Prop51ColorIndex
 90
      256
102
RTVSPost2010Prop51ColorRGB
 90
-16777216
102
RTVSPost2010PropOp51
 70
     0
102
RTVSPost2010Prop52
140
1.0
102
RTVSPost2010PropOp52
 70
     0
102
RTVSPost2010Prop53
 90
        2
102
RTVSPost2010PropOp53
 70
     0
102
RTVSPost2010Prop54
  1
strokes_ogs.tif
102
RTVSPost2010PropOp54
 70
     0
102
RTVSPost2010Prop55
280
     0
102
RTVSPost2010PropOp55
 70
     0
102
RTVSPost2010Prop56
140
1.0
102
RTVSPost2010PropOp56
 70
     0
102
RTVSPost2010Prop57
140
1.0
102
RTVSPost2010PropOp57
 70
     0
  0
XRECORD
  5
257
102
{ACAD_REACTORS
330
256
102
}
330
256
100
AcDbXrecord
280
     1
102
RTVSPost2010Prop28
280
     0
102
RTVSPost2010PropOp28
 70
     1
102
RTVSPost2010Prop29
280
     1
102
RTVSPost2010PropOp29
 70
     1
102
RTVSPost2010Prop30
280
     1
102
RTVSPost2010PropOp30
 70
     1
102
RTVSPost2010Prop31
280
     0
102
RTVSPost2010PropOp31
 70
     1
102
RTVSPost2010Prop32
280
     0
102
RTVSPost2010PropOp32
 70
     1
102
RTVSPost2010Prop33
280
     0
102
RTVSPost2010PropOp33
 70
     1
102
RTVSPost2010Prop34
280
     0
102
RTVSPost2010PropOp34
 70
     1
102
RTVSPost2010Prop35
280
     0
102
RTVSPost2010PropOp35
 70
     1
102
RTVSPost2010Prop36
280
     0
102
RTVSPost2010PropOp36
 70
     1
102
RTVSPost2010Prop37
 90
       50
102
RTVSPost2010PropOp37
 70
     1
102
RTVSPost2010Prop38
140
0.0
102
RTVSPost2010PropOp38
 70
     1
102
RTVSPost2010Prop39
140
1.0
102
RTVSPost2010PropOp39
 70
     1
102
RTVSPost2010Prop40
 90
        0
102
RTVSPost2010PropOp40
 70
     1
102
RTVSPost2010Prop41ColorIndex
 90
       18
102
RTVSPost2010Prop41ColorRGB
 90
        0
102
RTVSPost2010PropOp41
 70
     1
102
RTVSPost2010Prop42
 90
       50
102
RTVSPost2010PropOp42
 70
     1
102
RTVSPost2010Prop43
 90
        3
102
RTVSPost2010PropOp43
 70
     1
102
RTVSPost2010Prop44ColorIndex
 90
        5
102
RTVSPost2010Prop44ColorRGB
 90
      255
102
RTVSPost2010PropOp44
 70
     1
102
RTVSPost2010Prop45
280
     0
102
RTVSPost2010PropOp45
 70
     1
102
RTVSPost2010Prop46
 90
       50
102
RTVSPost2010PropOp46
 70
     1
102
RTVSPost2010Prop47
 90
       50
102
RTVSPost2010PropOp47
 70
     1
102
RTVSPost2010Prop48
 90
       50
102
RTVSPost2010PropOp48
 70
     1
102
RTVSPost2010Prop49
280
     0
102
RTVSPost2010PropOp49
 70
     1
102
RTVSPost2010Prop50
 90
       50
102
RTVSPost2010PropOp50
 70
     1
102
RTVSPost2010Prop51ColorIndex
 90
      256
102
RTVSPost2010Prop51ColorRGB
 90
-16777216
102
RTVSPost2010PropOp51
 70
     0
102
RTVSPost2010Prop52
140
1.0
102
RTVSPost2010PropOp52
 70
     0
102
RTVSPost2010Prop53
 90
        2
102
RTVSPost2010PropOp53
 70
     1
102
RTVSPost2010Prop54
  1
strokes_ogs.tif
102
RTVSPost2010PropOp54
 70
     1
102
RTVSPost2010Prop55
280
     0
102
RTVSPost2010PropOp55
 70
     1
102
RTVSPost2010Prop56
140
1.0
102
RTVSPost2010PropOp56
 70
     1
102
RTVSPost2010Prop57
140
1.0
102
RTVSPost2010PropOp57
 70
     1
  0
XRECORD
  5
23B
102
{ACAD_REACTORS
330
23A
102
}
330
23A
100
AcDbXrecord
280
     1
102
RTVSPost2010Prop28
280
     0
102
RTVSPost2010PropOp28
 70
     1
102
RTVSPost2010Prop29
280
     1
102
RTVSPost2010PropOp29
 70
     1
102
RTVSPost2010Prop30
280
     1
102
RTVSPost2010PropOp30
 70
     1
102
RTVSPost2010Prop31
280
     0
102
RTVSPost2010PropOp31
 70
     1
102
RTVSPost2010Prop32
280
     0
102
RTVSPost2010PropOp32
 70
     1
102
RTVSPost2010Prop33
280
     0
102
RTVSPost2010PropOp33
 70
     1
102
RTVSPost2010Prop34
280
     0
102
RTVSPost2010PropOp34
 70
     1
102
RTVSPost2010Prop35
280
     0
102
RTVSPost2010PropOp35
 70
     1
102
RTVSPost2010Prop36
280
     0
102
RTVSPost2010PropOp36
 70
     1
102
RTVSPost2010Prop37
 90
       50
102
RTVSPost2010PropOp37
 70
     1
102
RTVSPost2010Prop38
140
0.0
102
RTVSPost2010PropOp38
 70
     1
102
RTVSPost2010Prop39
140
1.0
102
RTVSPost2010PropOp39
 70
     1
102
RTVSPost2010Prop40
 90
        0
102
RTVSPost2010PropOp40
 70
     1
102
RTVSPost2010Prop41ColorIndex
 90
       18
102
RTVSPost2010Prop41ColorRGB
 90
        0
102
RTVSPost2010PropOp41
 70
     1
102
RTVSPost2010Prop42
 90
       50
102
RTVSPost2010PropOp42
 70
     1
102
RTVSPost2010Prop43
 90
        3
102
RTVSPost2010PropOp43
 70
     1
102
RTVSPost2010Prop44ColorIndex
 90
        5
102
RTVSPost2010Prop44ColorRGB
 90
      255
102
RTVSPost2010PropOp44
 70
     1
102
RTVSPost2010Prop45
280
     0
102
RTVSPost2010PropOp45
 70
     1
102
RTVSPost2010Prop46
 90
       50
102
RTVSPost2010PropOp46
 70
     1
102
RTVSPost2010Prop47
 90
       50
102
RTVSPost2010PropOp47
 70
     1
102
RTVSPost2010Prop48
 90
       50
102
RTVSPost2010PropOp48
 70
     1
102
RTVSPost2010Prop49
280
     0
102
RTVSPost2010PropOp49
 70
     1
102
RTVSPost2010Prop50
 90
       50
102
RTVSPost2010PropOp50
 70
     1
102
RTVSPost2010Prop51ColorIndex
 90
      256
102
RTVSPost2010Prop51ColorRGB
 90
-16777216
102
RTVSPost2010PropOp51
 70
     0
102
RTVSPost2010Prop52
140
1.0
102
RTVSPost2010PropOp52
 70
     0
102
RTVSPost2010Prop53
 90
        2
102
RTVSPost2010PropOp53
 70
     1
102
RTVSPost2010Prop54
  1
strokes_ogs.tif
102
RTVSPost2010PropOp54
 70
     1
102
RTVSPost2010Prop55
280
     0
102
RTVSPost2010PropOp55
 70
     1
102
RTVSPost2010Prop56
140
1.0
102
RTVSPost2010PropOp56
 70
     1
102
RTVSPost2010Prop57
140
1.0
102
RTVSPost2010PropOp57
 70
     1
  0
XRECORD
  5
23D
102
{ACAD_REACTORS
330
23C
102
}
330
23C
100
AcDbXrecord
280
     1
102
RTVSPost2010Prop28
280
     0
102
RTVSPost2010PropOp28
 70
     1
102
RTVSPost2010Prop29
280
     1
102
RTVSPost2010PropOp29
 70
     1
102
RTVSPost2010Prop30
280
     1
102
RTVSPost2010PropOp30
 70
     1
102
RTVSPost2010Prop31
280
     0
102
RTVSPost2010PropOp31
 70
     1
102
RTVSPost2010Prop32
280
     0
102
RTVSPost2010PropOp32
 70
     1
102
RTVSPost2010Prop33
280
     0
102
RTVSPost2010PropOp33
 70
     1
102
RTVSPost2010Prop34
280
     0
102
RTVSPost2010PropOp34
 70
     1
102
RTVSPost2010Prop35
280
     0
102
RTVSPost2010PropOp35
 70
     1
102
RTVSPost2010Prop36
280
     0
102
RTVSPost2010PropOp36
 70
     1
102
RTVSPost2010Prop37
 90
       50
102
RTVSPost2010PropOp37
 70
     1
102
RTVSPost2010Prop38
140
0.0
102
RTVSPost2010PropOp38
 70
     1
102
RTVSPost2010Prop39
140
1.0
102
RTVSPost2010PropOp39
 70
     1
102
RTVSPost2010Prop40
 90
        0
102
RTVSPost2010PropOp40
 70
     1
102
RTVSPost2010Prop41ColorIndex
 90
       18
102
RTVSPost2010Prop41ColorRGB
 90
        0
102
RTVSPost2010PropOp41
 70
     1
102
RTVSPost2010Prop42
 90
       50
102
RTVSPost2010PropOp42
 70
     1
102
RTVSPost2010Prop43
 90
        3
102
RTVSPost2010PropOp43
 70
     1
102
RTVSPost2010Prop44ColorIndex
 90
        5
102
RTVSPost2010Prop44ColorRGB
 90
      255
102
RTVSPost2010PropOp44
 70
     1
102
RTVSPost2010Prop45
280
     0
102
RTVSPost2010PropOp45
 70
     1
102
RTVSPost2010Prop46
 90
       50
102
RTVSPost2010PropOp46
 70
     1
102
RTVSPost2010Prop47
 90
       50
102
RTVSPost2010PropOp47
 70
     1
102
RTVSPost2010Prop48
 90
       50
102
RTVSPost2010PropOp48
 70
     1
102
RTVSPost2010Prop49
280
     0
102
RTVSPost2010PropOp49
 70
     1
102
RTVSPost2010Prop50
 90
       50
102
RTVSPost2010PropOp50
 70
     1
102
RTVSPost2010Prop51ColorIndex
 90
      256
102
RTVSPost2010Prop51ColorRGB
 90
-16777216
102
RTVSPost2010PropOp51
 70
     0
102
RTVSPost2010Prop52
140
1.0
102
RTVSPost2010PropOp52
 70
     0
102
RTVSPost2010Prop53
 90
        2
102
RTVSPost2010PropOp53
 70
     1
102
RTVSPost2010Prop54
  1
strokes_ogs.tif
102
RTVSPost2010PropOp54
 70
     1
102
RTVSPost2010Prop55
280
     0
102
RTVSPost2010PropOp55
 70
     1
102
RTVSPost2010Prop56
140
1.0
102
RTVSPost2010PropOp56
 70
     1
102
RTVSPost2010Prop57
140
1.0
102
RTVSPost2010PropOp57
 70
     1
  0
XRECORD
  5
23F
102
{ACAD_REACTORS
330
23E
102
}
330
23E
100
AcDbXrecord
280
     1
102
RTVSPost2010Prop28
280
     0
102
RTVSPost2010PropOp28
 70
     1
102
RTVSPost2010Prop29
280
     1
102
RTVSPost2010PropOp29
 70
     1
102
RTVSPost2010Prop30
280
     1
102
RTVSPost2010PropOp30
 70
     1
102
RTVSPost2010Prop31
280
     0
102
RTVSPost2010PropOp31
 70
     1
102
RTVSPost2010Prop32
280
     0
102
RTVSPost2010PropOp32
 70
     1
102
RTVSPost2010Prop33
280
     0
102
RTVSPost2010PropOp33
 70
     1
102
RTVSPost2010Prop34
280
     0
102
RTVSPost2010PropOp34
 70
     1
102
RTVSPost2010Prop35
280
     0
102
RTVSPost2010PropOp35
 70
     1
102
RTVSPost2010Prop36
280
     0
102
RTVSPost2010PropOp36
 70
     1
102
RTVSPost2010Prop37
 90
       50
102
RTVSPost2010PropOp37
 70
     1
102
RTVSPost2010Prop38
140
0.0
102
RTVSPost2010PropOp38
 70
     1
102
RTVSPost2010Prop39
140
1.0
102
RTVSPost2010PropOp39
 70
     1
102
RTVSPost2010Prop40
 90
        0
102
RTVSPost2010PropOp40
 70
     1
102
RTVSPost2010Prop41ColorIndex
 90
       18
102
RTVSPost2010Prop41ColorRGB
 90
        0
102
RTVSPost2010PropOp41
 70
     1
102
RTVSPost2010Prop42
 90
       50
102
RTVSPost2010PropOp42
 70
     1
102
RTVSPost2010Prop43
 90
        3
102
RTVSPost2010PropOp43
 70
     1
102
RTVSPost2010Prop44ColorIndex
 90
        5
102
RTVSPost2010Prop44ColorRGB
 90
      255
102
RTVSPost2010PropOp44
 70
     1
102
RTVSPost2010Prop45
280
     0
102
RTVSPost2010PropOp45
 70
     1
102
RTVSPost2010Prop46
 90
       50
102
RTVSPost2010PropOp46
 70
     1
102
RTVSPost2010Prop47
 90
       50
102
RTVSPost2010PropOp47
 70
     1
102
RTVSPost2010Prop48
 90
       50
102
RTVSPost2010PropOp48
 70
     1
102
RTVSPost2010Prop49
280
     0
102
RTVSPost2010PropOp49
 70
     1
102
RTVSPost2010Prop50
 90
       50
102
RTVSPost2010PropOp50
 70
     1
102
RTVSPost2010Prop51ColorIndex
 90
      256
102
RTVSPost2010Prop51ColorRGB
 90
-16777216
102
RTVSPost2010PropOp51
 70
     0
102
RTVSPost2010Prop52
140
1.0
102
RTVSPost2010PropOp52
 70
     0
102
RTVSPost2010Prop53
 90
        2
102
RTVSPost2010PropOp53
 70
     1
102
RTVSPost2010Prop54
  1
strokes_ogs.tif
102
RTVSPost2010PropOp54
 70
     1
102
RTVSPost2010Prop55
280
     0
102
RTVSPost2010PropOp55
 70
     1
102
RTVSPost2010Prop56
140
1.0
102
RTVSPost2010PropOp56
 70
     1
102
RTVSPost2010Prop57
140
1.0
102
RTVSPost2010PropOp57
 70
     1
  0
XRECORD
  5
241
102
{ACAD_REACTORS
330
240
102
}
330
240
100
AcDbXrecord
280
     1
102
RTVSPost2010Prop28
280
     0
102
RTVSPost2010PropOp28
 70
     1
102
RTVSPost2010Prop29
280
     1
102
RTVSPost2010PropOp29
 70
     1
102
RTVSPost2010Prop30
280
     1
102
RTVSPost2010PropOp30
 70
     1
102
RTVSPost2010Prop31
280
     0
102
RTVSPost2010PropOp31
 70
     1
102
RTVSPost2010Prop32
280
     0
102
RTVSPost2010PropOp32
 70
     1
102
RTVSPost2010Prop33
280
     0
102
RTVSPost2010PropOp33
 70
     1
102
RTVSPost2010Prop34
280
     0
102
RTVSPost2010PropOp34
 70
     1
102
RTVSPost2010Prop35
280
     0
102
RTVSPost2010PropOp35
 70
     1
102
RTVSPost2010Prop36
280
     0
102
RTVSPost2010PropOp36
 70
     1
102
RTVSPost2010Prop37
 90
       50
102
RTVSPost2010PropOp37
 70
     1
102
RTVSPost2010Prop38
140
0.0
102
RTVSPost2010PropOp38
 70
     1
102
RTVSPost2010Prop39
140
1.0
102
RTVSPost2010PropOp39
 70
     1
102
RTVSPost2010Prop40
 90
        0
102
RTVSPost2010PropOp40
 70
     1
102
RTVSPost2010Prop41ColorIndex
 90
       18
102
RTVSPost2010Prop41ColorRGB
 90
        0
102
RTVSPost2010PropOp41
 70
     1
102
RTVSPost2010Prop42
 90
       50
102
RTVSPost2010PropOp42
 70
     1
102
RTVSPost2010Prop43
 90
        3
102
RTVSPost2010PropOp43
 70
     1
102
RTVSPost2010Prop44ColorIndex
 90
        5
102
RTVSPost2010Prop44ColorRGB
 90
      255
102
RTVSPost2010PropOp44
 70
     1
102
RTVSPost2010Prop45
280
     0
102
RTVSPost2010PropOp45
 70
     1
102
RTVSPost2010Prop46
 90
       50
102
RTVSPost2010PropOp46
 70
     1
102
RTVSPost2010Prop47
 90
       50
102
RTVSPost2010PropOp47
 70
     1
102
RTVSPost2010Prop48
 90
       50
102
RTVSPost2010PropOp48
 70
     1
102
RTVSPost2010Prop49
280
     0
102
RTVSPost2010PropOp49
 70
     1
102
RTVSPost2010Prop50
 90
       50
102
RTVSPost2010PropOp50
 70
     1
102
RTVSPost2010Prop51ColorIndex
 90
      256
102
RTVSPost2010Prop51ColorRGB
 90
-16777216
102
RTVSPost2010PropOp51
 70
     0
102
RTVSPost2010Prop52
140
1.0
102
RTVSPost2010PropOp52
 70
     0
102
RTVSPost2010Prop53
 90
        2
102
RTVSPost2010PropOp53
 70
     1
102
RTVSPost2010Prop54
  1
strokes_ogs.tif
102
RTVSPost2010PropOp54
 70
     1
102
RTVSPost2010Prop55
280
     0
102
RTVSPost2010PropOp55
 70
     1
102
RTVSPost2010Prop56
140
1.0
102
RTVSPost2010PropOp56
 70
     1
102
RTVSPost2010Prop57
140
1.0
102
RTVSPost2010PropOp57
 70
     1
  0
XRECORD
  5
249
102
{ACAD_REACTORS
330
248
102
}
330
248
100
AcDbXrecord
280
     1
102
RTVSPost2010Prop28
280
     0
102
RTVSPost2010PropOp28
 70
     1
102
RTVSPost2010Prop29
280
     1
102
RTVSPost2010PropOp29
 70
     1
102
RTVSPost2010Prop30
280
     1
102
RTVSPost2010PropOp30
 70
     1
102
RTVSPost2010Prop31
280
     0
102
RTVSPost2010PropOp31
 70
     1
102
RTVSPost2010Prop32
280
     0
102
RTVSPost2010PropOp32
 70
     1
102
RTVSPost2010Prop33
280
     0
102
RTVSPost2010PropOp33
 70
     1
102
RTVSPost2010Prop34
280
     0
102
RTVSPost2010PropOp34
 70
     1
102
RTVSPost2010Prop35
280
     0
102
RTVSPost2010PropOp35
 70
     1
102
RTVSPost2010Prop36
280
     0
102
RTVSPost2010PropOp36
 70
     1
102
RTVSPost2010Prop37
 90
       50
102
RTVSPost2010PropOp37
 70
     1
102
RTVSPost2010Prop38
140
0.0
102
RTVSPost2010PropOp38
 70
     1
102
RTVSPost2010Prop39
140
1.0
102
RTVSPost2010PropOp39
 70
     1
102
RTVSPost2010Prop40
 90
        0
102
RTVSPost2010PropOp40
 70
     1
102
RTVSPost2010Prop41ColorIndex
 90
       18
102
RTVSPost2010Prop41ColorRGB
 90
        0
102
RTVSPost2010PropOp41
 70
     1
102
RTVSPost2010Prop42
 90
       50
102
RTVSPost2010PropOp42
 70
     1
102
RTVSPost2010Prop43
 90
        3
102
RTVSPost2010PropOp43
 70
     1
102
RTVSPost2010Prop44ColorIndex
 90
        5
102
RTVSPost2010Prop44ColorRGB
 90
      255
102
RTVSPost2010PropOp44
 70
     1
102
RTVSPost2010Prop45
280
     0
102
RTVSPost2010PropOp45
 70
     1
102
RTVSPost2010Prop46
 90
       50
102
RTVSPost2010PropOp46
 70
     1
102
RTVSPost2010Prop47
 90
       50
102
RTVSPost2010PropOp47
 70
     1
102
RTVSPost2010Prop48
 90
       50
102
RTVSPost2010PropOp48
 70
     1
102
RTVSPost2010Prop49
280
     0
102
RTVSPost2010PropOp49
 70
     1
102
RTVSPost2010Prop50
 90
       50
102
RTVSPost2010PropOp50
 70
     1
102
RTVSPost2010Prop51ColorIndex
 90
      256
102
RTVSPost2010Prop51ColorRGB
 90
-16777216
102
RTVSPost2010PropOp51
 70
     0
102
RTVSPost2010Prop52
140
1.0
102
RTVSPost2010PropOp52
 70
     0
102
RTVSPost2010Prop53
 90
        2
102
RTVSPost2010PropOp53
 70
     1
102
RTVSPost2010Prop54
  1
strokes_ogs.tif
102
RTVSPost2010PropOp54
 70
     1
102
RTVSPost2010Prop55
280
     0
102
RTVSPost2010PropOp55
 70
     1
102
RTVSPost2010Prop56
140
1.0
102
RTVSPost2010PropOp56
 70
     1
102
RTVSPost2010Prop57
140
1.0
102
RTVSPost2010PropOp57
 70
     1
  0
XRECORD
  5
265
102
{ACAD_REACTORS
330
264
102
}
330
264
100
AcDbXrecord
280
     1
102
RTVSPost2010Prop28
280
     0
102
RTVSPost2010PropOp28
 70
     0
102
RTVSPost2010Prop29
280
     1
102
RTVSPost2010PropOp29
 70
     0
102
RTVSPost2010Prop30
280
     1
102
RTVSPost2010PropOp30
 70
     0
102
RTVSPost2010Prop31
280
     0
102
RTVSPost2010PropOp31
 70
     0
102
RTVSPost2010Prop32
280
     0
102
RTVSPost2010PropOp32
 70
     0
102
RTVSPost2010Prop33
280
     0
102
RTVSPost2010PropOp33
 70
     0
102
RTVSPost2010Prop34
280
     0
102
RTVSPost2010PropOp34
 70
     0
102
RTVSPost2010Prop35
280
     0
102
RTVSPost2010PropOp35
 70
     0
102
RTVSPost2010Prop36
280
     0
102
RTVSPost2010PropOp36
 70
     0
102
RTVSPost2010Prop37
 90
       50
102
RTVSPost2010PropOp37
 70
     0
102
RTVSPost2010Prop38
140
0.0
102
RTVSPost2010PropOp38
 70
     0
102
RTVSPost2010Prop39
140
1.0
102
RTVSPost2010PropOp39
 70
     0
102
RTVSPost2010Prop40
 90
        0
102
RTVSPost2010PropOp40
 70
     0
102
RTVSPost2010Prop41ColorIndex
 90
       18
102
RTVSPost2010Prop41ColorRGB
 90
        0
102
RTVSPost2010PropOp41
 70
     0
102
RTVSPost2010Prop42
 90
       50
102
RTVSPost2010PropOp42
 70
     0
102
RTVSPost2010Prop43
 90
        3
102
RTVSPost2010PropOp43
 70
     0
102
RTVSPost2010Prop44ColorIndex
 90
        5
102
RTVSPost2010Prop44ColorRGB
 90
      255
102
RTVSPost2010PropOp44
 70
     0
102
RTVSPost2010Prop45
280
     0
102
RTVSPost2010PropOp45
 70
     0
102
RTVSPost2010Prop46
 90
       50
102
RTVSPost2010PropOp46
 70
     0
102
RTVSPost2010Prop47
 90
       50
102
RTVSPost2010PropOp47
 70
     0
102
RTVSPost2010Prop48
 90
       50
102
RTVSPost2010PropOp48
 70
     0
102
RTVSPost2010Prop49
280
     0
102
RTVSPost2010PropOp49
 70
     0
102
RTVSPost2010Prop50
 90
       50
102
RTVSPost2010PropOp50
 70
     0
102
RTVSPost2010Prop51ColorIndex
 90
      256
102
RTVSPost2010Prop51ColorRGB
 90
-16777216
102
RTVSPost2010PropOp51
 70
     0
102
RTVSPost2010Prop52
140
1.0
102
RTVSPost2010PropOp52
 70
     0
102
RTVSPost2010Prop53
 90
        2
102
RTVSPost2010PropOp53
 70
     0
102
RTVSPost2010Prop54
  1
strokes_ogs.tif
102
RTVSPost2010PropOp54
 70
     0
102
RTVSPost2010Prop55
280
     0
102
RTVSPost2010PropOp55
 70
     0
102
RTVSPost2010Prop56
140
1.0
102
RTVSPost2010PropOp56
 70
     0
102
RTVSPost2010Prop57
140
1.0
102
RTVSPost2010PropOp57
 70
     0
  0
XRECORD
  5
255
102
{ACAD_REACTORS
330
254
102
}
330
254
100
AcDbXrecord
280
     1
102
RTVSPost2010Prop28
280
     0
102
RTVSPost2010PropOp28
 70
     1
102
RTVSPost2010Prop29
280
     1
102
RTVSPost2010PropOp29
 70
     1
102
RTVSPost2010Prop30
280
     1
102
RTVSPost2010PropOp30
 70
     1
102
RTVSPost2010Prop31
280
     0
102
RTVSPost2010PropOp31
 70
     1
102
RTVSPost2010Prop32
280
     0
102
RTVSPost2010PropOp32
 70
     1
102
RTVSPost2010Prop33
280
     0
102
RTVSPost2010PropOp33
 70
     1
102
RTVSPost2010Prop34
280
     0
102
RTVSPost2010PropOp34
 70
     1
102
RTVSPost2010Prop35
280
     0
102
RTVSPost2010PropOp35
 70
     1
102
RTVSPost2010Prop36
280
     0
102
RTVSPost2010PropOp36
 70
     1
102
RTVSPost2010Prop37
 90
       50
102
RTVSPost2010PropOp37
 70
     1
102
RTVSPost2010Prop38
140
0.0
102
RTVSPost2010PropOp38
 70
     1
102
RTVSPost2010Prop39
140
1.0
102
RTVSPost2010PropOp39
 70
     1
102
RTVSPost2010Prop40
 90
        0
102
RTVSPost2010PropOp40
 70
     1
102
RTVSPost2010Prop41ColorIndex
 90
       18
102
RTVSPost2010Prop41ColorRGB
 90
        0
102
RTVSPost2010PropOp41
 70
     1
102
RTVSPost2010Prop42
 90
       50
102
RTVSPost2010PropOp42
 70
     1
102
RTVSPost2010Prop43
 90
        3
102
RTVSPost2010PropOp43
 70
     1
102
RTVSPost2010Prop44ColorIndex
 90
        5
102
RTVSPost2010Prop44ColorRGB
 90
      255
102
RTVSPost2010PropOp44
 70
     1
102
RTVSPost2010Prop45
280
     0
102
RTVSPost2010PropOp45
 70
     1
102
RTVSPost2010Prop46
 90
       50
102
RTVSPost2010PropOp46
 70
     1
102
RTVSPost2010Prop47
 90
       50
102
RTVSPost2010PropOp47
 70
     1
102
RTVSPost2010Prop48
 90
       50
102
RTVSPost2010PropOp48
 70
     1
102
RTVSPost2010Prop49
280
     0
102
RTVSPost2010PropOp49
 70
     1
102
RTVSPost2010Prop50
 90
       50
102
RTVSPost2010PropOp50
 70
     1
102
RTVSPost2010Prop51ColorIndex
 90
      256
102
RTVSPost2010Prop51ColorRGB
 90
-16777216
102
RTVSPost2010PropOp51
 70
     0
102
RTVSPost2010Prop52
140
1.0
102
RTVSPost2010PropOp52
 70
     0
102
RTVSPost2010Prop53
 90
        2
102
RTVSPost2010PropOp53
 70
     1
102
RTVSPost2010Prop54
  1
strokes_ogs.tif
102
RTVSPost2010PropOp54
 70
     1
102
RTVSPost2010Prop55
280
     0
102
RTVSPost2010PropOp55
 70
     1
102
RTVSPost2010Prop56
140
1.0
102
RTVSPost2010PropOp56
 70
     1
102
RTVSPost2010Prop57
140
1.0
102
RTVSPost2010PropOp57
 70
     1
  0
XRECORD
  5
267
102
{ACAD_REACTORS
330
266
102
}
330
266
100
AcDbXrecord
280
     1
102
RTVSPost2010Prop28
280
     0
102
RTVSPost2010PropOp28
 70
     0
102
RTVSPost2010Prop29
280
     1
102
RTVSPost2010PropOp29
 70
     0
102
RTVSPost2010Prop30
280
     1
102
RTVSPost2010PropOp30
 70
     0
102
RTVSPost2010Prop31
280
     0
102
RTVSPost2010PropOp31
 70
     0
102
RTVSPost2010Prop32
280
     0
102
RTVSPost2010PropOp32
 70
     0
102
RTVSPost2010Prop33
280
     0
102
RTVSPost2010PropOp33
 70
     0
102
RTVSPost2010Prop34
280
     0
102
RTVSPost2010PropOp34
 70
     0
102
RTVSPost2010Prop35
280
     0
102
RTVSPost2010PropOp35
 70
     0
102
RTVSPost2010Prop36
280
     0
102
RTVSPost2010PropOp36
 70
     0
102
RTVSPost2010Prop37
 90
       50
102
RTVSPost2010PropOp37
 70
     0
102
RTVSPost2010Prop38
140
0.0
102
RTVSPost2010PropOp38
 70
     0
102
RTVSPost2010Prop39
140
1.0
102
RTVSPost2010PropOp39
 70
     0
102
RTVSPost2010Prop40
 90
        0
102
RTVSPost2010PropOp40
 70
     0
102
RTVSPost2010Prop41ColorIndex
 90
       18
102
RTVSPost2010Prop41ColorRGB
 90
        0
102
RTVSPost2010PropOp41
 70
     0
102
RTVSPost2010Prop42
 90
       50
102
RTVSPost2010PropOp42
 70
     0
102
RTVSPost2010Prop43
 90
        3
102
RTVSPost2010PropOp43
 70
     0
102
RTVSPost2010Prop44ColorIndex
 90
        5
102
RTVSPost2010Prop44ColorRGB
 90
      255
102
RTVSPost2010PropOp44
 70
     0
102
RTVSPost2010Prop45
280
     0
102
RTVSPost2010PropOp45
 70
     0
102
RTVSPost2010Prop46
 90
       50
102
RTVSPost2010PropOp46
 70
     0
102
RTVSPost2010Prop47
 90
       50
102
RTVSPost2010PropOp47
 70
     0
102
RTVSPost2010Prop48
 90
       50
102
RTVSPost2010PropOp48
 70
     0
102
RTVSPost2010Prop49
280
     0
102
RTVSPost2010PropOp49
 70
     0
102
RTVSPost2010Prop50
 90
       50
102
RTVSPost2010PropOp50
 70
     0
102
RTVSPost2010Prop51ColorIndex
 90
      256
102
RTVSPost2010Prop51ColorRGB
 90
-16777216
102
RTVSPost2010PropOp51
 70
     0
102
RTVSPost2010Prop52
140
1.0
102
RTVSPost2010PropOp52
 70
     0
102
RTVSPost2010Prop53
 90
        2
102
RTVSPost2010PropOp53
 70
     0
102
RTVSPost2010Prop54
  1
strokes_ogs.tif
102
RTVSPost2010PropOp54
 70
     0
102
RTVSPost2010Prop55
280
     0
102
RTVSPost2010PropOp55
 70
     0
102
RTVSPost2010Prop56
140
1.0
102
RTVSPost2010PropOp56
 70
     0
102
RTVSPost2010Prop57
140
1.0
102
RTVSPost2010PropOp57
 70
     0
  0
XRECORD
  5
24D
102
{ACAD_REACTORS
330
24C
102
}
330
24C
100
AcDbXrecord
280
     1
102
RTVSPost2010Prop28
280
     0
102
RTVSPost2010PropOp28
 70
     1
102
RTVSPost2010Prop29
280
     1
102
RTVSPost2010PropOp29
 70
     1
102
RTVSPost2010Prop30
280
     1
102
RTVSPost2010PropOp30
 70
     1
102
RTVSPost2010Prop31
280
     0
102
RTVSPost2010PropOp31
 70
     1
102
RTVSPost2010Prop32
280
     0
102
RTVSPost2010PropOp32
 70
     1
102
RTVSPost2010Prop33
280
     0
102
RTVSPost2010PropOp33
 70
     1
102
RTVSPost2010Prop34
280
     0
102
RTVSPost2010PropOp34
 70
     1
102
RTVSPost2010Prop35
280
     0
102
RTVSPost2010PropOp35
 70
     1
102
RTVSPost2010Prop36
280
     0
102
RTVSPost2010PropOp36
 70
     1
102
RTVSPost2010Prop37
 90
       50
102
RTVSPost2010PropOp37
 70
     1
102
RTVSPost2010Prop38
140
0.0
102
RTVSPost2010PropOp38
 70
     1
102
RTVSPost2010Prop39
140
1.0
102
RTVSPost2010PropOp39
 70
     1
102
RTVSPost2010Prop40
 90
        0
102
RTVSPost2010PropOp40
 70
     1
102
RTVSPost2010Prop41ColorIndex
 90
       18
102
RTVSPost2010Prop41ColorRGB
 90
        0
102
RTVSPost2010PropOp41
 70
     1
102
RTVSPost2010Prop42
 90
       50
102
RTVSPost2010PropOp42
 70
     1
102
RTVSPost2010Prop43
 90
        3
102
RTVSPost2010PropOp43
 70
     1
102
RTVSPost2010Prop44ColorIndex
 90
        5
102
RTVSPost2010Prop44ColorRGB
 90
      255
102
RTVSPost2010PropOp44
 70
     1
102
RTVSPost2010Prop45
280
     0
102
RTVSPost2010PropOp45
 70
     1
102
RTVSPost2010Prop46
 90
       50
102
RTVSPost2010PropOp46
 70
     1
102
RTVSPost2010Prop47
 90
       50
102
RTVSPost2010PropOp47
 70
     1
102
RTVSPost2010Prop48
 90
       50
102
RTVSPost2010PropOp48
 70
     1
102
RTVSPost2010Prop49
280
     0
102
RTVSPost2010PropOp49
 70
     1
102
RTVSPost2010Prop50
 90
       50
102
RTVSPost2010PropOp50
 70
     1
102
RTVSPost2010Prop51ColorIndex
 90
      256
102
RTVSPost2010Prop51ColorRGB
 90
-16777216
102
RTVSPost2010PropOp51
 70
     0
102
RTVSPost2010Prop52
140
1.0
102
RTVSPost2010PropOp52
 70
     0
102
RTVSPost2010Prop53
 90
        2
102
RTVSPost2010PropOp53
 70
     1
102
RTVSPost2010Prop54
  1
strokes_ogs.tif
102
RTVSPost2010PropOp54
 70
     1
102
RTVSPost2010Prop55
280
     0
102
RTVSPost2010PropOp55
 70
     1
102
RTVSPost2010Prop56
140
1.0
102
RTVSPost2010PropOp56
 70
     1
102
RTVSPost2010Prop57
140
1.0
102
RTVSPost2010PropOp57
 70
     1
  0
XRECORD
  5
263
102
{ACAD_REACTORS
330
262
102
}
330
262
100
AcDbXrecord
280
     1
102
RTVSPost2010Prop28
280
     0
102
RTVSPost2010PropOp28
 70
     1
102
RTVSPost2010Prop29
280
     1
102
RTVSPost2010PropOp29
 70
     1
102
RTVSPost2010Prop30
280
     1
102
RTVSPost2010PropOp30
 70
     1
102
RTVSPost2010Prop31
280
     0
102
RTVSPost2010PropOp31
 70
     1
102
RTVSPost2010Prop32
280
     0
102
RTVSPost2010PropOp32
 70
     1
102
RTVSPost2010Prop33
280
     0
102
RTVSPost2010PropOp33
 70
     1
102
RTVSPost2010Prop34
280
     0
102
RTVSPost2010PropOp34
 70
     1
102
RTVSPost2010Prop35
280
     0
102
RTVSPost2010PropOp35
 70
     1
102
RTVSPost2010Prop36
280
     0
102
RTVSPost2010PropOp36
 70
     1
102
RTVSPost2010Prop37
 90
       50
102
RTVSPost2010PropOp37
 70
     1
102
RTVSPost2010Prop38
140
0.0
102
RTVSPost2010PropOp38
 70
     1
102
RTVSPost2010Prop39
140
1.0
102
RTVSPost2010PropOp39
 70
     1
102
RTVSPost2010Prop40
 90
        0
102
RTVSPost2010PropOp40
 70
     1
102
RTVSPost2010Prop41ColorIndex
 90
       18
102
RTVSPost2010Prop41ColorRGB
 90
        0
102
RTVSPost2010PropOp41
 70
     1
102
RTVSPost2010Prop42
 90
       50
102
RTVSPost2010PropOp42
 70
     1
102
RTVSPost2010Prop43
 90
        3
102
RTVSPost2010PropOp43
 70
     1
102
RTVSPost2010Prop44ColorIndex
 90
        5
102
RTVSPost2010Prop44ColorRGB
 90
      255
102
RTVSPost2010PropOp44
 70
     1
102
RTVSPost2010Prop45
280
     0
102
RTVSPost2010PropOp45
 70
     1
102
RTVSPost2010Prop46
 90
       50
102
RTVSPost2010PropOp46
 70
     1
102
RTVSPost2010Prop47
 90
       50
102
RTVSPost2010PropOp47
 70
     1
102
RTVSPost2010Prop48
 90
       50
102
RTVSPost2010PropOp48
 70
     1
102
RTVSPost2010Prop49
280
     0
102
RTVSPost2010PropOp49
 70
     1
102
RTVSPost2010Prop50
 90
       50
102
RTVSPost2010PropOp50
 70
     1
102
RTVSPost2010Prop51ColorIndex
 90
      256
102
RTVSPost2010Prop51ColorRGB
 90
-16777216
102
RTVSPost2010PropOp51
 70
     0
102
RTVSPost2010Prop52
140
1.0
102
RTVSPost2010PropOp52
 70
     0
102
RTVSPost2010Prop53
 90
        2
102
RTVSPost2010PropOp53
 70
     1
102
RTVSPost2010Prop54
  1
strokes_ogs.tif
102
RTVSPost2010PropOp54
 70
     1
102
RTVSPost2010Prop55
280
     0
102
RTVSPost2010PropOp55
 70
     1
102
RTVSPost2010Prop56
140
1.0
102
RTVSPost2010PropOp56
 70
     1
102
RTVSPost2010Prop57
140
1.0
102
RTVSPost2010PropOp57
 70
     1
  0
XRECORD
  5
261
102
{ACAD_REACTORS
330
260
102
}
330
260
100
AcDbXrecord
280
     1
102
RTVSPost2010Prop28
280
     0
102
RTVSPost2010PropOp28
 70
     1
102
RTVSPost2010Prop29
280
     1
102
RTVSPost2010PropOp29
 70
     1
102
RTVSPost2010Prop30
280
     1
102
RTVSPost2010PropOp30
 70
     1
102
RTVSPost2010Prop31
280
     0
102
RTVSPost2010PropOp31
 70
     1
102
RTVSPost2010Prop32
280
     0
102
RTVSPost2010PropOp32
 70
     1
102
RTVSPost2010Prop33
280
     0
102
RTVSPost2010PropOp33
 70
     1
102
RTVSPost2010Prop34
280
     0
102
RTVSPost2010PropOp34
 70
     1
102
RTVSPost2010Prop35
280
     0
102
RTVSPost2010PropOp35
 70
     1
102
RTVSPost2010Prop36
280
     0
102
RTVSPost2010PropOp36
 70
     1
102
RTVSPost2010Prop37
 90
       50
102
RTVSPost2010PropOp37
 70
     1
102
RTVSPost2010Prop38
140
0.0
102
RTVSPost2010PropOp38
 70
     1
102
RTVSPost2010Prop39
140
1.0
102
RTVSPost2010PropOp39
 70
     1
102
RTVSPost2010Prop40
 90
        0
102
RTVSPost2010PropOp40
 70
     1
102
RTVSPost2010Prop41ColorIndex
 90
       18
102
RTVSPost2010Prop41ColorRGB
 90
        0
102
RTVSPost2010PropOp41
 70
     1
102
RTVSPost2010Prop42
 90
       50
102
RTVSPost2010PropOp42
 70
     1
102
RTVSPost2010Prop43
 90
        3
102
RTVSPost2010PropOp43
 70
     1
102
RTVSPost2010Prop44ColorIndex
 90
        5
102
RTVSPost2010Prop44ColorRGB
 90
      255
102
RTVSPost2010PropOp44
 70
     1
102
RTVSPost2010Prop45
280
     0
102
RTVSPost2010PropOp45
 70
     1
102
RTVSPost2010Prop46
 90
       50
102
RTVSPost2010PropOp46
 70
     1
102
RTVSPost2010Prop47
 90
       50
102
RTVSPost2010PropOp47
 70
     1
102
RTVSPost2010Prop48
 90
       50
102
RTVSPost2010PropOp48
 70
     1
102
RTVSPost2010Prop49
280
     0
102
RTVSPost2010PropOp49
 70
     1
102
RTVSPost2010Prop50
 90
       50
102
RTVSPost2010PropOp50
 70
     1
102
RTVSPost2010Prop51ColorIndex
 90
      256
102
RTVSPost2010Prop51ColorRGB
 90
-16777216
102
RTVSPost2010PropOp51
 70
     0
102
RTVSPost2010Prop52
140
1.0
102
RTVSPost2010PropOp52
 70
     0
102
RTVSPost2010Prop53
 90
        2
102
RTVSPost2010PropOp53
 70
     1
102
RTVSPost2010Prop54
  1
strokes_ogs.tif
102
RTVSPost2010PropOp54
 70
     1
102
RTVSPost2010Prop55
280
     0
102
RTVSPost2010PropOp55
 70
     1
102
RTVSPost2010Prop56
140
1.0
102
RTVSPost2010PropOp56
 70
     1
102
RTVSPost2010Prop57
140
1.0
102
RTVSPost2010PropOp57
 70
     1
  0
XRECORD
  5
25B
102
{ACAD_REACTORS
330
25A
102
}
330
25A
100
AcDbXrecord
280
     1
102
RTVSPost2010Prop28
280
     0
102
RTVSPost2010PropOp28
 70
     1
102
RTVSPost2010Prop29
280
     1
102
RTVSPost2010PropOp29
 70
     1
102
RTVSPost2010Prop30
280
     1
102
RTVSPost2010PropOp30
 70
     1
102
RTVSPost2010Prop31
280
     0
102
RTVSPost2010PropOp31
 70
     1
102
RTVSPost2010Prop32
280
     0
102
RTVSPost2010PropOp32
 70
     1
102
RTVSPost2010Prop33
280
     0
102
RTVSPost2010PropOp33
 70
     1
102
RTVSPost2010Prop34
280
     0
102
RTVSPost2010PropOp34
 70
     1
102
RTVSPost2010Prop35
280
     0
102
RTVSPost2010PropOp35
 70
     1
102
RTVSPost2010Prop36
280
     0
102
RTVSPost2010PropOp36
 70
     1
102
RTVSPost2010Prop37
 90
       50
102
RTVSPost2010PropOp37
 70
     1
102
RTVSPost2010Prop38
140
0.0
102
RTVSPost2010PropOp38
 70
     1
102
RTVSPost2010Prop39
140
1.0
102
RTVSPost2010PropOp39
 70
     1
102
RTVSPost2010Prop40
 90
        0
102
RTVSPost2010PropOp40
 70
     1
102
RTVSPost2010Prop41ColorIndex
 90
       18
102
RTVSPost2010Prop41ColorRGB
 90
        0
102
RTVSPost2010PropOp41
 70
     1
102
RTVSPost2010Prop42
 90
       50
102
RTVSPost2010PropOp42
 70
     1
102
RTVSPost2010Prop43
 90
        3
102
RTVSPost2010PropOp43
 70
     1
102
RTVSPost2010Prop44ColorIndex
 90
        5
102
RTVSPost2010Prop44ColorRGB
 90
      255
102
RTVSPost2010PropOp44
 70
     1
102
RTVSPost2010Prop45
280
     0
102
RTVSPost2010PropOp45
 70
     1
102
RTVSPost2010Prop46
 90
       50
102
RTVSPost2010PropOp46
 70
     1
102
RTVSPost2010Prop47
 90
       50
102
RTVSPost2010PropOp47
 70
     1
102
RTVSPost2010Prop48
 90
       50
102
RTVSPost2010PropOp48
 70
     1
102
RTVSPost2010Prop49
280
     0
102
RTVSPost2010PropOp49
 70
     1
102
RTVSPost2010Prop50
 90
       50
102
RTVSPost2010PropOp50
 70
     1
102
RTVSPost2010Prop51ColorIndex
 90
      256
102
RTVSPost2010Prop51ColorRGB
 90
-16777216
102
RTVSPost2010PropOp51
 70
     0
102
RTVSPost2010Prop52
140
1.0
102
RTVSPost2010PropOp52
 70
     0
102
RTVSPost2010Prop53
 90
        2
102
RTVSPost2010PropOp53
 70
     1
102
RTVSPost2010Prop54
  1
strokes_ogs.tif
102
RTVSPost2010PropOp54
 70
     1
102
RTVSPost2010Prop55
280
     0
102
RTVSPost2010PropOp55
 70
     1
102
RTVSPost2010Prop56
140
1.0
102
RTVSPost2010PropOp56
 70
     1
102
RTVSPost2010Prop57
140
1.0
102
RTVSPost2010PropOp57
 70
     1
  0
XRECORD
  5
25D
102
{ACAD_REACTORS
330
25C
102
}
330
25C
100
AcDbXrecord
280
     1
102
RTVSPost2010Prop28
280
     0
102
RTVSPost2010PropOp28
 70
     1
102
RTVSPost2010Prop29
280
     1
102
RTVSPost2010PropOp29
 70
     1
102
RTVSPost2010Prop30
280
     1
102
RTVSPost2010PropOp30
 70
     1
102
RTVSPost2010Prop31
280
     0
102
RTVSPost2010PropOp31
 70
     1
102
RTVSPost2010Prop32
280
     0
102
RTVSPost2010PropOp32
 70
     1
102
RTVSPost2010Prop33
280
     0
102
RTVSPost2010PropOp33
 70
     1
102
RTVSPost2010Prop34
280
     0
102
RTVSPost2010PropOp34
 70
     1
102
RTVSPost2010Prop35
280
     0
102
RTVSPost2010PropOp35
 70
     1
102
RTVSPost2010Prop36
280
     0
102
RTVSPost2010PropOp36
 70
     1
102
RTVSPost2010Prop37
 90
       50
102
RTVSPost2010PropOp37
 70
     1
102
RTVSPost2010Prop38
140
0.0
102
RTVSPost2010PropOp38
 70
     1
102
RTVSPost2010Prop39
140
1.0
102
RTVSPost2010PropOp39
 70
     1
102
RTVSPost2010Prop40
 90
        0
102
RTVSPost2010PropOp40
 70
     1
102
RTVSPost2010Prop41ColorIndex
 90
       18
102
RTVSPost2010Prop41ColorRGB
 90
        0
102
RTVSPost2010PropOp41
 70
     1
102
RTVSPost2010Prop42
 90
       50
102
RTVSPost2010PropOp42
 70
     1
102
RTVSPost2010Prop43
 90
        3
102
RTVSPost2010PropOp43
 70
     1
102
RTVSPost2010Prop44ColorIndex
 90
        5
102
RTVSPost2010Prop44ColorRGB
 90
      255
102
RTVSPost2010PropOp44
 70
     1
102
RTVSPost2010Prop45
280
     0
102
RTVSPost2010PropOp45
 70
     1
102
RTVSPost2010Prop46
 90
       50
102
RTVSPost2010PropOp46
 70
     1
102
RTVSPost2010Prop47
 90
       50
102
RTVSPost2010PropOp47
 70
     1
102
RTVSPost2010Prop48
 90
       50
102
RTVSPost2010PropOp48
 70
     1
102
RTVSPost2010Prop49
280
     0
102
RTVSPost2010PropOp49
 70
     1
102
RTVSPost2010Prop50
 90
       50
102
RTVSPost2010PropOp50
 70
     1
102
RTVSPost2010Prop51ColorIndex
 90
      256
102
RTVSPost2010Prop51ColorRGB
 90
-16777216
102
RTVSPost2010PropOp51
 70
     0
102
RTVSPost2010Prop52
140
1.0
102
RTVSPost2010PropOp52
 70
     0
102
RTVSPost2010Prop53
 90
        2
102
RTVSPost2010PropOp53
 70
     1
102
RTVSPost2010Prop54
  1
strokes_ogs.tif
102
RTVSPost2010PropOp54
 70
     1
102
RTVSPost2010Prop55
280
     0
102
RTVSPost2010PropOp55
 70
     1
102
RTVSPost2010Prop56
140
1.0
102
RTVSPost2010PropOp56
 70
     1
102
RTVSPost2010Prop57
140
1.0
102
RTVSPost2010PropOp57
 70
     1
  0
XRECORD
  5
253
102
{ACAD_REACTORS
330
252
102
}
330
252
100
AcDbXrecord
280
     1
102
RTVSPost2010Prop28
280
     0
102
RTVSPost2010PropOp28
 70
     1
102
RTVSPost2010Prop29
280
     1
102
RTVSPost2010PropOp29
 70
     1
102
RTVSPost2010Prop30
280
     1
102
RTVSPost2010PropOp30
 70
     1
102
RTVSPost2010Prop31
280
     0
102
RTVSPost2010PropOp31
 70
     1
102
RTVSPost2010Prop32
280
     0
102
RTVSPost2010PropOp32
 70
     1
102
RTVSPost2010Prop33
280
     0
102
RTVSPost2010PropOp33
 70
     1
102
RTVSPost2010Prop34
280
     0
102
RTVSPost2010PropOp34
 70
     1
102
RTVSPost2010Prop35
280
     0
102
RTVSPost2010PropOp35
 70
     1
102
RTVSPost2010Prop36
280
     0
102
RTVSPost2010PropOp36
 70
     1
102
RTVSPost2010Prop37
 90
       50
102
RTVSPost2010PropOp37
 70
     1
102
RTVSPost2010Prop38
140
0.0
102
RTVSPost2010PropOp38
 70
     1
102
RTVSPost2010Prop39
140
1.0
102
RTVSPost2010PropOp39
 70
     1
102
RTVSPost2010Prop40
 90
        0
102
RTVSPost2010PropOp40
 70
     1
102
RTVSPost2010Prop41ColorIndex
 90
       18
102
RTVSPost2010Prop41ColorRGB
 90
        0
102
RTVSPost2010PropOp41
 70
     1
102
RTVSPost2010Prop42
 90
       50
102
RTVSPost2010PropOp42
 70
     1
102
RTVSPost2010Prop43
 90
        3
102
RTVSPost2010PropOp43
 70
     1
102
RTVSPost2010Prop44ColorIndex
 90
        5
102
RTVSPost2010Prop44ColorRGB
 90
      255
102
RTVSPost2010PropOp44
 70
     1
102
RTVSPost2010Prop45
280
     0
102
RTVSPost2010PropOp45
 70
     1
102
RTVSPost2010Prop46
 90
       50
102
RTVSPost2010PropOp46
 70
     1
102
RTVSPost2010Prop47
 90
       50
102
RTVSPost2010PropOp47
 70
     1
102
RTVSPost2010Prop48
 90
       50
102
RTVSPost2010PropOp48
 70
     1
102
RTVSPost2010Prop49
280
     0
102
RTVSPost2010PropOp49
 70
     1
102
RTVSPost2010Prop50
 90
       50
102
RTVSPost2010PropOp50
 70
     1
102
RTVSPost2010Prop51ColorIndex
 90
      256
102
RTVSPost2010Prop51ColorRGB
 90
-16777216
102
RTVSPost2010PropOp51
 70
     0
102
RTVSPost2010Prop52
140
1.0
102
RTVSPost2010PropOp52
 70
     0
102
RTVSPost2010Prop53
 90
        2
102
RTVSPost2010PropOp53
 70
     1
102
RTVSPost2010Prop54
  1
strokes_ogs.tif
102
RTVSPost2010PropOp54
 70
     1
102
RTVSPost2010Prop55
280
     0
102
RTVSPost2010PropOp55
 70
     1
102
RTVSPost2010Prop56
140
1.0
102
RTVSPost2010PropOp56
 70
     1
102
RTVSPost2010Prop57
140
1.0
102
RTVSPost2010PropOp57
 70
     1
  0
XRECORD
  5
247
102
{ACAD_REACTORS
330
246
102
}
330
246
100
AcDbXrecord
280
     1
102
RTVSPost2010Prop28
280
     0
102
RTVSPost2010PropOp28
 70
     1
102
RTVSPost2010Prop29
280
     1
102
RTVSPost2010PropOp29
 70
     1
102
RTVSPost2010Prop30
280
     1
102
RTVSPost2010PropOp30
 70
     1
102
RTVSPost2010Prop31
280
     0
102
RTVSPost2010PropOp31
 70
     1
102
RTVSPost2010Prop32
280
     0
102
RTVSPost2010PropOp32
 70
     1
102
RTVSPost2010Prop33
280
     0
102
RTVSPost2010PropOp33
 70
     1
102
RTVSPost2010Prop34
280
     0
102
RTVSPost2010PropOp34
 70
     1
102
RTVSPost2010Prop35
280
     0
102
RTVSPost2010PropOp35
 70
     1
102
RTVSPost2010Prop36
280
     0
102
RTVSPost2010PropOp36
 70
     1
102
RTVSPost2010Prop37
 90
       50
102
RTVSPost2010PropOp37
 70
     1
102
RTVSPost2010Prop38
140
0.0
102
RTVSPost2010PropOp38
 70
     1
102
RTVSPost2010Prop39
140
1.0
102
RTVSPost2010PropOp39
 70
     1
102
RTVSPost2010Prop40
 90
        0
102
RTVSPost2010PropOp40
 70
     1
102
RTVSPost2010Prop41ColorIndex
 90
       18
102
RTVSPost2010Prop41ColorRGB
 90
        0
102
RTVSPost2010PropOp41
 70
     1
102
RTVSPost2010Prop42
 90
       50
102
RTVSPost2010PropOp42
 70
     1
102
RTVSPost2010Prop43
 90
        3
102
RTVSPost2010PropOp43
 70
     1
102
RTVSPost2010Prop44ColorIndex
 90
        5
102
RTVSPost2010Prop44ColorRGB
 90
      255
102
RTVSPost2010PropOp44
 70
     1
102
RTVSPost2010Prop45
280
     0
102
RTVSPost2010PropOp45
 70
     1
102
RTVSPost2010Prop46
 90
       50
102
RTVSPost2010PropOp46
 70
     1
102
RTVSPost2010Prop47
 90
       50
102
RTVSPost2010PropOp47
 70
     1
102
RTVSPost2010Prop48
 90
       50
102
RTVSPost2010PropOp48
 70
     1
102
RTVSPost2010Prop49
280
     0
102
RTVSPost2010PropOp49
 70
     1
102
RTVSPost2010Prop50
 90
       50
102
RTVSPost2010PropOp50
 70
     1
102
RTVSPost2010Prop51ColorIndex
 90
      256
102
RTVSPost2010Prop51ColorRGB
 90
-16777216
102
RTVSPost2010PropOp51
 70
     0
102
RTVSPost2010Prop52
140
1.0
102
RTVSPost2010PropOp52
 70
     0
102
RTVSPost2010Prop53
 90
        2
102
RTVSPost2010PropOp53
 70
     1
102
RTVSPost2010Prop54
  1
strokes_ogs.tif
102
RTVSPost2010PropOp54
 70
     1
102
RTVSPost2010Prop55
280
     0
102
RTVSPost2010PropOp55
 70
     1
102
RTVSPost2010Prop56
140
1.0
102
RTVSPost2010PropOp56
 70
     1
102
RTVSPost2010Prop57
140
1.0
102
RTVSPost2010PropOp57
 70
     1
  0
XRECORD
  5
25F
102
{ACAD_REACTORS
330
25E
102
}
330
25E
100
AcDbXrecord
280
     1
102
RTVSPost2010Prop28
280
     0
102
RTVSPost2010PropOp28
 70
     1
102
RTVSPost2010Prop29
280
     1
102
RTVSPost2010PropOp29
 70
     1
102
RTVSPost2010Prop30
280
     1
102
RTVSPost2010PropOp30
 70
     1
102
RTVSPost2010Prop31
280
     0
102
RTVSPost2010PropOp31
 70
     1
102
RTVSPost2010Prop32
280
     0
102
RTVSPost2010PropOp32
 70
     1
102
RTVSPost2010Prop33
280
     0
102
RTVSPost2010PropOp33
 70
     1
102
RTVSPost2010Prop34
280
     0
102
RTVSPost2010PropOp34
 70
     1
102
RTVSPost2010Prop35
280
     0
102
RTVSPost2010PropOp35
 70
     1
102
RTVSPost2010Prop36
280
     0
102
RTVSPost2010PropOp36
 70
     1
102
RTVSPost2010Prop37
 90
       50
102
RTVSPost2010PropOp37
 70
     1
102
RTVSPost2010Prop38
140
0.0
102
RTVSPost2010PropOp38
 70
     1
102
RTVSPost2010Prop39
140
1.0
102
RTVSPost2010PropOp39
 70
     1
102
RTVSPost2010Prop40
 90
        0
102
RTVSPost2010PropOp40
 70
     1
102
RTVSPost2010Prop41ColorIndex
 90
       18
102
RTVSPost2010Prop41ColorRGB
 90
        0
102
RTVSPost2010PropOp41
 70
     1
102
RTVSPost2010Prop42
 90
       50
102
RTVSPost2010PropOp42
 70
     1
102
RTVSPost2010Prop43
 90
        3
102
RTVSPost2010PropOp43
 70
     1
102
RTVSPost2010Prop44ColorIndex
 90
        5
102
RTVSPost2010Prop44ColorRGB
 90
      255
102
RTVSPost2010PropOp44
 70
     1
102
RTVSPost2010Prop45
280
     0
102
RTVSPost2010PropOp45
 70
     1
102
RTVSPost2010Prop46
 90
       50
102
RTVSPost2010PropOp46
 70
     1
102
RTVSPost2010Prop47
 90
       50
102
RTVSPost2010PropOp47
 70
     1
102
RTVSPost2010Prop48
 90
       50
102
RTVSPost2010PropOp48
 70
     1
102
RTVSPost2010Prop49
280
     0
102
RTVSPost2010PropOp49
 70
     1
102
RTVSPost2010Prop50
 90
       50
102
RTVSPost2010PropOp50
 70
     1
102
RTVSPost2010Prop51ColorIndex
 90
      256
102
RTVSPost2010Prop51ColorRGB
 90
-16777216
102
RTVSPost2010PropOp51
 70
     0
102
RTVSPost2010Prop52
140
1.0
102
RTVSPost2010PropOp52
 70
     0
102
RTVSPost2010Prop53
 90
        2
102
RTVSPost2010PropOp53
 70
     1
102
RTVSPost2010Prop54
  1
strokes_ogs.tif
102
RTVSPost2010PropOp54
 70
     1
102
RTVSPost2010Prop55
280
     0
102
RTVSPost2010PropOp55
 70
     1
102
RTVSPost2010Prop56
140
1.0
102
RTVSPost2010PropOp56
 70
     1
102
RTVSPost2010Prop57
140
1.0
102
RTVSPost2010PropOp57
 70
     1
  0
ENDSEC
  0
EOF
