  0
SECTION
  2
HEADER
  9
$ACADVER
  1
AC1024
  9
$ACADMAINTVER
 70
   155
  9
$DWGCODEPAGE
  3
ANSI_1252
  9
$INSBASE
 10
0.0
 20
0.0
 30
0.0
  9
$EXTMIN
 10
1.000000000000000E+20
 20
1.000000000000000E+20
 30
1.000000000000000E+20
  9
$EXTMAX
 10
-1.000000000000000E+20
 20
-1.000000000000000E+20
 30
-1.000000000000000E+20
  9
$LIMMIN
 10
0.0
 20
0.0
  9
$LIMMAX
 10
12.0
 20
9.0
  9
$ORTHOMODE
 70
     0
  9
$REGENMODE
 70
     1
  9
$FILLMODE
 70
     1
  9
$QTEXTMODE
 70
     0
  9
$MIRRTEXT
 70
     1
  9
$LTSCALE
 40
1.0
  9
$ATTMODE
 70
     1
  9
$TEXTSIZE
 40
0.2
  9
$TRACEWID
 40
0.05
  9
$TEXTSTYLE
  7
Standard
  9
$CLAYER
  8
0
  9
$CELTYPE
  6
ByLayer
  9
$CECOLOR
 62
   256
  9
$CELTSCALE
 40
1.0
  9
$DISPSILH
 70
     0
  9
$DIMSCALE
 40
1.0
  9
$DIMASZ
 40
0.18
  9
$DIMEXO
 40
0.0625
  9
$DIMDLI
 40
0.38
  9
$DIMRND
 40
0.0
  9
$DIMDLE
 40
0.0
  9
$DIMEXE
 40
0.18
  9
$DIMTP
 40
0.0
  9
$DIMTM
 40
0.0
  9
$DIMTXT
 40
0.18
  9
$DIMCEN
 40
0.09
  9
$DIMTSZ
 40
0.0
  9
$DIMTOL
 70
     0
  9
$DIMLIM
 70
     0
  9
$DIMTIH
 70
     1
  9
$DIMTOH
 70
     1
  9
$DIMSE1
 70
     0
  9
$DIMSE2
 70
     0
  9
$DIMTAD
 70
     0
  9
$DIMZIN
 70
     0
  9
$DIMBLK
  1

  9
$DIMASO
 70
     1
  9
$DIMSHO
 70
     1
  9
$DIMPOST
  1

  9
$DIMAPOST
  1

  9
$DIMALT
 70
     0
  9
$DIMALTD
 70
     2
  9
$DIMALTF
 40
25.4
  9
$DIMLFAC
 40
1.0
  9
$DIMTOFL
 70
     0
  9
$DIMTVP
 40
0.0
  9
$DIMTIX
 70
     0
  9
$DIMSOXD
 70
     0
  9
$DIMSAH
 70
     0
  9
$DIMBLK1
  1

  9
$DIMBLK2
  1

  9
$DIMSTYLE
  2
Standard
  9
$DIMCLRD
 70
     0
  9
$DIMCLRE
 70
     0
  9
$DIMCLRT
 70
     0
  9
$DIMTFAC
 40
1.0
  9
$DIMGAP
 40
0.09
  9
$DIMJUST
 70
     0
  9
$DIMSD1
 70
     0
  9
$DIMSD2
 70
     0
  9
$DIMTOLJ
 70
     1
  9
$DIMTZIN
 70
     0
  9
$DIMALTZ
 70
     0
  9
$DIMALTTZ
 70
     0
  9
$DIMUPT
 70
     0
  9
$DIMDEC
 70
     4
  9
$DIMTDEC
 70
     4
  9
$DIMALTU
 70
     2
  9
$DIMALTTD
 70
     2
  9
$DIMTXSTY
  7
Standard
  9
$DIMAUNIT
 70
     0
  9
$DIMADEC
 70
     0
  9
$DIMALTRND
 40
0.0
  9
$DIMAZIN
 70
     0
  9
$DIMDSEP
 70
    46
  9
$DIMATFIT
 70
     3
  9
$DIMFRAC
 70
     0
  9
$DIMLDRBLK
  1

  9
$DIMLUNIT
 70
     2
  9
$DIMLWD
 70
    -2
  9
$DIMLWE
 70
    -2
  9
$DIMTMOVE
 70
     0
  9
$DIMFXL
 40
1.0
  9
$DIMFXLON
 70
     0
  9
$DIMJOGANG
 40
0.7853981633974483
  9
$DIMTFILL
 70
     0
  9
$DIMTFILLCLR
 70
     0
  9
$DIMARCSYM
 70
     0
  9
$DIMLTYPE
  6

  9
$DIMLTEX1
  6

  9
$DIMLTEX2
  6

  9
$DIMTXTDIRECTION
 70
     0
  9
$LUNITS
 70
     2
  9
$LUPREC
 70
     4
  9
$SKETCHINC
 40
0.1
  9
$FILLETRAD
 40
0.5
  9
$AUNITS
 70
     0
  9
$AUPREC
 70
     0
  9
$MENU
  1
.
  9
$ELEVATION
 40
0.0
  9
$PELEVATION
 40
0.0
  9
$THICKNESS
 40
0.0
  9
$LIMCHECK
 70
     0
  9
$CHAMFERA
 40
0.5
  9
$CHAMFERB
 40
0.5
  9
$CHAMFERC
 40
1.0
  9
$CHAMFERD
 40
0.0
  9
$SKPOLY
 70
     0
  9
$TDCREATE
 40
2451380.888765729
  9
$TDUCREATE
 40
2451380.805432396
  9
$TDUPDATE
 40
2451380.924513889
  9
$TDUUPDATE
 40
2451380.841180556
  9
$TDINDWG
 40
0.0075617130
  9
$TDUSRTIMER
 40
0.0075526736
  9
$USRTIMER
 70
     1
  9
$ANGBASE
 50
0.0
  9
$ANGDIR
 70
     0
  9
$PDMODE
 70
     0
  9
$PDSIZE
 40
0.0
  9
$PLINEWID
 40
0.0
  9
$SPLFRAME
 70
     0
  9
$SPLINETYPE
 70
     6
  9
$SPLINESEGS
 70
     8
  9
$HANDSEED
  5
26B
  9
$SURFTAB1
 70
     6
  9
$SURFTAB2
 70
     6
  9
$SURFTYPE
 70
     6
  9
$SURFU
 70
     6
  9
$SURFV
 70
     6
  9
$UCSBASE
  2

  9
$UCSNAME
  2

  9
$UCSORG
 10
0.0
 20
0.0
 30
0.0
  9
$UCSXDIR
 10
1.0
 20
0.0
 30
0.0
  9
$UCSYDIR
 10
0.0
 20
1.0
 30
0.0
  9
$UCSORTHOREF
  2

  9
$UCSORTHOVIEW
 70
     0
  9
$UCSORGTOP
 10
0.0
 20
0.0
 30
0.0
  9
$UCSORGBOTTOM
 10
0.0
 20
0.0
 30
0.0
  9
$UCSORGLEFT
 10
0.0
 20
0.0
 30
0.0
  9
$UCSORGRIGHT
 10
0.0
 20
0.0
 30
0.0
  9
$UCSORGFRONT
 10
0.0
 20
0.0
 30
0.0
  9
$UCSORGBACK
 10
0.0
 20
0.0
 30
0.0
  9
$PUCSBASE
  2

  9
$PUCSNAME
  2

  9
$PUCSORG
 10
0.0
 20
0.0
 30
0.0
  9
$PUCSXDIR
 10
1.0
 20
0.0
 30
0.0
  9
$PUCSYDIR
 10
0.0
 20
1.0
 30
0.0
  9
$PUCSORTHOREF
  2

  9
$PUCSORTHOVIEW
 70
     0
  9
$PUCSORGTOP
 10
0.0
 20
0.0
 30
0.0
  9
$PUCSORGBOTTOM
 10
0.0
 20
0.0
 30
0.0
  9
$PUCSORGLEFT
 10
0.0
 20
0.0
 30
0.0
  9
$PUCSORGRIGHT
 10
0.0
 20
0.0
 30
0.0
  9
$PUCSORGFRONT
 10
0.0
 20
0.0
 30
0.0
  9
$PUCSORGBACK
 10
0.0
 20
0.0
 30
0.0
  9
$USERI1
 70
     0
  9
$USERI2
 70
     0
  9
$USERI3
 70
     0
  9
$USERI4
 70
     0
  9
$USERI5
 70
     0
  9
$USERR1
 40
0.0
  9
$USERR2
 40
0.0
  9
$USERR3
 40
0.0
  9
$USERR4
 40
0.0
  9
$USERR5
 40
0.0
  9
$WORLDVIEW
 70
     1
  9
$SHADEDGE
 70
     3
  9
$SHADEDIF
 70
    70
  9
$TILEMODE
 70
     1
  9
$MAXACTVP
 70
    64
  9
$PINSBASE
 10
0.0
 20
0.0
 30
0.0
  9
$PLIMCHECK
 70
     0
  9
$PEXTMIN
 10
1.000000000000000E+20
 20
1.000000000000000E+20
 30
1.000000000000000E+20
  9
$PEXTMAX
 10
-1.000000000000000E+20
 20
-1.000000000000000E+20
 30
-1.000000000000000E+20
  9
$PLIMMIN
 10
0.0
 20
0.0
  9
$PLIMMAX
 10
12.0
 20
9.0
  9
$UNITMODE
 70
     0
  9
$VISRETAIN
 70
     1
  9
$PLINEGEN
 70
     0
  9
$PSLTSCALE
 70
     1
  9
$TREEDEPTH
 70
  3020
  9
$CMLSTYLE
  2
Standard
  9
$CMLJUST
 70
     0
  9
$CMLSCALE
 40
1.0
  9
$PROXYGRAPHICS
 70
     1
  9
$MEASUREMENT
 70
     1
  9
$CELWEIGHT
370
    -1
  9
$ENDCAPS
280
     0
  9
$JOINSTYLE
280
     0
  9
$LWDISPLAY
290
     0
  9
$INSUNITS
 70
     4
  9
$HYPERLINKBASE
  1

  9
$STYLESHEET
  1

  9
$XEDIT
290
     1
  9
$CEPSNTYPE
380
     0
  9
$PSTYLEMODE
290
     1
  9
$FINGERPRINTGUID
  2
{12F50282-3ED8-11D3-A8B7-0060B0F84BC6}
  9
$VERSIONGUID
  2
{12F50293-3ED8-11D3-A8B7-0060B0F84BC6}
  9
$EXTNAMES
290
     1
  9
$PSVPSCALE
 40
0.0
  9
$OLESTARTUP
290
     0
  9
$SORTENTS
280
   127
  9
$INDEXCTL
280
     0
  9
$HIDETEXT
280
     0
  9
$XCLIPFRAME
280
     2
  9
$HALOGAP
280
     0
  9
$OBSCOLOR
 70
   257
  9
$OBSLTYPE
280
     0
  9
$INTERSECTIONDISPLAY
280
     0
  9
$INTERSECTIONCOLOR
 70
   257
  9
$DIMASSOC
280
     1
  9
$PROJECTNAME
  1

  9
$CAMERADISPLAY
290
     0
  9
$LENSLENGTH
 40
50.0
  9
$CAMERAHEIGHT
 40
0.0
  9
$STEPSPERSEC
 40
2.0
  9
$STEPSIZE
 40
6.0
  9
$3DDWFPREC
 40
2.0
  9
$PSOLWIDTH
 40
0.25
  9
$PSOLHEIGHT
 40
4.0
  9
$LOFTANG1
 40
1.570796326794896
  9
$LOFTANG2
 40
1.570796326794896
  9
$LOFTMAG1
 40
0.0
  9
$LOFTMAG2
 40
0.0
  9
$LOFTPARAM
 70
     7
  9
$LOFTNORMALS
280
     1
  9
$LATITUDE
 40
37.795
  9
$LONGITUDE
 40
-122.394
  9
$NORTHDIRECTION
 40
0.0
  9
$TIMEZONE
 70
 -8000
  9
$LIGHTGLYPHDISPLAY
280
     1
  9
$TILEMODELIGHTSYNCH
280
     1
  9
$CMATERIAL
347
AB
  9
$SOLIDHIST
280
     0
  9
$SHOWHIST
280
     1
  9
$DWFFRAME
280
     2
  9
$DGNFRAME
280
     0
  9
$REALWORLDSCALE
290
     1
  9
$INTERFERECOLOR
 62
     1
  9
$INTERFEREOBJVS
345
CD
  9
$INTERFEREVPVS
346
CA
  9
$CSHADOW
280
     0
  9
$SHADOWPLANELOCATION
 40
0.0
  0
ENDSEC
  0
SECTION
  2
CLASSES
  0
CLASS
  1
ACDBDICTIONARYWDFLT
  2
AcDbDictionaryWithDefault
  3
ObjectDBX Classes
 90
        0
 91
        1
280
     0
281
     0
  0
CLASS
  1
ACDBPLACEHOLDER
  2
AcDbPlaceHolder
  3
ObjectDBX Classes
 90
        0
 91
        2
280
     0
281
     0
  0
CLASS
  1
LAYOUT
  2
AcDbLayout
  3
ObjectDBX Classes
 90
        0
 91
        3
280
     0
281
     0
  0
CLASS
  1
MATERIAL
  2
AcDbMaterial
  3
ObjectDBX Classes
 90
     1153
 91
        3
280
     0
281
     0
  0
CLASS
  1
VISUALSTYLE
  2
AcDbVisualStyle
  3
ObjectDBX Classes
 90
     4095
 91
       24
280
     0
281
     0
  0
CLASS
  1
TABLESTYLE
  2
AcDbTableStyle
  3
ObjectDBX Classes
 90
     4095
 91
        1
280
     0
281
     0
  0
CLASS
  1
SCALE
  2
AcDbScale
  3
ObjectDBX Classes
 90
     1153
 91
       17
280
     0
281
     0
  0
CLASS
  1
MLEADERSTYLE
  2
AcDbMLeaderStyle
  3
ACDB_MLEADERSTYLE_CLASS
 90
     4095
 91
        1
280
     0
281
     0
  0
CLASS
  1
ACDBSECTIONVIEWSTYLE
  2
AcDbSectionViewStyle
  3
ObjectDBX Classes
 90
     1025
 91
        1
280
     0
281
     0
  0
CLASS
  1
ACDBDETAILVIEWSTYLE
  2
AcDbDetailViewStyle
  3
ObjectDBX Classes
 90
     1025
 91
        1
280
     0
281
     0
  0
CLASS
  1
DICTIONARYVAR
  2
AcDbDictionaryVar
  3
ObjectDBX Classes
 90
        0
 91
        9
280
     0
281
     0
  0
CLASS
  1
CELLSTYLEMAP
  2
AcDbCellStyleMap
  3
ObjectDBX Classes
 90
     1152
 91
        1
280
     0
281
     0
  0
ENDSEC
  0
SECTION
  2
TABLES
  0
TABLE
  2
VPORT
  5
8
330
0
100
AcDbSymbolTable
 70
     1
  0
VPORT
  5
A8
330
8
100
AcDbSymbolTableRecord
100
AcDbViewportTableRecord
  2
*Active
 70
     0
 10
0.0
 20
0.0
 11
1.0
 21
1.0
 12
-5.879185676574707
 22
49.13624572753906
 13
0.0
 23
0.0
 14
0.5
 24
0.5
 15
0.5
 25
0.5
 16
-1.0
 26
-1.0
 36
1.0
 17
0.0
 27
0.0
 37
0.0
 40
139.8853006038401
 41
0.1084934739617011
 42
50.0
 43
0.0
 44
0.0
 50
0.0
 51
0.0
 71
     0
 72
   100
 73
     1
 74
     3
 75
     0
 76
     0
 77
     0
 78
     0
281
     0
 65
     1
110
0.0
120
0.0
130
0.0
111
1.0
121
0.0
131
0.0
112
0.0
122
1.0
132
0.0
 79
     0
146
0.0
348
C9
 60
     3
 61
     5
292
     1
282
     1
141
0.0
142
0.0
 63
   250
421
  3355443
  0
ENDTAB
  0
TABLE
  2
LTYPE
  5
5
330
0
100
AcDbSymbolTable
 70
     1
  0
LTYPE
  5
14
330
5
100
AcDbSymbolTableRecord
100
AcDbLinetypeTableRecord
  2
ByBlock
 70
     0
  3

 72
    65
 73
     0
 40
0.0
  0
LTYPE
  5
15
330
5
100
AcDbSymbolTableRecord
100
AcDbLinetypeTableRecord
  2
ByLayer
 70
     0
  3

 72
    65
 73
     0
 40
0.0
  0
LTYPE
  5
16
330
5
100
AcDbSymbolTableRecord
100
AcDbLinetypeTableRecord
  2
Continuous
 70
     0
  3
Solid line
 72
    65
 73
     0
 40
0.0
  0
ENDTAB
  0
TABLE
  2
LAYER
  5
2
330
0
100
AcDbSymbolTable
 70
     2
  0
LAYER
  5
10
330
2
100
AcDbSymbolTableRecord
100
AcDbLayerTableRecord
  2
0
 70
     0
 62
   194
420
  5577905
  6
Continuous
370
    -3
390
F
347
BB
  0
LAYER
  5
2B
330
2
100
AcDbSymbolTableRecord
100
AcDbLayerTableRecord
  2
ASHADE
 70
     4
 62
     7
  6
Continuous
370
    -3
390
2D
347
BB
  0
ENDTAB
  0
TABLE
  2
STYLE
  5
3
330
0
100
AcDbSymbolTable
 70
     2
  0
STYLE
  5
11
330
3
100
AcDbSymbolTableRecord
100
AcDbTextStyleTableRecord
  2
Standard
 70
     0
 40
0.0
 41
1.0
 50
0.0
 71
     0
 42
0.2
  3
txt
  4

  0
STYLE
  5
2C
330
3
100
AcDbSymbolTableRecord
100
AcDbTextStyleTableRecord
  2
ASHADE
 70
     0
 40
0.2
 41
1.0
 50
0.0
 71
     0
 42
0.2
  3
simplex
  4

  0
ENDTAB
  0
TABLE
  2
VIEW
  5
6
330
0
100
AcDbSymbolTable
 70
     0
  0
ENDTAB
  0
TABLE
  2
UCS
  5
7
330
0
100
AcDbSymbolTable
 70
     0
  0
ENDTAB
  0
TABLE
  2
APPID
  5
9
330
0
100
AcDbSymbolTable
 70
     6
  0
APPID
  5
12
330
9
100
AcDbSymbolTableRecord
100
AcDbRegAppTableRecord
  2
ACAD
 70
     0
  0
APPID
  5
8F
330
9
100
AcDbSymbolTableRecord
100
AcDbRegAppTableRecord
  2
AVE_RENDER
 70
     0
  0
APPID
  5
90
330
9
100
AcDbSymbolTableRecord
100
AcDbRegAppTableRecord
  2
AVE_ENTITY_MATERIAL
 70
     0
  0
APPID
  5
9C
330
9
100
AcDbSymbolTableRecord
100
AcDbRegAppTableRecord
  2
AVE_FINISH
 70
     0
  0
APPID
  5
9D
330
9
100
AcDbSymbolTableRecord
100
AcDbRegAppTableRecord
  2
AVE_MATERIAL
 70
     0
  0
APPID
  5
9E
330
9
100
AcDbSymbolTableRecord
100
AcDbRegAppTableRecord
  2
AVE_GLOBAL
 70
     0
  0
ENDTAB
  0
TABLE
  2
DIMSTYLE
  5
A
330
0
100
AcDbSymbolTable
 70
     1
100
AcDbDimStyleTable
 71
     0
  0
DIMSTYLE
105
27
330
A
100
AcDbSymbolTableRecord
100
AcDbDimStyleTableRecord
  2
Standard
 70
     0
340
11
  0
ENDTAB
  0
TABLE
  2
BLOCK_RECORD
  5
1
330
0
100
AcDbSymbolTable
 70
     6
  0
BLOCK_RECORD
  5
1F
330
1
100
AcDbSymbolTableRecord
100
AcDbBlockTableRecord
  2
*Model_Space
340
22
 70
     0
280
     1
281
     0
  0
BLOCK_RECORD
  5
1B
330
1
100
AcDbSymbolTableRecord
100
AcDbBlockTableRecord
  2
*Paper_Space
340
1E
 70
     0
280
     1
281
     0
  0
BLOCK_RECORD
  5
23
330
1
100
AcDbSymbolTableRecord
100
AcDbBlockTableRecord
  2
*Paper_Space0
340
26
 70
     0
280
     1
281
     0
  0
BLOCK_RECORD
  5
2E
330
1
100
AcDbSymbolTableRecord
100
AcDbBlockTableRecord
  2
direct
340
0
 70
     0
280
     1
281
     0
  0
BLOCK_RECORD
  5
42
330
1
100
AcDbSymbolTableRecord
100
AcDbBlockTableRecord
  2
overhead
340
0
 70
     0
280
     1
281
     0
  0
BLOCK_RECORD
  5
5F
330
1
100
AcDbSymbolTableRecord
100
AcDbBlockTableRecord
  2
sh_spot
340
0
 70
     0
280
     1
281
     0
  0
BLOCK_RECORD
  5
91
330
1
100
AcDbSymbolTableRecord
100
AcDbBlockTableRecord
  2
AVE_RENDER
340
0
102
{BLKREFS
331
94
331
95
331
96
331
97
331
98
331
99
331
9A
331
9B
102
}
 70
     0
280
     1
281
     0
  0
BLOCK_RECORD
  5
9F
330
1
100
AcDbSymbolTableRecord
100
AcDbBlockTableRecord
  2
AVE_GLOBAL
340
0
102
{BLKREFS
331
A2
102
}
 70
     0
280
     1
281
     0
  0
ENDTAB
  0
ENDSEC
  0
SECTION
  2
BLOCKS
  0
BLOCK
  5
20
330
1F
100
AcDbEntity
  8
0
100
AcDbBlockBegin
  2
*Model_Space
 70
     0
 10
0.0
 20
0.0
 30
0.0
  3
*Model_Space
  1

  0
ENDBLK
  5
21
330
1F
100
AcDbEntity
  8
0
100
AcDbBlockEnd
  0
BLOCK
  5
1C
330
1B
100
AcDbEntity
 67
     1
  8
0
100
AcDbBlockBegin
  2
*Paper_Space
 70
     0
 10
0.0
 20
0.0
 30
0.0
  3
*Paper_Space
  1

  0
ENDBLK
  5
1D
330
1B
100
AcDbEntity
 67
     1
  8
0
100
AcDbBlockEnd
  0
BLOCK
  5
24
330
23
100
AcDbEntity
 67
     1
  8
0
100
AcDbBlockBegin
  2
*Paper_Space0
 70
     0
 10
0.0
 20
0.0
 30
0.0
  3
*Paper_Space0
  1

  0
ENDBLK
  5
25
330
23
100
AcDbEntity
 67
     1
  8
0
100
AcDbBlockEnd
  0
BLOCK
  5
40
330
2E
100
AcDbEntity
  8
0
100
AcDbBlockBegin
  2
direct
 70
     2
 10
0.0
 20
0.0
 30
0.0
  3
direct
  1

  0
ATTDEF
  5
2F
330
2E
100
AcDbEntity
  8
ASHADE
  6
Continuous
 62
     1
100
AcDbText
 10
0.0
 20
-0.1
 30
0.0
 40
0.2
  1

  7
ASHADE
 72
     1
 11
0.0
 21
-0.1
 31
0.0
100
AcDbAttributeDefinition
280
     0
  3
Light Name
  2
SNAME
 70
     0
280
     0
  0
ARC
  5
30
330
2E
100
AcDbEntity
  8
ASHADE
  6
Continuous
 62
     7
100
AcDbCircle
 10
0.0
 20
0.0
 30
0.0
 40
0.3
100
AcDbArc
 50
205.6792886194569
 51
334.3207113805431
  0
ARC
  5
31
330
2E
100
AcDbEntity
  8
ASHADE
  6
Continuous
 62
     7
100
AcDbCircle
 10
0.0
 20
0.0
 30
0.0
 40
0.3
100
AcDbArc
 50
25.67928861945685
 51
154.3207113805431
  0
LINE
  5
32
330
2E
100
AcDbEntity
  8
ASHADE
  6
Continuous
 62
     7
100
AcDbLine
 10
-0.21
 20
0.2142428528562855
 30
0.0
 11
-0.21
 21
0.5
 31
0.0
  0
LINE
  5
33
330
2E
100
AcDbEntity
  8
ASHADE
  6
Continuous
 62
     7
100
AcDbLine
 10
-0.11
 20
0.2791057147390572
 30
0.0
 11
-0.11
 21
0.5
 31
0.0
  0
LINE
  5
34
330
2E
100
AcDbEntity
  8
ASHADE
  6
Continuous
 62
     7
100
AcDbLine
 10
0.21
 20
0.2142428528562855
 30
0.0
 11
0.21
 21
0.5
 31
0.0
  0
ATTDEF
  5
35
330
2E
100
AcDbEntity
  8
ASHADE
  6
Continuous
 62
     7
100
AcDbText
 10
0.0
 20
0.25
 30
0.0
 40
0.01
  1

100
AcDbAttributeDefinition
280
     0
  3
Look-at Y
  2
LAY
 70
     1
280
     0
  0
ATTDEF
  5
36
330
2E
100
AcDbEntity
  8
ASHADE
  6
Continuous
 62
     7
100
AcDbText
 10
0.0
 20
0.22
 30
0.0
 40
0.01
  1
1
100
AcDbAttributeDefinition
280
     0
  3
Light Intensity
  2
INTENSITY
 70
     1
280
     0
  0
ATTDEF
  5
37
330
2E
100
AcDbEntity
  8
ASHADE
  6
Continuous
 62
     7
100
AcDbText
 10
0.0
 20
0.16
 30
0.0
 40
0.01
  1
-1
100
AcDbAttributeDefinition
280
     0
  3
*not used*
  2
BEAMD
 70
     1
280
     0
  0
ATTDEF
  5
38
330
2E
100
AcDbEntity
  8
ASHADE
  6
Continuous
 62
     7
100
AcDbText
 10
0.0
 20
0.175
 30
0.0
 40
0.01
  1
-1
100
AcDbAttributeDefinition
280
     0
  3
*not used*
  2
CONED
 70
     1
280
     0
  0
ATTDEF
  5
39
330
2E
100
AcDbEntity
  8
ASHADE
  6
Continuous
 62
     7
100
AcDbText
 10
0.0
 20
0.19
 30
0.0
 40
0.01
  1
0
100
AcDbAttributeDefinition
280
     0
  3
Depth Map Size
  2
CONEA
 70
     1
280
     0
  0
ATTDEF
  5
3A
330
2E
100
AcDbEntity
  8
ASHADE
  6
Continuous
 62
     7
100
AcDbText
 10
0.0
 20
0.2050000000000001
 30
0.0
 40
0.01
  1
1,1,1
100
AcDbAttributeDefinition
280
     0
  3
Light Color (RGB)
  2
COLOR
 70
     1
280
     0
  0
ATTDEF
  5
3B
330
2E
100
AcDbEntity
  8
ASHADE
  6
Continuous
 62
     7
100
AcDbText
 10
0.0
 20
0.235
 30
0.0
 40
0.01
  1

100
AcDbAttributeDefinition
280
     0
  3
Look-at Z
  2
LAZ
 70
     1
280
     0
  0
LINE
  5
3C
330
2E
100
AcDbEntity
  8
ASHADE
  6
Continuous
 62
     7
100
AcDbLine
 10
0.0
 20
0.3
 30
0.0
 11
0.0
 21
0.5
 31
0.0
  0
LINE
  5
3D
330
2E
100
AcDbEntity
  8
ASHADE
  6
Continuous
 62
     7
100
AcDbLine
 10
0.11
 20
0.2791057147390572
 30
0.0
 11
0.11
 21
0.5
 31
0.0
  0
ATTDEF
  5
3E
330
2E
100
AcDbEntity
  8
ASHADE
  6
Continuous
 62
     7
100
AcDbText
 10
0.0
 20
0.265
 30
0.0
 40
0.01
  1

100
AcDbAttributeDefinition
280
     0
  3
Look-at X
  2
LAX
 70
     1
280
     0
  0
ATTDEF
  5
3F
330
2E
100
AcDbEntity
  8
ASHADE
  6
Continuous
 62
     7
100
AcDbText
 10
0.0
 20
0.28
 30
0.0
 40
0.01
  1

100
AcDbAttributeDefinition
280
     0
  3

  2
GNAME
 70
     1
280
     0
  0
ENDBLK
  5
41
330
2E
100
AcDbEntity
  8
0
100
AcDbBlockEnd
  0
BLOCK
  5
5D
330
42
100
AcDbEntity
  8
0
100
AcDbBlockBegin
  2
overhead
 70
     2
 10
0.0
 20
0.0
 30
0.0
  3
overhead
  1

  0
ATTDEF
  5
43
330
42
100
AcDbEntity
  8
ASHADE
  6
Continuous
 62
     1
100
AcDbText
 10
0.0
 20
-0.1
 30
0.0
 40
0.2
  1

  7
ASHADE
 72
     1
 11
0.0
 21
-0.1
 31
0.0
100
AcDbAttributeDefinition
280
     0
  3
Light Name
  2
SNAME
 70
     0
280
     0
  0
ARC
  5
44
330
42
100
AcDbEntity
  8
ASHADE
  6
Continuous
 62
     7
100
AcDbCircle
 10
0.0
 20
0.0
 30
0.0
 40
0.3
100
AcDbArc
 50
205.6792886194569
 51
334.3207113805431
  0
LINE
  5
45
330
42
100
AcDbEntity
  8
ASHADE
  6
Continuous
 62
     7
100
AcDbLine
 10
-0.2041413561583015
 20
-0.2198324514393848
 30
0.0
 11
-0.2721884748777353
 21
-0.2931099352525131
 31
0.0
  0
LINE
  5
46
330
42
100
AcDbEntity
  8
ASHADE
  6
Continuous
 62
     7
100
AcDbLine
 10
-0.1096591641591904
 20
-0.2792398032442862
 30
0.0
 11
-0.1279356915190555
 21
-0.3257797704516673
 31
0.0
  0
LINE
  5
47
330
42
100
AcDbEntity
  8
ASHADE
  6
Continuous
 62
     7
100
AcDbLine
 10
0.0
 20
-0.2999999999999999
 30
0.0
 11
0.0
 21
-0.4
 31
0.0
  0
LINE
  5
48
330
42
100
AcDbEntity
  8
ASHADE
  6
Continuous
 62
     7
100
AcDbLine
 10
0.1096591641591904
 20
-0.2792398032442862
 30
0.0
 11
0.1279356915190555
 21
-0.3257797704516673
 31
0.0
  0
LINE
  5
49
330
42
100
AcDbEntity
  8
ASHADE
  6
Continuous
 62
     7
100
AcDbLine
 10
0.2041413561583015
 20
-0.2198324514393848
 30
0.0
 11
0.2721884748777353
 21
-0.2931099352525131
 31
0.0
  0
ARC
  5
4A
330
42
100
AcDbEntity
  8
ASHADE
  6
Continuous
 62
     7
100
AcDbCircle
 10
0.0
 20
0.0
 30
0.0
 40
0.3
100
AcDbArc
 50
25.67928861945685
 51
154.3207113805431
  0
LINE
  5
4B
330
42
100
AcDbEntity
  8
ASHADE
  6
Continuous
 62
     7
100
AcDbLine
 10
-0.2703701166919155
 20
0.13
 30
0.0
 11
-0.3154318028072347
 21
0.1516666666666666
 31
0.0
  0
LINE
  5
4C
330
42
100
AcDbEntity
  8
ASHADE
  6
Continuous
 62
     7
100
AcDbLine
 10
-0.2703701166919155
 20
-0.13
 30
0.0
 11
-0.3154318028072347
 21
-0.1516666666666666
 31
0.0
  0
LINE
  5
4D
330
42
100
AcDbEntity
  8
ASHADE
  6
Continuous
 62
     7
100
AcDbLine
 10
-0.2041413561583015
 20
0.2198324514393849
 30
0.0
 11
-0.2721884748777353
 21
0.2931099352525131
 31
0.0
  0
LINE
  5
4E
330
42
100
AcDbEntity
  8
ASHADE
  6
Continuous
 62
     7
100
AcDbLine
 10
-0.1096591641591904
 20
0.2792398032442862
 30
0.0
 11
-0.1279356915190555
 21
0.3257797704516674
 31
0.0
  0
LINE
  5
4F
330
42
100
AcDbEntity
  8
ASHADE
  6
Continuous
 62
     7
100
AcDbLine
 10
0.2703701166919155
 20
-0.13
 30
0.0
 11
0.3154318028072347
 21
-0.1516666666666666
 31
0.0
  0
LINE
  5
50
330
42
100
AcDbEntity
  8
ASHADE
  6
Continuous
 62
     7
100
AcDbLine
 10
0.2703701166919155
 20
0.13
 30
0.0
 11
0.3154318028072347
 21
0.1516666666666666
 31
0.0
  0
LINE
  5
51
330
42
100
AcDbEntity
  8
ASHADE
  6
Continuous
 62
     7
100
AcDbLine
 10
0.0
 20
0.3
 30
0.0
 11
0.0
 21
0.4
 31
0.0
  0
ATTDEF
  5
52
330
42
100
AcDbEntity
  8
ASHADE
  6
Continuous
 62
     7
100
AcDbText
 10
0.0
 20
0.22
 30
0.0
 40
0.01
  1
1
100
AcDbAttributeDefinition
280
     0
  3
Light Intensity
  2
INTENSITY
 70
     1
280
     0
  0
ATTDEF
  5
53
330
42
100
AcDbEntity
  8
ASHADE
  6
Continuous
 62
     7
100
AcDbText
 10
0.0
 20
0.16
 30
0.0
 40
0.01
  1
-1
100
AcDbAttributeDefinition
280
     0
  3
*not used*
  2
BEAMD
 70
     1
280
     0
  0
ATTDEF
  5
54
330
42
100
AcDbEntity
  8
ASHADE
  6
Continuous
 62
     7
100
AcDbText
 10
0.0
 20
0.175
 30
0.0
 40
0.01
  1
-1
100
AcDbAttributeDefinition
280
     0
  3
*not used*
  2
CONED
 70
     1
280
     0
  0
ATTDEF
  5
55
330
42
100
AcDbEntity
  8
ASHADE
  6
Continuous
 62
     7
100
AcDbText
 10
0.0
 20
0.19
 30
0.0
 40
0.01
  1
0
100
AcDbAttributeDefinition
280
     0
  3
Depth Map Size
  2
CONEA
 70
     1
280
     0
  0
ATTDEF
  5
56
330
42
100
AcDbEntity
  8
ASHADE
  6
Continuous
 62
     7
100
AcDbText
 10
0.0
 20
0.2050000000000001
 30
0.0
 40
0.01
  1
1,1,1
100
AcDbAttributeDefinition
280
     0
  3
Light Color (RGB)
  2
COLOR
 70
     1
280
     0
  0
ATTDEF
  5
57
330
42
100
AcDbEntity
  8
ASHADE
  6
Continuous
 62
     7
100
AcDbText
 10
0.0
 20
0.235
 30
0.0
 40
0.01
  1

100
AcDbAttributeDefinition
280
     0
  3
Look-at Z
  2
LAZ
 70
     1
280
     0
  0
ATTDEF
  5
58
330
42
100
AcDbEntity
  8
ASHADE
  6
Continuous
 62
     7
100
AcDbText
 10
0.0
 20
0.25
 30
0.0
 40
0.01
  1

100
AcDbAttributeDefinition
280
     0
  3
Look-at Y
  2
LAY
 70
     1
280
     0
  0
ATTDEF
  5
59
330
42
100
AcDbEntity
  8
ASHADE
  6
Continuous
 62
     7
100
AcDbText
 10
0.0
 20
0.265
 30
0.0
 40
0.01
  1

100
AcDbAttributeDefinition
280
     0
  3
Look-at X
  2
LAX
 70
     1
280
     0
  0
ATTDEF
  5
5A
330
42
100
AcDbEntity
  8
ASHADE
  6
Continuous
 62
     7
100
AcDbText
 10
0.0
 20
0.28
 30
0.0
 40
0.01
  1

100
AcDbAttributeDefinition
280
     0
  3

  2
GNAME
 70
     1
280
     0
  0
LINE
  5
5B
330
42
100
AcDbEntity
  8
ASHADE
  6
Continuous
 62
     7
100
AcDbLine
 10
0.1096591641591904
 20
0.2792398032442862
 30
0.0
 11
0.1279356915190555
 21
0.3257797704516674
 31
0.0
  0
LINE
  5
5C
330
42
100
AcDbEntity
  8
ASHADE
  6
Continuous
 62
     7
100
AcDbLine
 10
0.2041413561583015
 20
0.2198324514393849
 30
0.0
 11
0.2721884748777353
 21
0.2931099352525131
 31
0.0
  0
ENDBLK
  5
5E
330
42
100
AcDbEntity
  8
0
100
AcDbBlockEnd
  0
BLOCK
  5
85
330
5F
100
AcDbEntity
  8
0
100
AcDbBlockBegin
  2
sh_spot
 70
     2
 10
0.0
 20
0.0
 30
0.0
  3
sh_spot
  1

  0
LINE
  5
60
330
5F
100
AcDbEntity
  8
ASHADE
  6
Continuous
 62
     7
100
AcDbLine
 10
0.25
 20
0.26
 30
0.0
 11
-0.25
 21
0.26
 31
0.0
  0
LINE
  5
61
330
5F
100
AcDbEntity
  8
ASHADE
  6
Continuous
 62
     7
100
AcDbLine
 10
-0.25
 20
-0.3399999999999999
 30
0.0
 11
0.25
 21
-0.3399999999999999
 31
0.0
  0
ATTDEF
  5
62
330
5F
100
AcDbEntity
  8
ASHADE
  6
Continuous
 62
     1
100
AcDbText
 10
0.0
 20
-0.1
 30
0.0
 40
0.2
  1

  7
ASHADE
 72
     1
 11
0.0
 21
-0.1
 31
0.0
100
AcDbAttributeDefinition
280
     0
  3
Light Name
  2
SNAME
 70
     0
280
     0
  0
LINE
  5
63
330
5F
100
AcDbEntity
  8
ASHADE
  6
Continuous
 62
     7
100
AcDbLine
 10
-0.25
 20
-0.13
 30
0.0
 11
-0.25
 21
-0.3399999999999999
 31
0.0
  0
LINE
  5
64
330
5F
100
AcDbEntity
  8
ASHADE
  6
Continuous
 62
     7
100
AcDbLine
 10
-0.25
 20
-0.18
 30
0.0
 11
-0.29
 21
-0.18
 31
0.0
  0
LINE
  5
65
330
5F
100
AcDbEntity
  8
ASHADE
  6
Continuous
 62
     7
100
AcDbLine
 10
-0.29
 20
-0.22
 30
0.0
 11
-0.25
 21
-0.22
 31
0.0
  0
LINE
  5
66
330
5F
100
AcDbEntity
  8
ASHADE
  6
Continuous
 62
     7
100
AcDbLine
 10
-0.29
 20
-0.18
 30
0.0
 11
-0.29
 21
-0.22
 31
0.0
  0
LINE
  5
67
330
5F
100
AcDbEntity
  8
ASHADE
  6
Continuous
 62
     7
100
AcDbLine
 10
-0.1045454545454545
 20
0.26
 30
0.0
 11
-0.15
 21
0.46
 31
0.0
  0
LINE
  5
68
330
5F
100
AcDbEntity
  8
ASHADE
  6
Continuous
 62
     7
100
AcDbLine
 10
-0.21
 20
0.26
 30
0.0
 11
-0.301304347826087
 21
0.46
 31
0.0
  0
LINE
  5
69
330
5F
100
AcDbEntity
  8
ASHADE
  6
Continuous
 62
     7
100
AcDbLine
 10
-0.25
 20
0.26
 30
0.0
 11
-0.25
 21
0.13
 31
0.0
  0
LINE
  5
6A
330
5F
100
AcDbEntity
  8
ASHADE
  6
Continuous
 62
     7
100
AcDbLine
 10
-0.25
 20
0.22
 30
0.0
 11
-0.29
 21
0.22
 31
0.0
  0
LINE
  5
6B
330
5F
100
AcDbEntity
  8
ASHADE
  6
Continuous
 62
     7
100
AcDbLine
 10
-0.29
 20
0.1799999999999999
 30
0.0
 11
-0.25
 21
0.1799999999999999
 31
0.0
  0
LINE
  5
6C
330
5F
100
AcDbEntity
  8
ASHADE
  6
Continuous
 62
     7
100
AcDbLine
 10
-0.29
 20
0.22
 30
0.0
 11
-0.29
 21
0.1799999999999999
 31
0.0
  0
ATTDEF
  5
6D
330
5F
100
AcDbEntity
  8
ASHADE
  6
Continuous
 62
     7
100
AcDbText
 10
0.0
 20
-0.24
 30
0.0
 40
0.01
  1
0
100
AcDbAttributeDefinition
280
     0
  3
Depth Map Size
  2
ZSIZE
 70
     1
280
     0
  0
ATTDEF
  5
6E
330
5F
100
AcDbEntity
  8
ASHADE
  6
Continuous
 62
     7
100
AcDbText
 10
0.0
 20
-0.3300000000000001
 30
0.0
 40
0.01
  1
0,0,0
100
AcDbAttributeDefinition
280
     0
  3
Look-from XYZ
  2
LFXYZ
 70
     1
280
     0
  0
ATTDEF
  5
6F
330
5F
100
AcDbEntity
  8
ASHADE
  6
Continuous
 62
     7
100
AcDbText
 10
0.0
 20
-0.315
 30
0.0
 40
0.01
  1
0.0
100
AcDbAttributeDefinition
280
     0
  3
Beam Distribution
  2
BEAMDI
 70
     1
280
     0
  0
ATTDEF
  5
70
330
5F
100
AcDbEntity
  8
ASHADE
  6
Continuous
 62
     7
100
AcDbText
 10
0.0
 20
-0.3
 30
0.0
 40
0.01
  1
0.0
100
AcDbAttributeDefinition
280
     0
  3
Cone Delta
  2
CONEDE
 70
     1
280
     0
  0
ATTDEF
  5
71
330
5F
100
AcDbEntity
  8
ASHADE
  6
Continuous
 62
     7
100
AcDbText
 10
0.0
 20
-0.2850000000000001
 30
0.0
 40
0.01
  1
10.0
100
AcDbAttributeDefinition
280
     0
  3
Cone Angle
  2
CONEAN
 70
     1
280
     0
  0
ATTDEF
  5
72
330
5F
100
AcDbEntity
  8
ASHADE
  6
Continuous
 62
     7
100
AcDbText
 10
0.0
 20
-0.27
 30
0.0
 40
0.01
  1
-1
100
AcDbAttributeDefinition
280
     0
  3
*not used*
  2
BIASMAX
 70
     1
280
     0
  0
ATTDEF
  5
73
330
5F
100
AcDbEntity
  8
ASHADE
  6
Continuous
 62
     7
100
AcDbText
 10
0.0
 20
-0.255
 30
0.0
 40
0.01
  1
-1
100
AcDbAttributeDefinition
280
     0
  3
*not used*
  2
BIASMIN
 70
     1
280
     0
  0
ATTDEF
  5
74
330
5F
100
AcDbEntity
  8
ASHADE
  6
Continuous
 62
     7
100
AcDbText
 10
0.0
 20
-0.225
 30
0.0
 40
0.01
  1
1,1,1
100
AcDbAttributeDefinition
280
     0
  3
Light Color (RGB)
  2
COLOR
 70
     1
280
     0
  0
ATTDEF
  5
75
330
5F
100
AcDbEntity
  8
ASHADE
  6
Continuous
 62
     7
100
AcDbText
 10
0.0
 20
-0.21
 30
0.0
 40
0.01
  1
1
100
AcDbAttributeDefinition
280
     0
  3
Light Intensity
  2
INTENSITY
 70
     1
280
     0
  0
ATTDEF
  5
76
330
5F
100
AcDbEntity
  8
ASHADE
  6
Continuous
 62
     7
100
AcDbText
 10
0.0
 20
-0.15
 30
0.0
 40
0.01
  1

100
AcDbAttributeDefinition
280
     0
  3

  2
GNAME
 70
     1
280
     0
  0
ATTDEF
  5
77
330
5F
100
AcDbEntity
  8
ASHADE
  6
Continuous
 62
     7
100
AcDbText
 10
0.0
 20
-0.195
 30
0.0
 40
0.01
  1

100
AcDbAttributeDefinition
280
     0
  3
Look-at Z
  2
LAZ
 70
     1
280
     0
  0
ATTDEF
  5
78
330
5F
100
AcDbEntity
  8
ASHADE
  6
Continuous
 62
     7
100
AcDbText
 10
0.0
 20
-0.18
 30
0.0
 40
0.01
  1

100
AcDbAttributeDefinition
280
     0
  3
Look-at Y
  2
LAY
 70
     1
280
     0
  0
ATTDEF
  5
79
330
5F
100
AcDbEntity
  8
ASHADE
  6
Continuous
 62
     7
100
AcDbText
 10
0.0
 20
-0.165
 30
0.0
 40
0.01
  1

100
AcDbAttributeDefinition
280
     0
  3
Look-at X
  2
LAX
 70
     1
280
     0
  0
LINE
  5
7A
330
5F
100
AcDbEntity
  8
ASHADE
  6
Continuous
 62
     7
100
AcDbLine
 10
0.25
 20
-0.3399999999999999
 30
0.0
 11
0.25
 21
-0.13
 31
0.0
  0
LINE
  5
7B
330
5F
100
AcDbEntity
  8
ASHADE
  6
Continuous
 62
     7
100
AcDbLine
 10
0.25
 20
-0.18
 30
0.0
 11
0.29
 21
-0.18
 31
0.0
  0
LINE
  5
7C
330
5F
100
AcDbEntity
  8
ASHADE
  6
Continuous
 62
     7
100
AcDbLine
 10
0.29
 20
-0.22
 30
0.0
 11
0.25
 21
-0.22
 31
0.0
  0
LINE
  5
7D
330
5F
100
AcDbEntity
  8
ASHADE
  6
Continuous
 62
     7
100
AcDbLine
 10
0.29
 20
-0.18
 30
0.0
 11
0.29
 21
-0.22
 31
0.0
  0
LINE
  5
7E
330
5F
100
AcDbEntity
  8
ASHADE
  6
Continuous
 62
     7
100
AcDbLine
 10
0.21
 20
0.26
 30
0.0
 11
0.301304347826087
 21
0.46
 31
0.0
  0
LINE
  5
7F
330
5F
100
AcDbEntity
  8
ASHADE
  6
Continuous
 62
     7
100
AcDbLine
 10
0.1045454545454545
 20
0.26
 30
0.0
 11
0.15
 21
0.46
 31
0.0
  0
LINE
  5
80
330
5F
100
AcDbEntity
  8
ASHADE
  6
Continuous
 62
     7
100
AcDbLine
 10
0.0
 20
0.26
 30
0.0
 11
0.0
 21
0.46
 31
0.0
  0
LINE
  5
81
330
5F
100
AcDbEntity
  8
ASHADE
  6
Continuous
 62
     7
100
AcDbLine
 10
0.25
 20
0.13
 30
0.0
 11
0.25
 21
0.26
 31
0.0
  0
LINE
  5
82
330
5F
100
AcDbEntity
  8
ASHADE
  6
Continuous
 62
     7
100
AcDbLine
 10
0.25
 20
0.22
 30
0.0
 11
0.29
 21
0.22
 31
0.0
  0
LINE
  5
83
330
5F
100
AcDbEntity
  8
ASHADE
  6
Continuous
 62
     7
100
AcDbLine
 10
0.29
 20
0.1799999999999999
 30
0.0
 11
0.25
 21
0.1799999999999999
 31
0.0
  0
LINE
  5
84
330
5F
100
AcDbEntity
  8
ASHADE
  6
Continuous
 62
     7
100
AcDbLine
 10
0.29
 20
0.22
 30
0.0
 11
0.29
 21
0.1799999999999999
 31
0.0
  0
ENDBLK
  5
86
330
5F
100
AcDbEntity
  8
0
100
AcDbBlockEnd
  0
BLOCK
  5
92
330
91
100
AcDbEntity
  8
ASHADE
100
AcDbBlockBegin
  2
AVE_RENDER
 70
     0
 10
0.0
 20
0.0
 30
0.0
  3
AVE_RENDER
  1
AVE_RENDER
  0
ENDBLK
  5
93
330
91
100
AcDbEntity
  8
0
100
AcDbBlockEnd
  0
BLOCK
  5
A0
330
9F
100
AcDbEntity
  8
ASHADE
100
AcDbBlockBegin
  2
AVE_GLOBAL
 70
     0
 10
0.0
 20
0.0
 30
0.0
  3
AVE_GLOBAL
  1
AVE_GLOBAL
  0
ENDBLK
  5
A1
330
9F
100
AcDbEntity
  8
0
100
AcDbBlockEnd
  0
ENDSEC
  0
SECTION
  2
ENTITIES
  0
INSERT
  5
94
330
1F
100
AcDbEntity
  8
ASHADE
 62
     1
100
AcDbBlockReference
  2
AVE_RENDER
 10
0.0
 20
0.0
 30
0.0
1001
AVE_RENDER
1002
{
1070
     7
1000
Pref
1070
    30
1070
    20
1070
     1
1070
     0
1000

1070
    10
1070
     1
1070
    10
1040
1.0
1070
     1
1040
0.3
1040
0.7
1040
0.0
1040
10.0
1010
-1.0
1020
-1.0
1030
-1.0
1040
0.3
1070
    49
1070
     0
1070
     0
1010
1.0
1020
1.0
1030
1.0
1040
45.0
1070
     1
1070
     0
1000
WCS
1040
0.0
1070
     0
1040
10.0
1002
}
  0
INSERT
  5
95
330
1F
100
AcDbEntity
  8
ASHADE
 62
     3
100
AcDbBlockReference
  2
AVE_RENDER
 10
0.0
 20
0.0
 30
0.0
1001
AVE_RENDER
1002
{
1070
     0
1000
Full Opt
1070
     0
1070
     1
1070
     1
1070
     1
1070
     0
1070
     0
1070
     0
1070
     1
1070
     1
1040
0.0001
1040
0.0001
1002
}
  0
INSERT
  5
96
330
1F
100
AcDbEntity
  8
ASHADE
 62
     4
100
AcDbBlockReference
  2
AVE_RENDER
 10
0.0
 20
0.0
 30
0.0
1001
AVE_RENDER
1002
{
1070
     0
1000
Quick Opt
1070
     0
1070
     1
1070
     1
1070
     1
1070
     0
1070
     0
1070
     1
1002
}
  0
INSERT
  5
97
330
1F
100
AcDbEntity
  8
ASHADE
 62
     5
100
AcDbBlockReference
  2
AVE_RENDER
 10
0.0
 20
0.0
 30
0.0
1001
AVE_RENDER
1002
{
1070
     1
1000
Scanl Opt
1070
     2
1070
     0
1070
     2
1040
2.0
1040
4.0
1070
     0
1070
     1
1070
     0
1040
0.03
1002
}
  0
INSERT
  5
98
330
1F
100
AcDbEntity
  8
ASHADE
 62
     6
100
AcDbBlockReference
  2
AVE_RENDER
 10
0.0
 20
0.0
 30
0.0
1001
AVE_RENDER
1002
{
1070
     2
1000
Raytr Opt
1070
     2
1070
     0
1070
     2
1040
2.0
1040
4.0
1070
     0
1070
     1
1070
     1
1040
0.03
1070
     3
1040
0.03
1002
}
  0
INSERT
  5
99
330
1F
100
AcDbEntity
  8
ASHADE
 62
     7
100
AcDbBlockReference
  2
AVE_RENDER
 10
0.0
 20
0.0
 30
0.0
1001
AVE_RENDER
1002
{
1070
     0
1000
RFile Opt
1070
     1
1070
   640
1070
   480
1070
 10000
1070
     1
1070
     8
1070
     8
1070
     0
1070
     0
1070
     0
1070
     0
1070
     0
1070
     0
1070
     0
1002
}
  0
INSERT
  5
9A
330
1F
100
AcDbEntity
  8
ASHADE
 62
     8
100
AcDbBlockReference
  2
AVE_RENDER
 10
0.0
 20
0.0
 30
0.0
1001
AVE_RENDER
1002
{
1070
     0
1000
Fog Opt
1070
     0
1070
     0
1040
0.0
1040
1.0
1040
0.0
1040
1.0
1010
0.5
1020
0.5
1030
0.5
1002
}
  0
INSERT
  5
9B
330
1F
100
AcDbEntity
  8
ASHADE
 62
     9
100
AcDbBlockReference
  2
AVE_RENDER
 10
0.0
 20
0.0
 30
0.0
1001
AVE_RENDER
1002
{
1070
     0
1000
BG Opt
1070
     0
1070
     1
1010
0.0
1020
0.0
1030
0.0
1010
1.0
1020
0.0
1030
0.0
1010
0.0
1020
1.0
1030
0.0
1010
0.0
1020
0.0
1030
1.0
1040
0.5
1040
0.33
1040
0.0
1000

1070
     1
1000

1070
     1
1070
     1
1040
1.0
1040
1.0
1040
0.0
1040
0.0
1070
     0
1002
}
  0
INSERT
  5
A2
330
1F
100
AcDbEntity
  8
ASHADE
 62
     1
100
AcDbBlockReference
  2
AVE_GLOBAL
 10
0.0
 20
0.0
 30
0.0
1001
AVE_MATERIAL
1002
{
1000
*GLOBAL*
1000
2
1000
Global finish.
1002
{
1002
}
1002
{
1070
    63
1002
{
1002
{
1010
-1.0
1020
-1.0
1030
-1.0
1002
}
1040
0.1000000014901161
1000

1040
0.0
1002
{
1002
}
1040
0.0
1002
{
1002
}
1040
0.0
1002
}
1002
{
1002
{
1010
-1.0
1020
-1.0
1030
-1.0
1002
}
1040
0.6999999880790711
1000

1040
0.0
1002
{
1002
}
1040
0.0
1002
{
1002
}
1040
0.0
1002
}
1002
{
1002
{
1010
-1.0
1020
-1.0
1030
-1.0
1002
}
1040
0.2000000029802322
1000

1040
0.0
1002
{
1002
}
1040
0.0
1002
{
1002
}
1040
0.0
1002
}
1002
{
1070
     0
1002
{
1070
     1
1002
{
1040
1.0
1040
1.0
1000

1040
0.0
1002
{
1002
}
1040
0.0
1002
{
1002
}
1040
0.0
1002
}
1002
}
1040
1.0
1040
0.0
1040
0.0
1002
}
1002
{
1040
1.0
1040
1.0
1000

1040
0.0
1002
{
1002
}
1040
0.0
1002
{
1002
}
1040
0.0
1002
}
1002
{
1040
0.5
1040
1.0
1000

1040
0.0
1002
{
1002
}
1040
0.0
1002
{
1002
}
1040
0.0
1002
}
1002
{
1070
     0
1040
0.0
1002
{
1002
}
1040
1.0
1002
{
1002
}
1040
0.0
1002
}
1002
{
1040
0.0
1002
{
1002
{
1010
0.0
1020
0.0
1030
0.0
1002
}
1040
1.0
1000

1040
0.0
1002
{
1002
}
1040
0.0
1002
{
1002
}
1040
0.0
1002
}
1002
}
1002
{
1002
{
1070
     1
1002
{
1040
0.0
1040
1.0
1000

1040
0.0
1002
{
1002
}
1040
0.0
1002
{
1002
}
1040
0.0
1002
}
1002
}
1040
0.0
1002
{
1002
}
1010
1.0
1020
0.0
1030
0.0
1010
0.0
1020
1.0
1030
0.0
1010
0.0
1020
0.0
1030
1.0
1070
     0
1002
}
1002
{
1002
{
1040
1.0
1040
1.0
1002
{
1070
     1
1002
{
1040
1.0
1040
1.0
1000

1040
0.0
1002
{
1002
}
1040
0.0
1002
{
1002
}
1040
0.0
1002
}
1002
}
1002
}
1070
     0
1040
0.0
1002
{
1002
}
1002
}
1002
{
1002
}
1002
}
1002
{
1071
        3
1070
     3
1070
     0
1002
{
1070
     2
1070
     0
1070
     0
1040
0.0
1002
}
1070
     0
1070
     2
1002
{
1002
}
1002
}
1002
{
1040
8030.0
1040
190.3000030517578
1040
0.3050000071525574
1040
228.0
1040
545.0
1040
14.0
1040
17.39999961853027
1040
0.4560000002384186
1002
}
1002
}
  0
POLYLINE
  5
F7
330
1F
100
AcDbEntity
  8
0
 62
   251
420
  5658198
100
AcDb3dPolyline
 66
     1
 10
0.0
 20
0.0
 30
0.0
 70
     9
  0
VERTEX
  5
F8
330
F7
100
AcDbEntity
  8
0
 62
   251
420
  5658198
100
AcDbVertex
100
AcDb3dPolylineVertex
 10
-4.150267601013183
 20
-0.000000763737944
 30
66.57991027832031
 70
    32
  0
VERTEX
  5
F9
330
F7
100
AcDbEntity
  8
0
 62
   251
420
  5658198
100
AcDbVertex
100
AcDb3dPolylineVertex
 10
-4.152289390563964
 20
-0.0000010355088307
 30
68.327392578125
 70
    32
  0
VERTEX
  5
FA
330
F7
100
AcDbEntity
  8
0
 62
   251
420
  5658198
100
AcDbVertex
100
AcDb3dPolylineVertex
 10
-3.519272327423095
 20
-0.0000013331200535
 30
68.327392578125
 70
    32
  0
VERTEX
  5
FB
330
F7
100
AcDbEntity
  8
0
 62
   251
420
  5658198
100
AcDbVertex
100
AcDb3dPolylineVertex
 10
-2.963248968124389
 20
-0.0000015637679098
 30
68.33705139160156
 70
    32
  0
VERTEX
  5
FC
330
F7
100
AcDbEntity
  8
0
 62
   251
420
  5658198
100
AcDbVertex
100
AcDb3dPolylineVertex
 10
-2.688172101974487
 20
-0.0000016636627151
 30
68.35494232177734
 70
    32
  0
VERTEX
  5
FD
330
F7
100
AcDbEntity
  8
0
 62
   251
420
  5658198
100
AcDbVertex
100
AcDb3dPolylineVertex
 10
-2.418000221252441
 20
-0.0000017599077182
 30
68.38671112060547
 70
    32
  0
VERTEX
  5
FE
330
F7
100
AcDbEntity
  8
0
 62
   251
420
  5658198
100
AcDbVertex
100
AcDb3dPolylineVertex
 10
-2.285444736480712
 20
-0.0000018082157567
 30
68.40901184082031
 70
    32
  0
VERTEX
  5
FF
330
F7
100
AcDbEntity
  8
0
 62
   251
420
  5658198
100
AcDbVertex
100
AcDb3dPolylineVertex
 10
-2.154945850372314
 20
-0.0000018574776277
 30
68.43624114990234
 70
    32
  0
VERTEX
  5
100
330
F7
100
AcDbEntity
  8
0
 62
   251
420
  5658198
100
AcDbVertex
100
AcDb3dPolylineVertex
 10
-2.026778221130371
 20
-0.0000019083147436
 30
68.4688720703125
 70
    32
  0
VERTEX
  5
101
330
F7
100
AcDbEntity
  8
0
 62
   251
420
  5658198
100
AcDbVertex
100
AcDb3dPolylineVertex
 10
-1.901219844818115
 20
-0.000001961349426
 30
68.50740814208984
 70
    32
  0
VERTEX
  5
102
330
F7
100
AcDbEntity
  8
0
 62
   251
420
  5658198
100
AcDbVertex
100
AcDb3dPolylineVertex
 10
-1.778546810150146
 20
-0.0000020172042241
 30
68.55231475830078
 70
    32
  0
VERTEX
  5
103
330
F7
100
AcDbEntity
  8
0
 62
   251
420
  5658198
100
AcDbVertex
100
AcDb3dPolylineVertex
 10
-1.659034729003906
 20
-0.0000020764996407
 30
68.60408020019531
 70
    32
  0
VERTEX
  5
104
330
F7
100
AcDbEntity
  8
0
 62
   251
420
  5658198
100
AcDbVertex
100
AcDb3dPolylineVertex
 10
-1.542961597442626
 20
-0.0000021398591343
 30
68.6632080078125
 70
    32
  0
VERTEX
  5
105
330
F7
100
AcDbEntity
  8
0
 62
   251
420
  5658198
100
AcDbVertex
100
AcDb3dPolylineVertex
 10
-1.430602550506591
 20
-0.0000022079045721
 30
68.73015594482422
 70
    32
  0
VERTEX
  5
106
330
F7
100
AcDbEntity
  8
0
 62
   251
420
  5658198
100
AcDbVertex
100
AcDb3dPolylineVertex
 10
-1.272838592529296
 20
-0.0000023136349228
 30
68.83928680419922
 70
    32
  0
VERTEX
  5
107
330
F7
100
AcDbEntity
  8
0
 62
   251
420
  5658198
100
AcDbVertex
100
AcDb3dPolylineVertex
 10
-1.122753620147705
 20
-0.0000024217856662
 30
68.95869445800781
 70
    32
  0
VERTEX
  5
108
330
F7
100
AcDbEntity
  8
0
 62
   251
420
  5658198
100
AcDbVertex
100
AcDb3dPolylineVertex
 10
-0.9808764457702636
 20
-0.0000025284471121
 30
69.08798217773437
 70
    32
  0
VERTEX
  5
109
330
F7
100
AcDbEntity
  8
0
 62
   251
420
  5658198
100
AcDbVertex
100
AcDb3dPolylineVertex
 10
-0.8477339744567871
 20
-0.0000026297097975
 30
69.22675323486328
 70
    32
  0
VERTEX
  5
10A
330
F7
100
AcDbEntity
  8
0
 62
   251
420
  5658198
100
AcDbVertex
100
AcDb3dPolylineVertex
 10
-0.7238516807556153
 20
-0.0000027216638046
 30
69.37459564208984
 70
    32
  0
VERTEX
  5
10B
330
F7
100
AcDbEntity
  8
0
 62
   251
420
  5658198
100
AcDbVertex
100
AcDb3dPolylineVertex
 10
-0.6097579002380371
 20
-0.0000028003996704
 30
69.53111267089844
 70
    32
  0
VERTEX
  5
10C
330
F7
100
AcDbEntity
  8
0
 62
   251
420
  5658198
100
AcDbVertex
100
AcDb3dPolylineVertex
 10
-0.5059800148010254
 20
-0.0000028620074772
 30
69.69589996337891
 70
    32
  0
VERTEX
  5
10D
330
F7
100
AcDbEntity
  8
0
 62
   251
420
  5658198
100
AcDbVertex
100
AcDb3dPolylineVertex
 10
-0.41304349899292
 20
-0.0000029025782169
 30
69.8685531616211
 70
    32
  0
VERTEX
  5
10E
330
F7
100
AcDbEntity
  8
0
 62
   251
420
  5658198
100
AcDbVertex
100
AcDb3dPolylineVertex
 10
-0.3433818817138672
 20
-0.0000029272914617
 30
70.02024841308593
 70
    32
  0
VERTEX
  5
10F
330
F7
100
AcDbEntity
  8
0
 62
   251
420
  5658198
100
AcDbVertex
100
AcDb3dPolylineVertex
 10
-0.2830095291137695
 20
-0.0000029524703677
 30
70.17478942871093
 70
    32
  0
VERTEX
  5
110
330
F7
100
AcDbEntity
  8
0
 62
   251
420
  5658198
100
AcDbVertex
100
AcDb3dPolylineVertex
 10
-0.2319240570068359
 20
-0.0000029780476325
 30
70.331787109375
 70
    32
  0
VERTEX
  5
111
330
F7
100
AcDbEntity
  8
0
 62
   251
420
  5658198
100
AcDbVertex
100
AcDb3dPolylineVertex
 10
-0.190126895904541
 20
-0.0000030039577723
 30
70.4908218383789
 70
    32
  0
VERTEX
  5
112
330
F7
100
AcDbEntity
  8
0
 62
   251
420
  5658198
100
AcDbVertex
100
AcDb3dPolylineVertex
 10
-0.157618522644043
 20
-0.0000030301339393
 30
70.6514892578125
 70
    32
  0
VERTEX
  5
113
330
F7
100
AcDbEntity
  8
0
 62
   251
420
  5658198
100
AcDbVertex
100
AcDb3dPolylineVertex
 10
-0.1343989372253418
 20
-0.0000030565097404
 30
70.81338500976563
 70
    32
  0
VERTEX
  5
114
330
F7
100
AcDbEntity
  8
0
 62
   251
420
  5658198
100
AcDbVertex
100
AcDb3dPolylineVertex
 10
-0.1204662322998047
 20
-0.0000030830181004
 30
70.97608947753906
 70
    32
  0
VERTEX
  5
115
330
F7
100
AcDbEntity
  8
0
 62
   251
420
  5658198
100
AcDbVertex
100
AcDb3dPolylineVertex
 10
-0.1158218383789062
 20
-0.0000031095933082
 30
71.13920593261719
 70
    32
  0
VERTEX
  5
116
330
F7
100
AcDbEntity
  8
0
 62
   251
420
  5658198
100
AcDbVertex
100
AcDb3dPolylineVertex
 10
-0.1204662322998047
 20
-0.000003136168516
 30
71.30232238769531
 70
    32
  0
VERTEX
  5
117
330
F7
100
AcDbEntity
  8
0
 62
   251
420
  5658198
100
AcDbVertex
100
AcDb3dPolylineVertex
 10
-0.1343979835510254
 20
-0.0000031626771033
 30
71.46503448486328
 70
    32
  0
VERTEX
  5
118
330
F7
100
AcDbEntity
  8
0
 62
   251
420
  5658198
100
AcDbVertex
100
AcDb3dPolylineVertex
 10
-0.1576189994812012
 20
-0.000003189052677
 30
71.62692260742187
 70
    32
  0
VERTEX
  5
119
330
F7
100
AcDbEntity
  8
0
 62
   251
420
  5658198
100
AcDbVertex
100
AcDb3dPolylineVertex
 10
-0.190126895904541
 20
-0.0000032152288441
 30
71.78759002685547
 70
    32
  0
VERTEX
  5
11A
330
F7
100
AcDbEntity
  8
0
 62
   251
420
  5658198
100
AcDbVertex
100
AcDb3dPolylineVertex
 10
-0.2319235801696777
 20
-0.0000032411387565
 30
71.94662475585937
 70
    32
  0
VERTEX
  5
11B
330
F7
100
AcDbEntity
  8
0
 62
   251
420
  5658198
100
AcDbVertex
100
AcDb3dPolylineVertex
 10
-0.2830085754394531
 20
-0.0000032667167034
 30
72.10362243652344
 70
    32
  0
VERTEX
  5
11C
330
F7
100
AcDbEntity
  8
0
 62
   251
420
  5658198
100
AcDbVertex
100
AcDb3dPolylineVertex
 10
-0.3433818817138672
 20
-0.0000032918951547
 30
72.25816345214844
 70
    32
  0
VERTEX
  5
11D
330
F7
100
AcDbEntity
  8
0
 62
   251
420
  5658198
100
AcDbVertex
100
AcDb3dPolylineVertex
 10
-0.4130430221557618
 20
-0.0000033166083995
 30
72.40985870361328
 70
    32
  0
VERTEX
  5
11E
330
F7
100
AcDbEntity
  8
0
 62
   251
420
  5658198
100
AcDbVertex
100
AcDb3dPolylineVertex
 10
-0.5059795379638672
 20
-0.0000033323140087
 30
72.58251190185546
 70
    32
  0
VERTEX
  5
11F
330
F7
100
AcDbEntity
  8
0
 62
   251
420
  5658198
100
AcDbVertex
100
AcDb3dPolylineVertex
 10
-0.6097574234008789
 20
-0.0000033244493807
 30
72.74729919433593
 70
    32
  0
VERTEX
  5
120
330
F7
100
AcDbEntity
  8
0
 62
   251
420
  5658198
100
AcDbVertex
100
AcDb3dPolylineVertex
 10
-0.7238512039184571
 20
-0.0000032967877814
 30
72.90381622314453
 70
    32
  0
VERTEX
  5
121
330
F7
100
AcDbEntity
  8
0
 62
   251
420
  5658198
100
AcDbVertex
100
AcDb3dPolylineVertex
 10
-0.8477330207824707
 20
-0.0000032531024772
 30
73.05165863037109
 70
    32
  0
VERTEX
  5
122
330
F7
100
AcDbEntity
  8
0
 62
   251
420
  5658198
100
AcDbVertex
100
AcDb3dPolylineVertex
 10
-0.9808764457702636
 20
-0.0000031971665067
 30
73.19042205810546
 70
    32
  0
VERTEX
  5
123
330
F7
100
AcDbEntity
  8
0
 62
   251
420
  5658198
100
AcDbVertex
100
AcDb3dPolylineVertex
 10
-1.122752666473388
 20
-0.0000031327533634
 30
73.31971740722656
 70
    32
  0
VERTEX
  5
124
330
F7
100
AcDbEntity
  8
0
 62
   251
420
  5658198
100
AcDbVertex
100
AcDb3dPolylineVertex
 10
-1.272837162017822
 20
-0.0000030636360862
 30
73.43912506103515
 70
    32
  0
VERTEX
  5
125
330
F7
100
AcDbEntity
  8
0
 62
   251
420
  5658198
100
AcDbVertex
100
AcDb3dPolylineVertex
 10
-1.430601119995117
 20
-0.0000029935877137
 30
73.54824829101563
 70
    32
  0
VERTEX
  5
126
330
F7
100
AcDbEntity
  8
0
 62
   251
420
  5658198
100
AcDbVertex
100
AcDb3dPolylineVertex
 10
-1.542959690093994
 20
-0.0000029500140499
 30
73.61520385742188
 70
    32
  0
VERTEX
  5
127
330
F7
100
AcDbEntity
  8
0
 62
   251
420
  5658198
100
AcDbVertex
100
AcDb3dPolylineVertex
 10
-1.659034252166748
 20
-0.0000029131658721
 30
73.67432403564453
 70
    32
  0
VERTEX
  5
128
330
F7
100
AcDbEntity
  8
0
 62
   251
420
  5658198
100
AcDbVertex
100
AcDb3dPolylineVertex
 10
-1.778545379638671
 20
-0.0000028817507882
 30
73.72609710693359
 70
    32
  0
VERTEX
  5
129
330
F7
100
AcDbEntity
  8
0
 62
   251
420
  5658198
100
AcDbVertex
100
AcDb3dPolylineVertex
 10
-1.901218891143798
 20
-0.0000028544768611
 30
73.77100372314453
 70
    32
  0
VERTEX
  5
12A
330
F7
100
AcDbEntity
  8
0
 62
   251
420
  5658198
100
AcDbVertex
100
AcDb3dPolylineVertex
 10
-2.026777267456054
 20
-0.0000028300505619
 30
73.80953216552734
 70
    32
  0
VERTEX
  5
12B
330
F7
100
AcDbEntity
  8
0
 62
   251
420
  5658198
100
AcDbVertex
100
AcDb3dPolylineVertex
 10
-2.154944896697998
 20
-0.0000028071790439
 30
73.8421630859375
 70
    32
  0
VERTEX
  5
12C
330
F7
100
AcDbEntity
  8
0
 62
   251
420
  5658198
100
AcDbVertex
100
AcDb3dPolylineVertex
 10
-2.285443782806396
 20
-0.0000027845703698
 30
73.86939239501953
 70
    32
  0
VERTEX
  5
12D
330
F7
100
AcDbEntity
  8
0
 62
   251
420
  5658198
100
AcDbVertex
100
AcDb3dPolylineVertex
 10
-2.417999267578125
 20
-0.0000027609314657
 30
73.89169311523438
 70
    32
  0
VERTEX
  5
12E
330
F7
100
AcDbEntity
  8
0
 62
   251
420
  5658198
100
AcDbVertex
100
AcDb3dPolylineVertex
 10
-2.688170909881591
 20
-0.0000027053924896
 30
73.9234619140625
 70
    32
  0
VERTEX
  5
12F
330
F7
100
AcDbEntity
  8
0
 62
   251
420
  5658198
100
AcDbVertex
100
AcDb3dPolylineVertex
 10
-2.963247776031494
 20
-0.0000026302207061
 30
73.94135284423828
 70
    32
  0
VERTEX
  5
130
330
F7
100
AcDbEntity
  8
0
 62
   251
420
  5658198
100
AcDbVertex
100
AcDb3dPolylineVertex
 10
-3.519271612167358
 20
-0.000002379613079
 30
73.95101165771484
 70
    32
  0
VERTEX
  5
131
330
F7
100
AcDbEntity
  8
0
 62
   251
420
  5658198
100
AcDbVertex
100
AcDb3dPolylineVertex
 10
-4.152289390563964
 20
-0.0000019539836558
 30
73.95101165771484
 70
    32
  0
VERTEX
  5
132
330
F7
100
AcDbEntity
  8
0
 62
   251
420
  5658198
100
AcDbVertex
100
AcDb3dPolylineVertex
 10
-4.139386177062988
 20
-0.0000022334634195
 30
75.63426208496093
 70
    32
  0
VERTEX
  5
133
330
F7
100
AcDbEntity
  8
0
 62
   251
420
  5658198
100
AcDbVertex
100
AcDb3dPolylineVertex
 10
-4.050207138061523
 20
-0.0000022801277737
 30
75.63623046875
 70
    32
  0
VERTEX
  5
134
330
F7
100
AcDbEntity
  8
0
 62
   251
420
  5658198
100
AcDbVertex
100
AcDb3dPolylineVertex
 10
-3.960798501968383
 20
-0.0000023251054699
 30
75.64153289794922
 70
    32
  0
VERTEX
  5
135
330
F7
100
AcDbEntity
  8
0
 62
   251
420
  5658198
100
AcDbVertex
100
AcDb3dPolylineVertex
 10
-3.781646490097045
 20
-0.0000024101220788
 30
75.66178894042969
 70
    32
  0
VERTEX
  5
136
330
F7
100
AcDbEntity
  8
0
 62
   251
420
  5658198
100
AcDbVertex
100
AcDb3dPolylineVertex
 10
-3.602638483047485
 20
-0.0000024887576728
 30
75.69437408447265
 70
    32
  0
VERTEX
  5
137
330
F7
100
AcDbEntity
  8
0
 62
   251
420
  5658198
100
AcDbVertex
100
AcDb3dPolylineVertex
 10
-3.424483299255371
 20
-0.0000025612557693
 30
75.73861694335938
 70
    32
  0
VERTEX
  5
138
330
F7
100
AcDbEntity
  8
0
 62
   251
420
  5658198
100
AcDbVertex
100
AcDb3dPolylineVertex
 10
-3.199983358383178
 20
-0.0000026456468731
 30
75.81008148193359
 70
    32
  0
VERTEX
  5
139
330
F7
100
AcDbEntity
  8
0
 62
   251
420
  5658198
100
AcDbVertex
100
AcDb3dPolylineVertex
 10
-2.98156452178955
 20
-0.0000027208675419
 30
75.89652252197265
 70
    32
  0
VERTEX
  5
13A
330
F7
100
AcDbEntity
  8
0
 62
   251
420
  5658198
100
AcDbVertex
100
AcDb3dPolylineVertex
 10
-2.770052194595336
 20
-0.0000027870000849
 30
75.99754333496093
 70
    32
  0
VERTEX
  5
13B
330
F7
100
AcDbEntity
  8
0
 62
   251
420
  5658198
100
AcDbVertex
100
AcDb3dPolylineVertex
 10
-2.566270351409912
 20
-0.000002844126584
 30
76.11275482177735
 70
    32
  0
VERTEX
  5
13C
330
F7
100
AcDbEntity
  8
0
 62
   251
420
  5658198
100
AcDbVertex
100
AcDb3dPolylineVertex
 10
-2.371042728424072
 20
-0.0000028923295758
 30
76.24174499511719
 70
    32
  0
VERTEX
  5
13D
330
F7
100
AcDbEntity
  8
0
 62
   251
420
  5658198
100
AcDbVertex
100
AcDb3dPolylineVertex
 10
-2.27689504623413
 20
-0.0000029131103929
 30
76.31128692626953
 70
    32
  0
VERTEX
  5
13E
330
F7
100
AcDbEntity
  8
0
 62
   251
420
  5658198
100
AcDbVertex
100
AcDb3dPolylineVertex
 10
-2.185194492340087
 20
-0.0000029316911423
 30
76.38412475585937
 70
    32
  0
VERTEX
  5
13F
330
F7
100
AcDbEntity
  8
0
 62
   251
420
  5658198
100
AcDbVertex
100
AcDb3dPolylineVertex
 10
-2.096045017242431
 20
-0.0000029480825106
 30
76.46022033691406
 70
    32
  0
VERTEX
  5
140
330
F7
100
AcDbEntity
  8
0
 62
   251
420
  5658198
100
AcDbVertex
100
AcDb3dPolylineVertex
 10
-2.009549140930175
 20
-0.0000029622940474
 30
76.53950500488281
 70
    32
  0
VERTEX
  5
141
330
F7
100
AcDbEntity
  8
0
 62
   251
420
  5658198
100
AcDbVertex
100
AcDb3dPolylineVertex
 10
-1.92581033706665
 20
-0.0000029743366667
 30
76.62194061279297
 70
    32
  0
VERTEX
  5
142
330
F7
100
AcDbEntity
  8
0
 62
   251
420
  5658198
100
AcDbVertex
100
AcDb3dPolylineVertex
 10
-1.844931125640869
 20
-0.0000029842199183
 30
76.70747375488281
 70
    32
  0
VERTEX
  5
143
330
F7
100
AcDbEntity
  8
0
 62
   251
420
  5658198
100
AcDbVertex
100
AcDb3dPolylineVertex
 10
-1.764430046081542
 20
-0.0000029921263831
 30
76.79911041259765
 70
    32
  0
VERTEX
  5
144
330
F7
100
AcDbEntity
  8
0
 62
   251
420
  5658198
100
AcDbVertex
100
AcDb3dPolylineVertex
 10
-1.687371253967285
 20
-0.0000029975481084
 30
76.89372253417968
 70
    32
  0
VERTEX
  5
145
330
F7
100
AcDbEntity
  8
0
 62
   251
420
  5658198
100
AcDbVertex
100
AcDb3dPolylineVertex
 10
-1.613869667053222
 20
-0.0000030003834581
 30
76.99115753173828
 70
    32
  0
VERTEX
  5
146
330
F7
100
AcDbEntity
  8
0
 62
   251
420
  5658198
100
AcDbVertex
100
AcDb3dPolylineVertex
 10
-1.544041156768798
 20
-0.000003000529432
 30
77.09127044677734
 70
    32
  0
VERTEX
  5
147
330
F7
100
AcDbEntity
  8
0
 62
   251
420
  5658198
100
AcDbVertex
100
AcDb3dPolylineVertex
 10
-1.477999210357666
 20
-0.0000029978848488
 30
77.19391632080078
 70
    32
  0
VERTEX
  5
148
330
F7
100
AcDbEntity
  8
0
 62
   251
420
  5658198
100
AcDbVertex
100
AcDb3dPolylineVertex
 10
-1.415858745574951
 20
-0.0000029923473903
 30
77.29893493652344
 70
    32
  0
VERTEX
  5
149
330
F7
100
AcDbEntity
  8
0
 62
   251
420
  5658198
100
AcDbVertex
100
AcDb3dPolylineVertex
 10
-1.357735157012939
 20
-0.0000029838147384
 30
77.40618896484375
 70
    32
  0
VERTEX
  5
14A
330
F7
100
AcDbEntity
  8
0
 62
   251
420
  5658198
100
AcDbVertex
100
AcDb3dPolylineVertex
 10
-1.303743362426757
 20
-0.0000029721854844
 30
77.51551818847656
 70
    32
  0
VERTEX
  5
14B
330
F7
100
AcDbEntity
  8
0
 62
   251
420
  5658198
100
AcDbVertex
100
AcDb3dPolylineVertex
 10
-1.250607967376708
 20
-0.0000029564230317
 30
77.63465881347656
 70
    32
  0
VERTEX
  5
14C
330
F7
100
AcDbEntity
  8
0
 62
   251
420
  5658198
100
AcDbVertex
100
AcDb3dPolylineVertex
 10
-1.20238971710205
 20
-0.0000029375746635
 30
77.75554656982421
 70
    32
  0
VERTEX
  5
14D
330
F7
100
AcDbEntity
  8
0
 62
   251
420
  5658198
100
AcDbVertex
100
AcDb3dPolylineVertex
 10
-1.15904426574707
 20
-0.0000029158209145
 30
77.8780517578125
 70
    32
  0
VERTEX
  5
14E
330
F7
100
AcDbEntity
  8
0
 62
   251
420
  5658198
100
AcDbVertex
100
AcDb3dPolylineVertex
 10
-1.120530128479003
 20
-0.0000028913427741
 30
78.0020751953125
 70
    32
  0
VERTEX
  5
14F
330
F7
100
AcDbEntity
  8
0
 62
   251
420
  5658198
100
AcDbVertex
100
AcDb3dPolylineVertex
 10
-1.086804389953613
 20
-0.000002864320777
 30
78.12749481201172
 70
    32
  0
VERTEX
  5
150
330
F7
100
AcDbEntity
  8
0
 62
   251
420
  5658198
100
AcDbVertex
100
AcDb3dPolylineVertex
 10
-1.057825088500976
 20
-0.0000028349359127
 30
78.25418853759765
 70
    32
  0
VERTEX
  5
151
330
F7
100
AcDbEntity
  8
0
 62
   251
420
  5658198
100
AcDbVertex
100
AcDb3dPolylineVertex
 10
-1.033550262451171
 20
-0.0000028033691706
 30
78.38204956054688
 70
    32
  0
VERTEX
  5
152
330
F7
100
AcDbEntity
  8
0
 62
   251
420
  5658198
100
AcDbVertex
100
AcDb3dPolylineVertex
 10
-1.013936519622802
 20
-0.000002769800858
 30
78.5109634399414
 70
    32
  0
VERTEX
  5
153
330
F7
100
AcDbEntity
  8
0
 62
   251
420
  5658198
100
AcDbVertex
100
AcDb3dPolylineVertex
 10
-0.9989404678344726
 20
-0.0000027344121918
 30
78.64080810546875
 70
    32
  0
VERTEX
  5
154
330
F7
100
AcDbEntity
  8
0
 62
   251
420
  5658198
100
AcDbVertex
100
AcDb3dPolylineVertex
 10
-0.9885220527648925
 20
-0.0000026973841614
 30
78.77147674560546
 70
    32
  0
VERTEX
  5
155
330
F7
100
AcDbEntity
  8
0
 62
   251
420
  5658198
100
AcDbVertex
100
AcDb3dPolylineVertex
 10
-0.9812450408935546
 20
-0.0000026191319193
 30
79.03480529785156
 70
    32
  0
VERTEX
  5
156
330
F7
100
AcDbEntity
  8
0
 62
   251
420
  5658198
100
AcDbVertex
100
AcDb3dPolylineVertex
 10
-0.9917645454406738
 20
-0.0000025364906833
 30
79.30003356933593
 70
    32
  0
VERTEX
  5
157
330
F7
100
AcDbEntity
  8
0
 62
   251
420
  5658198
100
AcDbVertex
100
AcDb3dPolylineVertex
 10
-1.019742012023925
 20
-0.0000024509070045
 30
79.56623077392578
 70
    32
  0
VERTEX
  5
158
330
F7
100
AcDbEntity
  8
0
 62
   251
420
  5658198
100
AcDbVertex
100
AcDb3dPolylineVertex
 10
-1.064836978912353
 20
-0.0000023638272069
 30
79.83247375488281
 70
    32
  0
VERTEX
  5
159
330
F7
100
AcDbEntity
  8
0
 62
   251
420
  5658198
100
AcDbVertex
100
AcDb3dPolylineVertex
 10
-1.126710414886474
 20
-0.0000022766978418
 30
80.09784698486328
 70
    32
  0
VERTEX
  5
15A
330
F7
100
AcDbEntity
  8
0
 62
   251
420
  5658198
100
AcDbVertex
100
AcDb3dPolylineVertex
 10
-1.205023288726806
 20
-0.0000021909652332
 30
80.36141967773437
 70
    32
  0
VERTEX
  5
15B
330
F7
100
AcDbEntity
  8
0
 62
   251
420
  5658198
100
AcDbVertex
100
AcDb3dPolylineVertex
 10
-1.29943561553955
 20
-0.0000021080759325
 30
80.62228393554688
 70
    32
  0
VERTEX
  5
15C
330
F7
100
AcDbEntity
  8
0
 62
   251
420
  5658198
100
AcDbVertex
100
AcDb3dPolylineVertex
 10
-1.409608364105224
 20
-0.0000020294762635
 30
80.87950134277344
 70
    32
  0
VERTEX
  5
15D
330
F7
100
AcDbEntity
  8
0
 62
   251
420
  5658198
100
AcDbVertex
100
AcDb3dPolylineVertex
 10
-1.535201549530029
 20
-0.0000019566127776
 30
81.13215637207032
 70
    32
  0
VERTEX
  5
15E
330
F7
100
AcDbEntity
  8
0
 62
   251
420
  5658198
100
AcDbVertex
100
AcDb3dPolylineVertex
 10
-1.675875663757324
 20
-0.0000018909320261
 30
81.37933349609374
 70
    32
  0
VERTEX
  5
15F
330
F7
100
AcDbEntity
  8
0
 62
   251
420
  5658198
100
AcDbVertex
100
AcDb3dPolylineVertex
 10
-1.831291675567626
 20
-0.0000018338801056
 30
81.62009429931641
 70
    32
  0
VERTEX
  5
160
330
F7
100
AcDbEntity
  8
0
 62
   251
420
  5658198
100
AcDbVertex
100
AcDb3dPolylineVertex
 10
-3.253978013992309
 20
-0.0000012702935237
 30
83.7784652709961
 70
    32
  0
VERTEX
  5
161
330
F7
100
AcDbEntity
  8
0
 62
   251
420
  5658198
100
AcDbVertex
100
AcDb3dPolylineVertex
 10
-4.56900930404663
 20
-0.000001122618869
 30
86.00390625000001
 70
    32
  0
VERTEX
  5
162
330
F7
100
AcDbEntity
  8
0
 62
   251
420
  5658198
100
AcDbVertex
100
AcDb3dPolylineVertex
 10
-5.379755020141601
 20
-0.0000013744552234
 30
87.54966735839843
 70
    32
  0
VERTEX
  5
163
330
F7
100
AcDbEntity
  8
0
 62
   251
420
  5658198
100
AcDbVertex
100
AcDb3dPolylineVertex
 10
-6.130969047546386
 20
-0.000001631032319
 30
89.12452697753906
 70
    32
  0
VERTEX
  5
164
330
F7
100
AcDbEntity
  8
0
 62
   251
420
  5658198
100
AcDbVertex
100
AcDb3dPolylineVertex
 10
-6.821868896484375
 20
-0.0000018920698039
 30
90.72676086425781
 70
    32
  0
VERTEX
  5
165
330
F7
100
AcDbEntity
  8
0
 62
   251
420
  5658198
100
AcDbVertex
100
AcDb3dPolylineVertex
 10
-7.451673030853271
 20
-0.0000021572870992
 30
92.35466003417968
 70
    32
  0
VERTEX
  5
166
330
F7
100
AcDbEntity
  8
0
 62
   251
420
  5658198
100
AcDbVertex
100
AcDb3dPolylineVertex
 10
-8.12067699432373
 20
-0.0000027580490496
 30
94.32362365722656
 70
    32
  0
VERTEX
  5
167
330
F7
100
AcDbEntity
  8
0
 62
   251
420
  5658198
100
AcDbVertex
100
AcDb3dPolylineVertex
 10
-8.69975471496582
 20
-0.0000036457627175
 30
96.32014465332032
 70
    32
  0
VERTEX
  5
168
330
F7
100
AcDbEntity
  8
0
 62
   251
420
  5658198
100
AcDbVertex
100
AcDb3dPolylineVertex
 10
-8.865360260009765
 20
-0.0000039284996092
 30
97.00271606445312
 70
    32
  0
VERTEX
  5
169
330
F7
100
AcDbEntity
  8
0
 62
   251
420
  5658198
100
AcDbVertex
100
AcDb3dPolylineVertex
 10
-9.002736091613769
 20
-0.000004188330422
 30
97.69200134277344
 70
    32
  0
VERTEX
  5
16A
330
F7
100
AcDbEntity
  8
0
 62
   251
420
  5658198
100
AcDbVertex
100
AcDb3dPolylineVertex
 10
-9.113777160644531
 20
-0.0000044470457397
 30
98.38687133789063
 70
    32
  0
VERTEX
  5
16B
330
F7
100
AcDbEntity
  8
0
 62
   251
420
  5658198
100
AcDbVertex
100
AcDb3dPolylineVertex
 10
-9.20037841796875
 20
-0.0000047264375098
 30
99.08617401123047
 70
    32
  0
VERTEX
  5
16C
330
F7
100
AcDbEntity
  8
0
 62
   251
420
  5658198
100
AcDbVertex
100
AcDb3dPolylineVertex
 10
-9.307844161987304
 20
-0.00000543441638
 30
100.4935302734375
 70
    32
  0
VERTEX
  5
16D
330
F7
100
AcDbEntity
  8
0
 62
   251
420
  5658198
100
AcDbVertex
100
AcDb3dPolylineVertex
 10
-9.340296745300292
 20
-0.0000064865985223
 30
101.9049453735351
 70
    32
  0
VERTEX
  5
16E
330
F7
100
AcDbEntity
  8
0
 62
   251
420
  5658198
100
AcDbVertex
100
AcDb3dPolylineVertex
 10
-8.972163200378417
 20
-0.0000060285519794
 30
101.9104537963867
 70
    32
  0
VERTEX
  5
16F
330
F7
100
AcDbEntity
  8
0
 62
   251
420
  5658198
100
AcDbVertex
100
AcDb3dPolylineVertex
 10
-8.449041366577148
 20
-0.0000055658547353
 30
101.9334259033203
 70
    32
  0
VERTEX
  5
170
330
F7
100
AcDbEntity
  8
0
 62
   251
420
  5658198
100
AcDbVertex
100
AcDb3dPolylineVertex
 10
-8.191394805908203
 20
-0.0000054270844885
 30
101.9611511230468
 70
    32
  0
VERTEX
  5
171
330
F7
100
AcDbEntity
  8
0
 62
   251
420
  5658198
100
AcDbVertex
100
AcDb3dPolylineVertex
 10
-7.939370155334472
 20
-0.0000053269277487
 30
102.0037841796875
 70
    32
  0
VERTEX
  5
172
330
F7
100
AcDbEntity
  8
0
 62
   251
420
  5658198
100
AcDbVertex
100
AcDb3dPolylineVertex
 10
-7.816172122955322
 20
-0.0000052859140851
 30
102.0316619873047
 70
    32
  0
VERTEX
  5
173
330
F7
100
AcDbEntity
  8
0
 62
   251
420
  5658198
100
AcDbVertex
100
AcDb3dPolylineVertex
 10
-7.695227146148681
 20
-0.0000052480554587
 30
102.0644149780273
 70
    32
  0
VERTEX
  5
174
330
F7
100
AcDbEntity
  8
0
 62
   251
420
  5658198
100
AcDbVertex
100
AcDb3dPolylineVertex
 10
-7.576817512512207
 20
-0.0000052111854529
 30
102.1024322509765
 70
    32
  0
VERTEX
  5
175
330
F7
100
AcDbEntity
  8
0
 62
   251
420
  5658198
100
AcDbVertex
100
AcDb3dPolylineVertex
 10
-7.461225509643554
 20
-0.0000051731371968
 30
102.1461029052734
 70
    32
  0
VERTEX
  5
176
330
F7
100
AcDbEntity
  8
0
 62
   251
420
  5658198
100
AcDbVertex
100
AcDb3dPolylineVertex
 10
-7.34873342514038
 20
-0.0000051317456382
 30
102.19580078125
 70
    32
  0
VERTEX
  5
177
330
F7
100
AcDbEntity
  8
0
 62
   251
420
  5658198
100
AcDbVertex
100
AcDb3dPolylineVertex
 10
-7.2396240234375
 20
-0.0000050848443607
 30
102.2519149780273
 70
    32
  0
VERTEX
  5
178
330
F7
100
AcDbEntity
  8
0
 62
   251
420
  5658198
100
AcDbVertex
100
AcDb3dPolylineVertex
 10
-7.134180068969726
 20
-0.0000050302669479
 30
102.314826965332
 70
    32
  0
VERTEX
  5
179
330
F7
100
AcDbEntity
  8
0
 62
   251
420
  5658198
100
AcDbVertex
100
AcDb3dPolylineVertex
 10
-7.032683372497558
 20
-0.0000049658469834
 30
102.3849258422851
 70
    32
  0
VERTEX
  5
17A
330
F7
100
AcDbEntity
  8
0
 62
   251
420
  5658198
100
AcDbVertex
100
AcDb3dPolylineVertex
 10
-6.879157543182373
 20
-0.000004852398888
 30
102.5066452026367
 70
    32
  0
VERTEX
  5
17B
330
F7
100
AcDbEntity
  8
0
 62
   251
420
  5658198
100
AcDbVertex
100
AcDb3dPolylineVertex
 10
-6.733705520629882
 20
-0.0000047380140131
 30
102.6377944946289
 70
    32
  0
VERTEX
  5
17C
330
F7
100
AcDbEntity
  8
0
 62
   251
420
  5658198
100
AcDbVertex
100
AcDb3dPolylineVertex
 10
-6.596779346466064
 20
-0.0000046288660087
 30
102.7779846191406
 70
    32
  0
VERTEX
  5
17D
330
F7
100
AcDbEntity
  8
0
 62
   251
420
  5658198
100
AcDbVertex
100
AcDb3dPolylineVertex
 10
-6.468830585479736
 20
-0.0000045311294343
 30
102.9267959594726
 70
    32
  0
VERTEX
  5
17E
330
F7
100
AcDbEntity
  8
0
 62
   251
420
  5658198
100
AcDbVertex
100
AcDb3dPolylineVertex
 10
-6.350310325622558
 20
-0.0000044509783947
 30
103.0838317871094
 70
    32
  0
VERTEX
  5
17F
330
F7
100
AcDbEntity
  8
0
 62
   251
420
  5658198
100
AcDbVertex
100
AcDb3dPolylineVertex
 10
-6.241671085357666
 20
-0.0000043945874495
 30
103.2487030029297
 70
    32
  0
VERTEX
  5
180
330
F7
100
AcDbEntity
  8
0
 62
   251
420
  5658198
100
AcDbVertex
100
AcDb3dPolylineVertex
 10
-6.143364429473876
 20
-0.0000043681311581
 30
103.4209976196289
 70
    32
  0
VERTEX
  5
181
330
F7
100
AcDbEntity
  8
0
 62
   251
420
  5658198
100
AcDbVertex
100
AcDb3dPolylineVertex
 10
-6.055841445922851
 20
-0.0000043777827159
 30
103.6003112792968
 70
    32
  0
VERTEX
  5
182
330
F7
100
AcDbEntity
  8
0
 62
   251
420
  5658198
100
AcDbVertex
100
AcDb3dPolylineVertex
 10
-5.992402076721191
 20
-0.000004402563718
 30
103.7524108886719
 70
    32
  0
VERTEX
  5
183
330
F7
100
AcDbEntity
  8
0
 62
   251
420
  5658198
100
AcDbVertex
100
AcDb3dPolylineVertex
 10
-5.937420845031738
 20
-0.0000044277317102
 30
103.9068908691406
 70
    32
  0
VERTEX
  5
184
330
F7
100
AcDbEntity
  8
0
 62
   251
420
  5658198
100
AcDbVertex
100
AcDb3dPolylineVertex
 10
-5.89089822769165
 20
-0.0000044532325774
 30
104.0634155273437
 70
    32
  0
VERTEX
  5
185
330
F7
100
AcDbEntity
  8
0
 62
   251
420
  5658198
100
AcDbVertex
100
AcDb3dPolylineVertex
 10
-5.852834224700927
 20
-0.0000044790103857
 30
104.2216415405273
 70
    32
  0
VERTEX
  5
186
330
F7
100
AcDbEntity
  8
0
 62
   251
420
  5658198
100
AcDbVertex
100
AcDb3dPolylineVertex
 10
-5.823229312896728
 20
-0.0000045050101107
 30
104.3812255859375
 70
    32
  0
VERTEX
  5
187
330
F7
100
AcDbEntity
  8
0
 62
   251
420
  5658198
100
AcDbVertex
100
AcDb3dPolylineVertex
 10
-5.802082538604736
 20
-0.0000045311753638
 30
104.5418243408203
 70
    32
  0
VERTEX
  5
188
330
F7
100
AcDbEntity
  8
0
 62
   251
420
  5658198
100
AcDbVertex
100
AcDb3dPolylineVertex
 10
-5.789394378662109
 20
-0.0000045574524847
 30
104.7031173706054
 70
    32
  0
VERTEX
  5
189
330
F7
100
AcDbEntity
  8
0
 62
   251
420
  5658198
100
AcDbVertex
100
AcDb3dPolylineVertex
 10
-5.785165309906005
 20
-0.0000045837846301
 30
104.8647384643554
 70
    32
  0
VERTEX
  5
18A
330
F7
100
AcDbEntity
  8
0
 62
   251
420
  5658198
100
AcDbVertex
100
AcDb3dPolylineVertex
 10
-5.789394378662109
 20
-0.0000046101167754
 30
105.0263671875
 70
    32
  0
VERTEX
  5
18B
330
F7
100
AcDbEntity
  8
0
 62
   251
420
  5658198
100
AcDbVertex
100
AcDb3dPolylineVertex
 10
-5.802082538604736
 20
-0.0000046363929869
 30
105.1876525878906
 70
    32
  0
VERTEX
  5
18C
330
F7
100
AcDbEntity
  8
0
 62
   251
420
  5658198
100
AcDbVertex
100
AcDb3dPolylineVertex
 10
-5.82322883605957
 20
-0.0000046625591494
 30
105.3482513427734
 70
    32
  0
VERTEX
  5
18D
330
F7
100
AcDbEntity
  8
0
 62
   251
420
  5658198
100
AcDbVertex
100
AcDb3dPolylineVertex
 10
-5.852834224700927
 20
-0.000004688557965
 30
105.5078353881836
 70
    32
  0
VERTEX
  5
18E
330
F7
100
AcDbEntity
  8
0
 62
   251
420
  5658198
100
AcDbVertex
100
AcDb3dPolylineVertex
 10
-5.89089822769165
 20
-0.0000047143366828
 30
105.6660614013672
 70
    32
  0
VERTEX
  5
18F
330
F7
100
AcDbEntity
  8
0
 62
   251
420
  5658198
100
AcDbVertex
100
AcDb3dPolylineVertex
 10
-5.937420845031738
 20
-0.0000047398370953
 30
105.8225860595703
 70
    32
  0
VERTEX
  5
190
330
F7
100
AcDbEntity
  8
0
 62
   251
420
  5658198
100
AcDbVertex
100
AcDb3dPolylineVertex
 10
-5.992402076721191
 20
-0.0000047650055421
 30
105.977066040039
 70
    32
  0
VERTEX
  5
191
330
F7
100
AcDbEntity
  8
0
 62
   251
420
  5658198
100
AcDbVertex
100
AcDb3dPolylineVertex
 10
-6.055841922760009
 20
-0.0000047897865443
 30
106.129165649414
 70
    32
  0
VERTEX
  5
192
330
F7
100
AcDbEntity
  8
0
 62
   251
420
  5658198
100
AcDbVertex
100
AcDb3dPolylineVertex
 10
-6.143364429473876
 20
-0.0000048387955758
 30
106.3084869384765
 70
    32
  0
VERTEX
  5
193
330
F7
100
AcDbEntity
  8
0
 62
   251
420
  5658198
100
AcDbVertex
100
AcDb3dPolylineVertex
 10
-6.241671562194824
 20
-0.0000049220398068
 30
106.4807739257812
 70
    32
  0
VERTEX
  5
194
330
F7
100
AcDbEntity
  8
0
 62
   251
420
  5658198
100
AcDbVertex
100
AcDb3dPolylineVertex
 10
-6.350310802459716
 20
-0.0000050331432249
 30
106.6456451416015
 70
    32
  0
VERTEX
  5
195
330
F7
100
AcDbEntity
  8
0
 62
   251
420
  5658198
100
AcDbVertex
100
AcDb3dPolylineVertex
 10
-6.468830585479736
 20
-0.0000051657234508
 30
106.8026809692383
 70
    32
  0
VERTEX
  5
196
330
F7
100
AcDbEntity
  8
0
 62
   251
420
  5658198
100
AcDbVertex
100
AcDb3dPolylineVertex
 10
-6.596779346466064
 20
-0.0000053134017435
 30
106.9514923095703
 70
    32
  0
VERTEX
  5
197
330
F7
100
AcDbEntity
  8
0
 62
   251
420
  5658198
100
AcDbVertex
100
AcDb3dPolylineVertex
 10
-6.733705520629882
 20
-0.0000054697979976
 30
107.0916748046875
 70
    32
  0
VERTEX
  5
198
330
F7
100
AcDbEntity
  8
0
 62
   251
420
  5658198
100
AcDbVertex
100
AcDb3dPolylineVertex
 10
-6.879157066345214
 20
-0.0000056285339269
 30
107.2228317260742
 70
    32
  0
VERTEX
  5
199
330
F7
100
AcDbEntity
  8
0
 62
   251
420
  5658198
100
AcDbVertex
100
AcDb3dPolylineVertex
 10
-7.032682418823242
 20
-0.0000057832289713
 30
107.3445510864257
 70
    32
  0
VERTEX
  5
19A
330
F7
100
AcDbEntity
  8
0
 62
   251
420
  5658198
100
AcDbVertex
100
AcDb3dPolylineVertex
 10
-7.134234905242919
 20
-0.000005871596386
 30
107.4147033691406
 70
    32
  0
VERTEX
  5
19B
330
F7
100
AcDbEntity
  8
0
 62
   251
420
  5658198
100
AcDbVertex
100
AcDb3dPolylineVertex
 10
-7.239718437194824
 20
-0.0000059480526033
 30
107.477668762207
 70
    32
  0
VERTEX
  5
19C
330
F7
100
AcDbEntity
  8
0
 62
   251
420
  5658198
100
AcDbVertex
100
AcDb3dPolylineVertex
 10
-7.348853111267089
 20
-0.000006015098279
 30
107.533821105957
 70
    32
  0
VERTEX
  5
19D
330
F7
100
AcDbEntity
  8
0
 62
   251
420
  5658198
100
AcDbVertex
100
AcDb3dPolylineVertex
 10
-7.461358547210693
 20
-0.0000060752308855
 30
107.5835189819336
 70
    32
  0
VERTEX
  5
19E
330
F7
100
AcDbEntity
  8
0
 62
   251
420
  5658198
100
AcDbVertex
100
AcDb3dPolylineVertex
 10
-7.576953887939453
 20
-0.0000061309501689
 30
107.6271362304687
 70
    32
  0
VERTEX
  5
19F
330
F7
100
AcDbEntity
  8
0
 62
   251
420
  5658198
100
AcDbVertex
100
AcDb3dPolylineVertex
 10
-7.695358753204345
 20
-0.0000061847549659
 30
107.6650390625
 70
    32
  0
VERTEX
  5
1A0
330
F7
100
AcDbEntity
  8
0
 62
   251
420
  5658198
100
AcDbVertex
100
AcDb3dPolylineVertex
 10
-7.816292762756347
 20
-0.0000062391432039
 30
107.6975860595703
 70
    32
  0
VERTEX
  5
1A1
330
F7
100
AcDbEntity
  8
0
 62
   251
420
  5658198
100
AcDbVertex
100
AcDb3dPolylineVertex
 10
-7.939475059509277
 20
-0.0000062966146288
 30
107.7251510620117
 70
    32
  0
VERTEX
  5
1A2
330
F7
100
AcDbEntity
  8
0
 62
   251
420
  5658198
100
AcDbVertex
100
AcDb3dPolylineVertex
 10
-8.064625740051269
 20
-0.0000063596676227
 30
107.7480926513672
 70
    32
  0
VERTEX
  5
1A3
330
F7
100
AcDbEntity
  8
0
 62
   251
420
  5658198
100
AcDbVertex
100
AcDb3dPolylineVertex
 10
-8.1914644241333
 20
-0.0000064308010224
 30
107.7667922973633
 70
    32
  0
VERTEX
  5
1A4
330
F7
100
AcDbEntity
  8
0
 62
   251
420
  5658198
100
AcDbVertex
100
AcDb3dPolylineVertex
 10
-8.449081420898437
 20
-0.0000066073057496
 30
107.7929077148437
 70
    32
  0
VERTEX
  5
1A5
330
F7
100
AcDbEntity
  8
0
 62
   251
420
  5658198
100
AcDbVertex
100
AcDb3dPolylineVertex
 10
-8.710083961486816
 20
-0.0000068461195042
 30
107.8064270019531
 70
    32
  0
VERTEX
  5
1A6
330
F7
100
AcDbEntity
  8
0
 62
   251
420
  5658198
100
AcDbVertex
100
AcDb3dPolylineVertex
 10
-8.972227096557617
 20
-0.0000071672311606
 30
107.8102798461914
 70
    32
  0
VERTEX
  5
1A7
330
F7
100
AcDbEntity
  8
0
 62
   251
420
  5658198
100
AcDbVertex
100
AcDb3dPolylineVertex
 10
-9.195024490356445
 20
-0.0000074878580563
 30
107.8102798461914
 70
    32
  0
VERTEX
  5
1A8
330
F7
100
AcDbEntity
  8
0
 62
   251
420
  5658198
100
AcDbVertex
100
AcDb3dPolylineVertex
 10
-9.195024490356445
 20
-0.0000077351924119
 30
109.4876403808594
 70
    32
  0
VERTEX
  5
1A9
330
F7
100
AcDbEntity
  8
0
 62
   251
420
  5658198
100
AcDbVertex
100
AcDb3dPolylineVertex
 10
-8.972227096557617
 20
-0.0000073052647167
 30
109.4876403808594
 70
    32
  0
VERTEX
  5
1AA
330
F7
100
AcDbEntity
  8
0
 62
   251
420
  5658198
100
AcDbVertex
100
AcDb3dPolylineVertex
 10
-8.206225395202636
 20
-0.0000062906101448
 30
109.4986724853515
 70
    32
  0
VERTEX
  5
1AB
330
F7
100
AcDbEntity
  8
0
 62
   251
420
  5658198
100
AcDbVertex
100
AcDb3dPolylineVertex
 10
-8.017446517944335
 20
-0.0000061295950218
 30
109.5115127563476
 70
    32
  0
VERTEX
  5
1AC
330
F7
100
AcDbEntity
  8
0
 62
   251
420
  5658198
100
AcDbVertex
100
AcDb3dPolylineVertex
 10
-7.83125877380371
 20
-0.000005985700227
 30
109.5315704345703
 70
    32
  0
VERTEX
  5
1AD
330
F7
100
AcDbEntity
  8
0
 62
   251
420
  5658198
100
AcDbVertex
100
AcDb3dPolylineVertex
 10
-7.648411273956298
 20
-0.0000058489563344
 30
109.5604248046875
 70
    32
  0
VERTEX
  5
1AE
330
F7
100
AcDbEntity
  8
0
 62
   251
420
  5658198
100
AcDbVertex
100
AcDb3dPolylineVertex
 10
-7.469654560089111
 20
-0.0000057093948271
 30
109.5996932983398
 70
    32
  0
VERTEX
  5
1AF
330
F7
100
AcDbEntity
  8
0
 62
   251
420
  5658198
100
AcDbVertex
100
AcDb3dPolylineVertex
 10
-7.337778568267822
 20
-0.0000055901382439
 30
109.6379089355469
 70
    32
  0
VERTEX
  5
1B0
330
F7
100
AcDbEntity
  8
0
 62
   251
420
  5658198
100
AcDbVertex
100
AcDb3dPolylineVertex
 10
-7.208953380584716
 20
-0.0000054553593145
 30
109.6843338012695
 70
    32
  0
VERTEX
  5
1B1
330
F7
100
AcDbEntity
  8
0
 62
   251
420
  5658198
100
AcDbVertex
100
AcDb3dPolylineVertex
 10
-7.083417415618896
 20
-0.0000053124913393
 30
109.7386474609375
 70
    32
  0
VERTEX
  5
1B2
330
F7
100
AcDbEntity
  8
0
 62
   251
420
  5658198
100
AcDbVertex
100
AcDb3dPolylineVertex
 10
-6.961410045623779
 20
-0.0000051689667089
 30
109.8005218505859
 70
    32
  0
VERTEX
  5
1B3
330
F7
100
AcDbEntity
  8
0
 62
   251
420
  5658198
100
AcDbVertex
100
AcDb3dPolylineVertex
 10
-6.843169689178466
 20
-0.000005032215995
 30
109.8696136474609
 70
    32
  0
VERTEX
  5
1B4
330
F7
100
AcDbEntity
  8
0
 62
   251
420
  5658198
100
AcDbVertex
100
AcDb3dPolylineVertex
 10
-6.72893476486206
 20
-0.0000049096734074
 30
109.9455871582031
 70
    32
  0
VERTEX
  5
1B5
330
F7
100
AcDbEntity
  8
0
 62
   251
420
  5658198
100
AcDbVertex
100
AcDb3dPolylineVertex
 10
-6.618945121765136
 20
-0.0000048087704272
 30
110.0281372070312
 70
    32
  0
VERTEX
  5
1B6
330
F7
100
AcDbEntity
  8
0
 62
   251
420
  5658198
100
AcDbVertex
100
AcDb3dPolylineVertex
 10
-6.51343822479248
 20
-0.0000047369385356
 30
110.1168975830078
 70
    32
  0
VERTEX
  5
1B7
330
F7
100
AcDbEntity
  8
0
 62
   251
420
  5658198
100
AcDbVertex
100
AcDb3dPolylineVertex
 10
-6.42171287536621
 20
-0.0000046959585234
 30
110.2027435302734
 70
    32
  0
VERTEX
  5
1B8
330
F7
100
AcDbEntity
  8
0
 62
   251
420
  5658198
100
AcDbVertex
100
AcDb3dPolylineVertex
 10
-6.334650993347167
 20
-0.0000046711420509
 30
110.2930297851562
 70
    32
  0
VERTEX
  5
1B9
330
F7
100
AcDbEntity
  8
0
 62
   251
420
  5658198
100
AcDbVertex
100
AcDb3dPolylineVertex
 10
-6.252511501312255
 20
-0.0000046599075176
 30
110.3876113891601
 70
    32
  0
VERTEX
  5
1BA
330
F7
100
AcDbEntity
  8
0
 62
   251
420
  5658198
100
AcDbVertex
100
AcDb3dPolylineVertex
 10
-6.175554275512695
 20
-0.0000046596705943
 30
110.486343383789
 70
    32
  0
VERTEX
  5
1BB
330
F7
100
AcDbEntity
  8
0
 62
   251
420
  5658198
100
AcDbVertex
100
AcDb3dPolylineVertex
 10
-6.10403823852539
 20
-0.0000046678483159
 30
110.5890731811523
 70
    32
  0
VERTEX
  5
1BC
330
F7
100
AcDbEntity
  8
0
 62
   251
420
  5658198
100
AcDbVertex
100
AcDb3dPolylineVertex
 10
-6.038222312927246
 20
-0.000004681858627
 30
110.6956634521484
 70
    32
  0
VERTEX
  5
1BD
330
F7
100
AcDbEntity
  8
0
 62
   251
420
  5658198
100
AcDbVertex
100
AcDb3dPolylineVertex
 10
-5.978365898132324
 20
-0.0000046991171985
 30
110.8059768676758
 70
    32
  0
VERTEX
  5
1BE
330
F7
100
AcDbEntity
  8
0
 62
   251
420
  5658198
100
AcDbVertex
100
AcDb3dPolylineVertex
 10
-5.924728393554687
 20
-0.0000047170428843
 30
110.9198608398437
 70
    32
  0
VERTEX
  5
1BF
330
F7
100
AcDbEntity
  8
0
 62
   251
420
  5658198
100
AcDbVertex
100
AcDb3dPolylineVertex
 10
-5.893569946289062
 20
-0.0000047281623665
 30
110.994873046875
 70
    32
  0
VERTEX
  5
1C0
330
F7
100
AcDbEntity
  8
0
 62
   251
420
  5658198
100
AcDbVertex
100
AcDb3dPolylineVertex
 10
-5.865083217620849
 20
-0.0000047390622058
 30
111.0708923339843
 70
    32
  0
VERTEX
  5
1C1
330
F7
100
AcDbEntity
  8
0
 62
   251
420
  5658198
100
AcDbVertex
100
AcDb3dPolylineVertex
 10
-5.816109657287597
 20
-0.0000047599596655
 30
111.2256774902343
 70
    32
  0
VERTEX
  5
1C2
330
F7
100
AcDbEntity
  8
0
 62
   251
420
  5658198
100
AcDbVertex
100
AcDb3dPolylineVertex
 10
-5.777779102325439
 20
-0.0000047792441364
 30
111.3836364746094
 70
    32
  0
VERTEX
  5
1C3
330
F7
100
AcDbEntity
  8
0
 62
   251
420
  5658198
100
AcDbVertex
100
AcDb3dPolylineVertex
 10
-5.750062942504882
 20
-0.0000047964222176
 30
111.5442199707031
 70
    32
  0
VERTEX
  5
1C4
330
F7
100
AcDbEntity
  8
0
 62
   251
420
  5658198
100
AcDbVertex
100
AcDb3dPolylineVertex
 10
-5.732931613922119
 20
-0.0000048110046009
 30
111.7068481445312
 70
    32
  0
VERTEX
  5
1C5
330
F7
100
AcDbEntity
  8
0
 62
   251
420
  5658198
100
AcDbVertex
100
AcDb3dPolylineVertex
 10
-5.726356506347656
 20
-0.0000048224974307
 30
111.8709564208984
 70
    32
  0
VERTEX
  5
1C6
330
F7
100
AcDbEntity
  8
0
 62
   251
420
  5658198
100
AcDbVertex
100
AcDb3dPolylineVertex
 10
-5.730308532714843
 20
-0.0000048304095799
 30
112.0359649658203
 70
    32
  0
VERTEX
  5
1C7
330
F7
100
AcDbEntity
  8
0
 62
   251
420
  5658198
100
AcDbVertex
100
AcDb3dPolylineVertex
 10
-5.744759082794189
 20
-0.0000048342481023
 30
112.2013244628906
 70
    32
  0
VERTEX
  5
1C8
330
F7
100
AcDbEntity
  8
0
 62
   251
420
  5658198
100
AcDbVertex
100
AcDb3dPolylineVertex
 10
-5.769679069519042
 20
-0.0000048335227802
 30
112.366455078125
 70
    32
  0
VERTEX
  5
1C9
330
F7
100
AcDbEntity
  8
0
 62
   251
420
  5658198
100
AcDbVertex
100
AcDb3dPolylineVertex
 10
-5.805039882659912
 20
-0.0000048277402129
 30
112.5307922363281
 70
    32
  0
VERTEX
  5
1CA
330
F7
100
AcDbEntity
  8
0
 62
   251
420
  5658198
100
AcDbVertex
100
AcDb3dPolylineVertex
 10
-5.850811958312988
 20
-0.0000048164092732
 30
112.6937713623047
 70
    32
  0
VERTEX
  5
1CB
330
F7
100
AcDbEntity
  8
0
 62
   251
420
  5658198
100
AcDbVertex
100
AcDb3dPolylineVertex
 10
-5.906966686248779
 20
-0.0000047990379244
 30
112.8548126220703
 70
    32
  0
VERTEX
  5
1CC
330
F7
100
AcDbEntity
  8
0
 62
   251
420
  5658198
100
AcDbVertex
100
AcDb3dPolylineVertex
 10
-5.973474979400634
 20
-0.0000047751336751
 30
113.0133666992187
 70
    32
  0
VERTEX
  5
1CD
330
F7
100
AcDbEntity
  8
0
 62
   251
420
  5658198
100
AcDbVertex
100
AcDb3dPolylineVertex
 10
-6.050308227539062
 20
-0.0000047442058531
 30
113.1688461303711
 70
    32
  0
VERTEX
  5
1CE
330
F7
100
AcDbEntity
  8
0
 62
   251
420
  5658198
100
AcDbVertex
100
AcDb3dPolylineVertex
 10
-6.137436866760253
 20
-0.0000047057619668
 30
113.3206939697265
 70
    32
  0
VERTEX
  5
1CF
330
F7
100
AcDbEntity
  8
0
 62
   251
420
  5658198
100
AcDbVertex
100
AcDb3dPolylineVertex
 10
-6.234833240509033
 20
-0.0000046593095249
 30
113.4683456420898
 70
    32
  0
VERTEX
  5
1D0
330
F7
100
AcDbEntity
  8
0
 62
   251
420
  5658198
100
AcDbVertex
100
AcDb3dPolylineVertex
 10
-6.508977890014648
 20
-0.0000045281717576
 30
113.8307418823242
 70
    32
  0
VERTEX
  5
1D1
330
F7
100
AcDbEntity
  8
0
 62
   251
420
  5658198
100
AcDbVertex
100
AcDb3dPolylineVertex
 10
-6.807897567749023
 20
-0.0000043994423322
 30
114.189826965332
 70
    32
  0
VERTEX
  5
1D2
330
F7
100
AcDbEntity
  8
0
 62
   251
420
  5658198
100
AcDbVertex
100
AcDb3dPolylineVertex
 10
-7.424768924713134
 20
-0.0000042136580305
 30
114.9046249389648
 70
    32
  0
VERTEX
  5
1D3
330
F7
100
AcDbEntity
  8
0
 62
   251
420
  5658198
100
AcDbVertex
100
AcDb3dPolylineVertex
 10
-7.952557563781738
 20
-0.0000041060279727
 30
115.5612487792968
 70
    32
  0
VERTEX
  5
1D4
330
F7
100
AcDbEntity
  8
0
 62
   251
420
  5658198
100
AcDbVertex
100
AcDb3dPolylineVertex
 10
-8.450804710388183
 20
-0.0000040050581447
 30
116.2405929565429
 70
    32
  0
VERTEX
  5
1D5
330
F7
100
AcDbEntity
  8
0
 62
   251
420
  5658198
100
AcDbVertex
100
AcDb3dPolylineVertex
 10
-8.918756484985351
 20
-0.0000039577262214
 30
116.9416809082031
 70
    32
  0
VERTEX
  5
1D6
330
F7
100
AcDbEntity
  8
0
 62
   251
420
  5658198
100
AcDbVertex
100
AcDb3dPolylineVertex
 10
-9.355659484863281
 20
-0.00000401100624
 30
117.6635437011718
 70
    32
  0
VERTEX
  5
1D7
330
F7
100
AcDbEntity
  8
0
 62
   251
420
  5658198
100
AcDbVertex
100
AcDb3dPolylineVertex
 10
-9.961858749389648
 20
-0.000004197096132
 30
118.8057556152344
 70
    32
  0
VERTEX
  5
1D8
330
F7
100
AcDbEntity
  8
0
 62
   251
420
  5658198
100
AcDbVertex
100
AcDb3dPolylineVertex
 10
-10.48922538757324
 20
-0.0000043895070121
 30
119.9867706298828
 70
    32
  0
VERTEX
  5
1D9
330
F7
100
AcDbEntity
  8
0
 62
   251
420
  5658198
100
AcDbVertex
100
AcDb3dPolylineVertex
 10
-10.935640335083
 20
-0.0000045872870942
 30
121.2007293701172
 70
    32
  0
VERTEX
  5
1DA
330
F7
100
AcDbEntity
  8
0
 62
   251
420
  5658198
100
AcDbVertex
100
AcDb3dPolylineVertex
 10
-11.29898262023925
 20
-0.0000047894800446
 30
122.4417877197265
 70
    32
  0
VERTEX
  5
1DB
330
F7
100
AcDbEntity
  8
0
 62
   251
420
  5658198
100
AcDbVertex
100
AcDb3dPolylineVertex
 10
-11.41064643859863
 20
-0.000004865576102
 30
122.9122924804687
 70
    32
  0
VERTEX
  5
1DC
330
F7
100
AcDbEntity
  8
0
 62
   251
420
  5658198
100
AcDbVertex
100
AcDb3dPolylineVertex
 10
-11.50588035583496
 20
-0.0000049412647058
 30
123.3867263793945
 70
    32
  0
VERTEX
  5
1DD
330
F7
100
AcDbEntity
  8
0
 62
   251
420
  5658198
100
AcDbVertex
100
AcDb3dPolylineVertex
 10
-11.64912796020508
 20
-0.0000050914163694
 30
124.3447952270507
 70
    32
  0
VERTEX
  5
1DE
330
F7
100
AcDbEntity
  8
0
 62
   251
420
  5658198
100
AcDbVertex
100
AcDb3dPolylineVertex
 10
-11.73287200927734
 20
-0.0000052399373089
 30
125.3108215332031
 70
    32
  0
VERTEX
  5
1DF
330
F7
100
AcDbEntity
  8
0
 62
   251
420
  5658198
100
AcDbVertex
100
AcDb3dPolylineVertex
 10
-11.76125335693359
 20
-0.0000053868297982
 30
126.2796478271484
 70
    32
  0
VERTEX
  5
1E0
330
F7
100
AcDbEntity
  8
0
 62
   251
420
  5658198
100
AcDbVertex
100
AcDb3dPolylineVertex
 10
-11.77388763427734
 20
-0.0000054842857935
 30
126.9248809814453
 70
    32
  0
VERTEX
  5
1E1
330
F7
100
AcDbEntity
  8
0
 62
   251
420
  5658198
100
AcDbVertex
100
AcDb3dPolylineVertex
 10
-11.79420471191406
 20
-0.0000055323416746
 30
127.2414093017578
 70
    32
  0
VERTEX
  5
1E2
330
F7
100
AcDbEntity
  8
0
 62
   251
420
  5658198
100
AcDbVertex
100
AcDb3dPolylineVertex
 10
-11.82880401611328
 20
-0.0000055798723224
 30
127.552505493164
 70
    32
  0
VERTEX
  5
1E3
330
F7
100
AcDbEntity
  8
0
 62
   251
420
  5658198
100
AcDbVertex
100
AcDb3dPolylineVertex
 10
-11.85065841674805
 20
-0.0000056012545429
 30
127.6913452148437
 70
    32
  0
VERTEX
  5
1E4
330
F7
100
AcDbEntity
  8
0
 62
   251
420
  5658198
100
AcDbVertex
100
AcDb3dPolylineVertex
 10
-11.87740516662597
 20
-0.0000056226240304
 30
127.8290557861328
 70
    32
  0
VERTEX
  5
1E5
330
F7
100
AcDbEntity
  8
0
 62
   251
420
  5658198
100
AcDbVertex
100
AcDb3dPolylineVertex
 10
-11.90912246704101
 20
-0.0000056439121181
 30
127.9652862548828
 70
    32
  0
VERTEX
  5
1E6
330
F7
100
AcDbEntity
  8
0
 62
   251
420
  5658198
100
AcDbVertex
100
AcDb3dPolylineVertex
 10
-11.94589614868164
 20
-0.000005665052413
 30
128.0997009277343
 70
    32
  0
VERTEX
  5
1E7
330
F7
100
AcDbEntity
  8
0
 62
   251
420
  5658198
100
AcDbVertex
100
AcDb3dPolylineVertex
 10
-11.98780345916748
 20
-0.0000056859771576
 30
128.2319793701172
 70
    32
  0
VERTEX
  5
1E8
330
F7
100
AcDbEntity
  8
0
 62
   251
420
  5658198
100
AcDbVertex
100
AcDb3dPolylineVertex
 10
-12.03492641448974
 20
-0.0000057066167756
 30
128.3617553710937
 70
    32
  0
VERTEX
  5
1E9
330
F7
100
AcDbEntity
  8
0
 62
   251
420
  5658198
100
AcDbVertex
100
AcDb3dPolylineVertex
 10
-12.08734512329101
 20
-0.0000057269057834
 30
128.4887237548828
 70
    32
  0
VERTEX
  5
1EA
330
F7
100
AcDbEntity
  8
0
 62
   251
420
  5658198
100
AcDbVertex
100
AcDb3dPolylineVertex
 10
-12.14514350891113
 20
-0.0000057467746046
 30
128.6125183105468
 70
    32
  0
VERTEX
  5
1EB
330
F7
100
AcDbEntity
  8
0
 62
   251
420
  5658198
100
AcDbVertex
100
AcDb3dPolylineVertex
 10
-12.20839881896973
 20
-0.0000057661568462
 30
128.7328338623047
 70
    32
  0
VERTEX
  5
1EC
330
F7
100
AcDbEntity
  8
0
 62
   251
420
  5658198
100
AcDbVertex
100
AcDb3dPolylineVertex
 10
-12.27719497680664
 20
-0.0000057849852055
 30
128.8493041992187
 70
    32
  0
VERTEX
  5
1ED
330
F7
100
AcDbEntity
  8
0
 62
   251
420
  5658198
100
AcDbVertex
100
AcDb3dPolylineVertex
 10
-12.35161018371582
 20
-0.0000058031891967
 30
128.9615783691406
 70
    32
  0
VERTEX
  5
1EE
330
F7
100
AcDbEntity
  8
0
 62
   251
420
  5658198
100
AcDbVertex
100
AcDb3dPolylineVertex
 10
-12.43172836303711
 20
-0.0000058207047005
 30
129.0693664550781
 70
    32
  0
VERTEX
  5
1EF
330
F7
100
AcDbEntity
  8
0
 62
   251
420
  5658198
100
AcDbVertex
100
AcDb3dPolylineVertex
 10
-12.51762771606445
 20
-0.0000058374621403
 30
129.1723022460937
 70
    32
  0
VERTEX
  5
1F0
330
F7
100
AcDbEntity
  8
0
 62
   251
420
  5658198
100
AcDbVertex
100
AcDb3dPolylineVertex
 10
-12.60939025878906
 20
-0.000005853393759
 30
129.2700500488281
 70
    32
  0
VERTEX
  5
1F1
330
F7
100
AcDbEntity
  8
0
 62
   251
420
  5658198
100
AcDbVertex
100
AcDb3dPolylineVertex
 10
-12.70709800720215
 20
-0.0000058684331634
 30
129.3622741699218
 70
    32
  0
VERTEX
  5
1F2
330
F7
100
AcDbEntity
  8
0
 62
   251
420
  5658198
100
AcDbVertex
100
AcDb3dPolylineVertex
 10
-12.81083106994629
 20
-0.0000058825103224
 30
129.4486389160156
 70
    32
  0
VERTEX
  5
1F3
330
F7
100
AcDbEntity
  8
0
 62
   251
420
  5658198
100
AcDbVertex
100
AcDb3dPolylineVertex
 10
-12.86249256134033
 20
-0.0000058958689806
 30
129.4872436523437
 70
    32
  0
VERTEX
  5
1F4
330
F7
100
AcDbEntity
  8
0
 62
   251
420
  5658198
100
AcDbVertex
100
AcDb3dPolylineVertex
 10
-12.9155044555664
 20
-0.0000059224571487
 30
129.5236053466797
 70
    32
  0
VERTEX
  5
1F5
330
F7
100
AcDbEntity
  8
0
 62
   251
420
  5658198
100
AcDbVertex
100
AcDb3dPolylineVertex
 10
-12.96981620788574
 20
-0.0000059614681049
 30
129.5577392578125
 70
    32
  0
VERTEX
  5
1F6
330
F7
100
AcDbEntity
  8
0
 62
   251
420
  5658198
100
AcDbVertex
100
AcDb3dPolylineVertex
 10
-13.02537536621094
 20
-0.0000060121060415
 30
129.5897521972656
 70
    32
  0
VERTEX
  5
1F7
330
F7
100
AcDbEntity
  8
0
 62
   251
420
  5658198
100
AcDbVertex
100
AcDb3dPolylineVertex
 10
-13.08213233947754
 20
-0.0000060735701481
 30
129.6197052001953
 70
    32
  0
VERTEX
  5
1F8
330
F7
100
AcDbEntity
  8
0
 62
   251
420
  5658198
100
AcDbVertex
100
AcDb3dPolylineVertex
 10
-13.14003753662109
 20
-0.0000061450596149
 30
129.6476593017578
 70
    32
  0
VERTEX
  5
1F9
330
F7
100
AcDbEntity
  8
0
 62
   251
420
  5658198
100
AcDbVertex
100
AcDb3dPolylineVertex
 10
-13.25909042358398
 20
-0.0000063149145717
 30
129.6978454589843
 70
    32
  0
VERTEX
  5
1FA
330
F7
100
AcDbEntity
  8
0
 62
   251
420
  5658198
100
AcDbVertex
100
AcDb3dPolylineVertex
 10
-13.38212585449219
 20
-0.0000065152707975
 30
129.7408752441406
 70
    32
  0
VERTEX
  5
1FB
330
F7
100
AcDbEntity
  8
0
 62
   251
420
  5658198
100
AcDbVertex
100
AcDb3dPolylineVertex
 10
-13.50874519348144
 20
-0.0000067397272687
 30
129.7772979736328
 70
    32
  0
VERTEX
  5
1FC
330
F7
100
AcDbEntity
  8
0
 62
   251
420
  5658198
100
AcDbVertex
100
AcDb3dPolylineVertex
 10
-13.63854026794433
 20
-0.0000069818843258
 30
129.8076477050781
 70
    32
  0
VERTEX
  5
1FD
330
F7
100
AcDbEntity
  8
0
 62
   251
420
  5658198
100
AcDbVertex
100
AcDb3dPolylineVertex
 10
-13.77110862731933
 20
-0.0000072353395808
 30
129.8324584960937
 70
    32
  0
VERTEX
  5
1FE
330
F7
100
AcDbEntity
  8
0
 62
   251
420
  5658198
100
AcDbVertex
100
AcDb3dPolylineVertex
 10
-14.0429515838623
 20
-0.0000077505428635
 30
129.8677520751953
 70
    32
  0
VERTEX
  5
1FF
330
F7
100
AcDbEntity
  8
0
 62
   251
420
  5658198
100
AcDbVertex
100
AcDb3dPolylineVertex
 10
-14.32104396820068
 20
-0.0000082341321104
 30
129.8875274658203
 70
    32
  0
VERTEX
  5
200
330
F7
100
AcDbEntity
  8
0
 62
   251
420
  5658198
100
AcDbVertex
100
AcDb3dPolylineVertex
 10
-14.88305473327637
 20
-0.0000089016375568
 30
129.8981018066406
 70
    32
  0
VERTEX
  5
201
330
F7
100
AcDbEntity
  8
0
 62
   251
420
  5658198
100
AcDbVertex
100
AcDb3dPolylineVertex
 10
-17.07665252685547
 20
-0.0000111033514258
 30
129.8981018066406
 70
    32
  0
VERTEX
  5
202
330
F7
100
AcDbEntity
  8
0
 62
   251
420
  5658198
100
AcDbVertex
100
AcDb3dPolylineVertex
 10
-17.07665252685547
 20
0.0000102898720797
 30
-1.224960327148437
 70
    32
  0
VERTEX
  5
203
330
F7
100
AcDbEntity
  8
0
 62
   251
420
  5658198
100
AcDbVertex
100
AcDb3dPolylineVertex
 10
0.4478006362915039
 20
0.0000102898720797
 30
-1.224960327148437
 70
    32
  0
VERTEX
  5
204
330
F7
100
AcDbEntity
  8
0
 62
   251
420
  5658198
100
AcDbVertex
100
AcDb3dPolylineVertex
 10
0.447803020477295
 20
-0.0000014250090317
 30
62.89156341552734
 70
    32
  0
VERTEX
  5
205
330
F7
100
AcDbEntity
  8
0
 62
   251
420
  5658198
100
AcDbVertex
100
AcDb3dPolylineVertex
 10
0.4285774230957032
 20
-0.0000017269139789
 30
63.56739807128906
 70
    32
  0
VERTEX
  5
206
330
F7
100
AcDbEntity
  8
0
 62
   251
420
  5658198
100
AcDbVertex
100
AcDb3dPolylineVertex
 10
0.3978757858276367
 20
-0.0000019783124117
 30
63.90043258666992
 70
    32
  0
VERTEX
  5
207
330
F7
100
AcDbEntity
  8
0
 62
   251
420
  5658198
100
AcDbVertex
100
AcDb3dPolylineVertex
 10
0.375307559967041
 20
-0.0000021166242732
 30
64.06419372558594
 70
    32
  0
VERTEX
  5
208
330
F7
100
AcDbEntity
  8
0
 62
   251
420
  5658198
100
AcDbVertex
100
AcDb3dPolylineVertex
 10
0.3471865653991699
 20
-0.0000022585813895
 30
64.22552490234375
 70
    32
  0
VERTEX
  5
209
330
F7
100
AcDbEntity
  8
0
 62
   251
420
  5658198
100
AcDbVertex
100
AcDb3dPolylineVertex
 10
0.3129572868347168
 20
-0.0000024006139938
 30
64.38398742675781
 70
    32
  0
VERTEX
  5
20A
330
F7
100
AcDbEntity
  8
0
 62
   251
420
  5658198
100
AcDbVertex
100
AcDb3dPolylineVertex
 10
0.2720637321472168
 20
-0.0000025391507279
 30
64.53914642333984
 70
    32
  0
VERTEX
  5
20B
330
F7
100
AcDbEntity
  8
0
 62
   251
420
  5658198
100
AcDbVertex
100
AcDb3dPolylineVertex
 10
0.2239508628845215
 20
-0.0000026706195513
 30
64.69055938720703
 70
    32
  0
VERTEX
  5
20C
330
F7
100
AcDbEntity
  8
0
 62
   251
420
  5658198
100
AcDbVertex
100
AcDb3dPolylineVertex
 10
0.1680607795715332
 20
-0.0000027914500151
 30
64.83779144287109
 70
    32
  0
VERTEX
  5
20D
330
F7
100
AcDbEntity
  8
0
 62
   251
420
  5658198
100
AcDbVertex
100
AcDb3dPolylineVertex
 10
0.1038393974304199
 20
-0.0000028980705338
 30
64.98039245605468
 70
    32
  0
VERTEX
  5
20E
330
F7
100
AcDbEntity
  8
0
 62
   251
420
  5658198
100
AcDbVertex
100
AcDb3dPolylineVertex
 10
0.030731201171875
 20
-0.0000029869099762
 30
65.11793518066406
 70
    32
  0
VERTEX
  5
20F
330
F7
100
AcDbEntity
  8
0
 62
   251
420
  5658198
100
AcDbVertex
100
AcDb3dPolylineVertex
 10
-0.0093297958374023
 20
-0.0000030235455597
 30
65.18467712402344
 70
    32
  0
VERTEX
  5
210
330
F7
100
AcDbEntity
  8
0
 62
   251
420
  5658198
100
AcDbVertex
100
AcDb3dPolylineVertex
 10
-0.051821231842041
 20
-0.0000030543969842
 30
65.2499771118164
 70
    32
  0
VERTEX
  5
211
330
F7
100
AcDbEntity
  8
0
 62
   251
420
  5658198
100
AcDbVertex
100
AcDb3dPolylineVertex
 10
-0.0968117713928223
 20
-0.0000030790172332
 30
65.31379699707031
 70
    32
  0
VERTEX
  5
212
330
F7
100
AcDbEntity
  8
0
 62
   251
420
  5658198
100
AcDbVertex
100
AcDb3dPolylineVertex
 10
-0.1443715095520019
 20
-0.000003096959972
 30
65.3760757446289
 70
    32
  0
VERTEX
  5
213
330
F7
100
AcDbEntity
  8
0
 62
   251
420
  5658198
100
AcDbVertex
100
AcDb3dPolylineVertex
 10
-0.2517118453979492
 20
-0.0000031249726362
 30
65.50379943847656
 70
    32
  0
VERTEX
  5
214
330
F7
100
AcDbEntity
  8
0
 62
   251
420
  5658198
100
AcDbVertex
100
AcDb3dPolylineVertex
 10
-0.366154670715332
 20
-0.0000031482613849
 30
65.62599182128906
 70
    32
  0
VERTEX
  5
215
330
F7
100
AcDbEntity
  8
0
 62
   251
420
  5658198
100
AcDbVertex
100
AcDb3dPolylineVertex
 10
-0.4871597290039063
 20
-0.0000031676495382
 30
65.74229431152343
 70
    32
  0
VERTEX
  5
216
330
F7
100
AcDbEntity
  8
0
 62
   251
420
  5658198
100
AcDbVertex
100
AcDb3dPolylineVertex
 10
-0.6141877174377442
 20
-0.000003183959052
 30
65.85232543945313
 70
    32
  0
VERTEX
  5
217
330
F7
100
AcDbEntity
  8
0
 62
   251
420
  5658198
100
AcDbVertex
100
AcDb3dPolylineVertex
 10
-0.7466979026794434
 20
-0.0000031980132462
 30
65.95573425292968
 70
    32
  0
VERTEX
  5
218
330
F7
100
AcDbEntity
  8
0
 62
   251
420
  5658198
100
AcDbVertex
100
AcDb3dPolylineVertex
 10
-0.8841514587402343
 20
-0.0000032106336221
 30
66.05214691162109
 70
    32
  0
VERTEX
  5
219
330
F7
100
AcDbEntity
  8
0
 62
   251
420
  5658198
100
AcDbVertex
100
AcDb3dPolylineVertex
 10
-1.026008129119873
 20
-0.0000032226441817
 30
66.14120483398437
 70
    32
  0
VERTEX
  5
21A
330
F7
100
AcDbEntity
  8
0
 62
   251
420
  5658198
100
AcDbVertex
100
AcDb3dPolylineVertex
 10
-1.171727657318115
 20
-0.0000032348661989
 30
66.2225341796875
 70
    32
  0
VERTEX
  5
21B
330
F7
100
AcDbEntity
  8
0
 62
   251
420
  5658198
100
AcDbVertex
100
AcDb3dPolylineVertex
 10
-1.292921066284179
 20
-0.0000032316322631
 30
66.28177642822265
 70
    32
  0
VERTEX
  5
21C
330
F7
100
AcDbEntity
  8
0
 62
   251
420
  5658198
100
AcDbVertex
100
AcDb3dPolylineVertex
 10
-1.416868209838867
 20
-0.000003202988637
 30
66.33413696289062
 70
    32
  0
VERTEX
  5
21D
330
F7
100
AcDbEntity
  8
0
 62
   251
420
  5658198
100
AcDbVertex
100
AcDb3dPolylineVertex
 10
-1.54338264465332
 20
-0.0000031512254282
 30
66.38005065917969
 70
    32
  0
VERTEX
  5
21E
330
F7
100
AcDbEntity
  8
0
 62
   251
420
  5658198
100
AcDbVertex
100
AcDb3dPolylineVertex
 10
-1.672279834747314
 20
-0.0000030786320622
 30
66.41993713378906
 70
    32
  0
VERTEX
  5
21F
330
F7
100
AcDbEntity
  8
0
 62
   251
420
  5658198
100
AcDbVertex
100
AcDb3dPolylineVertex
 10
-1.803375244140625
 20
-0.0000029874986467
 30
66.4542007446289
 70
    32
  0
VERTEX
  5
220
330
F7
100
AcDbEntity
  8
0
 62
   251
420
  5658198
100
AcDbVertex
100
AcDb3dPolylineVertex
 10
-1.936482429504394
 20
-0.0000028801143799
 30
66.4832763671875
 70
    32
  0
VERTEX
  5
221
330
F7
100
AcDbEntity
  8
0
 62
   251
420
  5658198
100
AcDbVertex
100
AcDb3dPolylineVertex
 10
-2.207990646362304
 20
-0.0000026257530408
 30
66.52752685546875
 70
    32
  0
VERTEX
  5
222
330
F7
100
AcDbEntity
  8
0
 62
   251
420
  5658198
100
AcDbVertex
100
AcDb3dPolylineVertex
 10
-2.485321521759033
 20
-0.0000023338648134
 30
66.55605316162109
 70
    32
  0
VERTEX
  5
223
330
F7
100
AcDbEntity
  8
0
 62
   251
420
  5658198
100
AcDbVertex
100
AcDb3dPolylineVertex
 10
-2.766993045806884
 20
-0.0000020227671484
 30
66.57221984863281
 70
    32
  0
VERTEX
  5
224
330
F7
100
AcDbEntity
  8
0
 62
   251
420
  5658198
100
AcDbVertex
100
AcDb3dPolylineVertex
 10
-3.337422132492065
 20
-0.0000014162133084
 30
66.58087921142578
 70
    32
  0
SEQEND
  5
225
330
F7
100
AcDbEntity
  8
0
 62
   251
420
  5658198
  0
ENDSEC
  0
SECTION
  2
OBJECTS
  0
DICTIONARY
  5
C
330
0
100
AcDbDictionary
281
     1
  3
ACAD_COLOR
350
DC
  3
ACAD_DETAILVIEWSTYLE
350
F5
  3
ACAD_GROUP
350
D
  3
ACAD_LAYOUT
350
1A
  3
ACAD_MATERIAL
350
AA
  3
ACAD_MLEADERSTYLE
350
F1
  3
ACAD_MLINESTYLE
350
17
  3
ACAD_PLOTSETTINGS
350
19
  3
ACAD_PLOTSTYLENAME
350
E
  3
ACAD_SCALELIST
350
DF
  3
ACAD_SECTIONVIEWSTYLE
350
F3
  3
ACAD_TABLESTYLE
350
DD
  3
ACAD_VISUALSTYLE
350
C3
  3
ACDB_RECOMPOSE_DATA
350
232
  3
AcDbVariableDictionary
350
226
  0
DICTIONARY
  5
DC
102
{ACAD_REACTORS
330
C
102
}
330
C
100
AcDbDictionary
281
     1
  0
DICTIONARY
  5
F5
102
{ACAD_REACTORS
330
C
102
}
330
C
100
AcDbDictionary
281
     1
  3
Imperial24
350
F6
  0
DICTIONARY
  5
D
102
{ACAD_REACTORS
330
C
102
}
330
C
100
AcDbDictionary
281
     1
  0
DICTIONARY
  5
1A
102
{ACAD_REACTORS
330
C
102
}
330
C
100
AcDbDictionary
281
     1
  3
Layout1
350
1E
  3
Layout2
350
26
  3
Model
350
22
  0
DICTIONARY
  5
AA
102
{ACAD_REACTORS
330
C
102
}
330
C
100
AcDbDictionary
281
     1
  3
ByBlock
350
B3
  3
ByLayer
350
AB
  3
Global
350
BB
  0
DICTIONARY
  5
F1
102
{ACAD_REACTORS
330
C
102
}
330
C
100
AcDbDictionary
281
     1
  3
Standard
350
F2
  0
DICTIONARY
  5
17
102
{ACAD_REACTORS
330
C
102
}
330
C
100
AcDbDictionary
281
     1
  3
Standard
350
18
  0
DICTIONARY
  5
19
102
{ACAD_REACTORS
330
C
102
}
330
C
100
AcDbDictionary
281
     1
  0
ACDBDICTIONARYWDFLT
  5
E
102
{ACAD_REACTORS
330
C
102
}
330
C
100
AcDbDictionary
281
     1
  3
ByLayer
350
2D
  3
Normal
350
F
100
AcDbDictionaryWithDefault
340
F
  0
DICTIONARY
  5
DF
102
{ACAD_REACTORS
330
C
102
}
330
C
100
AcDbDictionary
281
     1
  3
A0
350
E0
  3
A1
350
E1
  3
A2
350
E2
  3
A3
350
E3
  3
A4
350
E4
  3
A5
350
E5
  3
A6
350
E6
  3
A7
350
E7
  3
A8
350
E8
  3
A9
350
E9
  3
B0
350
EA
  3
B1
350
EB
  3
B2
350
EC
  3
B3
350
ED
  3
B4
350
EE
  3
B5
350
EF
  3
B6
350
F0
  0
DICTIONARY
  5
F3
102
{ACAD_REACTORS
330
C
102
}
330
C
100
AcDbDictionary
281
     1
  3
Imperial24
350
F4
  0
DICTIONARY
  5
DD
102
{ACAD_REACTORS
330
C
102
}
330
C
100
AcDbDictionary
281
     1
  3
Standard
350
DE
  0
DICTIONARY
  5
C3
102
{ACAD_REACTORS
330
C
102
}
330
C
100
AcDbDictionary
281
     1
  3
2dWireframe
350
C9
  3
Basic
350
C8
  3
Brighten
350
CF
  3
ColorChange
350
D3
  3
Conceptual
350
CC
  3
Dim
350
CE
  3
EdgeColorOff
350
DB
  3
Facepattern
350
D2
  3
Flat
350
C4
  3
FlatWithEdges
350
C5
  3
Gouraud
350
C6
  3
GouraudWithEdges
350
C7
  3
Hidden
350
CB
  3
JitterOff
350
D9
  3
Linepattern
350
D1
  3
OverhangOff
350
DA
  3
Realistic
350
CD
  3
Shaded
350
D8
  3
Shaded with edges
350
D7
  3
Shades of Gray
350
D4
  3
Sketchy
350
D5
  3
Thicken
350
D0
  3
Wireframe
350
CA
  3
X-Ray
350
D6
  0
XRECORD
  5
232
102
{ACAD_REACTORS
330
C
102
}
330
C
100
AcDbXrecord
280
     1
 90
        1
330
DE
  0
DICTIONARY
  5
226
102
{ACAD_REACTORS
330
C
102
}
330
C
100
AcDbDictionary
281
     1
  3
CANNOSCALE
350
22C
  3
CMLEADERSTYLE
350
228
  3
CTABLESTYLE
350
227
  3
CVIEWDETAILSTYLE
350
229
  3
CVIEWSECTIONSTYLE
350
22A
  3
LAYEREVAL
350
22E
  3
LAYERNOTIFY
350
22F
  3
LIGHTINGUNITS
350
22D
  3
MSLTSCALE
350
22B
  0
ACDBDETAILVIEWSTYLE
  5
F6
102
{ACAD_XDICTIONARY
360
269
102
}
102
{ACAD_REACTORS
330
F5
102
}
330
F5
100
AcDbModelDocViewStyle
 70
     0
  3
Imperial24
290
     0
100
AcDbDetailViewStyle
 70
     0
 71
     0
 90
        3
 71
     1
340
11
 62
   256
 40
0.24
340
0
 62
   256
 40
0.24
300

 40
0.36
280
     3
 71
     2
340
16
 90
       25
 62
   256
 71
     3
340
11
 62
   256
 40
0.24
 90
        1
 40
0.75
 90
        1
300
%<\AcVar ViewType \f "%tc1">% %<\AcVar ViewDetailId>%\PSCALE %<\AcVar ViewScale \f "%sn">%
 71
     4
340
16
 90
       25
 62
   256
340
16
 90
       25
 62
   256
280
     0
  0
LAYOUT
  5
1E
102
{ACAD_REACTORS
330
1A
102
}
330
1A
100
AcDbPlotSettings
  1

  2
\\KTXNTBDC\CASF2PN1
  4

  6

 40
0.0
 41
0.0
 42
0.0
 43
0.0
 44
0.0
 45
0.0
 46
0.0
 47
0.0
 48
0.0
 49
0.0
140
0.0
141
0.0
142
1.0
143
1.0
 70
   688
 72
     0
 73
     0
 74
     5
  7

 75
    16
147
1.0
 76
     0
 77
     2
 78
   300
148
0.0
149
0.0
100
AcDbLayout
  1
Layout1
 70
     1
 71
     1
 10
0.0
 20
0.0
 11
12.0
 21
9.0
 12
0.0
 22
0.0
 32
0.0
 14
1.000000000000000E+20
 24
1.000000000000000E+20
 34
1.000000000000000E+20
 15
-1.000000000000000E+20
 25
-1.000000000000000E+20
 35
-1.000000000000000E+20
146
0.0
 13
0.0
 23
0.0
 33
0.0
 16
1.0
 26
0.0
 36
0.0
 17
0.0
 27
1.0
 37
0.0
 76
     0
330
1B
  0
LAYOUT
  5
26
102
{ACAD_REACTORS
330
1A
102
}
330
1A
100
AcDbPlotSettings
  1

  2
\\KTXNTBDC\CASF2PN1
  4

  6

 40
0.0
 41
0.0
 42
0.0
 43
0.0
 44
0.0
 45
0.0
 46
0.0
 47
0.0
 48
0.0
 49
0.0
140
0.0
141
0.0
142
1.0
143
1.0
 70
   688
 72
     0
 73
     0
 74
     5
  7

 75
    16
147
1.0
 76
     0
 77
     2
 78
   300
148
0.0
149
0.0
100
AcDbLayout
  1
Layout2
 70
     1
 71
     2
 10
0.0
 20
0.0
 11
12.0
 21
9.0
 12
0.0
 22
0.0
 32
0.0
 14
0.0
 24
0.0
 34
0.0
 15
0.0
 25
0.0
 35
0.0
146
0.0
 13
0.0
 23
0.0
 33
0.0
 16
1.0
 26
0.0
 36
0.0
 17
0.0
 27
1.0
 37
0.0
 76
     0
330
23
  0
LAYOUT
  5
22
102
{ACAD_REACTORS
330
1A
102
}
330
1A
100
AcDbPlotSettings
  1

  2
\\KTXNTBDC\CASF2PN1
  4

  6

 40
0.0
 41
0.0
 42
0.0
 43
0.0
 44
0.0
 45
0.0
 46
0.0
 47
0.0
 48
0.0
 49
0.0
140
0.0
141
0.0
142
1.0
143
1.0
 70
  1712
 72
     0
 73
     0
 74
     0
  7

 75
     0
147
1.0
 76
     0
 77
     2
 78
   300
148
0.0
149
0.0
100
AcDbLayout
  1
Model
 70
     1
 71
     0
 10
0.0
 20
0.0
 11
12.0
 21
9.0
 12
0.0
 22
0.0
 32
0.0
 14
0.0
 24
0.0
 34
0.0
 15
0.0
 25
0.0
 35
0.0
146
0.0
 13
0.0
 23
0.0
 33
0.0
 16
1.0
 26
0.0
 36
0.0
 17
0.0
 27
1.0
 37
0.0
 76
     0
330
1F
  0
MATERIAL
  5
B3
102
{ACAD_XDICTIONARY
360
B4
102
}
102
{ACAD_REACTORS
330
AA
102
}
330
AA
100
AcDbMaterial
  1
ByBlock
 72
     0
 43
0.0208333333333333
 43
0.0
 43
0.0
 43
0.0
 43
0.0
 43
0.0208333333333333
 43
0.0
 43
0.0
 43
0.0
 43
0.0
 43
1.0
 43
0.0
 43
0.0
 43
0.0
 43
0.0
 43
1.0
 77
     0
 47
0.0208333333333333
 47
0.0
 47
0.0
 47
0.0
 47
0.0
 47
0.0208333333333333
 47
0.0
 47
0.0
 47
0.0
 47
0.0
 47
1.0
 47
0.0
 47
0.0
 47
0.0
 47
0.0
 47
1.0
171
     0
 49
0.0208333333333333
 49
0.0
 49
0.0
 49
0.0
 49
0.0
 49
0.0208333333333333
 49
0.0
 49
0.0
 49
0.0
 49
0.0
 49
1.0
 49
0.0
 49
0.0
 49
0.0
 49
0.0
 49
1.0
175
     0
142
0.0208333333333333
142
0.0
142
0.0
142
0.0
142
0.0
142
0.0208333333333333
142
0.0
142
0.0
142
0.0
142
0.0
142
1.0
142
0.0
142
0.0
142
0.0
142
0.0
142
1.0
179
     0
144
0.0208333333333333
144
0.0
144
0.0
144
0.0
144
0.0
144
0.0208333333333333
144
0.0
144
0.0
144
0.0
144
0.0
144
1.0
144
0.0
144
0.0
144
0.0
144
0.0
144
1.0
147
0.0208333333333333
147
0.0
147
0.0
147
0.0
147
0.0
147
0.0208333333333333
147
0.0
147
0.0
147
0.0
147
0.0
147
1.0
147
0.0
147
0.0
147
0.0
147
0.0
147
1.0
  0
MATERIAL
  5
AB
102
{ACAD_XDICTIONARY
360
AC
102
}
102
{ACAD_REACTORS
330
AA
102
}
330
AA
100
AcDbMaterial
  1
ByLayer
 72
     0
 43
0.0208333333333333
 43
0.0
 43
0.0
 43
0.0
 43
0.0
 43
0.0208333333333333
 43
0.0
 43
0.0
 43
0.0
 43
0.0
 43
1.0
 43
0.0
 43
0.0
 43
0.0
 43
0.0
 43
1.0
 77
     0
 47
0.0208333333333333
 47
0.0
 47
0.0
 47
0.0
 47
0.0
 47
0.0208333333333333
 47
0.0
 47
0.0
 47
0.0
 47
0.0
 47
1.0
 47
0.0
 47
0.0
 47
0.0
 47
0.0
 47
1.0
171
     0
 49
0.0208333333333333
 49
0.0
 49
0.0
 49
0.0
 49
0.0
 49
0.0208333333333333
 49
0.0
 49
0.0
 49
0.0
 49
0.0
 49
1.0
 49
0.0
 49
0.0
 49
0.0
 49
0.0
 49
1.0
175
     0
142
0.0208333333333333
142
0.0
142
0.0
142
0.0
142
0.0
142
0.0208333333333333
142
0.0
142
0.0
142
0.0
142
0.0
142
1.0
142
0.0
142
0.0
142
0.0
142
0.0
142
1.0
179
     0
144
0.0208333333333333
144
0.0
144
0.0
144
0.0
144
0.0
144
0.0208333333333333
144
0.0
144
0.0
144
0.0
144
0.0
144
1.0
144
0.0
144
0.0
144
0.0
144
0.0
144
1.0
147
0.0208333333333333
147
0.0
147
0.0
147
0.0
147
0.0
147
0.0208333333333333
147
0.0
147
0.0
147
0.0
147
0.0
147
1.0
147
0.0
147
0.0
147
0.0
147
0.0
147
1.0
  0
MATERIAL
  5
BB
102
{ACAD_XDICTIONARY
360
BC
102
}
102
{ACAD_REACTORS
330
AA
102
}
330
AA
100
AcDbMaterial
  1
Global
 72
     0
 43
0.0208333333333333
 43
0.0
 43
0.0
 43
0.0
 43
0.0
 43
0.0208333333333333
 43
0.0
 43
0.0
 43
0.0
 43
0.0
 43
1.0
 43
0.0
 43
0.0
 43
0.0
 43
0.0
 43
1.0
 77
     0
 47
0.0208333333333333
 47
0.0
 47
0.0
 47
0.0
 47
0.0
 47
0.0208333333333333
 47
0.0
 47
0.0
 47
0.0
 47
0.0
 47
1.0
 47
0.0
 47
0.0
 47
0.0
 47
0.0
 47
1.0
171
     0
 49
0.0208333333333333
 49
0.0
 49
0.0
 49
0.0
 49
0.0
 49
0.0208333333333333
 49
0.0
 49
0.0
 49
0.0
 49
0.0
 49
1.0
 49
0.0
 49
0.0
 49
0.0
 49
0.0
 49
1.0
175
     0
142
0.0208333333333333
142
0.0
142
0.0
142
0.0
142
0.0
142
0.0208333333333333
142
0.0
142
0.0
142
0.0
142
0.0
142
1.0
142
0.0
142
0.0
142
0.0
142
0.0
142
1.0
179
     0
144
0.0208333333333333
144
0.0
144
0.0
144
0.0
144
0.0
144
0.0208333333333333
144
0.0
144
0.0
144
0.0
144
0.0
144
1.0
144
0.0
144
0.0
144
0.0
144
0.0
144
1.0
147
0.0208333333333333
147
0.0
147
0.0
147
0.0
147
0.0
147
0.0208333333333333
147
0.0
147
0.0
147
0.0
147
0.0
147
1.0
147
0.0
147
0.0
147
0.0
147
0.0
147
1.0
  0
MLEADERSTYLE
  5
F2
102
{ACAD_XDICTIONARY
360
265
102
}
102
{ACAD_REACTORS
330
F1
102
}
330
F1
100
AcDbMLeaderStyle
179
     2
170
     2
171
     1
172
     0
 90
        2
 40
0.0
 41
0.0
173
     1
 91
-1056964608
340
14
 92
       -2
290
     1
 42
0.09
291
     1
 43
0.36
  3
Standard
 44
0.18
300

342
11
174
     1
178
     6
175
     1
176
     0
 93
-1056964608
 45
0.18
292
     0
297
     0
 46
0.18
 94
-1056964608
 47
1.0
 49
1.0
140
1.0
293
     1
141
0.0
294
     1
177
     0
142
1.0
295
     0
296
     0
143
0.125
271
     0
272
     9
273
     9
  0
MLINESTYLE
  5
18
102
{ACAD_REACTORS
330
17
102
}
330
17
100
AcDbMlineStyle
  2
STANDARD
 70
     0
  3

 62
   256
 51
90.0
 52
90.0
 71
     2
 49
0.5
 62
   256
  6
BYLAYER
 49
-0.5
 62
   256
  6
BYLAYER
  0
ACDBPLACEHOLDER
  5
2D
102
{ACAD_REACTORS
330
E
102
}
330
E
  0
ACDBPLACEHOLDER
  5
F
102
{ACAD_REACTORS
330
E
102
}
330
E
  0
SCALE
  5
E0
102
{ACAD_REACTORS
330
DF
102
}
330
DF
100
AcDbScale
 70
     0
300
1:1
140
1.0
141
1.0
290
     1
  0
SCALE
  5
E1
102
{ACAD_REACTORS
330
DF
102
}
330
DF
100
AcDbScale
 70
     0
300
1/128" = 1'-0"
140
0.0078125
141
12.0
290
     0
  0
SCALE
  5
E2
102
{ACAD_REACTORS
330
DF
102
}
330
DF
100
AcDbScale
 70
     0
300
1/64" = 1'-0"
140
0.015625
141
12.0
290
     0
  0
SCALE
  5
E3
102
{ACAD_REACTORS
330
DF
102
}
330
DF
100
AcDbScale
 70
     0
300
1/32" = 1'-0"
140
0.03125
141
12.0
290
     0
  0
SCALE
  5
E4
102
{ACAD_REACTORS
330
DF
102
}
330
DF
100
AcDbScale
 70
     0
300
1/16" = 1'-0"
140
0.0625
141
12.0
290
     0
  0
SCALE
  5
E5
102
{ACAD_REACTORS
330
DF
102
}
330
DF
100
AcDbScale
 70
     0
300
3/32" = 1'-0"
140
0.09375
141
12.0
290
     0
  0
SCALE
  5
E6
102
{ACAD_REACTORS
330
DF
102
}
330
DF
100
AcDbScale
 70
     0
300
1/8" = 1'-0"
140
0.125
141
12.0
290
     0
  0
SCALE
  5
E7
102
{ACAD_REACTORS
330
DF
102
}
330
DF
100
AcDbScale
 70
     0
300
3/16" = 1'-0"
140
0.1875
141
12.0
290
     0
  0
SCALE
  5
E8
102
{ACAD_REACTORS
330
DF
102
}
330
DF
100
AcDbScale
 70
     0
300
1/4" = 1'-0"
140
0.25
141
12.0
290
     0
  0
SCALE
  5
E9
102
{ACAD_REACTORS
330
DF
102
}
330
DF
100
AcDbScale
 70
     0
300
3/8" = 1'-0"
140
0.375
141
12.0
290
     0
  0
SCALE
  5
EA
102
{ACAD_REACTORS
330
DF
102
}
330
DF
100
AcDbScale
 70
     0
300
1/2" = 1'-0"
140
0.5
141
12.0
290
     0
  0
SCALE
  5
EB
102
{ACAD_REACTORS
330
DF
102
}
330
DF
100
AcDbScale
 70
     0
300
3/4" = 1'-0"
140
0.75
141
12.0
290
     0
  0
SCALE
  5
EC
102
{ACAD_REACTORS
330
DF
102
}
330
DF
100
AcDbScale
 70
     0
300
1" = 1'-0"
140
1.0
141
12.0
290
     0
  0
SCALE
  5
ED
102
{ACAD_REACTORS
330
DF
102
}
330
DF
100
AcDbScale
 70
     0
300
1-1/2" = 1'-0"
140
1.5
141
12.0
290
     0
  0
SCALE
  5
EE
102
{ACAD_REACTORS
330
DF
102
}
330
DF
100
AcDbScale
 70
     0
300
3" = 1'-0"
140
3.0
141
12.0
290
     0
  0
SCALE
  5
EF
102
{ACAD_REACTORS
330
DF
102
}
330
DF
100
AcDbScale
 70
     0
300
6" = 1'-0"
140
6.0
141
12.0
290
     0
  0
SCALE
  5
F0
102
{ACAD_REACTORS
330
DF
102
}
330
DF
100
AcDbScale
 70
     0
300
1'-0" = 1'-0"
140
12.0
141
12.0
290
     0
  0
ACDBSECTIONVIEWSTYLE
  5
F4
102
{ACAD_XDICTIONARY
360
267
102
}
102
{ACAD_REACTORS
330
F3
102
}
330
F3
100
AcDbModelDocViewStyle
 70
     0
  3
Imperial24
290
     0
100
AcDbSectionViewStyle
 70
     0
 71
     0
 90
       78
 71
     1
340
11
 62
   256
 40
0.24
340
0
340
0
 62
   256
 40
0.24
300
I, O, Q, S, X, Z
 40
0.48
 90
        3
 40
0.18
 90
        1
 71
     2
340
16
 90
       25
 62
   256
340
16
 90
       50
 62
   256
 40
0.24
 40
0.0
 40
0.24
 71
     3
340
11
 62
   256
 40
0.24
 90
        1
 40
0.75
 90
        1
300
%<\AcVar ViewType \f "%tc1">% %<\AcVar ViewSectionStartId>%-%<\AcVar ViewSectionEndId>%\PSCALE %<\AcVar ViewScale \f "%sn">%
 71
     4
 62
   256
 62
   257
300
ANSI31
 40
1.0
 90
        0
290
     0
290
     0
 90
        6
 40
0.0
 40
1.570796326794896
 40
0.2617993877991494
 40
1.308996938995747
 40
-0.2617993877991494
 40
1.832595714594046
  0
TABLESTYLE
  5
DE
102
{ACAD_XDICTIONARY
360
230
102
}
102
{ACAD_REACTORS
330
DD
102
}
330
DD
100
AcDbTableStyle
280
     0
  3
Standard
 70
     0
 71
     0
 40
0.06
 41
0.06
280
     0
281
     0
  7
Standard
140
0.18
170
     2
 62
     0
 63
     7
283
     0
 90
      512
 91
        0
  1

274
    -2
284
     1
 64
     0
275
    -2
285
     1
 65
     0
276
    -2
286
     1
 66
     0
277
    -2
287
     1
 67
     0
278
    -2
288
     1
 68
     0
279
    -2
289
     1
 69
     0
  7
Standard
140
0.25
170
     5
 62
     0
 63
     7
283
     0
 90
      512
 91
        0
  1

274
    -2
284
     1
 64
     0
275
    -2
285
     1
 65
     0
276
    -2
286
     1
 66
     0
277
    -2
287
     1
 67
     0
278
    -2
288
     1
 68
     0
279
    -2
289
     1
 69
     0
  7
Standard
140
0.18
170
     5
 62
     0
 63
     7
283
     0
 90
      512
 91
        0
  1

274
    -2
284
     1
 64
     0
275
    -2
285
     1
 65
     0
276
    -2
286
     1
 66
     0
277
    -2
287
     1
 67
     0
278
    -2
288
     1
 68
     0
279
    -2
289
     1
 69
     0
  0
VISUALSTYLE
  5
C9
102
{ACAD_XDICTIONARY
360
23F
102
}
102
{ACAD_REACTORS
330
C3
102
}
330
C3
100
AcDbVisualStyle
  2
2dWireframe
 70
     4
177
     2
291
     0
 71
     0
176
     1
 72
     2
176
     1
 73
     0
176
     1
 90
        0
176
     1
 40
0.6
176
     1
 41
30.0
176
     1
 63
     7
421
 16777215
176
     1
 74
     1
176
     1
 91
        4
176
     1
 64
     7
176
     1
 65
   257
176
     1
 75
     1
176
     1
175
     1
176
     1
 42
1.0
176
     1
 92
        0
176
     1
 66
   257
176
     1
 43
1.0
176
     1
 76
     1
176
     1
 77
     6
176
     1
 78
     2
176
     1
 67
     7
176
     1
 79
     5
176
     1
170
     0
176
     1
171
     0
176
     1
290
     0
176
     1
 93
        1
176
     1
 44
0.0
176
     1
173
     0
176
     1
1001
ACAD
1000
AcDbSavedByObjectVersion
1070
     0
  0
VISUALSTYLE
  5
C8
102
{ACAD_XDICTIONARY
360
23D
102
}
102
{ACAD_REACTORS
330
C3
102
}
330
C3
100
AcDbVisualStyle
  2
Basic
 70
     7
177
     2
291
     1
 71
     1
176
     1
 72
     0
176
     1
 73
     1
176
     1
 90
        0
176
     1
 40
0.6
176
     1
 41
30.0
176
     1
 63
     7
421
 16777215
176
     1
 74
     0
176
     1
 91
        4
176
     1
 64
     7
176
     1
 65
   257
176
     1
 75
     1
176
     1
175
     1
176
     1
 42
1.0
176
     1
 92
        8
176
     1
 66
     7
176
     1
 43
1.0
176
     1
 76
     1
176
     1
 77
     6
176
     1
 78
     2
176
     1
 67
     7
176
     1
 79
     5
176
     1
170
     0
176
     1
171
     0
176
     1
290
     0
176
     1
 93
        1
176
     1
 44
0.0
176
     1
173
     0
176
     1
1001
ACAD
1000
AcDbSavedByObjectVersion
1070
     0
  0
VISUALSTYLE
  5
CF
102
{ACAD_XDICTIONARY
360
24B
102
}
102
{ACAD_REACTORS
330
C3
102
}
330
C3
100
AcDbVisualStyle
  2
Brighten
 70
    12
177
     2
291
     1
 71
     2
176
     1
 72
     2
176
     1
 73
     0
176
     1
 90
        0
176
     1
 40
0.6
176
     1
 41
30.0
176
     1
 63
     7
421
 16777215
176
     1
 74
     1
176
     1
 91
        4
176
     1
 64
     7
176
     1
 65
   257
176
     1
 75
     1
176
     1
175
     1
176
     1
 42
1.0
176
     1
 92
        8
176
     1
 66
     7
176
     1
 43
1.0
176
     1
 76
     1
176
     1
 77
     6
176
     1
 78
     2
176
     1
 67
     7
176
     1
 79
     5
176
     1
170
     0
176
     1
171
     0
176
     1
290
     0
176
     1
 93
        1
176
     1
 44
50.0
176
     1
173
     0
176
     1
1001
ACAD
1000
AcDbSavedByObjectVersion
1070
     0
  0
VISUALSTYLE
  5
D3
102
{ACAD_XDICTIONARY
360
253
102
}
102
{ACAD_REACTORS
330
C3
102
}
330
C3
100
AcDbVisualStyle
  2
ColorChange
 70
    16
177
     2
291
     1
 71
     2
176
     1
 72
     2
176
     1
 73
     3
176
     1
 90
        0
176
     1
 40
0.6
176
     1
 41
30.0
176
     1
 63
     8
421
  8421504
176
     1
 74
     1
176
     1
 91
        4
176
     1
 64
     7
176
     1
 65
   257
176
     1
 75
     1
176
     1
175
     1
176
     1
 42
1.0
176
     1
 92
        8
176
     1
 66
     8
424
  8421504
176
     1
 43
1.0
176
     1
 76
     1
176
     1
 77
     6
176
     1
 78
     2
176
     1
 67
     7
176
     1
 79
     5
176
     1
170
     0
176
     1
171
     0
176
     1
290
     0
176
     1
 93
        1
176
     1
 44
0.0
176
     1
173
     0
176
     1
1001
ACAD
1000
AcDbSavedByObjectVersion
1070
     0
  0
VISUALSTYLE
  5
CC
102
{ACAD_XDICTIONARY
360
245
102
}
102
{ACAD_REACTORS
330
C3
102
}
330
C3
100
AcDbVisualStyle
  2
Conceptual
 70
     9
177
     2
291
     0
 71
     3
176
     1
 72
     2
176
     1
 73
     0
176
     1
 90
        0
176
     1
 40
0.6
176
     1
 41
30.0
176
     1
 63
     7
421
 16777215
176
     1
 74
     2
176
     1
 91
        2
176
     1
 64
     7
176
     1
 65
   257
176
     1
 75
     1
176
     1
175
     1
176
     1
 42
179.0
176
     1
 92
        8
176
     1
 66
     7
176
     1
 43
1.0
176
     1
 76
     1
176
     1
 77
     6
176
     1
 78
     2
176
     1
 67
     7
176
     1
 79
     3
176
     1
170
     0
176
     1
171
     0
176
     1
290
     0
176
     1
 93
        1
176
     1
 44
0.0
176
     1
173
     0
176
     1
1001
ACAD
1000
AcDbSavedByObjectVersion
1070
     0
  0
VISUALSTYLE
  5
CE
102
{ACAD_XDICTIONARY
360
249
102
}
102
{ACAD_REACTORS
330
C3
102
}
330
C3
100
AcDbVisualStyle
  2
Dim
 70
    11
177
     2
291
     1
 71
     2
176
     1
 72
     2
176
     1
 73
     0
176
     1
 90
        0
176
     1
 40
0.6
176
     1
 41
30.0
176
     1
 63
     7
421
 16777215
176
     1
 74
     1
176
     1
 91
        4
176
     1
 64
     7
176
     1
 65
   257
176
     1
 75
     1
176
     1
175
     1
176
     1
 42
1.0
176
     1
 92
        8
176
     1
 66
     7
176
     1
 43
1.0
176
     1
 76
     1
176
     1
 77
     6
176
     1
 78
     2
176
     1
 67
     7
176
     1
 79
     5
176
     1
170
     0
176
     1
171
     0
176
     1
290
     0
176
     1
 93
        1
176
     1
 44
-50.0
176
     1
173
     0
176
     1
1001
ACAD
1000
AcDbSavedByObjectVersion
1070
     0
  0
VISUALSTYLE
  5
DB
102
{ACAD_XDICTIONARY
360
263
102
}
102
{ACAD_REACTORS
330
C3
102
}
330
C3
100
AcDbVisualStyle
  2
EdgeColorOff
 70
    22
177
     2
291
     1
 71
     2
176
     0
 72
     2
176
     0
 73
     0
176
     0
 90
        0
176
     0
 40
0.6
176
     0
 41
30.0
176
     0
 63
     7
421
 16777215
176
     0
 74
     1
176
     0
 91
        4
176
     0
 64
     7
176
     0
 65
   257
176
     0
 75
     1
176
     0
175
     1
176
     0
 42
1.0
176
     0
 92
        8
176
     2
 66
     7
176
     0
 43
1.0
176
     0
 76
     1
176
     0
 77
     6
176
     0
 78
     2
176
     0
 67
     7
176
     0
 79
     5
176
     0
170
     0
176
     0
171
     0
176
     0
290
     0
176
     0
 93
        1
176
     0
 44
0.0
176
     0
173
     0
176
     0
1001
ACAD
1000
AcDbSavedByObjectVersion
1070
     0
  0
VISUALSTYLE
  5
D2
102
{ACAD_XDICTIONARY
360
251
102
}
102
{ACAD_REACTORS
330
C3
102
}
330
C3
100
AcDbVisualStyle
  2
Facepattern
 70
    15
177
     2
291
     1
 71
     2
176
     1
 72
     2
176
     1
 73
     0
176
     1
 90
        0
176
     1
 40
0.6
176
     1
 41
30.0
176
     1
 63
     7
421
 16777215
176
     1
 74
     1
176
     1
 91
        4
176
     1
 64
     7
176
     1
 65
   257
176
     1
 75
     1
176
     1
175
     1
176
     1
 42
1.0
176
     1
 92
        8
176
     1
 66
     7
176
     1
 43
1.0
176
     1
 76
     1
176
     1
 77
     6
176
     1
 78
     2
176
     1
 67
     7
176
     1
 79
     5
176
     1
170
     0
176
     1
171
     0
176
     1
290
     0
176
     1
 93
        1
176
     1
 44
0.0
176
     1
173
     0
176
     1
1001
ACAD
1000
AcDbSavedByObjectVersion
1070
     0
  0
VISUALSTYLE
  5
C4
102
{ACAD_XDICTIONARY
360
235
102
}
102
{ACAD_REACTORS
330
C3
102
}
330
C3
100
AcDbVisualStyle
  2
Flat
 70
     0
177
     2
291
     1
 71
     2
176
     1
 72
     1
176
     1
 73
     1
176
     1
 90
        2
176
     1
 40
0.6
176
     1
 41
30.0
176
     1
 63
     7
421
 16777215
176
     1
 74
     0
176
     1
 91
        0
176
     1
 64
     7
176
     1
 65
   257
176
     1
 75
     1
176
     1
175
     1
176
     1
 42
1.0
176
     1
 92
        8
176
     1
 66
     7
176
     1
 43
1.0
176
     1
 76
     1
176
     1
 77
     6
176
     1
 78
     2
176
     1
 67
     7
176
     1
 79
     5
176
     1
170
     0
176
     1
171
     0
176
     1
290
     0
176
     1
 93
       13
176
     1
 44
0.0
176
     1
173
     0
176
     1
1001
ACAD
1000
AcDbSavedByObjectVersion
1070
     0
  0
VISUALSTYLE
  5
C5
102
{ACAD_XDICTIONARY
360
237
102
}
102
{ACAD_REACTORS
330
C3
102
}
330
C3
100
AcDbVisualStyle
  2
FlatWithEdges
 70
     1
177
     2
291
     1
 71
     2
176
     1
 72
     1
176
     1
 73
     1
176
     1
 90
        2
176
     1
 40
0.6
176
     1
 41
30.0
176
     1
 63
     7
421
 16777215
176
     1
 74
     1
176
     1
 91
        0
176
     1
 64
     7
176
     1
 65
   257
176
     1
 75
     1
176
     1
175
     1
176
     1
 42
1.0
176
     1
 92
        0
176
     1
 66
   257
176
     1
 43
1.0
176
     1
 76
     1
176
     1
 77
     6
176
     1
 78
     2
176
     1
 67
     7
176
     1
 79
     5
176
     1
170
     0
176
     1
171
     0
176
     1
290
     0
176
     1
 93
       13
176
     1
 44
0.0
176
     1
173
     0
176
     1
1001
ACAD
1000
AcDbSavedByObjectVersion
1070
     0
  0
VISUALSTYLE
  5
C6
102
{ACAD_XDICTIONARY
360
239
102
}
102
{ACAD_REACTORS
330
C3
102
}
330
C3
100
AcDbVisualStyle
  2
Gouraud
 70
     2
177
     2
291
     1
 71
     2
176
     1
 72
     2
176
     1
 73
     1
176
     1
 90
        2
176
     1
 40
0.6
176
     1
 41
30.0
176
     1
 63
     7
421
 16777215
176
     1
 74
     0
176
     1
 91
        0
176
     1
 64
     7
176
     1
 65
   257
176
     1
 75
     1
176
     1
175
     1
176
     1
 42
1.0
176
     1
 92
        0
176
     1
 66
     7
176
     1
 43
1.0
176
     1
 76
     1
176
     1
 77
     6
176
     1
 78
     2
176
     1
 67
     7
176
     1
 79
     5
176
     1
170
     0
176
     1
171
     0
176
     1
290
     0
176
     1
 93
       13
176
     1
 44
0.0
176
     1
173
     0
176
     1
1001
ACAD
1000
AcDbSavedByObjectVersion
1070
     0
  0
VISUALSTYLE
  5
C7
102
{ACAD_XDICTIONARY
360
23B
102
}
102
{ACAD_REACTORS
330
C3
102
}
330
C3
100
AcDbVisualStyle
  2
GouraudWithEdges
 70
     3
177
     2
291
     1
 71
     2
176
     1
 72
     2
176
     1
 73
     1
176
     1
 90
        2
176
     1
 40
0.6
176
     1
 41
30.0
176
     1
 63
     7
421
 16777215
176
     1
 74
     1
176
     1
 91
        0
176
     1
 64
     7
176
     1
 65
   257
176
     1
 75
     1
176
     1
175
     1
176
     1
 42
1.0
176
     1
 92
        0
176
     1
 66
   257
176
     1
 43
1.0
176
     1
 76
     1
176
     1
 77
     6
176
     1
 78
     2
176
     1
 67
     7
176
     1
 79
     5
176
     1
170
     0
176
     1
171
     0
176
     1
290
     0
176
     1
 93
       13
176
     1
 44
0.0
176
     1
173
     0
176
     1
1001
ACAD
1000
AcDbSavedByObjectVersion
1070
     0
  0
VISUALSTYLE
  5
CB
102
{ACAD_XDICTIONARY
360
243
102
}
102
{ACAD_REACTORS
330
C3
102
}
330
C3
100
AcDbVisualStyle
  2
Hidden
 70
     6
177
     2
291
     0
 71
     1
176
     1
 72
     2
176
     1
 73
     2
176
     1
 90
        0
176
     1
 40
0.6
176
     1
 41
30.0
176
     1
 63
     7
421
 16777215
176
     1
 74
     2
176
     1
 91
        2
176
     1
 64
     7
176
     1
 65
   257
176
     1
 75
     2
176
     1
175
     1
176
     1
 42
40.0
176
     1
 92
        0
176
     1
 66
   257
176
     1
 43
1.0
176
     1
 76
     1
176
     1
 77
     6
176
     1
 78
     2
176
     1
 67
     7
176
     1
 79
     3
176
     1
170
     0
176
     1
171
     0
176
     1
290
     0
176
     1
 93
        1
176
     1
 44
0.0
176
     1
173
     0
176
     1
1001
ACAD
1000
AcDbSavedByObjectVersion
1070
     0
  0
VISUALSTYLE
  5
D9
102
{ACAD_XDICTIONARY
360
25F
102
}
102
{ACAD_REACTORS
330
C3
102
}
330
C3
100
AcDbVisualStyle
  2
JitterOff
 70
    20
177
     2
291
     1
 71
     2
176
     0
 72
     2
176
     0
 73
     0
176
     0
 90
        0
176
     0
 40
0.6
176
     0
 41
30.0
176
     0
 63
     7
421
 16777215
176
     0
 74
     1
176
     0
 91
        4
176
     0
 64
     7
176
     0
 65
   257
176
     0
 75
     1
176
     0
175
     1
176
     0
 42
1.0
176
     0
 92
       10
176
     2
 66
     7
176
     0
 43
1.0
176
     0
 76
     1
176
     0
 77
     6
176
     0
 78
     2
176
     0
 67
     7
176
     0
 79
     5
176
     0
170
     0
176
     0
171
     0
176
     0
290
     0
176
     0
 93
        1
176
     0
 44
0.0
176
     0
173
     0
176
     0
1001
ACAD
1000
AcDbSavedByObjectVersion
1070
     0
  0
VISUALSTYLE
  5
D1
102
{ACAD_XDICTIONARY
360
24F
102
}
102
{ACAD_REACTORS
330
C3
102
}
330
C3
100
AcDbVisualStyle
  2
Linepattern
 70
    14
177
     2
291
     1
 71
     2
176
     1
 72
     2
176
     1
 73
     0
176
     1
 90
        0
176
     1
 40
0.6
176
     1
 41
30.0
176
     1
 63
     7
421
 16777215
176
     1
 74
     1
176
     1
 91
        4
176
     1
 64
     7
176
     1
 65
   257
176
     1
 75
     7
176
     1
175
     7
176
     1
 42
1.0
176
     1
 92
        8
176
     1
 66
     7
176
     1
 43
1.0
176
     1
 76
     1
176
     1
 77
     6
176
     1
 78
     2
176
     1
 67
     7
176
     1
 79
     5
176
     1
170
     0
176
     1
171
     0
176
     1
290
     0
176
     1
 93
        1
176
     1
 44
0.0
176
     1
173
     0
176
     1
1001
ACAD
1000
AcDbSavedByObjectVersion
1070
     0
  0
VISUALSTYLE
  5
DA
102
{ACAD_XDICTIONARY
360
261
102
}
102
{ACAD_REACTORS
330
C3
102
}
330
C3
100
AcDbVisualStyle
  2
OverhangOff
 70
    21
177
     2
291
     1
 71
     2
176
     0
 72
     2
176
     0
 73
     0
176
     0
 90
        0
176
     0
 40
0.6
176
     0
 41
30.0
176
     0
 63
     7
421
 16777215
176
     0
 74
     1
176
     0
 91
        4
176
     0
 64
     7
176
     0
 65
   257
176
     0
 75
     1
176
     0
175
     1
176
     0
 42
1.0
176
     0
 92
        9
176
     2
 66
     7
176
     0
 43
1.0
176
     0
 76
     1
176
     0
 77
     6
176
     0
 78
     2
176
     0
 67
     7
176
     0
 79
     5
176
     0
170
     0
176
     0
171
     0
176
     0
290
     0
176
     0
 93
        1
176
     0
 44
0.0
176
     0
173
     0
176
     0
1001
ACAD
1000
AcDbSavedByObjectVersion
1070
     0
  0
VISUALSTYLE
  5
CD
102
{ACAD_XDICTIONARY
360
247
102
}
102
{ACAD_REACTORS
330
C3
102
}
330
C3
100
AcDbVisualStyle
  2
Realistic
 70
     8
177
     2
291
     0
 71
     2
176
     1
 72
     3
176
     1
 73
     0
176
     1
 90
        2
176
     1
 40
0.6
176
     1
 41
30.0
176
     1
 63
     7
421
 16777215
176
     1
 74
     0
176
     1
 91
        0
176
     1
 64
     7
176
     1
 65
   257
176
     1
 75
     1
176
     1
175
     1
176
     1
 42
1.0
176
     1
 92
        8
176
     1
 66
   257
176
     1
 43
1.0
176
     1
 76
     1
176
     1
 77
     6
176
     1
 78
     2
176
     1
 67
     7
176
     1
 79
     3
176
     1
170
     0
176
     1
171
     0
176
     1
290
     0
176
     1
 93
       13
176
     1
 44
0.0
176
     1
173
     0
176
     1
1001
ACAD
1000
AcDbSavedByObjectVersion
1070
     0
  0
VISUALSTYLE
  5
D8
102
{ACAD_XDICTIONARY
360
25D
102
}
102
{ACAD_REACTORS
330
C3
102
}
330
C3
100
AcDbVisualStyle
  2
Shaded
 70
    27
177
     2
291
     0
 71
     2
176
     1
 72
     2
176
     1
 73
     1
176
     1
 90
        2
176
     1
 40
0.6
176
     1
 41
30.0
176
     1
 63
     7
421
 16777215
176
     1
 74
     0
176
     1
 91
        4
176
     1
 64
     7
176
     1
 65
   257
176
     1
 75
     1
176
     1
175
     1
176
     1
 42
1.0
176
     1
 92
        8
176
     1
 66
   257
176
     1
 43
1.0
176
     1
 76
     1
176
     1
 77
     6
176
     1
 78
     2
176
     1
 67
     8
425
  7895160
176
     1
 79
     3
176
     1
170
     0
176
     1
171
     0
176
     1
290
     0
176
     1
 93
        5
176
     1
 44
0.0
176
     1
173
     0
176
     1
1001
ACAD
1000
AcDbSavedByObjectVersion
1070
     0
  0
VISUALSTYLE
  5
D7
102
{ACAD_XDICTIONARY
360
25B
102
}
102
{ACAD_REACTORS
330
C3
102
}
330
C3
100
AcDbVisualStyle
  2
Shaded with edges
 70
    26
177
     2
291
     0
 71
     2
176
     1
 72
     2
176
     1
 73
     1
176
     1
 90
        2
176
     1
 40
0.6
176
     1
 41
30.0
176
     1
 63
     7
421
 16777215
176
     1
 74
     1
176
     1
 91
       10
176
     1
 64
     7
176
     1
 65
   257
176
     1
 75
     2
176
     1
175
     1
176
     1
 42
1.0
176
     1
 92
        8
176
     1
 66
   257
176
     1
 43
1.0
176
     1
 76
     1
176
     1
 77
     6
176
     1
 78
     2
176
     1
 67
     7
176
     1
 79
     3
176
     1
170
     0
176
     1
171
     0
176
     1
290
     0
176
     1
 93
        5
176
     1
 44
0.0
176
     1
173
     0
176
     1
1001
ACAD
1000
AcDbSavedByObjectVersion
1070
     0
  0
VISUALSTYLE
  5
D4
102
{ACAD_XDICTIONARY
360
255
102
}
102
{ACAD_REACTORS
330
C3
102
}
330
C3
100
AcDbVisualStyle
  2
Shades of Gray
 70
    23
177
     2
291
     0
 71
     2
176
     1
 72
     2
176
     1
 73
     3
176
     1
 90
        0
176
     1
 40
0.6
176
     1
 41
30.0
176
     1
 63
     7
421
 16777215
176
     1
 74
     2
176
     1
 91
        2
176
     1
 64
     7
176
     1
 65
     7
176
     1
 75
     1
176
     1
175
     1
176
     1
 42
40.0
176
     1
 92
        8
176
     1
 66
     7
176
     1
 43
1.0
176
     1
 76
     1
176
     1
 77
     6
176
     1
 78
     2
176
     1
 67
     7
176
     1
 79
     3
176
     1
170
     0
176
     1
171
     0
176
     1
290
     0
176
     1
 93
        1
176
     1
 44
0.0
176
     1
173
     0
176
     1
1001
ACAD
1000
AcDbSavedByObjectVersion
1070
     0
  0
VISUALSTYLE
  5
D5
102
{ACAD_XDICTIONARY
360
257
102
}
102
{ACAD_REACTORS
330
C3
102
}
330
C3
100
AcDbVisualStyle
  2
Sketchy
 70
    24
177
     2
291
     0
 71
     1
176
     1
 72
     2
176
     1
 73
     2
176
     1
 90
        0
176
     1
 40
0.6
176
     1
 41
30.0
176
     1
 63
     7
421
 16777215
176
     1
 74
     2
176
     1
 91
        2
176
     1
 64
     7
176
     1
 65
     7
176
     1
 75
     1
176
     1
175
     1
176
     1
 42
40.0
176
     1
 92
       11
176
     1
 66
     7
176
     1
 43
1.0
176
     1
 76
     1
176
     1
 77
     6
176
     1
 78
     2
176
     1
 67
     7
176
     1
 79
     6
176
     1
170
     0
176
     1
171
     0
176
     1
290
     0
176
     1
 93
        1
176
     1
 44
0.0
176
     1
173
     0
176
     1
1001
ACAD
1000
AcDbSavedByObjectVersion
1070
     0
  0
VISUALSTYLE
  5
D0
102
{ACAD_XDICTIONARY
360
24D
102
}
102
{ACAD_REACTORS
330
C3
102
}
330
C3
100
AcDbVisualStyle
  2
Thicken
 70
    13
177
     2
291
     1
 71
     2
176
     1
 72
     2
176
     1
 73
     0
176
     1
 90
        0
176
     1
 40
0.6
176
     1
 41
30.0
176
     1
 63
     7
421
 16777215
176
     1
 74
     1
176
     1
 91
        4
176
     1
 64
     7
176
     1
 65
   257
176
     1
 75
     1
176
     1
175
     1
176
     1
 42
1.0
176
     1
 92
       12
176
     1
 66
     7
176
     1
 43
1.0
176
     1
 76
     1
176
     1
 77
     6
176
     1
 78
     2
176
     1
 67
     7
176
     1
 79
     5
176
     1
170
     0
176
     1
171
     0
176
     1
290
     0
176
     1
 93
        1
176
     1
 44
0.0
176
     1
173
     0
176
     1
1001
ACAD
1000
AcDbSavedByObjectVersion
1070
     0
  0
VISUALSTYLE
  5
CA
102
{ACAD_XDICTIONARY
360
241
102
}
102
{ACAD_REACTORS
330
C3
102
}
330
C3
100
AcDbVisualStyle
  2
Wireframe
 70
     5
177
     2
291
     0
 71
     0
176
     1
 72
     2
176
     1
 73
     0
176
     1
 90
        0
176
     1
 40
0.6
176
     1
 41
30.0
176
     1
 63
     7
421
 16777215
176
     1
 74
     1
176
     1
 91
        4
176
     1
 64
     7
176
     1
 65
   257
176
     1
 75
     1
176
     1
175
     1
176
     1
 42
1.0
176
     1
 92
        0
176
     1
 66
   257
176
     1
 43
1.0
176
     1
 76
     1
176
     1
 77
     6
176
     1
 78
     2
176
     1
 67
     7
176
     1
 79
     3
176
     1
170
     0
176
     1
171
     0
176
     1
290
     0
176
     1
 93
        1
176
     1
 44
0.0
176
     1
173
     0
176
     1
1001
ACAD
1000
AcDbSavedByObjectVersion
1070
     0
  0
VISUALSTYLE
  5
D6
102
{ACAD_XDICTIONARY
360
259
102
}
102
{ACAD_REACTORS
330
C3
102
}
330
C3
100
AcDbVisualStyle
  2
X-Ray
 70
    25
177
     2
291
     0
 71
     2
176
     1
 72
     2
176
     1
 73
     1
176
     1
 90
        1
176
     1
 40
0.5
176
     1
 41
30.0
176
     1
 63
     7
421
 16777215
176
     1
 74
     1
176
     1
 91
        0
176
     1
 64
     7
176
     1
 65
   257
176
     1
 75
     1
176
     1
175
     1
176
     1
 42
1.0
176
     1
 92
        8
176
     1
 66
     7
176
     1
 43
1.0
176
     1
 76
     1
176
     1
 77
     6
176
     1
 78
     2
176
     1
 67
     7
176
     1
 79
     3
176
     1
170
     0
176
     1
171
     0
176
     1
290
     0
176
     1
 93
       13
176
     1
 44
0.0
176
     1
173
     0
176
     1
1001
ACAD
1000
AcDbSavedByObjectVersion
1070
     0
  0
DICTIONARYVAR
  5
22C
102
{ACAD_REACTORS
330
226
102
}
330
226
100
DictionaryVariables
280
     0
  1
1:1
  0
DICTIONARYVAR
  5
228
102
{ACAD_REACTORS
330
226
102
}
330
226
100
DictionaryVariables
280
     0
  1
STANDARD
  0
DICTIONARYVAR
  5
227
102
{ACAD_REACTORS
330
226
102
}
330
226
100
DictionaryVariables
280
     0
  1
STANDARD
  0
DICTIONARYVAR
  5
229
102
{ACAD_REACTORS
330
226
102
}
330
226
100
DictionaryVariables
280
     0
  1
Imperial24
  0
DICTIONARYVAR
  5
22A
102
{ACAD_REACTORS
330
226
102
}
330
226
100
DictionaryVariables
280
     0
  1
Imperial24
  0
DICTIONARYVAR
  5
22E
102
{ACAD_REACTORS
330
226
102
}
330
226
100
DictionaryVariables
280
     0
  1
1
  0
DICTIONARYVAR
  5
22F
102
{ACAD_REACTORS
330
226
102
}
330
226
100
DictionaryVariables
280
     0
  1
15
  0
DICTIONARYVAR
  5
22D
102
{ACAD_REACTORS
330
226
102
}
330
226
100
DictionaryVariables
280
     0
  1
0
  0
DICTIONARYVAR
  5
22B
102
{ACAD_REACTORS
330
226
102
}
330
226
100
DictionaryVariables
280
     0
  1
0
  0
DICTIONARY
  5
269
330
F6
100
AcDbDictionary
280
     1
281
     1
  3
ACAD_XREC_ROUNDTRIP
360
26A
  0
DICTIONARY
  5
B4
330
B3
100
AcDbDictionary
280
     1
281
     1
  3
BUMPTILE
360
B6
  3
DIFFUSETILE
360
B5
  3
OPACITYTILE
360
B9
  3
REFLECTIONTILE
360
B8
  3
REFRACTIONTILE
360
BA
  3
SPECULARTILE
360
B7
  0
DICTIONARY
  5
AC
330
AB
100
AcDbDictionary
280
     1
281
     1
  3
BUMPTILE
360
AE
  3
DIFFUSETILE
360
AD
  3
OPACITYTILE
360
B1
  3
REFLECTIONTILE
360
B0
  3
REFRACTIONTILE
360
B2
  3
SPECULARTILE
360
AF
  0
DICTIONARY
  5
BC
330
BB
100
AcDbDictionary
280
     1
281
     1
  3
BUMPTILE
360
BE
  3
DIFFUSETILE
360
BD
  3
OPACITYTILE
360
C1
  3
REFLECTIONTILE
360
C0
  3
REFRACTIONTILE
360
C2
  3
SPECULARTILE
360
BF
  0
DICTIONARY
  5
265
330
F2
100
AcDbDictionary
280
     1
281
     1
  3
ACAD_XREC_ROUNDTRIP
360
266
  0
DICTIONARY
  5
267
330
F4
100
AcDbDictionary
280
     1
281
     1
  3
ACAD_XREC_ROUNDTRIP
360
268
  0
DICTIONARY
  5
230
330
DE
100
AcDbDictionary
280
     1
281
     1
  3
ACAD_ROUNDTRIP_2008_TABLESTYLE_CELLSTYLEMAP
360
231
  0
DICTIONARY
  5
23F
330
C9
100
AcDbDictionary
280
     1
281
     1
  3
ACAD_XREC_ROUNDTRIP
360
240
  0
DICTIONARY
  5
23D
330
C8
100
AcDbDictionary
280
     1
281
     1
  3
ACAD_XREC_ROUNDTRIP
360
23E
  0
DICTIONARY
  5
24B
330
CF
100
AcDbDictionary
280
     1
281
     1
  3
ACAD_XREC_ROUNDTRIP
360
24C
  0
DICTIONARY
  5
253
330
D3
100
AcDbDictionary
280
     1
281
     1
  3
ACAD_XREC_ROUNDTRIP
360
254
  0
DICTIONARY
  5
245
330
CC
100
AcDbDictionary
280
     1
281
     1
  3
ACAD_XREC_ROUNDTRIP
360
246
  0
DICTIONARY
  5
249
330
CE
100
AcDbDictionary
280
     1
281
     1
  3
ACAD_XREC_ROUNDTRIP
360
24A
  0
DICTIONARY
  5
263
330
DB
100
AcDbDictionary
280
     1
281
     1
  3
ACAD_XREC_ROUNDTRIP
360
264
  0
DICTIONARY
  5
251
330
D2
100
AcDbDictionary
280
     1
281
     1
  3
ACAD_XREC_ROUNDTRIP
360
252
  0
DICTIONARY
  5
235
330
C4
100
AcDbDictionary
280
     1
281
     1
  3
ACAD_XREC_ROUNDTRIP
360
236
  0
DICTIONARY
  5
237
330
C5
100
AcDbDictionary
280
     1
281
     1
  3
ACAD_XREC_ROUNDTRIP
360
238
  0
DICTIONARY
  5
239
330
C6
100
AcDbDictionary
280
     1
281
     1
  3
ACAD_XREC_ROUNDTRIP
360
23A
  0
DICTIONARY
  5
23B
330
C7
100
AcDbDictionary
280
     1
281
     1
  3
ACAD_XREC_ROUNDTRIP
360
23C
  0
DICTIONARY
  5
243
330
CB
100
AcDbDictionary
280
     1
281
     1
  3
ACAD_XREC_ROUNDTRIP
360
244
  0
DICTIONARY
  5
25F
330
D9
100
AcDbDictionary
280
     1
281
     1
  3
ACAD_XREC_ROUNDTRIP
360
260
  0
DICTIONARY
  5
24F
330
D1
100
AcDbDictionary
280
     1
281
     1
  3
ACAD_XREC_ROUNDTRIP
360
250
  0
DICTIONARY
  5
261
330
DA
100
AcDbDictionary
280
     1
281
     1
  3
ACAD_XREC_ROUNDTRIP
360
262
  0
DICTIONARY
  5
247
330
CD
100
AcDbDictionary
280
     1
281
     1
  3
ACAD_XREC_ROUNDTRIP
360
248
  0
DICTIONARY
  5
25D
330
D8
100
AcDbDictionary
280
     1
281
     1
  3
ACAD_XREC_ROUNDTRIP
360
25E
  0
DICTIONARY
  5
25B
330
D7
100
AcDbDictionary
280
     1
281
     1
  3
ACAD_XREC_ROUNDTRIP
360
25C
  0
DICTIONARY
  5
255
330
D4
100
AcDbDictionary
280
     1
281
     1
  3
ACAD_XREC_ROUNDTRIP
360
256
  0
DICTIONARY
  5
257
330
D5
100
AcDbDictionary
280
     1
281
     1
  3
ACAD_XREC_ROUNDTRIP
360
258
  0
DICTIONARY
  5
24D
330
D0
100
AcDbDictionary
280
     1
281
     1
  3
ACAD_XREC_ROUNDTRIP
360
24E
  0
DICTIONARY
  5
241
330
CA
100
AcDbDictionary
280
     1
281
     1
  3
ACAD_XREC_ROUNDTRIP
360
242
  0
DICTIONARY
  5
259
330
D6
100
AcDbDictionary
280
     1
281
     1
  3
ACAD_XREC_ROUNDTRIP
360
25A
  0
XRECORD
  5
26A
102
{ACAD_REACTORS
330
269
102
}
330
269
100
AcDbXrecord
280
     1
102
DISPLAYNAME
  1
Imperial24
102
FLAGS
 90
        0
  0
XRECORD
  5
B6
102
{ACAD_REACTORS
330
B4
102
}
330
B4
100
AcDbXrecord
280
     1
270
     1
271
     1
  0
XRECORD
  5
B5
102
{ACAD_REACTORS
330
B4
102
}
330
B4
100
AcDbXrecord
280
     1
270
     1
271
     1
  0
XRECORD
  5
B9
102
{ACAD_REACTORS
330
B4
102
}
330
B4
100
AcDbXrecord
280
     1
270
     1
271
     1
  0
XRECORD
  5
B8
102
{ACAD_REACTORS
330
B4
102
}
330
B4
100
AcDbXrecord
280
     1
270
     1
271
     1
  0
XRECORD
  5
BA
102
{ACAD_REACTORS
330
B4
102
}
330
B4
100
AcDbXrecord
280
     1
270
     1
271
     1
  0
XRECORD
  5
B7
102
{ACAD_REACTORS
330
B4
102
}
330
B4
100
AcDbXrecord
280
     1
270
     1
271
     1
  0
XRECORD
  5
AE
102
{ACAD_REACTORS
330
AC
102
}
330
AC
100
AcDbXrecord
280
     1
270
     1
271
     1
  0
XRECORD
  5
AD
102
{ACAD_REACTORS
330
AC
102
}
330
AC
100
AcDbXrecord
280
     1
270
     1
271
     1
  0
XRECORD
  5
B1
102
{ACAD_REACTORS
330
AC
102
}
330
AC
100
AcDbXrecord
280
     1
270
     1
271
     1
  0
XRECORD
  5
B0
102
{ACAD_REACTORS
330
AC
102
}
330
AC
100
AcDbXrecord
280
     1
270
     1
271
     1
  0
XRECORD
  5
B2
102
{ACAD_REACTORS
330
AC
102
}
330
AC
100
AcDbXrecord
280
     1
270
     1
271
     1
  0
XRECORD
  5
AF
102
{ACAD_REACTORS
330
AC
102
}
330
AC
100
AcDbXrecord
280
     1
270
     1
271
     1
  0
XRECORD
  5
BE
102
{ACAD_REACTORS
330
BC
102
}
330
BC
100
AcDbXrecord
280
     1
270
     1
271
     1
  0
XRECORD
  5
BD
102
{ACAD_REACTORS
330
BC
102
}
330
BC
100
AcDbXrecord
280
     1
270
     1
271
     1
  0
XRECORD
  5
C1
102
{ACAD_REACTORS
330
BC
102
}
330
BC
100
AcDbXrecord
280
     1
270
     1
271
     1
  0
XRECORD
  5
C0
102
{ACAD_REACTORS
330
BC
102
}
330
BC
100
AcDbXrecord
280
     1
270
     1
271
     1
  0
XRECORD
  5
C2
102
{ACAD_REACTORS
330
BC
102
}
330
BC
100
AcDbXrecord
280
     1
270
     1
271
     1
  0
XRECORD
  5
BF
102
{ACAD_REACTORS
330
BC
102
}
330
BC
100
AcDbXrecord
280
     1
270
     1
271
     1
  0
XRECORD
  5
266
102
{ACAD_REACTORS
330
265
102
}
330
265
100
AcDbXrecord
280
     1
102
ACAD_ROUNDTRIP_2012_MLEADER_STYLE
298
     1
  0
XRECORD
  5
268
102
{ACAD_REACTORS
330
267
102
}
330
267
100
AcDbXrecord
280
     1
102
DISPLAYNAME
  1
Imperial24
102
FLAGS
 90
        0
  0
CELLSTYLEMAP
  5
231
102
{ACAD_REACTORS
330
230
102
}
330
230
100
AcDbCellStyleMap
 90
        3
300
CELLSTYLE
  1
TABLEFORMAT_BEGIN
 90
        5
170
     1
 91
        0
 92
    32768
 62
   257
 93
        1
300
CONTENTFORMAT
  1
CONTENTFORMAT_BEGIN
 90
        0
 91
        0
 92
      512
 93
        0
300

 40
0.0
140
1.0
 94
        5
 62
     0
340
11
144
0.25
309
CONTENTFORMAT_END
171
     0
 94
        0
309
TABLEFORMAT_END
  1
CELLSTYLE_BEGIN
 90
        1
 91
        1
300
_TITLE
309
CELLSTYLE_END
300
CELLSTYLE
  1
TABLEFORMAT_BEGIN
 90
        5
170
     1
 91
        0
 92
        0
 62
   257
 93
        1
300
CONTENTFORMAT
  1
CONTENTFORMAT_BEGIN
 90
        0
 91
        0
 92
      512
 93
        0
300

 40
0.0
140
1.0
 94
        5
 62
     0
340
11
144
0.18
309
CONTENTFORMAT_END
171
     0
 94
        0
309
TABLEFORMAT_END
  1
CELLSTYLE_BEGIN
 90
        2
 91
        1
300
_HEADER
309
CELLSTYLE_END
300
CELLSTYLE
  1
TABLEFORMAT_BEGIN
 90
        5
170
     1
 91
        0
 92
        0
 62
   257
 93
        1
300
CONTENTFORMAT
  1
CONTENTFORMAT_BEGIN
 90
        0
 91
        0
 92
      512
 93
        0
300

 40
0.0
140
1.0
 94
        2
 62
     0
340
11
144
0.18
309
CONTENTFORMAT_END
171
     0
 94
        0
309
TABLEFORMAT_END
  1
CELLSTYLE_BEGIN
 90
        3
 91
        2
300
_DATA
309
CELLSTYLE_END
  0
XRECORD
  5
240
102
{ACAD_REACTORS
330
23F
102
}
330
23F
100
AcDbXrecord
280
     1
102
RTVSPost2010Prop28
280
     1
102
RTVSPost2010PropOp28
 70
     1
102
RTVSPost2010Prop29
280
     1
102
RTVSPost2010PropOp29
 70
     1
102
RTVSPost2010Prop30
280
     0
102
RTVSPost2010PropOp30
 70
     1
102
RTVSPost2010Prop31
280
     0
102
RTVSPost2010PropOp31
 70
     1
102
RTVSPost2010Prop32
280
     0
102
RTVSPost2010PropOp32
 70
     1
102
RTVSPost2010Prop33
280
     0
102
RTVSPost2010PropOp33
 70
     1
102
RTVSPost2010Prop34
280
     0
102
RTVSPost2010PropOp34
 70
     1
102
RTVSPost2010Prop35
280
     0
102
RTVSPost2010PropOp35
 70
     1
102
RTVSPost2010Prop36
280
     0
102
RTVSPost2010PropOp36
 70
     1
102
RTVSPost2010Prop37
 90
       50
102
RTVSPost2010PropOp37
 70
     1
102
RTVSPost2010Prop38
140
0.0
102
RTVSPost2010PropOp38
 70
     1
102
RTVSPost2010Prop39
140
1.0
102
RTVSPost2010PropOp39
 70
     1
102
RTVSPost2010Prop40
 90
        0
102
RTVSPost2010PropOp40
 70
     1
102
RTVSPost2010Prop41ColorIndex
 90
       18
102
RTVSPost2010Prop41ColorRGB
 90
        0
102
RTVSPost2010PropOp41
 70
     1
102
RTVSPost2010Prop42
 90
       50
102
RTVSPost2010PropOp42
 70
     1
102
RTVSPost2010Prop43
 90
        3
102
RTVSPost2010PropOp43
 70
     1
102
RTVSPost2010Prop44ColorIndex
 90
        5
102
RTVSPost2010Prop44ColorRGB
 90
      255
102
RTVSPost2010PropOp44
 70
     1
102
RTVSPost2010Prop45
280
     0
102
RTVSPost2010PropOp45
 70
     1
102
RTVSPost2010Prop46
 90
       50
102
RTVSPost2010PropOp46
 70
     1
102
RTVSPost2010Prop47
 90
       50
102
RTVSPost2010PropOp47
 70
     1
102
RTVSPost2010Prop48
 90
       50
102
RTVSPost2010PropOp48
 70
     1
102
RTVSPost2010Prop49
280
     0
102
RTVSPost2010PropOp49
 70
     1
102
RTVSPost2010Prop50
 90
       50
102
RTVSPost2010PropOp50
 70
     1
102
RTVSPost2010Prop51ColorIndex
 90
      256
102
RTVSPost2010Prop51ColorRGB
 90
-16777216
102
RTVSPost2010PropOp51
 70
     0
102
RTVSPost2010Prop52
140
1.0
102
RTVSPost2010PropOp52
 70
     0
102
RTVSPost2010Prop53
 90
        2
102
RTVSPost2010PropOp53
 70
     1
102
RTVSPost2010Prop54
  1
strokes_ogs.tif
102
RTVSPost2010PropOp54
 70
     1
102
RTVSPost2010Prop55
280
     0
102
RTVSPost2010PropOp55
 70
     1
102
RTVSPost2010Prop56
140
1.0
102
RTVSPost2010PropOp56
 70
     1
102
RTVSPost2010Prop57
140
1.0
102
RTVSPost2010PropOp57
 70
     1
  0
XRECORD
  5
23E
102
{ACAD_REACTORS
330
23D
102
}
330
23D
100
AcDbXrecord
280
     1
102
RTVSPost2010Prop28
280
     0
102
RTVSPost2010PropOp28
 70
     1
102
RTVSPost2010Prop29
280
     1
102
RTVSPost2010PropOp29
 70
     1
102
RTVSPost2010Prop30
280
     1
102
RTVSPost2010PropOp30
 70
     1
102
RTVSPost2010Prop31
280
     0
102
RTVSPost2010PropOp31
 70
     1
102
RTVSPost2010Prop32
280
     0
102
RTVSPost2010PropOp32
 70
     1
102
RTVSPost2010Prop33
280
     0
102
RTVSPost2010PropOp33
 70
     1
102
RTVSPost2010Prop34
280
     0
102
RTVSPost2010PropOp34
 70
     1
102
RTVSPost2010Prop35
280
     0
102
RTVSPost2010PropOp35
 70
     1
102
RTVSPost2010Prop36
280
     0
102
RTVSPost2010PropOp36
 70
     1
102
RTVSPost2010Prop37
 90
       50
102
RTVSPost2010PropOp37
 70
     1
102
RTVSPost2010Prop38
140
0.0
102
RTVSPost2010PropOp38
 70
     1
102
RTVSPost2010Prop39
140
1.0
102
RTVSPost2010PropOp39
 70
     1
102
RTVSPost2010Prop40
 90
        0
102
RTVSPost2010PropOp40
 70
     1
102
RTVSPost2010Prop41ColorIndex
 90
       18
102
RTVSPost2010Prop41ColorRGB
 90
        0
102
RTVSPost2010PropOp41
 70
     1
102
RTVSPost2010Prop42
 90
       50
102
RTVSPost2010PropOp42
 70
     1
102
RTVSPost2010Prop43
 90
        3
102
RTVSPost2010PropOp43
 70
     1
102
RTVSPost2010Prop44ColorIndex
 90
        5
102
RTVSPost2010Prop44ColorRGB
 90
      255
102
RTVSPost2010PropOp44
 70
     1
102
RTVSPost2010Prop45
280
     0
102
RTVSPost2010PropOp45
 70
     1
102
RTVSPost2010Prop46
 90
       50
102
RTVSPost2010PropOp46
 70
     1
102
RTVSPost2010Prop47
 90
       50
102
RTVSPost2010PropOp47
 70
     1
102
RTVSPost2010Prop48
 90
       50
102
RTVSPost2010PropOp48
 70
     1
102
RTVSPost2010Prop49
280
     0
102
RTVSPost2010PropOp49
 70
     1
102
RTVSPost2010Prop50
 90
       50
102
RTVSPost2010PropOp50
 70
     1
102
RTVSPost2010Prop51ColorIndex
 90
      256
102
RTVSPost2010Prop51ColorRGB
 90
-16777216
102
RTVSPost2010PropOp51
 70
     0
102
RTVSPost2010Prop52
140
1.0
102
RTVSPost2010PropOp52
 70
     0
102
RTVSPost2010Prop53
 90
        2
102
RTVSPost2010PropOp53
 70
     1
102
RTVSPost2010Prop54
  1
strokes_ogs.tif
102
RTVSPost2010PropOp54
 70
     1
102
RTVSPost2010Prop55
280
     0
102
RTVSPost2010PropOp55
 70
     1
102
RTVSPost2010Prop56
140
1.0
102
RTVSPost2010PropOp56
 70
     1
102
RTVSPost2010Prop57
140
1.0
102
RTVSPost2010PropOp57
 70
     1
  0
XRECORD
  5
24C
102
{ACAD_REACTORS
330
24B
102
}
330
24B
100
AcDbXrecord
280
     1
102
RTVSPost2010Prop28
280
     0
102
RTVSPost2010PropOp28
 70
     1
102
RTVSPost2010Prop29
280
     1
102
RTVSPost2010PropOp29
 70
     1
102
RTVSPost2010Prop30
280
     1
102
RTVSPost2010PropOp30
 70
     1
102
RTVSPost2010Prop31
280
     0
102
RTVSPost2010PropOp31
 70
     1
102
RTVSPost2010Prop32
280
     0
102
RTVSPost2010PropOp32
 70
     1
102
RTVSPost2010Prop33
280
     0
102
RTVSPost2010PropOp33
 70
     1
102
RTVSPost2010Prop34
280
     0
102
RTVSPost2010PropOp34
 70
     1
102
RTVSPost2010Prop35
280
     0
102
RTVSPost2010PropOp35
 70
     1
102
RTVSPost2010Prop36
280
     0
102
RTVSPost2010PropOp36
 70
     1
102
RTVSPost2010Prop37
 90
       50
102
RTVSPost2010PropOp37
 70
     1
102
RTVSPost2010Prop38
140
0.0
102
RTVSPost2010PropOp38
 70
     1
102
RTVSPost2010Prop39
140
1.0
102
RTVSPost2010PropOp39
 70
     1
102
RTVSPost2010Prop40
 90
        0
102
RTVSPost2010PropOp40
 70
     1
102
RTVSPost2010Prop41ColorIndex
 90
       18
102
RTVSPost2010Prop41ColorRGB
 90
        0
102
RTVSPost2010PropOp41
 70
     1
102
RTVSPost2010Prop42
 90
       50
102
RTVSPost2010PropOp42
 70
     1
102
RTVSPost2010Prop43
 90
        3
102
RTVSPost2010PropOp43
 70
     1
102
RTVSPost2010Prop44ColorIndex
 90
        5
102
RTVSPost2010Prop44ColorRGB
 90
      255
102
RTVSPost2010PropOp44
 70
     1
102
RTVSPost2010Prop45
280
     0
102
RTVSPost2010PropOp45
 70
     1
102
RTVSPost2010Prop46
 90
       50
102
RTVSPost2010PropOp46
 70
     1
102
RTVSPost2010Prop47
 90
       50
102
RTVSPost2010PropOp47
 70
     1
102
RTVSPost2010Prop48
 90
       50
102
RTVSPost2010PropOp48
 70
     1
102
RTVSPost2010Prop49
280
     0
102
RTVSPost2010PropOp49
 70
     1
102
RTVSPost2010Prop50
 90
       50
102
RTVSPost2010PropOp50
 70
     1
102
RTVSPost2010Prop51ColorIndex
 90
      256
102
RTVSPost2010Prop51ColorRGB
 90
-16777216
102
RTVSPost2010PropOp51
 70
     0
102
RTVSPost2010Prop52
140
1.0
102
RTVSPost2010PropOp52
 70
     0
102
RTVSPost2010Prop53
 90
        2
102
RTVSPost2010PropOp53
 70
     1
102
RTVSPost2010Prop54
  1
strokes_ogs.tif
102
RTVSPost2010PropOp54
 70
     1
102
RTVSPost2010Prop55
280
     0
102
RTVSPost2010PropOp55
 70
     1
102
RTVSPost2010Prop56
140
1.0
102
RTVSPost2010PropOp56
 70
     1
102
RTVSPost2010Prop57
140
1.0
102
RTVSPost2010PropOp57
 70
     1
  0
XRECORD
  5
254
102
{ACAD_REACTORS
330
253
102
}
330
253
100
AcDbXrecord
280
     1
102
RTVSPost2010Prop28
280
     0
102
RTVSPost2010PropOp28
 70
     1
102
RTVSPost2010Prop29
280
     1
102
RTVSPost2010PropOp29
 70
     1
102
RTVSPost2010Prop30
280
     1
102
RTVSPost2010PropOp30
 70
     1
102
RTVSPost2010Prop31
280
     0
102
RTVSPost2010PropOp31
 70
     1
102
RTVSPost2010Prop32
280
     0
102
RTVSPost2010PropOp32
 70
     1
102
RTVSPost2010Prop33
280
     0
102
RTVSPost2010PropOp33
 70
     1
102
RTVSPost2010Prop34
280
     0
102
RTVSPost2010PropOp34
 70
     1
102
RTVSPost2010Prop35
280
     0
102
RTVSPost2010PropOp35
 70
     1
102
RTVSPost2010Prop36
280
     0
102
RTVSPost2010PropOp36
 70
     1
102
RTVSPost2010Prop37
 90
       50
102
RTVSPost2010PropOp37
 70
     1
102
RTVSPost2010Prop38
140
0.0
102
RTVSPost2010PropOp38
 70
     1
102
RTVSPost2010Prop39
140
1.0
102
RTVSPost2010PropOp39
 70
     1
102
RTVSPost2010Prop40
 90
        0
102
RTVSPost2010PropOp40
 70
     1
102
RTVSPost2010Prop41ColorIndex
 90
       18
102
RTVSPost2010Prop41ColorRGB
 90
        0
102
RTVSPost2010PropOp41
 70
     1
102
RTVSPost2010Prop42
 90
       50
102
RTVSPost2010PropOp42
 70
     1
102
RTVSPost2010Prop43
 90
        3
102
RTVSPost2010PropOp43
 70
     1
102
RTVSPost2010Prop44ColorIndex
 90
        5
102
RTVSPost2010Prop44ColorRGB
 90
      255
102
RTVSPost2010PropOp44
 70
     1
102
RTVSPost2010Prop45
280
     0
102
RTVSPost2010PropOp45
 70
     1
102
RTVSPost2010Prop46
 90
       50
102
RTVSPost2010PropOp46
 70
     1
102
RTVSPost2010Prop47
 90
       50
102
RTVSPost2010PropOp47
 70
     1
102
RTVSPost2010Prop48
 90
       50
102
RTVSPost2010PropOp48
 70
     1
102
RTVSPost2010Prop49
280
     0
102
RTVSPost2010PropOp49
 70
     1
102
RTVSPost2010Prop50
 90
       50
102
RTVSPost2010PropOp50
 70
     1
102
RTVSPost2010Prop51ColorIndex
 90
      256
102
RTVSPost2010Prop51ColorRGB
 90
-16777216
102
RTVSPost2010PropOp51
 70
     0
102
RTVSPost2010Prop52
140
1.0
102
RTVSPost2010PropOp52
 70
     0
102
RTVSPost2010Prop53
 90
        2
102
RTVSPost2010PropOp53
 70
     1
102
RTVSPost2010Prop54
  1
strokes_ogs.tif
102
RTVSPost2010PropOp54
 70
     1
102
RTVSPost2010Prop55
280
     0
102
RTVSPost2010PropOp55
 70
     1
102
RTVSPost2010Prop56
140
1.0
102
RTVSPost2010PropOp56
 70
     1
102
RTVSPost2010Prop57
140
1.0
102
RTVSPost2010PropOp57
 70
     1
  0
XRECORD
  5
246
102
{ACAD_REACTORS
330
245
102
}
330
245
100
AcDbXrecord
280
     1
102
RTVSPost2010Prop28
280
     0
102
RTVSPost2010PropOp28
 70
     1
102
RTVSPost2010Prop29
280
     1
102
RTVSPost2010PropOp29
 70
     1
102
RTVSPost2010Prop30
280
     1
102
RTVSPost2010PropOp30
 70
     1
102
RTVSPost2010Prop31
280
     0
102
RTVSPost2010PropOp31
 70
     1
102
RTVSPost2010Prop32
280
     0
102
RTVSPost2010PropOp32
 70
     1
102
RTVSPost2010Prop33
280
     0
102
RTVSPost2010PropOp33
 70
     1
102
RTVSPost2010Prop34
280
     0
102
RTVSPost2010PropOp34
 70
     1
102
RTVSPost2010Prop35
280
     0
102
RTVSPost2010PropOp35
 70
     1
102
RTVSPost2010Prop36
280
     0
102
RTVSPost2010PropOp36
 70
     1
102
RTVSPost2010Prop37
 90
       50
102
RTVSPost2010PropOp37
 70
     1
102
RTVSPost2010Prop38
140
0.0
102
RTVSPost2010PropOp38
 70
     1
102
RTVSPost2010Prop39
140
1.0
102
RTVSPost2010PropOp39
 70
     1
102
RTVSPost2010Prop40
 90
        0
102
RTVSPost2010PropOp40
 70
     1
102
RTVSPost2010Prop41ColorIndex
 90
       18
102
RTVSPost2010Prop41ColorRGB
 90
        0
102
RTVSPost2010PropOp41
 70
     1
102
RTVSPost2010Prop42
 90
       50
102
RTVSPost2010PropOp42
 70
     1
102
RTVSPost2010Prop43
 90
        3
102
RTVSPost2010PropOp43
 70
     1
102
RTVSPost2010Prop44ColorIndex
 90
        5
102
RTVSPost2010Prop44ColorRGB
 90
      255
102
RTVSPost2010PropOp44
 70
     1
102
RTVSPost2010Prop45
280
     0
102
RTVSPost2010PropOp45
 70
     1
102
RTVSPost2010Prop46
 90
       50
102
RTVSPost2010PropOp46
 70
     1
102
RTVSPost2010Prop47
 90
       50
102
RTVSPost2010PropOp47
 70
     1
102
RTVSPost2010Prop48
 90
       50
102
RTVSPost2010PropOp48
 70
     1
102
RTVSPost2010Prop49
280
     0
102
RTVSPost2010PropOp49
 70
     1
102
RTVSPost2010Prop50
 90
       50
102
RTVSPost2010PropOp50
 70
     1
102
RTVSPost2010Prop51ColorIndex
 90
      256
102
RTVSPost2010Prop51ColorRGB
 90
-16777216
102
RTVSPost2010PropOp51
 70
     0
102
RTVSPost2010Prop52
140
1.0
102
RTVSPost2010PropOp52
 70
     0
102
RTVSPost2010Prop53
 90
        2
102
RTVSPost2010PropOp53
 70
     1
102
RTVSPost2010Prop54
  1
strokes_ogs.tif
102
RTVSPost2010PropOp54
 70
     1
102
RTVSPost2010Prop55
280
     0
102
RTVSPost2010PropOp55
 70
     1
102
RTVSPost2010Prop56
140
1.0
102
RTVSPost2010PropOp56
 70
     1
102
RTVSPost2010Prop57
140
1.0
102
RTVSPost2010PropOp57
 70
     1
  0
XRECORD
  5
24A
102
{ACAD_REACTORS
330
249
102
}
330
249
100
AcDbXrecord
280
     1
102
RTVSPost2010Prop28
280
     0
102
RTVSPost2010PropOp28
 70
     1
102
RTVSPost2010Prop29
280
     1
102
RTVSPost2010PropOp29
 70
     1
102
RTVSPost2010Prop30
280
     1
102
RTVSPost2010PropOp30
 70
     1
102
RTVSPost2010Prop31
280
     0
102
RTVSPost2010PropOp31
 70
     1
102
RTVSPost2010Prop32
280
     0
102
RTVSPost2010PropOp32
 70
     1
102
RTVSPost2010Prop33
280
     0
102
RTVSPost2010PropOp33
 70
     1
102
RTVSPost2010Prop34
280
     0
102
RTVSPost2010PropOp34
 70
     1
102
RTVSPost2010Prop35
280
     0
102
RTVSPost2010PropOp35
 70
     1
102
RTVSPost2010Prop36
280
     0
102
RTVSPost2010PropOp36
 70
     1
102
RTVSPost2010Prop37
 90
       50
102
RTVSPost2010PropOp37
 70
     1
102
RTVSPost2010Prop38
140
0.0
102
RTVSPost2010PropOp38
 70
     1
102
RTVSPost2010Prop39
140
1.0
102
RTVSPost2010PropOp39
 70
     1
102
RTVSPost2010Prop40
 90
        0
102
RTVSPost2010PropOp40
 70
     1
102
RTVSPost2010Prop41ColorIndex
 90
       18
102
RTVSPost2010Prop41ColorRGB
 90
        0
102
RTVSPost2010PropOp41
 70
     1
102
RTVSPost2010Prop42
 90
       50
102
RTVSPost2010PropOp42
 70
     1
102
RTVSPost2010Prop43
 90
        3
102
RTVSPost2010PropOp43
 70
     1
102
RTVSPost2010Prop44ColorIndex
 90
        5
102
RTVSPost2010Prop44ColorRGB
 90
      255
102
RTVSPost2010PropOp44
 70
     1
102
RTVSPost2010Prop45
280
     0
102
RTVSPost2010PropOp45
 70
     1
102
RTVSPost2010Prop46
 90
       50
102
RTVSPost2010PropOp46
 70
     1
102
RTVSPost2010Prop47
 90
       50
102
RTVSPost2010PropOp47
 70
     1
102
RTVSPost2010Prop48
 90
       50
102
RTVSPost2010PropOp48
 70
     1
102
RTVSPost2010Prop49
280
     0
102
RTVSPost2010PropOp49
 70
     1
102
RTVSPost2010Prop50
 90
       50
102
RTVSPost2010PropOp50
 70
     1
102
RTVSPost2010Prop51ColorIndex
 90
      256
102
RTVSPost2010Prop51ColorRGB
 90
-16777216
102
RTVSPost2010PropOp51
 70
     0
102
RTVSPost2010Prop52
140
1.0
102
RTVSPost2010PropOp52
 70
     0
102
RTVSPost2010Prop53
 90
        2
102
RTVSPost2010PropOp53
 70
     1
102
RTVSPost2010Prop54
  1
strokes_ogs.tif
102
RTVSPost2010PropOp54
 70
     1
102
RTVSPost2010Prop55
280
     0
102
RTVSPost2010PropOp55
 70
     1
102
RTVSPost2010Prop56
140
1.0
102
RTVSPost2010PropOp56
 70
     1
102
RTVSPost2010Prop57
140
1.0
102
RTVSPost2010PropOp57
 70
     1
  0
XRECORD
  5
264
102
{ACAD_REACTORS
330
263
102
}
330
263
100
AcDbXrecord
280
     1
102
RTVSPost2010Prop28
280
     0
102
RTVSPost2010PropOp28
 70
     0
102
RTVSPost2010Prop29
280
     1
102
RTVSPost2010PropOp29
 70
     0
102
RTVSPost2010Prop30
280
     1
102
RTVSPost2010PropOp30
 70
     0
102
RTVSPost2010Prop31
280
     0
102
RTVSPost2010PropOp31
 70
     0
102
RTVSPost2010Prop32
280
     0
102
RTVSPost2010PropOp32
 70
     0
102
RTVSPost2010Prop33
280
     0
102
RTVSPost2010PropOp33
 70
     0
102
RTVSPost2010Prop34
280
     0
102
RTVSPost2010PropOp34
 70
     0
102
RTVSPost2010Prop35
280
     0
102
RTVSPost2010PropOp35
 70
     0
102
RTVSPost2010Prop36
280
     0
102
RTVSPost2010PropOp36
 70
     0
102
RTVSPost2010Prop37
 90
       50
102
RTVSPost2010PropOp37
 70
     0
102
RTVSPost2010Prop38
140
0.0
102
RTVSPost2010PropOp38
 70
     0
102
RTVSPost2010Prop39
140
1.0
102
RTVSPost2010PropOp39
 70
     0
102
RTVSPost2010Prop40
 90
        0
102
RTVSPost2010PropOp40
 70
     0
102
RTVSPost2010Prop41ColorIndex
 90
       18
102
RTVSPost2010Prop41ColorRGB
 90
        0
102
RTVSPost2010PropOp41
 70
     0
102
RTVSPost2010Prop42
 90
       50
102
RTVSPost2010PropOp42
 70
     0
102
RTVSPost2010Prop43
 90
        3
102
RTVSPost2010PropOp43
 70
     0
102
RTVSPost2010Prop44ColorIndex
 90
        5
102
RTVSPost2010Prop44ColorRGB
 90
      255
102
RTVSPost2010PropOp44
 70
     0
102
RTVSPost2010Prop45
280
     0
102
RTVSPost2010PropOp45
 70
     0
102
RTVSPost2010Prop46
 90
       50
102
RTVSPost2010PropOp46
 70
     0
102
RTVSPost2010Prop47
 90
       50
102
RTVSPost2010PropOp47
 70
     0
102
RTVSPost2010Prop48
 90
       50
102
RTVSPost2010PropOp48
 70
     0
102
RTVSPost2010Prop49
280
     0
102
RTVSPost2010PropOp49
 70
     0
102
RTVSPost2010Prop50
 90
       50
102
RTVSPost2010PropOp50
 70
     0
102
RTVSPost2010Prop51ColorIndex
 90
      256
102
RTVSPost2010Prop51ColorRGB
 90
-16777216
102
RTVSPost2010PropOp51
 70
     0
102
RTVSPost2010Prop52
140
1.0
102
RTVSPost2010PropOp52
 70
     0
102
RTVSPost2010Prop53
 90
        2
102
RTVSPost2010PropOp53
 70
     0
102
RTVSPost2010Prop54
  1
strokes_ogs.tif
102
RTVSPost2010PropOp54
 70
     0
102
RTVSPost2010Prop55
280
     0
102
RTVSPost2010PropOp55
 70
     0
102
RTVSPost2010Prop56
140
1.0
102
RTVSPost2010PropOp56
 70
     0
102
RTVSPost2010Prop57
140
1.0
102
RTVSPost2010PropOp57
 70
     0
  0
XRECORD
  5
252
102
{ACAD_REACTORS
330
251
102
}
330
251
100
AcDbXrecord
280
     1
102
RTVSPost2010Prop28
280
     0
102
RTVSPost2010PropOp28
 70
     1
102
RTVSPost2010Prop29
280
     1
102
RTVSPost2010PropOp29
 70
     1
102
RTVSPost2010Prop30
280
     1
102
RTVSPost2010PropOp30
 70
     1
102
RTVSPost2010Prop31
280
     0
102
RTVSPost2010PropOp31
 70
     1
102
RTVSPost2010Prop32
280
     0
102
RTVSPost2010PropOp32
 70
     1
102
RTVSPost2010Prop33
280
     0
102
RTVSPost2010PropOp33
 70
     1
102
RTVSPost2010Prop34
280
     0
102
RTVSPost2010PropOp34
 70
     1
102
RTVSPost2010Prop35
280
     0
102
RTVSPost2010PropOp35
 70
     1
102
RTVSPost2010Prop36
280
     0
102
RTVSPost2010PropOp36
 70
     1
102
RTVSPost2010Prop37
 90
       50
102
RTVSPost2010PropOp37
 70
     1
102
RTVSPost2010Prop38
140
0.0
102
RTVSPost2010PropOp38
 70
     1
102
RTVSPost2010Prop39
140
1.0
102
RTVSPost2010PropOp39
 70
     1
102
RTVSPost2010Prop40
 90
        0
102
RTVSPost2010PropOp40
 70
     1
102
RTVSPost2010Prop41ColorIndex
 90
       18
102
RTVSPost2010Prop41ColorRGB
 90
        0
102
RTVSPost2010PropOp41
 70
     1
102
RTVSPost2010Prop42
 90
       50
102
RTVSPost2010PropOp42
 70
     1
102
RTVSPost2010Prop43
 90
        3
102
RTVSPost2010PropOp43
 70
     1
102
RTVSPost2010Prop44ColorIndex
 90
        5
102
RTVSPost2010Prop44ColorRGB
 90
      255
102
RTVSPost2010PropOp44
 70
     1
102
RTVSPost2010Prop45
280
     0
102
RTVSPost2010PropOp45
 70
     1
102
RTVSPost2010Prop46
 90
       50
102
RTVSPost2010PropOp46
 70
     1
102
RTVSPost2010Prop47
 90
       50
102
RTVSPost2010PropOp47
 70
     1
102
RTVSPost2010Prop48
 90
       50
102
RTVSPost2010PropOp48
 70
     1
102
RTVSPost2010Prop49
280
     0
102
RTVSPost2010PropOp49
 70
     1
102
RTVSPost2010Prop50
 90
       50
102
RTVSPost2010PropOp50
 70
     1
102
RTVSPost2010Prop51ColorIndex
 90
      256
102
RTVSPost2010Prop51ColorRGB
 90
-16777216
102
RTVSPost2010PropOp51
 70
     0
102
RTVSPost2010Prop52
140
1.0
102
RTVSPost2010PropOp52
 70
     0
102
RTVSPost2010Prop53
 90
        2
102
RTVSPost2010PropOp53
 70
     1
102
RTVSPost2010Prop54
  1
strokes_ogs.tif
102
RTVSPost2010PropOp54
 70
     1
102
RTVSPost2010Prop55
280
     0
102
RTVSPost2010PropOp55
 70
     1
102
RTVSPost2010Prop56
140
1.0
102
RTVSPost2010PropOp56
 70
     1
102
RTVSPost2010Prop57
140
1.0
102
RTVSPost2010PropOp57
 70
     1
  0
XRECORD
  5
236
102
{ACAD_REACTORS
330
235
102
}
330
235
100
AcDbXrecord
280
     1
102
RTVSPost2010Prop28
280
     0
102
RTVSPost2010PropOp28
 70
     1
102
RTVSPost2010Prop29
280
     1
102
RTVSPost2010PropOp29
 70
     1
102
RTVSPost2010Prop30
280
     1
102
RTVSPost2010PropOp30
 70
     1
102
RTVSPost2010Prop31
280
     0
102
RTVSPost2010PropOp31
 70
     1
102
RTVSPost2010Prop32
280
     0
102
RTVSPost2010PropOp32
 70
     1
102
RTVSPost2010Prop33
280
     0
102
RTVSPost2010PropOp33
 70
     1
102
RTVSPost2010Prop34
280
     0
102
RTVSPost2010PropOp34
 70
     1
102
RTVSPost2010Prop35
280
     0
102
RTVSPost2010PropOp35
 70
     1
102
RTVSPost2010Prop36
280
     0
102
RTVSPost2010PropOp36
 70
     1
102
RTVSPost2010Prop37
 90
       50
102
RTVSPost2010PropOp37
 70
     1
102
RTVSPost2010Prop38
140
0.0
102
RTVSPost2010PropOp38
 70
     1
102
RTVSPost2010Prop39
140
1.0
102
RTVSPost2010PropOp39
 70
     1
102
RTVSPost2010Prop40
 90
        0
102
RTVSPost2010PropOp40
 70
     1
102
RTVSPost2010Prop41ColorIndex
 90
       18
102
RTVSPost2010Prop41ColorRGB
 90
        0
102
RTVSPost2010PropOp41
 70
     1
102
RTVSPost2010Prop42
 90
       50
102
RTVSPost2010PropOp42
 70
     1
102
RTVSPost2010Prop43
 90
        3
102
RTVSPost2010PropOp43
 70
     1
102
RTVSPost2010Prop44ColorIndex
 90
        5
102
RTVSPost2010Prop44ColorRGB
 90
      255
102
RTVSPost2010PropOp44
 70
     1
102
RTVSPost2010Prop45
280
     0
102
RTVSPost2010PropOp45
 70
     1
102
RTVSPost2010Prop46
 90
       50
102
RTVSPost2010PropOp46
 70
     1
102
RTVSPost2010Prop47
 90
       50
102
RTVSPost2010PropOp47
 70
     1
102
RTVSPost2010Prop48
 90
       50
102
RTVSPost2010PropOp48
 70
     1
102
RTVSPost2010Prop49
280
     0
102
RTVSPost2010PropOp49
 70
     1
102
RTVSPost2010Prop50
 90
       50
102
RTVSPost2010PropOp50
 70
     1
102
RTVSPost2010Prop51ColorIndex
 90
      256
102
RTVSPost2010Prop51ColorRGB
 90
-16777216
102
RTVSPost2010PropOp51
 70
     0
102
RTVSPost2010Prop52
140
1.0
102
RTVSPost2010PropOp52
 70
     0
102
RTVSPost2010Prop53
 90
        2
102
RTVSPost2010PropOp53
 70
     1
102
RTVSPost2010Prop54
  1
strokes_ogs.tif
102
RTVSPost2010PropOp54
 70
     1
102
RTVSPost2010Prop55
280
     0
102
RTVSPost2010PropOp55
 70
     1
102
RTVSPost2010Prop56
140
1.0
102
RTVSPost2010PropOp56
 70
     1
102
RTVSPost2010Prop57
140
1.0
102
RTVSPost2010PropOp57
 70
     1
  0
XRECORD
  5
238
102
{ACAD_REACTORS
330
237
102
}
330
237
100
AcDbXrecord
280
     1
102
RTVSPost2010Prop28
280
     0
102
RTVSPost2010PropOp28
 70
     1
102
RTVSPost2010Prop29
280
     1
102
RTVSPost2010PropOp29
 70
     1
102
RTVSPost2010Prop30
280
     1
102
RTVSPost2010PropOp30
 70
     1
102
RTVSPost2010Prop31
280
     0
102
RTVSPost2010PropOp31
 70
     1
102
RTVSPost2010Prop32
280
     0
102
RTVSPost2010PropOp32
 70
     1
102
RTVSPost2010Prop33
280
     0
102
RTVSPost2010PropOp33
 70
     1
102
RTVSPost2010Prop34
280
     0
102
RTVSPost2010PropOp34
 70
     1
102
RTVSPost2010Prop35
280
     0
102
RTVSPost2010PropOp35
 70
     1
102
RTVSPost2010Prop36
280
     0
102
RTVSPost2010PropOp36
 70
     1
102
RTVSPost2010Prop37
 90
       50
102
RTVSPost2010PropOp37
 70
     1
102
RTVSPost2010Prop38
140
0.0
102
RTVSPost2010PropOp38
 70
     1
102
RTVSPost2010Prop39
140
1.0
102
RTVSPost2010PropOp39
 70
     1
102
RTVSPost2010Prop40
 90
        0
102
RTVSPost2010PropOp40
 70
     1
102
RTVSPost2010Prop41ColorIndex
 90
       18
102
RTVSPost2010Prop41ColorRGB
 90
        0
102
RTVSPost2010PropOp41
 70
     1
102
RTVSPost2010Prop42
 90
       50
102
RTVSPost2010PropOp42
 70
     1
102
RTVSPost2010Prop43
 90
        3
102
RTVSPost2010PropOp43
 70
     1
102
RTVSPost2010Prop44ColorIndex
 90
        5
102
RTVSPost2010Prop44ColorRGB
 90
      255
102
RTVSPost2010PropOp44
 70
     1
102
RTVSPost2010Prop45
280
     0
102
RTVSPost2010PropOp45
 70
     1
102
RTVSPost2010Prop46
 90
       50
102
RTVSPost2010PropOp46
 70
     1
102
RTVSPost2010Prop47
 90
       50
102
RTVSPost2010PropOp47
 70
     1
102
RTVSPost2010Prop48
 90
       50
102
RTVSPost2010PropOp48
 70
     1
102
RTVSPost2010Prop49
280
     0
102
RTVSPost2010PropOp49
 70
     1
102
RTVSPost2010Prop50
 90
       50
102
RTVSPost2010PropOp50
 70
     1
102
RTVSPost2010Prop51ColorIndex
 90
      256
102
RTVSPost2010Prop51ColorRGB
 90
-16777216
102
RTVSPost2010PropOp51
 70
     0
102
RTVSPost2010Prop52
140
1.0
102
RTVSPost2010PropOp52
 70
     0
102
RTVSPost2010Prop53
 90
        2
102
RTVSPost2010PropOp53
 70
     1
102
RTVSPost2010Prop54
  1
strokes_ogs.tif
102
RTVSPost2010PropOp54
 70
     1
102
RTVSPost2010Prop55
280
     0
102
RTVSPost2010PropOp55
 70
     1
102
RTVSPost2010Prop56
140
1.0
102
RTVSPost2010PropOp56
 70
     1
102
RTVSPost2010Prop57
140
1.0
102
RTVSPost2010PropOp57
 70
     1
  0
XRECORD
  5
23A
102
{ACAD_REACTORS
330
239
102
}
330
239
100
AcDbXrecord
280
     1
102
RTVSPost2010Prop28
280
     0
102
RTVSPost2010PropOp28
 70
     1
102
RTVSPost2010Prop29
280
     1
102
RTVSPost2010PropOp29
 70
     1
102
RTVSPost2010Prop30
280
     1
102
RTVSPost2010PropOp30
 70
     1
102
RTVSPost2010Prop31
280
     0
102
RTVSPost2010PropOp31
 70
     1
102
RTVSPost2010Prop32
280
     0
102
RTVSPost2010PropOp32
 70
     1
102
RTVSPost2010Prop33
280
     0
102
RTVSPost2010PropOp33
 70
     1
102
RTVSPost2010Prop34
280
     0
102
RTVSPost2010PropOp34
 70
     1
102
RTVSPost2010Prop35
280
     0
102
RTVSPost2010PropOp35
 70
     1
102
RTVSPost2010Prop36
280
     0
102
RTVSPost2010PropOp36
 70
     1
102
RTVSPost2010Prop37
 90
       50
102
RTVSPost2010PropOp37
 70
     1
102
RTVSPost2010Prop38
140
0.0
102
RTVSPost2010PropOp38
 70
     1
102
RTVSPost2010Prop39
140
1.0
102
RTVSPost2010PropOp39
 70
     1
102
RTVSPost2010Prop40
 90
        0
102
RTVSPost2010PropOp40
 70
     1
102
RTVSPost2010Prop41ColorIndex
 90
       18
102
RTVSPost2010Prop41ColorRGB
 90
        0
102
RTVSPost2010PropOp41
 70
     1
102
RTVSPost2010Prop42
 90
       50
102
RTVSPost2010PropOp42
 70
     1
102
RTVSPost2010Prop43
 90
        3
102
RTVSPost2010PropOp43
 70
     1
102
RTVSPost2010Prop44ColorIndex
 90
        5
102
RTVSPost2010Prop44ColorRGB
 90
      255
102
RTVSPost2010PropOp44
 70
     1
102
RTVSPost2010Prop45
280
     0
102
RTVSPost2010PropOp45
 70
     1
102
RTVSPost2010Prop46
 90
       50
102
RTVSPost2010PropOp46
 70
     1
102
RTVSPost2010Prop47
 90
       50
102
RTVSPost2010PropOp47
 70
     1
102
RTVSPost2010Prop48
 90
       50
102
RTVSPost2010PropOp48
 70
     1
102
RTVSPost2010Prop49
280
     0
102
RTVSPost2010PropOp49
 70
     1
102
RTVSPost2010Prop50
 90
       50
102
RTVSPost2010PropOp50
 70
     1
102
RTVSPost2010Prop51ColorIndex
 90
      256
102
RTVSPost2010Prop51ColorRGB
 90
-16777216
102
RTVSPost2010PropOp51
 70
     0
102
RTVSPost2010Prop52
140
1.0
102
RTVSPost2010PropOp52
 70
     0
102
RTVSPost2010Prop53
 90
        2
102
RTVSPost2010PropOp53
 70
     1
102
RTVSPost2010Prop54
  1
strokes_ogs.tif
102
RTVSPost2010PropOp54
 70
     1
102
RTVSPost2010Prop55
280
     0
102
RTVSPost2010PropOp55
 70
     1
102
RTVSPost2010Prop56
140
1.0
102
RTVSPost2010PropOp56
 70
     1
102
RTVSPost2010Prop57
140
1.0
102
RTVSPost2010PropOp57
 70
     1
  0
XRECORD
  5
23C
102
{ACAD_REACTORS
330
23B
102
}
330
23B
100
AcDbXrecord
280
     1
102
RTVSPost2010Prop28
280
     0
102
RTVSPost2010PropOp28
 70
     1
102
RTVSPost2010Prop29
280
     1
102
RTVSPost2010PropOp29
 70
     1
102
RTVSPost2010Prop30
280
     1
102
RTVSPost2010PropOp30
 70
     1
102
RTVSPost2010Prop31
280
     0
102
RTVSPost2010PropOp31
 70
     1
102
RTVSPost2010Prop32
280
     0
102
RTVSPost2010PropOp32
 70
     1
102
RTVSPost2010Prop33
280
     0
102
RTVSPost2010PropOp33
 70
     1
102
RTVSPost2010Prop34
280
     0
102
RTVSPost2010PropOp34
 70
     1
102
RTVSPost2010Prop35
280
     0
102
RTVSPost2010PropOp35
 70
     1
102
RTVSPost2010Prop36
280
     0
102
RTVSPost2010PropOp36
 70
     1
102
RTVSPost2010Prop37
 90
       50
102
RTVSPost2010PropOp37
 70
     1
102
RTVSPost2010Prop38
140
0.0
102
RTVSPost2010PropOp38
 70
     1
102
RTVSPost2010Prop39
140
1.0
102
RTVSPost2010PropOp39
 70
     1
102
RTVSPost2010Prop40
 90
        0
102
RTVSPost2010PropOp40
 70
     1
102
RTVSPost2010Prop41ColorIndex
 90
       18
102
RTVSPost2010Prop41ColorRGB
 90
        0
102
RTVSPost2010PropOp41
 70
     1
102
RTVSPost2010Prop42
 90
       50
102
RTVSPost2010PropOp42
 70
     1
102
RTVSPost2010Prop43
 90
        3
102
RTVSPost2010PropOp43
 70
     1
102
RTVSPost2010Prop44ColorIndex
 90
        5
102
RTVSPost2010Prop44ColorRGB
 90
      255
102
RTVSPost2010PropOp44
 70
     1
102
RTVSPost2010Prop45
280
     0
102
RTVSPost2010PropOp45
 70
     1
102
RTVSPost2010Prop46
 90
       50
102
RTVSPost2010PropOp46
 70
     1
102
RTVSPost2010Prop47
 90
       50
102
RTVSPost2010PropOp47
 70
     1
102
RTVSPost2010Prop48
 90
       50
102
RTVSPost2010PropOp48
 70
     1
102
RTVSPost2010Prop49
280
     0
102
RTVSPost2010PropOp49
 70
     1
102
RTVSPost2010Prop50
 90
       50
102
RTVSPost2010PropOp50
 70
     1
102
RTVSPost2010Prop51ColorIndex
 90
      256
102
RTVSPost2010Prop51ColorRGB
 90
-16777216
102
RTVSPost2010PropOp51
 70
     0
102
RTVSPost2010Prop52
140
1.0
102
RTVSPost2010PropOp52
 70
     0
102
RTVSPost2010Prop53
 90
        2
102
RTVSPost2010PropOp53
 70
     1
102
RTVSPost2010Prop54
  1
strokes_ogs.tif
102
RTVSPost2010PropOp54
 70
     1
102
RTVSPost2010Prop55
280
     0
102
RTVSPost2010PropOp55
 70
     1
102
RTVSPost2010Prop56
140
1.0
102
RTVSPost2010PropOp56
 70
     1
102
RTVSPost2010Prop57
140
1.0
102
RTVSPost2010PropOp57
 70
     1
  0
XRECORD
  5
244
102
{ACAD_REACTORS
330
243
102
}
330
243
100
AcDbXrecord
280
     1
102
RTVSPost2010Prop28
280
     0
102
RTVSPost2010PropOp28
 70
     1
102
RTVSPost2010Prop29
280
     1
102
RTVSPost2010PropOp29
 70
     1
102
RTVSPost2010Prop30
280
     1
102
RTVSPost2010PropOp30
 70
     1
102
RTVSPost2010Prop31
280
     0
102
RTVSPost2010PropOp31
 70
     1
102
RTVSPost2010Prop32
280
     0
102
RTVSPost2010PropOp32
 70
     1
102
RTVSPost2010Prop33
280
     0
102
RTVSPost2010PropOp33
 70
     1
102
RTVSPost2010Prop34
280
     0
102
RTVSPost2010PropOp34
 70
     1
102
RTVSPost2010Prop35
280
     0
102
RTVSPost2010PropOp35
 70
     1
102
RTVSPost2010Prop36
280
     0
102
RTVSPost2010PropOp36
 70
     1
102
RTVSPost2010Prop37
 90
       50
102
RTVSPost2010PropOp37
 70
     1
102
RTVSPost2010Prop38
140
0.0
102
RTVSPost2010PropOp38
 70
     1
102
RTVSPost2010Prop39
140
1.0
102
RTVSPost2010PropOp39
 70
     1
102
RTVSPost2010Prop40
 90
        0
102
RTVSPost2010PropOp40
 70
     1
102
RTVSPost2010Prop41ColorIndex
 90
       18
102
RTVSPost2010Prop41ColorRGB
 90
        0
102
RTVSPost2010PropOp41
 70
     1
102
RTVSPost2010Prop42
 90
       50
102
RTVSPost2010PropOp42
 70
     1
102
RTVSPost2010Prop43
 90
        3
102
RTVSPost2010PropOp43
 70
     1
102
RTVSPost2010Prop44ColorIndex
 90
        5
102
RTVSPost2010Prop44ColorRGB
 90
      255
102
RTVSPost2010PropOp44
 70
     1
102
RTVSPost2010Prop45
280
     0
102
RTVSPost2010PropOp45
 70
     1
102
RTVSPost2010Prop46
 90
       50
102
RTVSPost2010PropOp46
 70
     1
102
RTVSPost2010Prop47
 90
       50
102
RTVSPost2010PropOp47
 70
     1
102
RTVSPost2010Prop48
 90
       50
102
RTVSPost2010PropOp48
 70
     1
102
RTVSPost2010Prop49
280
     0
102
RTVSPost2010PropOp49
 70
     1
102
RTVSPost2010Prop50
 90
       50
102
RTVSPost2010PropOp50
 70
     1
102
RTVSPost2010Prop51ColorIndex
 90
      256
102
RTVSPost2010Prop51ColorRGB
 90
-16777216
102
RTVSPost2010PropOp51
 70
     0
102
RTVSPost2010Prop52
140
1.0
102
RTVSPost2010PropOp52
 70
     0
102
RTVSPost2010Prop53
 90
        2
102
RTVSPost2010PropOp53
 70
     1
102
RTVSPost2010Prop54
  1
strokes_ogs.tif
102
RTVSPost2010PropOp54
 70
     1
102
RTVSPost2010Prop55
280
     0
102
RTVSPost2010PropOp55
 70
     1
102
RTVSPost2010Prop56
140
1.0
102
RTVSPost2010PropOp56
 70
     1
102
RTVSPost2010Prop57
140
1.0
102
RTVSPost2010PropOp57
 70
     1
  0
XRECORD
  5
260
102
{ACAD_REACTORS
330
25F
102
}
330
25F
100
AcDbXrecord
280
     1
102
RTVSPost2010Prop28
280
     0
102
RTVSPost2010PropOp28
 70
     0
102
RTVSPost2010Prop29
280
     1
102
RTVSPost2010PropOp29
 70
     0
102
RTVSPost2010Prop30
280
     1
102
RTVSPost2010PropOp30
 70
     0
102
RTVSPost2010Prop31
280
     0
102
RTVSPost2010PropOp31
 70
     0
102
RTVSPost2010Prop32
280
     0
102
RTVSPost2010PropOp32
 70
     0
102
RTVSPost2010Prop33
280
     0
102
RTVSPost2010PropOp33
 70
     0
102
RTVSPost2010Prop34
280
     0
102
RTVSPost2010PropOp34
 70
     0
102
RTVSPost2010Prop35
280
     0
102
RTVSPost2010PropOp35
 70
     0
102
RTVSPost2010Prop36
280
     0
102
RTVSPost2010PropOp36
 70
     0
102
RTVSPost2010Prop37
 90
       50
102
RTVSPost2010PropOp37
 70
     0
102
RTVSPost2010Prop38
140
0.0
102
RTVSPost2010PropOp38
 70
     0
102
RTVSPost2010Prop39
140
1.0
102
RTVSPost2010PropOp39
 70
     0
102
RTVSPost2010Prop40
 90
        0
102
RTVSPost2010PropOp40
 70
     0
102
RTVSPost2010Prop41ColorIndex
 90
       18
102
RTVSPost2010Prop41ColorRGB
 90
        0
102
RTVSPost2010PropOp41
 70
     0
102
RTVSPost2010Prop42
 90
       50
102
RTVSPost2010PropOp42
 70
     0
102
RTVSPost2010Prop43
 90
        3
102
RTVSPost2010PropOp43
 70
     0
102
RTVSPost2010Prop44ColorIndex
 90
        5
102
RTVSPost2010Prop44ColorRGB
 90
      255
102
RTVSPost2010PropOp44
 70
     0
102
RTVSPost2010Prop45
280
     0
102
RTVSPost2010PropOp45
 70
     0
102
RTVSPost2010Prop46
 90
       50
102
RTVSPost2010PropOp46
 70
     0
102
RTVSPost2010Prop47
 90
       50
102
RTVSPost2010PropOp47
 70
     0
102
RTVSPost2010Prop48
 90
       50
102
RTVSPost2010PropOp48
 70
     0
102
RTVSPost2010Prop49
280
     0
102
RTVSPost2010PropOp49
 70
     0
102
RTVSPost2010Prop50
 90
       50
102
RTVSPost2010PropOp50
 70
     0
102
RTVSPost2010Prop51ColorIndex
 90
      256
102
RTVSPost2010Prop51ColorRGB
 90
-16777216
102
RTVSPost2010PropOp51
 70
     0
102
RTVSPost2010Prop52
140
1.0
102
RTVSPost2010PropOp52
 70
     0
102
RTVSPost2010Prop53
 90
        2
102
RTVSPost2010PropOp53
 70
     0
102
RTVSPost2010Prop54
  1
strokes_ogs.tif
102
RTVSPost2010PropOp54
 70
     0
102
RTVSPost2010Prop55
280
     0
102
RTVSPost2010PropOp55
 70
     0
102
RTVSPost2010Prop56
140
1.0
102
RTVSPost2010PropOp56
 70
     0
102
RTVSPost2010Prop57
140
1.0
102
RTVSPost2010PropOp57
 70
     0
  0
XRECORD
  5
250
102
{ACAD_REACTORS
330
24F
102
}
330
24F
100
AcDbXrecord
280
     1
102
RTVSPost2010Prop28
280
     0
102
RTVSPost2010PropOp28
 70
     1
102
RTVSPost2010Prop29
280
     1
102
RTVSPost2010PropOp29
 70
     1
102
RTVSPost2010Prop30
280
     1
102
RTVSPost2010PropOp30
 70
     1
102
RTVSPost2010Prop31
280
     0
102
RTVSPost2010PropOp31
 70
     1
102
RTVSPost2010Prop32
280
     0
102
RTVSPost2010PropOp32
 70
     1
102
RTVSPost2010Prop33
280
     0
102
RTVSPost2010PropOp33
 70
     1
102
RTVSPost2010Prop34
280
     0
102
RTVSPost2010PropOp34
 70
     1
102
RTVSPost2010Prop35
280
     0
102
RTVSPost2010PropOp35
 70
     1
102
RTVSPost2010Prop36
280
     0
102
RTVSPost2010PropOp36
 70
     1
102
RTVSPost2010Prop37
 90
       50
102
RTVSPost2010PropOp37
 70
     1
102
RTVSPost2010Prop38
140
0.0
102
RTVSPost2010PropOp38
 70
     1
102
RTVSPost2010Prop39
140
1.0
102
RTVSPost2010PropOp39
 70
     1
102
RTVSPost2010Prop40
 90
        0
102
RTVSPost2010PropOp40
 70
     1
102
RTVSPost2010Prop41ColorIndex
 90
       18
102
RTVSPost2010Prop41ColorRGB
 90
        0
102
RTVSPost2010PropOp41
 70
     1
102
RTVSPost2010Prop42
 90
       50
102
RTVSPost2010PropOp42
 70
     1
102
RTVSPost2010Prop43
 90
        3
102
RTVSPost2010PropOp43
 70
     1
102
RTVSPost2010Prop44ColorIndex
 90
        5
102
RTVSPost2010Prop44ColorRGB
 90
      255
102
RTVSPost2010PropOp44
 70
     1
102
RTVSPost2010Prop45
280
     0
102
RTVSPost2010PropOp45
 70
     1
102
RTVSPost2010Prop46
 90
       50
102
RTVSPost2010PropOp46
 70
     1
102
RTVSPost2010Prop47
 90
       50
102
RTVSPost2010PropOp47
 70
     1
102
RTVSPost2010Prop48
 90
       50
102
RTVSPost2010PropOp48
 70
     1
102
RTVSPost2010Prop49
280
     0
102
RTVSPost2010PropOp49
 70
     1
102
RTVSPost2010Prop50
 90
       50
102
RTVSPost2010PropOp50
 70
     1
102
RTVSPost2010Prop51ColorIndex
 90
      256
102
RTVSPost2010Prop51ColorRGB
 90
-16777216
102
RTVSPost2010PropOp51
 70
     0
102
RTVSPost2010Prop52
140
1.0
102
RTVSPost2010PropOp52
 70
     0
102
RTVSPost2010Prop53
 90
        2
102
RTVSPost2010PropOp53
 70
     1
102
RTVSPost2010Prop54
  1
strokes_ogs.tif
102
RTVSPost2010PropOp54
 70
     1
102
RTVSPost2010Prop55
280
     0
102
RTVSPost2010PropOp55
 70
     1
102
RTVSPost2010Prop56
140
1.0
102
RTVSPost2010PropOp56
 70
     1
102
RTVSPost2010Prop57
140
1.0
102
RTVSPost2010PropOp57
 70
     1
  0
XRECORD
  5
262
102
{ACAD_REACTORS
330
261
102
}
330
261
100
AcDbXrecord
280
     1
102
RTVSPost2010Prop28
280
     0
102
RTVSPost2010PropOp28
 70
     0
102
RTVSPost2010Prop29
280
     1
102
RTVSPost2010PropOp29
 70
     0
102
RTVSPost2010Prop30
280
     1
102
RTVSPost2010PropOp30
 70
     0
102
RTVSPost2010Prop31
280
     0
102
RTVSPost2010PropOp31
 70
     0
102
RTVSPost2010Prop32
280
     0
102
RTVSPost2010PropOp32
 70
     0
102
RTVSPost2010Prop33
280
     0
102
RTVSPost2010PropOp33
 70
     0
102
RTVSPost2010Prop34
280
     0
102
RTVSPost2010PropOp34
 70
     0
102
RTVSPost2010Prop35
280
     0
102
RTVSPost2010PropOp35
 70
     0
102
RTVSPost2010Prop36
280
     0
102
RTVSPost2010PropOp36
 70
     0
102
RTVSPost2010Prop37
 90
       50
102
RTVSPost2010PropOp37
 70
     0
102
RTVSPost2010Prop38
140
0.0
102
RTVSPost2010PropOp38
 70
     0
102
RTVSPost2010Prop39
140
1.0
102
RTVSPost2010PropOp39
 70
     0
102
RTVSPost2010Prop40
 90
        0
102
RTVSPost2010PropOp40
 70
     0
102
RTVSPost2010Prop41ColorIndex
 90
       18
102
RTVSPost2010Prop41ColorRGB
 90
        0
102
RTVSPost2010PropOp41
 70
     0
102
RTVSPost2010Prop42
 90
       50
102
RTVSPost2010PropOp42
 70
     0
102
RTVSPost2010Prop43
 90
        3
102
RTVSPost2010PropOp43
 70
     0
102
RTVSPost2010Prop44ColorIndex
 90
        5
102
RTVSPost2010Prop44ColorRGB
 90
      255
102
RTVSPost2010PropOp44
 70
     0
102
RTVSPost2010Prop45
280
     0
102
RTVSPost2010PropOp45
 70
     0
102
RTVSPost2010Prop46
 90
       50
102
RTVSPost2010PropOp46
 70
     0
102
RTVSPost2010Prop47
 90
       50
102
RTVSPost2010PropOp47
 70
     0
102
RTVSPost2010Prop48
 90
       50
102
RTVSPost2010PropOp48
 70
     0
102
RTVSPost2010Prop49
280
     0
102
RTVSPost2010PropOp49
 70
     0
102
RTVSPost2010Prop50
 90
       50
102
RTVSPost2010PropOp50
 70
     0
102
RTVSPost2010Prop51ColorIndex
 90
      256
102
RTVSPost2010Prop51ColorRGB
 90
-16777216
102
RTVSPost2010PropOp51
 70
     0
102
RTVSPost2010Prop52
140
1.0
102
RTVSPost2010PropOp52
 70
     0
102
RTVSPost2010Prop53
 90
        2
102
RTVSPost2010PropOp53
 70
     0
102
RTVSPost2010Prop54
  1
strokes_ogs.tif
102
RTVSPost2010PropOp54
 70
     0
102
RTVSPost2010Prop55
280
     0
102
RTVSPost2010PropOp55
 70
     0
102
RTVSPost2010Prop56
140
1.0
102
RTVSPost2010PropOp56
 70
     0
102
RTVSPost2010Prop57
140
1.0
102
RTVSPost2010PropOp57
 70
     0
  0
XRECORD
  5
248
102
{ACAD_REACTORS
330
247
102
}
330
247
100
AcDbXrecord
280
     1
102
RTVSPost2010Prop28
280
     0
102
RTVSPost2010PropOp28
 70
     1
102
RTVSPost2010Prop29
280
     1
102
RTVSPost2010PropOp29
 70
     1
102
RTVSPost2010Prop30
280
     1
102
RTVSPost2010PropOp30
 70
     1
102
RTVSPost2010Prop31
280
     0
102
RTVSPost2010PropOp31
 70
     1
102
RTVSPost2010Prop32
280
     0
102
RTVSPost2010PropOp32
 70
     1
102
RTVSPost2010Prop33
280
     0
102
RTVSPost2010PropOp33
 70
     1
102
RTVSPost2010Prop34
280
     0
102
RTVSPost2010PropOp34
 70
     1
102
RTVSPost2010Prop35
280
     0
102
RTVSPost2010PropOp35
 70
     1
102
RTVSPost2010Prop36
280
     0
102
RTVSPost2010PropOp36
 70
     1
102
RTVSPost2010Prop37
 90
       50
102
RTVSPost2010PropOp37
 70
     1
102
RTVSPost2010Prop38
140
0.0
102
RTVSPost2010PropOp38
 70
     1
102
RTVSPost2010Prop39
140
1.0
102
RTVSPost2010PropOp39
 70
     1
102
RTVSPost2010Prop40
 90
        0
102
RTVSPost2010PropOp40
 70
     1
102
RTVSPost2010Prop41ColorIndex
 90
       18
102
RTVSPost2010Prop41ColorRGB
 90
        0
102
RTVSPost2010PropOp41
 70
     1
102
RTVSPost2010Prop42
 90
       50
102
RTVSPost2010PropOp42
 70
     1
102
RTVSPost2010Prop43
 90
        3
102
RTVSPost2010PropOp43
 70
     1
102
RTVSPost2010Prop44ColorIndex
 90
        5
102
RTVSPost2010Prop44ColorRGB
 90
      255
102
RTVSPost2010PropOp44
 70
     1
102
RTVSPost2010Prop45
280
     0
102
RTVSPost2010PropOp45
 70
     1
102
RTVSPost2010Prop46
 90
       50
102
RTVSPost2010PropOp46
 70
     1
102
RTVSPost2010Prop47
 90
       50
102
RTVSPost2010PropOp47
 70
     1
102
RTVSPost2010Prop48
 90
       50
102
RTVSPost2010PropOp48
 70
     1
102
RTVSPost2010Prop49
280
     0
102
RTVSPost2010PropOp49
 70
     1
102
RTVSPost2010Prop50
 90
       50
102
RTVSPost2010PropOp50
 70
     1
102
RTVSPost2010Prop51ColorIndex
 90
      256
102
RTVSPost2010Prop51ColorRGB
 90
-16777216
102
RTVSPost2010PropOp51
 70
     0
102
RTVSPost2010Prop52
140
1.0
102
RTVSPost2010PropOp52
 70
     0
102
RTVSPost2010Prop53
 90
        2
102
RTVSPost2010PropOp53
 70
     1
102
RTVSPost2010Prop54
  1
strokes_ogs.tif
102
RTVSPost2010PropOp54
 70
     1
102
RTVSPost2010Prop55
280
     0
102
RTVSPost2010PropOp55
 70
     1
102
RTVSPost2010Prop56
140
1.0
102
RTVSPost2010PropOp56
 70
     1
102
RTVSPost2010Prop57
140
1.0
102
RTVSPost2010PropOp57
 70
     1
  0
XRECORD
  5
25E
102
{ACAD_REACTORS
330
25D
102
}
330
25D
100
AcDbXrecord
280
     1
102
RTVSPost2010Prop28
280
     0
102
RTVSPost2010PropOp28
 70
     1
102
RTVSPost2010Prop29
280
     1
102
RTVSPost2010PropOp29
 70
     1
102
RTVSPost2010Prop30
280
     1
102
RTVSPost2010PropOp30
 70
     1
102
RTVSPost2010Prop31
280
     0
102
RTVSPost2010PropOp31
 70
     1
102
RTVSPost2010Prop32
280
     0
102
RTVSPost2010PropOp32
 70
     1
102
RTVSPost2010Prop33
280
     0
102
RTVSPost2010PropOp33
 70
     1
102
RTVSPost2010Prop34
280
     0
102
RTVSPost2010PropOp34
 70
     1
102
RTVSPost2010Prop35
280
     0
102
RTVSPost2010PropOp35
 70
     1
102
RTVSPost2010Prop36
280
     0
102
RTVSPost2010PropOp36
 70
     1
102
RTVSPost2010Prop37
 90
       50
102
RTVSPost2010PropOp37
 70
     1
102
RTVSPost2010Prop38
140
0.0
102
RTVSPost2010PropOp38
 70
     1
102
RTVSPost2010Prop39
140
1.0
102
RTVSPost2010PropOp39
 70
     1
102
RTVSPost2010Prop40
 90
        0
102
RTVSPost2010PropOp40
 70
     1
102
RTVSPost2010Prop41ColorIndex
 90
       18
102
RTVSPost2010Prop41ColorRGB
 90
        0
102
RTVSPost2010PropOp41
 70
     1
102
RTVSPost2010Prop42
 90
       50
102
RTVSPost2010PropOp42
 70
     1
102
RTVSPost2010Prop43
 90
        3
102
RTVSPost2010PropOp43
 70
     1
102
RTVSPost2010Prop44ColorIndex
 90
        5
102
RTVSPost2010Prop44ColorRGB
 90
      255
102
RTVSPost2010PropOp44
 70
     1
102
RTVSPost2010Prop45
280
     0
102
RTVSPost2010PropOp45
 70
     1
102
RTVSPost2010Prop46
 90
       50
102
RTVSPost2010PropOp46
 70
     1
102
RTVSPost2010Prop47
 90
       50
102
RTVSPost2010PropOp47
 70
     1
102
RTVSPost2010Prop48
 90
       50
102
RTVSPost2010PropOp48
 70
     1
102
RTVSPost2010Prop49
280
     0
102
RTVSPost2010PropOp49
 70
     1
102
RTVSPost2010Prop50
 90
       50
102
RTVSPost2010PropOp50
 70
     1
102
RTVSPost2010Prop51ColorIndex
 90
      256
102
RTVSPost2010Prop51ColorRGB
 90
-16777216
102
RTVSPost2010PropOp51
 70
     0
102
RTVSPost2010Prop52
140
1.0
102
RTVSPost2010PropOp52
 70
     0
102
RTVSPost2010Prop53
 90
        2
102
RTVSPost2010PropOp53
 70
     1
102
RTVSPost2010Prop54
  1
strokes_ogs.tif
102
RTVSPost2010PropOp54
 70
     1
102
RTVSPost2010Prop55
280
     0
102
RTVSPost2010PropOp55
 70
     1
102
RTVSPost2010Prop56
140
1.0
102
RTVSPost2010PropOp56
 70
     1
102
RTVSPost2010Prop57
140
1.0
102
RTVSPost2010PropOp57
 70
     1
  0
XRECORD
  5
25C
102
{ACAD_REACTORS
330
25B
102
}
330
25B
100
AcDbXrecord
280
     1
102
RTVSPost2010Prop28
280
     0
102
RTVSPost2010PropOp28
 70
     1
102
RTVSPost2010Prop29
280
     1
102
RTVSPost2010PropOp29
 70
     1
102
RTVSPost2010Prop30
280
     1
102
RTVSPost2010PropOp30
 70
     1
102
RTVSPost2010Prop31
280
     0
102
RTVSPost2010PropOp31
 70
     1
102
RTVSPost2010Prop32
280
     0
102
RTVSPost2010PropOp32
 70
     1
102
RTVSPost2010Prop33
280
     0
102
RTVSPost2010PropOp33
 70
     1
102
RTVSPost2010Prop34
280
     0
102
RTVSPost2010PropOp34
 70
     1
102
RTVSPost2010Prop35
280
     0
102
RTVSPost2010PropOp35
 70
     1
102
RTVSPost2010Prop36
280
     0
102
RTVSPost2010PropOp36
 70
     1
102
RTVSPost2010Prop37
 90
       50
102
RTVSPost2010PropOp37
 70
     1
102
RTVSPost2010Prop38
140
0.0
102
RTVSPost2010PropOp38
 70
     1
102
RTVSPost2010Prop39
140
1.0
102
RTVSPost2010PropOp39
 70
     1
102
RTVSPost2010Prop40
 90
        0
102
RTVSPost2010PropOp40
 70
     1
102
RTVSPost2010Prop41ColorIndex
 90
       18
102
RTVSPost2010Prop41ColorRGB
 90
        0
102
RTVSPost2010PropOp41
 70
     1
102
RTVSPost2010Prop42
 90
       50
102
RTVSPost2010PropOp42
 70
     1
102
RTVSPost2010Prop43
 90
        3
102
RTVSPost2010PropOp43
 70
     1
102
RTVSPost2010Prop44ColorIndex
 90
        5
102
RTVSPost2010Prop44ColorRGB
 90
      255
102
RTVSPost2010PropOp44
 70
     1
102
RTVSPost2010Prop45
280
     0
102
RTVSPost2010PropOp45
 70
     1
102
RTVSPost2010Prop46
 90
       50
102
RTVSPost2010PropOp46
 70
     1
102
RTVSPost2010Prop47
 90
       50
102
RTVSPost2010PropOp47
 70
     1
102
RTVSPost2010Prop48
 90
       50
102
RTVSPost2010PropOp48
 70
     1
102
RTVSPost2010Prop49
280
     0
102
RTVSPost2010PropOp49
 70
     1
102
RTVSPost2010Prop50
 90
       50
102
RTVSPost2010PropOp50
 70
     1
102
RTVSPost2010Prop51ColorIndex
 90
      256
102
RTVSPost2010Prop51ColorRGB
 90
-16777216
102
RTVSPost2010PropOp51
 70
     0
102
RTVSPost2010Prop52
140
1.0
102
RTVSPost2010PropOp52
 70
     0
102
RTVSPost2010Prop53
 90
        2
102
RTVSPost2010PropOp53
 70
     1
102
RTVSPost2010Prop54
  1
strokes_ogs.tif
102
RTVSPost2010PropOp54
 70
     1
102
RTVSPost2010Prop55
280
     0
102
RTVSPost2010PropOp55
 70
     1
102
RTVSPost2010Prop56
140
1.0
102
RTVSPost2010PropOp56
 70
     1
102
RTVSPost2010Prop57
140
1.0
102
RTVSPost2010PropOp57
 70
     1
  0
XRECORD
  5
256
102
{ACAD_REACTORS
330
255
102
}
330
255
100
AcDbXrecord
280
     1
102
RTVSPost2010Prop28
280
     0
102
RTVSPost2010PropOp28
 70
     1
102
RTVSPost2010Prop29
280
     1
102
RTVSPost2010PropOp29
 70
     1
102
RTVSPost2010Prop30
280
     1
102
RTVSPost2010PropOp30
 70
     1
102
RTVSPost2010Prop31
280
     0
102
RTVSPost2010PropOp31
 70
     1
102
RTVSPost2010Prop32
280
     0
102
RTVSPost2010PropOp32
 70
     1
102
RTVSPost2010Prop33
280
     0
102
RTVSPost2010PropOp33
 70
     1
102
RTVSPost2010Prop34
280
     0
102
RTVSPost2010PropOp34
 70
     1
102
RTVSPost2010Prop35
280
     0
102
RTVSPost2010PropOp35
 70
     1
102
RTVSPost2010Prop36
280
     0
102
RTVSPost2010PropOp36
 70
     1
102
RTVSPost2010Prop37
 90
       50
102
RTVSPost2010PropOp37
 70
     1
102
RTVSPost2010Prop38
140
0.0
102
RTVSPost2010PropOp38
 70
     1
102
RTVSPost2010Prop39
140
1.0
102
RTVSPost2010PropOp39
 70
     1
102
RTVSPost2010Prop40
 90
        0
102
RTVSPost2010PropOp40
 70
     1
102
RTVSPost2010Prop41ColorIndex
 90
       18
102
RTVSPost2010Prop41ColorRGB
 90
        0
102
RTVSPost2010PropOp41
 70
     1
102
RTVSPost2010Prop42
 90
       50
102
RTVSPost2010PropOp42
 70
     1
102
RTVSPost2010Prop43
 90
        3
102
RTVSPost2010PropOp43
 70
     1
102
RTVSPost2010Prop44ColorIndex
 90
        5
102
RTVSPost2010Prop44ColorRGB
 90
      255
102
RTVSPost2010PropOp44
 70
     1
102
RTVSPost2010Prop45
280
     0
102
RTVSPost2010PropOp45
 70
     1
102
RTVSPost2010Prop46
 90
       50
102
RTVSPost2010PropOp46
 70
     1
102
RTVSPost2010Prop47
 90
       50
102
RTVSPost2010PropOp47
 70
     1
102
RTVSPost2010Prop48
 90
       50
102
RTVSPost2010PropOp48
 70
     1
102
RTVSPost2010Prop49
280
     0
102
RTVSPost2010PropOp49
 70
     1
102
RTVSPost2010Prop50
 90
       50
102
RTVSPost2010PropOp50
 70
     1
102
RTVSPost2010Prop51ColorIndex
 90
      256
102
RTVSPost2010Prop51ColorRGB
 90
-16777216
102
RTVSPost2010PropOp51
 70
     0
102
RTVSPost2010Prop52
140
1.0
102
RTVSPost2010PropOp52
 70
     0
102
RTVSPost2010Prop53
 90
        2
102
RTVSPost2010PropOp53
 70
     1
102
RTVSPost2010Prop54
  1
strokes_ogs.tif
102
RTVSPost2010PropOp54
 70
     1
102
RTVSPost2010Prop55
280
     0
102
RTVSPost2010PropOp55
 70
     1
102
RTVSPost2010Prop56
140
1.0
102
RTVSPost2010PropOp56
 70
     1
102
RTVSPost2010Prop57
140
1.0
102
RTVSPost2010PropOp57
 70
     1
  0
XRECORD
  5
258
102
{ACAD_REACTORS
330
257
102
}
330
257
100
AcDbXrecord
280
     1
102
RTVSPost2010Prop28
280
     0
102
RTVSPost2010PropOp28
 70
     1
102
RTVSPost2010Prop29
280
     1
102
RTVSPost2010PropOp29
 70
     1
102
RTVSPost2010Prop30
280
     1
102
RTVSPost2010PropOp30
 70
     1
102
RTVSPost2010Prop31
280
     0
102
RTVSPost2010PropOp31
 70
     1
102
RTVSPost2010Prop32
280
     0
102
RTVSPost2010PropOp32
 70
     1
102
RTVSPost2010Prop33
280
     0
102
RTVSPost2010PropOp33
 70
     1
102
RTVSPost2010Prop34
280
     0
102
RTVSPost2010PropOp34
 70
     1
102
RTVSPost2010Prop35
280
     0
102
RTVSPost2010PropOp35
 70
     1
102
RTVSPost2010Prop36
280
     0
102
RTVSPost2010PropOp36
 70
     1
102
RTVSPost2010Prop37
 90
       50
102
RTVSPost2010PropOp37
 70
     1
102
RTVSPost2010Prop38
140
0.0
102
RTVSPost2010PropOp38
 70
     1
102
RTVSPost2010Prop39
140
1.0
102
RTVSPost2010PropOp39
 70
     1
102
RTVSPost2010Prop40
 90
        0
102
RTVSPost2010PropOp40
 70
     1
102
RTVSPost2010Prop41ColorIndex
 90
       18
102
RTVSPost2010Prop41ColorRGB
 90
        0
102
RTVSPost2010PropOp41
 70
     1
102
RTVSPost2010Prop42
 90
       50
102
RTVSPost2010PropOp42
 70
     1
102
RTVSPost2010Prop43
 90
        3
102
RTVSPost2010PropOp43
 70
     1
102
RTVSPost2010Prop44ColorIndex
 90
        5
102
RTVSPost2010Prop44ColorRGB
 90
      255
102
RTVSPost2010PropOp44
 70
     1
102
RTVSPost2010Prop45
280
     0
102
RTVSPost2010PropOp45
 70
     1
102
RTVSPost2010Prop46
 90
       50
102
RTVSPost2010PropOp46
 70
     1
102
RTVSPost2010Prop47
 90
       50
102
RTVSPost2010PropOp47
 70
     1
102
RTVSPost2010Prop48
 90
       50
102
RTVSPost2010PropOp48
 70
     1
102
RTVSPost2010Prop49
280
     0
102
RTVSPost2010PropOp49
 70
     1
102
RTVSPost2010Prop50
 90
       50
102
RTVSPost2010PropOp50
 70
     1
102
RTVSPost2010Prop51ColorIndex
 90
      256
102
RTVSPost2010Prop51ColorRGB
 90
-16777216
102
RTVSPost2010PropOp51
 70
     0
102
RTVSPost2010Prop52
140
1.0
102
RTVSPost2010PropOp52
 70
     0
102
RTVSPost2010Prop53
 90
        2
102
RTVSPost2010PropOp53
 70
     1
102
RTVSPost2010Prop54
  1
strokes_ogs.tif
102
RTVSPost2010PropOp54
 70
     1
102
RTVSPost2010Prop55
280
     0
102
RTVSPost2010PropOp55
 70
     1
102
RTVSPost2010Prop56
140
1.0
102
RTVSPost2010PropOp56
 70
     1
102
RTVSPost2010Prop57
140
1.0
102
RTVSPost2010PropOp57
 70
     1
  0
XRECORD
  5
24E
102
{ACAD_REACTORS
330
24D
102
}
330
24D
100
AcDbXrecord
280
     1
102
RTVSPost2010Prop28
280
     0
102
RTVSPost2010PropOp28
 70
     1
102
RTVSPost2010Prop29
280
     1
102
RTVSPost2010PropOp29
 70
     1
102
RTVSPost2010Prop30
280
     1
102
RTVSPost2010PropOp30
 70
     1
102
RTVSPost2010Prop31
280
     0
102
RTVSPost2010PropOp31
 70
     1
102
RTVSPost2010Prop32
280
     0
102
RTVSPost2010PropOp32
 70
     1
102
RTVSPost2010Prop33
280
     0
102
RTVSPost2010PropOp33
 70
     1
102
RTVSPost2010Prop34
280
     0
102
RTVSPost2010PropOp34
 70
     1
102
RTVSPost2010Prop35
280
     0
102
RTVSPost2010PropOp35
 70
     1
102
RTVSPost2010Prop36
280
     0
102
RTVSPost2010PropOp36
 70
     1
102
RTVSPost2010Prop37
 90
       50
102
RTVSPost2010PropOp37
 70
     1
102
RTVSPost2010Prop38
140
0.0
102
RTVSPost2010PropOp38
 70
     1
102
RTVSPost2010Prop39
140
1.0
102
RTVSPost2010PropOp39
 70
     1
102
RTVSPost2010Prop40
 90
        0
102
RTVSPost2010PropOp40
 70
     1
102
RTVSPost2010Prop41ColorIndex
 90
       18
102
RTVSPost2010Prop41ColorRGB
 90
        0
102
RTVSPost2010PropOp41
 70
     1
102
RTVSPost2010Prop42
 90
       50
102
RTVSPost2010PropOp42
 70
     1
102
RTVSPost2010Prop43
 90
        3
102
RTVSPost2010PropOp43
 70
     1
102
RTVSPost2010Prop44ColorIndex
 90
        5
102
RTVSPost2010Prop44ColorRGB
 90
      255
102
RTVSPost2010PropOp44
 70
     1
102
RTVSPost2010Prop45
280
     0
102
RTVSPost2010PropOp45
 70
     1
102
RTVSPost2010Prop46
 90
       50
102
RTVSPost2010PropOp46
 70
     1
102
RTVSPost2010Prop47
 90
       50
102
RTVSPost2010PropOp47
 70
     1
102
RTVSPost2010Prop48
 90
       50
102
RTVSPost2010PropOp48
 70
     1
102
RTVSPost2010Prop49
280
     0
102
RTVSPost2010PropOp49
 70
     1
102
RTVSPost2010Prop50
 90
       50
102
RTVSPost2010PropOp50
 70
     1
102
RTVSPost2010Prop51ColorIndex
 90
      256
102
RTVSPost2010Prop51ColorRGB
 90
-16777216
102
RTVSPost2010PropOp51
 70
     0
102
RTVSPost2010Prop52
140
1.0
102
RTVSPost2010PropOp52
 70
     0
102
RTVSPost2010Prop53
 90
        2
102
RTVSPost2010PropOp53
 70
     1
102
RTVSPost2010Prop54
  1
strokes_ogs.tif
102
RTVSPost2010PropOp54
 70
     1
102
RTVSPost2010Prop55
280
     0
102
RTVSPost2010PropOp55
 70
     1
102
RTVSPost2010Prop56
140
1.0
102
RTVSPost2010PropOp56
 70
     1
102
RTVSPost2010Prop57
140
1.0
102
RTVSPost2010PropOp57
 70
     1
  0
XRECORD
  5
242
102
{ACAD_REACTORS
330
241
102
}
330
241
100
AcDbXrecord
280
     1
102
RTVSPost2010Prop28
280
     0
102
RTVSPost2010PropOp28
 70
     1
102
RTVSPost2010Prop29
280
     1
102
RTVSPost2010PropOp29
 70
     1
102
RTVSPost2010Prop30
280
     1
102
RTVSPost2010PropOp30
 70
     1
102
RTVSPost2010Prop31
280
     0
102
RTVSPost2010PropOp31
 70
     1
102
RTVSPost2010Prop32
280
     0
102
RTVSPost2010PropOp32
 70
     1
102
RTVSPost2010Prop33
280
     0
102
RTVSPost2010PropOp33
 70
     1
102
RTVSPost2010Prop34
280
     0
102
RTVSPost2010PropOp34
 70
     1
102
RTVSPost2010Prop35
280
     0
102
RTVSPost2010PropOp35
 70
     1
102
RTVSPost2010Prop36
280
     0
102
RTVSPost2010PropOp36
 70
     1
102
RTVSPost2010Prop37
 90
       50
102
RTVSPost2010PropOp37
 70
     1
102
RTVSPost2010Prop38
140
0.0
102
RTVSPost2010PropOp38
 70
     1
102
RTVSPost2010Prop39
140
1.0
102
RTVSPost2010PropOp39
 70
     1
102
RTVSPost2010Prop40
 90
        0
102
RTVSPost2010PropOp40
 70
     1
102
RTVSPost2010Prop41ColorIndex
 90
       18
102
RTVSPost2010Prop41ColorRGB
 90
        0
102
RTVSPost2010PropOp41
 70
     1
102
RTVSPost2010Prop42
 90
       50
102
RTVSPost2010PropOp42
 70
     1
102
RTVSPost2010Prop43
 90
        3
102
RTVSPost2010PropOp43
 70
     1
102
RTVSPost2010Prop44ColorIndex
 90
        5
102
RTVSPost2010Prop44ColorRGB
 90
      255
102
RTVSPost2010PropOp44
 70
     1
102
RTVSPost2010Prop45
280
     0
102
RTVSPost2010PropOp45
 70
     1
102
RTVSPost2010Prop46
 90
       50
102
RTVSPost2010PropOp46
 70
     1
102
RTVSPost2010Prop47
 90
       50
102
RTVSPost2010PropOp47
 70
     1
102
RTVSPost2010Prop48
 90
       50
102
RTVSPost2010PropOp48
 70
     1
102
RTVSPost2010Prop49
280
     0
102
RTVSPost2010PropOp49
 70
     1
102
RTVSPost2010Prop50
 90
       50
102
RTVSPost2010PropOp50
 70
     1
102
RTVSPost2010Prop51ColorIndex
 90
      256
102
RTVSPost2010Prop51ColorRGB
 90
-16777216
102
RTVSPost2010PropOp51
 70
     0
102
RTVSPost2010Prop52
140
1.0
102
RTVSPost2010PropOp52
 70
     0
102
RTVSPost2010Prop53
 90
        2
102
RTVSPost2010PropOp53
 70
     1
102
RTVSPost2010Prop54
  1
strokes_ogs.tif
102
RTVSPost2010PropOp54
 70
     1
102
RTVSPost2010Prop55
280
     0
102
RTVSPost2010PropOp55
 70
     1
102
RTVSPost2010Prop56
140
1.0
102
RTVSPost2010PropOp56
 70
     1
102
RTVSPost2010Prop57
140
1.0
102
RTVSPost2010PropOp57
 70
     1
  0
XRECORD
  5
25A
102
{ACAD_REACTORS
330
259
102
}
330
259
100
AcDbXrecord
280
     1
102
RTVSPost2010Prop28
280
     0
102
RTVSPost2010PropOp28
 70
     1
102
RTVSPost2010Prop29
280
     1
102
RTVSPost2010PropOp29
 70
     1
102
RTVSPost2010Prop30
280
     1
102
RTVSPost2010PropOp30
 70
     1
102
RTVSPost2010Prop31
280
     0
102
RTVSPost2010PropOp31
 70
     1
102
RTVSPost2010Prop32
280
     0
102
RTVSPost2010PropOp32
 70
     1
102
RTVSPost2010Prop33
280
     0
102
RTVSPost2010PropOp33
 70
     1
102
RTVSPost2010Prop34
280
     0
102
RTVSPost2010PropOp34
 70
     1
102
RTVSPost2010Prop35
280
     0
102
RTVSPost2010PropOp35
 70
     1
102
RTVSPost2010Prop36
280
     0
102
RTVSPost2010PropOp36
 70
     1
102
RTVSPost2010Prop37
 90
       50
102
RTVSPost2010PropOp37
 70
     1
102
RTVSPost2010Prop38
140
0.0
102
RTVSPost2010PropOp38
 70
     1
102
RTVSPost2010Prop39
140
1.0
102
RTVSPost2010PropOp39
 70
     1
102
RTVSPost2010Prop40
 90
        0
102
RTVSPost2010PropOp40
 70
     1
102
RTVSPost2010Prop41ColorIndex
 90
       18
102
RTVSPost2010Prop41ColorRGB
 90
        0
102
RTVSPost2010PropOp41
 70
     1
102
RTVSPost2010Prop42
 90
       50
102
RTVSPost2010PropOp42
 70
     1
102
RTVSPost2010Prop43
 90
        3
102
RTVSPost2010PropOp43
 70
     1
102
RTVSPost2010Prop44ColorIndex
 90
        5
102
RTVSPost2010Prop44ColorRGB
 90
      255
102
RTVSPost2010PropOp44
 70
     1
102
RTVSPost2010Prop45
280
     0
102
RTVSPost2010PropOp45
 70
     1
102
RTVSPost2010Prop46
 90
       50
102
RTVSPost2010PropOp46
 70
     1
102
RTVSPost2010Prop47
 90
       50
102
RTVSPost2010PropOp47
 70
     1
102
RTVSPost2010Prop48
 90
       50
102
RTVSPost2010PropOp48
 70
     1
102
RTVSPost2010Prop49
280
     0
102
RTVSPost2010PropOp49
 70
     1
102
RTVSPost2010Prop50
 90
       50
102
RTVSPost2010PropOp50
 70
     1
102
RTVSPost2010Prop51ColorIndex
 90
      256
102
RTVSPost2010Prop51ColorRGB
 90
-16777216
102
RTVSPost2010PropOp51
 70
     0
102
RTVSPost2010Prop52
140
1.0
102
RTVSPost2010PropOp52
 70
     0
102
RTVSPost2010Prop53
 90
        2
102
RTVSPost2010PropOp53
 70
     1
102
RTVSPost2010Prop54
  1
strokes_ogs.tif
102
RTVSPost2010PropOp54
 70
     1
102
RTVSPost2010Prop55
280
     0
102
RTVSPost2010PropOp55
 70
     1
102
RTVSPost2010Prop56
140
1.0
102
RTVSPost2010PropOp56
 70
     1
102
RTVSPost2010Prop57
140
1.0
102
RTVSPost2010PropOp57
 70
     1
  0
ENDSEC
  0
EOF
