  0
SECTION
  2
HEADER
  9
$ACADVER
  1
AC1024
  9
$ACADMAINTVER
 70
   155
  9
$DWGCODEPAGE
  3
ANSI_1252
  9
$INSBASE
 10
0.0
 20
0.0
 30
0.0
  9
$EXTMIN
 10
1.000000000000000E+20
 20
1.000000000000000E+20
 30
1.000000000000000E+20
  9
$EXTMAX
 10
-1.000000000000000E+20
 20
-1.000000000000000E+20
 30
-1.000000000000000E+20
  9
$LIMMIN
 10
0.0
 20
0.0
  9
$LIMMAX
 10
12.0
 20
9.0
  9
$ORTHOMODE
 70
     0
  9
$REGENMODE
 70
     1
  9
$FILLMODE
 70
     1
  9
$QTEXTMODE
 70
     0
  9
$MIRRTEXT
 70
     1
  9
$LTSCALE
 40
1.0
  9
$ATTMODE
 70
     1
  9
$TEXTSIZE
 40
0.2
  9
$TRACEWID
 40
0.05
  9
$TEXTSTYLE
  7
Standard
  9
$CLAYER
  8
0
  9
$CELTYPE
  6
ByLayer
  9
$CECOLOR
 62
   256
  9
$CELTSCALE
 40
1.0
  9
$DISPSILH
 70
     0
  9
$DIMSCALE
 40
1.0
  9
$DIMASZ
 40
0.18
  9
$DIMEXO
 40
0.0625
  9
$DIMDLI
 40
0.38
  9
$DIMRND
 40
0.0
  9
$DIMDLE
 40
0.0
  9
$DIMEXE
 40
0.18
  9
$DIMTP
 40
0.0
  9
$DIMTM
 40
0.0
  9
$DIMTXT
 40
0.18
  9
$DIMCEN
 40
0.09
  9
$DIMTSZ
 40
0.0
  9
$DIMTOL
 70
     0
  9
$DIMLIM
 70
     0
  9
$DIMTIH
 70
     1
  9
$DIMTOH
 70
     1
  9
$DIMSE1
 70
     0
  9
$DIMSE2
 70
     0
  9
$DIMTAD
 70
     0
  9
$DIMZIN
 70
     0
  9
$DIMBLK
  1

  9
$DIMASO
 70
     1
  9
$DIMSHO
 70
     1
  9
$DIMPOST
  1

  9
$DIMAPOST
  1

  9
$DIMALT
 70
     0
  9
$DIMALTD
 70
     2
  9
$DIMALTF
 40
25.4
  9
$DIMLFAC
 40
1.0
  9
$DIMTOFL
 70
     0
  9
$DIMTVP
 40
0.0
  9
$DIMTIX
 70
     0
  9
$DIMSOXD
 70
     0
  9
$DIMSAH
 70
     0
  9
$DIMBLK1
  1

  9
$DIMBLK2
  1

  9
$DIMSTYLE
  2
Standard
  9
$DIMCLRD
 70
     0
  9
$DIMCLRE
 70
     0
  9
$DIMCLRT
 70
     0
  9
$DIMTFAC
 40
1.0
  9
$DIMGAP
 40
0.09
  9
$DIMJUST
 70
     0
  9
$DIMSD1
 70
     0
  9
$DIMSD2
 70
     0
  9
$DIMTOLJ
 70
     1
  9
$DIMTZIN
 70
     0
  9
$DIMALTZ
 70
     0
  9
$DIMALTTZ
 70
     0
  9
$DIMUPT
 70
     0
  9
$DIMDEC
 70
     4
  9
$DIMTDEC
 70
     4
  9
$DIMALTU
 70
     2
  9
$DIMALTTD
 70
     2
  9
$DIMTXSTY
  7
Standard
  9
$DIMAUNIT
 70
     0
  9
$DIMADEC
 70
     0
  9
$DIMALTRND
 40
0.0
  9
$DIMAZIN
 70
     0
  9
$DIMDSEP
 70
    46
  9
$DIMATFIT
 70
     3
  9
$DIMFRAC
 70
     0
  9
$DIMLDRBLK
  1

  9
$DIMLUNIT
 70
     2
  9
$DIMLWD
 70
    -2
  9
$DIMLWE
 70
    -2
  9
$DIMTMOVE
 70
     0
  9
$DIMFXL
 40
1.0
  9
$DIMFXLON
 70
     0
  9
$DIMJOGANG
 40
0.7853981633974483
  9
$DIMTFILL
 70
     0
  9
$DIMTFILLCLR
 70
     0
  9
$DIMARCSYM
 70
     0
  9
$DIMLTYPE
  6

  9
$DIMLTEX1
  6

  9
$DIMLTEX2
  6

  9
$DIMTXTDIRECTION
 70
     0
  9
$LUNITS
 70
     2
  9
$LUPREC
 70
     4
  9
$SKETCHINC
 40
0.1
  9
$FILLETRAD
 40
0.5
  9
$AUNITS
 70
     0
  9
$AUPREC
 70
     0
  9
$MENU
  1
.
  9
$ELEVATION
 40
0.0
  9
$PELEVATION
 40
0.0
  9
$THICKNESS
 40
0.0
  9
$LIMCHECK
 70
     0
  9
$CHAMFERA
 40
0.5
  9
$CHAMFERB
 40
0.5
  9
$CHAMFERC
 40
1.0
  9
$CHAMFERD
 40
0.0
  9
$SKPOLY
 70
     0
  9
$TDCREATE
 40
2451380.888765729
  9
$TDUCREATE
 40
2451380.805432396
  9
$TDUPDATE
 40
2451380.924513889
  9
$TDUUPDATE
 40
2451380.841180556
  9
$TDINDWG
 40
0.0075615394
  9
$TDUSRTIMER
 40
0.0075525000
  9
$USRTIMER
 70
     1
  9
$ANGBASE
 50
0.0
  9
$ANGDIR
 70
     0
  9
$PDMODE
 70
     0
  9
$PDSIZE
 40
0.0
  9
$PLINEWID
 40
0.0
  9
$SPLFRAME
 70
     0
  9
$SPLINETYPE
 70
     6
  9
$SPLINESEGS
 70
     8
  9
$HANDSEED
  5
261
  9
$SURFTAB1
 70
     6
  9
$SURFTAB2
 70
     6
  9
$SURFTYPE
 70
     6
  9
$SURFU
 70
     6
  9
$SURFV
 70
     6
  9
$UCSBASE
  2

  9
$UCSNAME
  2

  9
$UCSORG
 10
0.0
 20
0.0
 30
0.0
  9
$UCSXDIR
 10
1.0
 20
0.0
 30
0.0
  9
$UCSYDIR
 10
0.0
 20
1.0
 30
0.0
  9
$UCSORTHOREF
  2

  9
$UCSORTHOVIEW
 70
     0
  9
$UCSORGTOP
 10
0.0
 20
0.0
 30
0.0
  9
$UCSORGBOTTOM
 10
0.0
 20
0.0
 30
0.0
  9
$UCSORGLEFT
 10
0.0
 20
0.0
 30
0.0
  9
$UCSORGRIGHT
 10
0.0
 20
0.0
 30
0.0
  9
$UCSORGFRONT
 10
0.0
 20
0.0
 30
0.0
  9
$UCSORGBACK
 10
0.0
 20
0.0
 30
0.0
  9
$PUCSBASE
  2

  9
$PUCSNAME
  2

  9
$PUCSORG
 10
0.0
 20
0.0
 30
0.0
  9
$PUCSXDIR
 10
1.0
 20
0.0
 30
0.0
  9
$PUCSYDIR
 10
0.0
 20
1.0
 30
0.0
  9
$PUCSORTHOREF
  2

  9
$PUCSORTHOVIEW
 70
     0
  9
$PUCSORGTOP
 10
0.0
 20
0.0
 30
0.0
  9
$PUCSORGBOTTOM
 10
0.0
 20
0.0
 30
0.0
  9
$PUCSORGLEFT
 10
0.0
 20
0.0
 30
0.0
  9
$PUCSORGRIGHT
 10
0.0
 20
0.0
 30
0.0
  9
$PUCSORGFRONT
 10
0.0
 20
0.0
 30
0.0
  9
$PUCSORGBACK
 10
0.0
 20
0.0
 30
0.0
  9
$USERI1
 70
     0
  9
$USERI2
 70
     0
  9
$USERI3
 70
     0
  9
$USERI4
 70
     0
  9
$USERI5
 70
     0
  9
$USERR1
 40
0.0
  9
$USERR2
 40
0.0
  9
$USERR3
 40
0.0
  9
$USERR4
 40
0.0
  9
$USERR5
 40
0.0
  9
$WORLDVIEW
 70
     1
  9
$SHADEDGE
 70
     3
  9
$SHADEDIF
 70
    70
  9
$TILEMODE
 70
     1
  9
$MAXACTVP
 70
    64
  9
$PINSBASE
 10
0.0
 20
0.0
 30
0.0
  9
$PLIMCHECK
 70
     0
  9
$PEXTMIN
 10
1.000000000000000E+20
 20
1.000000000000000E+20
 30
1.000000000000000E+20
  9
$PEXTMAX
 10
-1.000000000000000E+20
 20
-1.000000000000000E+20
 30
-1.000000000000000E+20
  9
$PLIMMIN
 10
0.0
 20
0.0
  9
$PLIMMAX
 10
12.0
 20
9.0
  9
$UNITMODE
 70
     0
  9
$VISRETAIN
 70
     1
  9
$PLINEGEN
 70
     0
  9
$PSLTSCALE
 70
     1
  9
$TREEDEPTH
 70
  3020
  9
$CMLSTYLE
  2
Standard
  9
$CMLJUST
 70
     0
  9
$CMLSCALE
 40
1.0
  9
$PROXYGRAPHICS
 70
     1
  9
$MEASUREMENT
 70
     1
  9
$CELWEIGHT
370
    -1
  9
$ENDCAPS
280
     0
  9
$JOINSTYLE
280
     0
  9
$LWDISPLAY
290
     0
  9
$INSUNITS
 70
     4
  9
$HYPERLINKBASE
  1

  9
$STYLESHEET
  1

  9
$XEDIT
290
     1
  9
$CEPSNTYPE
380
     0
  9
$PSTYLEMODE
290
     1
  9
$FINGERPRINTGUID
  2
{12F50282-3ED8-11D3-A8B7-0060B0F84BC6}
  9
$VERSIONGUID
  2
{12F50293-3ED8-11D3-A8B7-0060B0F84BC6}
  9
$EXTNAMES
290
     1
  9
$PSVPSCALE
 40
0.0
  9
$OLESTARTUP
290
     0
  9
$SORTENTS
280
   127
  9
$INDEXCTL
280
     0
  9
$HIDETEXT
280
     0
  9
$XCLIPFRAME
280
     2
  9
$HALOGAP
280
     0
  9
$OBSCOLOR
 70
   257
  9
$OBSLTYPE
280
     0
  9
$INTERSECTIONDISPLAY
280
     0
  9
$INTERSECTIONCOLOR
 70
   257
  9
$DIMASSOC
280
     1
  9
$PROJECTNAME
  1

  9
$CAMERADISPLAY
290
     0
  9
$LENSLENGTH
 40
50.0
  9
$CAMERAHEIGHT
 40
0.0
  9
$STEPSPERSEC
 40
2.0
  9
$STEPSIZE
 40
6.0
  9
$3DDWFPREC
 40
2.0
  9
$PSOLWIDTH
 40
0.25
  9
$PSOLHEIGHT
 40
4.0
  9
$LOFTANG1
 40
1.570796326794896
  9
$LOFTANG2
 40
1.570796326794896
  9
$LOFTMAG1
 40
0.0
  9
$LOFTMAG2
 40
0.0
  9
$LOFTPARAM
 70
     7
  9
$LOFTNORMALS
280
     1
  9
$LATITUDE
 40
37.795
  9
$LONGITUDE
 40
-122.394
  9
$NORTHDIRECTION
 40
0.0
  9
$TIMEZONE
 70
 -8000
  9
$LIGHTGLYPHDISPLAY
280
     1
  9
$TILEMODELIGHTSYNCH
280
     1
  9
$CMATERIAL
347
AB
  9
$SOLIDHIST
280
     0
  9
$SHOWHIST
280
     1
  9
$DWFFRAME
280
     2
  9
$DGNFRAME
280
     0
  9
$REALWORLDSCALE
290
     1
  9
$INTERFERECOLOR
 62
     1
  9
$INTERFEREOBJVS
345
CD
  9
$INTERFEREVPVS
346
CA
  9
$CSHADOW
280
     0
  9
$SHADOWPLANELOCATION
 40
0.0
  0
ENDSEC
  0
SECTION
  2
CLASSES
  0
CLASS
  1
ACDBDICTIONARYWDFLT
  2
AcDbDictionaryWithDefault
  3
ObjectDBX Classes
 90
        0
 91
        1
280
     0
281
     0
  0
CLASS
  1
ACDBPLACEHOLDER
  2
AcDbPlaceHolder
  3
ObjectDBX Classes
 90
        0
 91
        2
280
     0
281
     0
  0
CLASS
  1
LAYOUT
  2
AcDbLayout
  3
ObjectDBX Classes
 90
        0
 91
        3
280
     0
281
     0
  0
CLASS
  1
MATERIAL
  2
AcDbMaterial
  3
ObjectDBX Classes
 90
     1153
 91
        3
280
     0
281
     0
  0
CLASS
  1
VISUALSTYLE
  2
AcDbVisualStyle
  3
ObjectDBX Classes
 90
     4095
 91
       24
280
     0
281
     0
  0
CLASS
  1
TABLESTYLE
  2
AcDbTableStyle
  3
ObjectDBX Classes
 90
     4095
 91
        1
280
     0
281
     0
  0
CLASS
  1
SCALE
  2
AcDbScale
  3
ObjectDBX Classes
 90
     1153
 91
       17
280
     0
281
     0
  0
CLASS
  1
MLEADERSTYLE
  2
AcDbMLeaderStyle
  3
ACDB_MLEADERSTYLE_CLASS
 90
     4095
 91
        1
280
     0
281
     0
  0
CLASS
  1
ACDBSECTIONVIEWSTYLE
  2
AcDbSectionViewStyle
  3
ObjectDBX Classes
 90
     1025
 91
        1
280
     0
281
     0
  0
CLASS
  1
ACDBDETAILVIEWSTYLE
  2
AcDbDetailViewStyle
  3
ObjectDBX Classes
 90
     1025
 91
        1
280
     0
281
     0
  0
CLASS
  1
DICTIONARYVAR
  2
AcDbDictionaryVar
  3
ObjectDBX Classes
 90
        0
 91
        9
280
     0
281
     0
  0
CLASS
  1
CELLSTYLEMAP
  2
AcDbCellStyleMap
  3
ObjectDBX Classes
 90
     1152
 91
        1
280
     0
281
     0
  0
ENDSEC
  0
SECTION
  2
TABLES
  0
TABLE
  2
VPORT
  5
8
330
0
100
AcDbSymbolTable
 70
     1
  0
VPORT
  5
A8
330
8
100
AcDbSymbolTableRecord
100
AcDbViewportTableRecord
  2
*Active
 70
     0
 10
0.0
 20
0.0
 11
1.0
 21
1.0
 12
43.23109817504882
 22
77.86061096191406
 13
0.0
 23
0.0
 14
0.5
 24
0.5
 15
0.5
 25
0.5
 16
-1.0
 26
-1.0
 36
1.0
 17
0.0
 27
0.0
 37
0.0
 40
139.7737552470697
 41
0.1083476272278937
 42
50.0
 43
0.0
 44
0.0
 50
0.0
 51
0.0
 71
     0
 72
   100
 73
     1
 74
     3
 75
     0
 76
     0
 77
     0
 78
     0
281
     0
 65
     1
110
0.0
120
0.0
130
0.0
111
1.0
121
0.0
131
0.0
112
0.0
122
1.0
132
0.0
 79
     0
146
0.0
348
C9
 60
     3
 61
     5
292
     1
282
     1
141
0.0
142
0.0
 63
   250
421
  3355443
  0
ENDTAB
  0
TABLE
  2
LTYPE
  5
5
330
0
100
AcDbSymbolTable
 70
     1
  0
LTYPE
  5
14
330
5
100
AcDbSymbolTableRecord
100
AcDbLinetypeTableRecord
  2
ByBlock
 70
     0
  3

 72
    65
 73
     0
 40
0.0
  0
LTYPE
  5
15
330
5
100
AcDbSymbolTableRecord
100
AcDbLinetypeTableRecord
  2
ByLayer
 70
     0
  3

 72
    65
 73
     0
 40
0.0
  0
LTYPE
  5
16
330
5
100
AcDbSymbolTableRecord
100
AcDbLinetypeTableRecord
  2
Continuous
 70
     0
  3
Solid line
 72
    65
 73
     0
 40
0.0
  0
ENDTAB
  0
TABLE
  2
LAYER
  5
2
330
0
100
AcDbSymbolTable
 70
     2
  0
LAYER
  5
10
330
2
100
AcDbSymbolTableRecord
100
AcDbLayerTableRecord
  2
0
 70
     0
 62
   194
420
  5577905
  6
Continuous
370
    -3
390
F
347
BB
  0
LAYER
  5
2B
330
2
100
AcDbSymbolTableRecord
100
AcDbLayerTableRecord
  2
ASHADE
 70
     4
 62
     7
  6
Continuous
370
    -3
390
2D
347
BB
  0
ENDTAB
  0
TABLE
  2
STYLE
  5
3
330
0
100
AcDbSymbolTable
 70
     2
  0
STYLE
  5
11
330
3
100
AcDbSymbolTableRecord
100
AcDbTextStyleTableRecord
  2
Standard
 70
     0
 40
0.0
 41
1.0
 50
0.0
 71
     0
 42
0.2
  3
txt
  4

  0
STYLE
  5
2C
330
3
100
AcDbSymbolTableRecord
100
AcDbTextStyleTableRecord
  2
ASHADE
 70
     0
 40
0.2
 41
1.0
 50
0.0
 71
     0
 42
0.2
  3
simplex
  4

  0
ENDTAB
  0
TABLE
  2
VIEW
  5
6
330
0
100
AcDbSymbolTable
 70
     0
  0
ENDTAB
  0
TABLE
  2
UCS
  5
7
330
0
100
AcDbSymbolTable
 70
     0
  0
ENDTAB
  0
TABLE
  2
APPID
  5
9
330
0
100
AcDbSymbolTable
 70
     6
  0
APPID
  5
12
330
9
100
AcDbSymbolTableRecord
100
AcDbRegAppTableRecord
  2
ACAD
 70
     0
  0
APPID
  5
8F
330
9
100
AcDbSymbolTableRecord
100
AcDbRegAppTableRecord
  2
AVE_RENDER
 70
     0
  0
APPID
  5
90
330
9
100
AcDbSymbolTableRecord
100
AcDbRegAppTableRecord
  2
AVE_ENTITY_MATERIAL
 70
     0
  0
APPID
  5
9C
330
9
100
AcDbSymbolTableRecord
100
AcDbRegAppTableRecord
  2
AVE_FINISH
 70
     0
  0
APPID
  5
9D
330
9
100
AcDbSymbolTableRecord
100
AcDbRegAppTableRecord
  2
AVE_MATERIAL
 70
     0
  0
APPID
  5
9E
330
9
100
AcDbSymbolTableRecord
100
AcDbRegAppTableRecord
  2
AVE_GLOBAL
 70
     0
  0
ENDTAB
  0
TABLE
  2
DIMSTYLE
  5
A
330
0
100
AcDbSymbolTable
 70
     1
100
AcDbDimStyleTable
 71
     0
  0
DIMSTYLE
105
27
330
A
100
AcDbSymbolTableRecord
100
AcDbDimStyleTableRecord
  2
Standard
 70
     0
340
11
  0
ENDTAB
  0
TABLE
  2
BLOCK_RECORD
  5
1
330
0
100
AcDbSymbolTable
 70
     6
  0
BLOCK_RECORD
  5
1F
330
1
100
AcDbSymbolTableRecord
100
AcDbBlockTableRecord
  2
*Model_Space
340
22
 70
     0
280
     1
281
     0
  0
BLOCK_RECORD
  5
1B
330
1
100
AcDbSymbolTableRecord
100
AcDbBlockTableRecord
  2
*Paper_Space
340
1E
 70
     0
280
     1
281
     0
  0
BLOCK_RECORD
  5
23
330
1
100
AcDbSymbolTableRecord
100
AcDbBlockTableRecord
  2
*Paper_Space0
340
26
 70
     0
280
     1
281
     0
  0
BLOCK_RECORD
  5
2E
330
1
100
AcDbSymbolTableRecord
100
AcDbBlockTableRecord
  2
direct
340
0
 70
     0
280
     1
281
     0
  0
BLOCK_RECORD
  5
42
330
1
100
AcDbSymbolTableRecord
100
AcDbBlockTableRecord
  2
overhead
340
0
 70
     0
280
     1
281
     0
  0
BLOCK_RECORD
  5
5F
330
1
100
AcDbSymbolTableRecord
100
AcDbBlockTableRecord
  2
sh_spot
340
0
 70
     0
280
     1
281
     0
  0
BLOCK_RECORD
  5
91
330
1
100
AcDbSymbolTableRecord
100
AcDbBlockTableRecord
  2
AVE_RENDER
340
0
102
{BLKREFS
331
94
331
95
331
96
331
97
331
98
331
99
331
9A
331
9B
102
}
 70
     0
280
     1
281
     0
  0
BLOCK_RECORD
  5
9F
330
1
100
AcDbSymbolTableRecord
100
AcDbBlockTableRecord
  2
AVE_GLOBAL
340
0
102
{BLKREFS
331
A2
102
}
 70
     0
280
     1
281
     0
  0
ENDTAB
  0
ENDSEC
  0
SECTION
  2
BLOCKS
  0
BLOCK
  5
20
330
1F
100
AcDbEntity
  8
0
100
AcDbBlockBegin
  2
*Model_Space
 70
     0
 10
0.0
 20
0.0
 30
0.0
  3
*Model_Space
  1

  0
ENDBLK
  5
21
330
1F
100
AcDbEntity
  8
0
100
AcDbBlockEnd
  0
BLOCK
  5
1C
330
1B
100
AcDbEntity
 67
     1
  8
0
100
AcDbBlockBegin
  2
*Paper_Space
 70
     0
 10
0.0
 20
0.0
 30
0.0
  3
*Paper_Space
  1

  0
ENDBLK
  5
1D
330
1B
100
AcDbEntity
 67
     1
  8
0
100
AcDbBlockEnd
  0
BLOCK
  5
24
330
23
100
AcDbEntity
 67
     1
  8
0
100
AcDbBlockBegin
  2
*Paper_Space0
 70
     0
 10
0.0
 20
0.0
 30
0.0
  3
*Paper_Space0
  1

  0
ENDBLK
  5
25
330
23
100
AcDbEntity
 67
     1
  8
0
100
AcDbBlockEnd
  0
BLOCK
  5
40
330
2E
100
AcDbEntity
  8
0
100
AcDbBlockBegin
  2
direct
 70
     2
 10
0.0
 20
0.0
 30
0.0
  3
direct
  1

  0
ATTDEF
  5
2F
330
2E
100
AcDbEntity
  8
ASHADE
  6
Continuous
 62
     1
100
AcDbText
 10
0.0
 20
-0.1
 30
0.0
 40
0.2
  1

  7
ASHADE
 72
     1
 11
0.0
 21
-0.1
 31
0.0
100
AcDbAttributeDefinition
280
     0
  3
Light Name
  2
SNAME
 70
     0
280
     0
  0
ARC
  5
30
330
2E
100
AcDbEntity
  8
ASHADE
  6
Continuous
 62
     7
100
AcDbCircle
 10
0.0
 20
0.0
 30
0.0
 40
0.3
100
AcDbArc
 50
205.6792886194569
 51
334.3207113805431
  0
ARC
  5
31
330
2E
100
AcDbEntity
  8
ASHADE
  6
Continuous
 62
     7
100
AcDbCircle
 10
0.0
 20
0.0
 30
0.0
 40
0.3
100
AcDbArc
 50
25.67928861945685
 51
154.3207113805431
  0
LINE
  5
32
330
2E
100
AcDbEntity
  8
ASHADE
  6
Continuous
 62
     7
100
AcDbLine
 10
-0.21
 20
0.2142428528562855
 30
0.0
 11
-0.21
 21
0.5
 31
0.0
  0
LINE
  5
33
330
2E
100
AcDbEntity
  8
ASHADE
  6
Continuous
 62
     7
100
AcDbLine
 10
-0.11
 20
0.2791057147390572
 30
0.0
 11
-0.11
 21
0.5
 31
0.0
  0
LINE
  5
34
330
2E
100
AcDbEntity
  8
ASHADE
  6
Continuous
 62
     7
100
AcDbLine
 10
0.21
 20
0.2142428528562855
 30
0.0
 11
0.21
 21
0.5
 31
0.0
  0
ATTDEF
  5
35
330
2E
100
AcDbEntity
  8
ASHADE
  6
Continuous
 62
     7
100
AcDbText
 10
0.0
 20
0.25
 30
0.0
 40
0.01
  1

100
AcDbAttributeDefinition
280
     0
  3
Look-at Y
  2
LAY
 70
     1
280
     0
  0
ATTDEF
  5
36
330
2E
100
AcDbEntity
  8
ASHADE
  6
Continuous
 62
     7
100
AcDbText
 10
0.0
 20
0.22
 30
0.0
 40
0.01
  1
1
100
AcDbAttributeDefinition
280
     0
  3
Light Intensity
  2
INTENSITY
 70
     1
280
     0
  0
ATTDEF
  5
37
330
2E
100
AcDbEntity
  8
ASHADE
  6
Continuous
 62
     7
100
AcDbText
 10
0.0
 20
0.16
 30
0.0
 40
0.01
  1
-1
100
AcDbAttributeDefinition
280
     0
  3
*not used*
  2
BEAMD
 70
     1
280
     0
  0
ATTDEF
  5
38
330
2E
100
AcDbEntity
  8
ASHADE
  6
Continuous
 62
     7
100
AcDbText
 10
0.0
 20
0.175
 30
0.0
 40
0.01
  1
-1
100
AcDbAttributeDefinition
280
     0
  3
*not used*
  2
CONED
 70
     1
280
     0
  0
ATTDEF
  5
39
330
2E
100
AcDbEntity
  8
ASHADE
  6
Continuous
 62
     7
100
AcDbText
 10
0.0
 20
0.19
 30
0.0
 40
0.01
  1
0
100
AcDbAttributeDefinition
280
     0
  3
Depth Map Size
  2
CONEA
 70
     1
280
     0
  0
ATTDEF
  5
3A
330
2E
100
AcDbEntity
  8
ASHADE
  6
Continuous
 62
     7
100
AcDbText
 10
0.0
 20
0.2050000000000001
 30
0.0
 40
0.01
  1
1,1,1
100
AcDbAttributeDefinition
280
     0
  3
Light Color (RGB)
  2
COLOR
 70
     1
280
     0
  0
ATTDEF
  5
3B
330
2E
100
AcDbEntity
  8
ASHADE
  6
Continuous
 62
     7
100
AcDbText
 10
0.0
 20
0.235
 30
0.0
 40
0.01
  1

100
AcDbAttributeDefinition
280
     0
  3
Look-at Z
  2
LAZ
 70
     1
280
     0
  0
LINE
  5
3C
330
2E
100
AcDbEntity
  8
ASHADE
  6
Continuous
 62
     7
100
AcDbLine
 10
0.0
 20
0.3
 30
0.0
 11
0.0
 21
0.5
 31
0.0
  0
LINE
  5
3D
330
2E
100
AcDbEntity
  8
ASHADE
  6
Continuous
 62
     7
100
AcDbLine
 10
0.11
 20
0.2791057147390572
 30
0.0
 11
0.11
 21
0.5
 31
0.0
  0
ATTDEF
  5
3E
330
2E
100
AcDbEntity
  8
ASHADE
  6
Continuous
 62
     7
100
AcDbText
 10
0.0
 20
0.265
 30
0.0
 40
0.01
  1

100
AcDbAttributeDefinition
280
     0
  3
Look-at X
  2
LAX
 70
     1
280
     0
  0
ATTDEF
  5
3F
330
2E
100
AcDbEntity
  8
ASHADE
  6
Continuous
 62
     7
100
AcDbText
 10
0.0
 20
0.28
 30
0.0
 40
0.01
  1

100
AcDbAttributeDefinition
280
     0
  3

  2
GNAME
 70
     1
280
     0
  0
ENDBLK
  5
41
330
2E
100
AcDbEntity
  8
0
100
AcDbBlockEnd
  0
BLOCK
  5
5D
330
42
100
AcDbEntity
  8
0
100
AcDbBlockBegin
  2
overhead
 70
     2
 10
0.0
 20
0.0
 30
0.0
  3
overhead
  1

  0
ATTDEF
  5
43
330
42
100
AcDbEntity
  8
ASHADE
  6
Continuous
 62
     1
100
AcDbText
 10
0.0
 20
-0.1
 30
0.0
 40
0.2
  1

  7
ASHADE
 72
     1
 11
0.0
 21
-0.1
 31
0.0
100
AcDbAttributeDefinition
280
     0
  3
Light Name
  2
SNAME
 70
     0
280
     0
  0
ARC
  5
44
330
42
100
AcDbEntity
  8
ASHADE
  6
Continuous
 62
     7
100
AcDbCircle
 10
0.0
 20
0.0
 30
0.0
 40
0.3
100
AcDbArc
 50
205.6792886194569
 51
334.3207113805431
  0
LINE
  5
45
330
42
100
AcDbEntity
  8
ASHADE
  6
Continuous
 62
     7
100
AcDbLine
 10
-0.2041413561583015
 20
-0.2198324514393848
 30
0.0
 11
-0.2721884748777353
 21
-0.2931099352525131
 31
0.0
  0
LINE
  5
46
330
42
100
AcDbEntity
  8
ASHADE
  6
Continuous
 62
     7
100
AcDbLine
 10
-0.1096591641591904
 20
-0.2792398032442862
 30
0.0
 11
-0.1279356915190555
 21
-0.3257797704516673
 31
0.0
  0
LINE
  5
47
330
42
100
AcDbEntity
  8
ASHADE
  6
Continuous
 62
     7
100
AcDbLine
 10
0.0
 20
-0.2999999999999999
 30
0.0
 11
0.0
 21
-0.4
 31
0.0
  0
LINE
  5
48
330
42
100
AcDbEntity
  8
ASHADE
  6
Continuous
 62
     7
100
AcDbLine
 10
0.1096591641591904
 20
-0.2792398032442862
 30
0.0
 11
0.1279356915190555
 21
-0.3257797704516673
 31
0.0
  0
LINE
  5
49
330
42
100
AcDbEntity
  8
ASHADE
  6
Continuous
 62
     7
100
AcDbLine
 10
0.2041413561583015
 20
-0.2198324514393848
 30
0.0
 11
0.2721884748777353
 21
-0.2931099352525131
 31
0.0
  0
ARC
  5
4A
330
42
100
AcDbEntity
  8
ASHADE
  6
Continuous
 62
     7
100
AcDbCircle
 10
0.0
 20
0.0
 30
0.0
 40
0.3
100
AcDbArc
 50
25.67928861945685
 51
154.3207113805431
  0
LINE
  5
4B
330
42
100
AcDbEntity
  8
ASHADE
  6
Continuous
 62
     7
100
AcDbLine
 10
-0.2703701166919155
 20
0.13
 30
0.0
 11
-0.3154318028072347
 21
0.1516666666666666
 31
0.0
  0
LINE
  5
4C
330
42
100
AcDbEntity
  8
ASHADE
  6
Continuous
 62
     7
100
AcDbLine
 10
-0.2703701166919155
 20
-0.13
 30
0.0
 11
-0.3154318028072347
 21
-0.1516666666666666
 31
0.0
  0
LINE
  5
4D
330
42
100
AcDbEntity
  8
ASHADE
  6
Continuous
 62
     7
100
AcDbLine
 10
-0.2041413561583015
 20
0.2198324514393849
 30
0.0
 11
-0.2721884748777353
 21
0.2931099352525131
 31
0.0
  0
LINE
  5
4E
330
42
100
AcDbEntity
  8
ASHADE
  6
Continuous
 62
     7
100
AcDbLine
 10
-0.1096591641591904
 20
0.2792398032442862
 30
0.0
 11
-0.1279356915190555
 21
0.3257797704516674
 31
0.0
  0
LINE
  5
4F
330
42
100
AcDbEntity
  8
ASHADE
  6
Continuous
 62
     7
100
AcDbLine
 10
0.2703701166919155
 20
-0.13
 30
0.0
 11
0.3154318028072347
 21
-0.1516666666666666
 31
0.0
  0
LINE
  5
50
330
42
100
AcDbEntity
  8
ASHADE
  6
Continuous
 62
     7
100
AcDbLine
 10
0.2703701166919155
 20
0.13
 30
0.0
 11
0.3154318028072347
 21
0.1516666666666666
 31
0.0
  0
LINE
  5
51
330
42
100
AcDbEntity
  8
ASHADE
  6
Continuous
 62
     7
100
AcDbLine
 10
0.0
 20
0.3
 30
0.0
 11
0.0
 21
0.4
 31
0.0
  0
ATTDEF
  5
52
330
42
100
AcDbEntity
  8
ASHADE
  6
Continuous
 62
     7
100
AcDbText
 10
0.0
 20
0.22
 30
0.0
 40
0.01
  1
1
100
AcDbAttributeDefinition
280
     0
  3
Light Intensity
  2
INTENSITY
 70
     1
280
     0
  0
ATTDEF
  5
53
330
42
100
AcDbEntity
  8
ASHADE
  6
Continuous
 62
     7
100
AcDbText
 10
0.0
 20
0.16
 30
0.0
 40
0.01
  1
-1
100
AcDbAttributeDefinition
280
     0
  3
*not used*
  2
BEAMD
 70
     1
280
     0
  0
ATTDEF
  5
54
330
42
100
AcDbEntity
  8
ASHADE
  6
Continuous
 62
     7
100
AcDbText
 10
0.0
 20
0.175
 30
0.0
 40
0.01
  1
-1
100
AcDbAttributeDefinition
280
     0
  3
*not used*
  2
CONED
 70
     1
280
     0
  0
ATTDEF
  5
55
330
42
100
AcDbEntity
  8
ASHADE
  6
Continuous
 62
     7
100
AcDbText
 10
0.0
 20
0.19
 30
0.0
 40
0.01
  1
0
100
AcDbAttributeDefinition
280
     0
  3
Depth Map Size
  2
CONEA
 70
     1
280
     0
  0
ATTDEF
  5
56
330
42
100
AcDbEntity
  8
ASHADE
  6
Continuous
 62
     7
100
AcDbText
 10
0.0
 20
0.2050000000000001
 30
0.0
 40
0.01
  1
1,1,1
100
AcDbAttributeDefinition
280
     0
  3
Light Color (RGB)
  2
COLOR
 70
     1
280
     0
  0
ATTDEF
  5
57
330
42
100
AcDbEntity
  8
ASHADE
  6
Continuous
 62
     7
100
AcDbText
 10
0.0
 20
0.235
 30
0.0
 40
0.01
  1

100
AcDbAttributeDefinition
280
     0
  3
Look-at Z
  2
LAZ
 70
     1
280
     0
  0
ATTDEF
  5
58
330
42
100
AcDbEntity
  8
ASHADE
  6
Continuous
 62
     7
100
AcDbText
 10
0.0
 20
0.25
 30
0.0
 40
0.01
  1

100
AcDbAttributeDefinition
280
     0
  3
Look-at Y
  2
LAY
 70
     1
280
     0
  0
ATTDEF
  5
59
330
42
100
AcDbEntity
  8
ASHADE
  6
Continuous
 62
     7
100
AcDbText
 10
0.0
 20
0.265
 30
0.0
 40
0.01
  1

100
AcDbAttributeDefinition
280
     0
  3
Look-at X
  2
LAX
 70
     1
280
     0
  0
ATTDEF
  5
5A
330
42
100
AcDbEntity
  8
ASHADE
  6
Continuous
 62
     7
100
AcDbText
 10
0.0
 20
0.28
 30
0.0
 40
0.01
  1

100
AcDbAttributeDefinition
280
     0
  3

  2
GNAME
 70
     1
280
     0
  0
LINE
  5
5B
330
42
100
AcDbEntity
  8
ASHADE
  6
Continuous
 62
     7
100
AcDbLine
 10
0.1096591641591904
 20
0.2792398032442862
 30
0.0
 11
0.1279356915190555
 21
0.3257797704516674
 31
0.0
  0
LINE
  5
5C
330
42
100
AcDbEntity
  8
ASHADE
  6
Continuous
 62
     7
100
AcDbLine
 10
0.2041413561583015
 20
0.2198324514393849
 30
0.0
 11
0.2721884748777353
 21
0.2931099352525131
 31
0.0
  0
ENDBLK
  5
5E
330
42
100
AcDbEntity
  8
0
100
AcDbBlockEnd
  0
BLOCK
  5
85
330
5F
100
AcDbEntity
  8
0
100
AcDbBlockBegin
  2
sh_spot
 70
     2
 10
0.0
 20
0.0
 30
0.0
  3
sh_spot
  1

  0
LINE
  5
60
330
5F
100
AcDbEntity
  8
ASHADE
  6
Continuous
 62
     7
100
AcDbLine
 10
0.25
 20
0.26
 30
0.0
 11
-0.25
 21
0.26
 31
0.0
  0
LINE
  5
61
330
5F
100
AcDbEntity
  8
ASHADE
  6
Continuous
 62
     7
100
AcDbLine
 10
-0.25
 20
-0.3399999999999999
 30
0.0
 11
0.25
 21
-0.3399999999999999
 31
0.0
  0
ATTDEF
  5
62
330
5F
100
AcDbEntity
  8
ASHADE
  6
Continuous
 62
     1
100
AcDbText
 10
0.0
 20
-0.1
 30
0.0
 40
0.2
  1

  7
ASHADE
 72
     1
 11
0.0
 21
-0.1
 31
0.0
100
AcDbAttributeDefinition
280
     0
  3
Light Name
  2
SNAME
 70
     0
280
     0
  0
LINE
  5
63
330
5F
100
AcDbEntity
  8
ASHADE
  6
Continuous
 62
     7
100
AcDbLine
 10
-0.25
 20
-0.13
 30
0.0
 11
-0.25
 21
-0.3399999999999999
 31
0.0
  0
LINE
  5
64
330
5F
100
AcDbEntity
  8
ASHADE
  6
Continuous
 62
     7
100
AcDbLine
 10
-0.25
 20
-0.18
 30
0.0
 11
-0.29
 21
-0.18
 31
0.0
  0
LINE
  5
65
330
5F
100
AcDbEntity
  8
ASHADE
  6
Continuous
 62
     7
100
AcDbLine
 10
-0.29
 20
-0.22
 30
0.0
 11
-0.25
 21
-0.22
 31
0.0
  0
LINE
  5
66
330
5F
100
AcDbEntity
  8
ASHADE
  6
Continuous
 62
     7
100
AcDbLine
 10
-0.29
 20
-0.18
 30
0.0
 11
-0.29
 21
-0.22
 31
0.0
  0
LINE
  5
67
330
5F
100
AcDbEntity
  8
ASHADE
  6
Continuous
 62
     7
100
AcDbLine
 10
-0.1045454545454545
 20
0.26
 30
0.0
 11
-0.15
 21
0.46
 31
0.0
  0
LINE
  5
68
330
5F
100
AcDbEntity
  8
ASHADE
  6
Continuous
 62
     7
100
AcDbLine
 10
-0.21
 20
0.26
 30
0.0
 11
-0.301304347826087
 21
0.46
 31
0.0
  0
LINE
  5
69
330
5F
100
AcDbEntity
  8
ASHADE
  6
Continuous
 62
     7
100
AcDbLine
 10
-0.25
 20
0.26
 30
0.0
 11
-0.25
 21
0.13
 31
0.0
  0
LINE
  5
6A
330
5F
100
AcDbEntity
  8
ASHADE
  6
Continuous
 62
     7
100
AcDbLine
 10
-0.25
 20
0.22
 30
0.0
 11
-0.29
 21
0.22
 31
0.0
  0
LINE
  5
6B
330
5F
100
AcDbEntity
  8
ASHADE
  6
Continuous
 62
     7
100
AcDbLine
 10
-0.29
 20
0.1799999999999999
 30
0.0
 11
-0.25
 21
0.1799999999999999
 31
0.0
  0
LINE
  5
6C
330
5F
100
AcDbEntity
  8
ASHADE
  6
Continuous
 62
     7
100
AcDbLine
 10
-0.29
 20
0.22
 30
0.0
 11
-0.29
 21
0.1799999999999999
 31
0.0
  0
ATTDEF
  5
6D
330
5F
100
AcDbEntity
  8
ASHADE
  6
Continuous
 62
     7
100
AcDbText
 10
0.0
 20
-0.24
 30
0.0
 40
0.01
  1
0
100
AcDbAttributeDefinition
280
     0
  3
Depth Map Size
  2
ZSIZE
 70
     1
280
     0
  0
ATTDEF
  5
6E
330
5F
100
AcDbEntity
  8
ASHADE
  6
Continuous
 62
     7
100
AcDbText
 10
0.0
 20
-0.3300000000000001
 30
0.0
 40
0.01
  1
0,0,0
100
AcDbAttributeDefinition
280
     0
  3
Look-from XYZ
  2
LFXYZ
 70
     1
280
     0
  0
ATTDEF
  5
6F
330
5F
100
AcDbEntity
  8
ASHADE
  6
Continuous
 62
     7
100
AcDbText
 10
0.0
 20
-0.315
 30
0.0
 40
0.01
  1
0.0
100
AcDbAttributeDefinition
280
     0
  3
Beam Distribution
  2
BEAMDI
 70
     1
280
     0
  0
ATTDEF
  5
70
330
5F
100
AcDbEntity
  8
ASHADE
  6
Continuous
 62
     7
100
AcDbText
 10
0.0
 20
-0.3
 30
0.0
 40
0.01
  1
0.0
100
AcDbAttributeDefinition
280
     0
  3
Cone Delta
  2
CONEDE
 70
     1
280
     0
  0
ATTDEF
  5
71
330
5F
100
AcDbEntity
  8
ASHADE
  6
Continuous
 62
     7
100
AcDbText
 10
0.0
 20
-0.2850000000000001
 30
0.0
 40
0.01
  1
10.0
100
AcDbAttributeDefinition
280
     0
  3
Cone Angle
  2
CONEAN
 70
     1
280
     0
  0
ATTDEF
  5
72
330
5F
100
AcDbEntity
  8
ASHADE
  6
Continuous
 62
     7
100
AcDbText
 10
0.0
 20
-0.27
 30
0.0
 40
0.01
  1
-1
100
AcDbAttributeDefinition
280
     0
  3
*not used*
  2
BIASMAX
 70
     1
280
     0
  0
ATTDEF
  5
73
330
5F
100
AcDbEntity
  8
ASHADE
  6
Continuous
 62
     7
100
AcDbText
 10
0.0
 20
-0.255
 30
0.0
 40
0.01
  1
-1
100
AcDbAttributeDefinition
280
     0
  3
*not used*
  2
BIASMIN
 70
     1
280
     0
  0
ATTDEF
  5
74
330
5F
100
AcDbEntity
  8
ASHADE
  6
Continuous
 62
     7
100
AcDbText
 10
0.0
 20
-0.225
 30
0.0
 40
0.01
  1
1,1,1
100
AcDbAttributeDefinition
280
     0
  3
Light Color (RGB)
  2
COLOR
 70
     1
280
     0
  0
ATTDEF
  5
75
330
5F
100
AcDbEntity
  8
ASHADE
  6
Continuous
 62
     7
100
AcDbText
 10
0.0
 20
-0.21
 30
0.0
 40
0.01
  1
1
100
AcDbAttributeDefinition
280
     0
  3
Light Intensity
  2
INTENSITY
 70
     1
280
     0
  0
ATTDEF
  5
76
330
5F
100
AcDbEntity
  8
ASHADE
  6
Continuous
 62
     7
100
AcDbText
 10
0.0
 20
-0.15
 30
0.0
 40
0.01
  1

100
AcDbAttributeDefinition
280
     0
  3

  2
GNAME
 70
     1
280
     0
  0
ATTDEF
  5
77
330
5F
100
AcDbEntity
  8
ASHADE
  6
Continuous
 62
     7
100
AcDbText
 10
0.0
 20
-0.195
 30
0.0
 40
0.01
  1

100
AcDbAttributeDefinition
280
     0
  3
Look-at Z
  2
LAZ
 70
     1
280
     0
  0
ATTDEF
  5
78
330
5F
100
AcDbEntity
  8
ASHADE
  6
Continuous
 62
     7
100
AcDbText
 10
0.0
 20
-0.18
 30
0.0
 40
0.01
  1

100
AcDbAttributeDefinition
280
     0
  3
Look-at Y
  2
LAY
 70
     1
280
     0
  0
ATTDEF
  5
79
330
5F
100
AcDbEntity
  8
ASHADE
  6
Continuous
 62
     7
100
AcDbText
 10
0.0
 20
-0.165
 30
0.0
 40
0.01
  1

100
AcDbAttributeDefinition
280
     0
  3
Look-at X
  2
LAX
 70
     1
280
     0
  0
LINE
  5
7A
330
5F
100
AcDbEntity
  8
ASHADE
  6
Continuous
 62
     7
100
AcDbLine
 10
0.25
 20
-0.3399999999999999
 30
0.0
 11
0.25
 21
-0.13
 31
0.0
  0
LINE
  5
7B
330
5F
100
AcDbEntity
  8
ASHADE
  6
Continuous
 62
     7
100
AcDbLine
 10
0.25
 20
-0.18
 30
0.0
 11
0.29
 21
-0.18
 31
0.0
  0
LINE
  5
7C
330
5F
100
AcDbEntity
  8
ASHADE
  6
Continuous
 62
     7
100
AcDbLine
 10
0.29
 20
-0.22
 30
0.0
 11
0.25
 21
-0.22
 31
0.0
  0
LINE
  5
7D
330
5F
100
AcDbEntity
  8
ASHADE
  6
Continuous
 62
     7
100
AcDbLine
 10
0.29
 20
-0.18
 30
0.0
 11
0.29
 21
-0.22
 31
0.0
  0
LINE
  5
7E
330
5F
100
AcDbEntity
  8
ASHADE
  6
Continuous
 62
     7
100
AcDbLine
 10
0.21
 20
0.26
 30
0.0
 11
0.301304347826087
 21
0.46
 31
0.0
  0
LINE
  5
7F
330
5F
100
AcDbEntity
  8
ASHADE
  6
Continuous
 62
     7
100
AcDbLine
 10
0.1045454545454545
 20
0.26
 30
0.0
 11
0.15
 21
0.46
 31
0.0
  0
LINE
  5
80
330
5F
100
AcDbEntity
  8
ASHADE
  6
Continuous
 62
     7
100
AcDbLine
 10
0.0
 20
0.26
 30
0.0
 11
0.0
 21
0.46
 31
0.0
  0
LINE
  5
81
330
5F
100
AcDbEntity
  8
ASHADE
  6
Continuous
 62
     7
100
AcDbLine
 10
0.25
 20
0.13
 30
0.0
 11
0.25
 21
0.26
 31
0.0
  0
LINE
  5
82
330
5F
100
AcDbEntity
  8
ASHADE
  6
Continuous
 62
     7
100
AcDbLine
 10
0.25
 20
0.22
 30
0.0
 11
0.29
 21
0.22
 31
0.0
  0
LINE
  5
83
330
5F
100
AcDbEntity
  8
ASHADE
  6
Continuous
 62
     7
100
AcDbLine
 10
0.29
 20
0.1799999999999999
 30
0.0
 11
0.25
 21
0.1799999999999999
 31
0.0
  0
LINE
  5
84
330
5F
100
AcDbEntity
  8
ASHADE
  6
Continuous
 62
     7
100
AcDbLine
 10
0.29
 20
0.22
 30
0.0
 11
0.29
 21
0.1799999999999999
 31
0.0
  0
ENDBLK
  5
86
330
5F
100
AcDbEntity
  8
0
100
AcDbBlockEnd
  0
BLOCK
  5
92
330
91
100
AcDbEntity
  8
ASHADE
100
AcDbBlockBegin
  2
AVE_RENDER
 70
     0
 10
0.0
 20
0.0
 30
0.0
  3
AVE_RENDER
  1
AVE_RENDER
  0
ENDBLK
  5
93
330
91
100
AcDbEntity
  8
0
100
AcDbBlockEnd
  0
BLOCK
  5
A0
330
9F
100
AcDbEntity
  8
ASHADE
100
AcDbBlockBegin
  2
AVE_GLOBAL
 70
     0
 10
0.0
 20
0.0
 30
0.0
  3
AVE_GLOBAL
  1
AVE_GLOBAL
  0
ENDBLK
  5
A1
330
9F
100
AcDbEntity
  8
0
100
AcDbBlockEnd
  0
ENDSEC
  0
SECTION
  2
ENTITIES
  0
INSERT
  5
94
330
1F
100
AcDbEntity
  8
ASHADE
 62
     1
100
AcDbBlockReference
  2
AVE_RENDER
 10
0.0
 20
0.0
 30
0.0
1001
AVE_RENDER
1002
{
1070
     7
1000
Pref
1070
    30
1070
    20
1070
     1
1070
     0
1000

1070
    10
1070
     1
1070
    10
1040
1.0
1070
     1
1040
0.3
1040
0.7
1040
0.0
1040
10.0
1010
-1.0
1020
-1.0
1030
-1.0
1040
0.3
1070
    49
1070
     0
1070
     0
1010
1.0
1020
1.0
1030
1.0
1040
45.0
1070
     1
1070
     0
1000
WCS
1040
0.0
1070
     0
1040
10.0
1002
}
  0
INSERT
  5
95
330
1F
100
AcDbEntity
  8
ASHADE
 62
     3
100
AcDbBlockReference
  2
AVE_RENDER
 10
0.0
 20
0.0
 30
0.0
1001
AVE_RENDER
1002
{
1070
     0
1000
Full Opt
1070
     0
1070
     1
1070
     1
1070
     1
1070
     0
1070
     0
1070
     0
1070
     1
1070
     1
1040
0.0001
1040
0.0001
1002
}
  0
INSERT
  5
96
330
1F
100
AcDbEntity
  8
ASHADE
 62
     4
100
AcDbBlockReference
  2
AVE_RENDER
 10
0.0
 20
0.0
 30
0.0
1001
AVE_RENDER
1002
{
1070
     0
1000
Quick Opt
1070
     0
1070
     1
1070
     1
1070
     1
1070
     0
1070
     0
1070
     1
1002
}
  0
INSERT
  5
97
330
1F
100
AcDbEntity
  8
ASHADE
 62
     5
100
AcDbBlockReference
  2
AVE_RENDER
 10
0.0
 20
0.0
 30
0.0
1001
AVE_RENDER
1002
{
1070
     1
1000
Scanl Opt
1070
     2
1070
     0
1070
     2
1040
2.0
1040
4.0
1070
     0
1070
     1
1070
     0
1040
0.03
1002
}
  0
INSERT
  5
98
330
1F
100
AcDbEntity
  8
ASHADE
 62
     6
100
AcDbBlockReference
  2
AVE_RENDER
 10
0.0
 20
0.0
 30
0.0
1001
AVE_RENDER
1002
{
1070
     2
1000
Raytr Opt
1070
     2
1070
     0
1070
     2
1040
2.0
1040
4.0
1070
     0
1070
     1
1070
     1
1040
0.03
1070
     3
1040
0.03
1002
}
  0
INSERT
  5
99
330
1F
100
AcDbEntity
  8
ASHADE
 62
     7
100
AcDbBlockReference
  2
AVE_RENDER
 10
0.0
 20
0.0
 30
0.0
1001
AVE_RENDER
1002
{
1070
     0
1000
RFile Opt
1070
     1
1070
   640
1070
   480
1070
 10000
1070
     1
1070
     8
1070
     8
1070
     0
1070
     0
1070
     0
1070
     0
1070
     0
1070
     0
1070
     0
1002
}
  0
INSERT
  5
9A
330
1F
100
AcDbEntity
  8
ASHADE
 62
     8
100
AcDbBlockReference
  2
AVE_RENDER
 10
0.0
 20
0.0
 30
0.0
1001
AVE_RENDER
1002
{
1070
     0
1000
Fog Opt
1070
     0
1070
     0
1040
0.0
1040
1.0
1040
0.0
1040
1.0
1010
0.5
1020
0.5
1030
0.5
1002
}
  0
INSERT
  5
9B
330
1F
100
AcDbEntity
  8
ASHADE
 62
     9
100
AcDbBlockReference
  2
AVE_RENDER
 10
0.0
 20
0.0
 30
0.0
1001
AVE_RENDER
1002
{
1070
     0
1000
BG Opt
1070
     0
1070
     1
1010
0.0
1020
0.0
1030
0.0
1010
1.0
1020
0.0
1030
0.0
1010
0.0
1020
1.0
1030
0.0
1010
0.0
1020
0.0
1030
1.0
1040
0.5
1040
0.33
1040
0.0
1000

1070
     1
1000

1070
     1
1070
     1
1040
1.0
1040
1.0
1040
0.0
1040
0.0
1070
     0
1002
}
  0
INSERT
  5
A2
330
1F
100
AcDbEntity
  8
ASHADE
 62
     1
100
AcDbBlockReference
  2
AVE_GLOBAL
 10
0.0
 20
0.0
 30
0.0
1001
AVE_MATERIAL
1002
{
1000
*GLOBAL*
1000
2
1000
Global finish.
1002
{
1002
}
1002
{
1070
    63
1002
{
1002
{
1010
-1.0
1020
-1.0
1030
-1.0
1002
}
1040
0.1000000014901161
1000

1040
0.0
1002
{
1002
}
1040
0.0
1002
{
1002
}
1040
0.0
1002
}
1002
{
1002
{
1010
-1.0
1020
-1.0
1030
-1.0
1002
}
1040
0.6999999880790711
1000

1040
0.0
1002
{
1002
}
1040
0.0
1002
{
1002
}
1040
0.0
1002
}
1002
{
1002
{
1010
-1.0
1020
-1.0
1030
-1.0
1002
}
1040
0.2000000029802322
1000

1040
0.0
1002
{
1002
}
1040
0.0
1002
{
1002
}
1040
0.0
1002
}
1002
{
1070
     0
1002
{
1070
     1
1002
{
1040
1.0
1040
1.0
1000

1040
0.0
1002
{
1002
}
1040
0.0
1002
{
1002
}
1040
0.0
1002
}
1002
}
1040
1.0
1040
0.0
1040
0.0
1002
}
1002
{
1040
1.0
1040
1.0
1000

1040
0.0
1002
{
1002
}
1040
0.0
1002
{
1002
}
1040
0.0
1002
}
1002
{
1040
0.5
1040
1.0
1000

1040
0.0
1002
{
1002
}
1040
0.0
1002
{
1002
}
1040
0.0
1002
}
1002
{
1070
     0
1040
0.0
1002
{
1002
}
1040
1.0
1002
{
1002
}
1040
0.0
1002
}
1002
{
1040
0.0
1002
{
1002
{
1010
0.0
1020
0.0
1030
0.0
1002
}
1040
1.0
1000

1040
0.0
1002
{
1002
}
1040
0.0
1002
{
1002
}
1040
0.0
1002
}
1002
}
1002
{
1002
{
1070
     1
1002
{
1040
0.0
1040
1.0
1000

1040
0.0
1002
{
1002
}
1040
0.0
1002
{
1002
}
1040
0.0
1002
}
1002
}
1040
0.0
1002
{
1002
}
1010
1.0
1020
0.0
1030
0.0
1010
0.0
1020
1.0
1030
0.0
1010
0.0
1020
0.0
1030
1.0
1070
     0
1002
}
1002
{
1002
{
1040
1.0
1040
1.0
1002
{
1070
     1
1002
{
1040
1.0
1040
1.0
1000

1040
0.0
1002
{
1002
}
1040
0.0
1002
{
1002
}
1040
0.0
1002
}
1002
}
1002
}
1070
     0
1040
0.0
1002
{
1002
}
1002
}
1002
{
1002
}
1002
}
1002
{
1071
        3
1070
     3
1070
     0
1002
{
1070
     2
1070
     0
1070
     0
1040
0.0
1002
}
1070
     0
1070
     2
1002
{
1002
}
1002
}
1002
{
1040
8030.0
1040
190.3000030517578
1040
0.3050000071525574
1040
228.0
1040
545.0
1040
14.0
1040
17.39999961853027
1040
0.4560000002384186
1002
}
1002
}
  0
POLYLINE
  5
F7
330
1F
100
AcDbEntity
  8
0
 62
   251
420
  5658198
100
AcDb3dPolyline
 66
     1
 10
0.0
 20
0.0
 30
0.0
 70
     9
  0
VERTEX
  5
F8
330
F7
100
AcDbEntity
  8
0
 62
   251
420
  5658198
100
AcDbVertex
100
AcDb3dPolylineVertex
 10
67.56564331054687
 20
-0.0000037508616515
 30
77.56681060791016
 70
    32
  0
VERTEX
  5
F9
330
F7
100
AcDbEntity
  8
0
 62
   251
420
  5658198
100
AcDbVertex
100
AcDb3dPolylineVertex
 10
67.57618713378906
 20
-0.0000049804389164
 30
92.47946166992187
 70
    32
  0
VERTEX
  5
FA
330
F7
100
AcDbEntity
  8
0
 62
   251
420
  5658198
100
AcDbVertex
100
AcDb3dPolylineVertex
 10
67.56915283203125
 20
-0.0000048979300118
 30
92.90692901611327
 70
    32
  0
VERTEX
  5
FB
330
F7
100
AcDbEntity
  8
0
 62
   251
420
  5658198
100
AcDbVertex
100
AcDb3dPolylineVertex
 10
67.55703735351563
 20
-0.0000047813873607
 30
93.11963653564452
 70
    32
  0
VERTEX
  5
FC
330
F7
100
AcDbEntity
  8
0
 62
   251
420
  5658198
100
AcDbVertex
100
AcDb3dPolylineVertex
 10
67.53622436523437
 20
-0.0000046424111133
 30
93.33024597167968
 70
    32
  0
VERTEX
  5
FD
330
F7
100
AcDbEntity
  8
0
 62
   251
420
  5658198
100
AcDbVertex
100
AcDb3dPolylineVertex
 10
67.5044937133789
 20
-0.0000045018186938
 30
93.53767395019531
 70
    32
  0
VERTEX
  5
FE
330
F7
100
AcDbEntity
  8
0
 62
   251
420
  5658198
100
AcDbVertex
100
AcDb3dPolylineVertex
 10
67.48384094238281
 20
-0.0000044374223762
 30
93.63987731933594
 70
    32
  0
VERTEX
  5
FF
330
F7
100
AcDbEntity
  8
0
 62
   251
420
  5658198
100
AcDbVertex
100
AcDb3dPolylineVertex
 10
67.45962524414062
 20
-0.0000043804288907
 30
93.74087524414063
 70
    32
  0
VERTEX
  5
100
330
F7
100
AcDbEntity
  8
0
 62
   251
420
  5658198
100
AcDbVertex
100
AcDb3dPolylineVertex
 10
67.43157196044922
 20
-0.0000043334412112
 30
93.84056091308593
 70
    32
  0
VERTEX
  5
101
330
F7
100
AcDbEntity
  8
0
 62
   251
420
  5658198
100
AcDbVertex
100
AcDb3dPolylineVertex
 10
67.39939880371093
 20
-0.0000042990604925
 30
93.93878173828126
 70
    32
  0
VERTEX
  5
102
330
F7
100
AcDbEntity
  8
0
 62
   251
420
  5658198
100
AcDbVertex
100
AcDb3dPolylineVertex
 10
67.36283874511719
 20
-0.0000042798901632
 30
94.03540802001954
 70
    32
  0
VERTEX
  5
103
330
F7
100
AcDbEntity
  8
0
 62
   251
420
  5658198
100
AcDbVertex
100
AcDb3dPolylineVertex
 10
67.32160186767578
 20
-0.0000042785322876
 30
94.13031005859375
 70
    32
  0
VERTEX
  5
104
330
F7
100
AcDbEntity
  8
0
 62
   251
420
  5658198
100
AcDbVertex
100
AcDb3dPolylineVertex
 10
67.22499847412109
 20
-0.0000043016070777
 30
94.32113647460937
 70
    32
  0
VERTEX
  5
105
330
F7
100
AcDbEntity
  8
0
 62
   251
420
  5658198
100
AcDbVertex
100
AcDb3dPolylineVertex
 10
67.11563110351562
 20
-0.0000043325030674
 30
94.50563049316405
 70
    32
  0
VERTEX
  5
106
330
F7
100
AcDbEntity
  8
0
 62
   251
420
  5658198
100
AcDbVertex
100
AcDb3dPolylineVertex
 10
66.99440002441406
 20
-0.0000043657191782
 30
94.68255615234374
 70
    32
  0
VERTEX
  5
107
330
F7
100
AcDbEntity
  8
0
 62
   251
420
  5658198
100
AcDbVertex
100
AcDb3dPolylineVertex
 10
66.86217498779297
 20
-0.0000043957552407
 30
94.85070037841797
 70
    32
  0
VERTEX
  5
108
330
F7
100
AcDbEntity
  8
0
 62
   251
420
  5658198
100
AcDbVertex
100
AcDb3dPolylineVertex
 10
66.72000122070312
 20
-0.0000044649887059
 30
95.00936889648437
 70
    32
  0
VERTEX
  5
109
330
F7
100
AcDbEntity
  8
0
 62
   251
420
  5658198
100
AcDbVertex
100
AcDb3dPolylineVertex
 10
66.56836700439453
 20
-0.0000045846941248
 30
95.15830230712891
 70
    32
  0
VERTEX
  5
10A
330
F7
100
AcDbEntity
  8
0
 62
   251
420
  5658198
100
AcDbVertex
100
AcDb3dPolylineVertex
 10
66.40732574462891
 20
-0.0000047027228902
 30
95.2969512939453
 70
    32
  0
VERTEX
  5
10B
330
F7
100
AcDbEntity
  8
0
 62
   251
420
  5658198
100
AcDbVertex
100
AcDb3dPolylineVertex
 10
66.23693084716797
 20
-0.000004766924576
 30
95.42473602294922
 70
    32
  0
VERTEX
  5
10C
330
F7
100
AcDbEntity
  8
0
 62
   251
420
  5658198
100
AcDbVertex
100
AcDb3dPolylineVertex
 10
66.47573852539062
 20
-0.000004753061603
 30
95.4849853515625
 70
    32
  0
VERTEX
  5
10D
330
F7
100
AcDbEntity
  8
0
 62
   251
420
  5658198
100
AcDbVertex
100
AcDb3dPolylineVertex
 10
66.71073150634765
 20
-0.0000047068133426
 30
95.55960083007812
 70
    32
  0
VERTEX
  5
10E
330
F7
100
AcDbEntity
  8
0
 62
   251
420
  5658198
100
AcDbVertex
100
AcDb3dPolylineVertex
 10
66.94090270996094
 20
-0.0000046442510211
 30
95.64805603027343
 70
    32
  0
VERTEX
  5
10F
330
F7
100
AcDbEntity
  8
0
 62
   251
420
  5658198
100
AcDbVertex
100
AcDb3dPolylineVertex
 10
67.165283203125
 20
-0.0000045814472287
 30
95.74980163574219
 70
    32
  0
VERTEX
  5
110
330
F7
100
AcDbEntity
  8
0
 62
   251
420
  5658198
100
AcDbVertex
100
AcDb3dPolylineVertex
 10
67.4091796875
 20
-0.0000045191995923
 30
95.87931823730469
 70
    32
  0
VERTEX
  5
111
330
F7
100
AcDbEntity
  8
0
 62
   251
420
  5658198
100
AcDbVertex
100
AcDb3dPolylineVertex
 10
67.64206695556641
 20
-0.0000044621579036
 30
96.02349090576172
 70
    32
  0
VERTEX
  5
112
330
F7
100
AcDbEntity
  8
0
 62
   251
420
  5658198
100
AcDbVertex
100
AcDb3dPolylineVertex
 10
67.86326599121093
 20
-0.00000441029988
 30
96.18157196044922
 70
    32
  0
VERTEX
  5
113
330
F7
100
AcDbEntity
  8
0
 62
   251
420
  5658198
100
AcDbVertex
100
AcDb3dPolylineVertex
 10
68.07211303710937
 20
-0.0000043636000555
 30
96.35280609130859
 70
    32
  0
VERTEX
  5
114
330
F7
100
AcDbEntity
  8
0
 62
   251
420
  5658198
100
AcDbVertex
100
AcDb3dPolylineVertex
 10
68.26792907714843
 20
-0.0000043220338739
 30
96.53643035888672
 70
    32
  0
VERTEX
  5
115
330
F7
100
AcDbEntity
  8
0
 62
   251
420
  5658198
100
AcDbVertex
100
AcDb3dPolylineVertex
 10
68.45003509521484
 20
-0.000004285576324
 30
96.73170471191406
 70
    32
  0
VERTEX
  5
116
330
F7
100
AcDbEntity
  8
0
 62
   251
420
  5658198
100
AcDbVertex
100
AcDb3dPolylineVertex
 10
68.61775207519531
 20
-0.0000042542033043
 30
96.93787384033203
 70
    32
  0
VERTEX
  5
117
330
F7
100
AcDbEntity
  8
0
 62
   251
420
  5658198
100
AcDbVertex
100
AcDb3dPolylineVertex
 10
68.77040100097656
 20
-0.0000042278907131
 30
97.15417480468751
 70
    32
  0
VERTEX
  5
118
330
F7
100
AcDbEntity
  8
0
 62
   251
420
  5658198
100
AcDbVertex
100
AcDb3dPolylineVertex
 10
68.90731811523437
 20
-0.000004206613994
 30
97.37987518310546
 70
    32
  0
VERTEX
  5
119
330
F7
100
AcDbEntity
  8
0
 62
   251
420
  5658198
100
AcDbVertex
100
AcDb3dPolylineVertex
 10
68.96965789794922
 20
-0.0000041978555601
 30
97.49600219726563
 70
    32
  0
VERTEX
  5
11A
330
F7
100
AcDbEntity
  8
0
 62
   251
420
  5658198
100
AcDbVertex
100
AcDb3dPolylineVertex
 10
69.02781677246093
 20
-0.0000041903476813
 30
97.61420440673829
 70
    32
  0
VERTEX
  5
11B
330
F7
100
AcDbEntity
  8
0
 62
   251
420
  5658198
100
AcDbVertex
100
AcDb3dPolylineVertex
 10
69.08169555664063
 20
-0.0000041840858103
 30
97.73436737060547
 70
    32
  0
VERTEX
  5
11C
330
F7
100
AcDbEntity
  8
0
 62
   251
420
  5658198
100
AcDbVertex
100
AcDb3dPolylineVertex
 10
69.1312255859375
 20
-0.0000041790672185
 30
97.85640716552734
 70
    32
  0
VERTEX
  5
11D
330
F7
100
AcDbEntity
  8
0
 62
   251
420
  5658198
100
AcDbVertex
100
AcDb3dPolylineVertex
 10
69.17630767822266
 20
-0.0000041752896323
 30
97.98023223876953
 70
    32
  0
VERTEX
  5
11E
330
F7
100
AcDbEntity
  8
0
 62
   251
420
  5658198
100
AcDbVertex
100
AcDb3dPolylineVertex
 10
69.21686553955078
 20
-0.0000041727494136
 30
98.10574340820313
 70
    32
  0
VERTEX
  5
11F
330
F7
100
AcDbEntity
  8
0
 62
   251
420
  5658198
100
AcDbVertex
100
AcDb3dPolylineVertex
 10
69.25281524658203
 20
-0.0000041714438339
 30
98.23284912109375
 70
    32
  0
VERTEX
  5
120
330
F7
100
AcDbEntity
  8
0
 62
   251
420
  5658198
100
AcDbVertex
100
AcDb3dPolylineVertex
 10
69.28406524658203
 20
-0.0000041713683459
 30
98.36145782470703
 70
    32
  0
VERTEX
  5
121
330
F7
100
AcDbEntity
  8
0
 62
   251
420
  5658198
100
AcDbVertex
100
AcDb3dPolylineVertex
 10
69.31053161621093
 20
-0.0000041725224946
 30
98.49147033691407
 70
    32
  0
VERTEX
  5
122
330
F7
100
AcDbEntity
  8
0
 62
   251
420
  5658198
100
AcDbVertex
100
AcDb3dPolylineVertex
 10
69.33213806152344
 20
-0.0000041749008233
 30
98.62279510498048
 70
    32
  0
VERTEX
  5
123
330
F7
100
AcDbEntity
  8
0
 62
   251
420
  5658198
100
AcDbVertex
100
AcDb3dPolylineVertex
 10
69.34880065917969
 20
-0.0000041785019675
 30
98.75533294677735
 70
    32
  0
VERTEX
  5
124
330
F7
100
AcDbEntity
  8
0
 62
   251
420
  5658198
100
AcDbVertex
100
AcDb3dPolylineVertex
 10
69.36042785644531
 20
-0.0000041833218347
 30
98.88899230957031
 70
    32
  0
VERTEX
  5
125
330
F7
100
AcDbEntity
  8
0
 62
   251
420
  5658198
100
AcDbVertex
100
AcDb3dPolylineVertex
 10
69.36692810058594
 20
-0.0000041893572416
 30
99.02368927001953
 70
    32
  0
VERTEX
  5
126
330
F7
100
AcDbEntity
  8
0
 62
   251
420
  5658198
100
AcDbVertex
100
AcDb3dPolylineVertex
 10
69.36823272705078
 20
-0.0000041966059143
 30
99.15931701660156
 70
    32
  0
VERTEX
  5
127
330
F7
100
AcDbEntity
  8
0
 62
   251
420
  5658198
100
AcDbVertex
100
AcDb3dPolylineVertex
 10
69.35968780517578
 20
-0.000004205588084
 30
99.36274719238282
 70
    32
  0
VERTEX
  5
128
330
F7
100
AcDbEntity
  8
0
 62
   251
420
  5658198
100
AcDbVertex
100
AcDb3dPolylineVertex
 10
69.33842468261719
 20
-0.0000042091114665
 30
99.5639877319336
 70
    32
  0
VERTEX
  5
129
330
F7
100
AcDbEntity
  8
0
 62
   251
420
  5658198
100
AcDbVertex
100
AcDb3dPolylineVertex
 10
69.30501556396484
 20
-0.0000042074561861
 30
99.76300048828125
 70
    32
  0
VERTEX
  5
12A
330
F7
100
AcDbEntity
  8
0
 62
   251
420
  5658198
100
AcDbVertex
100
AcDb3dPolylineVertex
 10
69.26002502441406
 20
-0.0000042009041863
 30
99.95974731445313
 70
    32
  0
VERTEX
  5
12B
330
F7
100
AcDbEntity
  8
0
 62
   251
420
  5658198
100
AcDbVertex
100
AcDb3dPolylineVertex
 10
69.20403289794922
 20
-0.0000041897369556
 30
100.1542053222656
 70
    32
  0
VERTEX
  5
12C
330
F7
100
AcDbEntity
  8
0
 62
   251
420
  5658198
100
AcDbVertex
100
AcDb3dPolylineVertex
 10
69.13761138916015
 20
-0.0000041742350732
 30
100.3463363647461
 70
    32
  0
VERTEX
  5
12D
330
F7
100
AcDbEntity
  8
0
 62
   251
420
  5658198
100
AcDbVertex
100
AcDb3dPolylineVertex
 10
69.06133270263672
 20
-0.0000041546800276
 30
100.5361022949218
 70
    32
  0
VERTEX
  5
12E
330
F7
100
AcDbEntity
  8
0
 62
   251
420
  5658198
100
AcDbVertex
100
AcDb3dPolylineVertex
 10
68.97576141357422
 20
-0.000004131352398
 30
100.7234649658203
 70
    32
  0
VERTEX
  5
12F
330
F7
100
AcDbEntity
  8
0
 62
   251
420
  5658198
100
AcDbVertex
100
AcDb3dPolylineVertex
 10
68.85906982421875
 20
-0.0000040979111873
 30
100.9501037597656
 70
    32
  0
VERTEX
  5
130
330
F7
100
AcDbEntity
  8
0
 62
   251
420
  5658198
100
AcDbVertex
100
AcDb3dPolylineVertex
 10
68.73178100585938
 20
-0.0000040599438762
 30
101.1704864501953
 70
    32
  0
VERTEX
  5
131
330
F7
100
AcDbEntity
  8
0
 62
   251
420
  5658198
100
AcDbVertex
100
AcDb3dPolylineVertex
 10
68.5945816040039
 20
-0.0000040179247662
 30
101.3849105834961
 70
    32
  0
VERTEX
  5
132
330
F7
100
AcDbEntity
  8
0
 62
   251
420
  5658198
100
AcDbVertex
100
AcDb3dPolylineVertex
 10
68.44814300537109
 20
-0.0000039723236114
 30
101.5936813354492
 70
    32
  0
VERTEX
  5
133
330
F7
100
AcDbEntity
  8
0
 62
   251
420
  5658198
100
AcDbVertex
100
AcDb3dPolylineVertex
 10
68.29312896728516
 20
-0.0000039236128941
 30
101.797119140625
 70
    32
  0
VERTEX
  5
134
330
F7
100
AcDbEntity
  8
0
 62
   251
420
  5658198
100
AcDbVertex
100
AcDb3dPolylineVertex
 10
68.13023376464844
 20
-0.0000038722678255
 30
101.9955368041992
 70
    32
  0
VERTEX
  5
135
330
F7
100
AcDbEntity
  8
0
 62
   251
420
  5658198
100
AcDbVertex
100
AcDb3dPolylineVertex
 10
67.78347015380859
 20
-0.0000037635543322
 30
102.3785095214843
 70
    32
  0
VERTEX
  5
136
330
F7
100
AcDbEntity
  8
0
 62
   251
420
  5658198
100
AcDbVertex
100
AcDb3dPolylineVertex
 10
67.41326141357422
 20
-0.0000036499616272
 30
102.7451019287109
 70
    32
  0
VERTEX
  5
137
330
F7
100
AcDbEntity
  8
0
 62
   251
420
  5658198
100
AcDbVertex
100
AcDb3dPolylineVertex
 10
67.02500152587891
 20
-0.0000035352675241
 30
103.097785949707
 70
    32
  0
VERTEX
  5
138
330
F7
100
AcDbEntity
  8
0
 62
   251
420
  5658198
100
AcDbVertex
100
AcDb3dPolylineVertex
 10
66.21599578857422
 20
-0.0000033176845591
 30
103.7713317871093
 70
    32
  0
VERTEX
  5
139
330
F7
100
AcDbEntity
  8
0
 62
   251
420
  5658198
100
AcDbVertex
100
AcDb3dPolylineVertex
 10
65.57070922851562
 20
-0.0000031867846246
 30
104.3111343383789
 70
    32
  0
VERTEX
  5
13A
330
F7
100
AcDbEntity
  8
0
 62
   251
420
  5658198
100
AcDbVertex
100
AcDb3dPolylineVertex
 10
64.9466552734375
 20
-0.000003112432978
 30
104.8785858154297
 70
    32
  0
VERTEX
  5
13B
330
F7
100
AcDbEntity
  8
0
 62
   251
420
  5658198
100
AcDbVertex
100
AcDb3dPolylineVertex
 10
64.34526062011719
 20
-0.000003087325922
 30
105.4720916748047
 70
    32
  0
VERTEX
  5
13C
330
F7
100
AcDbEntity
  8
0
 62
   251
420
  5658198
100
AcDbVertex
100
AcDb3dPolylineVertex
 10
63.76796340942383
 20
-0.000003104155212
 30
106.0900726318359
 70
    32
  0
VERTEX
  5
13D
330
F7
100
AcDbEntity
  8
0
 62
   251
420
  5658198
100
AcDbVertex
100
AcDb3dPolylineVertex
 10
63.2161979675293
 20
-0.0000031556180602
 30
106.7309417724609
 70
    32
  0
VERTEX
  5
13E
330
F7
100
AcDbEntity
  8
0
 62
   251
420
  5658198
100
AcDbVertex
100
AcDb3dPolylineVertex
 10
62.69139862060547
 20
-0.0000032344066767
 30
107.3931121826172
 70
    32
  0
VERTEX
  5
13F
330
F7
100
AcDbEntity
  8
0
 62
   251
420
  5658198
100
AcDbVertex
100
AcDb3dPolylineVertex
 10
62.19500350952149
 20
-0.0000033332173643
 30
108.0749969482422
 70
    32
  0
VERTEX
  5
140
330
F7
100
AcDbEntity
  8
0
 62
   251
420
  5658198
100
AcDbVertex
100
AcDb3dPolylineVertex
 10
61.72844696044922
 20
-0.0000034447432427
 30
108.7750091552734
 70
    32
  0
VERTEX
  5
141
330
F7
100
AcDbEntity
  8
0
 62
   251
420
  5658198
100
AcDbVertex
100
AcDb3dPolylineVertex
 10
61.14537048339844
 20
-0.0000035993909933
 30
109.7500762939453
 70
    32
  0
VERTEX
  5
142
330
F7
100
AcDbEntity
  8
0
 62
   251
420
  5658198
100
AcDbVertex
100
AcDb3dPolylineVertex
 10
60.61945724487305
 20
-0.0000037566344417
 30
110.7549133300781
 70
    32
  0
VERTEX
  5
143
330
F7
100
AcDbEntity
  8
0
 62
   251
420
  5658198
100
AcDbVertex
100
AcDb3dPolylineVertex
 10
60.26456451416016
 20
-0.0000038812158891
 30
111.5359649658203
 70
    32
  0
VERTEX
  5
144
330
F7
100
AcDbEntity
  8
0
 62
   251
420
  5658198
100
AcDbVertex
100
AcDb3dPolylineVertex
 10
59.94992446899414
 20
-0.0000040147597247
 30
112.3340225219726
 70
    32
  0
VERTEX
  5
145
330
F7
100
AcDbEntity
  8
0
 62
   251
420
  5658198
100
AcDbVertex
100
AcDb3dPolylineVertex
 10
59.67425155639649
 20
-0.0000041639495976
 30
113.146987915039
 70
    32
  0
VERTEX
  5
146
330
F7
100
AcDbEntity
  8
0
 62
   251
420
  5658198
100
AcDbVertex
100
AcDb3dPolylineVertex
 10
59.43626022338867
 20
-0.0000043354712034
 30
113.9727783203125
 70
    32
  0
VERTEX
  5
147
330
F7
100
AcDbEntity
  8
0
 62
   251
420
  5658198
100
AcDbVertex
100
AcDb3dPolylineVertex
 10
59.23466110229492
 20
-0.0000045360075092
 30
114.8092956542968
 70
    32
  0
VERTEX
  5
148
330
F7
100
AcDbEntity
  8
0
 62
   251
420
  5658198
100
AcDbVertex
100
AcDb3dPolylineVertex
 10
59.06817245483399
 20
-0.00000477224512
 30
115.6544418334961
 70
    32
  0
VERTEX
  5
149
330
F7
100
AcDbEntity
  8
0
 62
   251
420
  5658198
100
AcDbVertex
100
AcDb3dPolylineVertex
 10
58.93550491333008
 20
-0.0000050508670029
 30
116.506118774414
 70
    32
  0
VERTEX
  5
14A
330
F7
100
AcDbEntity
  8
0
 62
   251
420
  5658198
100
AcDbVertex
100
AcDb3dPolylineVertex
 10
58.83536911010742
 20
-0.0000053785579439
 30
117.3622436523437
 70
    32
  0
VERTEX
  5
14B
330
F7
100
AcDbEntity
  8
0
 62
   251
420
  5658198
100
AcDbVertex
100
AcDb3dPolylineVertex
 10
58.7183837890625
 20
-0.0000062404333221
 30
119.2150268554687
 70
    32
  0
VERTEX
  5
14C
330
F7
100
AcDbEntity
  8
0
 62
   251
420
  5658198
100
AcDbVertex
100
AcDb3dPolylineVertex
 10
58.69136428833008
 20
-0.0000077286395026
 30
121.0730972290039
 70
    32
  0
VERTEX
  5
14D
330
F7
100
AcDbEntity
  8
0
 62
   251
420
  5658198
100
AcDbVertex
100
AcDb3dPolylineVertex
 10
58.85511016845703
 20
-0.0000077021477409
 30
121.1019439697265
 70
    32
  0
VERTEX
  5
14E
330
F7
100
AcDbEntity
  8
0
 62
   251
420
  5658198
100
AcDbVertex
100
AcDb3dPolylineVertex
 10
59.01596450805664
 20
-0.0000076203214121
 30
121.1407623291015
 70
    32
  0
VERTEX
  5
14F
330
F7
100
AcDbEntity
  8
0
 62
   251
420
  5658198
100
AcDbVertex
100
AcDb3dPolylineVertex
 10
59.17359161376953
 20
-0.0000074912422861
 30
121.1892013549805
 70
    32
  0
VERTEX
  5
150
330
F7
100
AcDbEntity
  8
0
 62
   251
420
  5658198
100
AcDbVertex
100
AcDb3dPolylineVertex
 10
59.32765197753906
 20
-0.0000073229912232
 30
121.2469329833984
 70
    32
  0
VERTEX
  5
151
330
F7
100
AcDbEntity
  8
0
 62
   251
420
  5658198
100
AcDbVertex
100
AcDb3dPolylineVertex
 10
59.47781372070313
 20
-0.0000071236522672
 30
121.3136138916015
 70
    32
  0
VERTEX
  5
152
330
F7
100
AcDbEntity
  8
0
 62
   251
420
  5658198
100
AcDbVertex
100
AcDb3dPolylineVertex
 10
59.62374877929687
 20
-0.0000069013071879
 30
121.388916015625
 70
    32
  0
VERTEX
  5
153
330
F7
100
AcDbEntity
  8
0
 62
   251
420
  5658198
100
AcDbVertex
100
AcDb3dPolylineVertex
 10
59.76511001586914
 20
-0.0000066640368459
 30
121.4725036621093
 70
    32
  0
VERTEX
  5
154
330
F7
100
AcDbEntity
  8
0
 62
   251
420
  5658198
100
AcDbVertex
100
AcDb3dPolylineVertex
 10
59.90157318115234
 20
-0.000006419926649
 30
121.5640563964843
 70
    32
  0
VERTEX
  5
155
330
F7
100
AcDbEntity
  8
0
 62
   251
420
  5658198
100
AcDbVertex
100
AcDb3dPolylineVertex
 10
60.03280258178711
 20
-0.0000061770560933
 30
121.6632080078125
 70
    32
  0
VERTEX
  5
156
330
F7
100
AcDbEntity
  8
0
 62
   251
420
  5658198
100
AcDbVertex
100
AcDb3dPolylineVertex
 10
60.1584587097168
 20
-0.0000059435087678
 30
121.7696456909179
 70
    32
  0
VERTEX
  5
157
330
F7
100
AcDbEntity
  8
0
 62
   251
420
  5658198
100
AcDbVertex
100
AcDb3dPolylineVertex
 10
60.27821350097656
 20
-0.0000057273682614
 30
121.8830337524414
 70
    32
  0
VERTEX
  5
158
330
F7
100
AcDbEntity
  8
0
 62
   251
420
  5658198
100
AcDbVertex
100
AcDb3dPolylineVertex
 10
60.3917236328125
 20
-0.0000055367145251
 30
122.0030364990234
 70
    32
  0
VERTEX
  5
159
330
F7
100
AcDbEntity
  8
0
 62
   251
420
  5658198
100
AcDbVertex
100
AcDb3dPolylineVertex
 10
60.49866485595703
 20
-0.0000053796311477
 30
122.1293029785156
 70
    32
  0
VERTEX
  5
15A
330
F7
100
AcDbEntity
  8
0
 62
   251
420
  5658198
100
AcDbVertex
100
AcDb3dPolylineVertex
 10
60.59869766235351
 20
-0.0000052642008086
 30
122.2615203857422
 70
    32
  0
VERTEX
  5
15B
330
F7
100
AcDbEntity
  8
0
 62
   251
420
  5658198
100
AcDbVertex
100
AcDb3dPolylineVertex
 10
60.69148635864258
 20
-0.0000051985052778
 30
122.3993530273437
 70
    32
  0
VERTEX
  5
15C
330
F7
100
AcDbEntity
  8
0
 62
   251
420
  5658198
100
AcDbVertex
100
AcDb3dPolylineVertex
 10
60.77669906616211
 20
-0.0000051906272347
 30
122.5424499511718
 70
    32
  0
VERTEX
  5
15D
330
F7
100
AcDbEntity
  8
0
 62
   251
420
  5658198
100
AcDbVertex
100
AcDb3dPolylineVertex
 10
60.85347366333007
 20
-0.0000052146433518
 30
122.6898498535156
 70
    32
  0
VERTEX
  5
15E
330
F7
100
AcDbEntity
  8
0
 62
   251
420
  5658198
100
AcDbVertex
100
AcDb3dPolylineVertex
 10
60.92115783691406
 20
-0.0000052391960708
 30
122.8405532836914
 70
    32
  0
VERTEX
  5
15F
330
F7
100
AcDbEntity
  8
0
 62
   251
420
  5658198
100
AcDbVertex
100
AcDb3dPolylineVertex
 10
60.979736328125
 20
-0.000005264219908
 30
122.994155883789
 70
    32
  0
VERTEX
  5
160
330
F7
100
AcDbEntity
  8
0
 62
   251
420
  5658198
100
AcDbVertex
100
AcDb3dPolylineVertex
 10
61.02918243408203
 20
-0.0000052896493798
 30
123.1502380371094
 70
    32
  0
VERTEX
  5
161
330
F7
100
AcDbEntity
  8
0
 62
   251
420
  5658198
100
AcDbVertex
100
AcDb3dPolylineVertex
 10
61.06948089599609
 20
-0.0000053154190027
 30
123.3084106445312
 70
    32
  0
VERTEX
  5
162
330
F7
100
AcDbEntity
  8
0
 62
   251
420
  5658198
100
AcDbVertex
100
AcDb3dPolylineVertex
 10
61.10060882568359
 20
-0.0000053414623835
 30
123.46826171875
 70
    32
  0
VERTEX
  5
163
330
F7
100
AcDbEntity
  8
0
 62
   251
420
  5658198
100
AcDbVertex
100
AcDb3dPolylineVertex
 10
61.12254333496093
 20
-0.0000053677104006
 30
123.6293792724609
 70
    32
  0
VERTEX
  5
164
330
F7
100
AcDbEntity
  8
0
 62
   251
420
  5658198
100
AcDbVertex
100
AcDb3dPolylineVertex
 10
61.13527297973632
 20
-0.0000053941021179
 30
123.7913665771484
 70
    32
  0
VERTEX
  5
165
330
F7
100
AcDbEntity
  8
0
 62
   251
420
  5658198
100
AcDbVertex
100
AcDb3dPolylineVertex
 10
61.13876724243164
 20
-0.0000054205693232
 30
123.9538192749023
 70
    32
  0
VERTEX
  5
166
330
F7
100
AcDbEntity
  8
0
 62
   251
420
  5658198
100
AcDbVertex
100
AcDb3dPolylineVertex
 10
61.13301086425781
 20
-0.0000054470438045
 30
124.1163177490234
 70
    32
  0
VERTEX
  5
167
330
F7
100
AcDbEntity
  8
0
 62
   251
420
  5658198
100
AcDbVertex
100
AcDb3dPolylineVertex
 10
61.11798477172851
 20
-0.0000054734628065
 30
124.2784729003906
 70
    32
  0
VERTEX
  5
168
330
F7
100
AcDbEntity
  8
0
 62
   251
420
  5658198
100
AcDbVertex
100
AcDb3dPolylineVertex
 10
61.09366607666015
 20
-0.0000054997590269
 30
124.4398803710937
 70
    32
  0
VERTEX
  5
169
330
F7
100
AcDbEntity
  8
0
 62
   251
420
  5658198
100
AcDbVertex
100
AcDb3dPolylineVertex
 10
61.06003570556641
 20
-0.0000055258651628
 30
124.6001205444336
 70
    32
  0
VERTEX
  5
16A
330
F7
100
AcDbEntity
  8
0
 62
   251
420
  5658198
100
AcDbVertex
100
AcDb3dPolylineVertex
 10
61.01707458496093
 20
-0.0000055517166402
 30
124.7587966918945
 70
    32
  0
VERTEX
  5
16B
330
F7
100
AcDbEntity
  8
0
 62
   251
420
  5658198
100
AcDbVertex
100
AcDb3dPolylineVertex
 10
60.96475982666015
 20
-0.000005577247066
 30
124.9154968261718
 70
    32
  0
VERTEX
  5
16C
330
F7
100
AcDbEntity
  8
0
 62
   251
420
  5658198
100
AcDbVertex
100
AcDb3dPolylineVertex
 10
60.90307235717773
 20
-0.0000056023909565
 30
125.0698318481445
 70
    32
  0
VERTEX
  5
16D
330
F7
100
AcDbEntity
  8
0
 62
   251
420
  5658198
100
AcDbVertex
100
AcDb3dPolylineVertex
 10
60.83251953125
 20
-0.0000056586259234
 30
125.2203216552734
 70
    32
  0
VERTEX
  5
16E
330
F7
100
AcDbEntity
  8
0
 62
   251
420
  5658198
100
AcDbVertex
100
AcDb3dPolylineVertex
 10
60.75382995605469
 20
-0.0000057719280449
 30
125.3655776977539
 70
    32
  0
VERTEX
  5
16F
330
F7
100
AcDbEntity
  8
0
 62
   251
420
  5658198
100
AcDbVertex
100
AcDb3dPolylineVertex
 10
60.66730880737305
 20
-0.0000059339809013
 30
125.5053558349609
 70
    32
  0
VERTEX
  5
170
330
F7
100
AcDbEntity
  8
0
 62
   251
420
  5658198
100
AcDbVertex
100
AcDb3dPolylineVertex
 10
60.57326889038086
 20
-0.0000061364680732
 30
125.6393890380859
 70
    32
  0
VERTEX
  5
171
330
F7
100
AcDbEntity
  8
0
 62
   251
420
  5658198
100
AcDbVertex
100
AcDb3dPolylineVertex
 10
60.4720230102539
 20
-0.00000637107496
 30
125.7674179077148
 70
    32
  0
VERTEX
  5
172
330
F7
100
AcDbEntity
  8
0
 62
   251
420
  5658198
100
AcDbVertex
100
AcDb3dPolylineVertex
 10
60.36387634277343
 20
-0.0000066294805947
 30
125.889175415039
 70
    32
  0
VERTEX
  5
173
330
F7
100
AcDbEntity
  8
0
 62
   251
420
  5658198
100
AcDbVertex
100
AcDb3dPolylineVertex
 10
60.24914169311523
 20
-0.0000069033703767
 30
126.00439453125
 70
    32
  0
VERTEX
  5
174
330
F7
100
AcDbEntity
  8
0
 62
   251
420
  5658198
100
AcDbVertex
100
AcDb3dPolylineVertex
 10
60.12812805175781
 20
-0.0000071844278864
 30
126.1128234863281
 70
    32
  0
VERTEX
  5
175
330
F7
100
AcDbEntity
  8
0
 62
   251
420
  5658198
100
AcDbVertex
100
AcDb3dPolylineVertex
 10
60.00114440917968
 20
-0.0000074643367043
 30
126.2142028808594
 70
    32
  0
VERTEX
  5
176
330
F7
100
AcDbEntity
  8
0
 62
   251
420
  5658198
100
AcDbVertex
100
AcDb3dPolylineVertex
 10
59.86849975585937
 20
-0.0000077347776823
 30
126.3082580566406
 70
    32
  0
VERTEX
  5
177
330
F7
100
AcDbEntity
  8
0
 62
   251
420
  5658198
100
AcDbVertex
100
AcDb3dPolylineVertex
 10
59.73050689697266
 20
-0.00000798743622
 30
126.3947296142578
 70
    32
  0
VERTEX
  5
178
330
F7
100
AcDbEntity
  8
0
 62
   251
420
  5658198
100
AcDbVertex
100
AcDb3dPolylineVertex
 10
59.58747482299805
 20
-0.0000082139949882
 30
126.4733734130859
 70
    32
  0
VERTEX
  5
179
330
F7
100
AcDbEntity
  8
0
 62
   251
420
  5658198
100
AcDbVertex
100
AcDb3dPolylineVertex
 10
59.43971252441406
 20
-0.0000084061366579
 30
126.5438995361328
 70
    32
  0
VERTEX
  5
17A
330
F7
100
AcDbEntity
  8
0
 62
   251
420
  5658198
100
AcDbVertex
100
AcDb3dPolylineVertex
 10
59.28752899169921
 20
-0.0000085555448095
 30
126.6060638427734
 70
    32
  0
VERTEX
  5
17B
330
F7
100
AcDbEntity
  8
0
 62
   251
420
  5658198
100
AcDbVertex
100
AcDb3dPolylineVertex
 10
59.13123321533203
 20
-0.000008653902114
 30
126.6595916748047
 70
    32
  0
VERTEX
  5
17C
330
F7
100
AcDbEntity
  8
0
 62
   251
420
  5658198
100
AcDbVertex
100
AcDb3dPolylineVertex
 10
58.97114181518555
 20
-0.0000086928930614
 30
126.7042388916015
 70
    32
  0
VERTEX
  5
17D
330
F7
100
AcDbEntity
  8
0
 62
   251
420
  5658198
100
AcDbVertex
100
AcDb3dPolylineVertex
 10
58.97114181518555
 20
-0.0000120839667943
 30
130.2798767089843
 70
    32
  0
VERTEX
  5
17E
330
F7
100
AcDbEntity
  8
0
 62
   251
420
  5658198
100
AcDbVertex
100
AcDb3dPolylineVertex
 10
52.39452743530273
 20
-0.000012088143194
 30
130.3055114746094
 70
    32
  0
VERTEX
  5
17F
330
F7
100
AcDbEntity
  8
0
 62
   251
420
  5658198
100
AcDbVertex
100
AcDb3dPolylineVertex
 10
52.39452743530273
 20
-0.0000067395963015
 30
97.48223876953126
 70
    32
  0
VERTEX
  5
180
330
F7
100
AcDbEntity
  8
0
 62
   251
420
  5658198
100
AcDbVertex
100
AcDb3dPolylineVertex
 10
53.78802490234375
 20
-0.0000065212248046
 30
96.14302825927735
 70
    32
  0
VERTEX
  5
181
330
F7
100
AcDbEntity
  8
0
 62
   251
420
  5658198
100
AcDbVertex
100
AcDb3dPolylineVertex
 10
53.78802490234375
 20
0.0000049784930525
 30
25.46244812011719
 70
    32
  0
VERTEX
  5
182
330
F7
100
AcDbEntity
  8
0
 62
   251
420
  5658198
100
AcDbVertex
100
AcDb3dPolylineVertex
 10
52.39452743530273
 20
0.000005188860996
 30
24.40141296386719
 70
    32
  0
VERTEX
  5
183
330
F7
100
AcDbEntity
  8
0
 62
   251
420
  5658198
100
AcDbVertex
100
AcDb3dPolylineVertex
 10
52.39452743530273
 20
0.0000092401896836
 30
-0.724761962890625
 70
    32
  0
VERTEX
  5
184
330
F7
100
AcDbEntity
  8
0
 62
   251
420
  5658198
100
AcDbVertex
100
AcDb3dPolylineVertex
 10
69.87973785400391
 20
0.0000092401896836
 30
-0.724761962890625
 70
    32
  0
VERTEX
  5
185
330
F7
100
AcDbEntity
  8
0
 62
   251
420
  5658198
100
AcDbVertex
100
AcDb3dPolylineVertex
 10
69.87973785400391
 20
0.0000014504073533
 30
47.15282821655273
 70
    32
  0
VERTEX
  5
186
330
F7
100
AcDbEntity
  8
0
 62
   251
420
  5658198
100
AcDbVertex
100
AcDb3dPolylineVertex
 10
69.8814697265625
 20
0.0000013635451523
 30
47.68658828735351
 70
    32
  0
VERTEX
  5
187
330
F7
100
AcDbEntity
  8
0
 62
   251
420
  5658198
100
AcDbVertex
100
AcDb3dPolylineVertex
 10
69.8746109008789
 20
0.0000013206938547
 30
47.95041275024414
 70
    32
  0
VERTEX
  5
188
330
F7
100
AcDbEntity
  8
0
 62
   251
420
  5658198
100
AcDbVertex
100
AcDb3dPolylineVertex
 10
69.85459899902344
 20
0.000001279224989
 30
48.20661926269531
 70
    32
  0
VERTEX
  5
189
330
F7
100
AcDbEntity
  8
0
 62
   251
420
  5658198
100
AcDbVertex
100
AcDb3dPolylineVertex
 10
69.8377685546875
 20
0.0000012592411167
 30
48.33055877685547
 70
    32
  0
VERTEX
  5
18A
330
F7
100
AcDbEntity
  8
0
 62
   251
420
  5658198
100
AcDbVertex
100
AcDb3dPolylineVertex
 10
69.8154067993164
 20
0.0000012398829767
 30
48.45102310180664
 70
    32
  0
VERTEX
  5
18B
330
F7
100
AcDbEntity
  8
0
 62
   251
420
  5658198
100
AcDbVertex
100
AcDb3dPolylineVertex
 10
69.7867431640625
 20
0.0000012212428828
 30
48.56748962402344
 70
    32
  0
VERTEX
  5
18C
330
F7
100
AcDbEntity
  8
0
 62
   251
420
  5658198
100
AcDbVertex
100
AcDb3dPolylineVertex
 10
69.76981353759765
 20
0.0000012122216049
 30
48.62406158447265
 70
    32
  0
VERTEX
  5
18D
330
F7
100
AcDbEntity
  8
0
 62
   251
420
  5658198
100
AcDbVertex
100
AcDb3dPolylineVertex
 10
69.75102996826172
 20
0.0000012034149677
 30
48.67943572998047
 70
    32
  0
VERTEX
  5
18E
330
F7
100
AcDbEntity
  8
0
 62
   251
420
  5658198
100
AcDbVertex
100
AcDb3dPolylineVertex
 10
69.73030090332031
 20
0.0000011948343399
 30
48.73354721069336
 70
    32
  0
VERTEX
  5
18F
330
F7
100
AcDbEntity
  8
0
 62
   251
420
  5658198
100
AcDbVertex
100
AcDb3dPolylineVertex
 10
69.70751953125
 20
0.000001186491545
 30
48.78633499145507
 70
    32
  0
VERTEX
  5
190
330
F7
100
AcDbEntity
  8
0
 62
   251
420
  5658198
100
AcDbVertex
100
AcDb3dPolylineVertex
 10
69.68260192871094
 20
0.0000011783988612
 30
48.83773040771484
 70
    32
  0
VERTEX
  5
191
330
F7
100
AcDbEntity
  8
0
 62
   251
420
  5658198
100
AcDbVertex
100
AcDb3dPolylineVertex
 10
69.65545654296875
 20
0.0000011705667475
 30
48.88766479492187
 70
    32
  0
VERTEX
  5
192
330
F7
100
AcDbEntity
  8
0
 62
   251
420
  5658198
100
AcDbVertex
100
AcDb3dPolylineVertex
 10
69.62599182128906
 20
0.0000011630079371
 30
48.93608093261718
 70
    32
  0
VERTEX
  5
193
330
F7
100
AcDbEntity
  8
0
 62
   251
420
  5658198
100
AcDbVertex
100
AcDb3dPolylineVertex
 10
69.59410095214844
 20
0.0000011557337984
 30
48.98290252685547
 70
    32
  0
VERTEX
  5
194
330
F7
100
AcDbEntity
  8
0
 62
   251
420
  5658198
100
AcDbVertex
100
AcDb3dPolylineVertex
 10
69.5596923828125
 20
0.0000011487557003
 30
49.028076171875
 70
    32
  0
VERTEX
  5
195
330
F7
100
AcDbEntity
  8
0
 62
   251
420
  5658198
100
AcDbVertex
100
AcDb3dPolylineVertex
 10
69.52268218994141
 20
0.0000011420854662
 30
49.07152938842774
 70
    32
  0
VERTEX
  5
196
330
F7
100
AcDbEntity
  8
0
 62
   251
420
  5658198
100
AcDbVertex
100
AcDb3dPolylineVertex
 10
69.48330688476563
 20
0.0000011357926724
 30
49.11281585693359
 70
    32
  0
VERTEX
  5
197
330
F7
100
AcDbEntity
  8
0
 62
   251
420
  5658198
100
AcDbVertex
100
AcDb3dPolylineVertex
 10
69.44190979003906
 20
0.0000011299300695
 30
49.15159606933594
 70
    32
  0
VERTEX
  5
198
330
F7
100
AcDbEntity
  8
0
 62
   251
420
  5658198
100
AcDbVertex
100
AcDb3dPolylineVertex
 10
69.39856719970703
 20
0.000001124480832
 30
49.1879653930664
 70
    32
  0
VERTEX
  5
199
330
F7
100
AcDbEntity
  8
0
 62
   251
420
  5658198
100
AcDbVertex
100
AcDb3dPolylineVertex
 10
69.3533706665039
 20
0.0000011194294984
 30
49.22200775146484
 70
    32
  0
VERTEX
  5
19A
330
F7
100
AcDbEntity
  8
0
 62
   251
420
  5658198
100
AcDbVertex
100
AcDb3dPolylineVertex
 10
69.30638122558594
 20
0.0000011147615169
 30
49.25381851196289
 70
    32
  0
VERTEX
  5
19B
330
F7
100
AcDbEntity
  8
0
 62
   251
420
  5658198
100
AcDbVertex
100
AcDb3dPolylineVertex
 10
69.25768280029297
 20
0.0000011104605164
 30
49.28348159790039
 70
    32
  0
VERTEX
  5
19C
330
F7
100
AcDbEntity
  8
0
 62
   251
420
  5658198
100
AcDbVertex
100
AcDb3dPolylineVertex
 10
69.20735168457031
 20
0.0000011065101262
 30
49.31110382080078
 70
    32
  0
VERTEX
  5
19D
330
F7
100
AcDbEntity
  8
0
 62
   251
420
  5658198
100
AcDbVertex
100
AcDb3dPolylineVertex
 10
69.15547180175781
 20
0.0000011028967037
 30
49.33675384521484
 70
    32
  0
VERTEX
  5
19E
330
F7
100
AcDbEntity
  8
0
 62
   251
420
  5658198
100
AcDbVertex
100
AcDb3dPolylineVertex
 10
69.10211181640625
 20
0.0000010996029687
 30
49.36053848266602
 70
    32
  0
VERTEX
  5
19F
330
F7
100
AcDbEntity
  8
0
 62
   251
420
  5658198
100
AcDbVertex
100
AcDb3dPolylineVertex
 10
69.04734802246093
 20
0.0000010966139143
 30
49.38254165649414
 70
    32
  0
VERTEX
  5
1A0
330
F7
100
AcDbEntity
  8
0
 62
   251
420
  5658198
100
AcDbVertex
100
AcDb3dPolylineVertex
 10
68.93392944335937
 20
0.0000010914870927
 30
49.42157745361328
 70
    32
  0
VERTEX
  5
1A1
330
F7
100
AcDbEntity
  8
0
 62
   251
420
  5658198
100
AcDbVertex
100
AcDb3dPolylineVertex
 10
68.81583404541015
 20
0.0000010873907286
 30
49.45458984375
 70
    32
  0
VERTEX
  5
1A2
330
F7
100
AcDbEntity
  8
0
 62
   251
420
  5658198
100
AcDbVertex
100
AcDb3dPolylineVertex
 10
68.69367218017578
 20
0.0000010842011307
 30
49.4822998046875
 70
    32
  0
VERTEX
  5
1A3
330
F7
100
AcDbEntity
  8
0
 62
   251
420
  5658198
100
AcDbVertex
100
AcDb3dPolylineVertex
 10
68.43964385986328
 20
0.0000010800411019
 30
49.52471923828125
 70
    32
  0
VERTEX
  5
1A4
330
F7
100
AcDbEntity
  8
0
 62
   251
420
  5658198
100
AcDbVertex
100
AcDb3dPolylineVertex
 10
68.17676544189453
 20
0.0000010780083812
 30
49.55465698242187
 70
    32
  0
VERTEX
  5
1A5
330
F7
100
AcDbEntity
  8
0
 62
   251
420
  5658198
100
AcDbVertex
100
AcDb3dPolylineVertex
 10
67.64421844482422
 20
0.000001076325816
 30
49.60033416748046
 70
    32
  0
VERTEX
  5
1A6
330
F7
100
AcDbEntity
  8
0
 62
   251
420
  5658198
100
AcDbVertex
100
AcDb3dPolylineVertex
 10
62.52214813232422
 20
0.0000010560131614
 30
50.06502151489257
 70
    32
  0
VERTEX
  5
1A7
330
F7
100
AcDbEntity
  8
0
 62
   251
420
  5658198
100
AcDbVertex
100
AcDb3dPolylineVertex
 10
62.52214813232422
 20
-0.0000003616357844
 30
51.84550476074218
 70
    32
  0
VERTEX
  5
1A8
330
F7
100
AcDbEntity
  8
0
 62
   251
420
  5658198
100
AcDbVertex
100
AcDb3dPolylineVertex
 10
62.93972396850586
 20
-0.0000003883585578
 30
51.93726348876953
 70
    32
  0
VERTEX
  5
1A9
330
F7
100
AcDbEntity
  8
0
 62
   251
420
  5658198
100
AcDbVertex
100
AcDb3dPolylineVertex
 10
63.34875869750977
 20
-0.0000004404066658
 30
52.0525016784668
 70
    32
  0
VERTEX
  5
1AA
330
F7
100
AcDbEntity
  8
0
 62
   251
420
  5658198
100
AcDbVertex
100
AcDb3dPolylineVertex
 10
63.74841690063476
 20
-0.0000005146032436
 30
52.19057464599609
 70
    32
  0
VERTEX
  5
1AB
330
F7
100
AcDbEntity
  8
0
 62
   251
420
  5658198
100
AcDbVertex
100
AcDb3dPolylineVertex
 10
64.13785552978516
 20
-0.0000006077741546
 30
52.3508529663086
 70
    32
  0
VERTEX
  5
1AC
330
F7
100
AcDbEntity
  8
0
 62
   251
420
  5658198
100
AcDbVertex
100
AcDb3dPolylineVertex
 10
64.51624298095703
 20
-0.000000716745717
 30
52.53270721435547
 70
    32
  0
VERTEX
  5
1AD
330
F7
100
AcDbEntity
  8
0
 62
   251
420
  5658198
100
AcDbVertex
100
AcDb3dPolylineVertex
 10
64.88272857666015
 20
-0.0000008383403838
 30
52.73548889160156
 70
    32
  0
VERTEX
  5
1AE
330
F7
100
AcDbEntity
  8
0
 62
   251
420
  5658198
100
AcDbVertex
100
AcDb3dPolylineVertex
 10
65.23648071289063
 20
-0.0000009693851553
 30
52.95856475830078
 70
    32
  0
VERTEX
  5
1AF
330
F7
100
AcDbEntity
  8
0
 62
   251
420
  5658198
100
AcDbVertex
100
AcDb3dPolylineVertex
 10
65.57665252685547
 20
-0.0000011067047581
 30
53.20130920410156
 70
    32
  0
VERTEX
  5
1B0
330
F7
100
AcDbEntity
  8
0
 62
   251
420
  5658198
100
AcDbVertex
100
AcDb3dPolylineVertex
 10
65.90242004394531
 20
-0.0000012471234641
 30
53.46307373046875
 70
    32
  0
VERTEX
  5
1B1
330
F7
100
AcDbEntity
  8
0
 62
   251
420
  5658198
100
AcDbVertex
100
AcDb3dPolylineVertex
 10
66.21292877197266
 20
-0.0000013874671367
 30
53.74322509765625
 70
    32
  0
VERTEX
  5
1B2
330
F7
100
AcDbEntity
  8
0
 62
   251
420
  5658198
100
AcDbVertex
100
AcDb3dPolylineVertex
 10
66.5073471069336
 20
-0.0000015245608438
 30
54.0411376953125
 70
    32
  0
VERTEX
  5
1B3
330
F7
100
AcDbEntity
  8
0
 62
   251
420
  5658198
100
AcDbVertex
100
AcDb3dPolylineVertex
 10
66.78483581542969
 20
-0.0000016552289708
 30
54.35616302490235
 70
    32
  0
VERTEX
  5
1B4
330
F7
100
AcDbEntity
  8
0
 62
   251
420
  5658198
100
AcDbVertex
100
AcDb3dPolylineVertex
 10
67.0445556640625
 20
-0.0000017762970401
 30
54.68767547607422
 70
    32
  0
VERTEX
  5
1B5
330
F7
100
AcDbEntity
  8
0
 62
   251
420
  5658198
100
AcDbVertex
100
AcDb3dPolylineVertex
 10
67.28566741943359
 20
-0.0000018845903469
 30
55.0350341796875
 70
    32
  0
VERTEX
  5
1B6
330
F7
100
AcDbEntity
  8
0
 62
   251
420
  5658198
100
AcDbVertex
100
AcDb3dPolylineVertex
 10
67.50732421875
 20
-0.0000019769336177
 30
55.39760589599609
 70
    32
  0
VERTEX
  5
1B7
330
F7
100
AcDbEntity
  8
0
 62
   251
420
  5658198
100
AcDbVertex
100
AcDb3dPolylineVertex
 10
67.70870208740234
 20
-0.0000020501518065
 30
55.77474975585937
 70
    32
  0
VERTEX
  5
1B8
330
F7
100
AcDbEntity
  8
0
 62
   251
420
  5658198
100
AcDbVertex
100
AcDb3dPolylineVertex
 10
67.88771820068359
 20
-0.0000021134064809
 30
56.16300201416016
 70
    32
  0
VERTEX
  5
1B9
330
F7
100
AcDbEntity
  8
0
 62
   251
420
  5658198
100
AcDbVertex
100
AcDb3dPolylineVertex
 10
68.04286193847656
 20
-0.0000021778628252
 30
56.55863189697265
 70
    32
  0
VERTEX
  5
1BA
330
F7
100
AcDbEntity
  8
0
 62
   251
420
  5658198
100
AcDbVertex
100
AcDb3dPolylineVertex
 10
68.17414093017578
 20
-0.0000022433471258
 30
56.9605712890625
 70
    32
  0
VERTEX
  5
1BB
330
F7
100
AcDbEntity
  8
0
 62
   251
420
  5658198
100
AcDbVertex
100
AcDb3dPolylineVertex
 10
68.28155517578125
 20
-0.0000023096895347
 30
57.3677749633789
 70
    32
  0
VERTEX
  5
1BC
330
F7
100
AcDbEntity
  8
0
 62
   251
420
  5658198
100
AcDbVertex
100
AcDb3dPolylineVertex
 10
68.36509704589843
 20
-0.0000023767174753
 30
57.77919387817383
 70
    32
  0
VERTEX
  5
1BD
330
F7
100
AcDbEntity
  8
0
 62
   251
420
  5658198
100
AcDbVertex
100
AcDb3dPolylineVertex
 10
68.42476654052735
 20
-0.0000024442604172
 30
58.19376754760742
 70
    32
  0
VERTEX
  5
1BE
330
F7
100
AcDbEntity
  8
0
 62
   251
420
  5658198
100
AcDbVertex
100
AcDb3dPolylineVertex
 10
68.4605712890625
 20
-0.000002512146466
 30
58.6104507446289
 70
    32
  0
VERTEX
  5
1BF
330
F7
100
AcDbEntity
  8
0
 62
   251
420
  5658198
100
AcDbVertex
100
AcDb3dPolylineVertex
 10
68.47250366210937
 20
-0.0000025802037271
 30
59.02818298339844
 70
    32
  0
VERTEX
  5
1C0
330
F7
100
AcDbEntity
  8
0
 62
   251
420
  5658198
100
AcDbVertex
100
AcDb3dPolylineVertex
 10
68.4605712890625
 20
-0.0000026482609883
 30
59.44591522216796
 70
    32
  0
VERTEX
  5
1C1
330
F7
100
AcDbEntity
  8
0
 62
   251
420
  5658198
100
AcDbVertex
100
AcDb3dPolylineVertex
 10
68.42476654052735
 20
-0.0000027161470371
 30
59.86259460449218
 70
    32
  0
VERTEX
  5
1C2
330
F7
100
AcDbEntity
  8
0
 62
   251
420
  5658198
100
AcDbVertex
100
AcDb3dPolylineVertex
 10
68.36509704589843
 20
-0.0000027836895242
 30
60.27716827392578
 70
    32
  0
VERTEX
  5
1C3
330
F7
100
AcDbEntity
  8
0
 62
   251
420
  5658198
100
AcDbVertex
100
AcDb3dPolylineVertex
 10
68.28155517578125
 20
-0.0000028507179195
 30
60.6885871887207
 70
    32
  0
VERTEX
  5
1C4
330
F7
100
AcDbEntity
  8
0
 62
   251
420
  5658198
100
AcDbVertex
100
AcDb3dPolylineVertex
 10
68.17414093017578
 20
-0.000002917060101
 30
61.09579467773437
 70
    32
  0
VERTEX
  5
1C5
330
F7
100
AcDbEntity
  8
0
 62
   251
420
  5658198
100
AcDbVertex
100
AcDb3dPolylineVertex
 10
68.04286193847656
 20
-0.000002982544629
 30
61.49773406982422
 70
    32
  0
VERTEX
  5
1C6
330
F7
100
AcDbEntity
  8
0
 62
   251
420
  5658198
100
AcDbVertex
100
AcDb3dPolylineVertex
 10
67.88771820068359
 20
-0.0000030470002912
 30
61.89336013793945
 70
    32
  0
VERTEX
  5
1C7
330
F7
100
AcDbEntity
  8
0
 62
   251
420
  5658198
100
AcDbVertex
100
AcDb3dPolylineVertex
 10
67.70870208740234
 20
-0.000003110255193
 30
62.2816162109375
 70
    32
  0
VERTEX
  5
1C8
330
F7
100
AcDbEntity
  8
0
 62
   251
420
  5658198
100
AcDbVertex
100
AcDb3dPolylineVertex
 10
67.50732421875
 20
-0.000003159971584
 30
62.65876007080078
 70
    32
  0
VERTEX
  5
1C9
330
F7
100
AcDbEntity
  8
0
 62
   251
420
  5658198
100
AcDbVertex
100
AcDb3dPolylineVertex
 10
67.28566741943359
 20
-0.0000031858965031
 30
63.02133178710938
 70
    32
  0
VERTEX
  5
1CA
330
F7
100
AcDbEntity
  8
0
 62
   251
420
  5658198
100
AcDbVertex
100
AcDb3dPolylineVertex
 10
67.0445556640625
 20
-0.0000031909860354
 30
63.36869049072266
 70
    32
  0
VERTEX
  5
1CB
330
F7
100
AcDbEntity
  8
0
 62
   251
420
  5658198
100
AcDbVertex
100
AcDb3dPolylineVertex
 10
66.78483581542969
 20
-0.0000031781958114
 30
63.70019912719726
 70
    32
  0
VERTEX
  5
1CC
330
F7
100
AcDbEntity
  8
0
 62
   251
420
  5658198
100
AcDbVertex
100
AcDb3dPolylineVertex
 10
66.5073471069336
 20
-0.0000031504819162
 30
64.01522827148437
 70
    32
  0
VERTEX
  5
1CD
330
F7
100
AcDbEntity
  8
0
 62
   251
420
  5658198
100
AcDbVertex
100
AcDb3dPolylineVertex
 10
66.21292877197266
 20
-0.0000031108008898
 30
64.31314086914063
 70
    32
  0
VERTEX
  5
1CE
330
F7
100
AcDbEntity
  8
0
 62
   251
420
  5658198
100
AcDbVertex
100
AcDb3dPolylineVertex
 10
65.90242004394531
 20
-0.0000030621076803
 30
64.59329223632813
 70
    32
  0
VERTEX
  5
1CF
330
F7
100
AcDbEntity
  8
0
 62
   251
420
  5658198
100
AcDbVertex
100
AcDb3dPolylineVertex
 10
65.57665252685547
 20
-0.0000030073590551
 30
64.85505676269531
 70
    32
  0
VERTEX
  5
1D0
330
F7
100
AcDbEntity
  8
0
 62
   251
420
  5658198
100
AcDbVertex
100
AcDb3dPolylineVertex
 10
65.23648071289063
 20
-0.0000029495106446
 30
65.09779357910156
 70
    32
  0
VERTEX
  5
1D1
330
F7
100
AcDbEntity
  8
0
 62
   251
420
  5658198
100
AcDbVertex
100
AcDb3dPolylineVertex
 10
64.88272857666015
 20
-0.0000028915187613
 30
65.32087707519531
 70
    32
  0
VERTEX
  5
1D2
330
F7
100
AcDbEntity
  8
0
 62
   251
420
  5658198
100
AcDbVertex
100
AcDb3dPolylineVertex
 10
64.51624298095703
 20
-0.000002836339263
 30
65.52365875244141
 70
    32
  0
VERTEX
  5
1D3
330
F7
100
AcDbEntity
  8
0
 62
   251
420
  5658198
100
AcDbVertex
100
AcDb3dPolylineVertex
 10
64.13785552978516
 20
-0.0000027869277801
 30
65.70550537109375
 70
    32
  0
VERTEX
  5
1D4
330
F7
100
AcDbEntity
  8
0
 62
   251
420
  5658198
100
AcDbVertex
100
AcDb3dPolylineVertex
 10
63.74841690063476
 20
-0.0000027462406251
 30
65.86578369140625
 70
    32
  0
VERTEX
  5
1D5
330
F7
100
AcDbEntity
  8
0
 62
   251
420
  5658198
100
AcDbVertex
100
AcDb3dPolylineVertex
 10
63.34876251220703
 20
-0.0000027172336559
 30
66.00386047363281
 70
    32
  0
VERTEX
  5
1D6
330
F7
100
AcDbEntity
  8
0
 62
   251
420
  5658198
100
AcDbVertex
100
AcDb3dPolylineVertex
 10
62.93972396850586
 20
-0.0000027028631848
 30
66.11910247802734
 70
    32
  0
VERTEX
  5
1D7
330
F7
100
AcDbEntity
  8
0
 62
   251
420
  5658198
100
AcDbVertex
100
AcDb3dPolylineVertex
 10
62.52214813232422
 20
-0.0000027060846151
 30
66.21086120605468
 70
    32
  0
VERTEX
  5
1D8
330
F7
100
AcDbEntity
  8
0
 62
   251
420
  5658198
100
AcDbVertex
100
AcDb3dPolylineVertex
 10
62.52214813232422
 20
-0.0000019771089228
 30
68.26308441162109
 70
    32
  0
VERTEX
  5
1D9
330
F7
100
AcDbEntity
  8
0
 62
   251
420
  5658198
100
AcDbVertex
100
AcDb3dPolylineVertex
 10
67.17327117919921
 20
-0.0000024134815249
 30
68.76209259033203
 70
    32
  0
VERTEX
  5
1DA
330
F7
100
AcDbEntity
  8
0
 62
   251
420
  5658198
100
AcDbVertex
100
AcDb3dPolylineVertex
 10
67.72248840332031
 20
-0.0000024699322694
 30
68.82377624511718
 70
    32
  0
VERTEX
  5
1DB
330
F7
100
AcDbEntity
  8
0
 62
   251
420
  5658198
100
AcDbVertex
100
AcDb3dPolylineVertex
 10
68.00050354003906
 20
-0.000002511952971
 30
68.86764526367187
 70
    32
  0
VERTEX
  5
1DC
330
F7
100
AcDbEntity
  8
0
 62
   251
420
  5658198
100
AcDbVertex
100
AcDb3dPolylineVertex
 10
68.13749694824219
 20
-0.0000025385820663
 30
68.8960952758789
 70
    32
  0
VERTEX
  5
1DD
330
F7
100
AcDbEntity
  8
0
 62
   251
420
  5658198
100
AcDbVertex
100
AcDb3dPolylineVertex
 10
68.2723388671875
 20
-0.0000025682118121
 30
68.92919158935547
 70
    32
  0
VERTEX
  5
1DE
330
F7
100
AcDbEntity
  8
0
 62
   251
420
  5658198
100
AcDbVertex
100
AcDb3dPolylineVertex
 10
68.40443420410156
 20
-0.0000026002835511
 30
68.96714782714844
 70
    32
  0
VERTEX
  5
1DF
330
F7
100
AcDbEntity
  8
0
 62
   251
420
  5658198
100
AcDbVertex
100
AcDb3dPolylineVertex
 10
68.53316497802734
 20
-0.000002634238399
 30
69.01019287109375
 70
    32
  0
VERTEX
  5
1E0
330
F7
100
AcDbEntity
  8
0
 62
   251
420
  5658198
100
AcDbVertex
100
AcDb3dPolylineVertex
 10
68.6579360961914
 20
-0.0000026695179258
 30
69.05854034423828
 70
    32
  0
VERTEX
  5
1E1
330
F7
100
AcDbEntity
  8
0
 62
   251
420
  5658198
100
AcDbVertex
100
AcDb3dPolylineVertex
 10
68.77814483642578
 20
-0.0000027055630198
 30
69.1124267578125
 70
    32
  0
VERTEX
  5
1E2
330
F7
100
AcDbEntity
  8
0
 62
   251
420
  5658198
100
AcDbVertex
100
AcDb3dPolylineVertex
 10
68.89317321777344
 20
-0.0000027418150239
 30
69.17205810546875
 70
    32
  0
VERTEX
  5
1E3
330
F7
100
AcDbEntity
  8
0
 62
   251
420
  5658198
100
AcDbVertex
100
AcDb3dPolylineVertex
 10
69.00242614746094
 20
-0.0000027777152809
 30
69.23766326904297
 70
    32
  0
VERTEX
  5
1E4
330
F7
100
AcDbEntity
  8
0
 62
   251
420
  5658198
100
AcDbVertex
100
AcDb3dPolylineVertex
 10
69.05470275878906
 20
-0.000002795358796
 30
69.27278137207031
 70
    32
  0
VERTEX
  5
1E5
330
F7
100
AcDbEntity
  8
0
 62
   251
420
  5658198
100
AcDbVertex
100
AcDb3dPolylineVertex
 10
69.10530090332031
 20
-0.0000028127051337
 30
69.3094711303711
 70
    32
  0
VERTEX
  5
1E6
330
F7
100
AcDbEntity
  8
0
 62
   251
420
  5658198
100
AcDbVertex
100
AcDb3dPolylineVertex
 10
69.1541519165039
 20
-0.0000028296840355
 30
69.34777069091797
 70
    32
  0
VERTEX
  5
1E7
330
F7
100
AcDbEntity
  8
0
 62
   251
420
  5658198
100
AcDbVertex
100
AcDb3dPolylineVertex
 10
69.20118713378906
 20
-0.0000028462254704
 30
69.3876953125
 70
    32
  0
VERTEX
  5
1E8
330
F7
100
AcDbEntity
  8
0
 62
   251
420
  5658198
100
AcDbVertex
100
AcDb3dPolylineVertex
 10
69.2463150024414
 20
-0.000002862259862
 30
69.42928314208984
 70
    32
  0
VERTEX
  5
1E9
330
F7
100
AcDbEntity
  8
0
 62
   251
420
  5658198
100
AcDbVertex
100
AcDb3dPolylineVertex
 10
69.28947448730468
 20
-0.000002877717634
 30
69.47256469726562
 70
    32
  0
VERTEX
  5
1EA
330
F7
100
AcDbEntity
  8
0
 62
   251
420
  5658198
100
AcDbVertex
100
AcDb3dPolylineVertex
 10
69.33058166503906
 20
-0.0000028925287552
 30
69.5175552368164
 70
    32
  0
VERTEX
  5
1EB
330
F7
100
AcDbEntity
  8
0
 62
   251
420
  5658198
100
AcDbVertex
100
AcDb3dPolylineVertex
 10
69.36956787109375
 20
-0.0000029066231946
 30
69.56429290771485
 70
    32
  0
VERTEX
  5
1EC
330
F7
100
AcDbEntity
  8
0
 62
   251
420
  5658198
100
AcDbVertex
100
AcDb3dPolylineVertex
 10
69.40635681152343
 20
-0.0000029199313758
 30
69.61280059814453
 70
    32
  0
VERTEX
  5
1ED
330
F7
100
AcDbEntity
  8
0
 62
   251
420
  5658198
100
AcDbVertex
100
AcDb3dPolylineVertex
 10
69.44086456298828
 20
-0.0000029323830404
 30
69.66310119628906
 70
    32
  0
VERTEX
  5
1EE
330
F7
100
AcDbEntity
  8
0
 62
   251
420
  5658198
100
AcDbVertex
100
AcDb3dPolylineVertex
 10
69.4730224609375
 20
-0.0000029439088394
 30
69.71524047851563
 70
    32
  0
VERTEX
  5
1EF
330
F7
100
AcDbEntity
  8
0
 62
   251
420
  5658198
100
AcDbVertex
100
AcDb3dPolylineVertex
 10
69.50274658203125
 20
-0.0000029544385143
 30
69.76922607421875
 70
    32
  0
VERTEX
  5
1F0
330
F7
100
AcDbEntity
  8
0
 62
   251
420
  5658198
100
AcDbVertex
100
AcDb3dPolylineVertex
 10
69.54630279541015
 20
-0.0000029706682199
 30
69.86006164550781
 70
    32
  0
VERTEX
  5
1F1
330
F7
100
AcDbEntity
  8
0
 62
   251
420
  5658198
100
AcDbVertex
100
AcDb3dPolylineVertex
 10
69.58423614501953
 20
-0.0000029867919693
 30
69.95349884033203
 70
    32
  0
VERTEX
  5
1F2
330
F7
100
AcDbEntity
  8
0
 62
   251
420
  5658198
100
AcDbVertex
100
AcDb3dPolylineVertex
 10
69.61653137207031
 20
-0.0000030028268156
 30
70.04911804199219
 70
    32
  0
VERTEX
  5
1F3
330
F7
100
AcDbEntity
  8
0
 62
   251
420
  5658198
100
AcDbVertex
100
AcDb3dPolylineVertex
 10
69.64319610595703
 20
-0.0000030187916309
 30
70.14647674560547
 70
    32
  0
VERTEX
  5
1F4
330
F7
100
AcDbEntity
  8
0
 62
   251
420
  5658198
100
AcDbVertex
100
AcDb3dPolylineVertex
 10
69.66421508789062
 20
-0.0000030347034681
 30
70.24515533447265
 70
    32
  0
VERTEX
  5
1F5
330
F7
100
AcDbEntity
  8
0
 62
   251
420
  5658198
100
AcDbVertex
100
AcDb3dPolylineVertex
 10
69.67959594726562
 20
-0.0000030505807445
 30
70.34471893310547
 70
    32
  0
VERTEX
  5
1F6
330
F7
100
AcDbEntity
  8
0
 62
   251
420
  5658198
100
AcDbVertex
100
AcDb3dPolylineVertex
 10
69.6893310546875
 20
-0.0000030664405131
 30
70.44474792480468
 70
    32
  0
VERTEX
  5
1F7
330
F7
100
AcDbEntity
  8
0
 62
   251
420
  5658198
100
AcDbVertex
100
AcDb3dPolylineVertex
 10
69.69341278076171
 20
-0.0000030823016459
 30
70.54480743408203
 70
    32
  0
VERTEX
  5
1F8
330
F7
100
AcDbEntity
  8
0
 62
   251
420
  5658198
100
AcDbVertex
100
AcDb3dPolylineVertex
 10
69.69087219238281
 20
-0.0000031014078559
 30
70.66348266601562
 70
    32
  0
VERTEX
  5
1F9
330
F7
100
AcDbEntity
  8
0
 62
   251
420
  5658198
100
AcDbVertex
100
AcDb3dPolylineVertex
 10
69.68035125732422
 20
-0.0000031201557249
 30
70.7814712524414
 70
    32
  0
VERTEX
  5
1FA
330
F7
100
AcDbEntity
  8
0
 62
   251
420
  5658198
100
AcDbVertex
100
AcDb3dPolylineVertex
 10
69.66197967529296
 20
-0.0000031373151614
 30
70.89833831787109
 70
    32
  0
VERTEX
  5
1FB
330
F7
100
AcDbEntity
  8
0
 62
   251
420
  5658198
100
AcDbVertex
100
AcDb3dPolylineVertex
 10
69.63587951660156
 20
-0.0000031516558465
 30
71.01365661621094
 70
    32
  0
VERTEX
  5
1FC
330
F7
100
AcDbEntity
  8
0
 62
   251
420
  5658198
100
AcDbVertex
100
AcDb3dPolylineVertex
 10
69.60216522216796
 20
-0.0000031619465517
 30
71.12699127197266
 70
    32
  0
VERTEX
  5
1FD
330
F7
100
AcDbEntity
  8
0
 62
   251
420
  5658198
100
AcDbVertex
100
AcDb3dPolylineVertex
 10
69.56097412109375
 20
-0.0000031669571854
 30
71.23790740966796
 70
    32
  0
VERTEX
  5
1FE
330
F7
100
AcDbEntity
  8
0
 62
   251
420
  5658198
100
AcDbVertex
100
AcDb3dPolylineVertex
 10
69.51242065429688
 20
-0.0000031654567465
 30
71.34596252441406
 70
    32
  0
VERTEX
  5
1FF
330
F7
100
AcDbEntity
  8
0
 62
   251
420
  5658198
100
AcDbVertex
100
AcDb3dPolylineVertex
 10
69.45663452148437
 20
-0.0000031562149161
 30
71.45073699951172
 70
    32
  0
VERTEX
  5
200
330
F7
100
AcDbEntity
  8
0
 62
   251
420
  5658198
100
AcDbVertex
100
AcDb3dPolylineVertex
 10
69.41850280761719
 20
-0.0000031478218716
 30
71.51308441162109
 70
    32
  0
VERTEX
  5
201
330
F7
100
AcDbEntity
  8
0
 62
   251
420
  5658198
100
AcDbVertex
100
AcDb3dPolylineVertex
 10
69.37702178955078
 20
-0.0000031393310564
 30
71.57388305664063
 70
    32
  0
VERTEX
  5
202
330
F7
100
AcDbEntity
  8
0
 62
   251
420
  5658198
100
AcDbVertex
100
AcDb3dPolylineVertex
 10
69.33247375488281
 20
-0.0000031309280075
 30
71.63302612304687
 70
    32
  0
VERTEX
  5
203
330
F7
100
AcDbEntity
  8
0
 62
   251
420
  5658198
100
AcDbVertex
100
AcDb3dPolylineVertex
 10
69.28515625
 20
-0.0000031227975796
 30
71.69039154052734
 70
    32
  0
VERTEX
  5
204
330
F7
100
AcDbEntity
  8
0
 62
   251
420
  5658198
100
AcDbVertex
100
AcDb3dPolylineVertex
 10
69.2353515625
 20
-0.0000031151250823
 30
71.74588012695313
 70
    32
  0
VERTEX
  5
205
330
F7
100
AcDbEntity
  8
0
 62
   251
420
  5658198
100
AcDbVertex
100
AcDb3dPolylineVertex
 10
69.18335723876953
 20
-0.0000031080953704
 30
71.79936218261719
 70
    32
  0
VERTEX
  5
206
330
F7
100
AcDbEntity
  8
0
 62
   251
420
  5658198
100
AcDbVertex
100
AcDb3dPolylineVertex
 10
69.12946319580078
 20
-0.0000031018942082
 30
71.85073852539062
 70
    32
  0
VERTEX
  5
207
330
F7
100
AcDbEntity
  8
0
 62
   251
420
  5658198
100
AcDbVertex
100
AcDb3dPolylineVertex
 10
69.07395172119141
 20
-0.000003096706223
 30
71.89989471435547
 70
    32
  0
VERTEX
  5
208
330
F7
100
AcDbEntity
  8
0
 62
   251
420
  5658198
100
AcDbVertex
100
AcDb3dPolylineVertex
 10
68.76815795898437
 20
-0.0000030758446883
 30
72.1396713256836
 70
    32
  0
VERTEX
  5
209
330
F7
100
AcDbEntity
  8
0
 62
   251
420
  5658198
100
AcDbVertex
100
AcDb3dPolylineVertex
 10
68.61792755126953
 20
-0.0000030685930597
 30
72.26168060302734
 70
    32
  0
VERTEX
  5
20A
330
F7
100
AcDbEntity
  8
0
 62
   251
420
  5658198
100
AcDbVertex
100
AcDb3dPolylineVertex
 10
68.54673004150391
 20
-0.0000030659593904
 30
72.32638549804687
 70
    32
  0
VERTEX
  5
20B
330
F7
100
AcDbEntity
  8
0
 62
   251
420
  5658198
100
AcDbVertex
100
AcDb3dPolylineVertex
 10
68.47938537597656
 20
-0.0000030640626392
 30
72.39476013183594
 70
    32
  0
VERTEX
  5
20C
330
F7
100
AcDbEntity
  8
0
 62
   251
420
  5658198
100
AcDbVertex
100
AcDb3dPolylineVertex
 10
68.38614654541015
 20
-0.0000030632459129
 30
72.502197265625
 70
    32
  0
VERTEX
  5
20D
330
F7
100
AcDbEntity
  8
0
 62
   251
420
  5658198
100
AcDbVertex
100
AcDb3dPolylineVertex
 10
68.29940795898437
 20
-0.0000030651856378
 30
72.61522674560547
 70
    32
  0
VERTEX
  5
20E
330
F7
100
AcDbEntity
  8
0
 62
   251
420
  5658198
100
AcDbVertex
100
AcDb3dPolylineVertex
 10
68.21892547607422
 20
-0.0000030697501643
 30
72.733642578125
 70
    32
  0
VERTEX
  5
20F
330
F7
100
AcDbEntity
  8
0
 62
   251
420
  5658198
100
AcDbVertex
100
AcDb3dPolylineVertex
 10
68.14447784423828
 20
-0.0000030768069337
 30
72.85723876953125
 70
    32
  0
VERTEX
  5
210
330
F7
100
AcDbEntity
  8
0
 62
   251
420
  5658198
100
AcDbVertex
100
AcDb3dPolylineVertex
 10
68.07582092285156
 20
-0.0000030862245239
 30
72.98579406738281
 70
    32
  0
VERTEX
  5
211
330
F7
100
AcDbEntity
  8
0
 62
   251
420
  5658198
100
AcDbVertex
100
AcDb3dPolylineVertex
 10
68.01273345947265
 20
-0.000003097870831
 30
73.11910247802734
 70
    32
  0
VERTEX
  5
212
330
F7
100
AcDbEntity
  8
0
 62
   251
420
  5658198
100
AcDbVertex
100
AcDb3dPolylineVertex
 10
67.95497894287109
 20
-0.0000031116142054
 30
73.25696563720703
 70
    32
  0
VERTEX
  5
213
330
F7
100
AcDbEntity
  8
0
 62
   251
420
  5658198
100
AcDbVertex
100
AcDb3dPolylineVertex
 10
67.9023208618164
 20
-0.0000031273223158
 30
73.39915466308593
 70
    32
  0
VERTEX
  5
214
330
F7
100
AcDbEntity
  8
0
 62
   251
420
  5658198
100
AcDbVertex
100
AcDb3dPolylineVertex
 10
67.85453796386718
 20
-0.0000031448637401
 30
73.54547882080078
 70
    32
  0
VERTEX
  5
215
330
F7
100
AcDbEntity
  8
0
 62
   251
420
  5658198
100
AcDbVertex
100
AcDb3dPolylineVertex
 10
67.81139373779296
 20
-0.0000031641061469
 30
73.69571685791015
 70
    32
  0
VERTEX
  5
216
330
F7
100
AcDbEntity
  8
0
 62
   251
420
  5658198
100
AcDbVertex
100
AcDb3dPolylineVertex
 10
67.73808288574219
 20
-0.0000032071668556
 30
74.00709533691406
 70
    32
  0
VERTEX
  5
217
330
F7
100
AcDbEntity
  8
0
 62
   251
420
  5658198
100
AcDbVertex
100
AcDb3dPolylineVertex
 10
67.68053436279297
 20
-0.0000032554494283
 30
74.33161926269531
 70
    32
  0
VERTEX
  5
218
330
F7
100
AcDbEntity
  8
0
 62
   251
420
  5658198
100
AcDbVertex
100
AcDb3dPolylineVertex
 10
67.63689422607422
 20
-0.0000033078986235
 30
74.66761016845703
 70
    32
  0
VERTEX
  5
219
330
F7
100
AcDbEntity
  8
0
 62
   251
420
  5658198
100
AcDbVertex
100
AcDb3dPolylineVertex
 10
67.58390808105469
 20
-0.0000034210759168
 30
75.36727142333984
 70
    32
  0
VERTEX
  5
21A
330
F7
100
AcDbEntity
  8
0
 62
   251
420
  5658198
100
AcDbVertex
100
AcDb3dPolylineVertex
 10
67.56427001953125
 20
-0.0000035382568058
 30
76.0926513671875
 70
    32
  0
SEQEND
  5
21B
330
F7
100
AcDbEntity
  8
0
 62
   251
420
  5658198
  0
ENDSEC
  0
SECTION
  2
OBJECTS
  0
DICTIONARY
  5
C
330
0
100
AcDbDictionary
281
     1
  3
ACAD_COLOR
350
DC
  3
ACAD_DETAILVIEWSTYLE
350
F5
  3
ACAD_GROUP
350
D
  3
ACAD_LAYOUT
350
1A
  3
ACAD_MATERIAL
350
AA
  3
ACAD_MLEADERSTYLE
350
F1
  3
ACAD_MLINESTYLE
350
17
  3
ACAD_PLOTSETTINGS
350
19
  3
ACAD_PLOTSTYLENAME
350
E
  3
ACAD_SCALELIST
350
DF
  3
ACAD_SECTIONVIEWSTYLE
350
F3
  3
ACAD_TABLESTYLE
350
DD
  3
ACAD_VISUALSTYLE
350
C3
  3
ACDB_RECOMPOSE_DATA
350
228
  3
AcDbVariableDictionary
350
21C
  0
DICTIONARY
  5
DC
102
{ACAD_REACTORS
330
C
102
}
330
C
100
AcDbDictionary
281
     1
  0
DICTIONARY
  5
F5
102
{ACAD_REACTORS
330
C
102
}
330
C
100
AcDbDictionary
281
     1
  3
Imperial24
350
F6
  0
DICTIONARY
  5
D
102
{ACAD_REACTORS
330
C
102
}
330
C
100
AcDbDictionary
281
     1
  0
DICTIONARY
  5
1A
102
{ACAD_REACTORS
330
C
102
}
330
C
100
AcDbDictionary
281
     1
  3
Layout1
350
1E
  3
Layout2
350
26
  3
Model
350
22
  0
DICTIONARY
  5
AA
102
{ACAD_REACTORS
330
C
102
}
330
C
100
AcDbDictionary
281
     1
  3
ByBlock
350
B3
  3
ByLayer
350
AB
  3
Global
350
BB
  0
DICTIONARY
  5
F1
102
{ACAD_REACTORS
330
C
102
}
330
C
100
AcDbDictionary
281
     1
  3
Standard
350
F2
  0
DICTIONARY
  5
17
102
{ACAD_REACTORS
330
C
102
}
330
C
100
AcDbDictionary
281
     1
  3
Standard
350
18
  0
DICTIONARY
  5
19
102
{ACAD_REACTORS
330
C
102
}
330
C
100
AcDbDictionary
281
     1
  0
ACDBDICTIONARYWDFLT
  5
E
102
{ACAD_REACTORS
330
C
102
}
330
C
100
AcDbDictionary
281
     1
  3
ByLayer
350
2D
  3
Normal
350
F
100
AcDbDictionaryWithDefault
340
F
  0
DICTIONARY
  5
DF
102
{ACAD_REACTORS
330
C
102
}
330
C
100
AcDbDictionary
281
     1
  3
A0
350
E0
  3
A1
350
E1
  3
A2
350
E2
  3
A3
350
E3
  3
A4
350
E4
  3
A5
350
E5
  3
A6
350
E6
  3
A7
350
E7
  3
A8
350
E8
  3
A9
350
E9
  3
B0
350
EA
  3
B1
350
EB
  3
B2
350
EC
  3
B3
350
ED
  3
B4
350
EE
  3
B5
350
EF
  3
B6
350
F0
  0
DICTIONARY
  5
F3
102
{ACAD_REACTORS
330
C
102
}
330
C
100
AcDbDictionary
281
     1
  3
Imperial24
350
F4
  0
DICTIONARY
  5
DD
102
{ACAD_REACTORS
330
C
102
}
330
C
100
AcDbDictionary
281
     1
  3
Standard
350
DE
  0
DICTIONARY
  5
C3
102
{ACAD_REACTORS
330
C
102
}
330
C
100
AcDbDictionary
281
     1
  3
2dWireframe
350
C9
  3
Basic
350
C8
  3
Brighten
350
CF
  3
ColorChange
350
D3
  3
Conceptual
350
CC
  3
Dim
350
CE
  3
EdgeColorOff
350
DB
  3
Facepattern
350
D2
  3
Flat
350
C4
  3
FlatWithEdges
350
C5
  3
Gouraud
350
C6
  3
GouraudWithEdges
350
C7
  3
Hidden
350
CB
  3
JitterOff
350
D9
  3
Linepattern
350
D1
  3
OverhangOff
350
DA
  3
Realistic
350
CD
  3
Shaded
350
D8
  3
Shaded with edges
350
D7
  3
Shades of Gray
350
D4
  3
Sketchy
350
D5
  3
Thicken
350
D0
  3
Wireframe
350
CA
  3
X-Ray
350
D6
  0
XRECORD
  5
228
102
{ACAD_REACTORS
330
C
102
}
330
C
100
AcDbXrecord
280
     1
 90
        1
330
DE
  0
DICTIONARY
  5
21C
102
{ACAD_REACTORS
330
C
102
}
330
C
100
AcDbDictionary
281
     1
  3
CANNOSCALE
350
222
  3
CMLEADERSTYLE
350
21E
  3
CTABLESTYLE
350
21D
  3
CVIEWDETAILSTYLE
350
21F
  3
CVIEWSECTIONSTYLE
350
220
  3
LAYEREVAL
350
224
  3
LAYERNOTIFY
350
225
  3
LIGHTINGUNITS
350
223
  3
MSLTSCALE
350
221
  0
ACDBDETAILVIEWSTYLE
  5
F6
102
{ACAD_XDICTIONARY
360
25F
102
}
102
{ACAD_REACTORS
330
F5
102
}
330
F5
100
AcDbModelDocViewStyle
 70
     0
  3
Imperial24
290
     0
100
AcDbDetailViewStyle
 70
     0
 71
     0
 90
        3
 71
     1
340
11
 62
   256
 40
0.24
340
0
 62
   256
 40
0.24
300

 40
0.36
280
     3
 71
     2
340
16
 90
       25
 62
   256
 71
     3
340
11
 62
   256
 40
0.24
 90
        1
 40
0.75
 90
        1
300
%<\AcVar ViewType \f "%tc1">% %<\AcVar ViewDetailId>%\PSCALE %<\AcVar ViewScale \f "%sn">%
 71
     4
340
16
 90
       25
 62
   256
340
16
 90
       25
 62
   256
280
     0
  0
LAYOUT
  5
1E
102
{ACAD_REACTORS
330
1A
102
}
330
1A
100
AcDbPlotSettings
  1

  2
\\KTXNTBDC\CASF2PN1
  4

  6

 40
0.0
 41
0.0
 42
0.0
 43
0.0
 44
0.0
 45
0.0
 46
0.0
 47
0.0
 48
0.0
 49
0.0
140
0.0
141
0.0
142
1.0
143
1.0
 70
   688
 72
     0
 73
     0
 74
     5
  7

 75
    16
147
1.0
 76
     0
 77
     2
 78
   300
148
0.0
149
0.0
100
AcDbLayout
  1
Layout1
 70
     1
 71
     1
 10
0.0
 20
0.0
 11
12.0
 21
9.0
 12
0.0
 22
0.0
 32
0.0
 14
1.000000000000000E+20
 24
1.000000000000000E+20
 34
1.000000000000000E+20
 15
-1.000000000000000E+20
 25
-1.000000000000000E+20
 35
-1.000000000000000E+20
146
0.0
 13
0.0
 23
0.0
 33
0.0
 16
1.0
 26
0.0
 36
0.0
 17
0.0
 27
1.0
 37
0.0
 76
     0
330
1B
  0
LAYOUT
  5
26
102
{ACAD_REACTORS
330
1A
102
}
330
1A
100
AcDbPlotSettings
  1

  2
\\KTXNTBDC\CASF2PN1
  4

  6

 40
0.0
 41
0.0
 42
0.0
 43
0.0
 44
0.0
 45
0.0
 46
0.0
 47
0.0
 48
0.0
 49
0.0
140
0.0
141
0.0
142
1.0
143
1.0
 70
   688
 72
     0
 73
     0
 74
     5
  7

 75
    16
147
1.0
 76
     0
 77
     2
 78
   300
148
0.0
149
0.0
100
AcDbLayout
  1
Layout2
 70
     1
 71
     2
 10
0.0
 20
0.0
 11
12.0
 21
9.0
 12
0.0
 22
0.0
 32
0.0
 14
0.0
 24
0.0
 34
0.0
 15
0.0
 25
0.0
 35
0.0
146
0.0
 13
0.0
 23
0.0
 33
0.0
 16
1.0
 26
0.0
 36
0.0
 17
0.0
 27
1.0
 37
0.0
 76
     0
330
23
  0
LAYOUT
  5
22
102
{ACAD_REACTORS
330
1A
102
}
330
1A
100
AcDbPlotSettings
  1

  2
\\KTXNTBDC\CASF2PN1
  4

  6

 40
0.0
 41
0.0
 42
0.0
 43
0.0
 44
0.0
 45
0.0
 46
0.0
 47
0.0
 48
0.0
 49
0.0
140
0.0
141
0.0
142
1.0
143
1.0
 70
  1712
 72
     0
 73
     0
 74
     0
  7

 75
     0
147
1.0
 76
     0
 77
     2
 78
   300
148
0.0
149
0.0
100
AcDbLayout
  1
Model
 70
     1
 71
     0
 10
0.0
 20
0.0
 11
12.0
 21
9.0
 12
0.0
 22
0.0
 32
0.0
 14
0.0
 24
0.0
 34
0.0
 15
0.0
 25
0.0
 35
0.0
146
0.0
 13
0.0
 23
0.0
 33
0.0
 16
1.0
 26
0.0
 36
0.0
 17
0.0
 27
1.0
 37
0.0
 76
     0
330
1F
  0
MATERIAL
  5
B3
102
{ACAD_XDICTIONARY
360
B4
102
}
102
{ACAD_REACTORS
330
AA
102
}
330
AA
100
AcDbMaterial
  1
ByBlock
 72
     0
 43
0.0208333333333333
 43
0.0
 43
0.0
 43
0.0
 43
0.0
 43
0.0208333333333333
 43
0.0
 43
0.0
 43
0.0
 43
0.0
 43
1.0
 43
0.0
 43
0.0
 43
0.0
 43
0.0
 43
1.0
 77
     0
 47
0.0208333333333333
 47
0.0
 47
0.0
 47
0.0
 47
0.0
 47
0.0208333333333333
 47
0.0
 47
0.0
 47
0.0
 47
0.0
 47
1.0
 47
0.0
 47
0.0
 47
0.0
 47
0.0
 47
1.0
171
     0
 49
0.0208333333333333
 49
0.0
 49
0.0
 49
0.0
 49
0.0
 49
0.0208333333333333
 49
0.0
 49
0.0
 49
0.0
 49
0.0
 49
1.0
 49
0.0
 49
0.0
 49
0.0
 49
0.0
 49
1.0
175
     0
142
0.0208333333333333
142
0.0
142
0.0
142
0.0
142
0.0
142
0.0208333333333333
142
0.0
142
0.0
142
0.0
142
0.0
142
1.0
142
0.0
142
0.0
142
0.0
142
0.0
142
1.0
179
     0
144
0.0208333333333333
144
0.0
144
0.0
144
0.0
144
0.0
144
0.0208333333333333
144
0.0
144
0.0
144
0.0
144
0.0
144
1.0
144
0.0
144
0.0
144
0.0
144
0.0
144
1.0
147
0.0208333333333333
147
0.0
147
0.0
147
0.0
147
0.0
147
0.0208333333333333
147
0.0
147
0.0
147
0.0
147
0.0
147
1.0
147
0.0
147
0.0
147
0.0
147
0.0
147
1.0
  0
MATERIAL
  5
AB
102
{ACAD_XDICTIONARY
360
AC
102
}
102
{ACAD_REACTORS
330
AA
102
}
330
AA
100
AcDbMaterial
  1
ByLayer
 72
     0
 43
0.0208333333333333
 43
0.0
 43
0.0
 43
0.0
 43
0.0
 43
0.0208333333333333
 43
0.0
 43
0.0
 43
0.0
 43
0.0
 43
1.0
 43
0.0
 43
0.0
 43
0.0
 43
0.0
 43
1.0
 77
     0
 47
0.0208333333333333
 47
0.0
 47
0.0
 47
0.0
 47
0.0
 47
0.0208333333333333
 47
0.0
 47
0.0
 47
0.0
 47
0.0
 47
1.0
 47
0.0
 47
0.0
 47
0.0
 47
0.0
 47
1.0
171
     0
 49
0.0208333333333333
 49
0.0
 49
0.0
 49
0.0
 49
0.0
 49
0.0208333333333333
 49
0.0
 49
0.0
 49
0.0
 49
0.0
 49
1.0
 49
0.0
 49
0.0
 49
0.0
 49
0.0
 49
1.0
175
     0
142
0.0208333333333333
142
0.0
142
0.0
142
0.0
142
0.0
142
0.0208333333333333
142
0.0
142
0.0
142
0.0
142
0.0
142
1.0
142
0.0
142
0.0
142
0.0
142
0.0
142
1.0
179
     0
144
0.0208333333333333
144
0.0
144
0.0
144
0.0
144
0.0
144
0.0208333333333333
144
0.0
144
0.0
144
0.0
144
0.0
144
1.0
144
0.0
144
0.0
144
0.0
144
0.0
144
1.0
147
0.0208333333333333
147
0.0
147
0.0
147
0.0
147
0.0
147
0.0208333333333333
147
0.0
147
0.0
147
0.0
147
0.0
147
1.0
147
0.0
147
0.0
147
0.0
147
0.0
147
1.0
  0
MATERIAL
  5
BB
102
{ACAD_XDICTIONARY
360
BC
102
}
102
{ACAD_REACTORS
330
AA
102
}
330
AA
100
AcDbMaterial
  1
Global
 72
     0
 43
0.0208333333333333
 43
0.0
 43
0.0
 43
0.0
 43
0.0
 43
0.0208333333333333
 43
0.0
 43
0.0
 43
0.0
 43
0.0
 43
1.0
 43
0.0
 43
0.0
 43
0.0
 43
0.0
 43
1.0
 77
     0
 47
0.0208333333333333
 47
0.0
 47
0.0
 47
0.0
 47
0.0
 47
0.0208333333333333
 47
0.0
 47
0.0
 47
0.0
 47
0.0
 47
1.0
 47
0.0
 47
0.0
 47
0.0
 47
0.0
 47
1.0
171
     0
 49
0.0208333333333333
 49
0.0
 49
0.0
 49
0.0
 49
0.0
 49
0.0208333333333333
 49
0.0
 49
0.0
 49
0.0
 49
0.0
 49
1.0
 49
0.0
 49
0.0
 49
0.0
 49
0.0
 49
1.0
175
     0
142
0.0208333333333333
142
0.0
142
0.0
142
0.0
142
0.0
142
0.0208333333333333
142
0.0
142
0.0
142
0.0
142
0.0
142
1.0
142
0.0
142
0.0
142
0.0
142
0.0
142
1.0
179
     0
144
0.0208333333333333
144
0.0
144
0.0
144
0.0
144
0.0
144
0.0208333333333333
144
0.0
144
0.0
144
0.0
144
0.0
144
1.0
144
0.0
144
0.0
144
0.0
144
0.0
144
1.0
147
0.0208333333333333
147
0.0
147
0.0
147
0.0
147
0.0
147
0.0208333333333333
147
0.0
147
0.0
147
0.0
147
0.0
147
1.0
147
0.0
147
0.0
147
0.0
147
0.0
147
1.0
  0
MLEADERSTYLE
  5
F2
102
{ACAD_XDICTIONARY
360
25B
102
}
102
{ACAD_REACTORS
330
F1
102
}
330
F1
100
AcDbMLeaderStyle
179
     2
170
     2
171
     1
172
     0
 90
        2
 40
0.0
 41
0.0
173
     1
 91
-1056964608
340
14
 92
       -2
290
     1
 42
0.09
291
     1
 43
0.36
  3
Standard
 44
0.18
300

342
11
174
     1
178
     6
175
     1
176
     0
 93
-1056964608
 45
0.18
292
     0
297
     0
 46
0.18
 94
-1056964608
 47
1.0
 49
1.0
140
1.0
293
     1
141
0.0
294
     1
177
     0
142
1.0
295
     0
296
     0
143
0.125
271
     0
272
     9
273
     9
  0
MLINESTYLE
  5
18
102
{ACAD_REACTORS
330
17
102
}
330
17
100
AcDbMlineStyle
  2
STANDARD
 70
     0
  3

 62
   256
 51
90.0
 52
90.0
 71
     2
 49
0.5
 62
   256
  6
BYLAYER
 49
-0.5
 62
   256
  6
BYLAYER
  0
ACDBPLACEHOLDER
  5
2D
102
{ACAD_REACTORS
330
E
102
}
330
E
  0
ACDBPLACEHOLDER
  5
F
102
{ACAD_REACTORS
330
E
102
}
330
E
  0
SCALE
  5
E0
102
{ACAD_REACTORS
330
DF
102
}
330
DF
100
AcDbScale
 70
     0
300
1:1
140
1.0
141
1.0
290
     1
  0
SCALE
  5
E1
102
{ACAD_REACTORS
330
DF
102
}
330
DF
100
AcDbScale
 70
     0
300
1/128" = 1'-0"
140
0.0078125
141
12.0
290
     0
  0
SCALE
  5
E2
102
{ACAD_REACTORS
330
DF
102
}
330
DF
100
AcDbScale
 70
     0
300
1/64" = 1'-0"
140
0.015625
141
12.0
290
     0
  0
SCALE
  5
E3
102
{ACAD_REACTORS
330
DF
102
}
330
DF
100
AcDbScale
 70
     0
300
1/32" = 1'-0"
140
0.03125
141
12.0
290
     0
  0
SCALE
  5
E4
102
{ACAD_REACTORS
330
DF
102
}
330
DF
100
AcDbScale
 70
     0
300
1/16" = 1'-0"
140
0.0625
141
12.0
290
     0
  0
SCALE
  5
E5
102
{ACAD_REACTORS
330
DF
102
}
330
DF
100
AcDbScale
 70
     0
300
3/32" = 1'-0"
140
0.09375
141
12.0
290
     0
  0
SCALE
  5
E6
102
{ACAD_REACTORS
330
DF
102
}
330
DF
100
AcDbScale
 70
     0
300
1/8" = 1'-0"
140
0.125
141
12.0
290
     0
  0
SCALE
  5
E7
102
{ACAD_REACTORS
330
DF
102
}
330
DF
100
AcDbScale
 70
     0
300
3/16" = 1'-0"
140
0.1875
141
12.0
290
     0
  0
SCALE
  5
E8
102
{ACAD_REACTORS
330
DF
102
}
330
DF
100
AcDbScale
 70
     0
300
1/4" = 1'-0"
140
0.25
141
12.0
290
     0
  0
SCALE
  5
E9
102
{ACAD_REACTORS
330
DF
102
}
330
DF
100
AcDbScale
 70
     0
300
3/8" = 1'-0"
140
0.375
141
12.0
290
     0
  0
SCALE
  5
EA
102
{ACAD_REACTORS
330
DF
102
}
330
DF
100
AcDbScale
 70
     0
300
1/2" = 1'-0"
140
0.5
141
12.0
290
     0
  0
SCALE
  5
EB
102
{ACAD_REACTORS
330
DF
102
}
330
DF
100
AcDbScale
 70
     0
300
3/4" = 1'-0"
140
0.75
141
12.0
290
     0
  0
SCALE
  5
EC
102
{ACAD_REACTORS
330
DF
102
}
330
DF
100
AcDbScale
 70
     0
300
1" = 1'-0"
140
1.0
141
12.0
290
     0
  0
SCALE
  5
ED
102
{ACAD_REACTORS
330
DF
102
}
330
DF
100
AcDbScale
 70
     0
300
1-1/2" = 1'-0"
140
1.5
141
12.0
290
     0
  0
SCALE
  5
EE
102
{ACAD_REACTORS
330
DF
102
}
330
DF
100
AcDbScale
 70
     0
300
3" = 1'-0"
140
3.0
141
12.0
290
     0
  0
SCALE
  5
EF
102
{ACAD_REACTORS
330
DF
102
}
330
DF
100
AcDbScale
 70
     0
300
6" = 1'-0"
140
6.0
141
12.0
290
     0
  0
SCALE
  5
F0
102
{ACAD_REACTORS
330
DF
102
}
330
DF
100
AcDbScale
 70
     0
300
1'-0" = 1'-0"
140
12.0
141
12.0
290
     0
  0
ACDBSECTIONVIEWSTYLE
  5
F4
102
{ACAD_XDICTIONARY
360
25D
102
}
102
{ACAD_REACTORS
330
F3
102
}
330
F3
100
AcDbModelDocViewStyle
 70
     0
  3
Imperial24
290
     0
100
AcDbSectionViewStyle
 70
     0
 71
     0
 90
       78
 71
     1
340
11
 62
   256
 40
0.24
340
0
340
0
 62
   256
 40
0.24
300
I, O, Q, S, X, Z
 40
0.48
 90
        3
 40
0.18
 90
        1
 71
     2
340
16
 90
       25
 62
   256
340
16
 90
       50
 62
   256
 40
0.24
 40
0.0
 40
0.24
 71
     3
340
11
 62
   256
 40
0.24
 90
        1
 40
0.75
 90
        1
300
%<\AcVar ViewType \f "%tc1">% %<\AcVar ViewSectionStartId>%-%<\AcVar ViewSectionEndId>%\PSCALE %<\AcVar ViewScale \f "%sn">%
 71
     4
 62
   256
 62
   257
300
ANSI31
 40
1.0
 90
        0
290
     0
290
     0
 90
        6
 40
0.0
 40
1.570796326794896
 40
0.2617993877991494
 40
1.308996938995747
 40
-0.2617993877991494
 40
1.832595714594046
  0
TABLESTYLE
  5
DE
102
{ACAD_XDICTIONARY
360
226
102
}
102
{ACAD_REACTORS
330
DD
102
}
330
DD
100
AcDbTableStyle
280
     0
  3
Standard
 70
     0
 71
     0
 40
0.06
 41
0.06
280
     0
281
     0
  7
Standard
140
0.18
170
     2
 62
     0
 63
     7
283
     0
 90
      512
 91
        0
  1

274
    -2
284
     1
 64
     0
275
    -2
285
     1
 65
     0
276
    -2
286
     1
 66
     0
277
    -2
287
     1
 67
     0
278
    -2
288
     1
 68
     0
279
    -2
289
     1
 69
     0
  7
Standard
140
0.25
170
     5
 62
     0
 63
     7
283
     0
 90
      512
 91
        0
  1

274
    -2
284
     1
 64
     0
275
    -2
285
     1
 65
     0
276
    -2
286
     1
 66
     0
277
    -2
287
     1
 67
     0
278
    -2
288
     1
 68
     0
279
    -2
289
     1
 69
     0
  7
Standard
140
0.18
170
     5
 62
     0
 63
     7
283
     0
 90
      512
 91
        0
  1

274
    -2
284
     1
 64
     0
275
    -2
285
     1
 65
     0
276
    -2
286
     1
 66
     0
277
    -2
287
     1
 67
     0
278
    -2
288
     1
 68
     0
279
    -2
289
     1
 69
     0
  0
VISUALSTYLE
  5
C9
102
{ACAD_XDICTIONARY
360
235
102
}
102
{ACAD_REACTORS
330
C3
102
}
330
C3
100
AcDbVisualStyle
  2
2dWireframe
 70
     4
177
     2
291
     0
 71
     0
176
     1
 72
     2
176
     1
 73
     0
176
     1
 90
        0
176
     1
 40
0.6
176
     1
 41
30.0
176
     1
 63
     7
421
 16777215
176
     1
 74
     1
176
     1
 91
        4
176
     1
 64
     7
176
     1
 65
   257
176
     1
 75
     1
176
     1
175
     1
176
     1
 42
1.0
176
     1
 92
        0
176
     1
 66
   257
176
     1
 43
1.0
176
     1
 76
     1
176
     1
 77
     6
176
     1
 78
     2
176
     1
 67
     7
176
     1
 79
     5
176
     1
170
     0
176
     1
171
     0
176
     1
290
     0
176
     1
 93
        1
176
     1
 44
0.0
176
     1
173
     0
176
     1
1001
ACAD
1000
AcDbSavedByObjectVersion
1070
     0
  0
VISUALSTYLE
  5
C8
102
{ACAD_XDICTIONARY
360
233
102
}
102
{ACAD_REACTORS
330
C3
102
}
330
C3
100
AcDbVisualStyle
  2
Basic
 70
     7
177
     2
291
     1
 71
     1
176
     1
 72
     0
176
     1
 73
     1
176
     1
 90
        0
176
     1
 40
0.6
176
     1
 41
30.0
176
     1
 63
     7
421
 16777215
176
     1
 74
     0
176
     1
 91
        4
176
     1
 64
     7
176
     1
 65
   257
176
     1
 75
     1
176
     1
175
     1
176
     1
 42
1.0
176
     1
 92
        8
176
     1
 66
     7
176
     1
 43
1.0
176
     1
 76
     1
176
     1
 77
     6
176
     1
 78
     2
176
     1
 67
     7
176
     1
 79
     5
176
     1
170
     0
176
     1
171
     0
176
     1
290
     0
176
     1
 93
        1
176
     1
 44
0.0
176
     1
173
     0
176
     1
1001
ACAD
1000
AcDbSavedByObjectVersion
1070
     0
  0
VISUALSTYLE
  5
CF
102
{ACAD_XDICTIONARY
360
241
102
}
102
{ACAD_REACTORS
330
C3
102
}
330
C3
100
AcDbVisualStyle
  2
Brighten
 70
    12
177
     2
291
     1
 71
     2
176
     1
 72
     2
176
     1
 73
     0
176
     1
 90
        0
176
     1
 40
0.6
176
     1
 41
30.0
176
     1
 63
     7
421
 16777215
176
     1
 74
     1
176
     1
 91
        4
176
     1
 64
     7
176
     1
 65
   257
176
     1
 75
     1
176
     1
175
     1
176
     1
 42
1.0
176
     1
 92
        8
176
     1
 66
     7
176
     1
 43
1.0
176
     1
 76
     1
176
     1
 77
     6
176
     1
 78
     2
176
     1
 67
     7
176
     1
 79
     5
176
     1
170
     0
176
     1
171
     0
176
     1
290
     0
176
     1
 93
        1
176
     1
 44
50.0
176
     1
173
     0
176
     1
1001
ACAD
1000
AcDbSavedByObjectVersion
1070
     0
  0
VISUALSTYLE
  5
D3
102
{ACAD_XDICTIONARY
360
249
102
}
102
{ACAD_REACTORS
330
C3
102
}
330
C3
100
AcDbVisualStyle
  2
ColorChange
 70
    16
177
     2
291
     1
 71
     2
176
     1
 72
     2
176
     1
 73
     3
176
     1
 90
        0
176
     1
 40
0.6
176
     1
 41
30.0
176
     1
 63
     8
421
  8421504
176
     1
 74
     1
176
     1
 91
        4
176
     1
 64
     7
176
     1
 65
   257
176
     1
 75
     1
176
     1
175
     1
176
     1
 42
1.0
176
     1
 92
        8
176
     1
 66
     8
424
  8421504
176
     1
 43
1.0
176
     1
 76
     1
176
     1
 77
     6
176
     1
 78
     2
176
     1
 67
     7
176
     1
 79
     5
176
     1
170
     0
176
     1
171
     0
176
     1
290
     0
176
     1
 93
        1
176
     1
 44
0.0
176
     1
173
     0
176
     1
1001
ACAD
1000
AcDbSavedByObjectVersion
1070
     0
  0
VISUALSTYLE
  5
CC
102
{ACAD_XDICTIONARY
360
23B
102
}
102
{ACAD_REACTORS
330
C3
102
}
330
C3
100
AcDbVisualStyle
  2
Conceptual
 70
     9
177
     2
291
     0
 71
     3
176
     1
 72
     2
176
     1
 73
     0
176
     1
 90
        0
176
     1
 40
0.6
176
     1
 41
30.0
176
     1
 63
     7
421
 16777215
176
     1
 74
     2
176
     1
 91
        2
176
     1
 64
     7
176
     1
 65
   257
176
     1
 75
     1
176
     1
175
     1
176
     1
 42
179.0
176
     1
 92
        8
176
     1
 66
     7
176
     1
 43
1.0
176
     1
 76
     1
176
     1
 77
     6
176
     1
 78
     2
176
     1
 67
     7
176
     1
 79
     3
176
     1
170
     0
176
     1
171
     0
176
     1
290
     0
176
     1
 93
        1
176
     1
 44
0.0
176
     1
173
     0
176
     1
1001
ACAD
1000
AcDbSavedByObjectVersion
1070
     0
  0
VISUALSTYLE
  5
CE
102
{ACAD_XDICTIONARY
360
23F
102
}
102
{ACAD_REACTORS
330
C3
102
}
330
C3
100
AcDbVisualStyle
  2
Dim
 70
    11
177
     2
291
     1
 71
     2
176
     1
 72
     2
176
     1
 73
     0
176
     1
 90
        0
176
     1
 40
0.6
176
     1
 41
30.0
176
     1
 63
     7
421
 16777215
176
     1
 74
     1
176
     1
 91
        4
176
     1
 64
     7
176
     1
 65
   257
176
     1
 75
     1
176
     1
175
     1
176
     1
 42
1.0
176
     1
 92
        8
176
     1
 66
     7
176
     1
 43
1.0
176
     1
 76
     1
176
     1
 77
     6
176
     1
 78
     2
176
     1
 67
     7
176
     1
 79
     5
176
     1
170
     0
176
     1
171
     0
176
     1
290
     0
176
     1
 93
        1
176
     1
 44
-50.0
176
     1
173
     0
176
     1
1001
ACAD
1000
AcDbSavedByObjectVersion
1070
     0
  0
VISUALSTYLE
  5
DB
102
{ACAD_XDICTIONARY
360
259
102
}
102
{ACAD_REACTORS
330
C3
102
}
330
C3
100
AcDbVisualStyle
  2
EdgeColorOff
 70
    22
177
     2
291
     1
 71
     2
176
     0
 72
     2
176
     0
 73
     0
176
     0
 90
        0
176
     0
 40
0.6
176
     0
 41
30.0
176
     0
 63
     7
421
 16777215
176
     0
 74
     1
176
     0
 91
        4
176
     0
 64
     7
176
     0
 65
   257
176
     0
 75
     1
176
     0
175
     1
176
     0
 42
1.0
176
     0
 92
        8
176
     2
 66
     7
176
     0
 43
1.0
176
     0
 76
     1
176
     0
 77
     6
176
     0
 78
     2
176
     0
 67
     7
176
     0
 79
     5
176
     0
170
     0
176
     0
171
     0
176
     0
290
     0
176
     0
 93
        1
176
     0
 44
0.0
176
     0
173
     0
176
     0
1001
ACAD
1000
AcDbSavedByObjectVersion
1070
     0
  0
VISUALSTYLE
  5
D2
102
{ACAD_XDICTIONARY
360
247
102
}
102
{ACAD_REACTORS
330
C3
102
}
330
C3
100
AcDbVisualStyle
  2
Facepattern
 70
    15
177
     2
291
     1
 71
     2
176
     1
 72
     2
176
     1
 73
     0
176
     1
 90
        0
176
     1
 40
0.6
176
     1
 41
30.0
176
     1
 63
     7
421
 16777215
176
     1
 74
     1
176
     1
 91
        4
176
     1
 64
     7
176
     1
 65
   257
176
     1
 75
     1
176
     1
175
     1
176
     1
 42
1.0
176
     1
 92
        8
176
     1
 66
     7
176
     1
 43
1.0
176
     1
 76
     1
176
     1
 77
     6
176
     1
 78
     2
176
     1
 67
     7
176
     1
 79
     5
176
     1
170
     0
176
     1
171
     0
176
     1
290
     0
176
     1
 93
        1
176
     1
 44
0.0
176
     1
173
     0
176
     1
1001
ACAD
1000
AcDbSavedByObjectVersion
1070
     0
  0
VISUALSTYLE
  5
C4
102
{ACAD_XDICTIONARY
360
22B
102
}
102
{ACAD_REACTORS
330
C3
102
}
330
C3
100
AcDbVisualStyle
  2
Flat
 70
     0
177
     2
291
     1
 71
     2
176
     1
 72
     1
176
     1
 73
     1
176
     1
 90
        2
176
     1
 40
0.6
176
     1
 41
30.0
176
     1
 63
     7
421
 16777215
176
     1
 74
     0
176
     1
 91
        0
176
     1
 64
     7
176
     1
 65
   257
176
     1
 75
     1
176
     1
175
     1
176
     1
 42
1.0
176
     1
 92
        8
176
     1
 66
     7
176
     1
 43
1.0
176
     1
 76
     1
176
     1
 77
     6
176
     1
 78
     2
176
     1
 67
     7
176
     1
 79
     5
176
     1
170
     0
176
     1
171
     0
176
     1
290
     0
176
     1
 93
       13
176
     1
 44
0.0
176
     1
173
     0
176
     1
1001
ACAD
1000
AcDbSavedByObjectVersion
1070
     0
  0
VISUALSTYLE
  5
C5
102
{ACAD_XDICTIONARY
360
22D
102
}
102
{ACAD_REACTORS
330
C3
102
}
330
C3
100
AcDbVisualStyle
  2
FlatWithEdges
 70
     1
177
     2
291
     1
 71
     2
176
     1
 72
     1
176
     1
 73
     1
176
     1
 90
        2
176
     1
 40
0.6
176
     1
 41
30.0
176
     1
 63
     7
421
 16777215
176
     1
 74
     1
176
     1
 91
        0
176
     1
 64
     7
176
     1
 65
   257
176
     1
 75
     1
176
     1
175
     1
176
     1
 42
1.0
176
     1
 92
        0
176
     1
 66
   257
176
     1
 43
1.0
176
     1
 76
     1
176
     1
 77
     6
176
     1
 78
     2
176
     1
 67
     7
176
     1
 79
     5
176
     1
170
     0
176
     1
171
     0
176
     1
290
     0
176
     1
 93
       13
176
     1
 44
0.0
176
     1
173
     0
176
     1
1001
ACAD
1000
AcDbSavedByObjectVersion
1070
     0
  0
VISUALSTYLE
  5
C6
102
{ACAD_XDICTIONARY
360
22F
102
}
102
{ACAD_REACTORS
330
C3
102
}
330
C3
100
AcDbVisualStyle
  2
Gouraud
 70
     2
177
     2
291
     1
 71
     2
176
     1
 72
     2
176
     1
 73
     1
176
     1
 90
        2
176
     1
 40
0.6
176
     1
 41
30.0
176
     1
 63
     7
421
 16777215
176
     1
 74
     0
176
     1
 91
        0
176
     1
 64
     7
176
     1
 65
   257
176
     1
 75
     1
176
     1
175
     1
176
     1
 42
1.0
176
     1
 92
        0
176
     1
 66
     7
176
     1
 43
1.0
176
     1
 76
     1
176
     1
 77
     6
176
     1
 78
     2
176
     1
 67
     7
176
     1
 79
     5
176
     1
170
     0
176
     1
171
     0
176
     1
290
     0
176
     1
 93
       13
176
     1
 44
0.0
176
     1
173
     0
176
     1
1001
ACAD
1000
AcDbSavedByObjectVersion
1070
     0
  0
VISUALSTYLE
  5
C7
102
{ACAD_XDICTIONARY
360
231
102
}
102
{ACAD_REACTORS
330
C3
102
}
330
C3
100
AcDbVisualStyle
  2
GouraudWithEdges
 70
     3
177
     2
291
     1
 71
     2
176
     1
 72
     2
176
     1
 73
     1
176
     1
 90
        2
176
     1
 40
0.6
176
     1
 41
30.0
176
     1
 63
     7
421
 16777215
176
     1
 74
     1
176
     1
 91
        0
176
     1
 64
     7
176
     1
 65
   257
176
     1
 75
     1
176
     1
175
     1
176
     1
 42
1.0
176
     1
 92
        0
176
     1
 66
   257
176
     1
 43
1.0
176
     1
 76
     1
176
     1
 77
     6
176
     1
 78
     2
176
     1
 67
     7
176
     1
 79
     5
176
     1
170
     0
176
     1
171
     0
176
     1
290
     0
176
     1
 93
       13
176
     1
 44
0.0
176
     1
173
     0
176
     1
1001
ACAD
1000
AcDbSavedByObjectVersion
1070
     0
  0
VISUALSTYLE
  5
CB
102
{ACAD_XDICTIONARY
360
239
102
}
102
{ACAD_REACTORS
330
C3
102
}
330
C3
100
AcDbVisualStyle
  2
Hidden
 70
     6
177
     2
291
     0
 71
     1
176
     1
 72
     2
176
     1
 73
     2
176
     1
 90
        0
176
     1
 40
0.6
176
     1
 41
30.0
176
     1
 63
     7
421
 16777215
176
     1
 74
     2
176
     1
 91
        2
176
     1
 64
     7
176
     1
 65
   257
176
     1
 75
     2
176
     1
175
     1
176
     1
 42
40.0
176
     1
 92
        0
176
     1
 66
   257
176
     1
 43
1.0
176
     1
 76
     1
176
     1
 77
     6
176
     1
 78
     2
176
     1
 67
     7
176
     1
 79
     3
176
     1
170
     0
176
     1
171
     0
176
     1
290
     0
176
     1
 93
        1
176
     1
 44
0.0
176
     1
173
     0
176
     1
1001
ACAD
1000
AcDbSavedByObjectVersion
1070
     0
  0
VISUALSTYLE
  5
D9
102
{ACAD_XDICTIONARY
360
255
102
}
102
{ACAD_REACTORS
330
C3
102
}
330
C3
100
AcDbVisualStyle
  2
JitterOff
 70
    20
177
     2
291
     1
 71
     2
176
     0
 72
     2
176
     0
 73
     0
176
     0
 90
        0
176
     0
 40
0.6
176
     0
 41
30.0
176
     0
 63
     7
421
 16777215
176
     0
 74
     1
176
     0
 91
        4
176
     0
 64
     7
176
     0
 65
   257
176
     0
 75
     1
176
     0
175
     1
176
     0
 42
1.0
176
     0
 92
       10
176
     2
 66
     7
176
     0
 43
1.0
176
     0
 76
     1
176
     0
 77
     6
176
     0
 78
     2
176
     0
 67
     7
176
     0
 79
     5
176
     0
170
     0
176
     0
171
     0
176
     0
290
     0
176
     0
 93
        1
176
     0
 44
0.0
176
     0
173
     0
176
     0
1001
ACAD
1000
AcDbSavedByObjectVersion
1070
     0
  0
VISUALSTYLE
  5
D1
102
{ACAD_XDICTIONARY
360
245
102
}
102
{ACAD_REACTORS
330
C3
102
}
330
C3
100
AcDbVisualStyle
  2
Linepattern
 70
    14
177
     2
291
     1
 71
     2
176
     1
 72
     2
176
     1
 73
     0
176
     1
 90
        0
176
     1
 40
0.6
176
     1
 41
30.0
176
     1
 63
     7
421
 16777215
176
     1
 74
     1
176
     1
 91
        4
176
     1
 64
     7
176
     1
 65
   257
176
     1
 75
     7
176
     1
175
     7
176
     1
 42
1.0
176
     1
 92
        8
176
     1
 66
     7
176
     1
 43
1.0
176
     1
 76
     1
176
     1
 77
     6
176
     1
 78
     2
176
     1
 67
     7
176
     1
 79
     5
176
     1
170
     0
176
     1
171
     0
176
     1
290
     0
176
     1
 93
        1
176
     1
 44
0.0
176
     1
173
     0
176
     1
1001
ACAD
1000
AcDbSavedByObjectVersion
1070
     0
  0
VISUALSTYLE
  5
DA
102
{ACAD_XDICTIONARY
360
257
102
}
102
{ACAD_REACTORS
330
C3
102
}
330
C3
100
AcDbVisualStyle
  2
OverhangOff
 70
    21
177
     2
291
     1
 71
     2
176
     0
 72
     2
176
     0
 73
     0
176
     0
 90
        0
176
     0
 40
0.6
176
     0
 41
30.0
176
     0
 63
     7
421
 16777215
176
     0
 74
     1
176
     0
 91
        4
176
     0
 64
     7
176
     0
 65
   257
176
     0
 75
     1
176
     0
175
     1
176
     0
 42
1.0
176
     0
 92
        9
176
     2
 66
     7
176
     0
 43
1.0
176
     0
 76
     1
176
     0
 77
     6
176
     0
 78
     2
176
     0
 67
     7
176
     0
 79
     5
176
     0
170
     0
176
     0
171
     0
176
     0
290
     0
176
     0
 93
        1
176
     0
 44
0.0
176
     0
173
     0
176
     0
1001
ACAD
1000
AcDbSavedByObjectVersion
1070
     0
  0
VISUALSTYLE
  5
CD
102
{ACAD_XDICTIONARY
360
23D
102
}
102
{ACAD_REACTORS
330
C3
102
}
330
C3
100
AcDbVisualStyle
  2
Realistic
 70
     8
177
     2
291
     0
 71
     2
176
     1
 72
     3
176
     1
 73
     0
176
     1
 90
        2
176
     1
 40
0.6
176
     1
 41
30.0
176
     1
 63
     7
421
 16777215
176
     1
 74
     0
176
     1
 91
        0
176
     1
 64
     7
176
     1
 65
   257
176
     1
 75
     1
176
     1
175
     1
176
     1
 42
1.0
176
     1
 92
        8
176
     1
 66
   257
176
     1
 43
1.0
176
     1
 76
     1
176
     1
 77
     6
176
     1
 78
     2
176
     1
 67
     7
176
     1
 79
     3
176
     1
170
     0
176
     1
171
     0
176
     1
290
     0
176
     1
 93
       13
176
     1
 44
0.0
176
     1
173
     0
176
     1
1001
ACAD
1000
AcDbSavedByObjectVersion
1070
     0
  0
VISUALSTYLE
  5
D8
102
{ACAD_XDICTIONARY
360
253
102
}
102
{ACAD_REACTORS
330
C3
102
}
330
C3
100
AcDbVisualStyle
  2
Shaded
 70
    27
177
     2
291
     0
 71
     2
176
     1
 72
     2
176
     1
 73
     1
176
     1
 90
        2
176
     1
 40
0.6
176
     1
 41
30.0
176
     1
 63
     7
421
 16777215
176
     1
 74
     0
176
     1
 91
        4
176
     1
 64
     7
176
     1
 65
   257
176
     1
 75
     1
176
     1
175
     1
176
     1
 42
1.0
176
     1
 92
        8
176
     1
 66
   257
176
     1
 43
1.0
176
     1
 76
     1
176
     1
 77
     6
176
     1
 78
     2
176
     1
 67
     8
425
  7895160
176
     1
 79
     3
176
     1
170
     0
176
     1
171
     0
176
     1
290
     0
176
     1
 93
        5
176
     1
 44
0.0
176
     1
173
     0
176
     1
1001
ACAD
1000
AcDbSavedByObjectVersion
1070
     0
  0
VISUALSTYLE
  5
D7
102
{ACAD_XDICTIONARY
360
251
102
}
102
{ACAD_REACTORS
330
C3
102
}
330
C3
100
AcDbVisualStyle
  2
Shaded with edges
 70
    26
177
     2
291
     0
 71
     2
176
     1
 72
     2
176
     1
 73
     1
176
     1
 90
        2
176
     1
 40
0.6
176
     1
 41
30.0
176
     1
 63
     7
421
 16777215
176
     1
 74
     1
176
     1
 91
       10
176
     1
 64
     7
176
     1
 65
   257
176
     1
 75
     2
176
     1
175
     1
176
     1
 42
1.0
176
     1
 92
        8
176
     1
 66
   257
176
     1
 43
1.0
176
     1
 76
     1
176
     1
 77
     6
176
     1
 78
     2
176
     1
 67
     7
176
     1
 79
     3
176
     1
170
     0
176
     1
171
     0
176
     1
290
     0
176
     1
 93
        5
176
     1
 44
0.0
176
     1
173
     0
176
     1
1001
ACAD
1000
AcDbSavedByObjectVersion
1070
     0
  0
VISUALSTYLE
  5
D4
102
{ACAD_XDICTIONARY
360
24B
102
}
102
{ACAD_REACTORS
330
C3
102
}
330
C3
100
AcDbVisualStyle
  2
Shades of Gray
 70
    23
177
     2
291
     0
 71
     2
176
     1
 72
     2
176
     1
 73
     3
176
     1
 90
        0
176
     1
 40
0.6
176
     1
 41
30.0
176
     1
 63
     7
421
 16777215
176
     1
 74
     2
176
     1
 91
        2
176
     1
 64
     7
176
     1
 65
     7
176
     1
 75
     1
176
     1
175
     1
176
     1
 42
40.0
176
     1
 92
        8
176
     1
 66
     7
176
     1
 43
1.0
176
     1
 76
     1
176
     1
 77
     6
176
     1
 78
     2
176
     1
 67
     7
176
     1
 79
     3
176
     1
170
     0
176
     1
171
     0
176
     1
290
     0
176
     1
 93
        1
176
     1
 44
0.0
176
     1
173
     0
176
     1
1001
ACAD
1000
AcDbSavedByObjectVersion
1070
     0
  0
VISUALSTYLE
  5
D5
102
{ACAD_XDICTIONARY
360
24D
102
}
102
{ACAD_REACTORS
330
C3
102
}
330
C3
100
AcDbVisualStyle
  2
Sketchy
 70
    24
177
     2
291
     0
 71
     1
176
     1
 72
     2
176
     1
 73
     2
176
     1
 90
        0
176
     1
 40
0.6
176
     1
 41
30.0
176
     1
 63
     7
421
 16777215
176
     1
 74
     2
176
     1
 91
        2
176
     1
 64
     7
176
     1
 65
     7
176
     1
 75
     1
176
     1
175
     1
176
     1
 42
40.0
176
     1
 92
       11
176
     1
 66
     7
176
     1
 43
1.0
176
     1
 76
     1
176
     1
 77
     6
176
     1
 78
     2
176
     1
 67
     7
176
     1
 79
     6
176
     1
170
     0
176
     1
171
     0
176
     1
290
     0
176
     1
 93
        1
176
     1
 44
0.0
176
     1
173
     0
176
     1
1001
ACAD
1000
AcDbSavedByObjectVersion
1070
     0
  0
VISUALSTYLE
  5
D0
102
{ACAD_XDICTIONARY
360
243
102
}
102
{ACAD_REACTORS
330
C3
102
}
330
C3
100
AcDbVisualStyle
  2
Thicken
 70
    13
177
     2
291
     1
 71
     2
176
     1
 72
     2
176
     1
 73
     0
176
     1
 90
        0
176
     1
 40
0.6
176
     1
 41
30.0
176
     1
 63
     7
421
 16777215
176
     1
 74
     1
176
     1
 91
        4
176
     1
 64
     7
176
     1
 65
   257
176
     1
 75
     1
176
     1
175
     1
176
     1
 42
1.0
176
     1
 92
       12
176
     1
 66
     7
176
     1
 43
1.0
176
     1
 76
     1
176
     1
 77
     6
176
     1
 78
     2
176
     1
 67
     7
176
     1
 79
     5
176
     1
170
     0
176
     1
171
     0
176
     1
290
     0
176
     1
 93
        1
176
     1
 44
0.0
176
     1
173
     0
176
     1
1001
ACAD
1000
AcDbSavedByObjectVersion
1070
     0
  0
VISUALSTYLE
  5
CA
102
{ACAD_XDICTIONARY
360
237
102
}
102
{ACAD_REACTORS
330
C3
102
}
330
C3
100
AcDbVisualStyle
  2
Wireframe
 70
     5
177
     2
291
     0
 71
     0
176
     1
 72
     2
176
     1
 73
     0
176
     1
 90
        0
176
     1
 40
0.6
176
     1
 41
30.0
176
     1
 63
     7
421
 16777215
176
     1
 74
     1
176
     1
 91
        4
176
     1
 64
     7
176
     1
 65
   257
176
     1
 75
     1
176
     1
175
     1
176
     1
 42
1.0
176
     1
 92
        0
176
     1
 66
   257
176
     1
 43
1.0
176
     1
 76
     1
176
     1
 77
     6
176
     1
 78
     2
176
     1
 67
     7
176
     1
 79
     3
176
     1
170
     0
176
     1
171
     0
176
     1
290
     0
176
     1
 93
        1
176
     1
 44
0.0
176
     1
173
     0
176
     1
1001
ACAD
1000
AcDbSavedByObjectVersion
1070
     0
  0
VISUALSTYLE
  5
D6
102
{ACAD_XDICTIONARY
360
24F
102
}
102
{ACAD_REACTORS
330
C3
102
}
330
C3
100
AcDbVisualStyle
  2
X-Ray
 70
    25
177
     2
291
     0
 71
     2
176
     1
 72
     2
176
     1
 73
     1
176
     1
 90
        1
176
     1
 40
0.5
176
     1
 41
30.0
176
     1
 63
     7
421
 16777215
176
     1
 74
     1
176
     1
 91
        0
176
     1
 64
     7
176
     1
 65
   257
176
     1
 75
     1
176
     1
175
     1
176
     1
 42
1.0
176
     1
 92
        8
176
     1
 66
     7
176
     1
 43
1.0
176
     1
 76
     1
176
     1
 77
     6
176
     1
 78
     2
176
     1
 67
     7
176
     1
 79
     3
176
     1
170
     0
176
     1
171
     0
176
     1
290
     0
176
     1
 93
       13
176
     1
 44
0.0
176
     1
173
     0
176
     1
1001
ACAD
1000
AcDbSavedByObjectVersion
1070
     0
  0
DICTIONARYVAR
  5
222
102
{ACAD_REACTORS
330
21C
102
}
330
21C
100
DictionaryVariables
280
     0
  1
1:1
  0
DICTIONARYVAR
  5
21E
102
{ACAD_REACTORS
330
21C
102
}
330
21C
100
DictionaryVariables
280
     0
  1
STANDARD
  0
DICTIONARYVAR
  5
21D
102
{ACAD_REACTORS
330
21C
102
}
330
21C
100
DictionaryVariables
280
     0
  1
STANDARD
  0
DICTIONARYVAR
  5
21F
102
{ACAD_REACTORS
330
21C
102
}
330
21C
100
DictionaryVariables
280
     0
  1
Imperial24
  0
DICTIONARYVAR
  5
220
102
{ACAD_REACTORS
330
21C
102
}
330
21C
100
DictionaryVariables
280
     0
  1
Imperial24
  0
DICTIONARYVAR
  5
224
102
{ACAD_REACTORS
330
21C
102
}
330
21C
100
DictionaryVariables
280
     0
  1
1
  0
DICTIONARYVAR
  5
225
102
{ACAD_REACTORS
330
21C
102
}
330
21C
100
DictionaryVariables
280
     0
  1
15
  0
DICTIONARYVAR
  5
223
102
{ACAD_REACTORS
330
21C
102
}
330
21C
100
DictionaryVariables
280
     0
  1
0
  0
DICTIONARYVAR
  5
221
102
{ACAD_REACTORS
330
21C
102
}
330
21C
100
DictionaryVariables
280
     0
  1
0
  0
DICTIONARY
  5
25F
330
F6
100
AcDbDictionary
280
     1
281
     1
  3
ACAD_XREC_ROUNDTRIP
360
260
  0
DICTIONARY
  5
B4
330
B3
100
AcDbDictionary
280
     1
281
     1
  3
BUMPTILE
360
B6
  3
DIFFUSETILE
360
B5
  3
OPACITYTILE
360
B9
  3
REFLECTIONTILE
360
B8
  3
REFRACTIONTILE
360
BA
  3
SPECULARTILE
360
B7
  0
DICTIONARY
  5
AC
330
AB
100
AcDbDictionary
280
     1
281
     1
  3
BUMPTILE
360
AE
  3
DIFFUSETILE
360
AD
  3
OPACITYTILE
360
B1
  3
REFLECTIONTILE
360
B0
  3
REFRACTIONTILE
360
B2
  3
SPECULARTILE
360
AF
  0
DICTIONARY
  5
BC
330
BB
100
AcDbDictionary
280
     1
281
     1
  3
BUMPTILE
360
BE
  3
DIFFUSETILE
360
BD
  3
OPACITYTILE
360
C1
  3
REFLECTIONTILE
360
C0
  3
REFRACTIONTILE
360
C2
  3
SPECULARTILE
360
BF
  0
DICTIONARY
  5
25B
330
F2
100
AcDbDictionary
280
     1
281
     1
  3
ACAD_XREC_ROUNDTRIP
360
25C
  0
DICTIONARY
  5
25D
330
F4
100
AcDbDictionary
280
     1
281
     1
  3
ACAD_XREC_ROUNDTRIP
360
25E
  0
DICTIONARY
  5
226
330
DE
100
AcDbDictionary
280
     1
281
     1
  3
ACAD_ROUNDTRIP_2008_TABLESTYLE_CELLSTYLEMAP
360
227
  0
DICTIONARY
  5
235
330
C9
100
AcDbDictionary
280
     1
281
     1
  3
ACAD_XREC_ROUNDTRIP
360
236
  0
DICTIONARY
  5
233
330
C8
100
AcDbDictionary
280
     1
281
     1
  3
ACAD_XREC_ROUNDTRIP
360
234
  0
DICTIONARY
  5
241
330
CF
100
AcDbDictionary
280
     1
281
     1
  3
ACAD_XREC_ROUNDTRIP
360
242
  0
DICTIONARY
  5
249
330
D3
100
AcDbDictionary
280
     1
281
     1
  3
ACAD_XREC_ROUNDTRIP
360
24A
  0
DICTIONARY
  5
23B
330
CC
100
AcDbDictionary
280
     1
281
     1
  3
ACAD_XREC_ROUNDTRIP
360
23C
  0
DICTIONARY
  5
23F
330
CE
100
AcDbDictionary
280
     1
281
     1
  3
ACAD_XREC_ROUNDTRIP
360
240
  0
DICTIONARY
  5
259
330
DB
100
AcDbDictionary
280
     1
281
     1
  3
ACAD_XREC_ROUNDTRIP
360
25A
  0
DICTIONARY
  5
247
330
D2
100
AcDbDictionary
280
     1
281
     1
  3
ACAD_XREC_ROUNDTRIP
360
248
  0
DICTIONARY
  5
22B
330
C4
100
AcDbDictionary
280
     1
281
     1
  3
ACAD_XREC_ROUNDTRIP
360
22C
  0
DICTIONARY
  5
22D
330
C5
100
AcDbDictionary
280
     1
281
     1
  3
ACAD_XREC_ROUNDTRIP
360
22E
  0
DICTIONARY
  5
22F
330
C6
100
AcDbDictionary
280
     1
281
     1
  3
ACAD_XREC_ROUNDTRIP
360
230
  0
DICTIONARY
  5
231
330
C7
100
AcDbDictionary
280
     1
281
     1
  3
ACAD_XREC_ROUNDTRIP
360
232
  0
DICTIONARY
  5
239
330
CB
100
AcDbDictionary
280
     1
281
     1
  3
ACAD_XREC_ROUNDTRIP
360
23A
  0
DICTIONARY
  5
255
330
D9
100
AcDbDictionary
280
     1
281
     1
  3
ACAD_XREC_ROUNDTRIP
360
256
  0
DICTIONARY
  5
245
330
D1
100
AcDbDictionary
280
     1
281
     1
  3
ACAD_XREC_ROUNDTRIP
360
246
  0
DICTIONARY
  5
257
330
DA
100
AcDbDictionary
280
     1
281
     1
  3
ACAD_XREC_ROUNDTRIP
360
258
  0
DICTIONARY
  5
23D
330
CD
100
AcDbDictionary
280
     1
281
     1
  3
ACAD_XREC_ROUNDTRIP
360
23E
  0
DICTIONARY
  5
253
330
D8
100
AcDbDictionary
280
     1
281
     1
  3
ACAD_XREC_ROUNDTRIP
360
254
  0
DICTIONARY
  5
251
330
D7
100
AcDbDictionary
280
     1
281
     1
  3
ACAD_XREC_ROUNDTRIP
360
252
  0
DICTIONARY
  5
24B
330
D4
100
AcDbDictionary
280
     1
281
     1
  3
ACAD_XREC_ROUNDTRIP
360
24C
  0
DICTIONARY
  5
24D
330
D5
100
AcDbDictionary
280
     1
281
     1
  3
ACAD_XREC_ROUNDTRIP
360
24E
  0
DICTIONARY
  5
243
330
D0
100
AcDbDictionary
280
     1
281
     1
  3
ACAD_XREC_ROUNDTRIP
360
244
  0
DICTIONARY
  5
237
330
CA
100
AcDbDictionary
280
     1
281
     1
  3
ACAD_XREC_ROUNDTRIP
360
238
  0
DICTIONARY
  5
24F
330
D6
100
AcDbDictionary
280
     1
281
     1
  3
ACAD_XREC_ROUNDTRIP
360
250
  0
XRECORD
  5
260
102
{ACAD_REACTORS
330
25F
102
}
330
25F
100
AcDbXrecord
280
     1
102
DISPLAYNAME
  1
Imperial24
102
FLAGS
 90
        0
  0
XRECORD
  5
B6
102
{ACAD_REACTORS
330
B4
102
}
330
B4
100
AcDbXrecord
280
     1
270
     1
271
     1
  0
XRECORD
  5
B5
102
{ACAD_REACTORS
330
B4
102
}
330
B4
100
AcDbXrecord
280
     1
270
     1
271
     1
  0
XRECORD
  5
B9
102
{ACAD_REACTORS
330
B4
102
}
330
B4
100
AcDbXrecord
280
     1
270
     1
271
     1
  0
XRECORD
  5
B8
102
{ACAD_REACTORS
330
B4
102
}
330
B4
100
AcDbXrecord
280
     1
270
     1
271
     1
  0
XRECORD
  5
BA
102
{ACAD_REACTORS
330
B4
102
}
330
B4
100
AcDbXrecord
280
     1
270
     1
271
     1
  0
XRECORD
  5
B7
102
{ACAD_REACTORS
330
B4
102
}
330
B4
100
AcDbXrecord
280
     1
270
     1
271
     1
  0
XRECORD
  5
AE
102
{ACAD_REACTORS
330
AC
102
}
330
AC
100
AcDbXrecord
280
     1
270
     1
271
     1
  0
XRECORD
  5
AD
102
{ACAD_REACTORS
330
AC
102
}
330
AC
100
AcDbXrecord
280
     1
270
     1
271
     1
  0
XRECORD
  5
B1
102
{ACAD_REACTORS
330
AC
102
}
330
AC
100
AcDbXrecord
280
     1
270
     1
271
     1
  0
XRECORD
  5
B0
102
{ACAD_REACTORS
330
AC
102
}
330
AC
100
AcDbXrecord
280
     1
270
     1
271
     1
  0
XRECORD
  5
B2
102
{ACAD_REACTORS
330
AC
102
}
330
AC
100
AcDbXrecord
280
     1
270
     1
271
     1
  0
XRECORD
  5
AF
102
{ACAD_REACTORS
330
AC
102
}
330
AC
100
AcDbXrecord
280
     1
270
     1
271
     1
  0
XRECORD
  5
BE
102
{ACAD_REACTORS
330
BC
102
}
330
BC
100
AcDbXrecord
280
     1
270
     1
271
     1
  0
XRECORD
  5
BD
102
{ACAD_REACTORS
330
BC
102
}
330
BC
100
AcDbXrecord
280
     1
270
     1
271
     1
  0
XRECORD
  5
C1
102
{ACAD_REACTORS
330
BC
102
}
330
BC
100
AcDbXrecord
280
     1
270
     1
271
     1
  0
XRECORD
  5
C0
102
{ACAD_REACTORS
330
BC
102
}
330
BC
100
AcDbXrecord
280
     1
270
     1
271
     1
  0
XRECORD
  5
C2
102
{ACAD_REACTORS
330
BC
102
}
330
BC
100
AcDbXrecord
280
     1
270
     1
271
     1
  0
XRECORD
  5
BF
102
{ACAD_REACTORS
330
BC
102
}
330
BC
100
AcDbXrecord
280
     1
270
     1
271
     1
  0
XRECORD
  5
25C
102
{ACAD_REACTORS
330
25B
102
}
330
25B
100
AcDbXrecord
280
     1
102
ACAD_ROUNDTRIP_2012_MLEADER_STYLE
298
     1
  0
XRECORD
  5
25E
102
{ACAD_REACTORS
330
25D
102
}
330
25D
100
AcDbXrecord
280
     1
102
DISPLAYNAME
  1
Imperial24
102
FLAGS
 90
        0
  0
CELLSTYLEMAP
  5
227
102
{ACAD_REACTORS
330
226
102
}
330
226
100
AcDbCellStyleMap
 90
        3
300
CELLSTYLE
  1
TABLEFORMAT_BEGIN
 90
        5
170
     1
 91
        0
 92
    32768
 62
   257
 93
        1
300
CONTENTFORMAT
  1
CONTENTFORMAT_BEGIN
 90
        0
 91
        0
 92
      512
 93
        0
300

 40
0.0
140
1.0
 94
        5
 62
     0
340
11
144
0.25
309
CONTENTFORMAT_END
171
     0
 94
        0
309
TABLEFORMAT_END
  1
CELLSTYLE_BEGIN
 90
        1
 91
        1
300
_TITLE
309
CELLSTYLE_END
300
CELLSTYLE
  1
TABLEFORMAT_BEGIN
 90
        5
170
     1
 91
        0
 92
        0
 62
   257
 93
        1
300
CONTENTFORMAT
  1
CONTENTFORMAT_BEGIN
 90
        0
 91
        0
 92
      512
 93
        0
300

 40
0.0
140
1.0
 94
        5
 62
     0
340
11
144
0.18
309
CONTENTFORMAT_END
171
     0
 94
        0
309
TABLEFORMAT_END
  1
CELLSTYLE_BEGIN
 90
        2
 91
        1
300
_HEADER
309
CELLSTYLE_END
300
CELLSTYLE
  1
TABLEFORMAT_BEGIN
 90
        5
170
     1
 91
        0
 92
        0
 62
   257
 93
        1
300
CONTENTFORMAT
  1
CONTENTFORMAT_BEGIN
 90
        0
 91
        0
 92
      512
 93
        0
300

 40
0.0
140
1.0
 94
        2
 62
     0
340
11
144
0.18
309
CONTENTFORMAT_END
171
     0
 94
        0
309
TABLEFORMAT_END
  1
CELLSTYLE_BEGIN
 90
        3
 91
        2
300
_DATA
309
CELLSTYLE_END
  0
XRECORD
  5
236
102
{ACAD_REACTORS
330
235
102
}
330
235
100
AcDbXrecord
280
     1
102
RTVSPost2010Prop28
280
     1
102
RTVSPost2010PropOp28
 70
     1
102
RTVSPost2010Prop29
280
     1
102
RTVSPost2010PropOp29
 70
     1
102
RTVSPost2010Prop30
280
     0
102
RTVSPost2010PropOp30
 70
     1
102
RTVSPost2010Prop31
280
     0
102
RTVSPost2010PropOp31
 70
     1
102
RTVSPost2010Prop32
280
     0
102
RTVSPost2010PropOp32
 70
     1
102
RTVSPost2010Prop33
280
     0
102
RTVSPost2010PropOp33
 70
     1
102
RTVSPost2010Prop34
280
     0
102
RTVSPost2010PropOp34
 70
     1
102
RTVSPost2010Prop35
280
     0
102
RTVSPost2010PropOp35
 70
     1
102
RTVSPost2010Prop36
280
     0
102
RTVSPost2010PropOp36
 70
     1
102
RTVSPost2010Prop37
 90
       50
102
RTVSPost2010PropOp37
 70
     1
102
RTVSPost2010Prop38
140
0.0
102
RTVSPost2010PropOp38
 70
     1
102
RTVSPost2010Prop39
140
1.0
102
RTVSPost2010PropOp39
 70
     1
102
RTVSPost2010Prop40
 90
        0
102
RTVSPost2010PropOp40
 70
     1
102
RTVSPost2010Prop41ColorIndex
 90
       18
102
RTVSPost2010Prop41ColorRGB
 90
        0
102
RTVSPost2010PropOp41
 70
     1
102
RTVSPost2010Prop42
 90
       50
102
RTVSPost2010PropOp42
 70
     1
102
RTVSPost2010Prop43
 90
        3
102
RTVSPost2010PropOp43
 70
     1
102
RTVSPost2010Prop44ColorIndex
 90
        5
102
RTVSPost2010Prop44ColorRGB
 90
      255
102
RTVSPost2010PropOp44
 70
     1
102
RTVSPost2010Prop45
280
     0
102
RTVSPost2010PropOp45
 70
     1
102
RTVSPost2010Prop46
 90
       50
102
RTVSPost2010PropOp46
 70
     1
102
RTVSPost2010Prop47
 90
       50
102
RTVSPost2010PropOp47
 70
     1
102
RTVSPost2010Prop48
 90
       50
102
RTVSPost2010PropOp48
 70
     1
102
RTVSPost2010Prop49
280
     0
102
RTVSPost2010PropOp49
 70
     1
102
RTVSPost2010Prop50
 90
       50
102
RTVSPost2010PropOp50
 70
     1
102
RTVSPost2010Prop51ColorIndex
 90
      256
102
RTVSPost2010Prop51ColorRGB
 90
-16777216
102
RTVSPost2010PropOp51
 70
     0
102
RTVSPost2010Prop52
140
1.0
102
RTVSPost2010PropOp52
 70
     0
102
RTVSPost2010Prop53
 90
        2
102
RTVSPost2010PropOp53
 70
     1
102
RTVSPost2010Prop54
  1
strokes_ogs.tif
102
RTVSPost2010PropOp54
 70
     1
102
RTVSPost2010Prop55
280
     0
102
RTVSPost2010PropOp55
 70
     1
102
RTVSPost2010Prop56
140
1.0
102
RTVSPost2010PropOp56
 70
     1
102
RTVSPost2010Prop57
140
1.0
102
RTVSPost2010PropOp57
 70
     1
  0
XRECORD
  5
234
102
{ACAD_REACTORS
330
233
102
}
330
233
100
AcDbXrecord
280
     1
102
RTVSPost2010Prop28
280
     0
102
RTVSPost2010PropOp28
 70
     1
102
RTVSPost2010Prop29
280
     1
102
RTVSPost2010PropOp29
 70
     1
102
RTVSPost2010Prop30
280
     1
102
RTVSPost2010PropOp30
 70
     1
102
RTVSPost2010Prop31
280
     0
102
RTVSPost2010PropOp31
 70
     1
102
RTVSPost2010Prop32
280
     0
102
RTVSPost2010PropOp32
 70
     1
102
RTVSPost2010Prop33
280
     0
102
RTVSPost2010PropOp33
 70
     1
102
RTVSPost2010Prop34
280
     0
102
RTVSPost2010PropOp34
 70
     1
102
RTVSPost2010Prop35
280
     0
102
RTVSPost2010PropOp35
 70
     1
102
RTVSPost2010Prop36
280
     0
102
RTVSPost2010PropOp36
 70
     1
102
RTVSPost2010Prop37
 90
       50
102
RTVSPost2010PropOp37
 70
     1
102
RTVSPost2010Prop38
140
0.0
102
RTVSPost2010PropOp38
 70
     1
102
RTVSPost2010Prop39
140
1.0
102
RTVSPost2010PropOp39
 70
     1
102
RTVSPost2010Prop40
 90
        0
102
RTVSPost2010PropOp40
 70
     1
102
RTVSPost2010Prop41ColorIndex
 90
       18
102
RTVSPost2010Prop41ColorRGB
 90
        0
102
RTVSPost2010PropOp41
 70
     1
102
RTVSPost2010Prop42
 90
       50
102
RTVSPost2010PropOp42
 70
     1
102
RTVSPost2010Prop43
 90
        3
102
RTVSPost2010PropOp43
 70
     1
102
RTVSPost2010Prop44ColorIndex
 90
        5
102
RTVSPost2010Prop44ColorRGB
 90
      255
102
RTVSPost2010PropOp44
 70
     1
102
RTVSPost2010Prop45
280
     0
102
RTVSPost2010PropOp45
 70
     1
102
RTVSPost2010Prop46
 90
       50
102
RTVSPost2010PropOp46
 70
     1
102
RTVSPost2010Prop47
 90
       50
102
RTVSPost2010PropOp47
 70
     1
102
RTVSPost2010Prop48
 90
       50
102
RTVSPost2010PropOp48
 70
     1
102
RTVSPost2010Prop49
280
     0
102
RTVSPost2010PropOp49
 70
     1
102
RTVSPost2010Prop50
 90
       50
102
RTVSPost2010PropOp50
 70
     1
102
RTVSPost2010Prop51ColorIndex
 90
      256
102
RTVSPost2010Prop51ColorRGB
 90
-16777216
102
RTVSPost2010PropOp51
 70
     0
102
RTVSPost2010Prop52
140
1.0
102
RTVSPost2010PropOp52
 70
     0
102
RTVSPost2010Prop53
 90
        2
102
RTVSPost2010PropOp53
 70
     1
102
RTVSPost2010Prop54
  1
strokes_ogs.tif
102
RTVSPost2010PropOp54
 70
     1
102
RTVSPost2010Prop55
280
     0
102
RTVSPost2010PropOp55
 70
     1
102
RTVSPost2010Prop56
140
1.0
102
RTVSPost2010PropOp56
 70
     1
102
RTVSPost2010Prop57
140
1.0
102
RTVSPost2010PropOp57
 70
     1
  0
XRECORD
  5
242
102
{ACAD_REACTORS
330
241
102
}
330
241
100
AcDbXrecord
280
     1
102
RTVSPost2010Prop28
280
     0
102
RTVSPost2010PropOp28
 70
     1
102
RTVSPost2010Prop29
280
     1
102
RTVSPost2010PropOp29
 70
     1
102
RTVSPost2010Prop30
280
     1
102
RTVSPost2010PropOp30
 70
     1
102
RTVSPost2010Prop31
280
     0
102
RTVSPost2010PropOp31
 70
     1
102
RTVSPost2010Prop32
280
     0
102
RTVSPost2010PropOp32
 70
     1
102
RTVSPost2010Prop33
280
     0
102
RTVSPost2010PropOp33
 70
     1
102
RTVSPost2010Prop34
280
     0
102
RTVSPost2010PropOp34
 70
     1
102
RTVSPost2010Prop35
280
     0
102
RTVSPost2010PropOp35
 70
     1
102
RTVSPost2010Prop36
280
     0
102
RTVSPost2010PropOp36
 70
     1
102
RTVSPost2010Prop37
 90
       50
102
RTVSPost2010PropOp37
 70
     1
102
RTVSPost2010Prop38
140
0.0
102
RTVSPost2010PropOp38
 70
     1
102
RTVSPost2010Prop39
140
1.0
102
RTVSPost2010PropOp39
 70
     1
102
RTVSPost2010Prop40
 90
        0
102
RTVSPost2010PropOp40
 70
     1
102
RTVSPost2010Prop41ColorIndex
 90
       18
102
RTVSPost2010Prop41ColorRGB
 90
        0
102
RTVSPost2010PropOp41
 70
     1
102
RTVSPost2010Prop42
 90
       50
102
RTVSPost2010PropOp42
 70
     1
102
RTVSPost2010Prop43
 90
        3
102
RTVSPost2010PropOp43
 70
     1
102
RTVSPost2010Prop44ColorIndex
 90
        5
102
RTVSPost2010Prop44ColorRGB
 90
      255
102
RTVSPost2010PropOp44
 70
     1
102
RTVSPost2010Prop45
280
     0
102
RTVSPost2010PropOp45
 70
     1
102
RTVSPost2010Prop46
 90
       50
102
RTVSPost2010PropOp46
 70
     1
102
RTVSPost2010Prop47
 90
       50
102
RTVSPost2010PropOp47
 70
     1
102
RTVSPost2010Prop48
 90
       50
102
RTVSPost2010PropOp48
 70
     1
102
RTVSPost2010Prop49
280
     0
102
RTVSPost2010PropOp49
 70
     1
102
RTVSPost2010Prop50
 90
       50
102
RTVSPost2010PropOp50
 70
     1
102
RTVSPost2010Prop51ColorIndex
 90
      256
102
RTVSPost2010Prop51ColorRGB
 90
-16777216
102
RTVSPost2010PropOp51
 70
     0
102
RTVSPost2010Prop52
140
1.0
102
RTVSPost2010PropOp52
 70
     0
102
RTVSPost2010Prop53
 90
        2
102
RTVSPost2010PropOp53
 70
     1
102
RTVSPost2010Prop54
  1
strokes_ogs.tif
102
RTVSPost2010PropOp54
 70
     1
102
RTVSPost2010Prop55
280
     0
102
RTVSPost2010PropOp55
 70
     1
102
RTVSPost2010Prop56
140
1.0
102
RTVSPost2010PropOp56
 70
     1
102
RTVSPost2010Prop57
140
1.0
102
RTVSPost2010PropOp57
 70
     1
  0
XRECORD
  5
24A
102
{ACAD_REACTORS
330
249
102
}
330
249
100
AcDbXrecord
280
     1
102
RTVSPost2010Prop28
280
     0
102
RTVSPost2010PropOp28
 70
     1
102
RTVSPost2010Prop29
280
     1
102
RTVSPost2010PropOp29
 70
     1
102
RTVSPost2010Prop30
280
     1
102
RTVSPost2010PropOp30
 70
     1
102
RTVSPost2010Prop31
280
     0
102
RTVSPost2010PropOp31
 70
     1
102
RTVSPost2010Prop32
280
     0
102
RTVSPost2010PropOp32
 70
     1
102
RTVSPost2010Prop33
280
     0
102
RTVSPost2010PropOp33
 70
     1
102
RTVSPost2010Prop34
280
     0
102
RTVSPost2010PropOp34
 70
     1
102
RTVSPost2010Prop35
280
     0
102
RTVSPost2010PropOp35
 70
     1
102
RTVSPost2010Prop36
280
     0
102
RTVSPost2010PropOp36
 70
     1
102
RTVSPost2010Prop37
 90
       50
102
RTVSPost2010PropOp37
 70
     1
102
RTVSPost2010Prop38
140
0.0
102
RTVSPost2010PropOp38
 70
     1
102
RTVSPost2010Prop39
140
1.0
102
RTVSPost2010PropOp39
 70
     1
102
RTVSPost2010Prop40
 90
        0
102
RTVSPost2010PropOp40
 70
     1
102
RTVSPost2010Prop41ColorIndex
 90
       18
102
RTVSPost2010Prop41ColorRGB
 90
        0
102
RTVSPost2010PropOp41
 70
     1
102
RTVSPost2010Prop42
 90
       50
102
RTVSPost2010PropOp42
 70
     1
102
RTVSPost2010Prop43
 90
        3
102
RTVSPost2010PropOp43
 70
     1
102
RTVSPost2010Prop44ColorIndex
 90
        5
102
RTVSPost2010Prop44ColorRGB
 90
      255
102
RTVSPost2010PropOp44
 70
     1
102
RTVSPost2010Prop45
280
     0
102
RTVSPost2010PropOp45
 70
     1
102
RTVSPost2010Prop46
 90
       50
102
RTVSPost2010PropOp46
 70
     1
102
RTVSPost2010Prop47
 90
       50
102
RTVSPost2010PropOp47
 70
     1
102
RTVSPost2010Prop48
 90
       50
102
RTVSPost2010PropOp48
 70
     1
102
RTVSPost2010Prop49
280
     0
102
RTVSPost2010PropOp49
 70
     1
102
RTVSPost2010Prop50
 90
       50
102
RTVSPost2010PropOp50
 70
     1
102
RTVSPost2010Prop51ColorIndex
 90
      256
102
RTVSPost2010Prop51ColorRGB
 90
-16777216
102
RTVSPost2010PropOp51
 70
     0
102
RTVSPost2010Prop52
140
1.0
102
RTVSPost2010PropOp52
 70
     0
102
RTVSPost2010Prop53
 90
        2
102
RTVSPost2010PropOp53
 70
     1
102
RTVSPost2010Prop54
  1
strokes_ogs.tif
102
RTVSPost2010PropOp54
 70
     1
102
RTVSPost2010Prop55
280
     0
102
RTVSPost2010PropOp55
 70
     1
102
RTVSPost2010Prop56
140
1.0
102
RTVSPost2010PropOp56
 70
     1
102
RTVSPost2010Prop57
140
1.0
102
RTVSPost2010PropOp57
 70
     1
  0
XRECORD
  5
23C
102
{ACAD_REACTORS
330
23B
102
}
330
23B
100
AcDbXrecord
280
     1
102
RTVSPost2010Prop28
280
     0
102
RTVSPost2010PropOp28
 70
     1
102
RTVSPost2010Prop29
280
     1
102
RTVSPost2010PropOp29
 70
     1
102
RTVSPost2010Prop30
280
     1
102
RTVSPost2010PropOp30
 70
     1
102
RTVSPost2010Prop31
280
     0
102
RTVSPost2010PropOp31
 70
     1
102
RTVSPost2010Prop32
280
     0
102
RTVSPost2010PropOp32
 70
     1
102
RTVSPost2010Prop33
280
     0
102
RTVSPost2010PropOp33
 70
     1
102
RTVSPost2010Prop34
280
     0
102
RTVSPost2010PropOp34
 70
     1
102
RTVSPost2010Prop35
280
     0
102
RTVSPost2010PropOp35
 70
     1
102
RTVSPost2010Prop36
280
     0
102
RTVSPost2010PropOp36
 70
     1
102
RTVSPost2010Prop37
 90
       50
102
RTVSPost2010PropOp37
 70
     1
102
RTVSPost2010Prop38
140
0.0
102
RTVSPost2010PropOp38
 70
     1
102
RTVSPost2010Prop39
140
1.0
102
RTVSPost2010PropOp39
 70
     1
102
RTVSPost2010Prop40
 90
        0
102
RTVSPost2010PropOp40
 70
     1
102
RTVSPost2010Prop41ColorIndex
 90
       18
102
RTVSPost2010Prop41ColorRGB
 90
        0
102
RTVSPost2010PropOp41
 70
     1
102
RTVSPost2010Prop42
 90
       50
102
RTVSPost2010PropOp42
 70
     1
102
RTVSPost2010Prop43
 90
        3
102
RTVSPost2010PropOp43
 70
     1
102
RTVSPost2010Prop44ColorIndex
 90
        5
102
RTVSPost2010Prop44ColorRGB
 90
      255
102
RTVSPost2010PropOp44
 70
     1
102
RTVSPost2010Prop45
280
     0
102
RTVSPost2010PropOp45
 70
     1
102
RTVSPost2010Prop46
 90
       50
102
RTVSPost2010PropOp46
 70
     1
102
RTVSPost2010Prop47
 90
       50
102
RTVSPost2010PropOp47
 70
     1
102
RTVSPost2010Prop48
 90
       50
102
RTVSPost2010PropOp48
 70
     1
102
RTVSPost2010Prop49
280
     0
102
RTVSPost2010PropOp49
 70
     1
102
RTVSPost2010Prop50
 90
       50
102
RTVSPost2010PropOp50
 70
     1
102
RTVSPost2010Prop51ColorIndex
 90
      256
102
RTVSPost2010Prop51ColorRGB
 90
-16777216
102
RTVSPost2010PropOp51
 70
     0
102
RTVSPost2010Prop52
140
1.0
102
RTVSPost2010PropOp52
 70
     0
102
RTVSPost2010Prop53
 90
        2
102
RTVSPost2010PropOp53
 70
     1
102
RTVSPost2010Prop54
  1
strokes_ogs.tif
102
RTVSPost2010PropOp54
 70
     1
102
RTVSPost2010Prop55
280
     0
102
RTVSPost2010PropOp55
 70
     1
102
RTVSPost2010Prop56
140
1.0
102
RTVSPost2010PropOp56
 70
     1
102
RTVSPost2010Prop57
140
1.0
102
RTVSPost2010PropOp57
 70
     1
  0
XRECORD
  5
240
102
{ACAD_REACTORS
330
23F
102
}
330
23F
100
AcDbXrecord
280
     1
102
RTVSPost2010Prop28
280
     0
102
RTVSPost2010PropOp28
 70
     1
102
RTVSPost2010Prop29
280
     1
102
RTVSPost2010PropOp29
 70
     1
102
RTVSPost2010Prop30
280
     1
102
RTVSPost2010PropOp30
 70
     1
102
RTVSPost2010Prop31
280
     0
102
RTVSPost2010PropOp31
 70
     1
102
RTVSPost2010Prop32
280
     0
102
RTVSPost2010PropOp32
 70
     1
102
RTVSPost2010Prop33
280
     0
102
RTVSPost2010PropOp33
 70
     1
102
RTVSPost2010Prop34
280
     0
102
RTVSPost2010PropOp34
 70
     1
102
RTVSPost2010Prop35
280
     0
102
RTVSPost2010PropOp35
 70
     1
102
RTVSPost2010Prop36
280
     0
102
RTVSPost2010PropOp36
 70
     1
102
RTVSPost2010Prop37
 90
       50
102
RTVSPost2010PropOp37
 70
     1
102
RTVSPost2010Prop38
140
0.0
102
RTVSPost2010PropOp38
 70
     1
102
RTVSPost2010Prop39
140
1.0
102
RTVSPost2010PropOp39
 70
     1
102
RTVSPost2010Prop40
 90
        0
102
RTVSPost2010PropOp40
 70
     1
102
RTVSPost2010Prop41ColorIndex
 90
       18
102
RTVSPost2010Prop41ColorRGB
 90
        0
102
RTVSPost2010PropOp41
 70
     1
102
RTVSPost2010Prop42
 90
       50
102
RTVSPost2010PropOp42
 70
     1
102
RTVSPost2010Prop43
 90
        3
102
RTVSPost2010PropOp43
 70
     1
102
RTVSPost2010Prop44ColorIndex
 90
        5
102
RTVSPost2010Prop44ColorRGB
 90
      255
102
RTVSPost2010PropOp44
 70
     1
102
RTVSPost2010Prop45
280
     0
102
RTVSPost2010PropOp45
 70
     1
102
RTVSPost2010Prop46
 90
       50
102
RTVSPost2010PropOp46
 70
     1
102
RTVSPost2010Prop47
 90
       50
102
RTVSPost2010PropOp47
 70
     1
102
RTVSPost2010Prop48
 90
       50
102
RTVSPost2010PropOp48
 70
     1
102
RTVSPost2010Prop49
280
     0
102
RTVSPost2010PropOp49
 70
     1
102
RTVSPost2010Prop50
 90
       50
102
RTVSPost2010PropOp50
 70
     1
102
RTVSPost2010Prop51ColorIndex
 90
      256
102
RTVSPost2010Prop51ColorRGB
 90
-16777216
102
RTVSPost2010PropOp51
 70
     0
102
RTVSPost2010Prop52
140
1.0
102
RTVSPost2010PropOp52
 70
     0
102
RTVSPost2010Prop53
 90
        2
102
RTVSPost2010PropOp53
 70
     1
102
RTVSPost2010Prop54
  1
strokes_ogs.tif
102
RTVSPost2010PropOp54
 70
     1
102
RTVSPost2010Prop55
280
     0
102
RTVSPost2010PropOp55
 70
     1
102
RTVSPost2010Prop56
140
1.0
102
RTVSPost2010PropOp56
 70
     1
102
RTVSPost2010Prop57
140
1.0
102
RTVSPost2010PropOp57
 70
     1
  0
XRECORD
  5
25A
102
{ACAD_REACTORS
330
259
102
}
330
259
100
AcDbXrecord
280
     1
102
RTVSPost2010Prop28
280
     0
102
RTVSPost2010PropOp28
 70
     0
102
RTVSPost2010Prop29
280
     1
102
RTVSPost2010PropOp29
 70
     0
102
RTVSPost2010Prop30
280
     1
102
RTVSPost2010PropOp30
 70
     0
102
RTVSPost2010Prop31
280
     0
102
RTVSPost2010PropOp31
 70
     0
102
RTVSPost2010Prop32
280
     0
102
RTVSPost2010PropOp32
 70
     0
102
RTVSPost2010Prop33
280
     0
102
RTVSPost2010PropOp33
 70
     0
102
RTVSPost2010Prop34
280
     0
102
RTVSPost2010PropOp34
 70
     0
102
RTVSPost2010Prop35
280
     0
102
RTVSPost2010PropOp35
 70
     0
102
RTVSPost2010Prop36
280
     0
102
RTVSPost2010PropOp36
 70
     0
102
RTVSPost2010Prop37
 90
       50
102
RTVSPost2010PropOp37
 70
     0
102
RTVSPost2010Prop38
140
0.0
102
RTVSPost2010PropOp38
 70
     0
102
RTVSPost2010Prop39
140
1.0
102
RTVSPost2010PropOp39
 70
     0
102
RTVSPost2010Prop40
 90
        0
102
RTVSPost2010PropOp40
 70
     0
102
RTVSPost2010Prop41ColorIndex
 90
       18
102
RTVSPost2010Prop41ColorRGB
 90
        0
102
RTVSPost2010PropOp41
 70
     0
102
RTVSPost2010Prop42
 90
       50
102
RTVSPost2010PropOp42
 70
     0
102
RTVSPost2010Prop43
 90
        3
102
RTVSPost2010PropOp43
 70
     0
102
RTVSPost2010Prop44ColorIndex
 90
        5
102
RTVSPost2010Prop44ColorRGB
 90
      255
102
RTVSPost2010PropOp44
 70
     0
102
RTVSPost2010Prop45
280
     0
102
RTVSPost2010PropOp45
 70
     0
102
RTVSPost2010Prop46
 90
       50
102
RTVSPost2010PropOp46
 70
     0
102
RTVSPost2010Prop47
 90
       50
102
RTVSPost2010PropOp47
 70
     0
102
RTVSPost2010Prop48
 90
       50
102
RTVSPost2010PropOp48
 70
     0
102
RTVSPost2010Prop49
280
     0
102
RTVSPost2010PropOp49
 70
     0
102
RTVSPost2010Prop50
 90
       50
102
RTVSPost2010PropOp50
 70
     0
102
RTVSPost2010Prop51ColorIndex
 90
      256
102
RTVSPost2010Prop51ColorRGB
 90
-16777216
102
RTVSPost2010PropOp51
 70
     0
102
RTVSPost2010Prop52
140
1.0
102
RTVSPost2010PropOp52
 70
     0
102
RTVSPost2010Prop53
 90
        2
102
RTVSPost2010PropOp53
 70
     0
102
RTVSPost2010Prop54
  1
strokes_ogs.tif
102
RTVSPost2010PropOp54
 70
     0
102
RTVSPost2010Prop55
280
     0
102
RTVSPost2010PropOp55
 70
     0
102
RTVSPost2010Prop56
140
1.0
102
RTVSPost2010PropOp56
 70
     0
102
RTVSPost2010Prop57
140
1.0
102
RTVSPost2010PropOp57
 70
     0
  0
XRECORD
  5
248
102
{ACAD_REACTORS
330
247
102
}
330
247
100
AcDbXrecord
280
     1
102
RTVSPost2010Prop28
280
     0
102
RTVSPost2010PropOp28
 70
     1
102
RTVSPost2010Prop29
280
     1
102
RTVSPost2010PropOp29
 70
     1
102
RTVSPost2010Prop30
280
     1
102
RTVSPost2010PropOp30
 70
     1
102
RTVSPost2010Prop31
280
     0
102
RTVSPost2010PropOp31
 70
     1
102
RTVSPost2010Prop32
280
     0
102
RTVSPost2010PropOp32
 70
     1
102
RTVSPost2010Prop33
280
     0
102
RTVSPost2010PropOp33
 70
     1
102
RTVSPost2010Prop34
280
     0
102
RTVSPost2010PropOp34
 70
     1
102
RTVSPost2010Prop35
280
     0
102
RTVSPost2010PropOp35
 70
     1
102
RTVSPost2010Prop36
280
     0
102
RTVSPost2010PropOp36
 70
     1
102
RTVSPost2010Prop37
 90
       50
102
RTVSPost2010PropOp37
 70
     1
102
RTVSPost2010Prop38
140
0.0
102
RTVSPost2010PropOp38
 70
     1
102
RTVSPost2010Prop39
140
1.0
102
RTVSPost2010PropOp39
 70
     1
102
RTVSPost2010Prop40
 90
        0
102
RTVSPost2010PropOp40
 70
     1
102
RTVSPost2010Prop41ColorIndex
 90
       18
102
RTVSPost2010Prop41ColorRGB
 90
        0
102
RTVSPost2010PropOp41
 70
     1
102
RTVSPost2010Prop42
 90
       50
102
RTVSPost2010PropOp42
 70
     1
102
RTVSPost2010Prop43
 90
        3
102
RTVSPost2010PropOp43
 70
     1
102
RTVSPost2010Prop44ColorIndex
 90
        5
102
RTVSPost2010Prop44ColorRGB
 90
      255
102
RTVSPost2010PropOp44
 70
     1
102
RTVSPost2010Prop45
280
     0
102
RTVSPost2010PropOp45
 70
     1
102
RTVSPost2010Prop46
 90
       50
102
RTVSPost2010PropOp46
 70
     1
102
RTVSPost2010Prop47
 90
       50
102
RTVSPost2010PropOp47
 70
     1
102
RTVSPost2010Prop48
 90
       50
102
RTVSPost2010PropOp48
 70
     1
102
RTVSPost2010Prop49
280
     0
102
RTVSPost2010PropOp49
 70
     1
102
RTVSPost2010Prop50
 90
       50
102
RTVSPost2010PropOp50
 70
     1
102
RTVSPost2010Prop51ColorIndex
 90
      256
102
RTVSPost2010Prop51ColorRGB
 90
-16777216
102
RTVSPost2010PropOp51
 70
     0
102
RTVSPost2010Prop52
140
1.0
102
RTVSPost2010PropOp52
 70
     0
102
RTVSPost2010Prop53
 90
        2
102
RTVSPost2010PropOp53
 70
     1
102
RTVSPost2010Prop54
  1
strokes_ogs.tif
102
RTVSPost2010PropOp54
 70
     1
102
RTVSPost2010Prop55
280
     0
102
RTVSPost2010PropOp55
 70
     1
102
RTVSPost2010Prop56
140
1.0
102
RTVSPost2010PropOp56
 70
     1
102
RTVSPost2010Prop57
140
1.0
102
RTVSPost2010PropOp57
 70
     1
  0
XRECORD
  5
22C
102
{ACAD_REACTORS
330
22B
102
}
330
22B
100
AcDbXrecord
280
     1
102
RTVSPost2010Prop28
280
     0
102
RTVSPost2010PropOp28
 70
     1
102
RTVSPost2010Prop29
280
     1
102
RTVSPost2010PropOp29
 70
     1
102
RTVSPost2010Prop30
280
     1
102
RTVSPost2010PropOp30
 70
     1
102
RTVSPost2010Prop31
280
     0
102
RTVSPost2010PropOp31
 70
     1
102
RTVSPost2010Prop32
280
     0
102
RTVSPost2010PropOp32
 70
     1
102
RTVSPost2010Prop33
280
     0
102
RTVSPost2010PropOp33
 70
     1
102
RTVSPost2010Prop34
280
     0
102
RTVSPost2010PropOp34
 70
     1
102
RTVSPost2010Prop35
280
     0
102
RTVSPost2010PropOp35
 70
     1
102
RTVSPost2010Prop36
280
     0
102
RTVSPost2010PropOp36
 70
     1
102
RTVSPost2010Prop37
 90
       50
102
RTVSPost2010PropOp37
 70
     1
102
RTVSPost2010Prop38
140
0.0
102
RTVSPost2010PropOp38
 70
     1
102
RTVSPost2010Prop39
140
1.0
102
RTVSPost2010PropOp39
 70
     1
102
RTVSPost2010Prop40
 90
        0
102
RTVSPost2010PropOp40
 70
     1
102
RTVSPost2010Prop41ColorIndex
 90
       18
102
RTVSPost2010Prop41ColorRGB
 90
        0
102
RTVSPost2010PropOp41
 70
     1
102
RTVSPost2010Prop42
 90
       50
102
RTVSPost2010PropOp42
 70
     1
102
RTVSPost2010Prop43
 90
        3
102
RTVSPost2010PropOp43
 70
     1
102
RTVSPost2010Prop44ColorIndex
 90
        5
102
RTVSPost2010Prop44ColorRGB
 90
      255
102
RTVSPost2010PropOp44
 70
     1
102
RTVSPost2010Prop45
280
     0
102
RTVSPost2010PropOp45
 70
     1
102
RTVSPost2010Prop46
 90
       50
102
RTVSPost2010PropOp46
 70
     1
102
RTVSPost2010Prop47
 90
       50
102
RTVSPost2010PropOp47
 70
     1
102
RTVSPost2010Prop48
 90
       50
102
RTVSPost2010PropOp48
 70
     1
102
RTVSPost2010Prop49
280
     0
102
RTVSPost2010PropOp49
 70
     1
102
RTVSPost2010Prop50
 90
       50
102
RTVSPost2010PropOp50
 70
     1
102
RTVSPost2010Prop51ColorIndex
 90
      256
102
RTVSPost2010Prop51ColorRGB
 90
-16777216
102
RTVSPost2010PropOp51
 70
     0
102
RTVSPost2010Prop52
140
1.0
102
RTVSPost2010PropOp52
 70
     0
102
RTVSPost2010Prop53
 90
        2
102
RTVSPost2010PropOp53
 70
     1
102
RTVSPost2010Prop54
  1
strokes_ogs.tif
102
RTVSPost2010PropOp54
 70
     1
102
RTVSPost2010Prop55
280
     0
102
RTVSPost2010PropOp55
 70
     1
102
RTVSPost2010Prop56
140
1.0
102
RTVSPost2010PropOp56
 70
     1
102
RTVSPost2010Prop57
140
1.0
102
RTVSPost2010PropOp57
 70
     1
  0
XRECORD
  5
22E
102
{ACAD_REACTORS
330
22D
102
}
330
22D
100
AcDbXrecord
280
     1
102
RTVSPost2010Prop28
280
     0
102
RTVSPost2010PropOp28
 70
     1
102
RTVSPost2010Prop29
280
     1
102
RTVSPost2010PropOp29
 70
     1
102
RTVSPost2010Prop30
280
     1
102
RTVSPost2010PropOp30
 70
     1
102
RTVSPost2010Prop31
280
     0
102
RTVSPost2010PropOp31
 70
     1
102
RTVSPost2010Prop32
280
     0
102
RTVSPost2010PropOp32
 70
     1
102
RTVSPost2010Prop33
280
     0
102
RTVSPost2010PropOp33
 70
     1
102
RTVSPost2010Prop34
280
     0
102
RTVSPost2010PropOp34
 70
     1
102
RTVSPost2010Prop35
280
     0
102
RTVSPost2010PropOp35
 70
     1
102
RTVSPost2010Prop36
280
     0
102
RTVSPost2010PropOp36
 70
     1
102
RTVSPost2010Prop37
 90
       50
102
RTVSPost2010PropOp37
 70
     1
102
RTVSPost2010Prop38
140
0.0
102
RTVSPost2010PropOp38
 70
     1
102
RTVSPost2010Prop39
140
1.0
102
RTVSPost2010PropOp39
 70
     1
102
RTVSPost2010Prop40
 90
        0
102
RTVSPost2010PropOp40
 70
     1
102
RTVSPost2010Prop41ColorIndex
 90
       18
102
RTVSPost2010Prop41ColorRGB
 90
        0
102
RTVSPost2010PropOp41
 70
     1
102
RTVSPost2010Prop42
 90
       50
102
RTVSPost2010PropOp42
 70
     1
102
RTVSPost2010Prop43
 90
        3
102
RTVSPost2010PropOp43
 70
     1
102
RTVSPost2010Prop44ColorIndex
 90
        5
102
RTVSPost2010Prop44ColorRGB
 90
      255
102
RTVSPost2010PropOp44
 70
     1
102
RTVSPost2010Prop45
280
     0
102
RTVSPost2010PropOp45
 70
     1
102
RTVSPost2010Prop46
 90
       50
102
RTVSPost2010PropOp46
 70
     1
102
RTVSPost2010Prop47
 90
       50
102
RTVSPost2010PropOp47
 70
     1
102
RTVSPost2010Prop48
 90
       50
102
RTVSPost2010PropOp48
 70
     1
102
RTVSPost2010Prop49
280
     0
102
RTVSPost2010PropOp49
 70
     1
102
RTVSPost2010Prop50
 90
       50
102
RTVSPost2010PropOp50
 70
     1
102
RTVSPost2010Prop51ColorIndex
 90
      256
102
RTVSPost2010Prop51ColorRGB
 90
-16777216
102
RTVSPost2010PropOp51
 70
     0
102
RTVSPost2010Prop52
140
1.0
102
RTVSPost2010PropOp52
 70
     0
102
RTVSPost2010Prop53
 90
        2
102
RTVSPost2010PropOp53
 70
     1
102
RTVSPost2010Prop54
  1
strokes_ogs.tif
102
RTVSPost2010PropOp54
 70
     1
102
RTVSPost2010Prop55
280
     0
102
RTVSPost2010PropOp55
 70
     1
102
RTVSPost2010Prop56
140
1.0
102
RTVSPost2010PropOp56
 70
     1
102
RTVSPost2010Prop57
140
1.0
102
RTVSPost2010PropOp57
 70
     1
  0
XRECORD
  5
230
102
{ACAD_REACTORS
330
22F
102
}
330
22F
100
AcDbXrecord
280
     1
102
RTVSPost2010Prop28
280
     0
102
RTVSPost2010PropOp28
 70
     1
102
RTVSPost2010Prop29
280
     1
102
RTVSPost2010PropOp29
 70
     1
102
RTVSPost2010Prop30
280
     1
102
RTVSPost2010PropOp30
 70
     1
102
RTVSPost2010Prop31
280
     0
102
RTVSPost2010PropOp31
 70
     1
102
RTVSPost2010Prop32
280
     0
102
RTVSPost2010PropOp32
 70
     1
102
RTVSPost2010Prop33
280
     0
102
RTVSPost2010PropOp33
 70
     1
102
RTVSPost2010Prop34
280
     0
102
RTVSPost2010PropOp34
 70
     1
102
RTVSPost2010Prop35
280
     0
102
RTVSPost2010PropOp35
 70
     1
102
RTVSPost2010Prop36
280
     0
102
RTVSPost2010PropOp36
 70
     1
102
RTVSPost2010Prop37
 90
       50
102
RTVSPost2010PropOp37
 70
     1
102
RTVSPost2010Prop38
140
0.0
102
RTVSPost2010PropOp38
 70
     1
102
RTVSPost2010Prop39
140
1.0
102
RTVSPost2010PropOp39
 70
     1
102
RTVSPost2010Prop40
 90
        0
102
RTVSPost2010PropOp40
 70
     1
102
RTVSPost2010Prop41ColorIndex
 90
       18
102
RTVSPost2010Prop41ColorRGB
 90
        0
102
RTVSPost2010PropOp41
 70
     1
102
RTVSPost2010Prop42
 90
       50
102
RTVSPost2010PropOp42
 70
     1
102
RTVSPost2010Prop43
 90
        3
102
RTVSPost2010PropOp43
 70
     1
102
RTVSPost2010Prop44ColorIndex
 90
        5
102
RTVSPost2010Prop44ColorRGB
 90
      255
102
RTVSPost2010PropOp44
 70
     1
102
RTVSPost2010Prop45
280
     0
102
RTVSPost2010PropOp45
 70
     1
102
RTVSPost2010Prop46
 90
       50
102
RTVSPost2010PropOp46
 70
     1
102
RTVSPost2010Prop47
 90
       50
102
RTVSPost2010PropOp47
 70
     1
102
RTVSPost2010Prop48
 90
       50
102
RTVSPost2010PropOp48
 70
     1
102
RTVSPost2010Prop49
280
     0
102
RTVSPost2010PropOp49
 70
     1
102
RTVSPost2010Prop50
 90
       50
102
RTVSPost2010PropOp50
 70
     1
102
RTVSPost2010Prop51ColorIndex
 90
      256
102
RTVSPost2010Prop51ColorRGB
 90
-16777216
102
RTVSPost2010PropOp51
 70
     0
102
RTVSPost2010Prop52
140
1.0
102
RTVSPost2010PropOp52
 70
     0
102
RTVSPost2010Prop53
 90
        2
102
RTVSPost2010PropOp53
 70
     1
102
RTVSPost2010Prop54
  1
strokes_ogs.tif
102
RTVSPost2010PropOp54
 70
     1
102
RTVSPost2010Prop55
280
     0
102
RTVSPost2010PropOp55
 70
     1
102
RTVSPost2010Prop56
140
1.0
102
RTVSPost2010PropOp56
 70
     1
102
RTVSPost2010Prop57
140
1.0
102
RTVSPost2010PropOp57
 70
     1
  0
XRECORD
  5
232
102
{ACAD_REACTORS
330
231
102
}
330
231
100
AcDbXrecord
280
     1
102
RTVSPost2010Prop28
280
     0
102
RTVSPost2010PropOp28
 70
     1
102
RTVSPost2010Prop29
280
     1
102
RTVSPost2010PropOp29
 70
     1
102
RTVSPost2010Prop30
280
     1
102
RTVSPost2010PropOp30
 70
     1
102
RTVSPost2010Prop31
280
     0
102
RTVSPost2010PropOp31
 70
     1
102
RTVSPost2010Prop32
280
     0
102
RTVSPost2010PropOp32
 70
     1
102
RTVSPost2010Prop33
280
     0
102
RTVSPost2010PropOp33
 70
     1
102
RTVSPost2010Prop34
280
     0
102
RTVSPost2010PropOp34
 70
     1
102
RTVSPost2010Prop35
280
     0
102
RTVSPost2010PropOp35
 70
     1
102
RTVSPost2010Prop36
280
     0
102
RTVSPost2010PropOp36
 70
     1
102
RTVSPost2010Prop37
 90
       50
102
RTVSPost2010PropOp37
 70
     1
102
RTVSPost2010Prop38
140
0.0
102
RTVSPost2010PropOp38
 70
     1
102
RTVSPost2010Prop39
140
1.0
102
RTVSPost2010PropOp39
 70
     1
102
RTVSPost2010Prop40
 90
        0
102
RTVSPost2010PropOp40
 70
     1
102
RTVSPost2010Prop41ColorIndex
 90
       18
102
RTVSPost2010Prop41ColorRGB
 90
        0
102
RTVSPost2010PropOp41
 70
     1
102
RTVSPost2010Prop42
 90
       50
102
RTVSPost2010PropOp42
 70
     1
102
RTVSPost2010Prop43
 90
        3
102
RTVSPost2010PropOp43
 70
     1
102
RTVSPost2010Prop44ColorIndex
 90
        5
102
RTVSPost2010Prop44ColorRGB
 90
      255
102
RTVSPost2010PropOp44
 70
     1
102
RTVSPost2010Prop45
280
     0
102
RTVSPost2010PropOp45
 70
     1
102
RTVSPost2010Prop46
 90
       50
102
RTVSPost2010PropOp46
 70
     1
102
RTVSPost2010Prop47
 90
       50
102
RTVSPost2010PropOp47
 70
     1
102
RTVSPost2010Prop48
 90
       50
102
RTVSPost2010PropOp48
 70
     1
102
RTVSPost2010Prop49
280
     0
102
RTVSPost2010PropOp49
 70
     1
102
RTVSPost2010Prop50
 90
       50
102
RTVSPost2010PropOp50
 70
     1
102
RTVSPost2010Prop51ColorIndex
 90
      256
102
RTVSPost2010Prop51ColorRGB
 90
-16777216
102
RTVSPost2010PropOp51
 70
     0
102
RTVSPost2010Prop52
140
1.0
102
RTVSPost2010PropOp52
 70
     0
102
RTVSPost2010Prop53
 90
        2
102
RTVSPost2010PropOp53
 70
     1
102
RTVSPost2010Prop54
  1
strokes_ogs.tif
102
RTVSPost2010PropOp54
 70
     1
102
RTVSPost2010Prop55
280
     0
102
RTVSPost2010PropOp55
 70
     1
102
RTVSPost2010Prop56
140
1.0
102
RTVSPost2010PropOp56
 70
     1
102
RTVSPost2010Prop57
140
1.0
102
RTVSPost2010PropOp57
 70
     1
  0
XRECORD
  5
23A
102
{ACAD_REACTORS
330
239
102
}
330
239
100
AcDbXrecord
280
     1
102
RTVSPost2010Prop28
280
     0
102
RTVSPost2010PropOp28
 70
     1
102
RTVSPost2010Prop29
280
     1
102
RTVSPost2010PropOp29
 70
     1
102
RTVSPost2010Prop30
280
     1
102
RTVSPost2010PropOp30
 70
     1
102
RTVSPost2010Prop31
280
     0
102
RTVSPost2010PropOp31
 70
     1
102
RTVSPost2010Prop32
280
     0
102
RTVSPost2010PropOp32
 70
     1
102
RTVSPost2010Prop33
280
     0
102
RTVSPost2010PropOp33
 70
     1
102
RTVSPost2010Prop34
280
     0
102
RTVSPost2010PropOp34
 70
     1
102
RTVSPost2010Prop35
280
     0
102
RTVSPost2010PropOp35
 70
     1
102
RTVSPost2010Prop36
280
     0
102
RTVSPost2010PropOp36
 70
     1
102
RTVSPost2010Prop37
 90
       50
102
RTVSPost2010PropOp37
 70
     1
102
RTVSPost2010Prop38
140
0.0
102
RTVSPost2010PropOp38
 70
     1
102
RTVSPost2010Prop39
140
1.0
102
RTVSPost2010PropOp39
 70
     1
102
RTVSPost2010Prop40
 90
        0
102
RTVSPost2010PropOp40
 70
     1
102
RTVSPost2010Prop41ColorIndex
 90
       18
102
RTVSPost2010Prop41ColorRGB
 90
        0
102
RTVSPost2010PropOp41
 70
     1
102
RTVSPost2010Prop42
 90
       50
102
RTVSPost2010PropOp42
 70
     1
102
RTVSPost2010Prop43
 90
        3
102
RTVSPost2010PropOp43
 70
     1
102
RTVSPost2010Prop44ColorIndex
 90
        5
102
RTVSPost2010Prop44ColorRGB
 90
      255
102
RTVSPost2010PropOp44
 70
     1
102
RTVSPost2010Prop45
280
     0
102
RTVSPost2010PropOp45
 70
     1
102
RTVSPost2010Prop46
 90
       50
102
RTVSPost2010PropOp46
 70
     1
102
RTVSPost2010Prop47
 90
       50
102
RTVSPost2010PropOp47
 70
     1
102
RTVSPost2010Prop48
 90
       50
102
RTVSPost2010PropOp48
 70
     1
102
RTVSPost2010Prop49
280
     0
102
RTVSPost2010PropOp49
 70
     1
102
RTVSPost2010Prop50
 90
       50
102
RTVSPost2010PropOp50
 70
     1
102
RTVSPost2010Prop51ColorIndex
 90
      256
102
RTVSPost2010Prop51ColorRGB
 90
-16777216
102
RTVSPost2010PropOp51
 70
     0
102
RTVSPost2010Prop52
140
1.0
102
RTVSPost2010PropOp52
 70
     0
102
RTVSPost2010Prop53
 90
        2
102
RTVSPost2010PropOp53
 70
     1
102
RTVSPost2010Prop54
  1
strokes_ogs.tif
102
RTVSPost2010PropOp54
 70
     1
102
RTVSPost2010Prop55
280
     0
102
RTVSPost2010PropOp55
 70
     1
102
RTVSPost2010Prop56
140
1.0
102
RTVSPost2010PropOp56
 70
     1
102
RTVSPost2010Prop57
140
1.0
102
RTVSPost2010PropOp57
 70
     1
  0
XRECORD
  5
256
102
{ACAD_REACTORS
330
255
102
}
330
255
100
AcDbXrecord
280
     1
102
RTVSPost2010Prop28
280
     0
102
RTVSPost2010PropOp28
 70
     0
102
RTVSPost2010Prop29
280
     1
102
RTVSPost2010PropOp29
 70
     0
102
RTVSPost2010Prop30
280
     1
102
RTVSPost2010PropOp30
 70
     0
102
RTVSPost2010Prop31
280
     0
102
RTVSPost2010PropOp31
 70
     0
102
RTVSPost2010Prop32
280
     0
102
RTVSPost2010PropOp32
 70
     0
102
RTVSPost2010Prop33
280
     0
102
RTVSPost2010PropOp33
 70
     0
102
RTVSPost2010Prop34
280
     0
102
RTVSPost2010PropOp34
 70
     0
102
RTVSPost2010Prop35
280
     0
102
RTVSPost2010PropOp35
 70
     0
102
RTVSPost2010Prop36
280
     0
102
RTVSPost2010PropOp36
 70
     0
102
RTVSPost2010Prop37
 90
       50
102
RTVSPost2010PropOp37
 70
     0
102
RTVSPost2010Prop38
140
0.0
102
RTVSPost2010PropOp38
 70
     0
102
RTVSPost2010Prop39
140
1.0
102
RTVSPost2010PropOp39
 70
     0
102
RTVSPost2010Prop40
 90
        0
102
RTVSPost2010PropOp40
 70
     0
102
RTVSPost2010Prop41ColorIndex
 90
       18
102
RTVSPost2010Prop41ColorRGB
 90
        0
102
RTVSPost2010PropOp41
 70
     0
102
RTVSPost2010Prop42
 90
       50
102
RTVSPost2010PropOp42
 70
     0
102
RTVSPost2010Prop43
 90
        3
102
RTVSPost2010PropOp43
 70
     0
102
RTVSPost2010Prop44ColorIndex
 90
        5
102
RTVSPost2010Prop44ColorRGB
 90
      255
102
RTVSPost2010PropOp44
 70
     0
102
RTVSPost2010Prop45
280
     0
102
RTVSPost2010PropOp45
 70
     0
102
RTVSPost2010Prop46
 90
       50
102
RTVSPost2010PropOp46
 70
     0
102
RTVSPost2010Prop47
 90
       50
102
RTVSPost2010PropOp47
 70
     0
102
RTVSPost2010Prop48
 90
       50
102
RTVSPost2010PropOp48
 70
     0
102
RTVSPost2010Prop49
280
     0
102
RTVSPost2010PropOp49
 70
     0
102
RTVSPost2010Prop50
 90
       50
102
RTVSPost2010PropOp50
 70
     0
102
RTVSPost2010Prop51ColorIndex
 90
      256
102
RTVSPost2010Prop51ColorRGB
 90
-16777216
102
RTVSPost2010PropOp51
 70
     0
102
RTVSPost2010Prop52
140
1.0
102
RTVSPost2010PropOp52
 70
     0
102
RTVSPost2010Prop53
 90
        2
102
RTVSPost2010PropOp53
 70
     0
102
RTVSPost2010Prop54
  1
strokes_ogs.tif
102
RTVSPost2010PropOp54
 70
     0
102
RTVSPost2010Prop55
280
     0
102
RTVSPost2010PropOp55
 70
     0
102
RTVSPost2010Prop56
140
1.0
102
RTVSPost2010PropOp56
 70
     0
102
RTVSPost2010Prop57
140
1.0
102
RTVSPost2010PropOp57
 70
     0
  0
XRECORD
  5
246
102
{ACAD_REACTORS
330
245
102
}
330
245
100
AcDbXrecord
280
     1
102
RTVSPost2010Prop28
280
     0
102
RTVSPost2010PropOp28
 70
     1
102
RTVSPost2010Prop29
280
     1
102
RTVSPost2010PropOp29
 70
     1
102
RTVSPost2010Prop30
280
     1
102
RTVSPost2010PropOp30
 70
     1
102
RTVSPost2010Prop31
280
     0
102
RTVSPost2010PropOp31
 70
     1
102
RTVSPost2010Prop32
280
     0
102
RTVSPost2010PropOp32
 70
     1
102
RTVSPost2010Prop33
280
     0
102
RTVSPost2010PropOp33
 70
     1
102
RTVSPost2010Prop34
280
     0
102
RTVSPost2010PropOp34
 70
     1
102
RTVSPost2010Prop35
280
     0
102
RTVSPost2010PropOp35
 70
     1
102
RTVSPost2010Prop36
280
     0
102
RTVSPost2010PropOp36
 70
     1
102
RTVSPost2010Prop37
 90
       50
102
RTVSPost2010PropOp37
 70
     1
102
RTVSPost2010Prop38
140
0.0
102
RTVSPost2010PropOp38
 70
     1
102
RTVSPost2010Prop39
140
1.0
102
RTVSPost2010PropOp39
 70
     1
102
RTVSPost2010Prop40
 90
        0
102
RTVSPost2010PropOp40
 70
     1
102
RTVSPost2010Prop41ColorIndex
 90
       18
102
RTVSPost2010Prop41ColorRGB
 90
        0
102
RTVSPost2010PropOp41
 70
     1
102
RTVSPost2010Prop42
 90
       50
102
RTVSPost2010PropOp42
 70
     1
102
RTVSPost2010Prop43
 90
        3
102
RTVSPost2010PropOp43
 70
     1
102
RTVSPost2010Prop44ColorIndex
 90
        5
102
RTVSPost2010Prop44ColorRGB
 90
      255
102
RTVSPost2010PropOp44
 70
     1
102
RTVSPost2010Prop45
280
     0
102
RTVSPost2010PropOp45
 70
     1
102
RTVSPost2010Prop46
 90
       50
102
RTVSPost2010PropOp46
 70
     1
102
RTVSPost2010Prop47
 90
       50
102
RTVSPost2010PropOp47
 70
     1
102
RTVSPost2010Prop48
 90
       50
102
RTVSPost2010PropOp48
 70
     1
102
RTVSPost2010Prop49
280
     0
102
RTVSPost2010PropOp49
 70
     1
102
RTVSPost2010Prop50
 90
       50
102
RTVSPost2010PropOp50
 70
     1
102
RTVSPost2010Prop51ColorIndex
 90
      256
102
RTVSPost2010Prop51ColorRGB
 90
-16777216
102
RTVSPost2010PropOp51
 70
     0
102
RTVSPost2010Prop52
140
1.0
102
RTVSPost2010PropOp52
 70
     0
102
RTVSPost2010Prop53
 90
        2
102
RTVSPost2010PropOp53
 70
     1
102
RTVSPost2010Prop54
  1
strokes_ogs.tif
102
RTVSPost2010PropOp54
 70
     1
102
RTVSPost2010Prop55
280
     0
102
RTVSPost2010PropOp55
 70
     1
102
RTVSPost2010Prop56
140
1.0
102
RTVSPost2010PropOp56
 70
     1
102
RTVSPost2010Prop57
140
1.0
102
RTVSPost2010PropOp57
 70
     1
  0
XRECORD
  5
258
102
{ACAD_REACTORS
330
257
102
}
330
257
100
AcDbXrecord
280
     1
102
RTVSPost2010Prop28
280
     0
102
RTVSPost2010PropOp28
 70
     0
102
RTVSPost2010Prop29
280
     1
102
RTVSPost2010PropOp29
 70
     0
102
RTVSPost2010Prop30
280
     1
102
RTVSPost2010PropOp30
 70
     0
102
RTVSPost2010Prop31
280
     0
102
RTVSPost2010PropOp31
 70
     0
102
RTVSPost2010Prop32
280
     0
102
RTVSPost2010PropOp32
 70
     0
102
RTVSPost2010Prop33
280
     0
102
RTVSPost2010PropOp33
 70
     0
102
RTVSPost2010Prop34
280
     0
102
RTVSPost2010PropOp34
 70
     0
102
RTVSPost2010Prop35
280
     0
102
RTVSPost2010PropOp35
 70
     0
102
RTVSPost2010Prop36
280
     0
102
RTVSPost2010PropOp36
 70
     0
102
RTVSPost2010Prop37
 90
       50
102
RTVSPost2010PropOp37
 70
     0
102
RTVSPost2010Prop38
140
0.0
102
RTVSPost2010PropOp38
 70
     0
102
RTVSPost2010Prop39
140
1.0
102
RTVSPost2010PropOp39
 70
     0
102
RTVSPost2010Prop40
 90
        0
102
RTVSPost2010PropOp40
 70
     0
102
RTVSPost2010Prop41ColorIndex
 90
       18
102
RTVSPost2010Prop41ColorRGB
 90
        0
102
RTVSPost2010PropOp41
 70
     0
102
RTVSPost2010Prop42
 90
       50
102
RTVSPost2010PropOp42
 70
     0
102
RTVSPost2010Prop43
 90
        3
102
RTVSPost2010PropOp43
 70
     0
102
RTVSPost2010Prop44ColorIndex
 90
        5
102
RTVSPost2010Prop44ColorRGB
 90
      255
102
RTVSPost2010PropOp44
 70
     0
102
RTVSPost2010Prop45
280
     0
102
RTVSPost2010PropOp45
 70
     0
102
RTVSPost2010Prop46
 90
       50
102
RTVSPost2010PropOp46
 70
     0
102
RTVSPost2010Prop47
 90
       50
102
RTVSPost2010PropOp47
 70
     0
102
RTVSPost2010Prop48
 90
       50
102
RTVSPost2010PropOp48
 70
     0
102
RTVSPost2010Prop49
280
     0
102
RTVSPost2010PropOp49
 70
     0
102
RTVSPost2010Prop50
 90
       50
102
RTVSPost2010PropOp50
 70
     0
102
RTVSPost2010Prop51ColorIndex
 90
      256
102
RTVSPost2010Prop51ColorRGB
 90
-16777216
102
RTVSPost2010PropOp51
 70
     0
102
RTVSPost2010Prop52
140
1.0
102
RTVSPost2010PropOp52
 70
     0
102
RTVSPost2010Prop53
 90
        2
102
RTVSPost2010PropOp53
 70
     0
102
RTVSPost2010Prop54
  1
strokes_ogs.tif
102
RTVSPost2010PropOp54
 70
     0
102
RTVSPost2010Prop55
280
     0
102
RTVSPost2010PropOp55
 70
     0
102
RTVSPost2010Prop56
140
1.0
102
RTVSPost2010PropOp56
 70
     0
102
RTVSPost2010Prop57
140
1.0
102
RTVSPost2010PropOp57
 70
     0
  0
XRECORD
  5
23E
102
{ACAD_REACTORS
330
23D
102
}
330
23D
100
AcDbXrecord
280
     1
102
RTVSPost2010Prop28
280
     0
102
RTVSPost2010PropOp28
 70
     1
102
RTVSPost2010Prop29
280
     1
102
RTVSPost2010PropOp29
 70
     1
102
RTVSPost2010Prop30
280
     1
102
RTVSPost2010PropOp30
 70
     1
102
RTVSPost2010Prop31
280
     0
102
RTVSPost2010PropOp31
 70
     1
102
RTVSPost2010Prop32
280
     0
102
RTVSPost2010PropOp32
 70
     1
102
RTVSPost2010Prop33
280
     0
102
RTVSPost2010PropOp33
 70
     1
102
RTVSPost2010Prop34
280
     0
102
RTVSPost2010PropOp34
 70
     1
102
RTVSPost2010Prop35
280
     0
102
RTVSPost2010PropOp35
 70
     1
102
RTVSPost2010Prop36
280
     0
102
RTVSPost2010PropOp36
 70
     1
102
RTVSPost2010Prop37
 90
       50
102
RTVSPost2010PropOp37
 70
     1
102
RTVSPost2010Prop38
140
0.0
102
RTVSPost2010PropOp38
 70
     1
102
RTVSPost2010Prop39
140
1.0
102
RTVSPost2010PropOp39
 70
     1
102
RTVSPost2010Prop40
 90
        0
102
RTVSPost2010PropOp40
 70
     1
102
RTVSPost2010Prop41ColorIndex
 90
       18
102
RTVSPost2010Prop41ColorRGB
 90
        0
102
RTVSPost2010PropOp41
 70
     1
102
RTVSPost2010Prop42
 90
       50
102
RTVSPost2010PropOp42
 70
     1
102
RTVSPost2010Prop43
 90
        3
102
RTVSPost2010PropOp43
 70
     1
102
RTVSPost2010Prop44ColorIndex
 90
        5
102
RTVSPost2010Prop44ColorRGB
 90
      255
102
RTVSPost2010PropOp44
 70
     1
102
RTVSPost2010Prop45
280
     0
102
RTVSPost2010PropOp45
 70
     1
102
RTVSPost2010Prop46
 90
       50
102
RTVSPost2010PropOp46
 70
     1
102
RTVSPost2010Prop47
 90
       50
102
RTVSPost2010PropOp47
 70
     1
102
RTVSPost2010Prop48
 90
       50
102
RTVSPost2010PropOp48
 70
     1
102
RTVSPost2010Prop49
280
     0
102
RTVSPost2010PropOp49
 70
     1
102
RTVSPost2010Prop50
 90
       50
102
RTVSPost2010PropOp50
 70
     1
102
RTVSPost2010Prop51ColorIndex
 90
      256
102
RTVSPost2010Prop51ColorRGB
 90
-16777216
102
RTVSPost2010PropOp51
 70
     0
102
RTVSPost2010Prop52
140
1.0
102
RTVSPost2010PropOp52
 70
     0
102
RTVSPost2010Prop53
 90
        2
102
RTVSPost2010PropOp53
 70
     1
102
RTVSPost2010Prop54
  1
strokes_ogs.tif
102
RTVSPost2010PropOp54
 70
     1
102
RTVSPost2010Prop55
280
     0
102
RTVSPost2010PropOp55
 70
     1
102
RTVSPost2010Prop56
140
1.0
102
RTVSPost2010PropOp56
 70
     1
102
RTVSPost2010Prop57
140
1.0
102
RTVSPost2010PropOp57
 70
     1
  0
XRECORD
  5
254
102
{ACAD_REACTORS
330
253
102
}
330
253
100
AcDbXrecord
280
     1
102
RTVSPost2010Prop28
280
     0
102
RTVSPost2010PropOp28
 70
     1
102
RTVSPost2010Prop29
280
     1
102
RTVSPost2010PropOp29
 70
     1
102
RTVSPost2010Prop30
280
     1
102
RTVSPost2010PropOp30
 70
     1
102
RTVSPost2010Prop31
280
     0
102
RTVSPost2010PropOp31
 70
     1
102
RTVSPost2010Prop32
280
     0
102
RTVSPost2010PropOp32
 70
     1
102
RTVSPost2010Prop33
280
     0
102
RTVSPost2010PropOp33
 70
     1
102
RTVSPost2010Prop34
280
     0
102
RTVSPost2010PropOp34
 70
     1
102
RTVSPost2010Prop35
280
     0
102
RTVSPost2010PropOp35
 70
     1
102
RTVSPost2010Prop36
280
     0
102
RTVSPost2010PropOp36
 70
     1
102
RTVSPost2010Prop37
 90
       50
102
RTVSPost2010PropOp37
 70
     1
102
RTVSPost2010Prop38
140
0.0
102
RTVSPost2010PropOp38
 70
     1
102
RTVSPost2010Prop39
140
1.0
102
RTVSPost2010PropOp39
 70
     1
102
RTVSPost2010Prop40
 90
        0
102
RTVSPost2010PropOp40
 70
     1
102
RTVSPost2010Prop41ColorIndex
 90
       18
102
RTVSPost2010Prop41ColorRGB
 90
        0
102
RTVSPost2010PropOp41
 70
     1
102
RTVSPost2010Prop42
 90
       50
102
RTVSPost2010PropOp42
 70
     1
102
RTVSPost2010Prop43
 90
        3
102
RTVSPost2010PropOp43
 70
     1
102
RTVSPost2010Prop44ColorIndex
 90
        5
102
RTVSPost2010Prop44ColorRGB
 90
      255
102
RTVSPost2010PropOp44
 70
     1
102
RTVSPost2010Prop45
280
     0
102
RTVSPost2010PropOp45
 70
     1
102
RTVSPost2010Prop46
 90
       50
102
RTVSPost2010PropOp46
 70
     1
102
RTVSPost2010Prop47
 90
       50
102
RTVSPost2010PropOp47
 70
     1
102
RTVSPost2010Prop48
 90
       50
102
RTVSPost2010PropOp48
 70
     1
102
RTVSPost2010Prop49
280
     0
102
RTVSPost2010PropOp49
 70
     1
102
RTVSPost2010Prop50
 90
       50
102
RTVSPost2010PropOp50
 70
     1
102
RTVSPost2010Prop51ColorIndex
 90
      256
102
RTVSPost2010Prop51ColorRGB
 90
-16777216
102
RTVSPost2010PropOp51
 70
     0
102
RTVSPost2010Prop52
140
1.0
102
RTVSPost2010PropOp52
 70
     0
102
RTVSPost2010Prop53
 90
        2
102
RTVSPost2010PropOp53
 70
     1
102
RTVSPost2010Prop54
  1
strokes_ogs.tif
102
RTVSPost2010PropOp54
 70
     1
102
RTVSPost2010Prop55
280
     0
102
RTVSPost2010PropOp55
 70
     1
102
RTVSPost2010Prop56
140
1.0
102
RTVSPost2010PropOp56
 70
     1
102
RTVSPost2010Prop57
140
1.0
102
RTVSPost2010PropOp57
 70
     1
  0
XRECORD
  5
252
102
{ACAD_REACTORS
330
251
102
}
330
251
100
AcDbXrecord
280
     1
102
RTVSPost2010Prop28
280
     0
102
RTVSPost2010PropOp28
 70
     1
102
RTVSPost2010Prop29
280
     1
102
RTVSPost2010PropOp29
 70
     1
102
RTVSPost2010Prop30
280
     1
102
RTVSPost2010PropOp30
 70
     1
102
RTVSPost2010Prop31
280
     0
102
RTVSPost2010PropOp31
 70
     1
102
RTVSPost2010Prop32
280
     0
102
RTVSPost2010PropOp32
 70
     1
102
RTVSPost2010Prop33
280
     0
102
RTVSPost2010PropOp33
 70
     1
102
RTVSPost2010Prop34
280
     0
102
RTVSPost2010PropOp34
 70
     1
102
RTVSPost2010Prop35
280
     0
102
RTVSPost2010PropOp35
 70
     1
102
RTVSPost2010Prop36
280
     0
102
RTVSPost2010PropOp36
 70
     1
102
RTVSPost2010Prop37
 90
       50
102
RTVSPost2010PropOp37
 70
     1
102
RTVSPost2010Prop38
140
0.0
102
RTVSPost2010PropOp38
 70
     1
102
RTVSPost2010Prop39
140
1.0
102
RTVSPost2010PropOp39
 70
     1
102
RTVSPost2010Prop40
 90
        0
102
RTVSPost2010PropOp40
 70
     1
102
RTVSPost2010Prop41ColorIndex
 90
       18
102
RTVSPost2010Prop41ColorRGB
 90
        0
102
RTVSPost2010PropOp41
 70
     1
102
RTVSPost2010Prop42
 90
       50
102
RTVSPost2010PropOp42
 70
     1
102
RTVSPost2010Prop43
 90
        3
102
RTVSPost2010PropOp43
 70
     1
102
RTVSPost2010Prop44ColorIndex
 90
        5
102
RTVSPost2010Prop44ColorRGB
 90
      255
102
RTVSPost2010PropOp44
 70
     1
102
RTVSPost2010Prop45
280
     0
102
RTVSPost2010PropOp45
 70
     1
102
RTVSPost2010Prop46
 90
       50
102
RTVSPost2010PropOp46
 70
     1
102
RTVSPost2010Prop47
 90
       50
102
RTVSPost2010PropOp47
 70
     1
102
RTVSPost2010Prop48
 90
       50
102
RTVSPost2010PropOp48
 70
     1
102
RTVSPost2010Prop49
280
     0
102
RTVSPost2010PropOp49
 70
     1
102
RTVSPost2010Prop50
 90
       50
102
RTVSPost2010PropOp50
 70
     1
102
RTVSPost2010Prop51ColorIndex
 90
      256
102
RTVSPost2010Prop51ColorRGB
 90
-16777216
102
RTVSPost2010PropOp51
 70
     0
102
RTVSPost2010Prop52
140
1.0
102
RTVSPost2010PropOp52
 70
     0
102
RTVSPost2010Prop53
 90
        2
102
RTVSPost2010PropOp53
 70
     1
102
RTVSPost2010Prop54
  1
strokes_ogs.tif
102
RTVSPost2010PropOp54
 70
     1
102
RTVSPost2010Prop55
280
     0
102
RTVSPost2010PropOp55
 70
     1
102
RTVSPost2010Prop56
140
1.0
102
RTVSPost2010PropOp56
 70
     1
102
RTVSPost2010Prop57
140
1.0
102
RTVSPost2010PropOp57
 70
     1
  0
XRECORD
  5
24C
102
{ACAD_REACTORS
330
24B
102
}
330
24B
100
AcDbXrecord
280
     1
102
RTVSPost2010Prop28
280
     0
102
RTVSPost2010PropOp28
 70
     1
102
RTVSPost2010Prop29
280
     1
102
RTVSPost2010PropOp29
 70
     1
102
RTVSPost2010Prop30
280
     1
102
RTVSPost2010PropOp30
 70
     1
102
RTVSPost2010Prop31
280
     0
102
RTVSPost2010PropOp31
 70
     1
102
RTVSPost2010Prop32
280
     0
102
RTVSPost2010PropOp32
 70
     1
102
RTVSPost2010Prop33
280
     0
102
RTVSPost2010PropOp33
 70
     1
102
RTVSPost2010Prop34
280
     0
102
RTVSPost2010PropOp34
 70
     1
102
RTVSPost2010Prop35
280
     0
102
RTVSPost2010PropOp35
 70
     1
102
RTVSPost2010Prop36
280
     0
102
RTVSPost2010PropOp36
 70
     1
102
RTVSPost2010Prop37
 90
       50
102
RTVSPost2010PropOp37
 70
     1
102
RTVSPost2010Prop38
140
0.0
102
RTVSPost2010PropOp38
 70
     1
102
RTVSPost2010Prop39
140
1.0
102
RTVSPost2010PropOp39
 70
     1
102
RTVSPost2010Prop40
 90
        0
102
RTVSPost2010PropOp40
 70
     1
102
RTVSPost2010Prop41ColorIndex
 90
       18
102
RTVSPost2010Prop41ColorRGB
 90
        0
102
RTVSPost2010PropOp41
 70
     1
102
RTVSPost2010Prop42
 90
       50
102
RTVSPost2010PropOp42
 70
     1
102
RTVSPost2010Prop43
 90
        3
102
RTVSPost2010PropOp43
 70
     1
102
RTVSPost2010Prop44ColorIndex
 90
        5
102
RTVSPost2010Prop44ColorRGB
 90
      255
102
RTVSPost2010PropOp44
 70
     1
102
RTVSPost2010Prop45
280
     0
102
RTVSPost2010PropOp45
 70
     1
102
RTVSPost2010Prop46
 90
       50
102
RTVSPost2010PropOp46
 70
     1
102
RTVSPost2010Prop47
 90
       50
102
RTVSPost2010PropOp47
 70
     1
102
RTVSPost2010Prop48
 90
       50
102
RTVSPost2010PropOp48
 70
     1
102
RTVSPost2010Prop49
280
     0
102
RTVSPost2010PropOp49
 70
     1
102
RTVSPost2010Prop50
 90
       50
102
RTVSPost2010PropOp50
 70
     1
102
RTVSPost2010Prop51ColorIndex
 90
      256
102
RTVSPost2010Prop51ColorRGB
 90
-16777216
102
RTVSPost2010PropOp51
 70
     0
102
RTVSPost2010Prop52
140
1.0
102
RTVSPost2010PropOp52
 70
     0
102
RTVSPost2010Prop53
 90
        2
102
RTVSPost2010PropOp53
 70
     1
102
RTVSPost2010Prop54
  1
strokes_ogs.tif
102
RTVSPost2010PropOp54
 70
     1
102
RTVSPost2010Prop55
280
     0
102
RTVSPost2010PropOp55
 70
     1
102
RTVSPost2010Prop56
140
1.0
102
RTVSPost2010PropOp56
 70
     1
102
RTVSPost2010Prop57
140
1.0
102
RTVSPost2010PropOp57
 70
     1
  0
XRECORD
  5
24E
102
{ACAD_REACTORS
330
24D
102
}
330
24D
100
AcDbXrecord
280
     1
102
RTVSPost2010Prop28
280
     0
102
RTVSPost2010PropOp28
 70
     1
102
RTVSPost2010Prop29
280
     1
102
RTVSPost2010PropOp29
 70
     1
102
RTVSPost2010Prop30
280
     1
102
RTVSPost2010PropOp30
 70
     1
102
RTVSPost2010Prop31
280
     0
102
RTVSPost2010PropOp31
 70
     1
102
RTVSPost2010Prop32
280
     0
102
RTVSPost2010PropOp32
 70
     1
102
RTVSPost2010Prop33
280
     0
102
RTVSPost2010PropOp33
 70
     1
102
RTVSPost2010Prop34
280
     0
102
RTVSPost2010PropOp34
 70
     1
102
RTVSPost2010Prop35
280
     0
102
RTVSPost2010PropOp35
 70
     1
102
RTVSPost2010Prop36
280
     0
102
RTVSPost2010PropOp36
 70
     1
102
RTVSPost2010Prop37
 90
       50
102
RTVSPost2010PropOp37
 70
     1
102
RTVSPost2010Prop38
140
0.0
102
RTVSPost2010PropOp38
 70
     1
102
RTVSPost2010Prop39
140
1.0
102
RTVSPost2010PropOp39
 70
     1
102
RTVSPost2010Prop40
 90
        0
102
RTVSPost2010PropOp40
 70
     1
102
RTVSPost2010Prop41ColorIndex
 90
       18
102
RTVSPost2010Prop41ColorRGB
 90
        0
102
RTVSPost2010PropOp41
 70
     1
102
RTVSPost2010Prop42
 90
       50
102
RTVSPost2010PropOp42
 70
     1
102
RTVSPost2010Prop43
 90
        3
102
RTVSPost2010PropOp43
 70
     1
102
RTVSPost2010Prop44ColorIndex
 90
        5
102
RTVSPost2010Prop44ColorRGB
 90
      255
102
RTVSPost2010PropOp44
 70
     1
102
RTVSPost2010Prop45
280
     0
102
RTVSPost2010PropOp45
 70
     1
102
RTVSPost2010Prop46
 90
       50
102
RTVSPost2010PropOp46
 70
     1
102
RTVSPost2010Prop47
 90
       50
102
RTVSPost2010PropOp47
 70
     1
102
RTVSPost2010Prop48
 90
       50
102
RTVSPost2010PropOp48
 70
     1
102
RTVSPost2010Prop49
280
     0
102
RTVSPost2010PropOp49
 70
     1
102
RTVSPost2010Prop50
 90
       50
102
RTVSPost2010PropOp50
 70
     1
102
RTVSPost2010Prop51ColorIndex
 90
      256
102
RTVSPost2010Prop51ColorRGB
 90
-16777216
102
RTVSPost2010PropOp51
 70
     0
102
RTVSPost2010Prop52
140
1.0
102
RTVSPost2010PropOp52
 70
     0
102
RTVSPost2010Prop53
 90
        2
102
RTVSPost2010PropOp53
 70
     1
102
RTVSPost2010Prop54
  1
strokes_ogs.tif
102
RTVSPost2010PropOp54
 70
     1
102
RTVSPost2010Prop55
280
     0
102
RTVSPost2010PropOp55
 70
     1
102
RTVSPost2010Prop56
140
1.0
102
RTVSPost2010PropOp56
 70
     1
102
RTVSPost2010Prop57
140
1.0
102
RTVSPost2010PropOp57
 70
     1
  0
XRECORD
  5
244
102
{ACAD_REACTORS
330
243
102
}
330
243
100
AcDbXrecord
280
     1
102
RTVSPost2010Prop28
280
     0
102
RTVSPost2010PropOp28
 70
     1
102
RTVSPost2010Prop29
280
     1
102
RTVSPost2010PropOp29
 70
     1
102
RTVSPost2010Prop30
280
     1
102
RTVSPost2010PropOp30
 70
     1
102
RTVSPost2010Prop31
280
     0
102
RTVSPost2010PropOp31
 70
     1
102
RTVSPost2010Prop32
280
     0
102
RTVSPost2010PropOp32
 70
     1
102
RTVSPost2010Prop33
280
     0
102
RTVSPost2010PropOp33
 70
     1
102
RTVSPost2010Prop34
280
     0
102
RTVSPost2010PropOp34
 70
     1
102
RTVSPost2010Prop35
280
     0
102
RTVSPost2010PropOp35
 70
     1
102
RTVSPost2010Prop36
280
     0
102
RTVSPost2010PropOp36
 70
     1
102
RTVSPost2010Prop37
 90
       50
102
RTVSPost2010PropOp37
 70
     1
102
RTVSPost2010Prop38
140
0.0
102
RTVSPost2010PropOp38
 70
     1
102
RTVSPost2010Prop39
140
1.0
102
RTVSPost2010PropOp39
 70
     1
102
RTVSPost2010Prop40
 90
        0
102
RTVSPost2010PropOp40
 70
     1
102
RTVSPost2010Prop41ColorIndex
 90
       18
102
RTVSPost2010Prop41ColorRGB
 90
        0
102
RTVSPost2010PropOp41
 70
     1
102
RTVSPost2010Prop42
 90
       50
102
RTVSPost2010PropOp42
 70
     1
102
RTVSPost2010Prop43
 90
        3
102
RTVSPost2010PropOp43
 70
     1
102
RTVSPost2010Prop44ColorIndex
 90
        5
102
RTVSPost2010Prop44ColorRGB
 90
      255
102
RTVSPost2010PropOp44
 70
     1
102
RTVSPost2010Prop45
280
     0
102
RTVSPost2010PropOp45
 70
     1
102
RTVSPost2010Prop46
 90
       50
102
RTVSPost2010PropOp46
 70
     1
102
RTVSPost2010Prop47
 90
       50
102
RTVSPost2010PropOp47
 70
     1
102
RTVSPost2010Prop48
 90
       50
102
RTVSPost2010PropOp48
 70
     1
102
RTVSPost2010Prop49
280
     0
102
RTVSPost2010PropOp49
 70
     1
102
RTVSPost2010Prop50
 90
       50
102
RTVSPost2010PropOp50
 70
     1
102
RTVSPost2010Prop51ColorIndex
 90
      256
102
RTVSPost2010Prop51ColorRGB
 90
-16777216
102
RTVSPost2010PropOp51
 70
     0
102
RTVSPost2010Prop52
140
1.0
102
RTVSPost2010PropOp52
 70
     0
102
RTVSPost2010Prop53
 90
        2
102
RTVSPost2010PropOp53
 70
     1
102
RTVSPost2010Prop54
  1
strokes_ogs.tif
102
RTVSPost2010PropOp54
 70
     1
102
RTVSPost2010Prop55
280
     0
102
RTVSPost2010PropOp55
 70
     1
102
RTVSPost2010Prop56
140
1.0
102
RTVSPost2010PropOp56
 70
     1
102
RTVSPost2010Prop57
140
1.0
102
RTVSPost2010PropOp57
 70
     1
  0
XRECORD
  5
238
102
{ACAD_REACTORS
330
237
102
}
330
237
100
AcDbXrecord
280
     1
102
RTVSPost2010Prop28
280
     0
102
RTVSPost2010PropOp28
 70
     1
102
RTVSPost2010Prop29
280
     1
102
RTVSPost2010PropOp29
 70
     1
102
RTVSPost2010Prop30
280
     1
102
RTVSPost2010PropOp30
 70
     1
102
RTVSPost2010Prop31
280
     0
102
RTVSPost2010PropOp31
 70
     1
102
RTVSPost2010Prop32
280
     0
102
RTVSPost2010PropOp32
 70
     1
102
RTVSPost2010Prop33
280
     0
102
RTVSPost2010PropOp33
 70
     1
102
RTVSPost2010Prop34
280
     0
102
RTVSPost2010PropOp34
 70
     1
102
RTVSPost2010Prop35
280
     0
102
RTVSPost2010PropOp35
 70
     1
102
RTVSPost2010Prop36
280
     0
102
RTVSPost2010PropOp36
 70
     1
102
RTVSPost2010Prop37
 90
       50
102
RTVSPost2010PropOp37
 70
     1
102
RTVSPost2010Prop38
140
0.0
102
RTVSPost2010PropOp38
 70
     1
102
RTVSPost2010Prop39
140
1.0
102
RTVSPost2010PropOp39
 70
     1
102
RTVSPost2010Prop40
 90
        0
102
RTVSPost2010PropOp40
 70
     1
102
RTVSPost2010Prop41ColorIndex
 90
       18
102
RTVSPost2010Prop41ColorRGB
 90
        0
102
RTVSPost2010PropOp41
 70
     1
102
RTVSPost2010Prop42
 90
       50
102
RTVSPost2010PropOp42
 70
     1
102
RTVSPost2010Prop43
 90
        3
102
RTVSPost2010PropOp43
 70
     1
102
RTVSPost2010Prop44ColorIndex
 90
        5
102
RTVSPost2010Prop44ColorRGB
 90
      255
102
RTVSPost2010PropOp44
 70
     1
102
RTVSPost2010Prop45
280
     0
102
RTVSPost2010PropOp45
 70
     1
102
RTVSPost2010Prop46
 90
       50
102
RTVSPost2010PropOp46
 70
     1
102
RTVSPost2010Prop47
 90
       50
102
RTVSPost2010PropOp47
 70
     1
102
RTVSPost2010Prop48
 90
       50
102
RTVSPost2010PropOp48
 70
     1
102
RTVSPost2010Prop49
280
     0
102
RTVSPost2010PropOp49
 70
     1
102
RTVSPost2010Prop50
 90
       50
102
RTVSPost2010PropOp50
 70
     1
102
RTVSPost2010Prop51ColorIndex
 90
      256
102
RTVSPost2010Prop51ColorRGB
 90
-16777216
102
RTVSPost2010PropOp51
 70
     0
102
RTVSPost2010Prop52
140
1.0
102
RTVSPost2010PropOp52
 70
     0
102
RTVSPost2010Prop53
 90
        2
102
RTVSPost2010PropOp53
 70
     1
102
RTVSPost2010Prop54
  1
strokes_ogs.tif
102
RTVSPost2010PropOp54
 70
     1
102
RTVSPost2010Prop55
280
     0
102
RTVSPost2010PropOp55
 70
     1
102
RTVSPost2010Prop56
140
1.0
102
RTVSPost2010PropOp56
 70
     1
102
RTVSPost2010Prop57
140
1.0
102
RTVSPost2010PropOp57
 70
     1
  0
XRECORD
  5
250
102
{ACAD_REACTORS
330
24F
102
}
330
24F
100
AcDbXrecord
280
     1
102
RTVSPost2010Prop28
280
     0
102
RTVSPost2010PropOp28
 70
     1
102
RTVSPost2010Prop29
280
     1
102
RTVSPost2010PropOp29
 70
     1
102
RTVSPost2010Prop30
280
     1
102
RTVSPost2010PropOp30
 70
     1
102
RTVSPost2010Prop31
280
     0
102
RTVSPost2010PropOp31
 70
     1
102
RTVSPost2010Prop32
280
     0
102
RTVSPost2010PropOp32
 70
     1
102
RTVSPost2010Prop33
280
     0
102
RTVSPost2010PropOp33
 70
     1
102
RTVSPost2010Prop34
280
     0
102
RTVSPost2010PropOp34
 70
     1
102
RTVSPost2010Prop35
280
     0
102
RTVSPost2010PropOp35
 70
     1
102
RTVSPost2010Prop36
280
     0
102
RTVSPost2010PropOp36
 70
     1
102
RTVSPost2010Prop37
 90
       50
102
RTVSPost2010PropOp37
 70
     1
102
RTVSPost2010Prop38
140
0.0
102
RTVSPost2010PropOp38
 70
     1
102
RTVSPost2010Prop39
140
1.0
102
RTVSPost2010PropOp39
 70
     1
102
RTVSPost2010Prop40
 90
        0
102
RTVSPost2010PropOp40
 70
     1
102
RTVSPost2010Prop41ColorIndex
 90
       18
102
RTVSPost2010Prop41ColorRGB
 90
        0
102
RTVSPost2010PropOp41
 70
     1
102
RTVSPost2010Prop42
 90
       50
102
RTVSPost2010PropOp42
 70
     1
102
RTVSPost2010Prop43
 90
        3
102
RTVSPost2010PropOp43
 70
     1
102
RTVSPost2010Prop44ColorIndex
 90
        5
102
RTVSPost2010Prop44ColorRGB
 90
      255
102
RTVSPost2010PropOp44
 70
     1
102
RTVSPost2010Prop45
280
     0
102
RTVSPost2010PropOp45
 70
     1
102
RTVSPost2010Prop46
 90
       50
102
RTVSPost2010PropOp46
 70
     1
102
RTVSPost2010Prop47
 90
       50
102
RTVSPost2010PropOp47
 70
     1
102
RTVSPost2010Prop48
 90
       50
102
RTVSPost2010PropOp48
 70
     1
102
RTVSPost2010Prop49
280
     0
102
RTVSPost2010PropOp49
 70
     1
102
RTVSPost2010Prop50
 90
       50
102
RTVSPost2010PropOp50
 70
     1
102
RTVSPost2010Prop51ColorIndex
 90
      256
102
RTVSPost2010Prop51ColorRGB
 90
-16777216
102
RTVSPost2010PropOp51
 70
     0
102
RTVSPost2010Prop52
140
1.0
102
RTVSPost2010PropOp52
 70
     0
102
RTVSPost2010Prop53
 90
        2
102
RTVSPost2010PropOp53
 70
     1
102
RTVSPost2010Prop54
  1
strokes_ogs.tif
102
RTVSPost2010PropOp54
 70
     1
102
RTVSPost2010Prop55
280
     0
102
RTVSPost2010PropOp55
 70
     1
102
RTVSPost2010Prop56
140
1.0
102
RTVSPost2010PropOp56
 70
     1
102
RTVSPost2010Prop57
140
1.0
102
RTVSPost2010PropOp57
 70
     1
  0
ENDSEC
  0
EOF
