  0
SECTION
  2
HEADER
  9
$ACADVER
  1
AC1024
  9
$ACADMAINTVER
 70
   155
  9
$DWGCODEPAGE
  3
ANSI_1252
  9
$INSBASE
 10
0.0
 20
0.0
 30
0.0
  9
$EXTMIN
 10
1.000000000000000E+20
 20
1.000000000000000E+20
 30
1.000000000000000E+20
  9
$EXTMAX
 10
-1.000000000000000E+20
 20
-1.000000000000000E+20
 30
-1.000000000000000E+20
  9
$LIMMIN
 10
0.0
 20
0.0
  9
$LIMMAX
 10
12.0
 20
9.0
  9
$ORTHOMODE
 70
     0
  9
$REGENMODE
 70
     1
  9
$FILLMODE
 70
     1
  9
$QTEXTMODE
 70
     0
  9
$MIRRTEXT
 70
     1
  9
$LTSCALE
 40
1.0
  9
$ATTMODE
 70
     1
  9
$TEXTSIZE
 40
0.2
  9
$TRACEWID
 40
0.05
  9
$TEXTSTYLE
  7
Standard
  9
$CLAYER
  8
0
  9
$CELTYPE
  6
ByLayer
  9
$CECOLOR
 62
   256
  9
$CELTSCALE
 40
1.0
  9
$DISPSILH
 70
     0
  9
$DIMSCALE
 40
1.0
  9
$DIMASZ
 40
0.18
  9
$DIMEXO
 40
0.0625
  9
$DIMDLI
 40
0.38
  9
$DIMRND
 40
0.0
  9
$DIMDLE
 40
0.0
  9
$DIMEXE
 40
0.18
  9
$DIMTP
 40
0.0
  9
$DIMTM
 40
0.0
  9
$DIMTXT
 40
0.18
  9
$DIMCEN
 40
0.09
  9
$DIMTSZ
 40
0.0
  9
$DIMTOL
 70
     0
  9
$DIMLIM
 70
     0
  9
$DIMTIH
 70
     1
  9
$DIMTOH
 70
     1
  9
$DIMSE1
 70
     0
  9
$DIMSE2
 70
     0
  9
$DIMTAD
 70
     0
  9
$DIMZIN
 70
     0
  9
$DIMBLK
  1

  9
$DIMASO
 70
     1
  9
$DIMSHO
 70
     1
  9
$DIMPOST
  1

  9
$DIMAPOST
  1

  9
$DIMALT
 70
     0
  9
$DIMALTD
 70
     2
  9
$DIMALTF
 40
25.4
  9
$DIMLFAC
 40
1.0
  9
$DIMTOFL
 70
     0
  9
$DIMTVP
 40
0.0
  9
$DIMTIX
 70
     0
  9
$DIMSOXD
 70
     0
  9
$DIMSAH
 70
     0
  9
$DIMBLK1
  1

  9
$DIMBLK2
  1

  9
$DIMSTYLE
  2
Standard
  9
$DIMCLRD
 70
     0
  9
$DIMCLRE
 70
     0
  9
$DIMCLRT
 70
     0
  9
$DIMTFAC
 40
1.0
  9
$DIMGAP
 40
0.09
  9
$DIMJUST
 70
     0
  9
$DIMSD1
 70
     0
  9
$DIMSD2
 70
     0
  9
$DIMTOLJ
 70
     1
  9
$DIMTZIN
 70
     0
  9
$DIMALTZ
 70
     0
  9
$DIMALTTZ
 70
     0
  9
$DIMUPT
 70
     0
  9
$DIMDEC
 70
     4
  9
$DIMTDEC
 70
     4
  9
$DIMALTU
 70
     2
  9
$DIMALTTD
 70
     2
  9
$DIMTXSTY
  7
Standard
  9
$DIMAUNIT
 70
     0
  9
$DIMADEC
 70
     0
  9
$DIMALTRND
 40
0.0
  9
$DIMAZIN
 70
     0
  9
$DIMDSEP
 70
    46
  9
$DIMATFIT
 70
     3
  9
$DIMFRAC
 70
     0
  9
$DIMLDRBLK
  1

  9
$DIMLUNIT
 70
     2
  9
$DIMLWD
 70
    -2
  9
$DIMLWE
 70
    -2
  9
$DIMTMOVE
 70
     0
  9
$DIMFXL
 40
1.0
  9
$DIMFXLON
 70
     0
  9
$DIMJOGANG
 40
0.7853981633974483
  9
$DIMTFILL
 70
     0
  9
$DIMTFILLCLR
 70
     0
  9
$DIMARCSYM
 70
     0
  9
$DIMLTYPE
  6

  9
$DIMLTEX1
  6

  9
$DIMLTEX2
  6

  9
$DIMTXTDIRECTION
 70
     0
  9
$LUNITS
 70
     2
  9
$LUPREC
 70
     4
  9
$SKETCHINC
 40
0.1
  9
$FILLETRAD
 40
0.5
  9
$AUNITS
 70
     0
  9
$AUPREC
 70
     0
  9
$MENU
  1
.
  9
$ELEVATION
 40
0.0
  9
$PELEVATION
 40
0.0
  9
$THICKNESS
 40
0.0
  9
$LIMCHECK
 70
     0
  9
$CHAMFERA
 40
0.5
  9
$CHAMFERB
 40
0.5
  9
$CHAMFERC
 40
1.0
  9
$CHAMFERD
 40
0.0
  9
$SKPOLY
 70
     0
  9
$TDCREATE
 40
2451380.888765729
  9
$TDUCREATE
 40
2451380.805432396
  9
$TDUPDATE
 40
2451380.924513889
  9
$TDUUPDATE
 40
2451380.841180556
  9
$TDINDWG
 40
0.0075617014
  9
$TDUSRTIMER
 40
0.0075526620
  9
$USRTIMER
 70
     1
  9
$ANGBASE
 50
0.0
  9
$ANGDIR
 70
     0
  9
$PDMODE
 70
     0
  9
$PDSIZE
 40
0.0
  9
$PLINEWID
 40
0.0
  9
$SPLFRAME
 70
     0
  9
$SPLINETYPE
 70
     6
  9
$SPLINESEGS
 70
     8
  9
$HANDSEED
  5
293
  9
$SURFTAB1
 70
     6
  9
$SURFTAB2
 70
     6
  9
$SURFTYPE
 70
     6
  9
$SURFU
 70
     6
  9
$SURFV
 70
     6
  9
$UCSBASE
  2

  9
$UCSNAME
  2

  9
$UCSORG
 10
0.0
 20
0.0
 30
0.0
  9
$UCSXDIR
 10
1.0
 20
0.0
 30
0.0
  9
$UCSYDIR
 10
0.0
 20
1.0
 30
0.0
  9
$UCSORTHOREF
  2

  9
$UCSORTHOVIEW
 70
     0
  9
$UCSORGTOP
 10
0.0
 20
0.0
 30
0.0
  9
$UCSORGBOTTOM
 10
0.0
 20
0.0
 30
0.0
  9
$UCSORGLEFT
 10
0.0
 20
0.0
 30
0.0
  9
$UCSORGRIGHT
 10
0.0
 20
0.0
 30
0.0
  9
$UCSORGFRONT
 10
0.0
 20
0.0
 30
0.0
  9
$UCSORGBACK
 10
0.0
 20
0.0
 30
0.0
  9
$PUCSBASE
  2

  9
$PUCSNAME
  2

  9
$PUCSORG
 10
0.0
 20
0.0
 30
0.0
  9
$PUCSXDIR
 10
1.0
 20
0.0
 30
0.0
  9
$PUCSYDIR
 10
0.0
 20
1.0
 30
0.0
  9
$PUCSORTHOREF
  2

  9
$PUCSORTHOVIEW
 70
     0
  9
$PUCSORGTOP
 10
0.0
 20
0.0
 30
0.0
  9
$PUCSORGBOTTOM
 10
0.0
 20
0.0
 30
0.0
  9
$PUCSORGLEFT
 10
0.0
 20
0.0
 30
0.0
  9
$PUCSORGRIGHT
 10
0.0
 20
0.0
 30
0.0
  9
$PUCSORGFRONT
 10
0.0
 20
0.0
 30
0.0
  9
$PUCSORGBACK
 10
0.0
 20
0.0
 30
0.0
  9
$USERI1
 70
     0
  9
$USERI2
 70
     0
  9
$USERI3
 70
     0
  9
$USERI4
 70
     0
  9
$USERI5
 70
     0
  9
$USERR1
 40
0.0
  9
$USERR2
 40
0.0
  9
$USERR3
 40
0.0
  9
$USERR4
 40
0.0
  9
$USERR5
 40
0.0
  9
$WORLDVIEW
 70
     1
  9
$SHADEDGE
 70
     3
  9
$SHADEDIF
 70
    70
  9
$TILEMODE
 70
     1
  9
$MAXACTVP
 70
    64
  9
$PINSBASE
 10
0.0
 20
0.0
 30
0.0
  9
$PLIMCHECK
 70
     0
  9
$PEXTMIN
 10
1.000000000000000E+20
 20
1.000000000000000E+20
 30
1.000000000000000E+20
  9
$PEXTMAX
 10
-1.000000000000000E+20
 20
-1.000000000000000E+20
 30
-1.000000000000000E+20
  9
$PLIMMIN
 10
0.0
 20
0.0
  9
$PLIMMAX
 10
12.0
 20
9.0
  9
$UNITMODE
 70
     0
  9
$VISRETAIN
 70
     1
  9
$PLINEGEN
 70
     0
  9
$PSLTSCALE
 70
     1
  9
$TREEDEPTH
 70
  3020
  9
$CMLSTYLE
  2
Standard
  9
$CMLJUST
 70
     0
  9
$CMLSCALE
 40
1.0
  9
$PROXYGRAPHICS
 70
     1
  9
$MEASUREMENT
 70
     1
  9
$CELWEIGHT
370
    -1
  9
$ENDCAPS
280
     0
  9
$JOINSTYLE
280
     0
  9
$LWDISPLAY
290
     0
  9
$INSUNITS
 70
     4
  9
$HYPERLINKBASE
  1

  9
$STYLESHEET
  1

  9
$XEDIT
290
     1
  9
$CEPSNTYPE
380
     0
  9
$PSTYLEMODE
290
     1
  9
$FINGERPRINTGUID
  2
{12F50282-3ED8-11D3-A8B7-0060B0F84BC6}
  9
$VERSIONGUID
  2
{12F50293-3ED8-11D3-A8B7-0060B0F84BC6}
  9
$EXTNAMES
290
     1
  9
$PSVPSCALE
 40
0.0
  9
$OLESTARTUP
290
     0
  9
$SORTENTS
280
   127
  9
$INDEXCTL
280
     0
  9
$HIDETEXT
280
     0
  9
$XCLIPFRAME
280
     2
  9
$HALOGAP
280
     0
  9
$OBSCOLOR
 70
   257
  9
$OBSLTYPE
280
     0
  9
$INTERSECTIONDISPLAY
280
     0
  9
$INTERSECTIONCOLOR
 70
   257
  9
$DIMASSOC
280
     1
  9
$PROJECTNAME
  1

  9
$CAMERADISPLAY
290
     0
  9
$LENSLENGTH
 40
50.0
  9
$CAMERAHEIGHT
 40
0.0
  9
$STEPSPERSEC
 40
2.0
  9
$STEPSIZE
 40
6.0
  9
$3DDWFPREC
 40
2.0
  9
$PSOLWIDTH
 40
0.25
  9
$PSOLHEIGHT
 40
4.0
  9
$LOFTANG1
 40
1.570796326794896
  9
$LOFTANG2
 40
1.570796326794896
  9
$LOFTMAG1
 40
0.0
  9
$LOFTMAG2
 40
0.0
  9
$LOFTPARAM
 70
     7
  9
$LOFTNORMALS
280
     1
  9
$LATITUDE
 40
37.795
  9
$LONGITUDE
 40
-122.394
  9
$NORTHDIRECTION
 40
0.0
  9
$TIMEZONE
 70
 -8000
  9
$LIGHTGLYPHDISPLAY
280
     1
  9
$TILEMODELIGHTSYNCH
280
     1
  9
$CMATERIAL
347
AB
  9
$SOLIDHIST
280
     0
  9
$SHOWHIST
280
     1
  9
$DWFFRAME
280
     2
  9
$DGNFRAME
280
     0
  9
$REALWORLDSCALE
290
     1
  9
$INTERFERECOLOR
 62
     1
  9
$INTERFEREOBJVS
345
CD
  9
$INTERFEREVPVS
346
CA
  9
$CSHADOW
280
     0
  9
$SHADOWPLANELOCATION
 40
0.0
  0
ENDSEC
  0
SECTION
  2
CLASSES
  0
CLASS
  1
ACDBDICTIONARYWDFLT
  2
AcDbDictionaryWithDefault
  3
ObjectDBX Classes
 90
        0
 91
        1
280
     0
281
     0
  0
CLASS
  1
ACDBPLACEHOLDER
  2
AcDbPlaceHolder
  3
ObjectDBX Classes
 90
        0
 91
        2
280
     0
281
     0
  0
CLASS
  1
LAYOUT
  2
AcDbLayout
  3
ObjectDBX Classes
 90
        0
 91
        3
280
     0
281
     0
  0
CLASS
  1
MATERIAL
  2
AcDbMaterial
  3
ObjectDBX Classes
 90
     1153
 91
        3
280
     0
281
     0
  0
CLASS
  1
VISUALSTYLE
  2
AcDbVisualStyle
  3
ObjectDBX Classes
 90
     4095
 91
       24
280
     0
281
     0
  0
CLASS
  1
TABLESTYLE
  2
AcDbTableStyle
  3
ObjectDBX Classes
 90
     4095
 91
        1
280
     0
281
     0
  0
CLASS
  1
SCALE
  2
AcDbScale
  3
ObjectDBX Classes
 90
     1153
 91
       17
280
     0
281
     0
  0
CLASS
  1
MLEADERSTYLE
  2
AcDbMLeaderStyle
  3
ACDB_MLEADERSTYLE_CLASS
 90
     4095
 91
        1
280
     0
281
     0
  0
CLASS
  1
ACDBSECTIONVIEWSTYLE
  2
AcDbSectionViewStyle
  3
ObjectDBX Classes
 90
     1025
 91
        1
280
     0
281
     0
  0
CLASS
  1
ACDBDETAILVIEWSTYLE
  2
AcDbDetailViewStyle
  3
ObjectDBX Classes
 90
     1025
 91
        1
280
     0
281
     0
  0
CLASS
  1
DICTIONARYVAR
  2
AcDbDictionaryVar
  3
ObjectDBX Classes
 90
        0
 91
        9
280
     0
281
     0
  0
CLASS
  1
CELLSTYLEMAP
  2
AcDbCellStyleMap
  3
ObjectDBX Classes
 90
     1152
 91
        1
280
     0
281
     0
  0
ENDSEC
  0
SECTION
  2
TABLES
  0
TABLE
  2
VPORT
  5
8
330
0
100
AcDbSymbolTable
 70
     1
  0
VPORT
  5
A8
330
8
100
AcDbSymbolTableRecord
100
AcDbViewportTableRecord
  2
*Active
 70
     0
 10
0.0
 20
0.0
 11
1.0
 21
1.0
 12
42.64420700073242
 22
68.28824615478516
 13
0.0
 23
0.0
 14
0.5
 24
0.5
 15
0.5
 25
0.5
 16
-1.0
 26
-1.0
 36
1.0
 17
0.0
 27
0.0
 37
0.0
 40
158.1854910030813
 41
0.1028501161855564
 42
50.0
 43
0.0
 44
0.0
 50
0.0
 51
0.0
 71
     0
 72
   100
 73
     1
 74
     3
 75
     0
 76
     0
 77
     0
 78
     0
281
     0
 65
     1
110
0.0
120
0.0
130
0.0
111
1.0
121
0.0
131
0.0
112
0.0
122
1.0
132
0.0
 79
     0
146
0.0
348
C9
 60
     3
 61
     5
292
     1
282
     1
141
0.0
142
0.0
 63
   250
421
  3355443
  0
ENDTAB
  0
TABLE
  2
LTYPE
  5
5
330
0
100
AcDbSymbolTable
 70
     1
  0
LTYPE
  5
14
330
5
100
AcDbSymbolTableRecord
100
AcDbLinetypeTableRecord
  2
ByBlock
 70
     0
  3

 72
    65
 73
     0
 40
0.0
  0
LTYPE
  5
15
330
5
100
AcDbSymbolTableRecord
100
AcDbLinetypeTableRecord
  2
ByLayer
 70
     0
  3

 72
    65
 73
     0
 40
0.0
  0
LTYPE
  5
16
330
5
100
AcDbSymbolTableRecord
100
AcDbLinetypeTableRecord
  2
Continuous
 70
     0
  3
Solid line
 72
    65
 73
     0
 40
0.0
  0
ENDTAB
  0
TABLE
  2
LAYER
  5
2
330
0
100
AcDbSymbolTable
 70
     2
  0
LAYER
  5
10
330
2
100
AcDbSymbolTableRecord
100
AcDbLayerTableRecord
  2
0
 70
     0
 62
   194
420
  5577905
  6
Continuous
370
    -3
390
F
347
BB
  0
LAYER
  5
2B
330
2
100
AcDbSymbolTableRecord
100
AcDbLayerTableRecord
  2
ASHADE
 70
     4
 62
     7
  6
Continuous
370
    -3
390
2D
347
BB
  0
ENDTAB
  0
TABLE
  2
STYLE
  5
3
330
0
100
AcDbSymbolTable
 70
     2
  0
STYLE
  5
11
330
3
100
AcDbSymbolTableRecord
100
AcDbTextStyleTableRecord
  2
Standard
 70
     0
 40
0.0
 41
1.0
 50
0.0
 71
     0
 42
0.2
  3
txt
  4

  0
STYLE
  5
2C
330
3
100
AcDbSymbolTableRecord
100
AcDbTextStyleTableRecord
  2
ASHADE
 70
     0
 40
0.2
 41
1.0
 50
0.0
 71
     0
 42
0.2
  3
simplex
  4

  0
ENDTAB
  0
TABLE
  2
VIEW
  5
6
330
0
100
AcDbSymbolTable
 70
     0
  0
ENDTAB
  0
TABLE
  2
UCS
  5
7
330
0
100
AcDbSymbolTable
 70
     0
  0
ENDTAB
  0
TABLE
  2
APPID
  5
9
330
0
100
AcDbSymbolTable
 70
     6
  0
APPID
  5
12
330
9
100
AcDbSymbolTableRecord
100
AcDbRegAppTableRecord
  2
ACAD
 70
     0
  0
APPID
  5
8F
330
9
100
AcDbSymbolTableRecord
100
AcDbRegAppTableRecord
  2
AVE_RENDER
 70
     0
  0
APPID
  5
90
330
9
100
AcDbSymbolTableRecord
100
AcDbRegAppTableRecord
  2
AVE_ENTITY_MATERIAL
 70
     0
  0
APPID
  5
9C
330
9
100
AcDbSymbolTableRecord
100
AcDbRegAppTableRecord
  2
AVE_FINISH
 70
     0
  0
APPID
  5
9D
330
9
100
AcDbSymbolTableRecord
100
AcDbRegAppTableRecord
  2
AVE_MATERIAL
 70
     0
  0
APPID
  5
9E
330
9
100
AcDbSymbolTableRecord
100
AcDbRegAppTableRecord
  2
AVE_GLOBAL
 70
     0
  0
ENDTAB
  0
TABLE
  2
DIMSTYLE
  5
A
330
0
100
AcDbSymbolTable
 70
     1
100
AcDbDimStyleTable
 71
     0
  0
DIMSTYLE
105
27
330
A
100
AcDbSymbolTableRecord
100
AcDbDimStyleTableRecord
  2
Standard
 70
     0
340
11
  0
ENDTAB
  0
TABLE
  2
BLOCK_RECORD
  5
1
330
0
100
AcDbSymbolTable
 70
     6
  0
BLOCK_RECORD
  5
1F
330
1
100
AcDbSymbolTableRecord
100
AcDbBlockTableRecord
  2
*Model_Space
340
22
 70
     0
280
     1
281
     0
  0
BLOCK_RECORD
  5
1B
330
1
100
AcDbSymbolTableRecord
100
AcDbBlockTableRecord
  2
*Paper_Space
340
1E
 70
     0
280
     1
281
     0
  0
BLOCK_RECORD
  5
23
330
1
100
AcDbSymbolTableRecord
100
AcDbBlockTableRecord
  2
*Paper_Space0
340
26
 70
     0
280
     1
281
     0
  0
BLOCK_RECORD
  5
2E
330
1
100
AcDbSymbolTableRecord
100
AcDbBlockTableRecord
  2
direct
340
0
 70
     0
280
     1
281
     0
  0
BLOCK_RECORD
  5
42
330
1
100
AcDbSymbolTableRecord
100
AcDbBlockTableRecord
  2
overhead
340
0
 70
     0
280
     1
281
     0
  0
BLOCK_RECORD
  5
5F
330
1
100
AcDbSymbolTableRecord
100
AcDbBlockTableRecord
  2
sh_spot
340
0
 70
     0
280
     1
281
     0
  0
BLOCK_RECORD
  5
91
330
1
100
AcDbSymbolTableRecord
100
AcDbBlockTableRecord
  2
AVE_RENDER
340
0
102
{BLKREFS
331
94
331
95
331
96
331
97
331
98
331
99
331
9A
331
9B
102
}
 70
     0
280
     1
281
     0
  0
BLOCK_RECORD
  5
9F
330
1
100
AcDbSymbolTableRecord
100
AcDbBlockTableRecord
  2
AVE_GLOBAL
340
0
102
{BLKREFS
331
A2
102
}
 70
     0
280
     1
281
     0
  0
ENDTAB
  0
ENDSEC
  0
SECTION
  2
BLOCKS
  0
BLOCK
  5
20
330
1F
100
AcDbEntity
  8
0
100
AcDbBlockBegin
  2
*Model_Space
 70
     0
 10
0.0
 20
0.0
 30
0.0
  3
*Model_Space
  1

  0
ENDBLK
  5
21
330
1F
100
AcDbEntity
  8
0
100
AcDbBlockEnd
  0
BLOCK
  5
1C
330
1B
100
AcDbEntity
 67
     1
  8
0
100
AcDbBlockBegin
  2
*Paper_Space
 70
     0
 10
0.0
 20
0.0
 30
0.0
  3
*Paper_Space
  1

  0
ENDBLK
  5
1D
330
1B
100
AcDbEntity
 67
     1
  8
0
100
AcDbBlockEnd
  0
BLOCK
  5
24
330
23
100
AcDbEntity
 67
     1
  8
0
100
AcDbBlockBegin
  2
*Paper_Space0
 70
     0
 10
0.0
 20
0.0
 30
0.0
  3
*Paper_Space0
  1

  0
ENDBLK
  5
25
330
23
100
AcDbEntity
 67
     1
  8
0
100
AcDbBlockEnd
  0
BLOCK
  5
40
330
2E
100
AcDbEntity
  8
0
100
AcDbBlockBegin
  2
direct
 70
     2
 10
0.0
 20
0.0
 30
0.0
  3
direct
  1

  0
ATTDEF
  5
2F
330
2E
100
AcDbEntity
  8
ASHADE
  6
Continuous
 62
     1
100
AcDbText
 10
0.0
 20
-0.1
 30
0.0
 40
0.2
  1

  7
ASHADE
 72
     1
 11
0.0
 21
-0.1
 31
0.0
100
AcDbAttributeDefinition
280
     0
  3
Light Name
  2
SNAME
 70
     0
280
     0
  0
ARC
  5
30
330
2E
100
AcDbEntity
  8
ASHADE
  6
Continuous
 62
     7
100
AcDbCircle
 10
0.0
 20
0.0
 30
0.0
 40
0.3
100
AcDbArc
 50
205.6792886194569
 51
334.3207113805431
  0
ARC
  5
31
330
2E
100
AcDbEntity
  8
ASHADE
  6
Continuous
 62
     7
100
AcDbCircle
 10
0.0
 20
0.0
 30
0.0
 40
0.3
100
AcDbArc
 50
25.67928861945685
 51
154.3207113805431
  0
LINE
  5
32
330
2E
100
AcDbEntity
  8
ASHADE
  6
Continuous
 62
     7
100
AcDbLine
 10
-0.21
 20
0.2142428528562855
 30
0.0
 11
-0.21
 21
0.5
 31
0.0
  0
LINE
  5
33
330
2E
100
AcDbEntity
  8
ASHADE
  6
Continuous
 62
     7
100
AcDbLine
 10
-0.11
 20
0.2791057147390572
 30
0.0
 11
-0.11
 21
0.5
 31
0.0
  0
LINE
  5
34
330
2E
100
AcDbEntity
  8
ASHADE
  6
Continuous
 62
     7
100
AcDbLine
 10
0.21
 20
0.2142428528562855
 30
0.0
 11
0.21
 21
0.5
 31
0.0
  0
ATTDEF
  5
35
330
2E
100
AcDbEntity
  8
ASHADE
  6
Continuous
 62
     7
100
AcDbText
 10
0.0
 20
0.25
 30
0.0
 40
0.01
  1

100
AcDbAttributeDefinition
280
     0
  3
Look-at Y
  2
LAY
 70
     1
280
     0
  0
ATTDEF
  5
36
330
2E
100
AcDbEntity
  8
ASHADE
  6
Continuous
 62
     7
100
AcDbText
 10
0.0
 20
0.22
 30
0.0
 40
0.01
  1
1
100
AcDbAttributeDefinition
280
     0
  3
Light Intensity
  2
INTENSITY
 70
     1
280
     0
  0
ATTDEF
  5
37
330
2E
100
AcDbEntity
  8
ASHADE
  6
Continuous
 62
     7
100
AcDbText
 10
0.0
 20
0.16
 30
0.0
 40
0.01
  1
-1
100
AcDbAttributeDefinition
280
     0
  3
*not used*
  2
BEAMD
 70
     1
280
     0
  0
ATTDEF
  5
38
330
2E
100
AcDbEntity
  8
ASHADE
  6
Continuous
 62
     7
100
AcDbText
 10
0.0
 20
0.175
 30
0.0
 40
0.01
  1
-1
100
AcDbAttributeDefinition
280
     0
  3
*not used*
  2
CONED
 70
     1
280
     0
  0
ATTDEF
  5
39
330
2E
100
AcDbEntity
  8
ASHADE
  6
Continuous
 62
     7
100
AcDbText
 10
0.0
 20
0.19
 30
0.0
 40
0.01
  1
0
100
AcDbAttributeDefinition
280
     0
  3
Depth Map Size
  2
CONEA
 70
     1
280
     0
  0
ATTDEF
  5
3A
330
2E
100
AcDbEntity
  8
ASHADE
  6
Continuous
 62
     7
100
AcDbText
 10
0.0
 20
0.2050000000000001
 30
0.0
 40
0.01
  1
1,1,1
100
AcDbAttributeDefinition
280
     0
  3
Light Color (RGB)
  2
COLOR
 70
     1
280
     0
  0
ATTDEF
  5
3B
330
2E
100
AcDbEntity
  8
ASHADE
  6
Continuous
 62
     7
100
AcDbText
 10
0.0
 20
0.235
 30
0.0
 40
0.01
  1

100
AcDbAttributeDefinition
280
     0
  3
Look-at Z
  2
LAZ
 70
     1
280
     0
  0
LINE
  5
3C
330
2E
100
AcDbEntity
  8
ASHADE
  6
Continuous
 62
     7
100
AcDbLine
 10
0.0
 20
0.3
 30
0.0
 11
0.0
 21
0.5
 31
0.0
  0
LINE
  5
3D
330
2E
100
AcDbEntity
  8
ASHADE
  6
Continuous
 62
     7
100
AcDbLine
 10
0.11
 20
0.2791057147390572
 30
0.0
 11
0.11
 21
0.5
 31
0.0
  0
ATTDEF
  5
3E
330
2E
100
AcDbEntity
  8
ASHADE
  6
Continuous
 62
     7
100
AcDbText
 10
0.0
 20
0.265
 30
0.0
 40
0.01
  1

100
AcDbAttributeDefinition
280
     0
  3
Look-at X
  2
LAX
 70
     1
280
     0
  0
ATTDEF
  5
3F
330
2E
100
AcDbEntity
  8
ASHADE
  6
Continuous
 62
     7
100
AcDbText
 10
0.0
 20
0.28
 30
0.0
 40
0.01
  1

100
AcDbAttributeDefinition
280
     0
  3

  2
GNAME
 70
     1
280
     0
  0
ENDBLK
  5
41
330
2E
100
AcDbEntity
  8
0
100
AcDbBlockEnd
  0
BLOCK
  5
5D
330
42
100
AcDbEntity
  8
0
100
AcDbBlockBegin
  2
overhead
 70
     2
 10
0.0
 20
0.0
 30
0.0
  3
overhead
  1

  0
ATTDEF
  5
43
330
42
100
AcDbEntity
  8
ASHADE
  6
Continuous
 62
     1
100
AcDbText
 10
0.0
 20
-0.1
 30
0.0
 40
0.2
  1

  7
ASHADE
 72
     1
 11
0.0
 21
-0.1
 31
0.0
100
AcDbAttributeDefinition
280
     0
  3
Light Name
  2
SNAME
 70
     0
280
     0
  0
ARC
  5
44
330
42
100
AcDbEntity
  8
ASHADE
  6
Continuous
 62
     7
100
AcDbCircle
 10
0.0
 20
0.0
 30
0.0
 40
0.3
100
AcDbArc
 50
205.6792886194569
 51
334.3207113805431
  0
LINE
  5
45
330
42
100
AcDbEntity
  8
ASHADE
  6
Continuous
 62
     7
100
AcDbLine
 10
-0.2041413561583015
 20
-0.2198324514393848
 30
0.0
 11
-0.2721884748777353
 21
-0.2931099352525131
 31
0.0
  0
LINE
  5
46
330
42
100
AcDbEntity
  8
ASHADE
  6
Continuous
 62
     7
100
AcDbLine
 10
-0.1096591641591904
 20
-0.2792398032442862
 30
0.0
 11
-0.1279356915190555
 21
-0.3257797704516673
 31
0.0
  0
LINE
  5
47
330
42
100
AcDbEntity
  8
ASHADE
  6
Continuous
 62
     7
100
AcDbLine
 10
0.0
 20
-0.2999999999999999
 30
0.0
 11
0.0
 21
-0.4
 31
0.0
  0
LINE
  5
48
330
42
100
AcDbEntity
  8
ASHADE
  6
Continuous
 62
     7
100
AcDbLine
 10
0.1096591641591904
 20
-0.2792398032442862
 30
0.0
 11
0.1279356915190555
 21
-0.3257797704516673
 31
0.0
  0
LINE
  5
49
330
42
100
AcDbEntity
  8
ASHADE
  6
Continuous
 62
     7
100
AcDbLine
 10
0.2041413561583015
 20
-0.2198324514393848
 30
0.0
 11
0.2721884748777353
 21
-0.2931099352525131
 31
0.0
  0
ARC
  5
4A
330
42
100
AcDbEntity
  8
ASHADE
  6
Continuous
 62
     7
100
AcDbCircle
 10
0.0
 20
0.0
 30
0.0
 40
0.3
100
AcDbArc
 50
25.67928861945685
 51
154.3207113805431
  0
LINE
  5
4B
330
42
100
AcDbEntity
  8
ASHADE
  6
Continuous
 62
     7
100
AcDbLine
 10
-0.2703701166919155
 20
0.13
 30
0.0
 11
-0.3154318028072347
 21
0.1516666666666666
 31
0.0
  0
LINE
  5
4C
330
42
100
AcDbEntity
  8
ASHADE
  6
Continuous
 62
     7
100
AcDbLine
 10
-0.2703701166919155
 20
-0.13
 30
0.0
 11
-0.3154318028072347
 21
-0.1516666666666666
 31
0.0
  0
LINE
  5
4D
330
42
100
AcDbEntity
  8
ASHADE
  6
Continuous
 62
     7
100
AcDbLine
 10
-0.2041413561583015
 20
0.2198324514393849
 30
0.0
 11
-0.2721884748777353
 21
0.2931099352525131
 31
0.0
  0
LINE
  5
4E
330
42
100
AcDbEntity
  8
ASHADE
  6
Continuous
 62
     7
100
AcDbLine
 10
-0.1096591641591904
 20
0.2792398032442862
 30
0.0
 11
-0.1279356915190555
 21
0.3257797704516674
 31
0.0
  0
LINE
  5
4F
330
42
100
AcDbEntity
  8
ASHADE
  6
Continuous
 62
     7
100
AcDbLine
 10
0.2703701166919155
 20
-0.13
 30
0.0
 11
0.3154318028072347
 21
-0.1516666666666666
 31
0.0
  0
LINE
  5
50
330
42
100
AcDbEntity
  8
ASHADE
  6
Continuous
 62
     7
100
AcDbLine
 10
0.2703701166919155
 20
0.13
 30
0.0
 11
0.3154318028072347
 21
0.1516666666666666
 31
0.0
  0
LINE
  5
51
330
42
100
AcDbEntity
  8
ASHADE
  6
Continuous
 62
     7
100
AcDbLine
 10
0.0
 20
0.3
 30
0.0
 11
0.0
 21
0.4
 31
0.0
  0
ATTDEF
  5
52
330
42
100
AcDbEntity
  8
ASHADE
  6
Continuous
 62
     7
100
AcDbText
 10
0.0
 20
0.22
 30
0.0
 40
0.01
  1
1
100
AcDbAttributeDefinition
280
     0
  3
Light Intensity
  2
INTENSITY
 70
     1
280
     0
  0
ATTDEF
  5
53
330
42
100
AcDbEntity
  8
ASHADE
  6
Continuous
 62
     7
100
AcDbText
 10
0.0
 20
0.16
 30
0.0
 40
0.01
  1
-1
100
AcDbAttributeDefinition
280
     0
  3
*not used*
  2
BEAMD
 70
     1
280
     0
  0
ATTDEF
  5
54
330
42
100
AcDbEntity
  8
ASHADE
  6
Continuous
 62
     7
100
AcDbText
 10
0.0
 20
0.175
 30
0.0
 40
0.01
  1
-1
100
AcDbAttributeDefinition
280
     0
  3
*not used*
  2
CONED
 70
     1
280
     0
  0
ATTDEF
  5
55
330
42
100
AcDbEntity
  8
ASHADE
  6
Continuous
 62
     7
100
AcDbText
 10
0.0
 20
0.19
 30
0.0
 40
0.01
  1
0
100
AcDbAttributeDefinition
280
     0
  3
Depth Map Size
  2
CONEA
 70
     1
280
     0
  0
ATTDEF
  5
56
330
42
100
AcDbEntity
  8
ASHADE
  6
Continuous
 62
     7
100
AcDbText
 10
0.0
 20
0.2050000000000001
 30
0.0
 40
0.01
  1
1,1,1
100
AcDbAttributeDefinition
280
     0
  3
Light Color (RGB)
  2
COLOR
 70
     1
280
     0
  0
ATTDEF
  5
57
330
42
100
AcDbEntity
  8
ASHADE
  6
Continuous
 62
     7
100
AcDbText
 10
0.0
 20
0.235
 30
0.0
 40
0.01
  1

100
AcDbAttributeDefinition
280
     0
  3
Look-at Z
  2
LAZ
 70
     1
280
     0
  0
ATTDEF
  5
58
330
42
100
AcDbEntity
  8
ASHADE
  6
Continuous
 62
     7
100
AcDbText
 10
0.0
 20
0.25
 30
0.0
 40
0.01
  1

100
AcDbAttributeDefinition
280
     0
  3
Look-at Y
  2
LAY
 70
     1
280
     0
  0
ATTDEF
  5
59
330
42
100
AcDbEntity
  8
ASHADE
  6
Continuous
 62
     7
100
AcDbText
 10
0.0
 20
0.265
 30
0.0
 40
0.01
  1

100
AcDbAttributeDefinition
280
     0
  3
Look-at X
  2
LAX
 70
     1
280
     0
  0
ATTDEF
  5
5A
330
42
100
AcDbEntity
  8
ASHADE
  6
Continuous
 62
     7
100
AcDbText
 10
0.0
 20
0.28
 30
0.0
 40
0.01
  1

100
AcDbAttributeDefinition
280
     0
  3

  2
GNAME
 70
     1
280
     0
  0
LINE
  5
5B
330
42
100
AcDbEntity
  8
ASHADE
  6
Continuous
 62
     7
100
AcDbLine
 10
0.1096591641591904
 20
0.2792398032442862
 30
0.0
 11
0.1279356915190555
 21
0.3257797704516674
 31
0.0
  0
LINE
  5
5C
330
42
100
AcDbEntity
  8
ASHADE
  6
Continuous
 62
     7
100
AcDbLine
 10
0.2041413561583015
 20
0.2198324514393849
 30
0.0
 11
0.2721884748777353
 21
0.2931099352525131
 31
0.0
  0
ENDBLK
  5
5E
330
42
100
AcDbEntity
  8
0
100
AcDbBlockEnd
  0
BLOCK
  5
85
330
5F
100
AcDbEntity
  8
0
100
AcDbBlockBegin
  2
sh_spot
 70
     2
 10
0.0
 20
0.0
 30
0.0
  3
sh_spot
  1

  0
LINE
  5
60
330
5F
100
AcDbEntity
  8
ASHADE
  6
Continuous
 62
     7
100
AcDbLine
 10
0.25
 20
0.26
 30
0.0
 11
-0.25
 21
0.26
 31
0.0
  0
LINE
  5
61
330
5F
100
AcDbEntity
  8
ASHADE
  6
Continuous
 62
     7
100
AcDbLine
 10
-0.25
 20
-0.3399999999999999
 30
0.0
 11
0.25
 21
-0.3399999999999999
 31
0.0
  0
ATTDEF
  5
62
330
5F
100
AcDbEntity
  8
ASHADE
  6
Continuous
 62
     1
100
AcDbText
 10
0.0
 20
-0.1
 30
0.0
 40
0.2
  1

  7
ASHADE
 72
     1
 11
0.0
 21
-0.1
 31
0.0
100
AcDbAttributeDefinition
280
     0
  3
Light Name
  2
SNAME
 70
     0
280
     0
  0
LINE
  5
63
330
5F
100
AcDbEntity
  8
ASHADE
  6
Continuous
 62
     7
100
AcDbLine
 10
-0.25
 20
-0.13
 30
0.0
 11
-0.25
 21
-0.3399999999999999
 31
0.0
  0
LINE
  5
64
330
5F
100
AcDbEntity
  8
ASHADE
  6
Continuous
 62
     7
100
AcDbLine
 10
-0.25
 20
-0.18
 30
0.0
 11
-0.29
 21
-0.18
 31
0.0
  0
LINE
  5
65
330
5F
100
AcDbEntity
  8
ASHADE
  6
Continuous
 62
     7
100
AcDbLine
 10
-0.29
 20
-0.22
 30
0.0
 11
-0.25
 21
-0.22
 31
0.0
  0
LINE
  5
66
330
5F
100
AcDbEntity
  8
ASHADE
  6
Continuous
 62
     7
100
AcDbLine
 10
-0.29
 20
-0.18
 30
0.0
 11
-0.29
 21
-0.22
 31
0.0
  0
LINE
  5
67
330
5F
100
AcDbEntity
  8
ASHADE
  6
Continuous
 62
     7
100
AcDbLine
 10
-0.1045454545454545
 20
0.26
 30
0.0
 11
-0.15
 21
0.46
 31
0.0
  0
LINE
  5
68
330
5F
100
AcDbEntity
  8
ASHADE
  6
Continuous
 62
     7
100
AcDbLine
 10
-0.21
 20
0.26
 30
0.0
 11
-0.301304347826087
 21
0.46
 31
0.0
  0
LINE
  5
69
330
5F
100
AcDbEntity
  8
ASHADE
  6
Continuous
 62
     7
100
AcDbLine
 10
-0.25
 20
0.26
 30
0.0
 11
-0.25
 21
0.13
 31
0.0
  0
LINE
  5
6A
330
5F
100
AcDbEntity
  8
ASHADE
  6
Continuous
 62
     7
100
AcDbLine
 10
-0.25
 20
0.22
 30
0.0
 11
-0.29
 21
0.22
 31
0.0
  0
LINE
  5
6B
330
5F
100
AcDbEntity
  8
ASHADE
  6
Continuous
 62
     7
100
AcDbLine
 10
-0.29
 20
0.1799999999999999
 30
0.0
 11
-0.25
 21
0.1799999999999999
 31
0.0
  0
LINE
  5
6C
330
5F
100
AcDbEntity
  8
ASHADE
  6
Continuous
 62
     7
100
AcDbLine
 10
-0.29
 20
0.22
 30
0.0
 11
-0.29
 21
0.1799999999999999
 31
0.0
  0
ATTDEF
  5
6D
330
5F
100
AcDbEntity
  8
ASHADE
  6
Continuous
 62
     7
100
AcDbText
 10
0.0
 20
-0.24
 30
0.0
 40
0.01
  1
0
100
AcDbAttributeDefinition
280
     0
  3
Depth Map Size
  2
ZSIZE
 70
     1
280
     0
  0
ATTDEF
  5
6E
330
5F
100
AcDbEntity
  8
ASHADE
  6
Continuous
 62
     7
100
AcDbText
 10
0.0
 20
-0.3300000000000001
 30
0.0
 40
0.01
  1
0,0,0
100
AcDbAttributeDefinition
280
     0
  3
Look-from XYZ
  2
LFXYZ
 70
     1
280
     0
  0
ATTDEF
  5
6F
330
5F
100
AcDbEntity
  8
ASHADE
  6
Continuous
 62
     7
100
AcDbText
 10
0.0
 20
-0.315
 30
0.0
 40
0.01
  1
0.0
100
AcDbAttributeDefinition
280
     0
  3
Beam Distribution
  2
BEAMDI
 70
     1
280
     0
  0
ATTDEF
  5
70
330
5F
100
AcDbEntity
  8
ASHADE
  6
Continuous
 62
     7
100
AcDbText
 10
0.0
 20
-0.3
 30
0.0
 40
0.01
  1
0.0
100
AcDbAttributeDefinition
280
     0
  3
Cone Delta
  2
CONEDE
 70
     1
280
     0
  0
ATTDEF
  5
71
330
5F
100
AcDbEntity
  8
ASHADE
  6
Continuous
 62
     7
100
AcDbText
 10
0.0
 20
-0.2850000000000001
 30
0.0
 40
0.01
  1
10.0
100
AcDbAttributeDefinition
280
     0
  3
Cone Angle
  2
CONEAN
 70
     1
280
     0
  0
ATTDEF
  5
72
330
5F
100
AcDbEntity
  8
ASHADE
  6
Continuous
 62
     7
100
AcDbText
 10
0.0
 20
-0.27
 30
0.0
 40
0.01
  1
-1
100
AcDbAttributeDefinition
280
     0
  3
*not used*
  2
BIASMAX
 70
     1
280
     0
  0
ATTDEF
  5
73
330
5F
100
AcDbEntity
  8
ASHADE
  6
Continuous
 62
     7
100
AcDbText
 10
0.0
 20
-0.255
 30
0.0
 40
0.01
  1
-1
100
AcDbAttributeDefinition
280
     0
  3
*not used*
  2
BIASMIN
 70
     1
280
     0
  0
ATTDEF
  5
74
330
5F
100
AcDbEntity
  8
ASHADE
  6
Continuous
 62
     7
100
AcDbText
 10
0.0
 20
-0.225
 30
0.0
 40
0.01
  1
1,1,1
100
AcDbAttributeDefinition
280
     0
  3
Light Color (RGB)
  2
COLOR
 70
     1
280
     0
  0
ATTDEF
  5
75
330
5F
100
AcDbEntity
  8
ASHADE
  6
Continuous
 62
     7
100
AcDbText
 10
0.0
 20
-0.21
 30
0.0
 40
0.01
  1
1
100
AcDbAttributeDefinition
280
     0
  3
Light Intensity
  2
INTENSITY
 70
     1
280
     0
  0
ATTDEF
  5
76
330
5F
100
AcDbEntity
  8
ASHADE
  6
Continuous
 62
     7
100
AcDbText
 10
0.0
 20
-0.15
 30
0.0
 40
0.01
  1

100
AcDbAttributeDefinition
280
     0
  3

  2
GNAME
 70
     1
280
     0
  0
ATTDEF
  5
77
330
5F
100
AcDbEntity
  8
ASHADE
  6
Continuous
 62
     7
100
AcDbText
 10
0.0
 20
-0.195
 30
0.0
 40
0.01
  1

100
AcDbAttributeDefinition
280
     0
  3
Look-at Z
  2
LAZ
 70
     1
280
     0
  0
ATTDEF
  5
78
330
5F
100
AcDbEntity
  8
ASHADE
  6
Continuous
 62
     7
100
AcDbText
 10
0.0
 20
-0.18
 30
0.0
 40
0.01
  1

100
AcDbAttributeDefinition
280
     0
  3
Look-at Y
  2
LAY
 70
     1
280
     0
  0
ATTDEF
  5
79
330
5F
100
AcDbEntity
  8
ASHADE
  6
Continuous
 62
     7
100
AcDbText
 10
0.0
 20
-0.165
 30
0.0
 40
0.01
  1

100
AcDbAttributeDefinition
280
     0
  3
Look-at X
  2
LAX
 70
     1
280
     0
  0
LINE
  5
7A
330
5F
100
AcDbEntity
  8
ASHADE
  6
Continuous
 62
     7
100
AcDbLine
 10
0.25
 20
-0.3399999999999999
 30
0.0
 11
0.25
 21
-0.13
 31
0.0
  0
LINE
  5
7B
330
5F
100
AcDbEntity
  8
ASHADE
  6
Continuous
 62
     7
100
AcDbLine
 10
0.25
 20
-0.18
 30
0.0
 11
0.29
 21
-0.18
 31
0.0
  0
LINE
  5
7C
330
5F
100
AcDbEntity
  8
ASHADE
  6
Continuous
 62
     7
100
AcDbLine
 10
0.29
 20
-0.22
 30
0.0
 11
0.25
 21
-0.22
 31
0.0
  0
LINE
  5
7D
330
5F
100
AcDbEntity
  8
ASHADE
  6
Continuous
 62
     7
100
AcDbLine
 10
0.29
 20
-0.18
 30
0.0
 11
0.29
 21
-0.22
 31
0.0
  0
LINE
  5
7E
330
5F
100
AcDbEntity
  8
ASHADE
  6
Continuous
 62
     7
100
AcDbLine
 10
0.21
 20
0.26
 30
0.0
 11
0.301304347826087
 21
0.46
 31
0.0
  0
LINE
  5
7F
330
5F
100
AcDbEntity
  8
ASHADE
  6
Continuous
 62
     7
100
AcDbLine
 10
0.1045454545454545
 20
0.26
 30
0.0
 11
0.15
 21
0.46
 31
0.0
  0
LINE
  5
80
330
5F
100
AcDbEntity
  8
ASHADE
  6
Continuous
 62
     7
100
AcDbLine
 10
0.0
 20
0.26
 30
0.0
 11
0.0
 21
0.46
 31
0.0
  0
LINE
  5
81
330
5F
100
AcDbEntity
  8
ASHADE
  6
Continuous
 62
     7
100
AcDbLine
 10
0.25
 20
0.13
 30
0.0
 11
0.25
 21
0.26
 31
0.0
  0
LINE
  5
82
330
5F
100
AcDbEntity
  8
ASHADE
  6
Continuous
 62
     7
100
AcDbLine
 10
0.25
 20
0.22
 30
0.0
 11
0.29
 21
0.22
 31
0.0
  0
LINE
  5
83
330
5F
100
AcDbEntity
  8
ASHADE
  6
Continuous
 62
     7
100
AcDbLine
 10
0.29
 20
0.1799999999999999
 30
0.0
 11
0.25
 21
0.1799999999999999
 31
0.0
  0
LINE
  5
84
330
5F
100
AcDbEntity
  8
ASHADE
  6
Continuous
 62
     7
100
AcDbLine
 10
0.29
 20
0.22
 30
0.0
 11
0.29
 21
0.1799999999999999
 31
0.0
  0
ENDBLK
  5
86
330
5F
100
AcDbEntity
  8
0
100
AcDbBlockEnd
  0
BLOCK
  5
92
330
91
100
AcDbEntity
  8
ASHADE
100
AcDbBlockBegin
  2
AVE_RENDER
 70
     0
 10
0.0
 20
0.0
 30
0.0
  3
AVE_RENDER
  1
AVE_RENDER
  0
ENDBLK
  5
93
330
91
100
AcDbEntity
  8
0
100
AcDbBlockEnd
  0
BLOCK
  5
A0
330
9F
100
AcDbEntity
  8
ASHADE
100
AcDbBlockBegin
  2
AVE_GLOBAL
 70
     0
 10
0.0
 20
0.0
 30
0.0
  3
AVE_GLOBAL
  1
AVE_GLOBAL
  0
ENDBLK
  5
A1
330
9F
100
AcDbEntity
  8
0
100
AcDbBlockEnd
  0
ENDSEC
  0
SECTION
  2
ENTITIES
  0
INSERT
  5
94
330
1F
100
AcDbEntity
  8
ASHADE
 62
     1
100
AcDbBlockReference
  2
AVE_RENDER
 10
0.0
 20
0.0
 30
0.0
1001
AVE_RENDER
1002
{
1070
     7
1000
Pref
1070
    30
1070
    20
1070
     1
1070
     0
1000

1070
    10
1070
     1
1070
    10
1040
1.0
1070
     1
1040
0.3
1040
0.7
1040
0.0
1040
10.0
1010
-1.0
1020
-1.0
1030
-1.0
1040
0.3
1070
    49
1070
     0
1070
     0
1010
1.0
1020
1.0
1030
1.0
1040
45.0
1070
     1
1070
     0
1000
WCS
1040
0.0
1070
     0
1040
10.0
1002
}
  0
INSERT
  5
95
330
1F
100
AcDbEntity
  8
ASHADE
 62
     3
100
AcDbBlockReference
  2
AVE_RENDER
 10
0.0
 20
0.0
 30
0.0
1001
AVE_RENDER
1002
{
1070
     0
1000
Full Opt
1070
     0
1070
     1
1070
     1
1070
     1
1070
     0
1070
     0
1070
     0
1070
     1
1070
     1
1040
0.0001
1040
0.0001
1002
}
  0
INSERT
  5
96
330
1F
100
AcDbEntity
  8
ASHADE
 62
     4
100
AcDbBlockReference
  2
AVE_RENDER
 10
0.0
 20
0.0
 30
0.0
1001
AVE_RENDER
1002
{
1070
     0
1000
Quick Opt
1070
     0
1070
     1
1070
     1
1070
     1
1070
     0
1070
     0
1070
     1
1002
}
  0
INSERT
  5
97
330
1F
100
AcDbEntity
  8
ASHADE
 62
     5
100
AcDbBlockReference
  2
AVE_RENDER
 10
0.0
 20
0.0
 30
0.0
1001
AVE_RENDER
1002
{
1070
     1
1000
Scanl Opt
1070
     2
1070
     0
1070
     2
1040
2.0
1040
4.0
1070
     0
1070
     1
1070
     0
1040
0.03
1002
}
  0
INSERT
  5
98
330
1F
100
AcDbEntity
  8
ASHADE
 62
     6
100
AcDbBlockReference
  2
AVE_RENDER
 10
0.0
 20
0.0
 30
0.0
1001
AVE_RENDER
1002
{
1070
     2
1000
Raytr Opt
1070
     2
1070
     0
1070
     2
1040
2.0
1040
4.0
1070
     0
1070
     1
1070
     1
1040
0.03
1070
     3
1040
0.03
1002
}
  0
INSERT
  5
99
330
1F
100
AcDbEntity
  8
ASHADE
 62
     7
100
AcDbBlockReference
  2
AVE_RENDER
 10
0.0
 20
0.0
 30
0.0
1001
AVE_RENDER
1002
{
1070
     0
1000
RFile Opt
1070
     1
1070
   640
1070
   480
1070
 10000
1070
     1
1070
     8
1070
     8
1070
     0
1070
     0
1070
     0
1070
     0
1070
     0
1070
     0
1070
     0
1002
}
  0
INSERT
  5
9A
330
1F
100
AcDbEntity
  8
ASHADE
 62
     8
100
AcDbBlockReference
  2
AVE_RENDER
 10
0.0
 20
0.0
 30
0.0
1001
AVE_RENDER
1002
{
1070
     0
1000
Fog Opt
1070
     0
1070
     0
1040
0.0
1040
1.0
1040
0.0
1040
1.0
1010
0.5
1020
0.5
1030
0.5
1002
}
  0
INSERT
  5
9B
330
1F
100
AcDbEntity
  8
ASHADE
 62
     9
100
AcDbBlockReference
  2
AVE_RENDER
 10
0.0
 20
0.0
 30
0.0
1001
AVE_RENDER
1002
{
1070
     0
1000
BG Opt
1070
     0
1070
     1
1010
0.0
1020
0.0
1030
0.0
1010
1.0
1020
0.0
1030
0.0
1010
0.0
1020
1.0
1030
0.0
1010
0.0
1020
0.0
1030
1.0
1040
0.5
1040
0.33
1040
0.0
1000

1070
     1
1000

1070
     1
1070
     1
1040
1.0
1040
1.0
1040
0.0
1040
0.0
1070
     0
1002
}
  0
INSERT
  5
A2
330
1F
100
AcDbEntity
  8
ASHADE
 62
     1
100
AcDbBlockReference
  2
AVE_GLOBAL
 10
0.0
 20
0.0
 30
0.0
1001
AVE_MATERIAL
1002
{
1000
*GLOBAL*
1000
2
1000
Global finish.
1002
{
1002
}
1002
{
1070
    63
1002
{
1002
{
1010
-1.0
1020
-1.0
1030
-1.0
1002
}
1040
0.1000000014901161
1000

1040
0.0
1002
{
1002
}
1040
0.0
1002
{
1002
}
1040
0.0
1002
}
1002
{
1002
{
1010
-1.0
1020
-1.0
1030
-1.0
1002
}
1040
0.6999999880790711
1000

1040
0.0
1002
{
1002
}
1040
0.0
1002
{
1002
}
1040
0.0
1002
}
1002
{
1002
{
1010
-1.0
1020
-1.0
1030
-1.0
1002
}
1040
0.2000000029802322
1000

1040
0.0
1002
{
1002
}
1040
0.0
1002
{
1002
}
1040
0.0
1002
}
1002
{
1070
     0
1002
{
1070
     1
1002
{
1040
1.0
1040
1.0
1000

1040
0.0
1002
{
1002
}
1040
0.0
1002
{
1002
}
1040
0.0
1002
}
1002
}
1040
1.0
1040
0.0
1040
0.0
1002
}
1002
{
1040
1.0
1040
1.0
1000

1040
0.0
1002
{
1002
}
1040
0.0
1002
{
1002
}
1040
0.0
1002
}
1002
{
1040
0.5
1040
1.0
1000

1040
0.0
1002
{
1002
}
1040
0.0
1002
{
1002
}
1040
0.0
1002
}
1002
{
1070
     0
1040
0.0
1002
{
1002
}
1040
1.0
1002
{
1002
}
1040
0.0
1002
}
1002
{
1040
0.0
1002
{
1002
{
1010
0.0
1020
0.0
1030
0.0
1002
}
1040
1.0
1000

1040
0.0
1002
{
1002
}
1040
0.0
1002
{
1002
}
1040
0.0
1002
}
1002
}
1002
{
1002
{
1070
     1
1002
{
1040
0.0
1040
1.0
1000

1040
0.0
1002
{
1002
}
1040
0.0
1002
{
1002
}
1040
0.0
1002
}
1002
}
1040
0.0
1002
{
1002
}
1010
1.0
1020
0.0
1030
0.0
1010
0.0
1020
1.0
1030
0.0
1010
0.0
1020
0.0
1030
1.0
1070
     0
1002
}
1002
{
1002
{
1040
1.0
1040
1.0
1002
{
1070
     1
1002
{
1040
1.0
1040
1.0
1000

1040
0.0
1002
{
1002
}
1040
0.0
1002
{
1002
}
1040
0.0
1002
}
1002
}
1002
}
1070
     0
1040
0.0
1002
{
1002
}
1002
}
1002
{
1002
}
1002
}
1002
{
1071
        3
1070
     3
1070
     0
1002
{
1070
     2
1070
     0
1070
     0
1040
0.0
1002
}
1070
     0
1070
     2
1002
{
1002
}
1002
}
1002
{
1040
8030.0
1040
190.3000030517578
1040
0.3050000071525574
1040
228.0
1040
545.0
1040
14.0
1040
17.39999961853027
1040
0.4560000002384186
1002
}
1002
}
  0
POLYLINE
  5
F7
330
1F
100
AcDbEntity
  8
0
 62
   121
420
 10937829
100
AcDb3dPolyline
 66
     1
 10
0.0
 20
0.0
 30
0.0
 70
     9
  0
VERTEX
  5
F8
330
F7
100
AcDbEntity
  8
0
 62
   121
420
 10937829
100
AcDbVertex
100
AcDb3dPolylineVertex
 10
62.91129684448242
 20
0.0000000076313427
 30
120.7739639282226
 70
    32
  0
VERTEX
  5
F9
330
F7
100
AcDbEntity
  8
0
 62
   121
420
 10937829
100
AcDbVertex
100
AcDb3dPolylineVertex
 10
62.90247344970703
 20
0.0000000118094476
 30
120.6509857177734
 70
    32
  0
VERTEX
  5
FA
330
F7
100
AcDbEntity
  8
0
 62
   121
420
 10937829
100
AcDbVertex
100
AcDb3dPolylineVertex
 10
62.88887405395508
 20
0.0000000137738425
 30
120.5286254882812
 70
    32
  0
VERTEX
  5
FB
330
F7
100
AcDbEntity
  8
0
 62
   121
420
 10937829
100
AcDbVertex
100
AcDb3dPolylineVertex
 10
62.87055969238281
 20
0.0000000138298901
 30
120.4070434570312
 70
    32
  0
VERTEX
  5
FC
330
F7
100
AcDbEntity
  8
0
 62
   121
420
 10937829
100
AcDbVertex
100
AcDb3dPolylineVertex
 10
62.84758758544922
 20
0.0000000122846586
 30
120.2863616943359
 70
    32
  0
VERTEX
  5
FD
330
F7
100
AcDbEntity
  8
0
 62
   121
420
 10937829
100
AcDbVertex
100
AcDb3dPolylineVertex
 10
62.82002258300781
 20
0.0000000094437382
 30
120.1667404174804
 70
    32
  0
VERTEX
  5
FE
330
F7
100
AcDbEntity
  8
0
 62
   121
420
 10937829
100
AcDbVertex
100
AcDb3dPolylineVertex
 10
62.78792190551758
 20
0.0000000056130602
 30
120.0483169555664
 70
    32
  0
VERTEX
  5
FF
330
F7
100
AcDbEntity
  8
0
 62
   121
420
 10937829
100
AcDbVertex
100
AcDb3dPolylineVertex
 10
62.75135040283203
 20
0.0000000010993517
 30
119.9312286376953
 70
    32
  0
VERTEX
  5
100
330
F7
100
AcDbEntity
  8
0
 62
   121
420
 10937829
100
AcDbVertex
100
AcDb3dPolylineVertex
 10
62.71036148071289
 20
-0.0000000037919108
 30
119.8156356811523
 70
    32
  0
VERTEX
  5
101
330
F7
100
AcDbEntity
  8
0
 62
   121
420
 10937829
100
AcDbVertex
100
AcDb3dPolylineVertex
 10
62.66501998901367
 20
-0.0000000087545686
 30
119.701675415039
 70
    32
  0
VERTEX
  5
102
330
F7
100
AcDbEntity
  8
0
 62
   121
420
 10937829
100
AcDbVertex
100
AcDb3dPolylineVertex
 10
62.61538314819336
 20
-0.0000000134821221
 30
119.5894775390625
 70
    32
  0
VERTEX
  5
103
330
F7
100
AcDbEntity
  8
0
 62
   121
420
 10937829
100
AcDbVertex
100
AcDb3dPolylineVertex
 10
62.56151580810547
 20
-0.0000000176687536
 30
119.4792022705078
 70
    32
  0
VERTEX
  5
104
330
F7
100
AcDbEntity
  8
0
 62
   121
420
 10937829
100
AcDbVertex
100
AcDb3dPolylineVertex
 10
62.50347518920898
 20
-0.0000000210083044
 30
119.3709869384765
 70
    32
  0
VERTEX
  5
105
330
F7
100
AcDbEntity
  8
0
 62
   121
420
 10937829
100
AcDbVertex
100
AcDb3dPolylineVertex
 10
62.44132232666015
 20
-0.0000000231947297
 30
119.2649688720703
 70
    32
  0
VERTEX
  5
106
330
F7
100
AcDbEntity
  8
0
 62
   121
420
 10937829
100
AcDbVertex
100
AcDb3dPolylineVertex
 10
62.37511444091797
 20
-0.0000000239215296
 30
119.1613006591797
 70
    32
  0
VERTEX
  5
107
330
F7
100
AcDbEntity
  8
0
 62
   121
420
 10937829
100
AcDbVertex
100
AcDb3dPolylineVertex
 10
62.3049201965332
 20
-0.0000000228832278
 30
119.0601272583007
 70
    32
  0
VERTEX
  5
108
330
F7
100
AcDbEntity
  8
0
 62
   121
420
 10937829
100
AcDbVertex
100
AcDb3dPolylineVertex
 10
62.23079299926758
 20
-0.0000000197733243
 30
118.9615859985351
 70
    32
  0
VERTEX
  5
109
330
F7
100
AcDbEntity
  8
0
 62
   121
420
 10937829
100
AcDbVertex
100
AcDb3dPolylineVertex
 10
62.36226654052734
 20
-0.0000000206696313
 30
118.8772735595703
 70
    32
  0
VERTEX
  5
10A
330
F7
100
AcDbEntity
  8
0
 62
   121
420
 10937829
100
AcDbVertex
100
AcDb3dPolylineVertex
 10
62.48951721191406
 20
-0.0000000288084721
 30
118.7871398925781
 70
    32
  0
VERTEX
  5
10B
330
F7
100
AcDbEntity
  8
0
 62
   121
420
 10937829
100
AcDbVertex
100
AcDb3dPolylineVertex
 10
62.61235046386719
 20
-0.0000000416980583
 30
118.6913452148437
 70
    32
  0
VERTEX
  5
10C
330
F7
100
AcDbEntity
  8
0
 62
   121
420
 10937829
100
AcDbVertex
100
AcDb3dPolylineVertex
 10
62.7305908203125
 20
-0.0000000568467158
 30
118.5900573730469
 70
    32
  0
VERTEX
  5
10D
330
F7
100
AcDbEntity
  8
0
 62
   121
420
 10937829
100
AcDbVertex
100
AcDb3dPolylineVertex
 10
62.84404754638671
 20
-0.0000000717625426
 30
118.4834518432617
 70
    32
  0
VERTEX
  5
10E
330
F7
100
AcDbEntity
  8
0
 62
   121
420
 10937829
100
AcDbVertex
100
AcDb3dPolylineVertex
 10
62.95254135131836
 20
-0.0000000839530685
 30
118.3716735839843
 70
    32
  0
VERTEX
  5
10F
330
F7
100
AcDbEntity
  8
0
 62
   121
420
 10937829
100
AcDbVertex
100
AcDb3dPolylineVertex
 10
63.05588531494141
 20
-0.0000000909276423
 30
118.254898071289
 70
    32
  0
VERTEX
  5
110
330
F7
100
AcDbEntity
  8
0
 62
   121
420
 10937829
100
AcDbVertex
100
AcDb3dPolylineVertex
 10
63.15389251708984
 20
-0.0000000901935664
 30
118.1332855224609
 70
    32
  0
VERTEX
  5
111
330
F7
100
AcDbEntity
  8
0
 62
   121
420
 10937829
100
AcDbVertex
100
AcDb3dPolylineVertex
 10
63.24752044677734
 20
-0.0000000845923296
 30
118.005142211914
 70
    32
  0
VERTEX
  5
112
330
F7
100
AcDbEntity
  8
0
 62
   121
420
 10937829
100
AcDbVertex
100
AcDb3dPolylineVertex
 10
63.33550262451172
 20
-0.0000000787716772
 30
117.8719787597656
 70
    32
  0
VERTEX
  5
113
330
F7
100
AcDbEntity
  8
0
 62
   121
420
 10937829
100
AcDbVertex
100
AcDb3dPolylineVertex
 10
63.41720581054687
 20
-0.0000000727867473
 30
117.7350616455078
 70
    32
  0
VERTEX
  5
114
330
F7
100
AcDbEntity
  8
0
 62
   121
420
 10937829
100
AcDbVertex
100
AcDb3dPolylineVertex
 10
63.49199295043945
 20
-0.000000066692337
 30
117.5956344604492
 70
    32
  0
VERTEX
  5
115
330
F7
100
AcDbEntity
  8
0
 62
   121
420
 10937829
100
AcDbVertex
100
AcDb3dPolylineVertex
 10
63.5555534362793
 20
-0.0000000659618991
 30
117.4601745605468
 70
    32
  0
VERTEX
  5
116
330
F7
100
AcDbEntity
  8
0
 62
   121
420
 10937829
100
AcDbVertex
100
AcDb3dPolylineVertex
 10
63.61099624633789
 20
-0.000000074763534
 30
117.3214111328125
 70
    32
  0
VERTEX
  5
117
330
F7
100
AcDbEntity
  8
0
 62
   121
420
 10937829
100
AcDbVertex
100
AcDb3dPolylineVertex
 10
63.65887832641601
 20
-0.0000000920516641
 30
117.1796264648437
 70
    32
  0
VERTEX
  5
118
330
F7
100
AcDbEntity
  8
0
 62
   121
420
 10937829
100
AcDbVertex
100
AcDb3dPolylineVertex
 10
63.69974899291992
 20
-0.0000001167813934
 30
117.0350646972656
 70
    32
  0
VERTEX
  5
119
330
F7
100
AcDbEntity
  8
0
 62
   121
420
 10937829
100
AcDbVertex
100
AcDb3dPolylineVertex
 10
63.73416137695312
 20
-0.0000001479069169
 30
116.8880157470703
 70
    32
  0
VERTEX
  5
11A
330
F7
100
AcDbEntity
  8
0
 62
   121
420
 10937829
100
AcDbVertex
100
AcDb3dPolylineVertex
 10
63.76266098022461
 20
-0.0000001843832251
 30
116.7387542724609
 70
    32
  0
VERTEX
  5
11B
330
F7
100
AcDbEntity
  8
0
 62
   121
420
 10937829
100
AcDbVertex
100
AcDb3dPolylineVertex
 10
63.80414581298828
 20
-0.0000002692064527
 30
116.4346313476562
 70
    32
  0
VERTEX
  5
11C
330
F7
100
AcDbEntity
  8
0
 62
   121
420
 10937829
100
AcDbVertex
100
AcDb3dPolylineVertex
 10
63.82860946655274
 20
-0.0000003628882723
 30
116.1248626708984
 70
    32
  0
VERTEX
  5
11D
330
F7
100
AcDbEntity
  8
0
 62
   121
420
 10937829
100
AcDbVertex
100
AcDb3dPolylineVertex
 10
63.84046554565429
 20
-0.0000004570653687
 30
115.8115997314453
 70
    32
  0
VERTEX
  5
11E
330
F7
100
AcDbEntity
  8
0
 62
   121
420
 10937829
100
AcDbVertex
100
AcDb3dPolylineVertex
 10
63.84400939941406
 20
-0.0000006134553701
 30
115.1832427978515
 70
    32
  0
VERTEX
  5
11F
330
F7
100
AcDbEntity
  8
0
 62
   121
420
 10937829
100
AcDbVertex
100
AcDb3dPolylineVertex
 10
63.84400558471679
 20
-0.0000007755804745
 30
114.3773040771484
 70
    32
  0
VERTEX
  5
120
330
F7
100
AcDbEntity
  8
0
 62
   121
420
 10937829
100
AcDbVertex
100
AcDb3dPolylineVertex
 10
64.10566711425781
 20
-0.0000007659983794
 30
114.3045425415039
 70
    32
  0
VERTEX
  5
121
330
F7
100
AcDbEntity
  8
0
 62
   121
420
 10937829
100
AcDbVertex
100
AcDb3dPolylineVertex
 10
64.36142730712891
 20
-0.0000007441138905
 30
114.2177581787109
 70
    32
  0
VERTEX
  5
122
330
F7
100
AcDbEntity
  8
0
 62
   121
420
 10937829
100
AcDbVertex
100
AcDb3dPolylineVertex
 10
64.6108169555664
 20
-0.00000071161395
 30
114.1173400878906
 70
    32
  0
VERTEX
  5
123
330
F7
100
AcDbEntity
  8
0
 62
   121
420
 10937829
100
AcDbVertex
100
AcDb3dPolylineVertex
 10
64.85334777832031
 20
-0.000000670185841
 30
114.0036926269531
 70
    32
  0
VERTEX
  5
124
330
F7
100
AcDbEntity
  8
0
 62
   121
420
 10937829
100
AcDbVertex
100
AcDb3dPolylineVertex
 10
65.08856201171875
 20
-0.0000006215160511
 30
113.877197265625
 70
    32
  0
VERTEX
  5
125
330
F7
100
AcDbEntity
  8
0
 62
   121
420
 10937829
100
AcDbVertex
100
AcDb3dPolylineVertex
 10
65.31596374511718
 20
-0.0000005672919769
 30
113.7382431030273
 70
    32
  0
VERTEX
  5
126
330
F7
100
AcDbEntity
  8
0
 62
   121
420
 10937829
100
AcDbVertex
100
AcDb3dPolylineVertex
 10
65.53507995605468
 20
-0.0000005092004471
 30
113.5872192382812
 70
    32
  0
VERTEX
  5
127
330
F7
100
AcDbEntity
  8
0
 62
   121
420
 10937829
100
AcDbVertex
100
AcDb3dPolylineVertex
 10
65.74544525146484
 20
-0.0000004489287448
 30
113.4245147705078
 70
    32
  0
VERTEX
  5
128
330
F7
100
AcDbEntity
  8
0
 62
   121
420
 10937829
100
AcDbVertex
100
AcDb3dPolylineVertex
 10
65.94657135009765
 20
-0.0000003881632438
 30
113.2505187988281
 70
    32
  0
VERTEX
  5
129
330
F7
100
AcDbEntity
  8
0
 62
   121
420
 10937829
100
AcDbVertex
100
AcDb3dPolylineVertex
 10
66.13798522949219
 20
-0.0000003285916819
 30
113.0656356811523
 70
    32
  0
VERTEX
  5
12A
330
F7
100
AcDbEntity
  8
0
 62
   121
420
 10937829
100
AcDbVertex
100
AcDb3dPolylineVertex
 10
66.31920623779297
 20
-0.0000002719007171
 30
112.8702392578125
 70
    32
  0
VERTEX
  5
12B
330
F7
100
AcDbEntity
  8
0
 62
   121
420
 10937829
100
AcDbVertex
100
AcDb3dPolylineVertex
 10
66.48976135253906
 20
-0.0000002197772346
 30
112.6647338867187
 70
    32
  0
VERTEX
  5
12C
330
F7
100
AcDbEntity
  8
0
 62
   121
420
 10937829
100
AcDbVertex
100
AcDb3dPolylineVertex
 10
66.64917755126953
 20
-0.0000001739083473
 30
112.4494934082031
 70
    32
  0
VERTEX
  5
12D
330
F7
100
AcDbEntity
  8
0
 62
   121
420
 10937829
100
AcDbVertex
100
AcDb3dPolylineVertex
 10
66.7969741821289
 20
-0.0000001359811677
 30
112.2249145507812
 70
    32
  0
VERTEX
  5
12E
330
F7
100
AcDbEntity
  8
0
 62
   121
420
 10937829
100
AcDbVertex
100
AcDb3dPolylineVertex
 10
66.93267059326172
 20
-0.0000001076825811
 30
111.9913940429687
 70
    32
  0
VERTEX
  5
12F
330
F7
100
AcDbEntity
  8
0
 62
   121
420
 10937829
100
AcDbVertex
100
AcDb3dPolylineVertex
 10
67.0557861328125
 20
-0.0000000906995865
 30
111.7493209838867
 70
    32
  0
VERTEX
  5
130
330
F7
100
AcDbEntity
  8
0
 62
   121
420
 10937829
100
AcDbVertex
100
AcDb3dPolylineVertex
 10
67.16517639160156
 20
-0.0000000798335122
 30
111.500732421875
 70
    32
  0
VERTEX
  5
131
330
F7
100
AcDbEntity
  8
0
 62
   121
420
 10937829
100
AcDbVertex
100
AcDb3dPolylineVertex
 10
67.25997161865234
 20
-0.0000000687789452
 30
111.2478332519531
 70
    32
  0
VERTEX
  5
132
330
F7
100
AcDbEntity
  8
0
 62
   121
420
 10937829
100
AcDbVertex
100
AcDb3dPolylineVertex
 10
67.3401870727539
 20
-0.0000000575627155
 30
110.9912338256836
 70
    32
  0
VERTEX
  5
133
330
F7
100
AcDbEntity
  8
0
 62
   121
420
 10937829
100
AcDbVertex
100
AcDb3dPolylineVertex
 10
67.40582275390625
 20
-0.0000000462118805
 30
110.7315597534179
 70
    32
  0
VERTEX
  5
134
330
F7
100
AcDbEntity
  8
0
 62
   121
420
 10937829
100
AcDbVertex
100
AcDb3dPolylineVertex
 10
67.45686340332031
 20
-0.0000000347531568
 30
110.4694137573242
 70
    32
  0
VERTEX
  5
135
330
F7
100
AcDbEntity
  8
0
 62
   121
420
 10937829
100
AcDbVertex
100
AcDb3dPolylineVertex
 10
67.49332427978515
 20
-0.0000000232137154
 30
110.2054214477539
 70
    32
  0
VERTEX
  5
136
330
F7
100
AcDbEntity
  8
0
 62
   121
420
 10937829
100
AcDbVertex
100
AcDb3dPolylineVertex
 10
67.51520538330078
 20
-0.0000000116205001
 30
109.940200805664
 70
    32
  0
VERTEX
  5
137
330
F7
100
AcDbEntity
  8
0
 62
   121
420
 10937829
100
AcDbVertex
100
AcDb3dPolylineVertex
 10
67.52249908447265
 20
-0.0000000000001137
 30
109.6743621826172
 70
    32
  0
VERTEX
  5
138
330
F7
100
AcDbEntity
  8
0
 62
   121
420
 10937829
100
AcDbVertex
100
AcDb3dPolylineVertex
 10
67.51520538330078
 20
0.0000000116201591
 30
109.4085159301757
 70
    32
  0
VERTEX
  5
139
330
F7
100
AcDbEntity
  8
0
 62
   121
420
 10937829
100
AcDbVertex
100
AcDb3dPolylineVertex
 10
67.49332427978515
 20
0.000000023213488
 30
109.1432952880859
 70
    32
  0
VERTEX
  5
13A
330
F7
100
AcDbEntity
  8
0
 62
   121
420
 10937829
100
AcDbVertex
100
AcDb3dPolylineVertex
 10
67.45686340332031
 20
0.0000000347528157
 30
108.8793029785156
 70
    32
  0
VERTEX
  5
13B
330
F7
100
AcDbEntity
  8
0
 62
   121
420
 10937829
100
AcDbVertex
100
AcDb3dPolylineVertex
 10
67.40582275390625
 20
0.0000000462115395
 30
108.6171569824218
 70
    32
  0
VERTEX
  5
13C
330
F7
100
AcDbEntity
  8
0
 62
   121
420
 10937829
100
AcDbVertex
100
AcDb3dPolylineVertex
 10
67.3401870727539
 20
0.0000000575623744
 30
108.3574829101562
 70
    32
  0
VERTEX
  5
13D
330
F7
100
AcDbEntity
  8
0
 62
   121
420
 10937829
100
AcDbVertex
100
AcDb3dPolylineVertex
 10
67.25997924804687
 20
0.0000000687786041
 30
108.1008834838867
 70
    32
  0
VERTEX
  5
13E
330
F7
100
AcDbEntity
  8
0
 62
   121
420
 10937829
100
AcDbVertex
100
AcDb3dPolylineVertex
 10
67.16517639160156
 20
0.0000000798332849
 30
107.8479843139648
 70
    32
  0
VERTEX
  5
13F
330
F7
100
AcDbEntity
  8
0
 62
   121
420
 10937829
100
AcDbVertex
100
AcDb3dPolylineVertex
 10
67.05579376220703
 20
0.0000000906993591
 30
107.5993957519531
 70
    32
  0
VERTEX
  5
140
330
F7
100
AcDbEntity
  8
0
 62
   121
420
 10937829
100
AcDbVertex
100
AcDb3dPolylineVertex
 10
66.93267059326172
 20
0.0000000998586529
 30
107.3573150634765
 70
    32
  0
VERTEX
  5
141
330
F7
100
AcDbEntity
  8
0
 62
   121
420
 10937829
100
AcDbVertex
100
AcDb3dPolylineVertex
 10
66.7969741821289
 20
0.0000001060459454
 30
107.123794555664
 70
    32
  0
VERTEX
  5
142
330
F7
100
AcDbEntity
  8
0
 62
   121
420
 10937829
100
AcDbVertex
100
AcDb3dPolylineVertex
 10
66.64917755126953
 20
0.0000001096160531
 30
106.8992233276367
 70
    32
  0
VERTEX
  5
143
330
F7
100
AcDbEntity
  8
0
 62
   121
420
 10937829
100
AcDbVertex
100
AcDb3dPolylineVertex
 10
66.48976898193359
 20
0.0000001109224286
 30
106.6839828491211
 70
    32
  0
VERTEX
  5
144
330
F7
100
AcDbEntity
  8
0
 62
   121
420
 10937829
100
AcDbVertex
100
AcDb3dPolylineVertex
 10
66.3192138671875
 20
0.000000110319661
 30
106.4784698486328
 70
    32
  0
VERTEX
  5
145
330
F7
100
AcDbEntity
  8
0
 62
   121
420
 10937829
100
AcDbVertex
100
AcDb3dPolylineVertex
 10
66.13798522949219
 20
0.0000001081612027
 30
106.2830810546875
 70
    32
  0
VERTEX
  5
146
330
F7
100
AcDbEntity
  8
0
 62
   121
420
 10937829
100
AcDbVertex
100
AcDb3dPolylineVertex
 10
65.94657135009765
 20
0.0000001048013019
 30
106.0981903076172
 70
    32
  0
VERTEX
  5
147
330
F7
100
AcDbEntity
  8
0
 62
   121
420
 10937829
100
AcDbVertex
100
AcDb3dPolylineVertex
 10
65.74544525146484
 20
0.0000001005940931
 30
105.924201965332
 70
    32
  0
VERTEX
  5
148
330
F7
100
AcDbEntity
  8
0
 62
   121
420
 10937829
100
AcDbVertex
100
AcDb3dPolylineVertex
 10
65.53508758544921
 20
0.0000000958935971
 30
105.7614974975586
 70
    32
  0
VERTEX
  5
149
330
F7
100
AcDbEntity
  8
0
 62
   121
420
 10937829
100
AcDbVertex
100
AcDb3dPolylineVertex
 10
65.31596374511718
 20
0.0000000910536073
 30
105.6104736328125
 70
    32
  0
VERTEX
  5
14A
330
F7
100
AcDbEntity
  8
0
 62
   121
420
 10937829
100
AcDbVertex
100
AcDb3dPolylineVertex
 10
65.08856201171875
 20
0.0000000864281446
 30
105.4715118408203
 70
    32
  0
VERTEX
  5
14B
330
F7
100
AcDbEntity
  8
0
 62
   121
420
 10937829
100
AcDbVertex
100
AcDb3dPolylineVertex
 10
64.85335540771484
 20
0.0000000823714572
 30
105.3450164794922
 70
    32
  0
VERTEX
  5
14C
330
F7
100
AcDbEntity
  8
0
 62
   121
420
 10937829
100
AcDbVertex
100
AcDb3dPolylineVertex
 10
64.61082458496093
 20
0.0000000792373385
 30
105.2313690185547
 70
    32
  0
VERTEX
  5
14D
330
F7
100
AcDbEntity
  8
0
 62
   121
420
 10937829
100
AcDbVertex
100
AcDb3dPolylineVertex
 10
64.36143493652344
 20
0.0000000773801503
 30
105.1309509277343
 70
    32
  0
VERTEX
  5
14E
330
F7
100
AcDbEntity
  8
0
 62
   121
420
 10937829
100
AcDbVertex
100
AcDb3dPolylineVertex
 10
64.10567474365234
 20
0.0000000771535724
 30
105.0441665649414
 70
    32
  0
VERTEX
  5
14F
330
F7
100
AcDbEntity
  8
0
 62
   121
420
 10937829
100
AcDbVertex
100
AcDb3dPolylineVertex
 10
63.84401321411132
 20
0.0000000789117394
 30
104.9714050292968
 70
    32
  0
VERTEX
  5
150
330
F7
100
AcDbEntity
  8
0
 62
   121
420
 10937829
100
AcDbVertex
100
AcDb3dPolylineVertex
 10
63.90452575683593
 20
0.0000000830843305
 30
104.7514343261718
 70
    32
  0
VERTEX
  5
151
330
F7
100
AcDbEntity
  8
0
 62
   121
420
 10937829
100
AcDbVertex
100
AcDb3dPolylineVertex
 10
63.95127487182617
 20
0.0000000784681333
 30
104.5287933349609
 70
    32
  0
VERTEX
  5
152
330
F7
100
AcDbEntity
  8
0
 62
   121
420
 10937829
100
AcDbVertex
100
AcDb3dPolylineVertex
 10
63.98422241210937
 20
0.0000000680034873
 30
104.3041229248047
 70
    32
  0
VERTEX
  5
153
330
F7
100
AcDbEntity
  8
0
 62
   121
420
 10937829
100
AcDbVertex
100
AcDb3dPolylineVertex
 10
64.00333404541015
 20
0.0000000546307319
 30
104.0780563354492
 70
    32
  0
VERTEX
  5
154
330
F7
100
AcDbEntity
  8
0
 62
   121
420
 10937829
100
AcDbVertex
100
AcDb3dPolylineVertex
 10
64.00858306884765
 20
0.0000000412907184
 30
103.8512496948242
 70
    32
  0
VERTEX
  5
155
330
F7
100
AcDbEntity
  8
0
 62
   121
420
 10937829
100
AcDbVertex
100
AcDb3dPolylineVertex
 10
63.99992370605469
 20
0.0000000309237294
 30
103.6243438720703
 70
    32
  0
VERTEX
  5
156
330
F7
100
AcDbEntity
  8
0
 62
   121
420
 10937829
100
AcDbVertex
100
AcDb3dPolylineVertex
 10
63.97732543945313
 20
0.0000000264705022
 30
103.397964477539
 70
    32
  0
VERTEX
  5
157
330
F7
100
AcDbEntity
  8
0
 62
   121
420
 10937829
100
AcDbVertex
100
AcDb3dPolylineVertex
 10
63.94075775146484
 20
0.0000000308715471
 30
103.1727752685547
 70
    32
  0
VERTEX
  5
158
330
F7
100
AcDbEntity
  8
0
 62
   121
420
 10937829
100
AcDbVertex
100
AcDb3dPolylineVertex
 10
63.90036010742187
 20
0.0000000388572516
 30
102.9900817871093
 70
    32
  0
VERTEX
  5
159
330
F7
100
AcDbEntity
  8
0
 62
   121
420
 10937829
100
AcDbVertex
100
AcDb3dPolylineVertex
 10
63.85065460205078
 20
0.0000000467438781
 30
102.8096542358398
 70
    32
  0
VERTEX
  5
15A
330
F7
100
AcDbEntity
  8
0
 62
   121
420
 10937829
100
AcDbVertex
100
AcDb3dPolylineVertex
 10
63.7918930053711
 20
0.0000000545114176
 30
102.6319503784179
 70
    32
  0
VERTEX
  5
15B
330
F7
100
AcDbEntity
  8
0
 62
   121
420
 10937829
100
AcDbVertex
100
AcDb3dPolylineVertex
 10
63.72431945800781
 20
0.0000000621395202
 30
102.4574356079101
 70
    32
  0
VERTEX
  5
15C
330
F7
100
AcDbEntity
  8
0
 62
   121
420
 10937829
100
AcDbVertex
100
AcDb3dPolylineVertex
 10
63.6481819152832
 20
0.0000000696075517
 30
102.2865829467773
 70
    32
  0
VERTEX
  5
15D
330
F7
100
AcDbEntity
  8
0
 62
   121
420
 10937829
100
AcDbVertex
100
AcDb3dPolylineVertex
 10
63.5637321472168
 20
0.0000000768954465
 30
102.1198501586914
 70
    32
  0
VERTEX
  5
15E
330
F7
100
AcDbEntity
  8
0
 62
   121
420
 10937829
100
AcDbVertex
100
AcDb3dPolylineVertex
 10
63.47121810913086
 20
0.0000000839828544
 30
101.9577102661133
 70
    32
  0
VERTEX
  5
15F
330
F7
100
AcDbEntity
  8
0
 62
   121
420
 10937829
100
AcDbVertex
100
AcDb3dPolylineVertex
 10
63.37088394165039
 20
0.0000000908493689
 30
101.8006210327148
 70
    32
  0
VERTEX
  5
160
330
F7
100
AcDbEntity
  8
0
 62
   121
420
 10937829
100
AcDbVertex
100
AcDb3dPolylineVertex
 10
63.31026840209961
 20
0.0000000937304208
 30
101.714485168457
 70
    32
  0
VERTEX
  5
161
330
F7
100
AcDbEntity
  8
0
 62
   121
420
 10937829
100
AcDbVertex
100
AcDb3dPolylineVertex
 10
63.24567413330078
 20
0.0000000948953698
 30
101.629638671875
 70
    32
  0
VERTEX
  5
162
330
F7
100
AcDbEntity
  8
0
 62
   121
420
 10937829
100
AcDbVertex
100
AcDb3dPolylineVertex
 10
63.10579299926757
 20
0.0000000927136057
 30
101.4640121459961
 70
    32
  0
VERTEX
  5
163
330
F7
100
AcDbEntity
  8
0
 62
   121
420
 10937829
100
AcDbVertex
100
AcDb3dPolylineVertex
 10
62.95373153686523
 20
0.0000000855779376
 30
101.3042221069336
 70
    32
  0
VERTEX
  5
164
330
F7
100
AcDbEntity
  8
0
 62
   121
420
 10937829
100
AcDbVertex
100
AcDb3dPolylineVertex
 10
62.79198455810547
 20
0.0000000747617719
 30
101.1507110595703
 70
    32
  0
VERTEX
  5
165
330
F7
100
AcDbEntity
  8
0
 62
   121
420
 10937829
100
AcDbVertex
100
AcDb3dPolylineVertex
 10
62.62305068969727
 20
0.0000000615386853
 30
101.0039672851562
 70
    32
  0
VERTEX
  5
166
330
F7
100
AcDbEntity
  8
0
 62
   121
420
 10937829
100
AcDbVertex
100
AcDb3dPolylineVertex
 10
62.44942092895508
 20
0.0000000471821409
 30
100.8644332885742
 70
    32
  0
VERTEX
  5
167
330
F7
100
AcDbEntity
  8
0
 62
   121
420
 10937829
100
AcDbVertex
100
AcDb3dPolylineVertex
 10
62.09804534912109
 20
0.0000000201636112
 30
100.6088790893554
 70
    32
  0
VERTEX
  5
168
330
F7
100
AcDbEntity
  8
0
 62
   121
420
 10937829
100
AcDbVertex
100
AcDb3dPolylineVertex
 10
61.94232559204102
 20
0.000000010160818
 30
100.4980545043945
 70
    32
  0
VERTEX
  5
169
330
F7
100
AcDbEntity
  8
0
 62
   121
420
 10937829
100
AcDbVertex
100
AcDb3dPolylineVertex
 10
61.7914924621582
 20
0.0000000012652777
 30
100.3821716308594
 70
    32
  0
VERTEX
  5
16A
330
F7
100
AcDbEntity
  8
0
 62
   121
420
 10937829
100
AcDbVertex
100
AcDb3dPolylineVertex
 10
61.64562606811523
 20
-0.000000006570076
 30
100.2613906860351
 70
    32
  0
VERTEX
  5
16B
330
F7
100
AcDbEntity
  8
0
 62
   121
420
 10937829
100
AcDbVertex
100
AcDb3dPolylineVertex
 10
61.50481033325196
 20
-0.0000000133937874
 30
100.1359100341797
 70
    32
  0
VERTEX
  5
16C
330
F7
100
AcDbEntity
  8
0
 62
   121
420
 10937829
100
AcDbVertex
100
AcDb3dPolylineVertex
 10
61.3691291809082
 20
-0.0000000192529228
 30
100.0058975219726
 70
    32
  0
VERTEX
  5
16D
330
F7
100
AcDbEntity
  8
0
 62
   121
420
 10937829
100
AcDbVertex
100
AcDb3dPolylineVertex
 10
61.23867034912109
 20
-0.000000024195117
 30
99.87152862548828
 70
    32
  0
VERTEX
  5
16E
330
F7
100
AcDbEntity
  8
0
 62
   121
420
 10937829
100
AcDbVertex
100
AcDb3dPolylineVertex
 10
61.11351013183593
 20
-0.0000000282681185
 30
99.73298645019532
 70
    32
  0
VERTEX
  5
16F
330
F7
100
AcDbEntity
  8
0
 62
   121
420
 10937829
100
AcDbVertex
100
AcDb3dPolylineVertex
 10
60.99373626708985
 20
-0.0000000315196189
 30
99.5904541015625
 70
    32
  0
VERTEX
  5
170
330
F7
100
AcDbEntity
  8
0
 62
   121
420
 10937829
100
AcDbVertex
100
AcDb3dPolylineVertex
 10
60.87942886352539
 20
-0.000000033997253
 30
99.44409942626954
 70
    32
  0
VERTEX
  5
171
330
F7
100
AcDbEntity
  8
0
 62
   121
420
 10937829
100
AcDbVertex
100
AcDb3dPolylineVertex
 10
60.77067565917968
 20
-0.0000000357485419
 30
99.29410552978517
 70
    32
  0
VERTEX
  5
172
330
F7
100
AcDbEntity
  8
0
 62
   121
420
 10937829
100
AcDbVertex
100
AcDb3dPolylineVertex
 10
60.66755676269531
 20
-0.0000000368212341
 30
99.14065551757813
 70
    32
  0
VERTEX
  5
173
330
F7
100
AcDbEntity
  8
0
 62
   121
420
 10937829
100
AcDbVertex
100
AcDb3dPolylineVertex
 10
60.57015609741211
 20
-0.0000000372628506
 30
98.98391723632812
 70
    32
  0
VERTEX
  5
174
330
F7
100
AcDbEntity
  8
0
 62
   121
420
 10937829
100
AcDbVertex
100
AcDb3dPolylineVertex
 10
60.47856140136719
 20
-0.0000000371211399
 30
98.82408142089843
 70
    32
  0
VERTEX
  5
175
330
F7
100
AcDbEntity
  8
0
 62
   121
420
 10937829
100
AcDbVertex
100
AcDb3dPolylineVertex
 10
60.39284896850586
 20
-0.0000000364437938
 30
98.66131591796875
 70
    32
  0
VERTEX
  5
176
330
F7
100
AcDbEntity
  8
0
 62
   121
420
 10937829
100
AcDbVertex
100
AcDb3dPolylineVertex
 10
60.3131103515625
 20
-0.0000000352783331
 30
98.49581146240234
 70
    32
  0
VERTEX
  5
177
330
F7
100
AcDbEntity
  8
0
 62
   121
420
 10937829
100
AcDbVertex
100
AcDb3dPolylineVertex
 10
60.23941802978516
 20
-0.0000000336725634
 30
98.3277359008789
 70
    32
  0
VERTEX
  5
178
330
F7
100
AcDbEntity
  8
0
 62
   121
420
 10937829
100
AcDbVertex
100
AcDb3dPolylineVertex
 10
60.17186737060547
 20
-0.0000000316738351
 30
98.15726470947266
 70
    32
  0
VERTEX
  5
179
330
F7
100
AcDbEntity
  8
0
 62
   121
420
 10937829
100
AcDbVertex
100
AcDb3dPolylineVertex
 10
60.11053466796875
 20
-0.0000000293299536
 30
97.98458099365234
 70
    32
  0
VERTEX
  5
17A
330
F7
100
AcDbEntity
  8
0
 62
   121
420
 10937829
100
AcDbVertex
100
AcDb3dPolylineVertex
 10
60.05550765991211
 20
-0.0000000266885536
 30
97.80986785888671
 70
    32
  0
VERTEX
  5
17B
330
F7
100
AcDbEntity
  8
0
 62
   121
420
 10937829
100
AcDbVertex
100
AcDb3dPolylineVertex
 10
60.00686264038086
 20
-0.0000000237974405
 30
97.63330841064453
 70
    32
  0
VERTEX
  5
17C
330
F7
100
AcDbEntity
  8
0
 62
   121
420
 10937829
100
AcDbVertex
100
AcDb3dPolylineVertex
 10
59.96469116210938
 20
-0.0000000207040216
 30
97.45506286621093
 70
    32
  0
VERTEX
  5
17D
330
F7
100
AcDbEntity
  8
0
 62
   121
420
 10937829
100
AcDbVertex
100
AcDb3dPolylineVertex
 10
59.92907333374024
 20
-0.0000000174559887
 30
97.27532196044922
 70
    32
  0
VERTEX
  5
17E
330
F7
100
AcDbEntity
  8
0
 62
   121
420
 10937829
100
AcDbVertex
100
AcDb3dPolylineVertex
 10
59.90008926391602
 20
-0.0000000141009764
 30
97.0942611694336
 70
    32
  0
VERTEX
  5
17F
330
F7
100
AcDbEntity
  8
0
 62
   121
420
 10937829
100
AcDbVertex
100
AcDb3dPolylineVertex
 10
59.87783050537109
 20
-0.0000000106867333
 30
96.91205596923829
 70
    32
  0
VERTEX
  5
180
330
F7
100
AcDbEntity
  8
0
 62
   121
420
 10937829
100
AcDbVertex
100
AcDb3dPolylineVertex
 10
59.86236953735351
 20
-0.0000000072607236
 30
96.72889709472656
 70
    32
  0
VERTEX
  5
181
330
F7
100
AcDbEntity
  8
0
 62
   121
420
 10937829
100
AcDbVertex
100
AcDb3dPolylineVertex
 10
59.85380172729492
 20
-0.0000000038707526
 30
96.5449447631836
 70
    32
  0
VERTEX
  5
182
330
F7
100
AcDbEntity
  8
0
 62
   121
420
 10937829
100
AcDbVertex
100
AcDb3dPolylineVertex
 10
59.85220336914062
 20
-0.0000000005643415
 30
96.36038970947266
 70
    32
  0
VERTEX
  5
183
330
F7
100
AcDbEntity
  8
0
 62
   121
420
 10937829
100
AcDbVertex
100
AcDb3dPolylineVertex
 10
59.85765838623047
 20
0.0000000026107614
 30
96.17540740966797
 70
    32
  0
VERTEX
  5
184
330
F7
100
AcDbEntity
  8
0
 62
   121
420
 10937829
100
AcDbVertex
100
AcDb3dPolylineVertex
 10
59.8702507019043
 20
0.0000000056070348
 30
95.99017333984376
 70
    32
  0
VERTEX
  5
185
330
F7
100
AcDbEntity
  8
0
 62
   121
420
 10937829
100
AcDbVertex
100
AcDb3dPolylineVertex
 10
59.89006423950195
 20
0.0000000083767304
 30
95.80487823486327
 70
    32
  0
VERTEX
  5
186
330
F7
100
AcDbEntity
  8
0
 62
   121
420
 10937829
100
AcDbVertex
100
AcDb3dPolylineVertex
 10
59.91718292236328
 20
0.0000000108722134
 30
95.61968231201172
 70
    32
  0
VERTEX
  5
187
330
F7
100
AcDbEntity
  8
0
 62
   121
420
 10937829
100
AcDbVertex
100
AcDb3dPolylineVertex
 10
59.95169067382812
 20
0.0000000130459625
 30
95.43477630615234
 70
    32
  0
VERTEX
  5
188
330
F7
100
AcDbEntity
  8
0
 62
   121
420
 10937829
100
AcDbVertex
100
AcDb3dPolylineVertex
 10
60.01692581176758
 20
0.000000013980582
 30
95.16420745849609
 70
    32
  0
VERTEX
  5
189
330
F7
100
AcDbEntity
  8
0
 62
   121
420
 10937829
100
AcDbVertex
100
AcDb3dPolylineVertex
 10
60.10019302368164
 20
0.0000000112272573
 30
94.89098358154297
 70
    32
  0
VERTEX
  5
18A
330
F7
100
AcDbEntity
  8
0
 62
   121
420
 10937829
100
AcDbVertex
100
AcDb3dPolylineVertex
 10
60.19985198974609
 20
0.0000000051755933
 30
94.61579132080078
 70
    32
  0
VERTEX
  5
18B
330
F7
100
AcDbEntity
  8
0
 62
   121
420
 10937829
100
AcDbVertex
100
AcDb3dPolylineVertex
 10
60.31426620483398
 20
-0.0000000037851748
 30
94.3393325805664
 70
    32
  0
VERTEX
  5
18C
330
F7
100
AcDbEntity
  8
0
 62
   121
420
 10937829
100
AcDbVertex
100
AcDb3dPolylineVertex
 10
60.58082962036133
 20
-0.0000000288756894
 30
93.785400390625
 70
    32
  0
VERTEX
  5
18D
330
F7
100
AcDbEntity
  8
0
 62
   121
420
 10937829
100
AcDbVertex
100
AcDb3dPolylineVertex
 10
60.88679504394531
 20
-0.0000000609285848
 30
93.23474121093751
 70
    32
  0
VERTEX
  5
18E
330
F7
100
AcDbEntity
  8
0
 62
   121
420
 10937829
100
AcDbVertex
100
AcDb3dPolylineVertex
 10
61.56459426879883
 20
-0.0000001334590536
 30
92.16551971435547
 70
    32
  0
VERTEX
  5
18F
330
F7
100
AcDbEntity
  8
0
 62
   121
420
 10937829
100
AcDbVertex
100
AcDb3dPolylineVertex
 10
62.24297332763672
 20
-0.0000001964514098
 30
91.17617797851563
 70
    32
  0
VERTEX
  5
190
330
F7
100
AcDbEntity
  8
0
 62
   121
420
 10937829
100
AcDbVertex
100
AcDb3dPolylineVertex
 10
63.09335708618164
 20
-0.0000002469208198
 30
89.89796447753906
 70
    32
  0
VERTEX
  5
191
330
F7
100
AcDbEntity
  8
0
 62
   121
420
 10937829
100
AcDbVertex
100
AcDb3dPolylineVertex
 10
63.91756439208984
 20
-0.0000002685994787
 30
88.55848693847656
 70
    32
  0
VERTEX
  5
192
330
F7
100
AcDbEntity
  8
0
 62
   121
420
 10937829
100
AcDbVertex
100
AcDb3dPolylineVertex
 10
64.69217681884765
 20
-0.0000002659232905
 30
87.17405700683594
 70
    32
  0
VERTEX
  5
193
330
F7
100
AcDbEntity
  8
0
 62
   121
420
 10937829
100
AcDbVertex
100
AcDb3dPolylineVertex
 10
65.39379119873046
 20
-0.0000002433283157
 30
85.76094818115235
 70
    32
  0
VERTEX
  5
194
330
F7
100
AcDbEntity
  8
0
 62
   121
420
 10937829
100
AcDbVertex
100
AcDb3dPolylineVertex
 10
65.99899291992187
 20
-0.0000002052505153
 30
84.33545684814452
 70
    32
  0
VERTEX
  5
195
330
F7
100
AcDbEntity
  8
0
 62
   121
420
 10937829
100
AcDbVertex
100
AcDb3dPolylineVertex
 10
66.25812530517578
 20
-0.0000001817917905
 30
83.62316131591796
 70
    32
  0
VERTEX
  5
196
330
F7
100
AcDbEntity
  8
0
 62
   121
420
 10937829
100
AcDbVertex
100
AcDb3dPolylineVertex
 10
66.48436737060547
 20
-0.0000001561258216
 30
82.91388702392579
 70
    32
  0
VERTEX
  5
197
330
F7
100
AcDbEntity
  8
0
 62
   121
420
 10937829
100
AcDbVertex
100
AcDb3dPolylineVertex
 10
66.6748046875
 20
-0.0000001288071729
 30
82.20965576171876
 70
    32
  0
VERTEX
  5
198
330
F7
100
AcDbEntity
  8
0
 62
   121
420
 10937829
100
AcDbVertex
100
AcDb3dPolylineVertex
 10
66.82649993896484
 20
-0.0000001003902881
 30
81.51251220703125
 70
    32
  0
VERTEX
  5
199
330
F7
100
AcDbEntity
  8
0
 62
   121
420
 10937829
100
AcDbVertex
100
AcDb3dPolylineVertex
 10
66.93653106689453
 20
-0.0000000714296675
 30
80.82450103759766
 70
    32
  0
VERTEX
  5
19A
330
F7
100
AcDbEntity
  8
0
 62
   121
420
 10937829
100
AcDbVertex
100
AcDb3dPolylineVertex
 10
67.00198364257812
 20
-0.0000000424798401
 30
80.14764404296874
 70
    32
  0
VERTEX
  5
19B
330
F7
100
AcDbEntity
  8
0
 62
   121
420
 10937829
100
AcDbVertex
100
AcDb3dPolylineVertex
 10
67.03237915039062
 20
-0.0000000040517278
 30
79.25563049316406
 70
    32
  0
VERTEX
  5
19C
330
F7
100
AcDbEntity
  8
0
 62
   121
420
 10937829
100
AcDbVertex
100
AcDb3dPolylineVertex
 10
67.01197052001953
 20
0.0000000347042857
 30
78.36292266845703
 70
    32
  0
VERTEX
  5
19D
330
F7
100
AcDbEntity
  8
0
 62
   121
420
 10937829
100
AcDbVertex
100
AcDb3dPolylineVertex
 10
66.94141387939453
 20
0.0000000735939238
 30
77.47238922119141
 70
    32
  0
VERTEX
  5
19E
330
F7
100
AcDbEntity
  8
0
 62
   121
420
 10937829
100
AcDbVertex
100
AcDb3dPolylineVertex
 10
66.82135772705078
 20
0.0000001124230948
 30
76.58690643310547
 70
    32
  0
VERTEX
  5
19F
330
F7
100
AcDbEntity
  8
0
 62
   121
420
 10937829
100
AcDbVertex
100
AcDb3dPolylineVertex
 10
66.65245056152343
 20
0.0000001509976357
 30
75.7093505859375
 70
    32
  0
VERTEX
  5
1A0
330
F7
100
AcDbEntity
  8
0
 62
   121
420
 10937829
100
AcDbVertex
100
AcDb3dPolylineVertex
 10
66.43535614013671
 20
0.0000001891234831
 30
74.84259033203125
 70
    32
  0
VERTEX
  5
1A1
330
F7
100
AcDbEntity
  8
0
 62
   121
420
 10937829
100
AcDbVertex
100
AcDb3dPolylineVertex
 10
66.17071533203125
 20
0.000000226606403
 30
73.98950958251953
 70
    32
  0
VERTEX
  5
1A2
330
F7
100
AcDbEntity
  8
0
 62
   121
420
 10937829
100
AcDbVertex
100
AcDb3dPolylineVertex
 10
65.85918426513671
 20
0.0000002632523035
 30
73.15296936035156
 70
    32
  0
VERTEX
  5
1A3
330
F7
100
AcDbEntity
  8
0
 62
   121
420
 10937829
100
AcDbVertex
100
AcDb3dPolylineVertex
 10
65.50215148925781
 20
0.000000284684802
 30
72.33654022216796
 70
    32
  0
VERTEX
  5
1A4
330
F7
100
AcDbEntity
  8
0
 62
   121
420
 10937829
100
AcDbVertex
100
AcDb3dPolylineVertex
 10
65.10134887695312
 20
0.0000002817916709
 30
71.54298400878906
 70
    32
  0
VERTEX
  5
1A5
330
F7
100
AcDbEntity
  8
0
 62
   121
420
 10937829
100
AcDbVertex
100
AcDb3dPolylineVertex
 10
64.65794372558594
 20
0.0000002622748525
 30
70.77396392822265
 70
    32
  0
VERTEX
  5
1A6
330
F7
100
AcDbEntity
  8
0
 62
   121
420
 10937829
100
AcDbVertex
100
AcDb3dPolylineVertex
 10
64.173095703125
 20
0.00000023383609
 30
70.03118133544922
 70
    32
  0
VERTEX
  5
1A7
330
F7
100
AcDbEntity
  8
0
 62
   121
420
 10937829
100
AcDbVertex
100
AcDb3dPolylineVertex
 10
63.64796829223632
 20
0.0000002041775247
 30
69.31629943847656
 70
    32
  0
VERTEX
  5
1A8
330
F7
100
AcDbEntity
  8
0
 62
   121
420
 10937829
100
AcDbVertex
100
AcDb3dPolylineVertex
 10
63.0837287902832
 20
0.0000001810010417
 30
68.63101196289062
 70
    32
  0
VERTEX
  5
1A9
330
F7
100
AcDbEntity
  8
0
 62
   121
420
 10937829
100
AcDbVertex
100
AcDb3dPolylineVertex
 10
62.48153686523437
 20
0.0000001720084128
 30
67.97698974609375
 70
    32
  0
VERTEX
  5
1AA
330
F7
100
AcDbEntity
  8
0
 62
   121
420
 10937829
100
AcDbVertex
100
AcDb3dPolylineVertex
 10
61.84255599975585
 20
0.0000001849017508
 30
67.35591125488281
 70
    32
  0
VERTEX
  5
1AB
330
F7
100
AcDbEntity
  8
0
 62
   121
420
 10937829
100
AcDbVertex
100
AcDb3dPolylineVertex
 10
61.97649765014649
 20
0.0000001750689762
 30
67.25474548339843
 70
    32
  0
VERTEX
  5
1AC
330
F7
100
AcDbEntity
  8
0
 62
   121
420
 10937829
100
AcDbVertex
100
AcDb3dPolylineVertex
 10
62.1060791015625
 20
0.0000001421377647
 30
67.14837646484375
 70
    32
  0
VERTEX
  5
1AD
330
F7
100
AcDbEntity
  8
0
 62
   121
420
 10937829
100
AcDbVertex
100
AcDb3dPolylineVertex
 10
62.23115539550781
 20
0.0000000938767926
 30
67.03694915771484
 70
    32
  0
VERTEX
  5
1AE
330
F7
100
AcDbEntity
  8
0
 62
   121
420
 10937829
100
AcDbVertex
100
AcDb3dPolylineVertex
 10
62.35158538818359
 20
0.0000000380551342
 30
66.92060852050781
 70
    32
  0
VERTEX
  5
1AF
330
F7
100
AcDbEntity
  8
0
 62
   121
420
 10937829
100
AcDbVertex
100
AcDb3dPolylineVertex
 10
62.46722030639649
 20
-0.0000000175580794
 30
66.79950714111328
 70
    32
  0
VERTEX
  5
1B0
330
F7
100
AcDbEntity
  8
0
 62
   121
420
 10937829
100
AcDbVertex
100
AcDb3dPolylineVertex
 10
62.57791519165039
 20
-0.0000000651940582
 30
66.67378234863281
 70
    32
  0
VERTEX
  5
1B1
330
F7
100
AcDbEntity
  8
0
 62
   121
420
 10937829
100
AcDbVertex
100
AcDb3dPolylineVertex
 10
62.68352508544921
 20
-0.0000000970837277
 30
66.5435791015625
 70
    32
  0
VERTEX
  5
1B2
330
F7
100
AcDbEntity
  8
0
 62
   121
420
 10937829
100
AcDbVertex
100
AcDb3dPolylineVertex
 10
62.78390884399414
 20
-0.0000001054580139
 30
66.4090576171875
 70
    32
  0
VERTEX
  5
1B3
330
F7
100
AcDbEntity
  8
0
 62
   121
420
 10937829
100
AcDbVertex
100
AcDb3dPolylineVertex
 10
62.88014602661132
 20
-0.0000000993027811
 30
66.26823425292968
 70
    32
  0
VERTEX
  5
1B4
330
F7
100
AcDbEntity
  8
0
 62
   121
420
 10937829
100
AcDbVertex
100
AcDb3dPolylineVertex
 10
62.97102355957031
 20
-0.0000000929401835
 30
66.1226806640625
 70
    32
  0
VERTEX
  5
1B5
330
F7
100
AcDbEntity
  8
0
 62
   121
420
 10937829
100
AcDbVertex
100
AcDb3dPolylineVertex
 10
63.055908203125
 20
-0.0000000864277467
 30
65.97370147705078
 70
    32
  0
VERTEX
  5
1B6
330
F7
100
AcDbEntity
  8
0
 62
   121
420
 10937829
100
AcDbVertex
100
AcDb3dPolylineVertex
 10
63.13414764404297
 20
-0.0000000798229394
 30
65.82260131835937
 70
    32
  0
VERTEX
  5
1B7
330
F7
100
AcDbEntity
  8
0
 62
   121
420
 10937829
100
AcDbVertex
100
AcDb3dPolylineVertex
 10
63.20199203491211
 20
-0.0000000705133516
 30
65.67518615722656
 70
    32
  0
VERTEX
  5
1B8
330
F7
100
AcDbEntity
  8
0
 62
   121
420
 10937829
100
AcDbVertex
100
AcDb3dPolylineVertex
 10
63.26225280761718
 20
-0.0000000558189299
 30
65.52468872070313
 70
    32
  0
VERTEX
  5
1B9
330
F7
100
AcDbEntity
  8
0
 62
   121
420
 10937829
100
AcDbVertex
100
AcDb3dPolylineVertex
 10
63.31536483764648
 20
-0.0000000364743187
 30
65.37136840820313
 70
    32
  0
VERTEX
  5
1BA
330
F7
100
AcDbEntity
  8
0
 62
   121
420
 10937829
100
AcDbVertex
100
AcDb3dPolylineVertex
 10
63.36177825927734
 20
-0.0000000132139348
 30
65.2154541015625
 70
    32
  0
VERTEX
  5
1BB
330
F7
100
AcDbEntity
  8
0
 62
   121
420
 10937829
100
AcDbVertex
100
AcDb3dPolylineVertex
 10
63.40192413330078
 20
0.0000000132281457
 30
65.05718994140625
 70
    32
  0
VERTEX
  5
1BC
330
F7
100
AcDbEntity
  8
0
 62
   121
420
 10937829
100
AcDbVertex
100
AcDb3dPolylineVertex
 10
63.43625259399414
 20
0.0000000421175628
 30
64.89683532714844
 70
    32
  0
VERTEX
  5
1BD
330
F7
100
AcDbEntity
  8
0
 62
   121
420
 10937829
100
AcDbVertex
100
AcDb3dPolylineVertex
 10
63.48921203613281
 20
0.0000001043005682
 30
64.57083129882812
 70
    32
  0
VERTEX
  5
1BE
330
F7
100
AcDbEntity
  8
0
 62
   121
420
 10937829
100
AcDbVertex
100
AcDb3dPolylineVertex
 10
63.52417755126953
 20
0.0000001674609962
 30
64.23939514160156
 70
    32
  0
VERTEX
  5
1BF
330
F7
100
AcDbEntity
  8
0
 62
   121
420
 10937829
100
AcDbVertex
100
AcDb3dPolylineVertex
 10
63.54468536376953
 20
0.0000002257240226
 30
63.90449523925781
 70
    32
  0
VERTEX
  5
1C0
330
F7
100
AcDbEntity
  8
0
 62
   121
420
 10937829
100
AcDbVertex
100
AcDb3dPolylineVertex
 10
63.55643844604492
 20
0.0000003040598813
 30
63.23220825195313
 70
    32
  0
VERTEX
  5
1C1
330
F7
100
AcDbEntity
  8
0
 62
   121
420
 10937829
100
AcDbVertex
100
AcDb3dPolylineVertex
 10
63.55643463134765
 20
0.0000003858613695
 30
62.52940368652343
 70
    32
  0
VERTEX
  5
1C2
330
F7
100
AcDbEntity
  8
0
 62
   121
420
 10937829
100
AcDbVertex
100
AcDb3dPolylineVertex
 10
63.69396209716796
 20
0.0000003811388183
 30
62.50001525878906
 70
    32
  0
VERTEX
  5
1C3
330
F7
100
AcDbEntity
  8
0
 62
   121
420
 10937829
100
AcDbVertex
100
AcDb3dPolylineVertex
 10
63.82979965209961
 20
0.0000003656844569
 30
62.46519470214844
 70
    32
  0
VERTEX
  5
1C4
330
F7
100
AcDbEntity
  8
0
 62
   121
420
 10937829
100
AcDbVertex
100
AcDb3dPolylineVertex
 10
63.96379089355469
 20
0.00000034106165
 30
62.42501449584961
 70
    32
  0
VERTEX
  5
1C5
330
F7
100
AcDbEntity
  8
0
 62
   121
420
 10937829
100
AcDbVertex
100
AcDb3dPolylineVertex
 10
64.09579467773437
 20
0.0000003088339326
 30
62.37956237792968
 70
    32
  0
VERTEX
  5
1C6
330
F7
100
AcDbEntity
  8
0
 62
   121
420
 10937829
100
AcDbVertex
100
AcDb3dPolylineVertex
 10
64.22566223144531
 20
0.0000002705646125
 30
62.32892990112304
 70
    32
  0
VERTEX
  5
1C7
330
F7
100
AcDbEntity
  8
0
 62
   121
420
 10937829
100
AcDbVertex
100
AcDb3dPolylineVertex
 10
64.3532485961914
 20
0.0000002278171678
 30
62.27318954467773
 70
    32
  0
VERTEX
  5
1C8
330
F7
100
AcDbEntity
  8
0
 62
   121
420
 10937829
100
AcDbVertex
100
AcDb3dPolylineVertex
 10
64.47840118408203
 20
0.0000001821549063
 30
62.21243286132812
 70
    32
  0
VERTEX
  5
1C9
330
F7
100
AcDbEntity
  8
0
 62
   121
420
 10937829
100
AcDbVertex
100
AcDb3dPolylineVertex
 10
64.60096740722656
 20
0.0000001351414198
 30
62.14673614501953
 70
    32
  0
VERTEX
  5
1CA
330
F7
100
AcDbEntity
  8
0
 62
   121
420
 10937829
100
AcDbVertex
100
AcDb3dPolylineVertex
 10
64.72080993652344
 20
0.0000000883403004
 30
62.0761833190918
 70
    32
  0
VERTEX
  5
1CB
330
F7
100
AcDbEntity
  8
0
 62
   121
420
 10937829
100
AcDbVertex
100
AcDb3dPolylineVertex
 10
64.83777618408203
 20
0.0000000433147989
 30
62.00086212158203
 70
    32
  0
VERTEX
  5
1CC
330
F7
100
AcDbEntity
  8
0
 62
   121
420
 10937829
100
AcDbVertex
100
AcDb3dPolylineVertex
 10
64.95171356201172
 20
0.0000000016283934
 30
61.92084503173828
 70
    32
  0
VERTEX
  5
1CD
330
F7
100
AcDbEntity
  8
0
 62
   121
420
 10937829
100
AcDbVertex
100
AcDb3dPolylineVertex
 10
65.06248474121093
 20
-0.000000035155665
 30
61.83623123168946
 70
    32
  0
VERTEX
  5
1CE
330
F7
100
AcDbEntity
  8
0
 62
   121
420
 10937829
100
AcDbVertex
100
AcDb3dPolylineVertex
 10
65.16993713378906
 20
-0.0000000654737278
 30
61.74709320068359
 70
    32
  0
VERTEX
  5
1CF
330
F7
100
AcDbEntity
  8
0
 62
   121
420
 10937829
100
AcDbVertex
100
AcDb3dPolylineVertex
 10
65.27391815185547
 20
-0.0000000877623734
 30
61.65351867675781
 70
    32
  0
VERTEX
  5
1D0
330
F7
100
AcDbEntity
  8
0
 62
   121
420
 10937829
100
AcDbVertex
100
AcDb3dPolylineVertex
 10
65.37428283691406
 20
-0.0000001004582373
 30
61.55558395385742
 70
    32
  0
VERTEX
  5
1D1
330
F7
100
AcDbEntity
  8
0
 62
   121
420
 10937829
100
AcDbVertex
100
AcDb3dPolylineVertex
 10
65.47087860107422
 20
-0.0000001019977844
 30
61.45337677001953
 70
    32
  0
VERTEX
  5
1D2
330
F7
100
AcDbEntity
  8
0
 62
   121
420
 10937829
100
AcDbVertex
100
AcDb3dPolylineVertex
 10
65.56326293945312
 20
-0.0000000973629994
 30
61.34734725952148
 70
    32
  0
VERTEX
  5
1D3
330
F7
100
AcDbEntity
  8
0
 62
   121
420
 10937829
100
AcDbVertex
100
AcDb3dPolylineVertex
 10
65.65103149414063
 20
-0.0000000925822405
 30
61.23797988891602
 70
    32
  0
VERTEX
  5
1D4
330
F7
100
AcDbEntity
  8
0
 62
   121
420
 10937829
100
AcDbVertex
100
AcDb3dPolylineVertex
 10
65.73411560058594
 20
-0.0000000876630111
 30
61.12543869018555
 70
    32
  0
VERTEX
  5
1D5
330
F7
100
AcDbEntity
  8
0
 62
   121
420
 10937829
100
AcDbVertex
100
AcDb3dPolylineVertex
 10
65.81244659423828
 20
-0.0000000826114501
 30
61.00987243652344
 70
    32
  0
VERTEX
  5
1D6
330
F7
100
AcDbEntity
  8
0
 62
   121
420
 10937829
100
AcDbVertex
100
AcDb3dPolylineVertex
 10
65.88595581054687
 20
-0.0000000774346063
 30
60.89144134521484
 70
    32
  0
VERTEX
  5
1D7
330
F7
100
AcDbEntity
  8
0
 62
   121
420
 10937829
100
AcDbVertex
100
AcDb3dPolylineVertex
 10
65.95457458496094
 20
-0.0000000721391871
 30
60.77029418945312
 70
    32
  0
VERTEX
  5
1D8
330
F7
100
AcDbEntity
  8
0
 62
   121
420
 10937829
100
AcDbVertex
100
AcDb3dPolylineVertex
 10
66.01823425292969
 20
-0.0000000667320137
 30
60.6465950012207
 70
    32
  0
VERTEX
  5
1D9
330
F7
100
AcDbEntity
  8
0
 62
   121
420
 10937829
100
AcDbVertex
100
AcDb3dPolylineVertex
 10
66.07685852050781
 20
-0.0000000612200211
 30
60.52049255371094
 70
    32
  0
VERTEX
  5
1DA
330
F7
100
AcDbEntity
  8
0
 62
   121
420
 10937829
100
AcDbVertex
100
AcDb3dPolylineVertex
 10
66.13040161132812
 20
-0.0000000556095756
 30
60.39214324951172
 70
    32
  0
VERTEX
  5
1DB
330
F7
100
AcDbEntity
  8
0
 62
   121
420
 10937829
100
AcDbVertex
100
AcDb3dPolylineVertex
 10
66.17877197265625
 20
-0.0000000499079533
 30
60.26170349121094
 70
    32
  0
VERTEX
  5
1DC
330
F7
100
AcDbEntity
  8
0
 62
   121
420
 10937829
100
AcDbVertex
100
AcDb3dPolylineVertex
 10
66.22190856933594
 20
-0.0000000441216343
 30
60.12932586669922
 70
    32
  0
VERTEX
  5
1DD
330
F7
100
AcDbEntity
  8
0
 62
   121
420
 10937829
100
AcDbVertex
100
AcDb3dPolylineVertex
 10
66.25975036621094
 20
-0.0000000382574399
 30
59.99517059326172
 70
    32
  0
VERTEX
  5
1DE
330
F7
100
AcDbEntity
  8
0
 62
   121
420
 10937829
100
AcDbVertex
100
AcDb3dPolylineVertex
 10
66.29222106933593
 20
-0.0000000323223048
 30
59.85939025878906
 70
    32
  0
VERTEX
  5
1DF
330
F7
100
AcDbEntity
  8
0
 62
   121
420
 10937829
100
AcDbVertex
100
AcDb3dPolylineVertex
 10
66.31925201416016
 20
-0.000000026322823
 30
59.72213745117187
 70
    32
  0
VERTEX
  5
1E0
330
F7
100
AcDbEntity
  8
0
 62
   121
420
 10937829
100
AcDbVertex
100
AcDb3dPolylineVertex
 10
66.34077453613281
 20
-0.0000000202658157
 30
59.58357238769531
 70
    32
  0
VERTEX
  5
1E1
330
F7
100
AcDbEntity
  8
0
 62
   121
420
 10937829
100
AcDbVertex
100
AcDb3dPolylineVertex
 10
66.35672760009765
 20
-0.0000000141583314
 30
59.44384765625
 70
    32
  0
VERTEX
  5
1E2
330
F7
100
AcDbEntity
  8
0
 62
   121
420
 10937829
100
AcDbVertex
100
AcDb3dPolylineVertex
 10
66.36701202392578
 20
-0.0000000090265075
 30
59.3035888671875
 70
    32
  0
VERTEX
  5
1E3
330
F7
100
AcDbEntity
  8
0
 62
   121
420
 10937829
100
AcDbVertex
100
AcDb3dPolylineVertex
 10
66.37159729003906
 20
-0.0000000057234502
 30
59.16343688964843
 70
    32
  0
VERTEX
  5
1E4
330
F7
100
AcDbEntity
  8
0
 62
   121
420
 10937829
100
AcDbVertex
100
AcDb3dPolylineVertex
 10
66.37053680419922
 20
-0.000000003996206
 30
59.02355194091796
 70
    32
  0
VERTEX
  5
1E5
330
F7
100
AcDbEntity
  8
0
 62
   121
420
 10937829
100
AcDbVertex
100
AcDb3dPolylineVertex
 10
66.36385345458984
 20
-0.0000000035906851
 30
58.88410186767578
 70
    32
  0
VERTEX
  5
1E6
330
F7
100
AcDbEntity
  8
0
 62
   121
420
 10937829
100
AcDbVertex
100
AcDb3dPolylineVertex
 10
66.35159301757813
 20
-0.0000000042538204
 30
58.74525070190429
 70
    32
  0
VERTEX
  5
1E7
330
F7
100
AcDbEntity
  8
0
 62
   121
420
 10937829
100
AcDbVertex
100
AcDb3dPolylineVertex
 10
66.33379364013672
 20
-0.0000000057324314
 30
58.60716629028321
 70
    32
  0
VERTEX
  5
1E8
330
F7
100
AcDbEntity
  8
0
 62
   121
420
 10937829
100
AcDbVertex
100
AcDb3dPolylineVertex
 10
66.31049346923828
 20
-0.0000000077727691
 30
58.47000885009766
 70
    32
  0
VERTEX
  5
1E9
330
F7
100
AcDbEntity
  8
0
 62
   121
420
 10937829
100
AcDbVertex
100
AcDb3dPolylineVertex
 10
66.28173065185547
 20
-0.0000000101216528
 30
58.3339500427246
 70
    32
  0
VERTEX
  5
1EA
330
F7
100
AcDbEntity
  8
0
 62
   121
420
 10937829
100
AcDbVertex
100
AcDb3dPolylineVertex
 10
66.24754333496094
 20
-0.0000000125257884
 30
58.19915008544922
 70
    32
  0
VERTEX
  5
1EB
330
F7
100
AcDbEntity
  8
0
 62
   121
420
 10937829
100
AcDbVertex
100
AcDb3dPolylineVertex
 10
66.20796966552735
 20
-0.0000000147315404
 30
58.06577682495117
 70
    32
  0
VERTEX
  5
1EC
330
F7
100
AcDbEntity
  8
0
 62
   121
420
 10937829
100
AcDbVertex
100
AcDb3dPolylineVertex
 10
66.16305541992187
 20
-0.0000000164856147
 30
57.93399810791015
 70
    32
  0
VERTEX
  5
1ED
330
F7
100
AcDbEntity
  8
0
 62
   121
420
 10937829
100
AcDbVertex
100
AcDb3dPolylineVertex
 10
66.11282348632812
 20
-0.0000000175347168
 30
57.80397033691406
 70
    32
  0
VERTEX
  5
1EE
330
F7
100
AcDbEntity
  8
0
 62
   121
420
 10937829
100
AcDbVertex
100
AcDb3dPolylineVertex
 10
66.05732727050781
 20
-0.0000000176250978
 30
57.67586517333985
 70
    32
  0
VERTEX
  5
1EF
330
F7
100
AcDbEntity
  8
0
 62
   121
420
 10937829
100
AcDbVertex
100
AcDb3dPolylineVertex
 10
65.99659729003906
 20
-0.0000000165036909
 30
57.54984664916992
 70
    32
  0
VERTEX
  5
1F0
330
F7
100
AcDbEntity
  8
0
 62
   121
420
 10937829
100
AcDbVertex
100
AcDb3dPolylineVertex
 10
65.93067169189453
 20
-0.0000000139170879
 30
57.42608261108398
 70
    32
  0
VERTEX
  5
1F1
330
F7
100
AcDbEntity
  8
0
 62
   121
420
 10937829
100
AcDbVertex
100
AcDb3dPolylineVertex
 10
65.85958862304687
 20
-0.0000000096117674
 30
57.30473327636719
 70
    32
  0
VERTEX
  5
1F2
330
F7
100
AcDbEntity
  8
0
 62
   121
420
 10937829
100
AcDbVertex
100
AcDb3dPolylineVertex
 10
66.00182342529297
 20
-0.0000000207809308
 30
57.24226760864258
 70
    32
  0
VERTEX
  5
1F3
330
F7
100
AcDbEntity
  8
0
 62
   121
420
 10937829
100
AcDbVertex
100
AcDb3dPolylineVertex
 10
66.14044189453125
 20
-0.000000048220727
 30
57.17044830322265
 70
    32
  0
VERTEX
  5
1F4
330
F7
100
AcDbEntity
  8
0
 62
   121
420
 10937829
100
AcDbVertex
100
AcDb3dPolylineVertex
 10
66.27428436279297
 20
-0.0000000752852429
 30
57.09004211425781
 70
    32
  0
VERTEX
  5
1F5
330
F7
100
AcDbEntity
  8
0
 62
   121
420
 10937829
100
AcDbVertex
100
AcDb3dPolylineVertex
 10
66.40219116210937
 20
-0.000000085329475
 30
57.00184631347656
 70
    32
  0
VERTEX
  5
1F6
330
F7
100
AcDbEntity
  8
0
 62
   121
420
 10937829
100
AcDbVertex
100
AcDb3dPolylineVertex
 10
66.445556640625
 20
-0.00000008360621
 30
56.96783065795898
 70
    32
  0
VERTEX
  5
1F7
330
F7
100
AcDbEntity
  8
0
 62
   121
420
 10937829
100
AcDbVertex
100
AcDb3dPolylineVertex
 10
66.48814392089843
 20
-0.0000000812926828
 30
56.9305419921875
 70
    32
  0
VERTEX
  5
1F8
330
F7
100
AcDbEntity
  8
0
 62
   121
420
 10937829
100
AcDbVertex
100
AcDb3dPolylineVertex
 10
66.52997589111328
 20
-0.0000000784395979
 30
56.89025497436523
 70
    32
  0
VERTEX
  5
1F9
330
F7
100
AcDbEntity
  8
0
 62
   121
420
 10937829
100
AcDbVertex
100
AcDb3dPolylineVertex
 10
66.57109832763672
 20
-0.0000000750973186
 30
56.84725189208984
 70
    32
  0
VERTEX
  5
1FA
330
F7
100
AcDbEntity
  8
0
 62
   121
420
 10937829
100
AcDbVertex
100
AcDb3dPolylineVertex
 10
66.6513900756836
 20
-0.0000000671503813
 30
56.7542610168457
 70
    32
  0
VERTEX
  5
1FB
330
F7
100
AcDbEntity
  8
0
 62
   121
420
 10937829
100
AcDbVertex
100
AcDb3dPolylineVertex
 10
66.72933197021484
 20
-0.0000000578585286
 30
56.65383911132813
 70
    32
  0
VERTEX
  5
1FC
330
F7
100
AcDbEntity
  8
0
 62
   121
420
 10937829
100
AcDbVertex
100
AcDb3dPolylineVertex
 10
67.02399444580078
 20
-0.000000015381147
 30
56.22332763671875
 70
    32
  0
VERTEX
  5
1FD
330
F7
100
AcDbEntity
  8
0
 62
   121
420
 10937829
100
AcDbVertex
100
AcDb3dPolylineVertex
 10
67.0931167602539
 20
-0.0000000060978209
 30
56.12479400634765
 70
    32
  0
VERTEX
  5
1FE
330
F7
100
AcDbEntity
  8
0
 62
   121
420
 10937829
100
AcDbVertex
100
AcDb3dPolylineVertex
 10
67.16624450683593
 20
0.0000000022592985
 30
56.02854919433593
 70
    32
  0
VERTEX
  5
1FF
330
F7
100
AcDbEntity
  8
0
 62
   121
420
 10937829
100
AcDbVertex
100
AcDb3dPolylineVertex
 10
67.2432861328125
 20
0.0000000095861878
 30
55.93506622314453
 70
    32
  0
VERTEX
  5
200
330
F7
100
AcDbEntity
  8
0
 62
   121
420
 10937829
100
AcDbVertex
100
AcDb3dPolylineVertex
 10
67.32412719726562
 20
0.0000000157795057
 30
55.84479141235352
 70
    32
  0
VERTEX
  5
201
330
F7
100
AcDbEntity
  8
0
 62
   121
420
 10937829
100
AcDbVertex
100
AcDb3dPolylineVertex
 10
67.4086685180664
 20
0.0000000207356834
 30
55.75819396972656
 70
    32
  0
VERTEX
  5
202
330
F7
100
AcDbEntity
  8
0
 62
   121
420
 10937829
100
AcDbVertex
100
AcDb3dPolylineVertex
 10
67.49681854248047
 20
0.0000000243513796
 30
55.67572784423828
 70
    32
  0
VERTEX
  5
203
330
F7
100
AcDbEntity
  8
0
 62
   121
420
 10937829
100
AcDbVertex
100
AcDb3dPolylineVertex
 10
67.58845520019531
 20
0.0000000265227982
 30
55.59785079956054
 70
    32
  0
VERTEX
  5
204
330
F7
100
AcDbEntity
  8
0
 62
   121
420
 10937829
100
AcDbVertex
100
AcDb3dPolylineVertex
 10
67.6834945678711
 20
0.0000000271462568
 30
55.52503204345703
 70
    32
  0
VERTEX
  5
205
330
F7
100
AcDbEntity
  8
0
 62
   121
420
 10937829
100
AcDbVertex
100
AcDb3dPolylineVertex
 10
67.78146362304688
 20
0.0000000263312359
 30
55.45704650878906
 70
    32
  0
VERTEX
  5
206
330
F7
100
AcDbEntity
  8
0
 62
   121
420
 10937829
100
AcDbVertex
100
AcDb3dPolylineVertex
 10
67.88259887695312
 20
0.0000000242789611
 30
55.39276123046875
 70
    32
  0
VERTEX
  5
207
330
F7
100
AcDbEntity
  8
0
 62
   121
420
 10937829
100
AcDbVertex
100
AcDb3dPolylineVertex
 10
67.98650360107422
 20
0.000000021026608
 30
55.33222579956055
 70
    32
  0
VERTEX
  5
208
330
F7
100
AcDbEntity
  8
0
 62
   121
420
 10937829
100
AcDbVertex
100
AcDb3dPolylineVertex
 10
68.09281158447266
 20
0.000000016611466
 30
55.27547454833984
 70
    32
  0
VERTEX
  5
209
330
F7
100
AcDbEntity
  8
0
 62
   121
420
 10937829
100
AcDbVertex
100
AcDb3dPolylineVertex
 10
68.20114135742187
 20
0.0000000110710516
 30
55.2225570678711
 70
    32
  0
VERTEX
  5
20A
330
F7
100
AcDbEntity
  8
0
 62
   121
420
 10937829
100
AcDbVertex
100
AcDb3dPolylineVertex
 10
68.31110382080078
 20
0.0000000044424269
 30
55.17350006103516
 70
    32
  0
VERTEX
  5
20B
330
F7
100
AcDbEntity
  8
0
 62
   121
420
 10937829
100
AcDbVertex
100
AcDb3dPolylineVertex
 10
68.53443145751953
 20
-0.0000000119306378
 30
55.08716583251953
 70
    32
  0
VERTEX
  5
20C
330
F7
100
AcDbEntity
  8
0
 62
   121
420
 10937829
100
AcDbVertex
100
AcDb3dPolylineVertex
 10
68.71816253662109
 20
-0.0000000265646349
 30
55.02192687988281
 70
    32
  0
VERTEX
  5
20D
330
F7
100
AcDbEntity
  8
0
 62
   121
420
 10937829
100
AcDbVertex
100
AcDb3dPolylineVertex
 10
68.89958953857422
 20
-0.0000000388832859
 30
54.94941711425781
 70
    32
  0
VERTEX
  5
20E
330
F7
100
AcDbEntity
  8
0
 62
   121
420
 10937829
100
AcDbVertex
100
AcDb3dPolylineVertex
 10
68.98699188232422
 20
-0.0000000433363994
 30
54.90861511230469
 70
    32
  0
VERTEX
  5
20F
330
F7
100
AcDbEntity
  8
0
 62
   121
420
 10937829
100
AcDbVertex
100
AcDb3dPolylineVertex
 10
69.07089233398437
 20
-0.0000000462043772
 30
54.86379623413085
 70
    32
  0
VERTEX
  5
210
330
F7
100
AcDbEntity
  8
0
 62
   121
420
 10937829
100
AcDbVertex
100
AcDb3dPolylineVertex
 10
69.11122131347656
 20
-0.0000000469393626
 30
54.83965301513672
 70
    32
  0
VERTEX
  5
211
330
F7
100
AcDbEntity
  8
0
 62
   121
420
 10937829
100
AcDbVertex
100
AcDb3dPolylineVertex
 10
69.15030670166015
 20
-0.0000000471526391
 30
54.81423950195313
 70
    32
  0
VERTEX
  5
212
330
F7
100
AcDbEntity
  8
0
 62
   121
420
 10937829
100
AcDbVertex
100
AcDb3dPolylineVertex
 10
69.18802642822265
 20
-0.0000000468019152
 30
54.78745269775391
 70
    32
  0
VERTEX
  5
213
330
F7
100
AcDbEntity
  8
0
 62
   121
420
 10937829
100
AcDbVertex
100
AcDb3dPolylineVertex
 10
69.22425842285156
 20
-0.0000000458455816
 30
54.75920867919922
 70
    32
  0
VERTEX
  5
214
330
F7
100
AcDbEntity
  8
0
 62
   121
420
 10937829
100
AcDbVertex
100
AcDb3dPolylineVertex
 10
69.25892639160156
 20
-0.0000000444543957
 30
54.72941589355468
 70
    32
  0
VERTEX
  5
215
330
F7
100
AcDbEntity
  8
0
 62
   121
420
 10937829
100
AcDbVertex
100
AcDb3dPolylineVertex
 10
69.29277038574219
 20
-0.000000042488864
 30
54.69752502441406
 70
    32
  0
VERTEX
  5
216
330
F7
100
AcDbEntity
  8
0
 62
   121
420
 10937829
100
AcDbVertex
100
AcDb3dPolylineVertex
 10
69.32571411132812
 20
-0.0000000394823019
 30
54.66370773315429
 70
    32
  0
VERTEX
  5
217
330
F7
100
AcDbEntity
  8
0
 62
   121
420
 10937829
100
AcDbVertex
100
AcDb3dPolylineVertex
 10
69.35768127441406
 20
-0.0000000349688207
 30
54.62814331054687
 70
    32
  0
VERTEX
  5
218
330
F7
100
AcDbEntity
  8
0
 62
   121
420
 10937829
100
AcDbVertex
100
AcDb3dPolylineVertex
 10
69.38859558105469
 20
-0.000000028481395
 30
54.59098052978515
 70
    32
  0
VERTEX
  5
219
330
F7
100
AcDbEntity
  8
0
 62
   121
420
 10937829
100
AcDbVertex
100
AcDb3dPolylineVertex
 10
69.41839599609375
 20
-0.0000000195540224
 30
54.55240631103515
 70
    32
  0
VERTEX
  5
21A
330
F7
100
AcDbEntity
  8
0
 62
   121
420
 10937829
100
AcDbVertex
100
AcDb3dPolylineVertex
 10
69.47434234619141
 20
0.0000000074861646
 30
54.4716911315918
 70
    32
  0
VERTEX
  5
21B
330
F7
100
AcDbEntity
  8
0
 62
   121
420
 10937829
100
AcDbVertex
100
AcDb3dPolylineVertex
 10
69.52494049072265
 20
0.0000000498829422
 30
54.38735198974609
 70
    32
  0
VERTEX
  5
21C
330
F7
100
AcDbEntity
  8
0
 62
   121
420
 10937829
100
AcDbVertex
100
AcDb3dPolylineVertex
 10
69.56960296630859
 20
0.0000001113677399
 30
54.30073547363281
 70
    32
  0
VERTEX
  5
21D
330
F7
100
AcDbEntity
  8
0
 62
   121
420
 10937829
100
AcDbVertex
100
AcDb3dPolylineVertex
 10
69.60774230957031
 20
0.0000001956711912
 30
54.21321868896484
 70
    32
  0
VERTEX
  5
21E
330
F7
100
AcDbEntity
  8
0
 62
   121
420
 10937829
100
AcDbVertex
100
AcDb3dPolylineVertex
 10
69.62419128417969
 20
0.0000002475460406
 30
54.16954040527343
 70
    32
  0
VERTEX
  5
21F
330
F7
100
AcDbEntity
  8
0
 62
   121
420
 10937829
100
AcDbVertex
100
AcDb3dPolylineVertex
 10
69.6387939453125
 20
0.0000003065244982
 30
54.12614440917969
 70
    32
  0
VERTEX
  5
220
330
F7
100
AcDbEntity
  8
0
 62
   121
420
 10937829
100
AcDbVertex
100
AcDb3dPolylineVertex
 10
69.65129089355468
 20
0.0000003645705533
 30
54.08341598510742
 70
    32
  0
VERTEX
  5
221
330
F7
100
AcDbEntity
  8
0
 62
   121
420
 10937829
100
AcDbVertex
100
AcDb3dPolylineVertex
 10
69.66201782226562
 20
0.0000004157550393
 30
54.04020309448242
 70
    32
  0
VERTEX
  5
222
330
F7
100
AcDbEntity
  8
0
 62
   121
420
 10937829
100
AcDbVertex
100
AcDb3dPolylineVertex
 10
69.6787338256836
 20
0.0000004993313496
 30
53.95247650146484
 70
    32
  0
VERTEX
  5
223
330
F7
100
AcDbEntity
  8
0
 62
   121
420
 10937829
100
AcDbVertex
100
AcDb3dPolylineVertex
 10
69.68997955322265
 20
0.000000560836213
 30
53.86331176757813
 70
    32
  0
VERTEX
  5
224
330
F7
100
AcDbEntity
  8
0
 62
   121
420
 10937829
100
AcDbVertex
100
AcDb3dPolylineVertex
 10
69.69681549072266
 20
0.0000006038512765
 30
53.7730712890625
 70
    32
  0
VERTEX
  5
225
330
F7
100
AcDbEntity
  8
0
 62
   121
420
 10937829
100
AcDbVertex
100
AcDb3dPolylineVertex
 10
69.7011489868164
 20
0.0000006626626146
 30
53.40816879272461
 70
    32
  0
VERTEX
  5
226
330
F7
100
AcDbEntity
  8
0
 62
   121
420
 10937829
100
AcDbVertex
100
AcDb3dPolylineVertex
 10
69.7011489868164
 20
0.0000045700876399
 30
-20.91451263427734
 70
    32
  0
VERTEX
  5
227
330
F7
100
AcDbEntity
  8
0
 62
   121
420
 10937829
100
AcDbVertex
100
AcDb3dPolylineVertex
 10
50.91487503051758
 20
0.0000045700876399
 30
-20.91451263427734
 70
    32
  0
VERTEX
  5
228
330
F7
100
AcDbEntity
  8
0
 62
   121
420
 10937829
100
AcDbVertex
100
AcDb3dPolylineVertex
 10
50.91487503051758
 20
-0.0000019421772777
 30
127.8778381347656
 70
    32
  0
VERTEX
  5
229
330
F7
100
AcDbEntity
  8
0
 62
   121
420
 10937829
100
AcDbVertex
100
AcDb3dPolylineVertex
 10
58.92183685302734
 20
-0.0000009613374914
 30
127.8720550537109
 70
    32
  0
VERTEX
  5
22A
330
F7
100
AcDbEntity
  8
0
 62
   121
420
 10937829
100
AcDbVertex
100
AcDb3dPolylineVertex
 10
58.9517822265625
 20
-0.0000008861659353
 30
127.5439224243164
 70
    32
  0
VERTEX
  5
22B
330
F7
100
AcDbEntity
  8
0
 62
   121
420
 10937829
100
AcDbVertex
100
AcDb3dPolylineVertex
 10
59.00151443481445
 20
-0.0000007299751132
 30
127.218994140625
 70
    32
  0
VERTEX
  5
22C
330
F7
100
AcDbEntity
  8
0
 62
   121
420
 10937829
100
AcDbVertex
100
AcDb3dPolylineVertex
 10
59.04832458496094
 20
-0.0000006044258498
 30
126.9943237304687
 70
    32
  0
VERTEX
  5
22D
330
F7
100
AcDbEntity
  8
0
 62
   121
420
 10937829
100
AcDbVertex
100
AcDb3dPolylineVertex
 10
59.10490417480469
 20
-0.0000004907842595
 30
126.7725677490234
 70
    32
  0
VERTEX
  5
22E
330
F7
100
AcDbEntity
  8
0
 62
   121
420
 10937829
100
AcDbVertex
100
AcDb3dPolylineVertex
 10
59.17105102539062
 20
-0.0000003886660807
 30
126.5539855957031
 70
    32
  0
VERTEX
  5
22F
330
F7
100
AcDbEntity
  8
0
 62
   121
420
 10937829
100
AcDbVertex
100
AcDb3dPolylineVertex
 10
59.2465591430664
 20
-0.0000002976884161
 30
126.3388595581054
 70
    32
  0
VERTEX
  5
230
330
F7
100
AcDbEntity
  8
0
 62
   121
420
 10937829
100
AcDbVertex
100
AcDb3dPolylineVertex
 10
59.33121871948242
 20
-0.0000002174672318
 30
126.12744140625
 70
    32
  0
VERTEX
  5
231
330
F7
100
AcDbEntity
  8
0
 62
   121
420
 10937829
100
AcDbVertex
100
AcDb3dPolylineVertex
 10
59.42483139038086
 20
-0.0000001476181524
 30
125.9199829101562
 70
    32
  0
VERTEX
  5
232
330
F7
100
AcDbEntity
  8
0
 62
   121
420
 10937829
100
AcDbVertex
100
AcDb3dPolylineVertex
 10
59.5271873474121
 20
-0.0000000877586217
 30
125.7167739868164
 70
    32
  0
VERTEX
  5
233
330
F7
100
AcDbEntity
  8
0
 62
   121
420
 10937829
100
AcDbVertex
100
AcDb3dPolylineVertex
 10
59.63808441162109
 20
-0.0000000375036961
 30
125.5180511474609
 70
    32
  0
VERTEX
  5
234
330
F7
100
AcDbEntity
  8
0
 62
   121
420
 10937829
100
AcDbVertex
100
AcDb3dPolylineVertex
 10
59.7573127746582
 20
0.0000000035294079
 30
125.3240814208984
 70
    32
  0
VERTEX
  5
235
330
F7
100
AcDbEntity
  8
0
 62
   121
420
 10937829
100
AcDbVertex
100
AcDb3dPolylineVertex
 10
59.88467025756836
 20
0.0000000357251793
 30
125.135139465332
 70
    32
  0
VERTEX
  5
236
330
F7
100
AcDbEntity
  8
0
 62
   121
420
 10937829
100
AcDbVertex
100
AcDb3dPolylineVertex
 10
60.01995468139648
 20
0.000000059466629
 30
124.9514846801758
 70
    32
  0
VERTEX
  5
237
330
F7
100
AcDbEntity
  8
0
 62
   121
420
 10937829
100
AcDbVertex
100
AcDb3dPolylineVertex
 10
60.16295623779297
 20
0.0000000751380185
 30
124.7733764648437
 70
    32
  0
VERTEX
  5
238
330
F7
100
AcDbEntity
  8
0
 62
   121
420
 10937829
100
AcDbVertex
100
AcDb3dPolylineVertex
 10
60.31346893310547
 20
0.0000000831229272
 30
124.60107421875
 70
    32
  0
VERTEX
  5
239
330
F7
100
AcDbEntity
  8
0
 62
   121
420
 10937829
100
AcDbVertex
100
AcDb3dPolylineVertex
 10
60.4712905883789
 20
0.0000000838045935
 30
124.4348602294922
 70
    32
  0
VERTEX
  5
23A
330
F7
100
AcDbEntity
  8
0
 62
   121
420
 10937829
100
AcDbVertex
100
AcDb3dPolylineVertex
 10
60.63621520996093
 20
0.0000000775675062
 30
124.2749710083008
 70
    32
  0
VERTEX
  5
23B
330
F7
100
AcDbEntity
  8
0
 62
   121
420
 10937829
100
AcDbVertex
100
AcDb3dPolylineVertex
 10
60.80803680419922
 20
0.000000064795131
 30
124.1216812133789
 70
    32
  0
VERTEX
  5
23C
330
F7
100
AcDbEntity
  8
0
 62
   121
420
 10937829
100
AcDbVertex
100
AcDb3dPolylineVertex
 10
61.33580017089844
 20
0.0000000176161166
 30
123.6767959594726
 70
    32
  0
VERTEX
  5
23D
330
F7
100
AcDbEntity
  8
0
 62
   121
420
 10937829
100
AcDbVertex
100
AcDb3dPolylineVertex
 10
61.90426635742188
 20
-0.0000000277153731
 30
123.1657333374023
 70
    32
  0
VERTEX
  5
23E
330
F7
100
AcDbEntity
  8
0
 62
   121
420
 10937829
100
AcDbVertex
100
AcDb3dPolylineVertex
 10
62.02417373657226
 20
-0.000000035391281
 30
123.0439071655273
 70
    32
  0
VERTEX
  5
23F
330
F7
100
AcDbEntity
  8
0
 62
   121
420
 10937829
100
AcDbVertex
100
AcDb3dPolylineVertex
 10
62.13775253295898
 20
-0.0000000411134806
 30
122.917007446289
 70
    32
  0
VERTEX
  5
240
330
F7
100
AcDbEntity
  8
0
 62
   121
420
 10937829
100
AcDbVertex
100
AcDb3dPolylineVertex
 10
62.24473571777344
 20
-0.0000000450187372
 30
122.7853393554687
 70
    32
  0
VERTEX
  5
241
330
F7
100
AcDbEntity
  8
0
 62
   121
420
 10937829
100
AcDbVertex
100
AcDb3dPolylineVertex
 10
62.34484481811524
 20
-0.0000000472429065
 30
122.6492004394531
 70
    32
  0
VERTEX
  5
242
330
F7
100
AcDbEntity
  8
0
 62
   121
420
 10937829
100
AcDbVertex
100
AcDb3dPolylineVertex
 10
62.43781280517578
 20
-0.0000000479221853
 30
122.5088806152343
 70
    32
  0
VERTEX
  5
243
330
F7
100
AcDbEntity
  8
0
 62
   121
420
 10937829
100
AcDbVertex
100
AcDb3dPolylineVertex
 10
62.52336502075195
 20
-0.0000000471926569
 30
122.3646697998047
 70
    32
  0
VERTEX
  5
244
330
F7
100
AcDbEntity
  8
0
 62
   121
420
 10937829
100
AcDbVertex
100
AcDb3dPolylineVertex
 10
62.60123443603515
 20
-0.0000000451904043
 30
122.2168731689453
 70
    32
  0
VERTEX
  5
245
330
F7
100
AcDbEntity
  8
0
 62
   121
420
 10937829
100
AcDbVertex
100
AcDb3dPolylineVertex
 10
62.671142578125
 20
-0.0000000420520792
 30
122.0657958984375
 70
    32
  0
VERTEX
  5
246
330
F7
100
AcDbEntity
  8
0
 62
   121
420
 10937829
100
AcDbVertex
100
AcDb3dPolylineVertex
 10
62.73282241821289
 20
-0.0000000379131961
 30
121.9117050170898
 70
    32
  0
VERTEX
  5
247
330
F7
100
AcDbEntity
  8
0
 62
   121
420
 10937829
100
AcDbVertex
100
AcDb3dPolylineVertex
 10
62.7859992980957
 20
-0.0000000329098384
 30
121.7549133300781
 70
    32
  0
VERTEX
  5
248
330
F7
100
AcDbEntity
  8
0
 62
   121
420
 10937829
100
AcDbVertex
100
AcDb3dPolylineVertex
 10
62.83040237426757
 20
-0.0000000271789986
 30
121.595718383789
 70
    32
  0
VERTEX
  5
249
330
F7
100
AcDbEntity
  8
0
 62
   121
420
 10937829
100
AcDbVertex
100
AcDb3dPolylineVertex
 10
62.86576080322266
 20
-0.0000000208559641
 30
121.4344024658203
 70
    32
  0
VERTEX
  5
24A
330
F7
100
AcDbEntity
  8
0
 62
   121
420
 10937829
100
AcDbVertex
100
AcDb3dPolylineVertex
 10
62.89179992675781
 20
-0.000000014077159
 30
121.2712783813476
 70
    32
  0
VERTEX
  5
24B
330
F7
100
AcDbEntity
  8
0
 62
   121
420
 10937829
100
AcDbVertex
100
AcDb3dPolylineVertex
 10
62.90824890136718
 20
-0.0000000069791213
 30
121.1066360473633
 70
    32
  0
VERTEX
  5
24C
330
F7
100
AcDbEntity
  8
0
 62
   121
420
 10937829
100
AcDbVertex
100
AcDb3dPolylineVertex
 10
62.91484069824218
 20
0.000000000302407
 30
120.9407653808594
 70
    32
  0
SEQEND
  5
24D
330
F7
100
AcDbEntity
  8
0
 62
   121
420
 10937829
  0
ENDSEC
  0
SECTION
  2
OBJECTS
  0
DICTIONARY
  5
C
330
0
100
AcDbDictionary
281
     1
  3
ACAD_COLOR
350
DC
  3
ACAD_DETAILVIEWSTYLE
350
F5
  3
ACAD_GROUP
350
D
  3
ACAD_LAYOUT
350
1A
  3
ACAD_MATERIAL
350
AA
  3
ACAD_MLEADERSTYLE
350
F1
  3
ACAD_MLINESTYLE
350
17
  3
ACAD_PLOTSETTINGS
350
19
  3
ACAD_PLOTSTYLENAME
350
E
  3
ACAD_SCALELIST
350
DF
  3
ACAD_SECTIONVIEWSTYLE
350
F3
  3
ACAD_TABLESTYLE
350
DD
  3
ACAD_VISUALSTYLE
350
C3
  3
ACDB_RECOMPOSE_DATA
350
25A
  3
AcDbVariableDictionary
350
24E
  0
DICTIONARY
  5
DC
102
{ACAD_REACTORS
330
C
102
}
330
C
100
AcDbDictionary
281
     1
  0
DICTIONARY
  5
F5
102
{ACAD_REACTORS
330
C
102
}
330
C
100
AcDbDictionary
281
     1
  3
Imperial24
350
F6
  0
DICTIONARY
  5
D
102
{ACAD_REACTORS
330
C
102
}
330
C
100
AcDbDictionary
281
     1
  0
DICTIONARY
  5
1A
102
{ACAD_REACTORS
330
C
102
}
330
C
100
AcDbDictionary
281
     1
  3
Layout1
350
1E
  3
Layout2
350
26
  3
Model
350
22
  0
DICTIONARY
  5
AA
102
{ACAD_REACTORS
330
C
102
}
330
C
100
AcDbDictionary
281
     1
  3
ByBlock
350
B3
  3
ByLayer
350
AB
  3
Global
350
BB
  0
DICTIONARY
  5
F1
102
{ACAD_REACTORS
330
C
102
}
330
C
100
AcDbDictionary
281
     1
  3
Standard
350
F2
  0
DICTIONARY
  5
17
102
{ACAD_REACTORS
330
C
102
}
330
C
100
AcDbDictionary
281
     1
  3
Standard
350
18
  0
DICTIONARY
  5
19
102
{ACAD_REACTORS
330
C
102
}
330
C
100
AcDbDictionary
281
     1
  0
ACDBDICTIONARYWDFLT
  5
E
102
{ACAD_REACTORS
330
C
102
}
330
C
100
AcDbDictionary
281
     1
  3
ByLayer
350
2D
  3
Normal
350
F
100
AcDbDictionaryWithDefault
340
F
  0
DICTIONARY
  5
DF
102
{ACAD_REACTORS
330
C
102
}
330
C
100
AcDbDictionary
281
     1
  3
A0
350
E0
  3
A1
350
E1
  3
A2
350
E2
  3
A3
350
E3
  3
A4
350
E4
  3
A5
350
E5
  3
A6
350
E6
  3
A7
350
E7
  3
A8
350
E8
  3
A9
350
E9
  3
B0
350
EA
  3
B1
350
EB
  3
B2
350
EC
  3
B3
350
ED
  3
B4
350
EE
  3
B5
350
EF
  3
B6
350
F0
  0
DICTIONARY
  5
F3
102
{ACAD_REACTORS
330
C
102
}
330
C
100
AcDbDictionary
281
     1
  3
Imperial24
350
F4
  0
DICTIONARY
  5
DD
102
{ACAD_REACTORS
330
C
102
}
330
C
100
AcDbDictionary
281
     1
  3
Standard
350
DE
  0
DICTIONARY
  5
C3
102
{ACAD_REACTORS
330
C
102
}
330
C
100
AcDbDictionary
281
     1
  3
2dWireframe
350
C9
  3
Basic
350
C8
  3
Brighten
350
CF
  3
ColorChange
350
D3
  3
Conceptual
350
CC
  3
Dim
350
CE
  3
EdgeColorOff
350
DB
  3
Facepattern
350
D2
  3
Flat
350
C4
  3
FlatWithEdges
350
C5
  3
Gouraud
350
C6
  3
GouraudWithEdges
350
C7
  3
Hidden
350
CB
  3
JitterOff
350
D9
  3
Linepattern
350
D1
  3
OverhangOff
350
DA
  3
Realistic
350
CD
  3
Shaded
350
D8
  3
Shaded with edges
350
D7
  3
Shades of Gray
350
D4
  3
Sketchy
350
D5
  3
Thicken
350
D0
  3
Wireframe
350
CA
  3
X-Ray
350
D6
  0
XRECORD
  5
25A
102
{ACAD_REACTORS
330
C
102
}
330
C
100
AcDbXrecord
280
     1
 90
        1
330
DE
  0
DICTIONARY
  5
24E
102
{ACAD_REACTORS
330
C
102
}
330
C
100
AcDbDictionary
281
     1
  3
CANNOSCALE
350
254
  3
CMLEADERSTYLE
350
250
  3
CTABLESTYLE
350
24F
  3
CVIEWDETAILSTYLE
350
251
  3
CVIEWSECTIONSTYLE
350
252
  3
LAYEREVAL
350
256
  3
LAYERNOTIFY
350
257
  3
LIGHTINGUNITS
350
255
  3
MSLTSCALE
350
253
  0
ACDBDETAILVIEWSTYLE
  5
F6
102
{ACAD_XDICTIONARY
360
291
102
}
102
{ACAD_REACTORS
330
F5
102
}
330
F5
100
AcDbModelDocViewStyle
 70
     0
  3
Imperial24
290
     0
100
AcDbDetailViewStyle
 70
     0
 71
     0
 90
        3
 71
     1
340
11
 62
   256
 40
0.24
340
0
 62
   256
 40
0.24
300

 40
0.36
280
     3
 71
     2
340
16
 90
       25
 62
   256
 71
     3
340
11
 62
   256
 40
0.24
 90
        1
 40
0.75
 90
        1
300
%<\AcVar ViewType \f "%tc1">% %<\AcVar ViewDetailId>%\PSCALE %<\AcVar ViewScale \f "%sn">%
 71
     4
340
16
 90
       25
 62
   256
340
16
 90
       25
 62
   256
280
     0
  0
LAYOUT
  5
1E
102
{ACAD_REACTORS
330
1A
102
}
330
1A
100
AcDbPlotSettings
  1

  2
\\KTXNTBDC\CASF2PN1
  4

  6

 40
0.0
 41
0.0
 42
0.0
 43
0.0
 44
0.0
 45
0.0
 46
0.0
 47
0.0
 48
0.0
 49
0.0
140
0.0
141
0.0
142
1.0
143
1.0
 70
   688
 72
     0
 73
     0
 74
     5
  7

 75
    16
147
1.0
 76
     0
 77
     2
 78
   300
148
0.0
149
0.0
100
AcDbLayout
  1
Layout1
 70
     1
 71
     1
 10
0.0
 20
0.0
 11
12.0
 21
9.0
 12
0.0
 22
0.0
 32
0.0
 14
1.000000000000000E+20
 24
1.000000000000000E+20
 34
1.000000000000000E+20
 15
-1.000000000000000E+20
 25
-1.000000000000000E+20
 35
-1.000000000000000E+20
146
0.0
 13
0.0
 23
0.0
 33
0.0
 16
1.0
 26
0.0
 36
0.0
 17
0.0
 27
1.0
 37
0.0
 76
     0
330
1B
  0
LAYOUT
  5
26
102
{ACAD_REACTORS
330
1A
102
}
330
1A
100
AcDbPlotSettings
  1

  2
\\KTXNTBDC\CASF2PN1
  4

  6

 40
0.0
 41
0.0
 42
0.0
 43
0.0
 44
0.0
 45
0.0
 46
0.0
 47
0.0
 48
0.0
 49
0.0
140
0.0
141
0.0
142
1.0
143
1.0
 70
   688
 72
     0
 73
     0
 74
     5
  7

 75
    16
147
1.0
 76
     0
 77
     2
 78
   300
148
0.0
149
0.0
100
AcDbLayout
  1
Layout2
 70
     1
 71
     2
 10
0.0
 20
0.0
 11
12.0
 21
9.0
 12
0.0
 22
0.0
 32
0.0
 14
0.0
 24
0.0
 34
0.0
 15
0.0
 25
0.0
 35
0.0
146
0.0
 13
0.0
 23
0.0
 33
0.0
 16
1.0
 26
0.0
 36
0.0
 17
0.0
 27
1.0
 37
0.0
 76
     0
330
23
  0
LAYOUT
  5
22
102
{ACAD_REACTORS
330
1A
102
}
330
1A
100
AcDbPlotSettings
  1

  2
\\KTXNTBDC\CASF2PN1
  4

  6

 40
0.0
 41
0.0
 42
0.0
 43
0.0
 44
0.0
 45
0.0
 46
0.0
 47
0.0
 48
0.0
 49
0.0
140
0.0
141
0.0
142
1.0
143
1.0
 70
  1712
 72
     0
 73
     0
 74
     0
  7

 75
     0
147
1.0
 76
     0
 77
     2
 78
   300
148
0.0
149
0.0
100
AcDbLayout
  1
Model
 70
     1
 71
     0
 10
0.0
 20
0.0
 11
12.0
 21
9.0
 12
0.0
 22
0.0
 32
0.0
 14
0.0
 24
0.0
 34
0.0
 15
0.0
 25
0.0
 35
0.0
146
0.0
 13
0.0
 23
0.0
 33
0.0
 16
1.0
 26
0.0
 36
0.0
 17
0.0
 27
1.0
 37
0.0
 76
     0
330
1F
  0
MATERIAL
  5
B3
102
{ACAD_XDICTIONARY
360
B4
102
}
102
{ACAD_REACTORS
330
AA
102
}
330
AA
100
AcDbMaterial
  1
ByBlock
 72
     0
 43
0.0208333333333333
 43
0.0
 43
0.0
 43
0.0
 43
0.0
 43
0.0208333333333333
 43
0.0
 43
0.0
 43
0.0
 43
0.0
 43
1.0
 43
0.0
 43
0.0
 43
0.0
 43
0.0
 43
1.0
 77
     0
 47
0.0208333333333333
 47
0.0
 47
0.0
 47
0.0
 47
0.0
 47
0.0208333333333333
 47
0.0
 47
0.0
 47
0.0
 47
0.0
 47
1.0
 47
0.0
 47
0.0
 47
0.0
 47
0.0
 47
1.0
171
     0
 49
0.0208333333333333
 49
0.0
 49
0.0
 49
0.0
 49
0.0
 49
0.0208333333333333
 49
0.0
 49
0.0
 49
0.0
 49
0.0
 49
1.0
 49
0.0
 49
0.0
 49
0.0
 49
0.0
 49
1.0
175
     0
142
0.0208333333333333
142
0.0
142
0.0
142
0.0
142
0.0
142
0.0208333333333333
142
0.0
142
0.0
142
0.0
142
0.0
142
1.0
142
0.0
142
0.0
142
0.0
142
0.0
142
1.0
179
     0
144
0.0208333333333333
144
0.0
144
0.0
144
0.0
144
0.0
144
0.0208333333333333
144
0.0
144
0.0
144
0.0
144
0.0
144
1.0
144
0.0
144
0.0
144
0.0
144
0.0
144
1.0
147
0.0208333333333333
147
0.0
147
0.0
147
0.0
147
0.0
147
0.0208333333333333
147
0.0
147
0.0
147
0.0
147
0.0
147
1.0
147
0.0
147
0.0
147
0.0
147
0.0
147
1.0
  0
MATERIAL
  5
AB
102
{ACAD_XDICTIONARY
360
AC
102
}
102
{ACAD_REACTORS
330
AA
102
}
330
AA
100
AcDbMaterial
  1
ByLayer
 72
     0
 43
0.0208333333333333
 43
0.0
 43
0.0
 43
0.0
 43
0.0
 43
0.0208333333333333
 43
0.0
 43
0.0
 43
0.0
 43
0.0
 43
1.0
 43
0.0
 43
0.0
 43
0.0
 43
0.0
 43
1.0
 77
     0
 47
0.0208333333333333
 47
0.0
 47
0.0
 47
0.0
 47
0.0
 47
0.0208333333333333
 47
0.0
 47
0.0
 47
0.0
 47
0.0
 47
1.0
 47
0.0
 47
0.0
 47
0.0
 47
0.0
 47
1.0
171
     0
 49
0.0208333333333333
 49
0.0
 49
0.0
 49
0.0
 49
0.0
 49
0.0208333333333333
 49
0.0
 49
0.0
 49
0.0
 49
0.0
 49
1.0
 49
0.0
 49
0.0
 49
0.0
 49
0.0
 49
1.0
175
     0
142
0.0208333333333333
142
0.0
142
0.0
142
0.0
142
0.0
142
0.0208333333333333
142
0.0
142
0.0
142
0.0
142
0.0
142
1.0
142
0.0
142
0.0
142
0.0
142
0.0
142
1.0
179
     0
144
0.0208333333333333
144
0.0
144
0.0
144
0.0
144
0.0
144
0.0208333333333333
144
0.0
144
0.0
144
0.0
144
0.0
144
1.0
144
0.0
144
0.0
144
0.0
144
0.0
144
1.0
147
0.0208333333333333
147
0.0
147
0.0
147
0.0
147
0.0
147
0.0208333333333333
147
0.0
147
0.0
147
0.0
147
0.0
147
1.0
147
0.0
147
0.0
147
0.0
147
0.0
147
1.0
  0
MATERIAL
  5
BB
102
{ACAD_XDICTIONARY
360
BC
102
}
102
{ACAD_REACTORS
330
AA
102
}
330
AA
100
AcDbMaterial
  1
Global
 72
     0
 43
0.0208333333333333
 43
0.0
 43
0.0
 43
0.0
 43
0.0
 43
0.0208333333333333
 43
0.0
 43
0.0
 43
0.0
 43
0.0
 43
1.0
 43
0.0
 43
0.0
 43
0.0
 43
0.0
 43
1.0
 77
     0
 47
0.0208333333333333
 47
0.0
 47
0.0
 47
0.0
 47
0.0
 47
0.0208333333333333
 47
0.0
 47
0.0
 47
0.0
 47
0.0
 47
1.0
 47
0.0
 47
0.0
 47
0.0
 47
0.0
 47
1.0
171
     0
 49
0.0208333333333333
 49
0.0
 49
0.0
 49
0.0
 49
0.0
 49
0.0208333333333333
 49
0.0
 49
0.0
 49
0.0
 49
0.0
 49
1.0
 49
0.0
 49
0.0
 49
0.0
 49
0.0
 49
1.0
175
     0
142
0.0208333333333333
142
0.0
142
0.0
142
0.0
142
0.0
142
0.0208333333333333
142
0.0
142
0.0
142
0.0
142
0.0
142
1.0
142
0.0
142
0.0
142
0.0
142
0.0
142
1.0
179
     0
144
0.0208333333333333
144
0.0
144
0.0
144
0.0
144
0.0
144
0.0208333333333333
144
0.0
144
0.0
144
0.0
144
0.0
144
1.0
144
0.0
144
0.0
144
0.0
144
0.0
144
1.0
147
0.0208333333333333
147
0.0
147
0.0
147
0.0
147
0.0
147
0.0208333333333333
147
0.0
147
0.0
147
0.0
147
0.0
147
1.0
147
0.0
147
0.0
147
0.0
147
0.0
147
1.0
  0
MLEADERSTYLE
  5
F2
102
{ACAD_XDICTIONARY
360
28D
102
}
102
{ACAD_REACTORS
330
F1
102
}
330
F1
100
AcDbMLeaderStyle
179
     2
170
     2
171
     1
172
     0
 90
        2
 40
0.0
 41
0.0
173
     1
 91
-1056964608
340
14
 92
       -2
290
     1
 42
0.09
291
     1
 43
0.36
  3
Standard
 44
0.18
300

342
11
174
     1
178
     6
175
     1
176
     0
 93
-1056964608
 45
0.18
292
     0
297
     0
 46
0.18
 94
-1056964608
 47
1.0
 49
1.0
140
1.0
293
     1
141
0.0
294
     1
177
     0
142
1.0
295
     0
296
     0
143
0.125
271
     0
272
     9
273
     9
  0
MLINESTYLE
  5
18
102
{ACAD_REACTORS
330
17
102
}
330
17
100
AcDbMlineStyle
  2
STANDARD
 70
     0
  3

 62
   256
 51
90.0
 52
90.0
 71
     2
 49
0.5
 62
   256
  6
BYLAYER
 49
-0.5
 62
   256
  6
BYLAYER
  0
ACDBPLACEHOLDER
  5
2D
102
{ACAD_REACTORS
330
E
102
}
330
E
  0
ACDBPLACEHOLDER
  5
F
102
{ACAD_REACTORS
330
E
102
}
330
E
  0
SCALE
  5
E0
102
{ACAD_REACTORS
330
DF
102
}
330
DF
100
AcDbScale
 70
     0
300
1:1
140
1.0
141
1.0
290
     1
  0
SCALE
  5
E1
102
{ACAD_REACTORS
330
DF
102
}
330
DF
100
AcDbScale
 70
     0
300
1/128" = 1'-0"
140
0.0078125
141
12.0
290
     0
  0
SCALE
  5
E2
102
{ACAD_REACTORS
330
DF
102
}
330
DF
100
AcDbScale
 70
     0
300
1/64" = 1'-0"
140
0.015625
141
12.0
290
     0
  0
SCALE
  5
E3
102
{ACAD_REACTORS
330
DF
102
}
330
DF
100
AcDbScale
 70
     0
300
1/32" = 1'-0"
140
0.03125
141
12.0
290
     0
  0
SCALE
  5
E4
102
{ACAD_REACTORS
330
DF
102
}
330
DF
100
AcDbScale
 70
     0
300
1/16" = 1'-0"
140
0.0625
141
12.0
290
     0
  0
SCALE
  5
E5
102
{ACAD_REACTORS
330
DF
102
}
330
DF
100
AcDbScale
 70
     0
300
3/32" = 1'-0"
140
0.09375
141
12.0
290
     0
  0
SCALE
  5
E6
102
{ACAD_REACTORS
330
DF
102
}
330
DF
100
AcDbScale
 70
     0
300
1/8" = 1'-0"
140
0.125
141
12.0
290
     0
  0
SCALE
  5
E7
102
{ACAD_REACTORS
330
DF
102
}
330
DF
100
AcDbScale
 70
     0
300
3/16" = 1'-0"
140
0.1875
141
12.0
290
     0
  0
SCALE
  5
E8
102
{ACAD_REACTORS
330
DF
102
}
330
DF
100
AcDbScale
 70
     0
300
1/4" = 1'-0"
140
0.25
141
12.0
290
     0
  0
SCALE
  5
E9
102
{ACAD_REACTORS
330
DF
102
}
330
DF
100
AcDbScale
 70
     0
300
3/8" = 1'-0"
140
0.375
141
12.0
290
     0
  0
SCALE
  5
EA
102
{ACAD_REACTORS
330
DF
102
}
330
DF
100
AcDbScale
 70
     0
300
1/2" = 1'-0"
140
0.5
141
12.0
290
     0
  0
SCALE
  5
EB
102
{ACAD_REACTORS
330
DF
102
}
330
DF
100
AcDbScale
 70
     0
300
3/4" = 1'-0"
140
0.75
141
12.0
290
     0
  0
SCALE
  5
EC
102
{ACAD_REACTORS
330
DF
102
}
330
DF
100
AcDbScale
 70
     0
300
1" = 1'-0"
140
1.0
141
12.0
290
     0
  0
SCALE
  5
ED
102
{ACAD_REACTORS
330
DF
102
}
330
DF
100
AcDbScale
 70
     0
300
1-1/2" = 1'-0"
140
1.5
141
12.0
290
     0
  0
SCALE
  5
EE
102
{ACAD_REACTORS
330
DF
102
}
330
DF
100
AcDbScale
 70
     0
300
3" = 1'-0"
140
3.0
141
12.0
290
     0
  0
SCALE
  5
EF
102
{ACAD_REACTORS
330
DF
102
}
330
DF
100
AcDbScale
 70
     0
300
6" = 1'-0"
140
6.0
141
12.0
290
     0
  0
SCALE
  5
F0
102
{ACAD_REACTORS
330
DF
102
}
330
DF
100
AcDbScale
 70
     0
300
1'-0" = 1'-0"
140
12.0
141
12.0
290
     0
  0
ACDBSECTIONVIEWSTYLE
  5
F4
102
{ACAD_XDICTIONARY
360
28F
102
}
102
{ACAD_REACTORS
330
F3
102
}
330
F3
100
AcDbModelDocViewStyle
 70
     0
  3
Imperial24
290
     0
100
AcDbSectionViewStyle
 70
     0
 71
     0
 90
       78
 71
     1
340
11
 62
   256
 40
0.24
340
0
340
0
 62
   256
 40
0.24
300
I, O, Q, S, X, Z
 40
0.48
 90
        3
 40
0.18
 90
        1
 71
     2
340
16
 90
       25
 62
   256
340
16
 90
       50
 62
   256
 40
0.24
 40
0.0
 40
0.24
 71
     3
340
11
 62
   256
 40
0.24
 90
        1
 40
0.75
 90
        1
300
%<\AcVar ViewType \f "%tc1">% %<\AcVar ViewSectionStartId>%-%<\AcVar ViewSectionEndId>%\PSCALE %<\AcVar ViewScale \f "%sn">%
 71
     4
 62
   256
 62
   257
300
ANSI31
 40
1.0
 90
        0
290
     0
290
     0
 90
        6
 40
0.0
 40
1.570796326794896
 40
0.2617993877991494
 40
1.308996938995747
 40
-0.2617993877991494
 40
1.832595714594046
  0
TABLESTYLE
  5
DE
102
{ACAD_XDICTIONARY
360
258
102
}
102
{ACAD_REACTORS
330
DD
102
}
330
DD
100
AcDbTableStyle
280
     0
  3
Standard
 70
     0
 71
     0
 40
0.06
 41
0.06
280
     0
281
     0
  7
Standard
140
0.18
170
     2
 62
     0
 63
     7
283
     0
 90
      512
 91
        0
  1

274
    -2
284
     1
 64
     0
275
    -2
285
     1
 65
     0
276
    -2
286
     1
 66
     0
277
    -2
287
     1
 67
     0
278
    -2
288
     1
 68
     0
279
    -2
289
     1
 69
     0
  7
Standard
140
0.25
170
     5
 62
     0
 63
     7
283
     0
 90
      512
 91
        0
  1

274
    -2
284
     1
 64
     0
275
    -2
285
     1
 65
     0
276
    -2
286
     1
 66
     0
277
    -2
287
     1
 67
     0
278
    -2
288
     1
 68
     0
279
    -2
289
     1
 69
     0
  7
Standard
140
0.18
170
     5
 62
     0
 63
     7
283
     0
 90
      512
 91
        0
  1

274
    -2
284
     1
 64
     0
275
    -2
285
     1
 65
     0
276
    -2
286
     1
 66
     0
277
    -2
287
     1
 67
     0
278
    -2
288
     1
 68
     0
279
    -2
289
     1
 69
     0
  0
VISUALSTYLE
  5
C9
102
{ACAD_XDICTIONARY
360
267
102
}
102
{ACAD_REACTORS
330
C3
102
}
330
C3
100
AcDbVisualStyle
  2
2dWireframe
 70
     4
177
     2
291
     0
 71
     0
176
     1
 72
     2
176
     1
 73
     0
176
     1
 90
        0
176
     1
 40
0.6
176
     1
 41
30.0
176
     1
 63
     7
421
 16777215
176
     1
 74
     1
176
     1
 91
        4
176
     1
 64
     7
176
     1
 65
   257
176
     1
 75
     1
176
     1
175
     1
176
     1
 42
1.0
176
     1
 92
        0
176
     1
 66
   257
176
     1
 43
1.0
176
     1
 76
     1
176
     1
 77
     6
176
     1
 78
     2
176
     1
 67
     7
176
     1
 79
     5
176
     1
170
     0
176
     1
171
     0
176
     1
290
     0
176
     1
 93
        1
176
     1
 44
0.0
176
     1
173
     0
176
     1
1001
ACAD
1000
AcDbSavedByObjectVersion
1070
     0
  0
VISUALSTYLE
  5
C8
102
{ACAD_XDICTIONARY
360
265
102
}
102
{ACAD_REACTORS
330
C3
102
}
330
C3
100
AcDbVisualStyle
  2
Basic
 70
     7
177
     2
291
     1
 71
     1
176
     1
 72
     0
176
     1
 73
     1
176
     1
 90
        0
176
     1
 40
0.6
176
     1
 41
30.0
176
     1
 63
     7
421
 16777215
176
     1
 74
     0
176
     1
 91
        4
176
     1
 64
     7
176
     1
 65
   257
176
     1
 75
     1
176
     1
175
     1
176
     1
 42
1.0
176
     1
 92
        8
176
     1
 66
     7
176
     1
 43
1.0
176
     1
 76
     1
176
     1
 77
     6
176
     1
 78
     2
176
     1
 67
     7
176
     1
 79
     5
176
     1
170
     0
176
     1
171
     0
176
     1
290
     0
176
     1
 93
        1
176
     1
 44
0.0
176
     1
173
     0
176
     1
1001
ACAD
1000
AcDbSavedByObjectVersion
1070
     0
  0
VISUALSTYLE
  5
CF
102
{ACAD_XDICTIONARY
360
273
102
}
102
{ACAD_REACTORS
330
C3
102
}
330
C3
100
AcDbVisualStyle
  2
Brighten
 70
    12
177
     2
291
     1
 71
     2
176
     1
 72
     2
176
     1
 73
     0
176
     1
 90
        0
176
     1
 40
0.6
176
     1
 41
30.0
176
     1
 63
     7
421
 16777215
176
     1
 74
     1
176
     1
 91
        4
176
     1
 64
     7
176
     1
 65
   257
176
     1
 75
     1
176
     1
175
     1
176
     1
 42
1.0
176
     1
 92
        8
176
     1
 66
     7
176
     1
 43
1.0
176
     1
 76
     1
176
     1
 77
     6
176
     1
 78
     2
176
     1
 67
     7
176
     1
 79
     5
176
     1
170
     0
176
     1
171
     0
176
     1
290
     0
176
     1
 93
        1
176
     1
 44
50.0
176
     1
173
     0
176
     1
1001
ACAD
1000
AcDbSavedByObjectVersion
1070
     0
  0
VISUALSTYLE
  5
D3
102
{ACAD_XDICTIONARY
360
27B
102
}
102
{ACAD_REACTORS
330
C3
102
}
330
C3
100
AcDbVisualStyle
  2
ColorChange
 70
    16
177
     2
291
     1
 71
     2
176
     1
 72
     2
176
     1
 73
     3
176
     1
 90
        0
176
     1
 40
0.6
176
     1
 41
30.0
176
     1
 63
     8
421
  8421504
176
     1
 74
     1
176
     1
 91
        4
176
     1
 64
     7
176
     1
 65
   257
176
     1
 75
     1
176
     1
175
     1
176
     1
 42
1.0
176
     1
 92
        8
176
     1
 66
     8
424
  8421504
176
     1
 43
1.0
176
     1
 76
     1
176
     1
 77
     6
176
     1
 78
     2
176
     1
 67
     7
176
     1
 79
     5
176
     1
170
     0
176
     1
171
     0
176
     1
290
     0
176
     1
 93
        1
176
     1
 44
0.0
176
     1
173
     0
176
     1
1001
ACAD
1000
AcDbSavedByObjectVersion
1070
     0
  0
VISUALSTYLE
  5
CC
102
{ACAD_XDICTIONARY
360
26D
102
}
102
{ACAD_REACTORS
330
C3
102
}
330
C3
100
AcDbVisualStyle
  2
Conceptual
 70
     9
177
     2
291
     0
 71
     3
176
     1
 72
     2
176
     1
 73
     0
176
     1
 90
        0
176
     1
 40
0.6
176
     1
 41
30.0
176
     1
 63
     7
421
 16777215
176
     1
 74
     2
176
     1
 91
        2
176
     1
 64
     7
176
     1
 65
   257
176
     1
 75
     1
176
     1
175
     1
176
     1
 42
179.0
176
     1
 92
        8
176
     1
 66
     7
176
     1
 43
1.0
176
     1
 76
     1
176
     1
 77
     6
176
     1
 78
     2
176
     1
 67
     7
176
     1
 79
     3
176
     1
170
     0
176
     1
171
     0
176
     1
290
     0
176
     1
 93
        1
176
     1
 44
0.0
176
     1
173
     0
176
     1
1001
ACAD
1000
AcDbSavedByObjectVersion
1070
     0
  0
VISUALSTYLE
  5
CE
102
{ACAD_XDICTIONARY
360
271
102
}
102
{ACAD_REACTORS
330
C3
102
}
330
C3
100
AcDbVisualStyle
  2
Dim
 70
    11
177
     2
291
     1
 71
     2
176
     1
 72
     2
176
     1
 73
     0
176
     1
 90
        0
176
     1
 40
0.6
176
     1
 41
30.0
176
     1
 63
     7
421
 16777215
176
     1
 74
     1
176
     1
 91
        4
176
     1
 64
     7
176
     1
 65
   257
176
     1
 75
     1
176
     1
175
     1
176
     1
 42
1.0
176
     1
 92
        8
176
     1
 66
     7
176
     1
 43
1.0
176
     1
 76
     1
176
     1
 77
     6
176
     1
 78
     2
176
     1
 67
     7
176
     1
 79
     5
176
     1
170
     0
176
     1
171
     0
176
     1
290
     0
176
     1
 93
        1
176
     1
 44
-50.0
176
     1
173
     0
176
     1
1001
ACAD
1000
AcDbSavedByObjectVersion
1070
     0
  0
VISUALSTYLE
  5
DB
102
{ACAD_XDICTIONARY
360
28B
102
}
102
{ACAD_REACTORS
330
C3
102
}
330
C3
100
AcDbVisualStyle
  2
EdgeColorOff
 70
    22
177
     2
291
     1
 71
     2
176
     0
 72
     2
176
     0
 73
     0
176
     0
 90
        0
176
     0
 40
0.6
176
     0
 41
30.0
176
     0
 63
     7
421
 16777215
176
     0
 74
     1
176
     0
 91
        4
176
     0
 64
     7
176
     0
 65
   257
176
     0
 75
     1
176
     0
175
     1
176
     0
 42
1.0
176
     0
 92
        8
176
     2
 66
     7
176
     0
 43
1.0
176
     0
 76
     1
176
     0
 77
     6
176
     0
 78
     2
176
     0
 67
     7
176
     0
 79
     5
176
     0
170
     0
176
     0
171
     0
176
     0
290
     0
176
     0
 93
        1
176
     0
 44
0.0
176
     0
173
     0
176
     0
1001
ACAD
1000
AcDbSavedByObjectVersion
1070
     0
  0
VISUALSTYLE
  5
D2
102
{ACAD_XDICTIONARY
360
279
102
}
102
{ACAD_REACTORS
330
C3
102
}
330
C3
100
AcDbVisualStyle
  2
Facepattern
 70
    15
177
     2
291
     1
 71
     2
176
     1
 72
     2
176
     1
 73
     0
176
     1
 90
        0
176
     1
 40
0.6
176
     1
 41
30.0
176
     1
 63
     7
421
 16777215
176
     1
 74
     1
176
     1
 91
        4
176
     1
 64
     7
176
     1
 65
   257
176
     1
 75
     1
176
     1
175
     1
176
     1
 42
1.0
176
     1
 92
        8
176
     1
 66
     7
176
     1
 43
1.0
176
     1
 76
     1
176
     1
 77
     6
176
     1
 78
     2
176
     1
 67
     7
176
     1
 79
     5
176
     1
170
     0
176
     1
171
     0
176
     1
290
     0
176
     1
 93
        1
176
     1
 44
0.0
176
     1
173
     0
176
     1
1001
ACAD
1000
AcDbSavedByObjectVersion
1070
     0
  0
VISUALSTYLE
  5
C4
102
{ACAD_XDICTIONARY
360
25D
102
}
102
{ACAD_REACTORS
330
C3
102
}
330
C3
100
AcDbVisualStyle
  2
Flat
 70
     0
177
     2
291
     1
 71
     2
176
     1
 72
     1
176
     1
 73
     1
176
     1
 90
        2
176
     1
 40
0.6
176
     1
 41
30.0
176
     1
 63
     7
421
 16777215
176
     1
 74
     0
176
     1
 91
        0
176
     1
 64
     7
176
     1
 65
   257
176
     1
 75
     1
176
     1
175
     1
176
     1
 42
1.0
176
     1
 92
        8
176
     1
 66
     7
176
     1
 43
1.0
176
     1
 76
     1
176
     1
 77
     6
176
     1
 78
     2
176
     1
 67
     7
176
     1
 79
     5
176
     1
170
     0
176
     1
171
     0
176
     1
290
     0
176
     1
 93
       13
176
     1
 44
0.0
176
     1
173
     0
176
     1
1001
ACAD
1000
AcDbSavedByObjectVersion
1070
     0
  0
VISUALSTYLE
  5
C5
102
{ACAD_XDICTIONARY
360
25F
102
}
102
{ACAD_REACTORS
330
C3
102
}
330
C3
100
AcDbVisualStyle
  2
FlatWithEdges
 70
     1
177
     2
291
     1
 71
     2
176
     1
 72
     1
176
     1
 73
     1
176
     1
 90
        2
176
     1
 40
0.6
176
     1
 41
30.0
176
     1
 63
     7
421
 16777215
176
     1
 74
     1
176
     1
 91
        0
176
     1
 64
     7
176
     1
 65
   257
176
     1
 75
     1
176
     1
175
     1
176
     1
 42
1.0
176
     1
 92
        0
176
     1
 66
   257
176
     1
 43
1.0
176
     1
 76
     1
176
     1
 77
     6
176
     1
 78
     2
176
     1
 67
     7
176
     1
 79
     5
176
     1
170
     0
176
     1
171
     0
176
     1
290
     0
176
     1
 93
       13
176
     1
 44
0.0
176
     1
173
     0
176
     1
1001
ACAD
1000
AcDbSavedByObjectVersion
1070
     0
  0
VISUALSTYLE
  5
C6
102
{ACAD_XDICTIONARY
360
261
102
}
102
{ACAD_REACTORS
330
C3
102
}
330
C3
100
AcDbVisualStyle
  2
Gouraud
 70
     2
177
     2
291
     1
 71
     2
176
     1
 72
     2
176
     1
 73
     1
176
     1
 90
        2
176
     1
 40
0.6
176
     1
 41
30.0
176
     1
 63
     7
421
 16777215
176
     1
 74
     0
176
     1
 91
        0
176
     1
 64
     7
176
     1
 65
   257
176
     1
 75
     1
176
     1
175
     1
176
     1
 42
1.0
176
     1
 92
        0
176
     1
 66
     7
176
     1
 43
1.0
176
     1
 76
     1
176
     1
 77
     6
176
     1
 78
     2
176
     1
 67
     7
176
     1
 79
     5
176
     1
170
     0
176
     1
171
     0
176
     1
290
     0
176
     1
 93
       13
176
     1
 44
0.0
176
     1
173
     0
176
     1
1001
ACAD
1000
AcDbSavedByObjectVersion
1070
     0
  0
VISUALSTYLE
  5
C7
102
{ACAD_XDICTIONARY
360
263
102
}
102
{ACAD_REACTORS
330
C3
102
}
330
C3
100
AcDbVisualStyle
  2
GouraudWithEdges
 70
     3
177
     2
291
     1
 71
     2
176
     1
 72
     2
176
     1
 73
     1
176
     1
 90
        2
176
     1
 40
0.6
176
     1
 41
30.0
176
     1
 63
     7
421
 16777215
176
     1
 74
     1
176
     1
 91
        0
176
     1
 64
     7
176
     1
 65
   257
176
     1
 75
     1
176
     1
175
     1
176
     1
 42
1.0
176
     1
 92
        0
176
     1
 66
   257
176
     1
 43
1.0
176
     1
 76
     1
176
     1
 77
     6
176
     1
 78
     2
176
     1
 67
     7
176
     1
 79
     5
176
     1
170
     0
176
     1
171
     0
176
     1
290
     0
176
     1
 93
       13
176
     1
 44
0.0
176
     1
173
     0
176
     1
1001
ACAD
1000
AcDbSavedByObjectVersion
1070
     0
  0
VISUALSTYLE
  5
CB
102
{ACAD_XDICTIONARY
360
26B
102
}
102
{ACAD_REACTORS
330
C3
102
}
330
C3
100
AcDbVisualStyle
  2
Hidden
 70
     6
177
     2
291
     0
 71
     1
176
     1
 72
     2
176
     1
 73
     2
176
     1
 90
        0
176
     1
 40
0.6
176
     1
 41
30.0
176
     1
 63
     7
421
 16777215
176
     1
 74
     2
176
     1
 91
        2
176
     1
 64
     7
176
     1
 65
   257
176
     1
 75
     2
176
     1
175
     1
176
     1
 42
40.0
176
     1
 92
        0
176
     1
 66
   257
176
     1
 43
1.0
176
     1
 76
     1
176
     1
 77
     6
176
     1
 78
     2
176
     1
 67
     7
176
     1
 79
     3
176
     1
170
     0
176
     1
171
     0
176
     1
290
     0
176
     1
 93
        1
176
     1
 44
0.0
176
     1
173
     0
176
     1
1001
ACAD
1000
AcDbSavedByObjectVersion
1070
     0
  0
VISUALSTYLE
  5
D9
102
{ACAD_XDICTIONARY
360
287
102
}
102
{ACAD_REACTORS
330
C3
102
}
330
C3
100
AcDbVisualStyle
  2
JitterOff
 70
    20
177
     2
291
     1
 71
     2
176
     0
 72
     2
176
     0
 73
     0
176
     0
 90
        0
176
     0
 40
0.6
176
     0
 41
30.0
176
     0
 63
     7
421
 16777215
176
     0
 74
     1
176
     0
 91
        4
176
     0
 64
     7
176
     0
 65
   257
176
     0
 75
     1
176
     0
175
     1
176
     0
 42
1.0
176
     0
 92
       10
176
     2
 66
     7
176
     0
 43
1.0
176
     0
 76
     1
176
     0
 77
     6
176
     0
 78
     2
176
     0
 67
     7
176
     0
 79
     5
176
     0
170
     0
176
     0
171
     0
176
     0
290
     0
176
     0
 93
        1
176
     0
 44
0.0
176
     0
173
     0
176
     0
1001
ACAD
1000
AcDbSavedByObjectVersion
1070
     0
  0
VISUALSTYLE
  5
D1
102
{ACAD_XDICTIONARY
360
277
102
}
102
{ACAD_REACTORS
330
C3
102
}
330
C3
100
AcDbVisualStyle
  2
Linepattern
 70
    14
177
     2
291
     1
 71
     2
176
     1
 72
     2
176
     1
 73
     0
176
     1
 90
        0
176
     1
 40
0.6
176
     1
 41
30.0
176
     1
 63
     7
421
 16777215
176
     1
 74
     1
176
     1
 91
        4
176
     1
 64
     7
176
     1
 65
   257
176
     1
 75
     7
176
     1
175
     7
176
     1
 42
1.0
176
     1
 92
        8
176
     1
 66
     7
176
     1
 43
1.0
176
     1
 76
     1
176
     1
 77
     6
176
     1
 78
     2
176
     1
 67
     7
176
     1
 79
     5
176
     1
170
     0
176
     1
171
     0
176
     1
290
     0
176
     1
 93
        1
176
     1
 44
0.0
176
     1
173
     0
176
     1
1001
ACAD
1000
AcDbSavedByObjectVersion
1070
     0
  0
VISUALSTYLE
  5
DA
102
{ACAD_XDICTIONARY
360
289
102
}
102
{ACAD_REACTORS
330
C3
102
}
330
C3
100
AcDbVisualStyle
  2
OverhangOff
 70
    21
177
     2
291
     1
 71
     2
176
     0
 72
     2
176
     0
 73
     0
176
     0
 90
        0
176
     0
 40
0.6
176
     0
 41
30.0
176
     0
 63
     7
421
 16777215
176
     0
 74
     1
176
     0
 91
        4
176
     0
 64
     7
176
     0
 65
   257
176
     0
 75
     1
176
     0
175
     1
176
     0
 42
1.0
176
     0
 92
        9
176
     2
 66
     7
176
     0
 43
1.0
176
     0
 76
     1
176
     0
 77
     6
176
     0
 78
     2
176
     0
 67
     7
176
     0
 79
     5
176
     0
170
     0
176
     0
171
     0
176
     0
290
     0
176
     0
 93
        1
176
     0
 44
0.0
176
     0
173
     0
176
     0
1001
ACAD
1000
AcDbSavedByObjectVersion
1070
     0
  0
VISUALSTYLE
  5
CD
102
{ACAD_XDICTIONARY
360
26F
102
}
102
{ACAD_REACTORS
330
C3
102
}
330
C3
100
AcDbVisualStyle
  2
Realistic
 70
     8
177
     2
291
     0
 71
     2
176
     1
 72
     3
176
     1
 73
     0
176
     1
 90
        2
176
     1
 40
0.6
176
     1
 41
30.0
176
     1
 63
     7
421
 16777215
176
     1
 74
     0
176
     1
 91
        0
176
     1
 64
     7
176
     1
 65
   257
176
     1
 75
     1
176
     1
175
     1
176
     1
 42
1.0
176
     1
 92
        8
176
     1
 66
   257
176
     1
 43
1.0
176
     1
 76
     1
176
     1
 77
     6
176
     1
 78
     2
176
     1
 67
     7
176
     1
 79
     3
176
     1
170
     0
176
     1
171
     0
176
     1
290
     0
176
     1
 93
       13
176
     1
 44
0.0
176
     1
173
     0
176
     1
1001
ACAD
1000
AcDbSavedByObjectVersion
1070
     0
  0
VISUALSTYLE
  5
D8
102
{ACAD_XDICTIONARY
360
285
102
}
102
{ACAD_REACTORS
330
C3
102
}
330
C3
100
AcDbVisualStyle
  2
Shaded
 70
    27
177
     2
291
     0
 71
     2
176
     1
 72
     2
176
     1
 73
     1
176
     1
 90
        2
176
     1
 40
0.6
176
     1
 41
30.0
176
     1
 63
     7
421
 16777215
176
     1
 74
     0
176
     1
 91
        4
176
     1
 64
     7
176
     1
 65
   257
176
     1
 75
     1
176
     1
175
     1
176
     1
 42
1.0
176
     1
 92
        8
176
     1
 66
   257
176
     1
 43
1.0
176
     1
 76
     1
176
     1
 77
     6
176
     1
 78
     2
176
     1
 67
     8
425
  7895160
176
     1
 79
     3
176
     1
170
     0
176
     1
171
     0
176
     1
290
     0
176
     1
 93
        5
176
     1
 44
0.0
176
     1
173
     0
176
     1
1001
ACAD
1000
AcDbSavedByObjectVersion
1070
     0
  0
VISUALSTYLE
  5
D7
102
{ACAD_XDICTIONARY
360
283
102
}
102
{ACAD_REACTORS
330
C3
102
}
330
C3
100
AcDbVisualStyle
  2
Shaded with edges
 70
    26
177
     2
291
     0
 71
     2
176
     1
 72
     2
176
     1
 73
     1
176
     1
 90
        2
176
     1
 40
0.6
176
     1
 41
30.0
176
     1
 63
     7
421
 16777215
176
     1
 74
     1
176
     1
 91
       10
176
     1
 64
     7
176
     1
 65
   257
176
     1
 75
     2
176
     1
175
     1
176
     1
 42
1.0
176
     1
 92
        8
176
     1
 66
   257
176
     1
 43
1.0
176
     1
 76
     1
176
     1
 77
     6
176
     1
 78
     2
176
     1
 67
     7
176
     1
 79
     3
176
     1
170
     0
176
     1
171
     0
176
     1
290
     0
176
     1
 93
        5
176
     1
 44
0.0
176
     1
173
     0
176
     1
1001
ACAD
1000
AcDbSavedByObjectVersion
1070
     0
  0
VISUALSTYLE
  5
D4
102
{ACAD_XDICTIONARY
360
27D
102
}
102
{ACAD_REACTORS
330
C3
102
}
330
C3
100
AcDbVisualStyle
  2
Shades of Gray
 70
    23
177
     2
291
     0
 71
     2
176
     1
 72
     2
176
     1
 73
     3
176
     1
 90
        0
176
     1
 40
0.6
176
     1
 41
30.0
176
     1
 63
     7
421
 16777215
176
     1
 74
     2
176
     1
 91
        2
176
     1
 64
     7
176
     1
 65
     7
176
     1
 75
     1
176
     1
175
     1
176
     1
 42
40.0
176
     1
 92
        8
176
     1
 66
     7
176
     1
 43
1.0
176
     1
 76
     1
176
     1
 77
     6
176
     1
 78
     2
176
     1
 67
     7
176
     1
 79
     3
176
     1
170
     0
176
     1
171
     0
176
     1
290
     0
176
     1
 93
        1
176
     1
 44
0.0
176
     1
173
     0
176
     1
1001
ACAD
1000
AcDbSavedByObjectVersion
1070
     0
  0
VISUALSTYLE
  5
D5
102
{ACAD_XDICTIONARY
360
27F
102
}
102
{ACAD_REACTORS
330
C3
102
}
330
C3
100
AcDbVisualStyle
  2
Sketchy
 70
    24
177
     2
291
     0
 71
     1
176
     1
 72
     2
176
     1
 73
     2
176
     1
 90
        0
176
     1
 40
0.6
176
     1
 41
30.0
176
     1
 63
     7
421
 16777215
176
     1
 74
     2
176
     1
 91
        2
176
     1
 64
     7
176
     1
 65
     7
176
     1
 75
     1
176
     1
175
     1
176
     1
 42
40.0
176
     1
 92
       11
176
     1
 66
     7
176
     1
 43
1.0
176
     1
 76
     1
176
     1
 77
     6
176
     1
 78
     2
176
     1
 67
     7
176
     1
 79
     6
176
     1
170
     0
176
     1
171
     0
176
     1
290
     0
176
     1
 93
        1
176
     1
 44
0.0
176
     1
173
     0
176
     1
1001
ACAD
1000
AcDbSavedByObjectVersion
1070
     0
  0
VISUALSTYLE
  5
D0
102
{ACAD_XDICTIONARY
360
275
102
}
102
{ACAD_REACTORS
330
C3
102
}
330
C3
100
AcDbVisualStyle
  2
Thicken
 70
    13
177
     2
291
     1
 71
     2
176
     1
 72
     2
176
     1
 73
     0
176
     1
 90
        0
176
     1
 40
0.6
176
     1
 41
30.0
176
     1
 63
     7
421
 16777215
176
     1
 74
     1
176
     1
 91
        4
176
     1
 64
     7
176
     1
 65
   257
176
     1
 75
     1
176
     1
175
     1
176
     1
 42
1.0
176
     1
 92
       12
176
     1
 66
     7
176
     1
 43
1.0
176
     1
 76
     1
176
     1
 77
     6
176
     1
 78
     2
176
     1
 67
     7
176
     1
 79
     5
176
     1
170
     0
176
     1
171
     0
176
     1
290
     0
176
     1
 93
        1
176
     1
 44
0.0
176
     1
173
     0
176
     1
1001
ACAD
1000
AcDbSavedByObjectVersion
1070
     0
  0
VISUALSTYLE
  5
CA
102
{ACAD_XDICTIONARY
360
269
102
}
102
{ACAD_REACTORS
330
C3
102
}
330
C3
100
AcDbVisualStyle
  2
Wireframe
 70
     5
177
     2
291
     0
 71
     0
176
     1
 72
     2
176
     1
 73
     0
176
     1
 90
        0
176
     1
 40
0.6
176
     1
 41
30.0
176
     1
 63
     7
421
 16777215
176
     1
 74
     1
176
     1
 91
        4
176
     1
 64
     7
176
     1
 65
   257
176
     1
 75
     1
176
     1
175
     1
176
     1
 42
1.0
176
     1
 92
        0
176
     1
 66
   257
176
     1
 43
1.0
176
     1
 76
     1
176
     1
 77
     6
176
     1
 78
     2
176
     1
 67
     7
176
     1
 79
     3
176
     1
170
     0
176
     1
171
     0
176
     1
290
     0
176
     1
 93
        1
176
     1
 44
0.0
176
     1
173
     0
176
     1
1001
ACAD
1000
AcDbSavedByObjectVersion
1070
     0
  0
VISUALSTYLE
  5
D6
102
{ACAD_XDICTIONARY
360
281
102
}
102
{ACAD_REACTORS
330
C3
102
}
330
C3
100
AcDbVisualStyle
  2
X-Ray
 70
    25
177
     2
291
     0
 71
     2
176
     1
 72
     2
176
     1
 73
     1
176
     1
 90
        1
176
     1
 40
0.5
176
     1
 41
30.0
176
     1
 63
     7
421
 16777215
176
     1
 74
     1
176
     1
 91
        0
176
     1
 64
     7
176
     1
 65
   257
176
     1
 75
     1
176
     1
175
     1
176
     1
 42
1.0
176
     1
 92
        8
176
     1
 66
     7
176
     1
 43
1.0
176
     1
 76
     1
176
     1
 77
     6
176
     1
 78
     2
176
     1
 67
     7
176
     1
 79
     3
176
     1
170
     0
176
     1
171
     0
176
     1
290
     0
176
     1
 93
       13
176
     1
 44
0.0
176
     1
173
     0
176
     1
1001
ACAD
1000
AcDbSavedByObjectVersion
1070
     0
  0
DICTIONARYVAR
  5
254
102
{ACAD_REACTORS
330
24E
102
}
330
24E
100
DictionaryVariables
280
     0
  1
1:1
  0
DICTIONARYVAR
  5
250
102
{ACAD_REACTORS
330
24E
102
}
330
24E
100
DictionaryVariables
280
     0
  1
STANDARD
  0
DICTIONARYVAR
  5
24F
102
{ACAD_REACTORS
330
24E
102
}
330
24E
100
DictionaryVariables
280
     0
  1
STANDARD
  0
DICTIONARYVAR
  5
251
102
{ACAD_REACTORS
330
24E
102
}
330
24E
100
DictionaryVariables
280
     0
  1
Imperial24
  0
DICTIONARYVAR
  5
252
102
{ACAD_REACTORS
330
24E
102
}
330
24E
100
DictionaryVariables
280
     0
  1
Imperial24
  0
DICTIONARYVAR
  5
256
102
{ACAD_REACTORS
330
24E
102
}
330
24E
100
DictionaryVariables
280
     0
  1
1
  0
DICTIONARYVAR
  5
257
102
{ACAD_REACTORS
330
24E
102
}
330
24E
100
DictionaryVariables
280
     0
  1
15
  0
DICTIONARYVAR
  5
255
102
{ACAD_REACTORS
330
24E
102
}
330
24E
100
DictionaryVariables
280
     0
  1
0
  0
DICTIONARYVAR
  5
253
102
{ACAD_REACTORS
330
24E
102
}
330
24E
100
DictionaryVariables
280
     0
  1
0
  0
DICTIONARY
  5
291
330
F6
100
AcDbDictionary
280
     1
281
     1
  3
ACAD_XREC_ROUNDTRIP
360
292
  0
DICTIONARY
  5
B4
330
B3
100
AcDbDictionary
280
     1
281
     1
  3
BUMPTILE
360
B6
  3
DIFFUSETILE
360
B5
  3
OPACITYTILE
360
B9
  3
REFLECTIONTILE
360
B8
  3
REFRACTIONTILE
360
BA
  3
SPECULARTILE
360
B7
  0
DICTIONARY
  5
AC
330
AB
100
AcDbDictionary
280
     1
281
     1
  3
BUMPTILE
360
AE
  3
DIFFUSETILE
360
AD
  3
OPACITYTILE
360
B1
  3
REFLECTIONTILE
360
B0
  3
REFRACTIONTILE
360
B2
  3
SPECULARTILE
360
AF
  0
DICTIONARY
  5
BC
330
BB
100
AcDbDictionary
280
     1
281
     1
  3
BUMPTILE
360
BE
  3
DIFFUSETILE
360
BD
  3
OPACITYTILE
360
C1
  3
REFLECTIONTILE
360
C0
  3
REFRACTIONTILE
360
C2
  3
SPECULARTILE
360
BF
  0
DICTIONARY
  5
28D
330
F2
100
AcDbDictionary
280
     1
281
     1
  3
ACAD_XREC_ROUNDTRIP
360
28E
  0
DICTIONARY
  5
28F
330
F4
100
AcDbDictionary
280
     1
281
     1
  3
ACAD_XREC_ROUNDTRIP
360
290
  0
DICTIONARY
  5
258
330
DE
100
AcDbDictionary
280
     1
281
     1
  3
ACAD_ROUNDTRIP_2008_TABLESTYLE_CELLSTYLEMAP
360
259
  0
DICTIONARY
  5
267
330
C9
100
AcDbDictionary
280
     1
281
     1
  3
ACAD_XREC_ROUNDTRIP
360
268
  0
DICTIONARY
  5
265
330
C8
100
AcDbDictionary
280
     1
281
     1
  3
ACAD_XREC_ROUNDTRIP
360
266
  0
DICTIONARY
  5
273
330
CF
100
AcDbDictionary
280
     1
281
     1
  3
ACAD_XREC_ROUNDTRIP
360
274
  0
DICTIONARY
  5
27B
330
D3
100
AcDbDictionary
280
     1
281
     1
  3
ACAD_XREC_ROUNDTRIP
360
27C
  0
DICTIONARY
  5
26D
330
CC
100
AcDbDictionary
280
     1
281
     1
  3
ACAD_XREC_ROUNDTRIP
360
26E
  0
DICTIONARY
  5
271
330
CE
100
AcDbDictionary
280
     1
281
     1
  3
ACAD_XREC_ROUNDTRIP
360
272
  0
DICTIONARY
  5
28B
330
DB
100
AcDbDictionary
280
     1
281
     1
  3
ACAD_XREC_ROUNDTRIP
360
28C
  0
DICTIONARY
  5
279
330
D2
100
AcDbDictionary
280
     1
281
     1
  3
ACAD_XREC_ROUNDTRIP
360
27A
  0
DICTIONARY
  5
25D
330
C4
100
AcDbDictionary
280
     1
281
     1
  3
ACAD_XREC_ROUNDTRIP
360
25E
  0
DICTIONARY
  5
25F
330
C5
100
AcDbDictionary
280
     1
281
     1
  3
ACAD_XREC_ROUNDTRIP
360
260
  0
DICTIONARY
  5
261
330
C6
100
AcDbDictionary
280
     1
281
     1
  3
ACAD_XREC_ROUNDTRIP
360
262
  0
DICTIONARY
  5
263
330
C7
100
AcDbDictionary
280
     1
281
     1
  3
ACAD_XREC_ROUNDTRIP
360
264
  0
DICTIONARY
  5
26B
330
CB
100
AcDbDictionary
280
     1
281
     1
  3
ACAD_XREC_ROUNDTRIP
360
26C
  0
DICTIONARY
  5
287
330
D9
100
AcDbDictionary
280
     1
281
     1
  3
ACAD_XREC_ROUNDTRIP
360
288
  0
DICTIONARY
  5
277
330
D1
100
AcDbDictionary
280
     1
281
     1
  3
ACAD_XREC_ROUNDTRIP
360
278
  0
DICTIONARY
  5
289
330
DA
100
AcDbDictionary
280
     1
281
     1
  3
ACAD_XREC_ROUNDTRIP
360
28A
  0
DICTIONARY
  5
26F
330
CD
100
AcDbDictionary
280
     1
281
     1
  3
ACAD_XREC_ROUNDTRIP
360
270
  0
DICTIONARY
  5
285
330
D8
100
AcDbDictionary
280
     1
281
     1
  3
ACAD_XREC_ROUNDTRIP
360
286
  0
DICTIONARY
  5
283
330
D7
100
AcDbDictionary
280
     1
281
     1
  3
ACAD_XREC_ROUNDTRIP
360
284
  0
DICTIONARY
  5
27D
330
D4
100
AcDbDictionary
280
     1
281
     1
  3
ACAD_XREC_ROUNDTRIP
360
27E
  0
DICTIONARY
  5
27F
330
D5
100
AcDbDictionary
280
     1
281
     1
  3
ACAD_XREC_ROUNDTRIP
360
280
  0
DICTIONARY
  5
275
330
D0
100
AcDbDictionary
280
     1
281
     1
  3
ACAD_XREC_ROUNDTRIP
360
276
  0
DICTIONARY
  5
269
330
CA
100
AcDbDictionary
280
     1
281
     1
  3
ACAD_XREC_ROUNDTRIP
360
26A
  0
DICTIONARY
  5
281
330
D6
100
AcDbDictionary
280
     1
281
     1
  3
ACAD_XREC_ROUNDTRIP
360
282
  0
XRECORD
  5
292
102
{ACAD_REACTORS
330
291
102
}
330
291
100
AcDbXrecord
280
     1
102
DISPLAYNAME
  1
Imperial24
102
FLAGS
 90
        0
  0
XRECORD
  5
B6
102
{ACAD_REACTORS
330
B4
102
}
330
B4
100
AcDbXrecord
280
     1
270
     1
271
     1
  0
XRECORD
  5
B5
102
{ACAD_REACTORS
330
B4
102
}
330
B4
100
AcDbXrecord
280
     1
270
     1
271
     1
  0
XRECORD
  5
B9
102
{ACAD_REACTORS
330
B4
102
}
330
B4
100
AcDbXrecord
280
     1
270
     1
271
     1
  0
XRECORD
  5
B8
102
{ACAD_REACTORS
330
B4
102
}
330
B4
100
AcDbXrecord
280
     1
270
     1
271
     1
  0
XRECORD
  5
BA
102
{ACAD_REACTORS
330
B4
102
}
330
B4
100
AcDbXrecord
280
     1
270
     1
271
     1
  0
XRECORD
  5
B7
102
{ACAD_REACTORS
330
B4
102
}
330
B4
100
AcDbXrecord
280
     1
270
     1
271
     1
  0
XRECORD
  5
AE
102
{ACAD_REACTORS
330
AC
102
}
330
AC
100
AcDbXrecord
280
     1
270
     1
271
     1
  0
XRECORD
  5
AD
102
{ACAD_REACTORS
330
AC
102
}
330
AC
100
AcDbXrecord
280
     1
270
     1
271
     1
  0
XRECORD
  5
B1
102
{ACAD_REACTORS
330
AC
102
}
330
AC
100
AcDbXrecord
280
     1
270
     1
271
     1
  0
XRECORD
  5
B0
102
{ACAD_REACTORS
330
AC
102
}
330
AC
100
AcDbXrecord
280
     1
270
     1
271
     1
  0
XRECORD
  5
B2
102
{ACAD_REACTORS
330
AC
102
}
330
AC
100
AcDbXrecord
280
     1
270
     1
271
     1
  0
XRECORD
  5
AF
102
{ACAD_REACTORS
330
AC
102
}
330
AC
100
AcDbXrecord
280
     1
270
     1
271
     1
  0
XRECORD
  5
BE
102
{ACAD_REACTORS
330
BC
102
}
330
BC
100
AcDbXrecord
280
     1
270
     1
271
     1
  0
XRECORD
  5
BD
102
{ACAD_REACTORS
330
BC
102
}
330
BC
100
AcDbXrecord
280
     1
270
     1
271
     1
  0
XRECORD
  5
C1
102
{ACAD_REACTORS
330
BC
102
}
330
BC
100
AcDbXrecord
280
     1
270
     1
271
     1
  0
XRECORD
  5
C0
102
{ACAD_REACTORS
330
BC
102
}
330
BC
100
AcDbXrecord
280
     1
270
     1
271
     1
  0
XRECORD
  5
C2
102
{ACAD_REACTORS
330
BC
102
}
330
BC
100
AcDbXrecord
280
     1
270
     1
271
     1
  0
XRECORD
  5
BF
102
{ACAD_REACTORS
330
BC
102
}
330
BC
100
AcDbXrecord
280
     1
270
     1
271
     1
  0
XRECORD
  5
28E
102
{ACAD_REACTORS
330
28D
102
}
330
28D
100
AcDbXrecord
280
     1
102
ACAD_ROUNDTRIP_2012_MLEADER_STYLE
298
     1
  0
XRECORD
  5
290
102
{ACAD_REACTORS
330
28F
102
}
330
28F
100
AcDbXrecord
280
     1
102
DISPLAYNAME
  1
Imperial24
102
FLAGS
 90
        0
  0
CELLSTYLEMAP
  5
259
102
{ACAD_REACTORS
330
258
102
}
330
258
100
AcDbCellStyleMap
 90
        3
300
CELLSTYLE
  1
TABLEFORMAT_BEGIN
 90
        5
170
     1
 91
        0
 92
    32768
 62
   257
 93
        1
300
CONTENTFORMAT
  1
CONTENTFORMAT_BEGIN
 90
        0
 91
        0
 92
      512
 93
        0
300

 40
0.0
140
1.0
 94
        5
 62
     0
340
11
144
0.25
309
CONTENTFORMAT_END
171
     0
 94
        0
309
TABLEFORMAT_END
  1
CELLSTYLE_BEGIN
 90
        1
 91
        1
300
_TITLE
309
CELLSTYLE_END
300
CELLSTYLE
  1
TABLEFORMAT_BEGIN
 90
        5
170
     1
 91
        0
 92
        0
 62
   257
 93
        1
300
CONTENTFORMAT
  1
CONTENTFORMAT_BEGIN
 90
        0
 91
        0
 92
      512
 93
        0
300

 40
0.0
140
1.0
 94
        5
 62
     0
340
11
144
0.18
309
CONTENTFORMAT_END
171
     0
 94
        0
309
TABLEFORMAT_END
  1
CELLSTYLE_BEGIN
 90
        2
 91
        1
300
_HEADER
309
CELLSTYLE_END
300
CELLSTYLE
  1
TABLEFORMAT_BEGIN
 90
        5
170
     1
 91
        0
 92
        0
 62
   257
 93
        1
300
CONTENTFORMAT
  1
CONTENTFORMAT_BEGIN
 90
        0
 91
        0
 92
      512
 93
        0
300

 40
0.0
140
1.0
 94
        2
 62
     0
340
11
144
0.18
309
CONTENTFORMAT_END
171
     0
 94
        0
309
TABLEFORMAT_END
  1
CELLSTYLE_BEGIN
 90
        3
 91
        2
300
_DATA
309
CELLSTYLE_END
  0
XRECORD
  5
268
102
{ACAD_REACTORS
330
267
102
}
330
267
100
AcDbXrecord
280
     1
102
RTVSPost2010Prop28
280
     1
102
RTVSPost2010PropOp28
 70
     1
102
RTVSPost2010Prop29
280
     1
102
RTVSPost2010PropOp29
 70
     1
102
RTVSPost2010Prop30
280
     0
102
RTVSPost2010PropOp30
 70
     1
102
RTVSPost2010Prop31
280
     0
102
RTVSPost2010PropOp31
 70
     1
102
RTVSPost2010Prop32
280
     0
102
RTVSPost2010PropOp32
 70
     1
102
RTVSPost2010Prop33
280
     0
102
RTVSPost2010PropOp33
 70
     1
102
RTVSPost2010Prop34
280
     0
102
RTVSPost2010PropOp34
 70
     1
102
RTVSPost2010Prop35
280
     0
102
RTVSPost2010PropOp35
 70
     1
102
RTVSPost2010Prop36
280
     0
102
RTVSPost2010PropOp36
 70
     1
102
RTVSPost2010Prop37
 90
       50
102
RTVSPost2010PropOp37
 70
     1
102
RTVSPost2010Prop38
140
0.0
102
RTVSPost2010PropOp38
 70
     1
102
RTVSPost2010Prop39
140
1.0
102
RTVSPost2010PropOp39
 70
     1
102
RTVSPost2010Prop40
 90
        0
102
RTVSPost2010PropOp40
 70
     1
102
RTVSPost2010Prop41ColorIndex
 90
       18
102
RTVSPost2010Prop41ColorRGB
 90
        0
102
RTVSPost2010PropOp41
 70
     1
102
RTVSPost2010Prop42
 90
       50
102
RTVSPost2010PropOp42
 70
     1
102
RTVSPost2010Prop43
 90
        3
102
RTVSPost2010PropOp43
 70
     1
102
RTVSPost2010Prop44ColorIndex
 90
        5
102
RTVSPost2010Prop44ColorRGB
 90
      255
102
RTVSPost2010PropOp44
 70
     1
102
RTVSPost2010Prop45
280
     0
102
RTVSPost2010PropOp45
 70
     1
102
RTVSPost2010Prop46
 90
       50
102
RTVSPost2010PropOp46
 70
     1
102
RTVSPost2010Prop47
 90
       50
102
RTVSPost2010PropOp47
 70
     1
102
RTVSPost2010Prop48
 90
       50
102
RTVSPost2010PropOp48
 70
     1
102
RTVSPost2010Prop49
280
     0
102
RTVSPost2010PropOp49
 70
     1
102
RTVSPost2010Prop50
 90
       50
102
RTVSPost2010PropOp50
 70
     1
102
RTVSPost2010Prop51ColorIndex
 90
      256
102
RTVSPost2010Prop51ColorRGB
 90
-16777216
102
RTVSPost2010PropOp51
 70
     0
102
RTVSPost2010Prop52
140
1.0
102
RTVSPost2010PropOp52
 70
     0
102
RTVSPost2010Prop53
 90
        2
102
RTVSPost2010PropOp53
 70
     1
102
RTVSPost2010Prop54
  1
strokes_ogs.tif
102
RTVSPost2010PropOp54
 70
     1
102
RTVSPost2010Prop55
280
     0
102
RTVSPost2010PropOp55
 70
     1
102
RTVSPost2010Prop56
140
1.0
102
RTVSPost2010PropOp56
 70
     1
102
RTVSPost2010Prop57
140
1.0
102
RTVSPost2010PropOp57
 70
     1
  0
XRECORD
  5
266
102
{ACAD_REACTORS
330
265
102
}
330
265
100
AcDbXrecord
280
     1
102
RTVSPost2010Prop28
280
     0
102
RTVSPost2010PropOp28
 70
     1
102
RTVSPost2010Prop29
280
     1
102
RTVSPost2010PropOp29
 70
     1
102
RTVSPost2010Prop30
280
     1
102
RTVSPost2010PropOp30
 70
     1
102
RTVSPost2010Prop31
280
     0
102
RTVSPost2010PropOp31
 70
     1
102
RTVSPost2010Prop32
280
     0
102
RTVSPost2010PropOp32
 70
     1
102
RTVSPost2010Prop33
280
     0
102
RTVSPost2010PropOp33
 70
     1
102
RTVSPost2010Prop34
280
     0
102
RTVSPost2010PropOp34
 70
     1
102
RTVSPost2010Prop35
280
     0
102
RTVSPost2010PropOp35
 70
     1
102
RTVSPost2010Prop36
280
     0
102
RTVSPost2010PropOp36
 70
     1
102
RTVSPost2010Prop37
 90
       50
102
RTVSPost2010PropOp37
 70
     1
102
RTVSPost2010Prop38
140
0.0
102
RTVSPost2010PropOp38
 70
     1
102
RTVSPost2010Prop39
140
1.0
102
RTVSPost2010PropOp39
 70
     1
102
RTVSPost2010Prop40
 90
        0
102
RTVSPost2010PropOp40
 70
     1
102
RTVSPost2010Prop41ColorIndex
 90
       18
102
RTVSPost2010Prop41ColorRGB
 90
        0
102
RTVSPost2010PropOp41
 70
     1
102
RTVSPost2010Prop42
 90
       50
102
RTVSPost2010PropOp42
 70
     1
102
RTVSPost2010Prop43
 90
        3
102
RTVSPost2010PropOp43
 70
     1
102
RTVSPost2010Prop44ColorIndex
 90
        5
102
RTVSPost2010Prop44ColorRGB
 90
      255
102
RTVSPost2010PropOp44
 70
     1
102
RTVSPost2010Prop45
280
     0
102
RTVSPost2010PropOp45
 70
     1
102
RTVSPost2010Prop46
 90
       50
102
RTVSPost2010PropOp46
 70
     1
102
RTVSPost2010Prop47
 90
       50
102
RTVSPost2010PropOp47
 70
     1
102
RTVSPost2010Prop48
 90
       50
102
RTVSPost2010PropOp48
 70
     1
102
RTVSPost2010Prop49
280
     0
102
RTVSPost2010PropOp49
 70
     1
102
RTVSPost2010Prop50
 90
       50
102
RTVSPost2010PropOp50
 70
     1
102
RTVSPost2010Prop51ColorIndex
 90
      256
102
RTVSPost2010Prop51ColorRGB
 90
-16777216
102
RTVSPost2010PropOp51
 70
     0
102
RTVSPost2010Prop52
140
1.0
102
RTVSPost2010PropOp52
 70
     0
102
RTVSPost2010Prop53
 90
        2
102
RTVSPost2010PropOp53
 70
     1
102
RTVSPost2010Prop54
  1
strokes_ogs.tif
102
RTVSPost2010PropOp54
 70
     1
102
RTVSPost2010Prop55
280
     0
102
RTVSPost2010PropOp55
 70
     1
102
RTVSPost2010Prop56
140
1.0
102
RTVSPost2010PropOp56
 70
     1
102
RTVSPost2010Prop57
140
1.0
102
RTVSPost2010PropOp57
 70
     1
  0
XRECORD
  5
274
102
{ACAD_REACTORS
330
273
102
}
330
273
100
AcDbXrecord
280
     1
102
RTVSPost2010Prop28
280
     0
102
RTVSPost2010PropOp28
 70
     1
102
RTVSPost2010Prop29
280
     1
102
RTVSPost2010PropOp29
 70
     1
102
RTVSPost2010Prop30
280
     1
102
RTVSPost2010PropOp30
 70
     1
102
RTVSPost2010Prop31
280
     0
102
RTVSPost2010PropOp31
 70
     1
102
RTVSPost2010Prop32
280
     0
102
RTVSPost2010PropOp32
 70
     1
102
RTVSPost2010Prop33
280
     0
102
RTVSPost2010PropOp33
 70
     1
102
RTVSPost2010Prop34
280
     0
102
RTVSPost2010PropOp34
 70
     1
102
RTVSPost2010Prop35
280
     0
102
RTVSPost2010PropOp35
 70
     1
102
RTVSPost2010Prop36
280
     0
102
RTVSPost2010PropOp36
 70
     1
102
RTVSPost2010Prop37
 90
       50
102
RTVSPost2010PropOp37
 70
     1
102
RTVSPost2010Prop38
140
0.0
102
RTVSPost2010PropOp38
 70
     1
102
RTVSPost2010Prop39
140
1.0
102
RTVSPost2010PropOp39
 70
     1
102
RTVSPost2010Prop40
 90
        0
102
RTVSPost2010PropOp40
 70
     1
102
RTVSPost2010Prop41ColorIndex
 90
       18
102
RTVSPost2010Prop41ColorRGB
 90
        0
102
RTVSPost2010PropOp41
 70
     1
102
RTVSPost2010Prop42
 90
       50
102
RTVSPost2010PropOp42
 70
     1
102
RTVSPost2010Prop43
 90
        3
102
RTVSPost2010PropOp43
 70
     1
102
RTVSPost2010Prop44ColorIndex
 90
        5
102
RTVSPost2010Prop44ColorRGB
 90
      255
102
RTVSPost2010PropOp44
 70
     1
102
RTVSPost2010Prop45
280
     0
102
RTVSPost2010PropOp45
 70
     1
102
RTVSPost2010Prop46
 90
       50
102
RTVSPost2010PropOp46
 70
     1
102
RTVSPost2010Prop47
 90
       50
102
RTVSPost2010PropOp47
 70
     1
102
RTVSPost2010Prop48
 90
       50
102
RTVSPost2010PropOp48
 70
     1
102
RTVSPost2010Prop49
280
     0
102
RTVSPost2010PropOp49
 70
     1
102
RTVSPost2010Prop50
 90
       50
102
RTVSPost2010PropOp50
 70
     1
102
RTVSPost2010Prop51ColorIndex
 90
      256
102
RTVSPost2010Prop51ColorRGB
 90
-16777216
102
RTVSPost2010PropOp51
 70
     0
102
RTVSPost2010Prop52
140
1.0
102
RTVSPost2010PropOp52
 70
     0
102
RTVSPost2010Prop53
 90
        2
102
RTVSPost2010PropOp53
 70
     1
102
RTVSPost2010Prop54
  1
strokes_ogs.tif
102
RTVSPost2010PropOp54
 70
     1
102
RTVSPost2010Prop55
280
     0
102
RTVSPost2010PropOp55
 70
     1
102
RTVSPost2010Prop56
140
1.0
102
RTVSPost2010PropOp56
 70
     1
102
RTVSPost2010Prop57
140
1.0
102
RTVSPost2010PropOp57
 70
     1
  0
XRECORD
  5
27C
102
{ACAD_REACTORS
330
27B
102
}
330
27B
100
AcDbXrecord
280
     1
102
RTVSPost2010Prop28
280
     0
102
RTVSPost2010PropOp28
 70
     1
102
RTVSPost2010Prop29
280
     1
102
RTVSPost2010PropOp29
 70
     1
102
RTVSPost2010Prop30
280
     1
102
RTVSPost2010PropOp30
 70
     1
102
RTVSPost2010Prop31
280
     0
102
RTVSPost2010PropOp31
 70
     1
102
RTVSPost2010Prop32
280
     0
102
RTVSPost2010PropOp32
 70
     1
102
RTVSPost2010Prop33
280
     0
102
RTVSPost2010PropOp33
 70
     1
102
RTVSPost2010Prop34
280
     0
102
RTVSPost2010PropOp34
 70
     1
102
RTVSPost2010Prop35
280
     0
102
RTVSPost2010PropOp35
 70
     1
102
RTVSPost2010Prop36
280
     0
102
RTVSPost2010PropOp36
 70
     1
102
RTVSPost2010Prop37
 90
       50
102
RTVSPost2010PropOp37
 70
     1
102
RTVSPost2010Prop38
140
0.0
102
RTVSPost2010PropOp38
 70
     1
102
RTVSPost2010Prop39
140
1.0
102
RTVSPost2010PropOp39
 70
     1
102
RTVSPost2010Prop40
 90
        0
102
RTVSPost2010PropOp40
 70
     1
102
RTVSPost2010Prop41ColorIndex
 90
       18
102
RTVSPost2010Prop41ColorRGB
 90
        0
102
RTVSPost2010PropOp41
 70
     1
102
RTVSPost2010Prop42
 90
       50
102
RTVSPost2010PropOp42
 70
     1
102
RTVSPost2010Prop43
 90
        3
102
RTVSPost2010PropOp43
 70
     1
102
RTVSPost2010Prop44ColorIndex
 90
        5
102
RTVSPost2010Prop44ColorRGB
 90
      255
102
RTVSPost2010PropOp44
 70
     1
102
RTVSPost2010Prop45
280
     0
102
RTVSPost2010PropOp45
 70
     1
102
RTVSPost2010Prop46
 90
       50
102
RTVSPost2010PropOp46
 70
     1
102
RTVSPost2010Prop47
 90
       50
102
RTVSPost2010PropOp47
 70
     1
102
RTVSPost2010Prop48
 90
       50
102
RTVSPost2010PropOp48
 70
     1
102
RTVSPost2010Prop49
280
     0
102
RTVSPost2010PropOp49
 70
     1
102
RTVSPost2010Prop50
 90
       50
102
RTVSPost2010PropOp50
 70
     1
102
RTVSPost2010Prop51ColorIndex
 90
      256
102
RTVSPost2010Prop51ColorRGB
 90
-16777216
102
RTVSPost2010PropOp51
 70
     0
102
RTVSPost2010Prop52
140
1.0
102
RTVSPost2010PropOp52
 70
     0
102
RTVSPost2010Prop53
 90
        2
102
RTVSPost2010PropOp53
 70
     1
102
RTVSPost2010Prop54
  1
strokes_ogs.tif
102
RTVSPost2010PropOp54
 70
     1
102
RTVSPost2010Prop55
280
     0
102
RTVSPost2010PropOp55
 70
     1
102
RTVSPost2010Prop56
140
1.0
102
RTVSPost2010PropOp56
 70
     1
102
RTVSPost2010Prop57
140
1.0
102
RTVSPost2010PropOp57
 70
     1
  0
XRECORD
  5
26E
102
{ACAD_REACTORS
330
26D
102
}
330
26D
100
AcDbXrecord
280
     1
102
RTVSPost2010Prop28
280
     0
102
RTVSPost2010PropOp28
 70
     1
102
RTVSPost2010Prop29
280
     1
102
RTVSPost2010PropOp29
 70
     1
102
RTVSPost2010Prop30
280
     1
102
RTVSPost2010PropOp30
 70
     1
102
RTVSPost2010Prop31
280
     0
102
RTVSPost2010PropOp31
 70
     1
102
RTVSPost2010Prop32
280
     0
102
RTVSPost2010PropOp32
 70
     1
102
RTVSPost2010Prop33
280
     0
102
RTVSPost2010PropOp33
 70
     1
102
RTVSPost2010Prop34
280
     0
102
RTVSPost2010PropOp34
 70
     1
102
RTVSPost2010Prop35
280
     0
102
RTVSPost2010PropOp35
 70
     1
102
RTVSPost2010Prop36
280
     0
102
RTVSPost2010PropOp36
 70
     1
102
RTVSPost2010Prop37
 90
       50
102
RTVSPost2010PropOp37
 70
     1
102
RTVSPost2010Prop38
140
0.0
102
RTVSPost2010PropOp38
 70
     1
102
RTVSPost2010Prop39
140
1.0
102
RTVSPost2010PropOp39
 70
     1
102
RTVSPost2010Prop40
 90
        0
102
RTVSPost2010PropOp40
 70
     1
102
RTVSPost2010Prop41ColorIndex
 90
       18
102
RTVSPost2010Prop41ColorRGB
 90
        0
102
RTVSPost2010PropOp41
 70
     1
102
RTVSPost2010Prop42
 90
       50
102
RTVSPost2010PropOp42
 70
     1
102
RTVSPost2010Prop43
 90
        3
102
RTVSPost2010PropOp43
 70
     1
102
RTVSPost2010Prop44ColorIndex
 90
        5
102
RTVSPost2010Prop44ColorRGB
 90
      255
102
RTVSPost2010PropOp44
 70
     1
102
RTVSPost2010Prop45
280
     0
102
RTVSPost2010PropOp45
 70
     1
102
RTVSPost2010Prop46
 90
       50
102
RTVSPost2010PropOp46
 70
     1
102
RTVSPost2010Prop47
 90
       50
102
RTVSPost2010PropOp47
 70
     1
102
RTVSPost2010Prop48
 90
       50
102
RTVSPost2010PropOp48
 70
     1
102
RTVSPost2010Prop49
280
     0
102
RTVSPost2010PropOp49
 70
     1
102
RTVSPost2010Prop50
 90
       50
102
RTVSPost2010PropOp50
 70
     1
102
RTVSPost2010Prop51ColorIndex
 90
      256
102
RTVSPost2010Prop51ColorRGB
 90
-16777216
102
RTVSPost2010PropOp51
 70
     0
102
RTVSPost2010Prop52
140
1.0
102
RTVSPost2010PropOp52
 70
     0
102
RTVSPost2010Prop53
 90
        2
102
RTVSPost2010PropOp53
 70
     1
102
RTVSPost2010Prop54
  1
strokes_ogs.tif
102
RTVSPost2010PropOp54
 70
     1
102
RTVSPost2010Prop55
280
     0
102
RTVSPost2010PropOp55
 70
     1
102
RTVSPost2010Prop56
140
1.0
102
RTVSPost2010PropOp56
 70
     1
102
RTVSPost2010Prop57
140
1.0
102
RTVSPost2010PropOp57
 70
     1
  0
XRECORD
  5
272
102
{ACAD_REACTORS
330
271
102
}
330
271
100
AcDbXrecord
280
     1
102
RTVSPost2010Prop28
280
     0
102
RTVSPost2010PropOp28
 70
     1
102
RTVSPost2010Prop29
280
     1
102
RTVSPost2010PropOp29
 70
     1
102
RTVSPost2010Prop30
280
     1
102
RTVSPost2010PropOp30
 70
     1
102
RTVSPost2010Prop31
280
     0
102
RTVSPost2010PropOp31
 70
     1
102
RTVSPost2010Prop32
280
     0
102
RTVSPost2010PropOp32
 70
     1
102
RTVSPost2010Prop33
280
     0
102
RTVSPost2010PropOp33
 70
     1
102
RTVSPost2010Prop34
280
     0
102
RTVSPost2010PropOp34
 70
     1
102
RTVSPost2010Prop35
280
     0
102
RTVSPost2010PropOp35
 70
     1
102
RTVSPost2010Prop36
280
     0
102
RTVSPost2010PropOp36
 70
     1
102
RTVSPost2010Prop37
 90
       50
102
RTVSPost2010PropOp37
 70
     1
102
RTVSPost2010Prop38
140
0.0
102
RTVSPost2010PropOp38
 70
     1
102
RTVSPost2010Prop39
140
1.0
102
RTVSPost2010PropOp39
 70
     1
102
RTVSPost2010Prop40
 90
        0
102
RTVSPost2010PropOp40
 70
     1
102
RTVSPost2010Prop41ColorIndex
 90
       18
102
RTVSPost2010Prop41ColorRGB
 90
        0
102
RTVSPost2010PropOp41
 70
     1
102
RTVSPost2010Prop42
 90
       50
102
RTVSPost2010PropOp42
 70
     1
102
RTVSPost2010Prop43
 90
        3
102
RTVSPost2010PropOp43
 70
     1
102
RTVSPost2010Prop44ColorIndex
 90
        5
102
RTVSPost2010Prop44ColorRGB
 90
      255
102
RTVSPost2010PropOp44
 70
     1
102
RTVSPost2010Prop45
280
     0
102
RTVSPost2010PropOp45
 70
     1
102
RTVSPost2010Prop46
 90
       50
102
RTVSPost2010PropOp46
 70
     1
102
RTVSPost2010Prop47
 90
       50
102
RTVSPost2010PropOp47
 70
     1
102
RTVSPost2010Prop48
 90
       50
102
RTVSPost2010PropOp48
 70
     1
102
RTVSPost2010Prop49
280
     0
102
RTVSPost2010PropOp49
 70
     1
102
RTVSPost2010Prop50
 90
       50
102
RTVSPost2010PropOp50
 70
     1
102
RTVSPost2010Prop51ColorIndex
 90
      256
102
RTVSPost2010Prop51ColorRGB
 90
-16777216
102
RTVSPost2010PropOp51
 70
     0
102
RTVSPost2010Prop52
140
1.0
102
RTVSPost2010PropOp52
 70
     0
102
RTVSPost2010Prop53
 90
        2
102
RTVSPost2010PropOp53
 70
     1
102
RTVSPost2010Prop54
  1
strokes_ogs.tif
102
RTVSPost2010PropOp54
 70
     1
102
RTVSPost2010Prop55
280
     0
102
RTVSPost2010PropOp55
 70
     1
102
RTVSPost2010Prop56
140
1.0
102
RTVSPost2010PropOp56
 70
     1
102
RTVSPost2010Prop57
140
1.0
102
RTVSPost2010PropOp57
 70
     1
  0
XRECORD
  5
28C
102
{ACAD_REACTORS
330
28B
102
}
330
28B
100
AcDbXrecord
280
     1
102
RTVSPost2010Prop28
280
     0
102
RTVSPost2010PropOp28
 70
     0
102
RTVSPost2010Prop29
280
     1
102
RTVSPost2010PropOp29
 70
     0
102
RTVSPost2010Prop30
280
     1
102
RTVSPost2010PropOp30
 70
     0
102
RTVSPost2010Prop31
280
     0
102
RTVSPost2010PropOp31
 70
     0
102
RTVSPost2010Prop32
280
     0
102
RTVSPost2010PropOp32
 70
     0
102
RTVSPost2010Prop33
280
     0
102
RTVSPost2010PropOp33
 70
     0
102
RTVSPost2010Prop34
280
     0
102
RTVSPost2010PropOp34
 70
     0
102
RTVSPost2010Prop35
280
     0
102
RTVSPost2010PropOp35
 70
     0
102
RTVSPost2010Prop36
280
     0
102
RTVSPost2010PropOp36
 70
     0
102
RTVSPost2010Prop37
 90
       50
102
RTVSPost2010PropOp37
 70
     0
102
RTVSPost2010Prop38
140
0.0
102
RTVSPost2010PropOp38
 70
     0
102
RTVSPost2010Prop39
140
1.0
102
RTVSPost2010PropOp39
 70
     0
102
RTVSPost2010Prop40
 90
        0
102
RTVSPost2010PropOp40
 70
     0
102
RTVSPost2010Prop41ColorIndex
 90
       18
102
RTVSPost2010Prop41ColorRGB
 90
        0
102
RTVSPost2010PropOp41
 70
     0
102
RTVSPost2010Prop42
 90
       50
102
RTVSPost2010PropOp42
 70
     0
102
RTVSPost2010Prop43
 90
        3
102
RTVSPost2010PropOp43
 70
     0
102
RTVSPost2010Prop44ColorIndex
 90
        5
102
RTVSPost2010Prop44ColorRGB
 90
      255
102
RTVSPost2010PropOp44
 70
     0
102
RTVSPost2010Prop45
280
     0
102
RTVSPost2010PropOp45
 70
     0
102
RTVSPost2010Prop46
 90
       50
102
RTVSPost2010PropOp46
 70
     0
102
RTVSPost2010Prop47
 90
       50
102
RTVSPost2010PropOp47
 70
     0
102
RTVSPost2010Prop48
 90
       50
102
RTVSPost2010PropOp48
 70
     0
102
RTVSPost2010Prop49
280
     0
102
RTVSPost2010PropOp49
 70
     0
102
RTVSPost2010Prop50
 90
       50
102
RTVSPost2010PropOp50
 70
     0
102
RTVSPost2010Prop51ColorIndex
 90
      256
102
RTVSPost2010Prop51ColorRGB
 90
-16777216
102
RTVSPost2010PropOp51
 70
     0
102
RTVSPost2010Prop52
140
1.0
102
RTVSPost2010PropOp52
 70
     0
102
RTVSPost2010Prop53
 90
        2
102
RTVSPost2010PropOp53
 70
     0
102
RTVSPost2010Prop54
  1
strokes_ogs.tif
102
RTVSPost2010PropOp54
 70
     0
102
RTVSPost2010Prop55
280
     0
102
RTVSPost2010PropOp55
 70
     0
102
RTVSPost2010Prop56
140
1.0
102
RTVSPost2010PropOp56
 70
     0
102
RTVSPost2010Prop57
140
1.0
102
RTVSPost2010PropOp57
 70
     0
  0
XRECORD
  5
27A
102
{ACAD_REACTORS
330
279
102
}
330
279
100
AcDbXrecord
280
     1
102
RTVSPost2010Prop28
280
     0
102
RTVSPost2010PropOp28
 70
     1
102
RTVSPost2010Prop29
280
     1
102
RTVSPost2010PropOp29
 70
     1
102
RTVSPost2010Prop30
280
     1
102
RTVSPost2010PropOp30
 70
     1
102
RTVSPost2010Prop31
280
     0
102
RTVSPost2010PropOp31
 70
     1
102
RTVSPost2010Prop32
280
     0
102
RTVSPost2010PropOp32
 70
     1
102
RTVSPost2010Prop33
280
     0
102
RTVSPost2010PropOp33
 70
     1
102
RTVSPost2010Prop34
280
     0
102
RTVSPost2010PropOp34
 70
     1
102
RTVSPost2010Prop35
280
     0
102
RTVSPost2010PropOp35
 70
     1
102
RTVSPost2010Prop36
280
     0
102
RTVSPost2010PropOp36
 70
     1
102
RTVSPost2010Prop37
 90
       50
102
RTVSPost2010PropOp37
 70
     1
102
RTVSPost2010Prop38
140
0.0
102
RTVSPost2010PropOp38
 70
     1
102
RTVSPost2010Prop39
140
1.0
102
RTVSPost2010PropOp39
 70
     1
102
RTVSPost2010Prop40
 90
        0
102
RTVSPost2010PropOp40
 70
     1
102
RTVSPost2010Prop41ColorIndex
 90
       18
102
RTVSPost2010Prop41ColorRGB
 90
        0
102
RTVSPost2010PropOp41
 70
     1
102
RTVSPost2010Prop42
 90
       50
102
RTVSPost2010PropOp42
 70
     1
102
RTVSPost2010Prop43
 90
        3
102
RTVSPost2010PropOp43
 70
     1
102
RTVSPost2010Prop44ColorIndex
 90
        5
102
RTVSPost2010Prop44ColorRGB
 90
      255
102
RTVSPost2010PropOp44
 70
     1
102
RTVSPost2010Prop45
280
     0
102
RTVSPost2010PropOp45
 70
     1
102
RTVSPost2010Prop46
 90
       50
102
RTVSPost2010PropOp46
 70
     1
102
RTVSPost2010Prop47
 90
       50
102
RTVSPost2010PropOp47
 70
     1
102
RTVSPost2010Prop48
 90
       50
102
RTVSPost2010PropOp48
 70
     1
102
RTVSPost2010Prop49
280
     0
102
RTVSPost2010PropOp49
 70
     1
102
RTVSPost2010Prop50
 90
       50
102
RTVSPost2010PropOp50
 70
     1
102
RTVSPost2010Prop51ColorIndex
 90
      256
102
RTVSPost2010Prop51ColorRGB
 90
-16777216
102
RTVSPost2010PropOp51
 70
     0
102
RTVSPost2010Prop52
140
1.0
102
RTVSPost2010PropOp52
 70
     0
102
RTVSPost2010Prop53
 90
        2
102
RTVSPost2010PropOp53
 70
     1
102
RTVSPost2010Prop54
  1
strokes_ogs.tif
102
RTVSPost2010PropOp54
 70
     1
102
RTVSPost2010Prop55
280
     0
102
RTVSPost2010PropOp55
 70
     1
102
RTVSPost2010Prop56
140
1.0
102
RTVSPost2010PropOp56
 70
     1
102
RTVSPost2010Prop57
140
1.0
102
RTVSPost2010PropOp57
 70
     1
  0
XRECORD
  5
25E
102
{ACAD_REACTORS
330
25D
102
}
330
25D
100
AcDbXrecord
280
     1
102
RTVSPost2010Prop28
280
     0
102
RTVSPost2010PropOp28
 70
     1
102
RTVSPost2010Prop29
280
     1
102
RTVSPost2010PropOp29
 70
     1
102
RTVSPost2010Prop30
280
     1
102
RTVSPost2010PropOp30
 70
     1
102
RTVSPost2010Prop31
280
     0
102
RTVSPost2010PropOp31
 70
     1
102
RTVSPost2010Prop32
280
     0
102
RTVSPost2010PropOp32
 70
     1
102
RTVSPost2010Prop33
280
     0
102
RTVSPost2010PropOp33
 70
     1
102
RTVSPost2010Prop34
280
     0
102
RTVSPost2010PropOp34
 70
     1
102
RTVSPost2010Prop35
280
     0
102
RTVSPost2010PropOp35
 70
     1
102
RTVSPost2010Prop36
280
     0
102
RTVSPost2010PropOp36
 70
     1
102
RTVSPost2010Prop37
 90
       50
102
RTVSPost2010PropOp37
 70
     1
102
RTVSPost2010Prop38
140
0.0
102
RTVSPost2010PropOp38
 70
     1
102
RTVSPost2010Prop39
140
1.0
102
RTVSPost2010PropOp39
 70
     1
102
RTVSPost2010Prop40
 90
        0
102
RTVSPost2010PropOp40
 70
     1
102
RTVSPost2010Prop41ColorIndex
 90
       18
102
RTVSPost2010Prop41ColorRGB
 90
        0
102
RTVSPost2010PropOp41
 70
     1
102
RTVSPost2010Prop42
 90
       50
102
RTVSPost2010PropOp42
 70
     1
102
RTVSPost2010Prop43
 90
        3
102
RTVSPost2010PropOp43
 70
     1
102
RTVSPost2010Prop44ColorIndex
 90
        5
102
RTVSPost2010Prop44ColorRGB
 90
      255
102
RTVSPost2010PropOp44
 70
     1
102
RTVSPost2010Prop45
280
     0
102
RTVSPost2010PropOp45
 70
     1
102
RTVSPost2010Prop46
 90
       50
102
RTVSPost2010PropOp46
 70
     1
102
RTVSPost2010Prop47
 90
       50
102
RTVSPost2010PropOp47
 70
     1
102
RTVSPost2010Prop48
 90
       50
102
RTVSPost2010PropOp48
 70
     1
102
RTVSPost2010Prop49
280
     0
102
RTVSPost2010PropOp49
 70
     1
102
RTVSPost2010Prop50
 90
       50
102
RTVSPost2010PropOp50
 70
     1
102
RTVSPost2010Prop51ColorIndex
 90
      256
102
RTVSPost2010Prop51ColorRGB
 90
-16777216
102
RTVSPost2010PropOp51
 70
     0
102
RTVSPost2010Prop52
140
1.0
102
RTVSPost2010PropOp52
 70
     0
102
RTVSPost2010Prop53
 90
        2
102
RTVSPost2010PropOp53
 70
     1
102
RTVSPost2010Prop54
  1
strokes_ogs.tif
102
RTVSPost2010PropOp54
 70
     1
102
RTVSPost2010Prop55
280
     0
102
RTVSPost2010PropOp55
 70
     1
102
RTVSPost2010Prop56
140
1.0
102
RTVSPost2010PropOp56
 70
     1
102
RTVSPost2010Prop57
140
1.0
102
RTVSPost2010PropOp57
 70
     1
  0
XRECORD
  5
260
102
{ACAD_REACTORS
330
25F
102
}
330
25F
100
AcDbXrecord
280
     1
102
RTVSPost2010Prop28
280
     0
102
RTVSPost2010PropOp28
 70
     1
102
RTVSPost2010Prop29
280
     1
102
RTVSPost2010PropOp29
 70
     1
102
RTVSPost2010Prop30
280
     1
102
RTVSPost2010PropOp30
 70
     1
102
RTVSPost2010Prop31
280
     0
102
RTVSPost2010PropOp31
 70
     1
102
RTVSPost2010Prop32
280
     0
102
RTVSPost2010PropOp32
 70
     1
102
RTVSPost2010Prop33
280
     0
102
RTVSPost2010PropOp33
 70
     1
102
RTVSPost2010Prop34
280
     0
102
RTVSPost2010PropOp34
 70
     1
102
RTVSPost2010Prop35
280
     0
102
RTVSPost2010PropOp35
 70
     1
102
RTVSPost2010Prop36
280
     0
102
RTVSPost2010PropOp36
 70
     1
102
RTVSPost2010Prop37
 90
       50
102
RTVSPost2010PropOp37
 70
     1
102
RTVSPost2010Prop38
140
0.0
102
RTVSPost2010PropOp38
 70
     1
102
RTVSPost2010Prop39
140
1.0
102
RTVSPost2010PropOp39
 70
     1
102
RTVSPost2010Prop40
 90
        0
102
RTVSPost2010PropOp40
 70
     1
102
RTVSPost2010Prop41ColorIndex
 90
       18
102
RTVSPost2010Prop41ColorRGB
 90
        0
102
RTVSPost2010PropOp41
 70
     1
102
RTVSPost2010Prop42
 90
       50
102
RTVSPost2010PropOp42
 70
     1
102
RTVSPost2010Prop43
 90
        3
102
RTVSPost2010PropOp43
 70
     1
102
RTVSPost2010Prop44ColorIndex
 90
        5
102
RTVSPost2010Prop44ColorRGB
 90
      255
102
RTVSPost2010PropOp44
 70
     1
102
RTVSPost2010Prop45
280
     0
102
RTVSPost2010PropOp45
 70
     1
102
RTVSPost2010Prop46
 90
       50
102
RTVSPost2010PropOp46
 70
     1
102
RTVSPost2010Prop47
 90
       50
102
RTVSPost2010PropOp47
 70
     1
102
RTVSPost2010Prop48
 90
       50
102
RTVSPost2010PropOp48
 70
     1
102
RTVSPost2010Prop49
280
     0
102
RTVSPost2010PropOp49
 70
     1
102
RTVSPost2010Prop50
 90
       50
102
RTVSPost2010PropOp50
 70
     1
102
RTVSPost2010Prop51ColorIndex
 90
      256
102
RTVSPost2010Prop51ColorRGB
 90
-16777216
102
RTVSPost2010PropOp51
 70
     0
102
RTVSPost2010Prop52
140
1.0
102
RTVSPost2010PropOp52
 70
     0
102
RTVSPost2010Prop53
 90
        2
102
RTVSPost2010PropOp53
 70
     1
102
RTVSPost2010Prop54
  1
strokes_ogs.tif
102
RTVSPost2010PropOp54
 70
     1
102
RTVSPost2010Prop55
280
     0
102
RTVSPost2010PropOp55
 70
     1
102
RTVSPost2010Prop56
140
1.0
102
RTVSPost2010PropOp56
 70
     1
102
RTVSPost2010Prop57
140
1.0
102
RTVSPost2010PropOp57
 70
     1
  0
XRECORD
  5
262
102
{ACAD_REACTORS
330
261
102
}
330
261
100
AcDbXrecord
280
     1
102
RTVSPost2010Prop28
280
     0
102
RTVSPost2010PropOp28
 70
     1
102
RTVSPost2010Prop29
280
     1
102
RTVSPost2010PropOp29
 70
     1
102
RTVSPost2010Prop30
280
     1
102
RTVSPost2010PropOp30
 70
     1
102
RTVSPost2010Prop31
280
     0
102
RTVSPost2010PropOp31
 70
     1
102
RTVSPost2010Prop32
280
     0
102
RTVSPost2010PropOp32
 70
     1
102
RTVSPost2010Prop33
280
     0
102
RTVSPost2010PropOp33
 70
     1
102
RTVSPost2010Prop34
280
     0
102
RTVSPost2010PropOp34
 70
     1
102
RTVSPost2010Prop35
280
     0
102
RTVSPost2010PropOp35
 70
     1
102
RTVSPost2010Prop36
280
     0
102
RTVSPost2010PropOp36
 70
     1
102
RTVSPost2010Prop37
 90
       50
102
RTVSPost2010PropOp37
 70
     1
102
RTVSPost2010Prop38
140
0.0
102
RTVSPost2010PropOp38
 70
     1
102
RTVSPost2010Prop39
140
1.0
102
RTVSPost2010PropOp39
 70
     1
102
RTVSPost2010Prop40
 90
        0
102
RTVSPost2010PropOp40
 70
     1
102
RTVSPost2010Prop41ColorIndex
 90
       18
102
RTVSPost2010Prop41ColorRGB
 90
        0
102
RTVSPost2010PropOp41
 70
     1
102
RTVSPost2010Prop42
 90
       50
102
RTVSPost2010PropOp42
 70
     1
102
RTVSPost2010Prop43
 90
        3
102
RTVSPost2010PropOp43
 70
     1
102
RTVSPost2010Prop44ColorIndex
 90
        5
102
RTVSPost2010Prop44ColorRGB
 90
      255
102
RTVSPost2010PropOp44
 70
     1
102
RTVSPost2010Prop45
280
     0
102
RTVSPost2010PropOp45
 70
     1
102
RTVSPost2010Prop46
 90
       50
102
RTVSPost2010PropOp46
 70
     1
102
RTVSPost2010Prop47
 90
       50
102
RTVSPost2010PropOp47
 70
     1
102
RTVSPost2010Prop48
 90
       50
102
RTVSPost2010PropOp48
 70
     1
102
RTVSPost2010Prop49
280
     0
102
RTVSPost2010PropOp49
 70
     1
102
RTVSPost2010Prop50
 90
       50
102
RTVSPost2010PropOp50
 70
     1
102
RTVSPost2010Prop51ColorIndex
 90
      256
102
RTVSPost2010Prop51ColorRGB
 90
-16777216
102
RTVSPost2010PropOp51
 70
     0
102
RTVSPost2010Prop52
140
1.0
102
RTVSPost2010PropOp52
 70
     0
102
RTVSPost2010Prop53
 90
        2
102
RTVSPost2010PropOp53
 70
     1
102
RTVSPost2010Prop54
  1
strokes_ogs.tif
102
RTVSPost2010PropOp54
 70
     1
102
RTVSPost2010Prop55
280
     0
102
RTVSPost2010PropOp55
 70
     1
102
RTVSPost2010Prop56
140
1.0
102
RTVSPost2010PropOp56
 70
     1
102
RTVSPost2010Prop57
140
1.0
102
RTVSPost2010PropOp57
 70
     1
  0
XRECORD
  5
264
102
{ACAD_REACTORS
330
263
102
}
330
263
100
AcDbXrecord
280
     1
102
RTVSPost2010Prop28
280
     0
102
RTVSPost2010PropOp28
 70
     1
102
RTVSPost2010Prop29
280
     1
102
RTVSPost2010PropOp29
 70
     1
102
RTVSPost2010Prop30
280
     1
102
RTVSPost2010PropOp30
 70
     1
102
RTVSPost2010Prop31
280
     0
102
RTVSPost2010PropOp31
 70
     1
102
RTVSPost2010Prop32
280
     0
102
RTVSPost2010PropOp32
 70
     1
102
RTVSPost2010Prop33
280
     0
102
RTVSPost2010PropOp33
 70
     1
102
RTVSPost2010Prop34
280
     0
102
RTVSPost2010PropOp34
 70
     1
102
RTVSPost2010Prop35
280
     0
102
RTVSPost2010PropOp35
 70
     1
102
RTVSPost2010Prop36
280
     0
102
RTVSPost2010PropOp36
 70
     1
102
RTVSPost2010Prop37
 90
       50
102
RTVSPost2010PropOp37
 70
     1
102
RTVSPost2010Prop38
140
0.0
102
RTVSPost2010PropOp38
 70
     1
102
RTVSPost2010Prop39
140
1.0
102
RTVSPost2010PropOp39
 70
     1
102
RTVSPost2010Prop40
 90
        0
102
RTVSPost2010PropOp40
 70
     1
102
RTVSPost2010Prop41ColorIndex
 90
       18
102
RTVSPost2010Prop41ColorRGB
 90
        0
102
RTVSPost2010PropOp41
 70
     1
102
RTVSPost2010Prop42
 90
       50
102
RTVSPost2010PropOp42
 70
     1
102
RTVSPost2010Prop43
 90
        3
102
RTVSPost2010PropOp43
 70
     1
102
RTVSPost2010Prop44ColorIndex
 90
        5
102
RTVSPost2010Prop44ColorRGB
 90
      255
102
RTVSPost2010PropOp44
 70
     1
102
RTVSPost2010Prop45
280
     0
102
RTVSPost2010PropOp45
 70
     1
102
RTVSPost2010Prop46
 90
       50
102
RTVSPost2010PropOp46
 70
     1
102
RTVSPost2010Prop47
 90
       50
102
RTVSPost2010PropOp47
 70
     1
102
RTVSPost2010Prop48
 90
       50
102
RTVSPost2010PropOp48
 70
     1
102
RTVSPost2010Prop49
280
     0
102
RTVSPost2010PropOp49
 70
     1
102
RTVSPost2010Prop50
 90
       50
102
RTVSPost2010PropOp50
 70
     1
102
RTVSPost2010Prop51ColorIndex
 90
      256
102
RTVSPost2010Prop51ColorRGB
 90
-16777216
102
RTVSPost2010PropOp51
 70
     0
102
RTVSPost2010Prop52
140
1.0
102
RTVSPost2010PropOp52
 70
     0
102
RTVSPost2010Prop53
 90
        2
102
RTVSPost2010PropOp53
 70
     1
102
RTVSPost2010Prop54
  1
strokes_ogs.tif
102
RTVSPost2010PropOp54
 70
     1
102
RTVSPost2010Prop55
280
     0
102
RTVSPost2010PropOp55
 70
     1
102
RTVSPost2010Prop56
140
1.0
102
RTVSPost2010PropOp56
 70
     1
102
RTVSPost2010Prop57
140
1.0
102
RTVSPost2010PropOp57
 70
     1
  0
XRECORD
  5
26C
102
{ACAD_REACTORS
330
26B
102
}
330
26B
100
AcDbXrecord
280
     1
102
RTVSPost2010Prop28
280
     0
102
RTVSPost2010PropOp28
 70
     1
102
RTVSPost2010Prop29
280
     1
102
RTVSPost2010PropOp29
 70
     1
102
RTVSPost2010Prop30
280
     1
102
RTVSPost2010PropOp30
 70
     1
102
RTVSPost2010Prop31
280
     0
102
RTVSPost2010PropOp31
 70
     1
102
RTVSPost2010Prop32
280
     0
102
RTVSPost2010PropOp32
 70
     1
102
RTVSPost2010Prop33
280
     0
102
RTVSPost2010PropOp33
 70
     1
102
RTVSPost2010Prop34
280
     0
102
RTVSPost2010PropOp34
 70
     1
102
RTVSPost2010Prop35
280
     0
102
RTVSPost2010PropOp35
 70
     1
102
RTVSPost2010Prop36
280
     0
102
RTVSPost2010PropOp36
 70
     1
102
RTVSPost2010Prop37
 90
       50
102
RTVSPost2010PropOp37
 70
     1
102
RTVSPost2010Prop38
140
0.0
102
RTVSPost2010PropOp38
 70
     1
102
RTVSPost2010Prop39
140
1.0
102
RTVSPost2010PropOp39
 70
     1
102
RTVSPost2010Prop40
 90
        0
102
RTVSPost2010PropOp40
 70
     1
102
RTVSPost2010Prop41ColorIndex
 90
       18
102
RTVSPost2010Prop41ColorRGB
 90
        0
102
RTVSPost2010PropOp41
 70
     1
102
RTVSPost2010Prop42
 90
       50
102
RTVSPost2010PropOp42
 70
     1
102
RTVSPost2010Prop43
 90
        3
102
RTVSPost2010PropOp43
 70
     1
102
RTVSPost2010Prop44ColorIndex
 90
        5
102
RTVSPost2010Prop44ColorRGB
 90
      255
102
RTVSPost2010PropOp44
 70
     1
102
RTVSPost2010Prop45
280
     0
102
RTVSPost2010PropOp45
 70
     1
102
RTVSPost2010Prop46
 90
       50
102
RTVSPost2010PropOp46
 70
     1
102
RTVSPost2010Prop47
 90
       50
102
RTVSPost2010PropOp47
 70
     1
102
RTVSPost2010Prop48
 90
       50
102
RTVSPost2010PropOp48
 70
     1
102
RTVSPost2010Prop49
280
     0
102
RTVSPost2010PropOp49
 70
     1
102
RTVSPost2010Prop50
 90
       50
102
RTVSPost2010PropOp50
 70
     1
102
RTVSPost2010Prop51ColorIndex
 90
      256
102
RTVSPost2010Prop51ColorRGB
 90
-16777216
102
RTVSPost2010PropOp51
 70
     0
102
RTVSPost2010Prop52
140
1.0
102
RTVSPost2010PropOp52
 70
     0
102
RTVSPost2010Prop53
 90
        2
102
RTVSPost2010PropOp53
 70
     1
102
RTVSPost2010Prop54
  1
strokes_ogs.tif
102
RTVSPost2010PropOp54
 70
     1
102
RTVSPost2010Prop55
280
     0
102
RTVSPost2010PropOp55
 70
     1
102
RTVSPost2010Prop56
140
1.0
102
RTVSPost2010PropOp56
 70
     1
102
RTVSPost2010Prop57
140
1.0
102
RTVSPost2010PropOp57
 70
     1
  0
XRECORD
  5
288
102
{ACAD_REACTORS
330
287
102
}
330
287
100
AcDbXrecord
280
     1
102
RTVSPost2010Prop28
280
     0
102
RTVSPost2010PropOp28
 70
     0
102
RTVSPost2010Prop29
280
     1
102
RTVSPost2010PropOp29
 70
     0
102
RTVSPost2010Prop30
280
     1
102
RTVSPost2010PropOp30
 70
     0
102
RTVSPost2010Prop31
280
     0
102
RTVSPost2010PropOp31
 70
     0
102
RTVSPost2010Prop32
280
     0
102
RTVSPost2010PropOp32
 70
     0
102
RTVSPost2010Prop33
280
     0
102
RTVSPost2010PropOp33
 70
     0
102
RTVSPost2010Prop34
280
     0
102
RTVSPost2010PropOp34
 70
     0
102
RTVSPost2010Prop35
280
     0
102
RTVSPost2010PropOp35
 70
     0
102
RTVSPost2010Prop36
280
     0
102
RTVSPost2010PropOp36
 70
     0
102
RTVSPost2010Prop37
 90
       50
102
RTVSPost2010PropOp37
 70
     0
102
RTVSPost2010Prop38
140
0.0
102
RTVSPost2010PropOp38
 70
     0
102
RTVSPost2010Prop39
140
1.0
102
RTVSPost2010PropOp39
 70
     0
102
RTVSPost2010Prop40
 90
        0
102
RTVSPost2010PropOp40
 70
     0
102
RTVSPost2010Prop41ColorIndex
 90
       18
102
RTVSPost2010Prop41ColorRGB
 90
        0
102
RTVSPost2010PropOp41
 70
     0
102
RTVSPost2010Prop42
 90
       50
102
RTVSPost2010PropOp42
 70
     0
102
RTVSPost2010Prop43
 90
        3
102
RTVSPost2010PropOp43
 70
     0
102
RTVSPost2010Prop44ColorIndex
 90
        5
102
RTVSPost2010Prop44ColorRGB
 90
      255
102
RTVSPost2010PropOp44
 70
     0
102
RTVSPost2010Prop45
280
     0
102
RTVSPost2010PropOp45
 70
     0
102
RTVSPost2010Prop46
 90
       50
102
RTVSPost2010PropOp46
 70
     0
102
RTVSPost2010Prop47
 90
       50
102
RTVSPost2010PropOp47
 70
     0
102
RTVSPost2010Prop48
 90
       50
102
RTVSPost2010PropOp48
 70
     0
102
RTVSPost2010Prop49
280
     0
102
RTVSPost2010PropOp49
 70
     0
102
RTVSPost2010Prop50
 90
       50
102
RTVSPost2010PropOp50
 70
     0
102
RTVSPost2010Prop51ColorIndex
 90
      256
102
RTVSPost2010Prop51ColorRGB
 90
-16777216
102
RTVSPost2010PropOp51
 70
     0
102
RTVSPost2010Prop52
140
1.0
102
RTVSPost2010PropOp52
 70
     0
102
RTVSPost2010Prop53
 90
        2
102
RTVSPost2010PropOp53
 70
     0
102
RTVSPost2010Prop54
  1
strokes_ogs.tif
102
RTVSPost2010PropOp54
 70
     0
102
RTVSPost2010Prop55
280
     0
102
RTVSPost2010PropOp55
 70
     0
102
RTVSPost2010Prop56
140
1.0
102
RTVSPost2010PropOp56
 70
     0
102
RTVSPost2010Prop57
140
1.0
102
RTVSPost2010PropOp57
 70
     0
  0
XRECORD
  5
278
102
{ACAD_REACTORS
330
277
102
}
330
277
100
AcDbXrecord
280
     1
102
RTVSPost2010Prop28
280
     0
102
RTVSPost2010PropOp28
 70
     1
102
RTVSPost2010Prop29
280
     1
102
RTVSPost2010PropOp29
 70
     1
102
RTVSPost2010Prop30
280
     1
102
RTVSPost2010PropOp30
 70
     1
102
RTVSPost2010Prop31
280
     0
102
RTVSPost2010PropOp31
 70
     1
102
RTVSPost2010Prop32
280
     0
102
RTVSPost2010PropOp32
 70
     1
102
RTVSPost2010Prop33
280
     0
102
RTVSPost2010PropOp33
 70
     1
102
RTVSPost2010Prop34
280
     0
102
RTVSPost2010PropOp34
 70
     1
102
RTVSPost2010Prop35
280
     0
102
RTVSPost2010PropOp35
 70
     1
102
RTVSPost2010Prop36
280
     0
102
RTVSPost2010PropOp36
 70
     1
102
RTVSPost2010Prop37
 90
       50
102
RTVSPost2010PropOp37
 70
     1
102
RTVSPost2010Prop38
140
0.0
102
RTVSPost2010PropOp38
 70
     1
102
RTVSPost2010Prop39
140
1.0
102
RTVSPost2010PropOp39
 70
     1
102
RTVSPost2010Prop40
 90
        0
102
RTVSPost2010PropOp40
 70
     1
102
RTVSPost2010Prop41ColorIndex
 90
       18
102
RTVSPost2010Prop41ColorRGB
 90
        0
102
RTVSPost2010PropOp41
 70
     1
102
RTVSPost2010Prop42
 90
       50
102
RTVSPost2010PropOp42
 70
     1
102
RTVSPost2010Prop43
 90
        3
102
RTVSPost2010PropOp43
 70
     1
102
RTVSPost2010Prop44ColorIndex
 90
        5
102
RTVSPost2010Prop44ColorRGB
 90
      255
102
RTVSPost2010PropOp44
 70
     1
102
RTVSPost2010Prop45
280
     0
102
RTVSPost2010PropOp45
 70
     1
102
RTVSPost2010Prop46
 90
       50
102
RTVSPost2010PropOp46
 70
     1
102
RTVSPost2010Prop47
 90
       50
102
RTVSPost2010PropOp47
 70
     1
102
RTVSPost2010Prop48
 90
       50
102
RTVSPost2010PropOp48
 70
     1
102
RTVSPost2010Prop49
280
     0
102
RTVSPost2010PropOp49
 70
     1
102
RTVSPost2010Prop50
 90
       50
102
RTVSPost2010PropOp50
 70
     1
102
RTVSPost2010Prop51ColorIndex
 90
      256
102
RTVSPost2010Prop51ColorRGB
 90
-16777216
102
RTVSPost2010PropOp51
 70
     0
102
RTVSPost2010Prop52
140
1.0
102
RTVSPost2010PropOp52
 70
     0
102
RTVSPost2010Prop53
 90
        2
102
RTVSPost2010PropOp53
 70
     1
102
RTVSPost2010Prop54
  1
strokes_ogs.tif
102
RTVSPost2010PropOp54
 70
     1
102
RTVSPost2010Prop55
280
     0
102
RTVSPost2010PropOp55
 70
     1
102
RTVSPost2010Prop56
140
1.0
102
RTVSPost2010PropOp56
 70
     1
102
RTVSPost2010Prop57
140
1.0
102
RTVSPost2010PropOp57
 70
     1
  0
XRECORD
  5
28A
102
{ACAD_REACTORS
330
289
102
}
330
289
100
AcDbXrecord
280
     1
102
RTVSPost2010Prop28
280
     0
102
RTVSPost2010PropOp28
 70
     0
102
RTVSPost2010Prop29
280
     1
102
RTVSPost2010PropOp29
 70
     0
102
RTVSPost2010Prop30
280
     1
102
RTVSPost2010PropOp30
 70
     0
102
RTVSPost2010Prop31
280
     0
102
RTVSPost2010PropOp31
 70
     0
102
RTVSPost2010Prop32
280
     0
102
RTVSPost2010PropOp32
 70
     0
102
RTVSPost2010Prop33
280
     0
102
RTVSPost2010PropOp33
 70
     0
102
RTVSPost2010Prop34
280
     0
102
RTVSPost2010PropOp34
 70
     0
102
RTVSPost2010Prop35
280
     0
102
RTVSPost2010PropOp35
 70
     0
102
RTVSPost2010Prop36
280
     0
102
RTVSPost2010PropOp36
 70
     0
102
RTVSPost2010Prop37
 90
       50
102
RTVSPost2010PropOp37
 70
     0
102
RTVSPost2010Prop38
140
0.0
102
RTVSPost2010PropOp38
 70
     0
102
RTVSPost2010Prop39
140
1.0
102
RTVSPost2010PropOp39
 70
     0
102
RTVSPost2010Prop40
 90
        0
102
RTVSPost2010PropOp40
 70
     0
102
RTVSPost2010Prop41ColorIndex
 90
       18
102
RTVSPost2010Prop41ColorRGB
 90
        0
102
RTVSPost2010PropOp41
 70
     0
102
RTVSPost2010Prop42
 90
       50
102
RTVSPost2010PropOp42
 70
     0
102
RTVSPost2010Prop43
 90
        3
102
RTVSPost2010PropOp43
 70
     0
102
RTVSPost2010Prop44ColorIndex
 90
        5
102
RTVSPost2010Prop44ColorRGB
 90
      255
102
RTVSPost2010PropOp44
 70
     0
102
RTVSPost2010Prop45
280
     0
102
RTVSPost2010PropOp45
 70
     0
102
RTVSPost2010Prop46
 90
       50
102
RTVSPost2010PropOp46
 70
     0
102
RTVSPost2010Prop47
 90
       50
102
RTVSPost2010PropOp47
 70
     0
102
RTVSPost2010Prop48
 90
       50
102
RTVSPost2010PropOp48
 70
     0
102
RTVSPost2010Prop49
280
     0
102
RTVSPost2010PropOp49
 70
     0
102
RTVSPost2010Prop50
 90
       50
102
RTVSPost2010PropOp50
 70
     0
102
RTVSPost2010Prop51ColorIndex
 90
      256
102
RTVSPost2010Prop51ColorRGB
 90
-16777216
102
RTVSPost2010PropOp51
 70
     0
102
RTVSPost2010Prop52
140
1.0
102
RTVSPost2010PropOp52
 70
     0
102
RTVSPost2010Prop53
 90
        2
102
RTVSPost2010PropOp53
 70
     0
102
RTVSPost2010Prop54
  1
strokes_ogs.tif
102
RTVSPost2010PropOp54
 70
     0
102
RTVSPost2010Prop55
280
     0
102
RTVSPost2010PropOp55
 70
     0
102
RTVSPost2010Prop56
140
1.0
102
RTVSPost2010PropOp56
 70
     0
102
RTVSPost2010Prop57
140
1.0
102
RTVSPost2010PropOp57
 70
     0
  0
XRECORD
  5
270
102
{ACAD_REACTORS
330
26F
102
}
330
26F
100
AcDbXrecord
280
     1
102
RTVSPost2010Prop28
280
     0
102
RTVSPost2010PropOp28
 70
     1
102
RTVSPost2010Prop29
280
     1
102
RTVSPost2010PropOp29
 70
     1
102
RTVSPost2010Prop30
280
     1
102
RTVSPost2010PropOp30
 70
     1
102
RTVSPost2010Prop31
280
     0
102
RTVSPost2010PropOp31
 70
     1
102
RTVSPost2010Prop32
280
     0
102
RTVSPost2010PropOp32
 70
     1
102
RTVSPost2010Prop33
280
     0
102
RTVSPost2010PropOp33
 70
     1
102
RTVSPost2010Prop34
280
     0
102
RTVSPost2010PropOp34
 70
     1
102
RTVSPost2010Prop35
280
     0
102
RTVSPost2010PropOp35
 70
     1
102
RTVSPost2010Prop36
280
     0
102
RTVSPost2010PropOp36
 70
     1
102
RTVSPost2010Prop37
 90
       50
102
RTVSPost2010PropOp37
 70
     1
102
RTVSPost2010Prop38
140
0.0
102
RTVSPost2010PropOp38
 70
     1
102
RTVSPost2010Prop39
140
1.0
102
RTVSPost2010PropOp39
 70
     1
102
RTVSPost2010Prop40
 90
        0
102
RTVSPost2010PropOp40
 70
     1
102
RTVSPost2010Prop41ColorIndex
 90
       18
102
RTVSPost2010Prop41ColorRGB
 90
        0
102
RTVSPost2010PropOp41
 70
     1
102
RTVSPost2010Prop42
 90
       50
102
RTVSPost2010PropOp42
 70
     1
102
RTVSPost2010Prop43
 90
        3
102
RTVSPost2010PropOp43
 70
     1
102
RTVSPost2010Prop44ColorIndex
 90
        5
102
RTVSPost2010Prop44ColorRGB
 90
      255
102
RTVSPost2010PropOp44
 70
     1
102
RTVSPost2010Prop45
280
     0
102
RTVSPost2010PropOp45
 70
     1
102
RTVSPost2010Prop46
 90
       50
102
RTVSPost2010PropOp46
 70
     1
102
RTVSPost2010Prop47
 90
       50
102
RTVSPost2010PropOp47
 70
     1
102
RTVSPost2010Prop48
 90
       50
102
RTVSPost2010PropOp48
 70
     1
102
RTVSPost2010Prop49
280
     0
102
RTVSPost2010PropOp49
 70
     1
102
RTVSPost2010Prop50
 90
       50
102
RTVSPost2010PropOp50
 70
     1
102
RTVSPost2010Prop51ColorIndex
 90
      256
102
RTVSPost2010Prop51ColorRGB
 90
-16777216
102
RTVSPost2010PropOp51
 70
     0
102
RTVSPost2010Prop52
140
1.0
102
RTVSPost2010PropOp52
 70
     0
102
RTVSPost2010Prop53
 90
        2
102
RTVSPost2010PropOp53
 70
     1
102
RTVSPost2010Prop54
  1
strokes_ogs.tif
102
RTVSPost2010PropOp54
 70
     1
102
RTVSPost2010Prop55
280
     0
102
RTVSPost2010PropOp55
 70
     1
102
RTVSPost2010Prop56
140
1.0
102
RTVSPost2010PropOp56
 70
     1
102
RTVSPost2010Prop57
140
1.0
102
RTVSPost2010PropOp57
 70
     1
  0
XRECORD
  5
286
102
{ACAD_REACTORS
330
285
102
}
330
285
100
AcDbXrecord
280
     1
102
RTVSPost2010Prop28
280
     0
102
RTVSPost2010PropOp28
 70
     1
102
RTVSPost2010Prop29
280
     1
102
RTVSPost2010PropOp29
 70
     1
102
RTVSPost2010Prop30
280
     1
102
RTVSPost2010PropOp30
 70
     1
102
RTVSPost2010Prop31
280
     0
102
RTVSPost2010PropOp31
 70
     1
102
RTVSPost2010Prop32
280
     0
102
RTVSPost2010PropOp32
 70
     1
102
RTVSPost2010Prop33
280
     0
102
RTVSPost2010PropOp33
 70
     1
102
RTVSPost2010Prop34
280
     0
102
RTVSPost2010PropOp34
 70
     1
102
RTVSPost2010Prop35
280
     0
102
RTVSPost2010PropOp35
 70
     1
102
RTVSPost2010Prop36
280
     0
102
RTVSPost2010PropOp36
 70
     1
102
RTVSPost2010Prop37
 90
       50
102
RTVSPost2010PropOp37
 70
     1
102
RTVSPost2010Prop38
140
0.0
102
RTVSPost2010PropOp38
 70
     1
102
RTVSPost2010Prop39
140
1.0
102
RTVSPost2010PropOp39
 70
     1
102
RTVSPost2010Prop40
 90
        0
102
RTVSPost2010PropOp40
 70
     1
102
RTVSPost2010Prop41ColorIndex
 90
       18
102
RTVSPost2010Prop41ColorRGB
 90
        0
102
RTVSPost2010PropOp41
 70
     1
102
RTVSPost2010Prop42
 90
       50
102
RTVSPost2010PropOp42
 70
     1
102
RTVSPost2010Prop43
 90
        3
102
RTVSPost2010PropOp43
 70
     1
102
RTVSPost2010Prop44ColorIndex
 90
        5
102
RTVSPost2010Prop44ColorRGB
 90
      255
102
RTVSPost2010PropOp44
 70
     1
102
RTVSPost2010Prop45
280
     0
102
RTVSPost2010PropOp45
 70
     1
102
RTVSPost2010Prop46
 90
       50
102
RTVSPost2010PropOp46
 70
     1
102
RTVSPost2010Prop47
 90
       50
102
RTVSPost2010PropOp47
 70
     1
102
RTVSPost2010Prop48
 90
       50
102
RTVSPost2010PropOp48
 70
     1
102
RTVSPost2010Prop49
280
     0
102
RTVSPost2010PropOp49
 70
     1
102
RTVSPost2010Prop50
 90
       50
102
RTVSPost2010PropOp50
 70
     1
102
RTVSPost2010Prop51ColorIndex
 90
      256
102
RTVSPost2010Prop51ColorRGB
 90
-16777216
102
RTVSPost2010PropOp51
 70
     0
102
RTVSPost2010Prop52
140
1.0
102
RTVSPost2010PropOp52
 70
     0
102
RTVSPost2010Prop53
 90
        2
102
RTVSPost2010PropOp53
 70
     1
102
RTVSPost2010Prop54
  1
strokes_ogs.tif
102
RTVSPost2010PropOp54
 70
     1
102
RTVSPost2010Prop55
280
     0
102
RTVSPost2010PropOp55
 70
     1
102
RTVSPost2010Prop56
140
1.0
102
RTVSPost2010PropOp56
 70
     1
102
RTVSPost2010Prop57
140
1.0
102
RTVSPost2010PropOp57
 70
     1
  0
XRECORD
  5
284
102
{ACAD_REACTORS
330
283
102
}
330
283
100
AcDbXrecord
280
     1
102
RTVSPost2010Prop28
280
     0
102
RTVSPost2010PropOp28
 70
     1
102
RTVSPost2010Prop29
280
     1
102
RTVSPost2010PropOp29
 70
     1
102
RTVSPost2010Prop30
280
     1
102
RTVSPost2010PropOp30
 70
     1
102
RTVSPost2010Prop31
280
     0
102
RTVSPost2010PropOp31
 70
     1
102
RTVSPost2010Prop32
280
     0
102
RTVSPost2010PropOp32
 70
     1
102
RTVSPost2010Prop33
280
     0
102
RTVSPost2010PropOp33
 70
     1
102
RTVSPost2010Prop34
280
     0
102
RTVSPost2010PropOp34
 70
     1
102
RTVSPost2010Prop35
280
     0
102
RTVSPost2010PropOp35
 70
     1
102
RTVSPost2010Prop36
280
     0
102
RTVSPost2010PropOp36
 70
     1
102
RTVSPost2010Prop37
 90
       50
102
RTVSPost2010PropOp37
 70
     1
102
RTVSPost2010Prop38
140
0.0
102
RTVSPost2010PropOp38
 70
     1
102
RTVSPost2010Prop39
140
1.0
102
RTVSPost2010PropOp39
 70
     1
102
RTVSPost2010Prop40
 90
        0
102
RTVSPost2010PropOp40
 70
     1
102
RTVSPost2010Prop41ColorIndex
 90
       18
102
RTVSPost2010Prop41ColorRGB
 90
        0
102
RTVSPost2010PropOp41
 70
     1
102
RTVSPost2010Prop42
 90
       50
102
RTVSPost2010PropOp42
 70
     1
102
RTVSPost2010Prop43
 90
        3
102
RTVSPost2010PropOp43
 70
     1
102
RTVSPost2010Prop44ColorIndex
 90
        5
102
RTVSPost2010Prop44ColorRGB
 90
      255
102
RTVSPost2010PropOp44
 70
     1
102
RTVSPost2010Prop45
280
     0
102
RTVSPost2010PropOp45
 70
     1
102
RTVSPost2010Prop46
 90
       50
102
RTVSPost2010PropOp46
 70
     1
102
RTVSPost2010Prop47
 90
       50
102
RTVSPost2010PropOp47
 70
     1
102
RTVSPost2010Prop48
 90
       50
102
RTVSPost2010PropOp48
 70
     1
102
RTVSPost2010Prop49
280
     0
102
RTVSPost2010PropOp49
 70
     1
102
RTVSPost2010Prop50
 90
       50
102
RTVSPost2010PropOp50
 70
     1
102
RTVSPost2010Prop51ColorIndex
 90
      256
102
RTVSPost2010Prop51ColorRGB
 90
-16777216
102
RTVSPost2010PropOp51
 70
     0
102
RTVSPost2010Prop52
140
1.0
102
RTVSPost2010PropOp52
 70
     0
102
RTVSPost2010Prop53
 90
        2
102
RTVSPost2010PropOp53
 70
     1
102
RTVSPost2010Prop54
  1
strokes_ogs.tif
102
RTVSPost2010PropOp54
 70
     1
102
RTVSPost2010Prop55
280
     0
102
RTVSPost2010PropOp55
 70
     1
102
RTVSPost2010Prop56
140
1.0
102
RTVSPost2010PropOp56
 70
     1
102
RTVSPost2010Prop57
140
1.0
102
RTVSPost2010PropOp57
 70
     1
  0
XRECORD
  5
27E
102
{ACAD_REACTORS
330
27D
102
}
330
27D
100
AcDbXrecord
280
     1
102
RTVSPost2010Prop28
280
     0
102
RTVSPost2010PropOp28
 70
     1
102
RTVSPost2010Prop29
280
     1
102
RTVSPost2010PropOp29
 70
     1
102
RTVSPost2010Prop30
280
     1
102
RTVSPost2010PropOp30
 70
     1
102
RTVSPost2010Prop31
280
     0
102
RTVSPost2010PropOp31
 70
     1
102
RTVSPost2010Prop32
280
     0
102
RTVSPost2010PropOp32
 70
     1
102
RTVSPost2010Prop33
280
     0
102
RTVSPost2010PropOp33
 70
     1
102
RTVSPost2010Prop34
280
     0
102
RTVSPost2010PropOp34
 70
     1
102
RTVSPost2010Prop35
280
     0
102
RTVSPost2010PropOp35
 70
     1
102
RTVSPost2010Prop36
280
     0
102
RTVSPost2010PropOp36
 70
     1
102
RTVSPost2010Prop37
 90
       50
102
RTVSPost2010PropOp37
 70
     1
102
RTVSPost2010Prop38
140
0.0
102
RTVSPost2010PropOp38
 70
     1
102
RTVSPost2010Prop39
140
1.0
102
RTVSPost2010PropOp39
 70
     1
102
RTVSPost2010Prop40
 90
        0
102
RTVSPost2010PropOp40
 70
     1
102
RTVSPost2010Prop41ColorIndex
 90
       18
102
RTVSPost2010Prop41ColorRGB
 90
        0
102
RTVSPost2010PropOp41
 70
     1
102
RTVSPost2010Prop42
 90
       50
102
RTVSPost2010PropOp42
 70
     1
102
RTVSPost2010Prop43
 90
        3
102
RTVSPost2010PropOp43
 70
     1
102
RTVSPost2010Prop44ColorIndex
 90
        5
102
RTVSPost2010Prop44ColorRGB
 90
      255
102
RTVSPost2010PropOp44
 70
     1
102
RTVSPost2010Prop45
280
     0
102
RTVSPost2010PropOp45
 70
     1
102
RTVSPost2010Prop46
 90
       50
102
RTVSPost2010PropOp46
 70
     1
102
RTVSPost2010Prop47
 90
       50
102
RTVSPost2010PropOp47
 70
     1
102
RTVSPost2010Prop48
 90
       50
102
RTVSPost2010PropOp48
 70
     1
102
RTVSPost2010Prop49
280
     0
102
RTVSPost2010PropOp49
 70
     1
102
RTVSPost2010Prop50
 90
       50
102
RTVSPost2010PropOp50
 70
     1
102
RTVSPost2010Prop51ColorIndex
 90
      256
102
RTVSPost2010Prop51ColorRGB
 90
-16777216
102
RTVSPost2010PropOp51
 70
     0
102
RTVSPost2010Prop52
140
1.0
102
RTVSPost2010PropOp52
 70
     0
102
RTVSPost2010Prop53
 90
        2
102
RTVSPost2010PropOp53
 70
     1
102
RTVSPost2010Prop54
  1
strokes_ogs.tif
102
RTVSPost2010PropOp54
 70
     1
102
RTVSPost2010Prop55
280
     0
102
RTVSPost2010PropOp55
 70
     1
102
RTVSPost2010Prop56
140
1.0
102
RTVSPost2010PropOp56
 70
     1
102
RTVSPost2010Prop57
140
1.0
102
RTVSPost2010PropOp57
 70
     1
  0
XRECORD
  5
280
102
{ACAD_REACTORS
330
27F
102
}
330
27F
100
AcDbXrecord
280
     1
102
RTVSPost2010Prop28
280
     0
102
RTVSPost2010PropOp28
 70
     1
102
RTVSPost2010Prop29
280
     1
102
RTVSPost2010PropOp29
 70
     1
102
RTVSPost2010Prop30
280
     1
102
RTVSPost2010PropOp30
 70
     1
102
RTVSPost2010Prop31
280
     0
102
RTVSPost2010PropOp31
 70
     1
102
RTVSPost2010Prop32
280
     0
102
RTVSPost2010PropOp32
 70
     1
102
RTVSPost2010Prop33
280
     0
102
RTVSPost2010PropOp33
 70
     1
102
RTVSPost2010Prop34
280
     0
102
RTVSPost2010PropOp34
 70
     1
102
RTVSPost2010Prop35
280
     0
102
RTVSPost2010PropOp35
 70
     1
102
RTVSPost2010Prop36
280
     0
102
RTVSPost2010PropOp36
 70
     1
102
RTVSPost2010Prop37
 90
       50
102
RTVSPost2010PropOp37
 70
     1
102
RTVSPost2010Prop38
140
0.0
102
RTVSPost2010PropOp38
 70
     1
102
RTVSPost2010Prop39
140
1.0
102
RTVSPost2010PropOp39
 70
     1
102
RTVSPost2010Prop40
 90
        0
102
RTVSPost2010PropOp40
 70
     1
102
RTVSPost2010Prop41ColorIndex
 90
       18
102
RTVSPost2010Prop41ColorRGB
 90
        0
102
RTVSPost2010PropOp41
 70
     1
102
RTVSPost2010Prop42
 90
       50
102
RTVSPost2010PropOp42
 70
     1
102
RTVSPost2010Prop43
 90
        3
102
RTVSPost2010PropOp43
 70
     1
102
RTVSPost2010Prop44ColorIndex
 90
        5
102
RTVSPost2010Prop44ColorRGB
 90
      255
102
RTVSPost2010PropOp44
 70
     1
102
RTVSPost2010Prop45
280
     0
102
RTVSPost2010PropOp45
 70
     1
102
RTVSPost2010Prop46
 90
       50
102
RTVSPost2010PropOp46
 70
     1
102
RTVSPost2010Prop47
 90
       50
102
RTVSPost2010PropOp47
 70
     1
102
RTVSPost2010Prop48
 90
       50
102
RTVSPost2010PropOp48
 70
     1
102
RTVSPost2010Prop49
280
     0
102
RTVSPost2010PropOp49
 70
     1
102
RTVSPost2010Prop50
 90
       50
102
RTVSPost2010PropOp50
 70
     1
102
RTVSPost2010Prop51ColorIndex
 90
      256
102
RTVSPost2010Prop51ColorRGB
 90
-16777216
102
RTVSPost2010PropOp51
 70
     0
102
RTVSPost2010Prop52
140
1.0
102
RTVSPost2010PropOp52
 70
     0
102
RTVSPost2010Prop53
 90
        2
102
RTVSPost2010PropOp53
 70
     1
102
RTVSPost2010Prop54
  1
strokes_ogs.tif
102
RTVSPost2010PropOp54
 70
     1
102
RTVSPost2010Prop55
280
     0
102
RTVSPost2010PropOp55
 70
     1
102
RTVSPost2010Prop56
140
1.0
102
RTVSPost2010PropOp56
 70
     1
102
RTVSPost2010Prop57
140
1.0
102
RTVSPost2010PropOp57
 70
     1
  0
XRECORD
  5
276
102
{ACAD_REACTORS
330
275
102
}
330
275
100
AcDbXrecord
280
     1
102
RTVSPost2010Prop28
280
     0
102
RTVSPost2010PropOp28
 70
     1
102
RTVSPost2010Prop29
280
     1
102
RTVSPost2010PropOp29
 70
     1
102
RTVSPost2010Prop30
280
     1
102
RTVSPost2010PropOp30
 70
     1
102
RTVSPost2010Prop31
280
     0
102
RTVSPost2010PropOp31
 70
     1
102
RTVSPost2010Prop32
280
     0
102
RTVSPost2010PropOp32
 70
     1
102
RTVSPost2010Prop33
280
     0
102
RTVSPost2010PropOp33
 70
     1
102
RTVSPost2010Prop34
280
     0
102
RTVSPost2010PropOp34
 70
     1
102
RTVSPost2010Prop35
280
     0
102
RTVSPost2010PropOp35
 70
     1
102
RTVSPost2010Prop36
280
     0
102
RTVSPost2010PropOp36
 70
     1
102
RTVSPost2010Prop37
 90
       50
102
RTVSPost2010PropOp37
 70
     1
102
RTVSPost2010Prop38
140
0.0
102
RTVSPost2010PropOp38
 70
     1
102
RTVSPost2010Prop39
140
1.0
102
RTVSPost2010PropOp39
 70
     1
102
RTVSPost2010Prop40
 90
        0
102
RTVSPost2010PropOp40
 70
     1
102
RTVSPost2010Prop41ColorIndex
 90
       18
102
RTVSPost2010Prop41ColorRGB
 90
        0
102
RTVSPost2010PropOp41
 70
     1
102
RTVSPost2010Prop42
 90
       50
102
RTVSPost2010PropOp42
 70
     1
102
RTVSPost2010Prop43
 90
        3
102
RTVSPost2010PropOp43
 70
     1
102
RTVSPost2010Prop44ColorIndex
 90
        5
102
RTVSPost2010Prop44ColorRGB
 90
      255
102
RTVSPost2010PropOp44
 70
     1
102
RTVSPost2010Prop45
280
     0
102
RTVSPost2010PropOp45
 70
     1
102
RTVSPost2010Prop46
 90
       50
102
RTVSPost2010PropOp46
 70
     1
102
RTVSPost2010Prop47
 90
       50
102
RTVSPost2010PropOp47
 70
     1
102
RTVSPost2010Prop48
 90
       50
102
RTVSPost2010PropOp48
 70
     1
102
RTVSPost2010Prop49
280
     0
102
RTVSPost2010PropOp49
 70
     1
102
RTVSPost2010Prop50
 90
       50
102
RTVSPost2010PropOp50
 70
     1
102
RTVSPost2010Prop51ColorIndex
 90
      256
102
RTVSPost2010Prop51ColorRGB
 90
-16777216
102
RTVSPost2010PropOp51
 70
     0
102
RTVSPost2010Prop52
140
1.0
102
RTVSPost2010PropOp52
 70
     0
102
RTVSPost2010Prop53
 90
        2
102
RTVSPost2010PropOp53
 70
     1
102
RTVSPost2010Prop54
  1
strokes_ogs.tif
102
RTVSPost2010PropOp54
 70
     1
102
RTVSPost2010Prop55
280
     0
102
RTVSPost2010PropOp55
 70
     1
102
RTVSPost2010Prop56
140
1.0
102
RTVSPost2010PropOp56
 70
     1
102
RTVSPost2010Prop57
140
1.0
102
RTVSPost2010PropOp57
 70
     1
  0
XRECORD
  5
26A
102
{ACAD_REACTORS
330
269
102
}
330
269
100
AcDbXrecord
280
     1
102
RTVSPost2010Prop28
280
     0
102
RTVSPost2010PropOp28
 70
     1
102
RTVSPost2010Prop29
280
     1
102
RTVSPost2010PropOp29
 70
     1
102
RTVSPost2010Prop30
280
     1
102
RTVSPost2010PropOp30
 70
     1
102
RTVSPost2010Prop31
280
     0
102
RTVSPost2010PropOp31
 70
     1
102
RTVSPost2010Prop32
280
     0
102
RTVSPost2010PropOp32
 70
     1
102
RTVSPost2010Prop33
280
     0
102
RTVSPost2010PropOp33
 70
     1
102
RTVSPost2010Prop34
280
     0
102
RTVSPost2010PropOp34
 70
     1
102
RTVSPost2010Prop35
280
     0
102
RTVSPost2010PropOp35
 70
     1
102
RTVSPost2010Prop36
280
     0
102
RTVSPost2010PropOp36
 70
     1
102
RTVSPost2010Prop37
 90
       50
102
RTVSPost2010PropOp37
 70
     1
102
RTVSPost2010Prop38
140
0.0
102
RTVSPost2010PropOp38
 70
     1
102
RTVSPost2010Prop39
140
1.0
102
RTVSPost2010PropOp39
 70
     1
102
RTVSPost2010Prop40
 90
        0
102
RTVSPost2010PropOp40
 70
     1
102
RTVSPost2010Prop41ColorIndex
 90
       18
102
RTVSPost2010Prop41ColorRGB
 90
        0
102
RTVSPost2010PropOp41
 70
     1
102
RTVSPost2010Prop42
 90
       50
102
RTVSPost2010PropOp42
 70
     1
102
RTVSPost2010Prop43
 90
        3
102
RTVSPost2010PropOp43
 70
     1
102
RTVSPost2010Prop44ColorIndex
 90
        5
102
RTVSPost2010Prop44ColorRGB
 90
      255
102
RTVSPost2010PropOp44
 70
     1
102
RTVSPost2010Prop45
280
     0
102
RTVSPost2010PropOp45
 70
     1
102
RTVSPost2010Prop46
 90
       50
102
RTVSPost2010PropOp46
 70
     1
102
RTVSPost2010Prop47
 90
       50
102
RTVSPost2010PropOp47
 70
     1
102
RTVSPost2010Prop48
 90
       50
102
RTVSPost2010PropOp48
 70
     1
102
RTVSPost2010Prop49
280
     0
102
RTVSPost2010PropOp49
 70
     1
102
RTVSPost2010Prop50
 90
       50
102
RTVSPost2010PropOp50
 70
     1
102
RTVSPost2010Prop51ColorIndex
 90
      256
102
RTVSPost2010Prop51ColorRGB
 90
-16777216
102
RTVSPost2010PropOp51
 70
     0
102
RTVSPost2010Prop52
140
1.0
102
RTVSPost2010PropOp52
 70
     0
102
RTVSPost2010Prop53
 90
        2
102
RTVSPost2010PropOp53
 70
     1
102
RTVSPost2010Prop54
  1
strokes_ogs.tif
102
RTVSPost2010PropOp54
 70
     1
102
RTVSPost2010Prop55
280
     0
102
RTVSPost2010PropOp55
 70
     1
102
RTVSPost2010Prop56
140
1.0
102
RTVSPost2010PropOp56
 70
     1
102
RTVSPost2010Prop57
140
1.0
102
RTVSPost2010PropOp57
 70
     1
  0
XRECORD
  5
282
102
{ACAD_REACTORS
330
281
102
}
330
281
100
AcDbXrecord
280
     1
102
RTVSPost2010Prop28
280
     0
102
RTVSPost2010PropOp28
 70
     1
102
RTVSPost2010Prop29
280
     1
102
RTVSPost2010PropOp29
 70
     1
102
RTVSPost2010Prop30
280
     1
102
RTVSPost2010PropOp30
 70
     1
102
RTVSPost2010Prop31
280
     0
102
RTVSPost2010PropOp31
 70
     1
102
RTVSPost2010Prop32
280
     0
102
RTVSPost2010PropOp32
 70
     1
102
RTVSPost2010Prop33
280
     0
102
RTVSPost2010PropOp33
 70
     1
102
RTVSPost2010Prop34
280
     0
102
RTVSPost2010PropOp34
 70
     1
102
RTVSPost2010Prop35
280
     0
102
RTVSPost2010PropOp35
 70
     1
102
RTVSPost2010Prop36
280
     0
102
RTVSPost2010PropOp36
 70
     1
102
RTVSPost2010Prop37
 90
       50
102
RTVSPost2010PropOp37
 70
     1
102
RTVSPost2010Prop38
140
0.0
102
RTVSPost2010PropOp38
 70
     1
102
RTVSPost2010Prop39
140
1.0
102
RTVSPost2010PropOp39
 70
     1
102
RTVSPost2010Prop40
 90
        0
102
RTVSPost2010PropOp40
 70
     1
102
RTVSPost2010Prop41ColorIndex
 90
       18
102
RTVSPost2010Prop41ColorRGB
 90
        0
102
RTVSPost2010PropOp41
 70
     1
102
RTVSPost2010Prop42
 90
       50
102
RTVSPost2010PropOp42
 70
     1
102
RTVSPost2010Prop43
 90
        3
102
RTVSPost2010PropOp43
 70
     1
102
RTVSPost2010Prop44ColorIndex
 90
        5
102
RTVSPost2010Prop44ColorRGB
 90
      255
102
RTVSPost2010PropOp44
 70
     1
102
RTVSPost2010Prop45
280
     0
102
RTVSPost2010PropOp45
 70
     1
102
RTVSPost2010Prop46
 90
       50
102
RTVSPost2010PropOp46
 70
     1
102
RTVSPost2010Prop47
 90
       50
102
RTVSPost2010PropOp47
 70
     1
102
RTVSPost2010Prop48
 90
       50
102
RTVSPost2010PropOp48
 70
     1
102
RTVSPost2010Prop49
280
     0
102
RTVSPost2010PropOp49
 70
     1
102
RTVSPost2010Prop50
 90
       50
102
RTVSPost2010PropOp50
 70
     1
102
RTVSPost2010Prop51ColorIndex
 90
      256
102
RTVSPost2010Prop51ColorRGB
 90
-16777216
102
RTVSPost2010PropOp51
 70
     0
102
RTVSPost2010Prop52
140
1.0
102
RTVSPost2010PropOp52
 70
     0
102
RTVSPost2010Prop53
 90
        2
102
RTVSPost2010PropOp53
 70
     1
102
RTVSPost2010Prop54
  1
strokes_ogs.tif
102
RTVSPost2010PropOp54
 70
     1
102
RTVSPost2010Prop55
280
     0
102
RTVSPost2010PropOp55
 70
     1
102
RTVSPost2010Prop56
140
1.0
102
RTVSPost2010PropOp56
 70
     1
102
RTVSPost2010Prop57
140
1.0
102
RTVSPost2010PropOp57
 70
     1
  0
ENDSEC
  0
EOF
